<svg data-mobile width="325" height="470" viewBox="0 0 325 470" version="1.1" xmlns="http://www.w3.org/2000/svg" xmlns:xlink="http://www.w3.org/1999/xlink">
<title>Page 1</title>
<desc>Created using Figma</desc>
<g id="Canvas" transform="translate(-3635 -4191)">
<g id="Vector 4.1">
<use xlink:href="#allmob44path0_stroke" transform="translate(3635 4378)" fill="#D0D3E6"/>
</g>
<g id="Vector 3.1">
<use xlink:href="#allmob44path1_stroke" transform="translate(3635 4208)" fill="#D0D3E6"/>
</g>
<g id="Vector 5.1">
<use xlink:href="#allmob44path2_stroke" transform="translate(3635 4256)" fill="#D0D3E6"/>
</g>
<g id="Vector 6.1">
<use xlink:href="#allmob44path3_stroke" transform="translate(3635 4329)" fill="#D0D3E6"/>
</g>
<g id="Vector 7.3">
<use xlink:href="#allmob44path4_stroke" transform="translate(3893 4247)" fill="#D0D3E6"/>
</g>
<g id="4%">
<use xlink:href="#allmob44path5_fill" transform="translate(3635 4190)" fill="#67679A"/>
</g>
<g id="Bounty">
<use xlink:href="#allmob44path6_fill" transform="translate(3635 4211)" fill="#3C3C3B"/>
</g>
<g id="Investments">
<use xlink:href="#allmob44path7_fill" transform="translate(3907 4250)" fill="#3C3C3B"/>
</g>
<g id="Advisors, team members, partners and early contributors">
<use xlink:href="#allmob44path8_fill" transform="translate(3635 4259)" fill="#3C3C3B"/>
</g>
<g id="Early miners reward">
<use xlink:href="#allmob44path9_fill" transform="translate(3635 4332)" fill="#3C3C3B"/>
</g>
<g id="Moeco company">
<use xlink:href="#allmob44path10_fill" transform="translate(3635 4381)" fill="#3C3C3B"/>
</g>
<g id="25%">
<use xlink:href="#allmob44path11_fill" transform="translate(3933 4228)" fill="#67679A"/>
</g>
<g id="Vector 7.4">
<use xlink:href="#allmob44path12_stroke" transform="translate(3894 4378)" fill="#D0D3E6"/>
</g>
<g id="Sold">
<use xlink:href="#allmob44path13_fill" transform="translate(3940 4381)" fill="#3C3C3B"/>
</g>
<g id="25%">
<use xlink:href="#allmob44path11_fill" transform="translate(3933 4360)" fill="#67679A"/>
</g>
<g id="11%">
<use xlink:href="#allmob44path14_fill" transform="translate(3635 4238)" fill="#67679A"/>
</g>
<g id="15%">
<use xlink:href="#allmob44path15_fill" transform="translate(3635 4311)" fill="#67679A"/>
</g>
<g id="20%">
<use xlink:href="#allmob44path16_fill" transform="translate(3635 4360)" fill="#67679A"/>
</g>
<g id="pic_toke_1">
<g id="Vector">
<use xlink:href="#allmob44path17_fill" transform="translate(3742.64 4232.93)" fill="#D0D3E6"/>
</g>
<g id="Group">
<g id="Vector">
<use xlink:href="#allmob44path18_fill" transform="translate(3751.85 4332.38)" fill="#C2C1E2"/>
<use xlink:href="#allmob44path19_stroke" transform="translate(3751.85 4332.38)" fill="#67679A"/>
</g>
<g id="Vector">
<use xlink:href="#allmob44path20_fill" transform="translate(3746.39 4265.91)" fill="#DAD9EE"/>
<use xlink:href="#allmob44path21_stroke" transform="translate(3746.39 4265.91)" fill="#67679A"/>
</g>
<g id="Vector">
<use xlink:href="#allmob44path22_fill" transform="translate(3802.29 4229.19)" fill="#F8F8FC"/>
<use xlink:href="#allmob44path23_stroke" transform="translate(3802.29 4229.19)" fill="#67679A"/>
</g>
<g id="Vector">
<use xlink:href="#allmob44path24_fill" transform="translate(3830.07 4229.19)" fill="#9999CC"/>
<use xlink:href="#allmob44path25_stroke" transform="translate(3830.07 4229.19)" fill="#67679A"/>
</g>
<g id="Vector">
<use xlink:href="#allmob44path26_fill" transform="translate(3760.84 4233.95)" fill="#F0F0F9"/>
<use xlink:href="#allmob44path27_stroke" transform="translate(3760.84 4233.95)" fill="#67679A"/>
</g>
<g id="Group">
<g id="Vector">
<use xlink:href="#allmob44path28_fill" transform="translate(3830.07 4312.9)" fill="#8E8EC1"/>
<use xlink:href="#allmob44path29_stroke" transform="translate(3830.07 4312.9)" fill="#67679A"/>
</g>
</g>
</g>
</g>
<g id="pic_toke_2">
<g id="Vector">
<use xlink:href="#allmob44path30_fill" transform="matrix(-1 0 0 1 3898 4500.75)" fill="#D0D3E6"/>
</g>
<g id="Group">
<g id="Vector">
<use xlink:href="#allmob44path31_fill" transform="matrix(-1 0 0 1 3827.55 4605.26)" fill="#F0F0F9"/>
<use xlink:href="#allmob44path32_stroke" transform="matrix(-1 0 0 1 3827.55 4605.26)" fill="#67679A"/>
</g>
<g id="Vector">
<use xlink:href="#allmob44path33_fill" transform="matrix(-1 0 0 1 3810.86 4569.52)" fill="#DAD9EE"/>
<use xlink:href="#allmob44path34_stroke" transform="matrix(-1 0 0 1 3810.86 4569.52)" fill="#67679A"/>
</g>
<g id="Vector">
<use xlink:href="#allmob44path35_fill" transform="matrix(-1 0 0 1 3819.32 4498.51)" fill="#C2C1E2"/>
<use xlink:href="#allmob44path36_stroke" transform="matrix(-1 0 0 1 3819.32 4498.51)" fill="#67679A"/>
</g>
<g id="Vector">
<use xlink:href="#allmob44path37_fill" transform="matrix(-1 0 0 1 3895.01 4497.3)" fill="#9999CC"/>
<use xlink:href="#allmob44path38_stroke" transform="matrix(-1 0 0 1 3895.01 4497.3)" fill="#67679A"/>
</g>
</g>
</g>
<g id="Vector 8.1">
<use xlink:href="#allmob44path39_stroke" transform="matrix(-1 0 0 1 3821 4471)" fill="#D0D3E6"/>
</g>
<g id="Vector 9.1">
<use xlink:href="#allmob44path40_stroke" transform="matrix(-1 1.22465e-16 -1.22465e-16 -1 3759 4529)" fill="#D0D3E6"/>
</g>
<g id="Vector 10.1">
<use xlink:href="#allmob44path41_stroke" transform="matrix(-1 1.22465e-16 -1.22465e-16 -1 3755 4587)" fill="#D0D3E6"/>
</g>
<g id="Vector 11.1">
<use xlink:href="#allmob44path42_stroke" transform="matrix(-1 0 0 1 3806 4636)" fill="#D0D3E6"/>
</g>
<g id="Development">
<use xlink:href="#allmob44path43_fill" transform="translate(3635 4474)" fill="#3C3C3B"/>
</g>
<g id="Marketing">
<use xlink:href="#allmob44path44_fill" transform="translate(3635 4532)" fill="#3C3C3B"/>
</g>
<g id="Operations">
<use xlink:href="#allmob44path45_fill" transform="translate(3635 4590)" fill="#3C3C3B"/>
</g>
<g id="Legal">
<use xlink:href="#allmob44path46_fill" transform="translate(3635 4648)" fill="#3C3C3B"/>
</g>
<g id="55%">
<use xlink:href="#allmob44path47_fill" transform="translate(3635 4453)" fill="#67679A"/>
</g>
<g id="23%">
<use xlink:href="#allmob44path48_fill" transform="translate(3635 4511)" fill="#67679A"/>
</g>
<g id="15%">
<use xlink:href="#allmob44path15_fill" transform="translate(3635 4569)" fill="#67679A"/>
</g>
<g id="7%">
<use xlink:href="#allmob44path49_fill" transform="translate(3635 4627)" fill="#67679A"/>
</g>
<g id="Vector 7">
<use xlink:href="#allmob44path50_stroke" transform="matrix(6.12323e-17 1 -1 6.12323e-17 3837 4417)" fill="#D0D3E6"/>
</g>
</g>
<defs>
<path id="allmob44path0_stroke" d="M 0 0.5L 123 0.5L 123 -0.5L 0 -0.5L 0 0.5Z"/>
<path id="allmob44path1_stroke" d="M 168.188 0L 168.661 -0.162515L 168.545 -0.5L 168.188 -0.5L 168.188 0ZM 0 0.5L 168.188 0.5L 168.188 -0.5L 0 -0.5L 0 0.5ZM 167.715 0.162515L 172.527 14.1625L 173.473 13.8375L 168.661 -0.162515L 167.715 0.162515Z"/>
<path id="allmob44path2_stroke" d="M 0 0.5L 121 0.5L 121 -0.5L 0 -0.5L 0 0.5Z"/>
<path id="allmob44path3_stroke" d="M 0 0.5L 100 0.5L 100 -0.5L 0 -0.5L 0 0.5Z"/>
<path id="allmob44path4_stroke" d="M 0 0.5L 67 0.5L 67 -0.5L 0 -0.5L 0 0.5Z"/>
<path id="allmob44path5_fill" d="M 0.21 9.21L 3.795 1.65L 5.64 1.65L 2.325 8.925L 4.755 8.925L 4.755 6.105L 6.495 6.105L 6.495 8.925L 7.44 8.925L 7.44 10.44L 6.495 10.44L 6.495 12L 4.755 12L 4.755 10.44L 0.21 10.44L 0.21 9.21ZM 9.69691 12L 15.4869 1.65L 17.0769 1.65L 11.3019 12L 9.69691 12ZM 18.6969 9.06L 18.6969 9.84C 18.6969 10.57 18.5069 11.135 18.1269 11.535C 17.7569 11.935 17.2019 12.135 16.4619 12.135C 15.7619 12.135 15.2219 11.935 14.8419 11.535C 14.4619 11.135 14.2719 10.57 14.2719 9.84L 14.2719 9.06C 14.2719 8.33 14.4619 7.77 14.8419 7.38C 15.2319 6.98 15.7719 6.78 16.4619 6.78C 17.1819 6.78 17.7319 6.98 18.1119 7.38C 18.5019 7.77 18.6969 8.33 18.6969 9.06ZM 16.4769 11.01C 17.1069 11.01 17.4219 10.615 17.4219 9.825L 17.4219 9.09C 17.4219 8.31 17.1069 7.92 16.4769 7.92C 15.8669 7.92 15.5619 8.31 15.5619 9.09L 15.5619 9.825C 15.5619 10.615 15.8669 11.01 16.4769 11.01ZM 12.6219 3.795L 12.6219 4.575C 12.6219 5.305 12.4319 5.87 12.0519 6.27C 11.6819 6.67 11.1269 6.87 10.3869 6.87C 9.67691 6.87 9.13191 6.67 8.75191 6.27C 8.37191 5.87 8.18191 5.305 8.18191 4.575L 8.18191 3.795C 8.18191 3.065 8.37191 2.505 8.75191 2.115C 9.14191 1.715 9.68691 1.515 10.3869 1.515C 11.1069 1.515 11.6569 1.715 12.0369 2.115C 12.4269 2.505 12.6219 3.065 12.6219 3.795ZM 10.3869 5.745C 11.0169 5.745 11.3319 5.35 11.3319 4.56L 11.3319 3.825C 11.3319 3.045 11.0169 2.655 10.3869 2.655C 9.78691 2.655 9.48691 3.045 9.48691 3.825L 9.48691 4.56C 9.48691 5.35 9.78691 5.745 10.3869 5.745Z"/>
<path id="allmob44path6_fill" d="M 0.85 3.1L 0.85 10L 3.18 10C 4.95 10 5.56 9.02 5.56 8.02C 5.56 7.14 5.07 6.56 4.2 6.4C 4.87 6.24 5.34 5.58 5.34 4.86C 5.34 3.71 4.57 3.1 2.96 3.1L 0.85 3.1ZM 1.71 6.81L 3.02 6.81C 4.16 6.81 4.7 7.19 4.7 8.02C 4.7 8.77 4.22 9.22 3.18 9.22L 1.71 9.22L 1.71 6.81ZM 1.71 3.87L 2.96 3.87C 4.17 3.87 4.48 4.25 4.48 4.86C 4.48 5.54 4.08 6.03 3.11 6.03L 1.71 6.03L 1.71 3.87ZM 10.517 7.16C 10.517 5.73 9.75703 4.92 8.43703 4.92C 7.12703 4.92 6.35703 5.74 6.35703 7.16L 6.35703 7.82C 6.35703 9.2 7.10703 10.08 8.43703 10.08C 9.87703 10.08 10.517 9.12 10.517 7.82L 10.517 7.16ZM 8.43703 9.36C 7.51703 9.36 7.15703 8.68 7.15703 7.82L 7.15703 7.16C 7.15703 6.22 7.61703 5.64 8.43703 5.64C 9.25703 5.64 9.71703 6.21 9.71703 7.16L 9.71703 7.82C 9.71703 8.67 9.28703 9.36 8.43703 9.36ZM 15.528 5L 14.728 5L 14.728 8.12C 14.728 8.81 14.258 9.34 13.508 9.34C 12.918 9.34 12.368 9.12 12.368 8.11L 12.368 5L 11.568 5L 11.568 8.12C 11.568 9.52 12.318 10.08 13.388 10.08C 14.128 10.08 14.478 9.89 14.728 9.51L 14.728 10L 15.528 10L 15.528 5ZM 16.8316 10L 17.6316 10L 17.6316 6.88C 17.6316 6.19 18.1016 5.66 18.8516 5.66C 19.4416 5.66 19.9916 5.88 19.9916 6.89L 19.9916 10L 20.7916 10L 20.7916 6.88C 20.7916 5.48 20.0416 4.92 18.9716 4.92C 18.2316 4.92 17.8816 5.11 17.6316 5.49L 17.6316 5L 16.8316 5L 16.8316 10ZM 21.6553 5.72L 22.2953 5.72L 22.2953 8.46C 22.2953 9.5 22.6353 10 23.8153 10L 24.2453 10L 24.2453 9.24L 23.8453 9.24C 23.1753 9.24 23.0953 8.95 23.0953 8.26L 23.0953 5.72L 24.2453 5.72L 24.2453 5L 23.0953 5L 23.0953 3.9L 22.2953 3.9L 22.2953 5L 21.6553 5L 21.6553 5.72ZM 26.5896 10.12C 26.2896 11.01 25.9796 11.12 25.3196 11.12L 25.3196 11.9C 26.7196 11.9 26.9896 11.36 27.3996 10.16L 29.1596 5L 28.3096 5L 26.9996 8.88L 25.5096 5L 24.6496 5L 26.6096 10.05L 26.5896 10.12Z"/>
<path id="allmob44path7_fill" d="M 3.07172 3.1L 2.21172 3.1L 2.21172 10L 3.07172 10L 3.07172 3.1ZM 4.67539 10L 5.47539 10L 5.47539 6.88C 5.47539 6.19 5.94539 5.66 6.69539 5.66C 7.28539 5.66 7.83539 5.88 7.83539 6.89L 7.83539 10L 8.63539 10L 8.63539 6.88C 8.63539 5.48 7.88539 4.92 6.81539 4.92C 6.07539 4.92 5.72539 5.11 5.47539 5.49L 5.47539 5L 4.67539 5L 4.67539 10ZM 13.3291 5L 11.8091 8.98L 10.2891 5L 9.38906 5L 11.4291 10L 12.2291 10L 14.2291 5L 13.3291 5ZM 17.9981 8.8C 17.7881 9.17 17.4581 9.36 16.8081 9.36C 15.9381 9.36 15.5281 8.68 15.5281 7.82L 15.5281 7.68L 18.6881 7.68L 18.6881 7.16C 18.6881 5.73 18.0281 4.92 16.7081 4.92C 15.3981 4.92 14.7281 5.74 14.7281 7.16L 14.7281 7.82C 14.7281 9.21 15.5281 10.08 16.8681 10.08C 17.7381 10.08 18.2681 9.85 18.6181 9.24L 17.9981 8.8ZM 16.7081 5.64C 17.4681 5.64 17.8381 6.14 17.8781 6.98L 15.5281 6.98C 15.5781 6.15 15.9381 5.64 16.7081 5.64ZM 23.2709 5.75C 22.8809 5.13 22.2609 4.92 21.4509 4.92C 20.2609 4.92 19.6609 5.51 19.6609 6.34C 19.6609 7.43 20.4909 7.77 21.3309 7.83C 22.3009 7.9 22.6209 8.09 22.6209 8.63C 22.6209 9.08 22.2209 9.34 21.5509 9.34C 20.8309 9.34 20.4709 9.19 20.2009 8.83L 19.6109 9.25C 19.9909 9.77 20.5209 10.08 21.5409 10.08C 22.8309 10.08 23.4209 9.48 23.4209 8.61C 23.4209 7.46 22.5609 7.19 21.6209 7.12C 20.9609 7.07 20.4609 6.9 20.4609 6.33C 20.4609 5.89 20.8409 5.66 21.4309 5.66C 22.1209 5.66 22.4009 5.82 22.6709 6.17L 23.2709 5.75ZM 24.0791 5.72L 24.7191 5.72L 24.7191 8.46C 24.7191 9.5 25.0591 10 26.2391 10L 26.6691 10L 26.6691 9.24L 26.2691 9.24C 25.5991 9.24 25.5191 8.95 25.5191 8.26L 25.5191 5.72L 26.6691 5.72L 26.6691 5L 25.5191 5L 25.5191 3.9L 24.7191 3.9L 24.7191 5L 24.0791 5L 24.0791 5.72ZM 27.6734 10L 28.4734 10L 28.4734 6.88C 28.4734 6.19 28.9434 5.66 29.5934 5.66C 30.1834 5.66 30.6334 5.98 30.6334 6.89L 30.6334 10L 31.4334 10L 31.4334 6.88C 31.4334 6.17 31.9134 5.66 32.5534 5.66C 33.1434 5.66 33.5934 5.98 33.5934 6.89L 33.5934 10L 34.3934 10L 34.3934 6.88C 34.3934 5.58 33.7434 4.92 32.6734 4.92C 32.0634 4.92 31.5134 5.18 31.1734 5.71C 30.8934 5.19 30.3834 4.92 29.7134 4.92C 29.0734 4.92 28.6934 5.15 28.4734 5.49L 28.4734 5L 27.6734 5L 27.6734 10ZM 38.711 8.8C 38.501 9.17 38.171 9.36 37.521 9.36C 36.651 9.36 36.241 8.68 36.241 7.82L 36.241 7.68L 39.401 7.68L 39.401 7.16C 39.401 5.73 38.741 4.92 37.421 4.92C 36.111 4.92 35.441 5.74 35.441 7.16L 35.441 7.82C 35.441 9.21 36.241 10.08 37.581 10.08C 38.451 10.08 38.981 9.85 39.331 9.24L 38.711 8.8ZM 37.421 5.64C 38.181 5.64 38.551 6.14 38.591 6.98L 36.241 6.98C 36.291 6.15 36.651 5.64 37.421 5.64ZM 40.5738 10L 41.3738 10L 41.3738 6.88C 41.3738 6.19 41.8438 5.66 42.5938 5.66C 43.1838 5.66 43.7338 5.88 43.7338 6.89L 43.7338 10L 44.5338 10L 44.5338 6.88C 44.5338 5.48 43.7838 4.92 42.7138 4.92C 41.9738 4.92 41.6238 5.11 41.3738 5.49L 41.3738 5L 40.5738 5L 40.5738 10ZM 45.3975 5.72L 46.0375 5.72L 46.0375 8.46C 46.0375 9.5 46.3775 10 47.5575 10L 47.9875 10L 47.9875 9.24L 47.5875 9.24C 46.9175 9.24 46.8375 8.95 46.8375 8.26L 46.8375 5.72L 47.9875 5.72L 47.9875 5L 46.8375 5L 46.8375 3.9L 46.0375 3.9L 46.0375 5L 45.3975 5L 45.3975 5.72ZM 52.4018 5.75C 52.0118 5.13 51.3918 4.92 50.5818 4.92C 49.3918 4.92 48.7918 5.51 48.7918 6.34C 48.7918 7.43 49.6218 7.77 50.4618 7.83C 51.4318 7.9 51.7518 8.09 51.7518 8.63C 51.7518 9.08 51.3518 9.34 50.6818 9.34C 49.9618 9.34 49.6018 9.19 49.3318 8.83L 48.7418 9.25C 49.1218 9.77 49.6518 10.08 50.6718 10.08C 51.9618 10.08 52.5518 9.48 52.5518 8.61C 52.5518 7.46 51.6918 7.19 50.7518 7.12C 50.0918 7.07 49.5918 6.9 49.5918 6.33C 49.5918 5.89 49.9718 5.66 50.5618 5.66C 51.2518 5.66 51.5318 5.82 51.8018 6.17L 52.4018 5.75Z"/>
<path id="allmob44path8_fill" d="M 1.111 10L 1.694 8.262L 4.686 8.262L 5.269 10L 6.27 10L 3.63 2.41L 2.75 2.41L 0.11 10L 1.111 10ZM 3.19 3.84L 4.389 7.404L 1.991 7.404L 3.19 3.84ZM 10.4524 5.05C 10.1554 4.643 9.68241 4.412 8.95641 4.412C 7.59241 4.412 6.75641 5.303 6.75641 6.876L 6.75641 7.602C 6.75641 9.032 7.46041 10.088 8.95641 10.088C 9.68241 10.088 10.1554 9.901 10.4524 9.516L 10.4524 10L 11.3324 10L 11.3324 2.41L 10.4524 2.41L 10.4524 5.05ZM 9.04441 9.296C 8.10941 9.296 7.63641 8.537 7.63641 7.602L 7.63641 6.876C 7.63641 5.831 8.14241 5.204 9.04441 5.204C 9.94641 5.204 10.4524 5.842 10.4524 6.876L 10.4524 7.679C 10.4524 8.592 10.0234 9.296 9.04441 9.296ZM 16.4967 4.5L 14.8247 8.878L 13.1527 4.5L 12.1627 4.5L 14.4067 10L 15.2867 10L 17.4867 4.5L 16.4967 4.5ZM 18.4757 10L 19.3557 10L 19.3557 4.5L 18.4757 4.5L 18.4757 10ZM 18.4207 3.4L 19.4107 3.4L 19.4107 2.41L 18.4207 2.41L 18.4207 3.4ZM 24.7043 5.325C 24.2753 4.643 23.5933 4.412 22.7023 4.412C 21.3933 4.412 20.7333 5.061 20.7333 5.974C 20.7333 7.173 21.6463 7.547 22.5703 7.613C 23.6373 7.69 23.9893 7.899 23.9893 8.493C 23.9893 8.988 23.5493 9.274 22.8123 9.274C 22.0203 9.274 21.6243 9.109 21.3273 8.713L 20.6783 9.175C 21.0963 9.747 21.6793 10.088 22.8013 10.088C 24.2203 10.088 24.8693 9.428 24.8693 8.471C 24.8693 7.206 23.9233 6.909 22.8893 6.832C 22.1633 6.777 21.6133 6.59 21.6133 5.963C 21.6133 5.479 22.0313 5.226 22.6803 5.226C 23.4393 5.226 23.7473 5.402 24.0443 5.787L 24.7043 5.325ZM 30.3783 6.876C 30.3783 5.303 29.5423 4.412 28.0903 4.412C 26.6493 4.412 25.8023 5.314 25.8023 6.876L 25.8023 7.602C 25.8023 9.12 26.6273 10.088 28.0903 10.088C 29.6743 10.088 30.3783 9.032 30.3783 7.602L 30.3783 6.876ZM 28.0903 9.296C 27.0783 9.296 26.6823 8.548 26.6823 7.602L 26.6823 6.876C 26.6823 5.842 27.1883 5.204 28.0903 5.204C 28.9923 5.204 29.4983 5.831 29.4983 6.876L 29.4983 7.602C 29.4983 8.537 29.0253 9.296 28.0903 9.296ZM 35.2633 5.16C 34.9113 4.665 34.4383 4.412 33.6903 4.412C 33.0193 4.412 32.6453 4.654 32.4143 5.039L 32.4143 4.5L 31.5343 4.5L 31.5343 10L 32.4143 10L 32.4143 6.557C 32.4143 5.732 32.9203 5.226 33.5913 5.226C 33.9983 5.226 34.2843 5.369 34.5153 5.688L 35.2633 5.16ZM 39.6144 5.325C 39.1854 4.643 38.5034 4.412 37.6124 4.412C 36.3034 4.412 35.6434 5.061 35.6434 5.974C 35.6434 7.173 36.5564 7.547 37.4804 7.613C 38.5474 7.69 38.8994 7.899 38.8994 8.493C 38.8994 8.988 38.4594 9.274 37.7224 9.274C 36.9304 9.274 36.5344 9.109 36.2374 8.713L 35.5884 9.175C 36.0064 9.747 36.5894 10.088 37.7114 10.088C 39.1304 10.088 39.7794 9.428 39.7794 8.471C 39.7794 7.206 38.8334 6.909 37.7994 6.832C 37.0734 6.777 36.5234 6.59 36.5234 5.963C 36.5234 5.479 36.9414 5.226 37.5904 5.226C 38.3494 5.226 38.6574 5.402 38.9544 5.787L 39.6144 5.325ZM 41.9885 8.724L 40.9325 8.724L 40.9325 11.562L 41.9885 10.649L 41.9885 8.724ZM 45.6275 5.292L 46.3315 5.292L 46.3315 8.306C 46.3315 9.45 46.7055 10 48.0035 10L 48.4765 10L 48.4765 9.164L 48.0365 9.164C 47.2995 9.164 47.2115 8.845 47.2115 8.086L 47.2115 5.292L 48.4765 5.292L 48.4765 4.5L 47.2115 4.5L 47.2115 3.29L 46.3315 3.29L 46.3315 4.5L 45.6275 4.5L 45.6275 5.292ZM 52.9032 8.68C 52.6722 9.087 52.3092 9.296 51.5942 9.296C 50.6372 9.296 50.1862 8.548 50.1862 7.602L 50.1862 7.448L 53.6622 7.448L 53.6622 6.876C 53.6622 5.303 52.9362 4.412 51.4842 4.412C 50.0432 4.412 49.3062 5.314 49.3062 6.876L 49.3062 7.602C 49.3062 9.131 50.1862 10.088 51.6602 10.088C 52.6172 10.088 53.2002 9.835 53.5852 9.164L 52.9032 8.68ZM 51.4842 5.204C 52.3202 5.204 52.7272 5.754 52.7712 6.678L 50.1862 6.678C 50.2412 5.765 50.6372 5.204 51.4842 5.204ZM 54.6773 8.394C 54.6773 9.461 55.3703 10.088 56.6463 10.088C 57.3613 10.088 57.7353 9.967 58.0433 9.461L 58.0433 10L 58.9233 10L 58.9233 6.183C 58.9233 4.863 58.2303 4.412 56.8333 4.412C 55.7883 4.412 55.2273 4.687 54.8423 5.325L 55.5023 5.787C 55.8103 5.281 56.1623 5.226 56.8223 5.226C 57.6803 5.226 58.0433 5.402 58.0433 6.183L 58.0433 6.821L 56.7343 6.821C 55.5243 6.821 54.6773 7.206 54.6773 8.394ZM 58.0433 7.888C 58.0433 9.12 57.4603 9.274 56.6463 9.274C 55.9973 9.274 55.5573 9.032 55.5573 8.416C 55.5573 7.866 55.8653 7.569 56.7343 7.569L 58.0433 7.569L 58.0433 7.888ZM 60.3556 10L 61.2356 10L 61.2356 6.568C 61.2356 5.809 61.7526 5.226 62.4676 5.226C 63.1166 5.226 63.6116 5.578 63.6116 6.579L 63.6116 10L 64.4916 10L 64.4916 6.568C 64.4916 5.787 65.0196 5.226 65.7236 5.226C 66.3726 5.226 66.8676 5.578 66.8676 6.579L 66.8676 10L 67.7476 10L 67.7476 6.568C 67.7476 5.138 67.0326 4.412 65.8556 4.412C 65.1846 4.412 64.5796 4.698 64.2056 5.281C 63.8976 4.709 63.3366 4.412 62.5996 4.412C 61.8956 4.412 61.4776 4.665 61.2356 5.039L 61.2356 4.5L 60.3556 4.5L 60.3556 10ZM 0.715 23L 1.595 23L 1.595 19.568C 1.595 18.809 2.112 18.226 2.827 18.226C 3.476 18.226 3.971 18.578 3.971 19.579L 3.971 23L 4.851 23L 4.851 19.568C 4.851 18.787 5.379 18.226 6.083 18.226C 6.732 18.226 7.227 18.578 7.227 19.579L 7.227 23L 8.107 23L 8.107 19.568C 8.107 18.138 7.392 17.412 6.215 17.412C 5.544 17.412 4.939 17.698 4.565 18.281C 4.257 17.709 3.696 17.412 2.959 17.412C 2.255 17.412 1.837 17.665 1.595 18.039L 1.595 17.5L 0.715 17.5L 0.715 23ZM 12.8563 21.68C 12.6253 22.087 12.2623 22.296 11.5473 22.296C 10.5903 22.296 10.1393 21.548 10.1393 20.602L 10.1393 20.448L 13.6153 20.448L 13.6153 19.876C 13.6153 18.303 12.8893 17.412 11.4373 17.412C 9.99634 17.412 9.25934 18.314 9.25934 19.876L 9.25934 20.602C 9.25934 22.131 10.1393 23.088 11.6133 23.088C 12.5703 23.088 13.1533 22.835 13.5383 22.164L 12.8563 21.68ZM 11.4373 18.204C 12.2733 18.204 12.6803 18.754 12.7243 19.678L 10.1393 19.678C 10.1943 18.765 10.5903 18.204 11.4373 18.204ZM 14.9054 23L 15.7854 23L 15.7854 19.568C 15.7854 18.809 16.3024 18.226 17.0174 18.226C 17.6664 18.226 18.1614 18.578 18.1614 19.579L 18.1614 23L 19.0414 23L 19.0414 19.568C 19.0414 18.787 19.5694 18.226 20.2734 18.226C 20.9224 18.226 21.4174 18.578 21.4174 19.579L 21.4174 23L 22.2974 23L 22.2974 19.568C 22.2974 18.138 21.5824 17.412 20.4054 17.412C 19.7344 17.412 19.1294 17.698 18.7554 18.281C 18.4474 17.709 17.8864 17.412 17.1494 17.412C 16.4454 17.412 16.0274 17.665 15.7854 18.039L 15.7854 17.5L 14.9054 17.5L 14.9054 23ZM 24.6048 15.41L 23.7248 15.41L 23.7248 23L 24.6048 23L 24.6048 22.516C 24.9018 22.901 25.3638 23.088 26.1008 23.088C 27.5968 23.088 28.3008 22.032 28.3008 20.602L 28.3008 19.876C 28.3008 18.303 27.4648 17.412 26.1008 17.412C 25.3748 17.412 24.9018 17.643 24.6048 18.05L 24.6048 15.41ZM 26.0128 22.296C 25.0008 22.296 24.6048 21.548 24.6048 20.602L 24.6048 19.799C 24.6048 18.809 25.1328 18.204 26.0128 18.204C 26.9148 18.204 27.4208 18.831 27.4208 19.876L 27.4208 20.602C 27.4208 21.537 26.9478 22.296 26.0128 22.296ZM 32.7831 21.68C 32.5521 22.087 32.1891 22.296 31.4741 22.296C 30.5171 22.296 30.0661 21.548 30.0661 20.602L 30.0661 20.448L 33.5421 20.448L 33.5421 19.876C 33.5421 18.303 32.8161 17.412 31.3641 17.412C 29.9231 17.412 29.1861 18.314 29.1861 19.876L 29.1861 20.602C 29.1861 22.131 30.0661 23.088 31.5401 23.088C 32.4971 23.088 33.0801 22.835 33.4651 22.164L 32.7831 21.68ZM 31.3641 18.204C 32.2001 18.204 32.6071 18.754 32.6511 19.678L 30.0661 19.678C 30.1211 18.765 30.5171 18.204 31.3641 18.204ZM 38.5612 18.16C 38.2092 17.665 37.7362 17.412 36.9882 17.412C 36.3172 17.412 35.9432 17.654 35.7122 18.039L 35.7122 17.5L 34.8322 17.5L 34.8322 23L 35.7122 23L 35.7122 19.557C 35.7122 18.732 36.2182 18.226 36.8892 18.226C 37.2962 18.226 37.5822 18.369 37.8132 18.688L 38.5612 18.16ZM 42.9123 18.325C 42.4833 17.643 41.8013 17.412 40.9103 17.412C 39.6013 17.412 38.9413 18.061 38.9413 18.974C 38.9413 20.173 39.8543 20.547 40.7783 20.613C 41.8453 20.69 42.1973 20.899 42.1973 21.493C 42.1973 21.988 41.7573 22.274 41.0203 22.274C 40.2283 22.274 39.8323 22.109 39.5353 21.713L 38.8863 22.175C 39.3043 22.747 39.8873 23.088 41.0093 23.088C 42.4283 23.088 43.0773 22.428 43.0773 21.471C 43.0773 20.206 42.1313 19.909 41.0973 19.832C 40.3713 19.777 39.8213 19.59 39.8213 18.963C 39.8213 18.479 40.2393 18.226 40.8883 18.226C 41.6473 18.226 41.9553 18.402 42.2523 18.787L 42.9123 18.325ZM 45.2863 21.724L 44.2303 21.724L 44.2303 24.562L 45.2863 23.649L 45.2863 21.724ZM 50.2893 18.05L 50.2893 17.5L 49.4093 17.5L 49.4093 25.09L 50.2893 25.09L 50.2893 22.45C 50.5863 22.857 51.0593 23.088 51.7853 23.088C 53.2813 23.088 53.9853 22.032 53.9853 20.602L 53.9853 19.876C 53.9853 18.303 53.1493 17.412 51.7853 17.412C 51.0593 17.412 50.5863 17.643 50.2893 18.05ZM 51.6973 22.296C 50.6853 22.296 50.2893 21.548 50.2893 20.602L 50.2893 19.799C 50.2893 18.809 50.8173 18.204 51.6973 18.204C 52.5993 18.204 53.1053 18.831 53.1053 19.876L 53.1053 20.602C 53.1053 21.537 52.6323 22.296 51.6973 22.296ZM 54.8707 21.394C 54.8707 22.461 55.5637 23.088 56.8397 23.088C 57.5547 23.088 57.9287 22.967 58.2367 22.461L 58.2367 23L 59.1167 23L 59.1167 19.183C 59.1167 17.863 58.4237 17.412 57.0267 17.412C 55.9817 17.412 55.4207 17.687 55.0357 18.325L 55.6957 18.787C 56.0037 18.281 56.3557 18.226 57.0157 18.226C 57.8737 18.226 58.2367 18.402 58.2367 19.183L 58.2367 19.821L 56.9277 19.821C 55.7177 19.821 54.8707 20.206 54.8707 21.394ZM 58.2367 20.888C 58.2367 22.12 57.6537 22.274 56.8397 22.274C 56.1907 22.274 55.7507 22.032 55.7507 21.416C 55.7507 20.866 56.0587 20.569 56.9277 20.569L 58.2367 20.569L 58.2367 20.888ZM 64.278 18.16C 63.926 17.665 63.453 17.412 62.705 17.412C 62.034 17.412 61.66 17.654 61.429 18.039L 61.429 17.5L 60.549 17.5L 60.549 23L 61.429 23L 61.429 19.557C 61.429 18.732 61.935 18.226 62.606 18.226C 63.013 18.226 63.299 18.369 63.53 18.688L 64.278 18.16ZM 64.3941 18.292L 65.0981 18.292L 65.0981 21.306C 65.0981 22.45 65.4721 23 66.7701 23L 67.2431 23L 67.2431 22.164L 66.8031 22.164C 66.0661 22.164 65.9781 21.845 65.9781 21.086L 65.9781 18.292L 67.2431 18.292L 67.2431 17.5L 65.9781 17.5L 65.9781 16.29L 65.0981 16.29L 65.0981 17.5L 64.3941 17.5L 64.3941 18.292ZM 68.3478 23L 69.2278 23L 69.2278 19.568C 69.2278 18.809 69.7448 18.226 70.5698 18.226C 71.2188 18.226 71.8238 18.468 71.8238 19.579L 71.8238 23L 72.7038 23L 72.7038 19.568C 72.7038 18.028 71.8788 17.412 70.7018 17.412C 69.8878 17.412 69.5028 17.621 69.2278 18.039L 69.2278 17.5L 68.3478 17.5L 68.3478 23ZM 77.4599 21.68C 77.2289 22.087 76.8659 22.296 76.1509 22.296C 75.1939 22.296 74.7429 21.548 74.7429 20.602L 74.7429 20.448L 78.2189 20.448L 78.2189 19.876C 78.2189 18.303 77.4929 17.412 76.0409 17.412C 74.5999 17.412 73.8629 18.314 73.8629 19.876L 73.8629 20.602C 73.8629 22.131 74.7429 23.088 76.2169 23.088C 77.1739 23.088 77.7569 22.835 78.1419 22.164L 77.4599 21.68ZM 76.0409 18.204C 76.8769 18.204 77.2839 18.754 77.3279 19.678L 74.7429 19.678C 74.7979 18.765 75.1939 18.204 76.0409 18.204ZM 83.2379 18.16C 82.8859 17.665 82.4129 17.412 81.6649 17.412C 80.9939 17.412 80.6199 17.654 80.3889 18.039L 80.3889 17.5L 79.5089 17.5L 79.5089 23L 80.3889 23L 80.3889 19.557C 80.3889 18.732 80.8949 18.226 81.5659 18.226C 81.9729 18.226 82.2589 18.369 82.4899 18.688L 83.2379 18.16ZM 87.589 18.325C 87.16 17.643 86.478 17.412 85.587 17.412C 84.278 17.412 83.618 18.061 83.618 18.974C 83.618 20.173 84.531 20.547 85.455 20.613C 86.522 20.69 86.874 20.899 86.874 21.493C 86.874 21.988 86.434 22.274 85.697 22.274C 84.905 22.274 84.509 22.109 84.212 21.713L 83.563 22.175C 83.981 22.747 84.564 23.088 85.686 23.088C 87.105 23.088 87.754 22.428 87.754 21.471C 87.754 20.206 86.808 19.909 85.774 19.832C 85.048 19.777 84.498 19.59 84.498 18.963C 84.498 18.479 84.916 18.226 85.565 18.226C 86.324 18.226 86.632 18.402 86.929 18.787L 87.589 18.325ZM 0.44 34.394C 0.44 35.461 1.133 36.088 2.409 36.088C 3.124 36.088 3.498 35.967 3.806 35.461L 3.806 36L 4.686 36L 4.686 32.183C 4.686 30.863 3.993 30.412 2.596 30.412C 1.551 30.412 0.99 30.687 0.605 31.325L 1.265 31.787C 1.573 31.281 1.925 31.226 2.585 31.226C 3.443 31.226 3.806 31.402 3.806 32.183L 3.806 32.821L 2.497 32.821C 1.287 32.821 0.44 33.206 0.44 34.394ZM 3.806 33.888C 3.806 35.12 3.223 35.274 2.409 35.274C 1.76 35.274 1.32 35.032 1.32 34.416C 1.32 33.866 1.628 33.569 2.497 33.569L 3.806 33.569L 3.806 33.888ZM 6.11832 36L 6.99832 36L 6.99832 32.568C 6.99832 31.809 7.51532 31.226 8.34032 31.226C 8.98932 31.226 9.59432 31.468 9.59432 32.579L 9.59432 36L 10.4743 36L 10.4743 32.568C 10.4743 31.028 9.64932 30.412 8.47232 30.412C 7.65832 30.412 7.27332 30.621 6.99832 31.039L 6.99832 30.5L 6.11832 30.5L 6.11832 36ZM 15.3294 31.05C 15.0324 30.643 14.5594 30.412 13.8334 30.412C 12.4694 30.412 11.6334 31.303 11.6334 32.876L 11.6334 33.602C 11.6334 35.032 12.3374 36.088 13.8334 36.088C 14.5594 36.088 15.0324 35.901 15.3294 35.516L 15.3294 36L 16.2094 36L 16.2094 28.41L 15.3294 28.41L 15.3294 31.05ZM 13.9214 35.296C 12.9864 35.296 12.5134 34.537 12.5134 33.602L 12.5134 32.876C 12.5134 31.831 13.0194 31.204 13.9214 31.204C 14.8234 31.204 15.3294 31.842 15.3294 32.876L 15.3294 33.679C 15.3294 34.592 14.9004 35.296 13.9214 35.296ZM 23.7167 34.68C 23.4857 35.087 23.1227 35.296 22.4077 35.296C 21.4507 35.296 20.9997 34.548 20.9997 33.602L 20.9997 33.448L 24.4757 33.448L 24.4757 32.876C 24.4757 31.303 23.7497 30.412 22.2977 30.412C 20.8567 30.412 20.1197 31.314 20.1197 32.876L 20.1197 33.602C 20.1197 35.131 20.9997 36.088 22.4737 36.088C 23.4307 36.088 24.0137 35.835 24.3987 35.164L 23.7167 34.68ZM 22.2977 31.204C 23.1337 31.204 23.5407 31.754 23.5847 32.678L 20.9997 32.678C 21.0547 31.765 21.4507 31.204 22.2977 31.204ZM 25.4908 34.394C 25.4908 35.461 26.1838 36.088 27.4598 36.088C 28.1748 36.088 28.5488 35.967 28.8568 35.461L 28.8568 36L 29.7368 36L 29.7368 32.183C 29.7368 30.863 29.0438 30.412 27.6468 30.412C 26.6018 30.412 26.0408 30.687 25.6558 31.325L 26.3158 31.787C 26.6238 31.281 26.9758 31.226 27.6358 31.226C 28.4938 31.226 28.8568 31.402 28.8568 32.183L 28.8568 32.821L 27.5478 32.821C 26.3378 32.821 25.4908 33.206 25.4908 34.394ZM 28.8568 33.888C 28.8568 35.12 28.2738 35.274 27.4598 35.274C 26.8108 35.274 26.3708 35.032 26.3708 34.416C 26.3708 33.866 26.6788 33.569 27.5478 33.569L 28.8568 33.569L 28.8568 33.888ZM 34.8981 31.16C 34.5461 30.665 34.0731 30.412 33.3251 30.412C 32.6541 30.412 32.2801 30.654 32.0491 31.039L 32.0491 30.5L 31.1691 30.5L 31.1691 36L 32.0491 36L 32.0491 32.557C 32.0491 31.732 32.5551 31.226 33.2261 31.226C 33.6331 31.226 33.9191 31.369 34.1501 31.688L 34.8981 31.16ZM 35.4982 34.306C 35.4982 35.45 35.9272 36 37.3132 36L 37.3132 35.186C 36.4112 35.186 36.3782 34.68 36.3782 34.086L 36.3782 28.41L 35.4982 28.41L 35.4982 34.306ZM 39.9908 36.132C 39.6608 37.111 39.3198 37.232 38.5938 37.232L 38.5938 38.09C 40.1338 38.09 40.4308 37.496 40.8818 36.176L 42.8178 30.5L 41.8828 30.5L 40.4418 34.768L 38.8028 30.5L 37.8568 30.5L 40.0128 36.055L 39.9908 36.132ZM 49.7128 34.68C 49.4818 35.12 49.0088 35.296 48.4918 35.296C 47.4358 35.296 46.9958 34.548 46.9958 33.602L 46.9958 32.876C 46.9958 31.842 47.5458 31.204 48.4918 31.204C 48.9978 31.204 49.4598 31.402 49.7018 31.754L 50.3948 31.27C 49.9988 30.709 49.3168 30.412 48.4918 30.412C 47.0068 30.412 46.1158 31.314 46.1158 32.876L 46.1158 33.602C 46.1158 35.12 46.9848 36.088 48.4918 36.088C 49.3828 36.088 50.0538 35.802 50.3948 35.164L 49.7128 34.68ZM 55.5795 32.876C 55.5795 31.303 54.7435 30.412 53.2915 30.412C 51.8505 30.412 51.0035 31.314 51.0035 32.876L 51.0035 33.602C 51.0035 35.12 51.8285 36.088 53.2915 36.088C 54.8755 36.088 55.5795 35.032 55.5795 33.602L 55.5795 32.876ZM 53.2915 35.296C 52.2795 35.296 51.8835 34.548 51.8835 33.602L 51.8835 32.876C 51.8835 31.842 52.3895 31.204 53.2915 31.204C 54.1935 31.204 54.6995 31.831 54.6995 32.876L 54.6995 33.602C 54.6995 34.537 54.2265 35.296 53.2915 35.296ZM 56.7355 36L 57.6155 36L 57.6155 32.568C 57.6155 31.809 58.1325 31.226 58.9575 31.226C 59.6065 31.226 60.2115 31.468 60.2115 32.579L 60.2115 36L 61.0915 36L 61.0915 32.568C 61.0915 31.028 60.2665 30.412 59.0895 30.412C 58.2755 30.412 57.8905 30.621 57.6155 31.039L 57.6155 30.5L 56.7355 30.5L 56.7355 36ZM 62.0415 31.292L 62.7455 31.292L 62.7455 34.306C 62.7455 35.45 63.1195 36 64.4175 36L 64.8905 36L 64.8905 35.164L 64.4505 35.164C 63.7135 35.164 63.6255 34.845 63.6255 34.086L 63.6255 31.292L 64.8905 31.292L 64.8905 30.5L 63.6255 30.5L 63.6255 29.29L 62.7455 29.29L 62.7455 30.5L 62.0415 30.5L 62.0415 31.292ZM 69.7243 31.16C 69.3723 30.665 68.8993 30.412 68.1513 30.412C 67.4803 30.412 67.1063 30.654 66.8753 31.039L 66.8753 30.5L 65.9953 30.5L 65.9953 36L 66.8753 36L 66.8753 32.557C 66.8753 31.732 67.3813 31.226 68.0523 31.226C 68.4593 31.226 68.7453 31.369 68.9763 31.688L 69.7243 31.16ZM 70.4894 36L 71.3694 36L 71.3694 30.5L 70.4894 30.5L 70.4894 36ZM 70.4344 29.4L 71.4244 29.4L 71.4244 28.41L 70.4344 28.41L 70.4344 29.4ZM 73.847 28.41L 72.967 28.41L 72.967 36L 73.847 36L 73.847 35.516C 74.144 35.901 74.606 36.088 75.343 36.088C 76.839 36.088 77.543 35.032 77.543 33.602L 77.543 32.876C 77.543 31.303 76.707 30.412 75.343 30.412C 74.617 30.412 74.144 30.643 73.847 31.05L 73.847 28.41ZM 75.255 35.296C 74.243 35.296 73.847 34.548 73.847 33.602L 73.847 32.799C 73.847 31.809 74.375 31.204 75.255 31.204C 76.157 31.204 76.663 31.831 76.663 32.876L 76.663 33.602C 76.663 34.537 76.19 35.296 75.255 35.296ZM 83.0593 30.5L 82.1793 30.5L 82.1793 33.932C 82.1793 34.691 81.6623 35.274 80.8373 35.274C 80.1883 35.274 79.5833 35.032 79.5833 33.921L 79.5833 30.5L 78.7033 30.5L 78.7033 33.932C 78.7033 35.472 79.5283 36.088 80.7053 36.088C 81.5193 36.088 81.9043 35.879 82.1793 35.461L 82.1793 36L 83.0593 36L 83.0593 30.5ZM 84.0093 31.292L 84.7133 31.292L 84.7133 34.306C 84.7133 35.45 85.0873 36 86.3853 36L 86.8583 36L 86.8583 35.164L 86.4183 35.164C 85.6813 35.164 85.5933 34.845 85.5933 34.086L 85.5933 31.292L 86.8583 31.292L 86.8583 30.5L 85.5933 30.5L 85.5933 29.29L 84.7133 29.29L 84.7133 30.5L 84.0093 30.5L 84.0093 31.292ZM 92.264 32.876C 92.264 31.303 91.428 30.412 89.976 30.412C 88.535 30.412 87.688 31.314 87.688 32.876L 87.688 33.602C 87.688 35.12 88.513 36.088 89.976 36.088C 91.56 36.088 92.264 35.032 92.264 33.602L 92.264 32.876ZM 89.976 35.296C 88.964 35.296 88.568 34.548 88.568 33.602L 88.568 32.876C 88.568 31.842 89.074 31.204 89.976 31.204C 90.878 31.204 91.384 31.831 91.384 32.876L 91.384 33.602C 91.384 34.537 90.911 35.296 89.976 35.296ZM 97.1491 31.16C 96.7971 30.665 96.3241 30.412 95.5761 30.412C 94.9051 30.412 94.5311 30.654 94.3001 31.039L 94.3001 30.5L 93.4201 30.5L 93.4201 36L 94.3001 36L 94.3001 32.557C 94.3001 31.732 94.8061 31.226 95.4771 31.226C 95.8841 31.226 96.1701 31.369 96.4011 31.688L 97.1491 31.16ZM 101.5 31.325C 101.071 30.643 100.389 30.412 99.4982 30.412C 98.1892 30.412 97.5292 31.061 97.5292 31.974C 97.5292 33.173 98.4422 33.547 99.3662 33.613C 100.433 33.69 100.785 33.899 100.785 34.493C 100.785 34.988 100.345 35.274 99.6082 35.274C 98.8162 35.274 98.4202 35.109 98.1232 34.713L 97.4742 35.175C 97.8922 35.747 98.4752 36.088 99.5972 36.088C 101.016 36.088 101.665 35.428 101.665 34.471C 101.665 33.206 100.719 32.909 99.6852 32.832C 98.9592 32.777 98.4092 32.59 98.4092 31.963C 98.4092 31.479 98.8272 31.226 99.4762 31.226C 100.235 31.226 100.543 31.402 100.84 31.787L 101.5 31.325Z"/>
<path id="allmob44path9_fill" d="M 0.935 2.41L 0.935 10L 5.511 10L 5.511 9.142L 1.881 9.142L 1.881 6.502L 5.181 6.502L 5.181 5.644L 1.881 5.644L 1.881 3.268L 5.511 3.268L 5.511 2.41L 0.935 2.41ZM 6.39117 8.394C 6.39117 9.461 7.08417 10.088 8.36017 10.088C 9.07517 10.088 9.44917 9.967 9.75717 9.461L 9.75717 10L 10.6372 10L 10.6372 6.183C 10.6372 4.863 9.94417 4.412 8.54717 4.412C 7.50217 4.412 6.94117 4.687 6.55617 5.325L 7.21617 5.787C 7.52417 5.281 7.87617 5.226 8.53617 5.226C 9.39417 5.226 9.75717 5.402 9.75717 6.183L 9.75717 6.821L 8.44817 6.821C 7.23817 6.821 6.39117 7.206 6.39117 8.394ZM 9.75717 7.888C 9.75717 9.12 9.17417 9.274 8.36017 9.274C 7.71117 9.274 7.27117 9.032 7.27117 8.416C 7.27117 7.866 7.57917 7.569 8.44817 7.569L 9.75717 7.569L 9.75717 7.888ZM 15.7985 5.16C 15.4465 4.665 14.9735 4.412 14.2255 4.412C 13.5545 4.412 13.1805 4.654 12.9495 5.039L 12.9495 4.5L 12.0695 4.5L 12.0695 10L 12.9495 10L 12.9495 6.557C 12.9495 5.732 13.4555 5.226 14.1265 5.226C 14.5335 5.226 14.8195 5.369 15.0505 5.688L 15.7985 5.16ZM 16.3986 8.306C 16.3986 9.45 16.8276 10 18.2136 10L 18.2136 9.186C 17.3116 9.186 17.2786 8.68 17.2786 8.086L 17.2786 2.41L 16.3986 2.41L 16.3986 8.306ZM 20.8911 10.132C 20.5611 11.111 20.2201 11.232 19.4941 11.232L 19.4941 12.09C 21.0341 12.09 21.3311 11.496 21.7821 10.176L 23.7181 4.5L 22.7831 4.5L 21.3421 8.768L 19.7031 4.5L 18.7571 4.5L 20.9131 10.055L 20.8911 10.132ZM 27.2912 10L 28.1712 10L 28.1712 6.568C 28.1712 5.809 28.6882 5.226 29.4032 5.226C 30.0522 5.226 30.5472 5.578 30.5472 6.579L 30.5472 10L 31.4272 10L 31.4272 6.568C 31.4272 5.787 31.9552 5.226 32.6592 5.226C 33.3082 5.226 33.8032 5.578 33.8032 6.579L 33.8032 10L 34.6832 10L 34.6832 6.568C 34.6832 5.138 33.9682 4.412 32.7912 4.412C 32.1202 4.412 31.5152 4.698 31.1412 5.281C 30.8332 4.709 30.2722 4.412 29.5352 4.412C 28.8312 4.412 28.4132 4.665 28.1712 5.039L 28.1712 4.5L 27.2912 4.5L 27.2912 10ZM 36.2755 10L 37.1555 10L 37.1555 4.5L 36.2755 4.5L 36.2755 10ZM 36.2205 3.4L 37.2105 3.4L 37.2105 2.41L 36.2205 2.41L 36.2205 3.4ZM 38.7531 10L 39.6331 10L 39.6331 6.568C 39.6331 5.809 40.1501 5.226 40.9751 5.226C 41.6241 5.226 42.2291 5.468 42.2291 6.579L 42.2291 10L 43.1091 10L 43.1091 6.568C 43.1091 5.028 42.2841 4.412 41.1071 4.412C 40.2931 4.412 39.9081 4.621 39.6331 5.039L 39.6331 4.5L 38.7531 4.5L 38.7531 10ZM 47.8651 8.68C 47.6341 9.087 47.2711 9.296 46.5561 9.296C 45.5991 9.296 45.1481 8.548 45.1481 7.602L 45.1481 7.448L 48.6241 7.448L 48.6241 6.876C 48.6241 5.303 47.8981 4.412 46.4461 4.412C 45.0051 4.412 44.2681 5.314 44.2681 6.876L 44.2681 7.602C 44.2681 9.131 45.1481 10.088 46.6221 10.088C 47.5791 10.088 48.1621 9.835 48.5471 9.164L 47.8651 8.68ZM 46.4461 5.204C 47.2821 5.204 47.6891 5.754 47.7331 6.678L 45.1481 6.678C 45.2031 5.765 45.5991 5.204 46.4461 5.204ZM 53.6432 5.16C 53.2912 4.665 52.8182 4.412 52.0702 4.412C 51.3992 4.412 51.0252 4.654 50.7942 5.039L 50.7942 4.5L 49.9142 4.5L 49.9142 10L 50.7942 10L 50.7942 6.557C 50.7942 5.732 51.3002 5.226 51.9712 5.226C 52.3782 5.226 52.6642 5.369 52.8952 5.688L 53.6432 5.16ZM 57.9943 5.325C 57.5653 4.643 56.8833 4.412 55.9923 4.412C 54.6833 4.412 54.0233 5.061 54.0233 5.974C 54.0233 7.173 54.9363 7.547 55.8603 7.613C 56.9273 7.69 57.2793 7.899 57.2793 8.493C 57.2793 8.988 56.8393 9.274 56.1023 9.274C 55.3103 9.274 54.9143 9.109 54.6173 8.713L 53.9683 9.175C 54.3863 9.747 54.9693 10.088 56.0913 10.088C 57.5103 10.088 58.1593 9.428 58.1593 8.471C 58.1593 7.206 57.2133 6.909 56.1793 6.832C 55.4533 6.777 54.9033 6.59 54.9033 5.963C 54.9033 5.479 55.3213 5.226 55.9703 5.226C 56.7293 5.226 57.0373 5.402 57.3343 5.787L 57.9943 5.325ZM 65.8463 5.16C 65.4943 4.665 65.0213 4.412 64.2733 4.412C 63.6023 4.412 63.2283 4.654 62.9973 5.039L 62.9973 4.5L 62.1173 4.5L 62.1173 10L 62.9973 10L 62.9973 6.557C 62.9973 5.732 63.5033 5.226 64.1743 5.226C 64.5813 5.226 64.8673 5.369 65.0983 5.688L 65.8463 5.16ZM 69.7684 8.68C 69.5374 9.087 69.1744 9.296 68.4594 9.296C 67.5024 9.296 67.0514 8.548 67.0514 7.602L 67.0514 7.448L 70.5274 7.448L 70.5274 6.876C 70.5274 5.303 69.8014 4.412 68.3494 4.412C 66.9084 4.412 66.1714 5.314 66.1714 6.876L 66.1714 7.602C 66.1714 9.131 67.0514 10.088 68.5254 10.088C 69.4824 10.088 70.0654 9.835 70.4504 9.164L 69.7684 8.68ZM 68.3494 5.204C 69.1854 5.204 69.5924 5.754 69.6364 6.678L 67.0514 6.678C 67.1064 5.765 67.5024 5.204 68.3494 5.204ZM 74.9868 5.886L 76.4498 10L 77.2198 10L 78.8148 4.5L 77.8798 4.5L 76.7798 8.394L 75.3168 4.5L 74.5798 4.5L 73.1938 8.361L 72.0938 4.5L 71.1588 4.5L 72.7538 10L 73.5238 10L 74.9868 5.886ZM 79.3629 8.394C 79.3629 9.461 80.0559 10.088 81.3319 10.088C 82.0469 10.088 82.4209 9.967 82.7289 9.461L 82.7289 10L 83.6089 10L 83.6089 6.183C 83.6089 4.863 82.9159 4.412 81.5189 4.412C 80.4739 4.412 79.9129 4.687 79.5279 5.325L 80.1879 5.787C 80.4959 5.281 80.8479 5.226 81.5079 5.226C 82.3659 5.226 82.7289 5.402 82.7289 6.183L 82.7289 6.821L 81.4199 6.821C 80.2099 6.821 79.3629 7.206 79.3629 8.394ZM 82.7289 7.888C 82.7289 9.12 82.1459 9.274 81.3319 9.274C 80.6829 9.274 80.2429 9.032 80.2429 8.416C 80.2429 7.866 80.5509 7.569 81.4199 7.569L 82.7289 7.569L 82.7289 7.888ZM 88.7702 5.16C 88.4182 4.665 87.9452 4.412 87.1972 4.412C 86.5262 4.412 86.1522 4.654 85.9212 5.039L 85.9212 4.5L 85.0412 4.5L 85.0412 10L 85.9212 10L 85.9212 6.557C 85.9212 5.732 86.4272 5.226 87.0982 5.226C 87.5052 5.226 87.7912 5.369 88.0222 5.688L 88.7702 5.16ZM 92.7913 5.05C 92.4943 4.643 92.0213 4.412 91.2953 4.412C 89.9313 4.412 89.0953 5.303 89.0953 6.876L 89.0953 7.602C 89.0953 9.032 89.7993 10.088 91.2953 10.088C 92.0213 10.088 92.4943 9.901 92.7913 9.516L 92.7913 10L 93.6713 10L 93.6713 2.41L 92.7913 2.41L 92.7913 5.05ZM 91.3833 9.296C 90.4483 9.296 89.9753 8.537 89.9753 7.602L 89.9753 6.876C 89.9753 5.831 90.4813 5.204 91.3833 5.204C 92.2853 5.204 92.7913 5.842 92.7913 6.876L 92.7913 7.679C 92.7913 8.592 92.3623 9.296 91.3833 9.296Z"/>
<path id="allmob44path10_fill" d="M 1.859 2.41L 0.935 2.41L 0.935 10L 1.881 10L 1.881 4.467L 3.696 8.416L 4.543 8.416L 6.391 4.434L 6.391 10L 7.337 10L 7.337 2.41L 6.402 2.41L 4.136 7.14L 1.859 2.41ZM 13.2875 6.876C 13.2875 5.303 12.4515 4.412 10.9995 4.412C 9.55848 4.412 8.71148 5.314 8.71148 6.876L 8.71148 7.602C 8.71148 9.12 9.53648 10.088 10.9995 10.088C 12.5835 10.088 13.2875 9.032 13.2875 7.602L 13.2875 6.876ZM 10.9995 9.296C 9.98748 9.296 9.59148 8.548 9.59148 7.602L 9.59148 6.876C 9.59148 5.842 10.0975 5.204 10.9995 5.204C 11.9015 5.204 12.4075 5.831 12.4075 6.876L 12.4075 7.602C 12.4075 8.537 11.9345 9.296 10.9995 9.296ZM 17.7655 8.68C 17.5345 9.087 17.1715 9.296 16.4565 9.296C 15.4995 9.296 15.0485 8.548 15.0485 7.602L 15.0485 7.448L 18.5245 7.448L 18.5245 6.876C 18.5245 5.303 17.7985 4.412 16.3465 4.412C 14.9055 4.412 14.1685 5.314 14.1685 6.876L 14.1685 7.602C 14.1685 9.131 15.0485 10.088 16.5225 10.088C 17.4795 10.088 18.0625 9.835 18.4475 9.164L 17.7655 8.68ZM 16.3465 5.204C 17.1825 5.204 17.5895 5.754 17.6335 6.678L 15.0485 6.678C 15.1035 5.765 15.4995 5.204 16.3465 5.204ZM 23.1366 8.68C 22.9056 9.12 22.4326 9.296 21.9156 9.296C 20.8596 9.296 20.4196 8.548 20.4196 7.602L 20.4196 6.876C 20.4196 5.842 20.9696 5.204 21.9156 5.204C 22.4216 5.204 22.8836 5.402 23.1256 5.754L 23.8186 5.27C 23.4226 4.709 22.7406 4.412 21.9156 4.412C 20.4306 4.412 19.5396 5.314 19.5396 6.876L 19.5396 7.602C 19.5396 9.12 20.4086 10.088 21.9156 10.088C 22.8066 10.088 23.4776 9.802 23.8186 9.164L 23.1366 8.68ZM 29.0033 6.876C 29.0033 5.303 28.1673 4.412 26.7153 4.412C 25.2743 4.412 24.4273 5.314 24.4273 6.876L 24.4273 7.602C 24.4273 9.12 25.2523 10.088 26.7153 10.088C 28.2993 10.088 29.0033 9.032 29.0033 7.602L 29.0033 6.876ZM 26.7153 9.296C 25.7033 9.296 25.3073 8.548 25.3073 7.602L 25.3073 6.876C 25.3073 5.842 25.8133 5.204 26.7153 5.204C 27.6173 5.204 28.1233 5.831 28.1233 6.876L 28.1233 7.602C 28.1233 8.537 27.6503 9.296 26.7153 9.296ZM 36.2313 8.68C 36.0003 9.12 35.5273 9.296 35.0103 9.296C 33.9543 9.296 33.5143 8.548 33.5143 7.602L 33.5143 6.876C 33.5143 5.842 34.0643 5.204 35.0103 5.204C 35.5163 5.204 35.9783 5.402 36.2203 5.754L 36.9133 5.27C 36.5173 4.709 35.8353 4.412 35.0103 4.412C 33.5253 4.412 32.6343 5.314 32.6343 6.876L 32.6343 7.602C 32.6343 9.12 33.5033 10.088 35.0103 10.088C 35.9013 10.088 36.5723 9.802 36.9133 9.164L 36.2313 8.68ZM 42.098 6.876C 42.098 5.303 41.262 4.412 39.81 4.412C 38.369 4.412 37.522 5.314 37.522 6.876L 37.522 7.602C 37.522 9.12 38.347 10.088 39.81 10.088C 41.394 10.088 42.098 9.032 42.098 7.602L 42.098 6.876ZM 39.81 9.296C 38.798 9.296 38.402 8.548 38.402 7.602L 38.402 6.876C 38.402 5.842 38.908 5.204 39.81 5.204C 40.712 5.204 41.218 5.831 41.218 6.876L 41.218 7.602C 41.218 8.537 40.745 9.296 39.81 9.296ZM 43.2541 10L 44.1341 10L 44.1341 6.568C 44.1341 5.809 44.6511 5.226 45.3661 5.226C 46.0151 5.226 46.5101 5.578 46.5101 6.579L 46.5101 10L 47.3901 10L 47.3901 6.568C 47.3901 5.787 47.9181 5.226 48.6221 5.226C 49.2711 5.226 49.7661 5.578 49.7661 6.579L 49.7661 10L 50.6461 10L 50.6461 6.568C 50.6461 5.138 49.9311 4.412 48.7541 4.412C 48.0831 4.412 47.4781 4.698 47.1041 5.281C 46.7961 4.709 46.2351 4.412 45.4981 4.412C 44.7941 4.412 44.3761 4.665 44.1341 5.039L 44.1341 4.5L 43.2541 4.5L 43.2541 10ZM 52.9534 5.05L 52.9534 4.5L 52.0734 4.5L 52.0734 12.09L 52.9534 12.09L 52.9534 9.45C 53.2504 9.857 53.7234 10.088 54.4494 10.088C 55.9454 10.088 56.6494 9.032 56.6494 7.602L 56.6494 6.876C 56.6494 5.303 55.8134 4.412 54.4494 4.412C 53.7234 4.412 53.2504 4.643 52.9534 5.05ZM 54.3614 9.296C 53.3494 9.296 52.9534 8.548 52.9534 7.602L 52.9534 6.799C 52.9534 5.809 53.4814 5.204 54.3614 5.204C 55.2634 5.204 55.7694 5.831 55.7694 6.876L 55.7694 7.602C 55.7694 8.537 55.2964 9.296 54.3614 9.296ZM 57.5347 8.394C 57.5347 9.461 58.2277 10.088 59.5037 10.088C 60.2187 10.088 60.5927 9.967 60.9007 9.461L 60.9007 10L 61.7807 10L 61.7807 6.183C 61.7807 4.863 61.0877 4.412 59.6907 4.412C 58.6457 4.412 58.0847 4.687 57.6997 5.325L 58.3597 5.787C 58.6677 5.281 59.0197 5.226 59.6797 5.226C 60.5377 5.226 60.9007 5.402 60.9007 6.183L 60.9007 6.821L 59.5917 6.821C 58.3817 6.821 57.5347 7.206 57.5347 8.394ZM 60.9007 7.888C 60.9007 9.12 60.3177 9.274 59.5037 9.274C 58.8547 9.274 58.4147 9.032 58.4147 8.416C 58.4147 7.866 58.7227 7.569 59.5917 7.569L 60.9007 7.569L 60.9007 7.888ZM 63.213 10L 64.093 10L 64.093 6.568C 64.093 5.809 64.61 5.226 65.435 5.226C 66.084 5.226 66.689 5.468 66.689 6.579L 66.689 10L 67.569 10L 67.569 6.568C 67.569 5.028 66.744 4.412 65.567 4.412C 64.753 4.412 64.368 4.621 64.093 5.039L 64.093 4.5L 63.213 4.5L 63.213 10ZM 70.4771 10.132C 70.1471 11.111 69.8061 11.232 69.0801 11.232L 69.0801 12.09C 70.6201 12.09 70.9171 11.496 71.3681 10.176L 73.3041 4.5L 72.3691 4.5L 70.9281 8.768L 69.2891 4.5L 68.3431 4.5L 70.4991 10.055L 70.4771 10.132Z"/>
<path id="allmob44path11_fill" d="M 3.16406 10.5L 7.09406 10.5L 7.09406 12L 0.839063 12L 0.839063 10.77L 4.39406 6.6C 5.09406 5.8 5.44406 5.075 5.44406 4.425C 5.44406 3.985 5.30406 3.64 5.02406 3.39C 4.75406 3.13 4.40406 3 3.97406 3C 3.54406 3 3.19406 3.13 2.92406 3.39C 2.66406 3.64 2.52406 3.985 2.50406 4.425L 0.914063 4.425C 0.914063 3.565 1.21406 2.865 1.81406 2.325C 2.41406 1.785 3.15406 1.515 4.03406 1.515C 4.94406 1.515 5.68906 1.79 6.26906 2.34C 6.86906 2.9 7.16906 3.605 7.16906 4.455C 7.16906 5.085 6.98406 5.68 6.61406 6.24C 6.48406 6.44 6.32906 6.66 6.14906 6.9L 5.60906 7.575L 3.16406 10.5ZM 11.916 6.495C 11.376 6.495 10.956 6.75 10.656 7.26L 9.08098 7.26L 9.08098 1.65L 14.691 1.65L 14.691 3.285L 10.776 3.285L 10.776 5.475C 11.176 5.075 11.706 4.875 12.366 4.875C 13.236 4.875 13.906 5.2 14.376 5.85C 14.856 6.49 15.096 7.41 15.096 8.61C 15.096 9.75 14.826 10.625 14.286 11.235C 13.756 11.835 12.976 12.135 11.946 12.135C 11.086 12.135 10.366 11.89 9.78598 11.4C 9.20598 10.91 8.87598 10.255 8.79598 9.435L 10.506 9.435C 10.696 10.225 11.166 10.62 11.916 10.62C 12.876 10.62 13.356 9.97 13.356 8.67C 13.356 7.22 12.876 6.495 11.916 6.495ZM 17.6979 12L 23.4879 1.65L 25.0779 1.65L 19.3029 12L 17.6979 12ZM 26.6979 9.06L 26.6979 9.84C 26.6979 10.57 26.5079 11.135 26.1279 11.535C 25.7579 11.935 25.2029 12.135 24.4629 12.135C 23.7629 12.135 23.2229 11.935 22.8429 11.535C 22.4629 11.135 22.2729 10.57 22.2729 9.84L 22.2729 9.06C 22.2729 8.33 22.4629 7.77 22.8429 7.38C 23.2329 6.98 23.7729 6.78 24.4629 6.78C 25.1829 6.78 25.7329 6.98 26.1129 7.38C 26.5029 7.77 26.6979 8.33 26.6979 9.06ZM 24.4779 11.01C 25.1079 11.01 25.4229 10.615 25.4229 9.825L 25.4229 9.09C 25.4229 8.31 25.1079 7.92 24.4779 7.92C 23.8679 7.92 23.5629 8.31 23.5629 9.09L 23.5629 9.825C 23.5629 10.615 23.8679 11.01 24.4779 11.01ZM 20.6229 3.795L 20.6229 4.575C 20.6229 5.305 20.4329 5.87 20.0529 6.27C 19.6829 6.67 19.1279 6.87 18.3879 6.87C 17.6779 6.87 17.1329 6.67 16.7529 6.27C 16.3729 5.87 16.1829 5.305 16.1829 4.575L 16.1829 3.795C 16.1829 3.065 16.3729 2.505 16.7529 2.115C 17.1429 1.715 17.6879 1.515 18.3879 1.515C 19.1079 1.515 19.6579 1.715 20.0379 2.115C 20.4279 2.505 20.6229 3.065 20.6229 3.795ZM 18.3879 5.745C 19.0179 5.745 19.3329 5.35 19.3329 4.56L 19.3329 3.825C 19.3329 3.045 19.0179 2.655 18.3879 2.655C 17.7879 2.655 17.4879 3.045 17.4879 3.825L 17.4879 4.56C 17.4879 5.35 17.7879 5.745 18.3879 5.745Z"/>
<path id="allmob44path12_stroke" d="M 0 0.5L 66 0.5L 66 -0.5L 0 -0.5L 0 0.5Z"/>
<path id="allmob44path13_fill" d="M 6.47719 4.15C 5.98719 3.39 5.29719 3.02 4.19719 3.02C 2.61719 3.02 1.96719 3.89 1.96719 4.88C 1.96719 6.08 2.80719 6.7 4.10719 6.9C 5.40719 7.1 5.73719 7.54 5.73719 8.19C 5.73719 8.78 5.40719 9.3 4.27719 9.3C 3.37719 9.3 2.97719 8.99 2.52719 8.46L 1.81719 8.95C 2.33719 9.7 3.15719 10.08 4.27719 10.08C 5.99719 10.08 6.59719 9.05 6.59719 8.15C 6.59719 6.87 5.78719 6.39 4.45719 6.16C 3.44719 5.98 2.82719 5.7 2.82719 4.88C 2.82719 4.16 3.36719 3.8 4.16719 3.8C 5.03719 3.8 5.43719 4.15 5.80719 4.63L 6.47719 4.15ZM 11.6401 7.16C 11.6401 5.73 10.8801 4.92 9.56008 4.92C 8.25008 4.92 7.48008 5.74 7.48008 7.16L 7.48008 7.82C 7.48008 9.2 8.23008 10.08 9.56008 10.08C 11.0001 10.08 11.6401 9.12 11.6401 7.82L 11.6401 7.16ZM 9.56008 9.36C 8.64008 9.36 8.28008 8.68 8.28008 7.82L 8.28008 7.16C 8.28008 6.22 8.74008 5.64 9.56008 5.64C 10.3801 5.64 10.8401 6.21 10.8401 7.16L 10.8401 7.82C 10.8401 8.67 10.4101 9.36 9.56008 9.36ZM 12.691 8.46C 12.691 9.5 13.081 10 14.341 10L 14.341 9.26C 13.521 9.26 13.491 8.8 13.491 8.26L 13.491 3.1L 12.691 3.1L 12.691 8.46ZM 18.5452 5.5C 18.2752 5.13 17.8452 4.92 17.1852 4.92C 15.9452 4.92 15.1852 5.73 15.1852 7.16L 15.1852 7.82C 15.1852 9.12 15.8252 10.08 17.1852 10.08C 17.8452 10.08 18.2752 9.91 18.5452 9.56L 18.5452 10L 19.3452 10L 19.3452 3.1L 18.5452 3.1L 18.5452 5.5ZM 17.2652 9.36C 16.4152 9.36 15.9852 8.67 15.9852 7.82L 15.9852 7.16C 15.9852 6.21 16.4452 5.64 17.2652 5.64C 18.0852 5.64 18.5452 6.22 18.5452 7.16L 18.5452 7.89C 18.5452 8.72 18.1552 9.36 17.2652 9.36Z"/>
<path id="allmob44path14_fill" d="M 3.465 1.65L 5.1 1.65L 5.1 12L 3.36 12L 3.36 3.525L 1.875 4.545L 1.875 2.79L 3.465 1.65ZM 11.3019 1.65L 12.9369 1.65L 12.9369 12L 11.1969 12L 11.1969 3.525L 9.71191 4.545L 9.71191 2.79L 11.3019 1.65ZM 17.5338 12L 23.3238 1.65L 24.9138 1.65L 19.1388 12L 17.5338 12ZM 26.5338 9.06L 26.5338 9.84C 26.5338 10.57 26.3438 11.135 25.9638 11.535C 25.5938 11.935 25.0388 12.135 24.2988 12.135C 23.5988 12.135 23.0588 11.935 22.6788 11.535C 22.2988 11.135 22.1088 10.57 22.1088 9.84L 22.1088 9.06C 22.1088 8.33 22.2988 7.77 22.6788 7.38C 23.0688 6.98 23.6088 6.78 24.2988 6.78C 25.0188 6.78 25.5688 6.98 25.9488 7.38C 26.3388 7.77 26.5338 8.33 26.5338 9.06ZM 24.3138 11.01C 24.9438 11.01 25.2588 10.615 25.2588 9.825L 25.2588 9.09C 25.2588 8.31 24.9438 7.92 24.3138 7.92C 23.7038 7.92 23.3988 8.31 23.3988 9.09L 23.3988 9.825C 23.3988 10.615 23.7038 11.01 24.3138 11.01ZM 20.4588 3.795L 20.4588 4.575C 20.4588 5.305 20.2688 5.87 19.8888 6.27C 19.5188 6.67 18.9638 6.87 18.2238 6.87C 17.5138 6.87 16.9688 6.67 16.5888 6.27C 16.2088 5.87 16.0188 5.305 16.0188 4.575L 16.0188 3.795C 16.0188 3.065 16.2088 2.505 16.5888 2.115C 16.9788 1.715 17.5238 1.515 18.2238 1.515C 18.9438 1.515 19.4938 1.715 19.8738 2.115C 20.2638 2.505 20.4588 3.065 20.4588 3.795ZM 18.2238 5.745C 18.8538 5.745 19.1688 5.35 19.1688 4.56L 19.1688 3.825C 19.1688 3.045 18.8538 2.655 18.2238 2.655C 17.6238 2.655 17.3238 3.045 17.3238 3.825L 17.3238 4.56C 17.3238 5.35 17.6238 5.745 18.2238 5.745Z"/>
<path id="allmob44path15_fill" d="M 3.465 1.65L 5.1 1.65L 5.1 12L 3.36 12L 3.36 3.525L 1.875 4.545L 1.875 2.79L 3.465 1.65ZM 11.7519 6.495C 11.2119 6.495 10.7919 6.75 10.4919 7.26L 8.91691 7.26L 8.91691 1.65L 14.5269 1.65L 14.5269 3.285L 10.6119 3.285L 10.6119 5.475C 11.0119 5.075 11.5419 4.875 12.2019 4.875C 13.0719 4.875 13.7419 5.2 14.2119 5.85C 14.6919 6.49 14.9319 7.41 14.9319 8.61C 14.9319 9.75 14.6619 10.625 14.1219 11.235C 13.5919 11.835 12.8119 12.135 11.7819 12.135C 10.9219 12.135 10.2019 11.89 9.62191 11.4C 9.04191 10.91 8.71191 10.255 8.63191 9.435L 10.3419 9.435C 10.5319 10.225 11.0019 10.62 11.7519 10.62C 12.7119 10.62 13.1919 9.97 13.1919 8.67C 13.1919 7.22 12.7119 6.495 11.7519 6.495ZM 17.5338 12L 23.3238 1.65L 24.9138 1.65L 19.1388 12L 17.5338 12ZM 26.5338 9.06L 26.5338 9.84C 26.5338 10.57 26.3438 11.135 25.9638 11.535C 25.5938 11.935 25.0388 12.135 24.2988 12.135C 23.5988 12.135 23.0588 11.935 22.6788 11.535C 22.2988 11.135 22.1088 10.57 22.1088 9.84L 22.1088 9.06C 22.1088 8.33 22.2988 7.77 22.6788 7.38C 23.0688 6.98 23.6088 6.78 24.2988 6.78C 25.0188 6.78 25.5688 6.98 25.9488 7.38C 26.3388 7.77 26.5338 8.33 26.5338 9.06ZM 24.3138 11.01C 24.9438 11.01 25.2588 10.615 25.2588 9.825L 25.2588 9.09C 25.2588 8.31 24.9438 7.92 24.3138 7.92C 23.7038 7.92 23.3988 8.31 23.3988 9.09L 23.3988 9.825C 23.3988 10.615 23.7038 11.01 24.3138 11.01ZM 20.4588 3.795L 20.4588 4.575C 20.4588 5.305 20.2688 5.87 19.8888 6.27C 19.5188 6.67 18.9638 6.87 18.2238 6.87C 17.5138 6.87 16.9688 6.67 16.5888 6.27C 16.2088 5.87 16.0188 5.305 16.0188 4.575L 16.0188 3.795C 16.0188 3.065 16.2088 2.505 16.5888 2.115C 16.9788 1.715 17.5238 1.515 18.2238 1.515C 18.9438 1.515 19.4938 1.715 19.8738 2.115C 20.2638 2.505 20.4588 3.065 20.4588 3.795ZM 18.2238 5.745C 18.8538 5.745 19.1688 5.35 19.1688 4.56L 19.1688 3.825C 19.1688 3.045 18.8538 2.655 18.2238 2.655C 17.6238 2.655 17.3238 3.045 17.3238 3.825L 17.3238 4.56C 17.3238 5.35 17.6238 5.745 18.2238 5.745Z"/>
<path id="allmob44path16_fill" d="M 3 10.5L 6.93 10.5L 6.93 12L 0.675 12L 0.675 10.77L 4.23 6.6C 4.93 5.8 5.28 5.075 5.28 4.425C 5.28 3.985 5.14 3.64 4.86 3.39C 4.59 3.13 4.24 3 3.81 3C 3.38 3 3.03 3.13 2.76 3.39C 2.5 3.64 2.36 3.985 2.34 4.425L 0.75 4.425C 0.75 3.565 1.05 2.865 1.65 2.325C 2.25 1.785 2.99 1.515 3.87 1.515C 4.78 1.515 5.525 1.79 6.105 2.34C 6.705 2.9 7.005 3.605 7.005 4.455C 7.005 5.085 6.82 5.68 6.45 6.24C 6.32 6.44 6.165 6.66 5.985 6.9L 5.445 7.575L 3 10.5ZM 15.0069 4.68L 15.0069 8.97C 15.0069 9.99 14.6919 10.775 14.0619 11.325C 13.4519 11.865 12.6819 12.135 11.7519 12.135C 10.8319 12.135 10.0569 11.865 9.42691 11.325C 8.80691 10.765 8.49691 9.98 8.49691 8.97L 8.49691 4.695C 8.49691 3.655 8.80691 2.865 9.42691 2.325C 10.0469 1.785 10.8219 1.515 11.7519 1.515C 12.6819 1.515 13.4569 1.785 14.0769 2.325C 14.6969 2.855 15.0069 3.64 15.0069 4.68ZM 13.2669 8.865L 13.2669 4.785C 13.2669 4.235 13.1319 3.805 12.8619 3.495C 12.5919 3.185 12.2219 3.03 11.7519 3.03C 11.2719 3.03 10.8969 3.185 10.6269 3.495C 10.3569 3.805 10.2219 4.235 10.2219 4.785L 10.2219 8.865C 10.2219 9.415 10.3569 9.845 10.6269 10.155C 10.8969 10.465 11.2719 10.62 11.7519 10.62C 12.2219 10.62 12.5919 10.465 12.8619 10.155C 13.1319 9.845 13.2669 9.415 13.2669 8.865ZM 17.5338 12L 23.3238 1.65L 24.9138 1.65L 19.1388 12L 17.5338 12ZM 26.5338 9.06L 26.5338 9.84C 26.5338 10.57 26.3438 11.135 25.9638 11.535C 25.5938 11.935 25.0388 12.135 24.2988 12.135C 23.5988 12.135 23.0588 11.935 22.6788 11.535C 22.2988 11.135 22.1088 10.57 22.1088 9.84L 22.1088 9.06C 22.1088 8.33 22.2988 7.77 22.6788 7.38C 23.0688 6.98 23.6088 6.78 24.2988 6.78C 25.0188 6.78 25.5688 6.98 25.9488 7.38C 26.3388 7.77 26.5338 8.33 26.5338 9.06ZM 24.3138 11.01C 24.9438 11.01 25.2588 10.615 25.2588 9.825L 25.2588 9.09C 25.2588 8.31 24.9438 7.92 24.3138 7.92C 23.7038 7.92 23.3988 8.31 23.3988 9.09L 23.3988 9.825C 23.3988 10.615 23.7038 11.01 24.3138 11.01ZM 20.4588 3.795L 20.4588 4.575C 20.4588 5.305 20.2688 5.87 19.8888 6.27C 19.5188 6.67 18.9638 6.87 18.2238 6.87C 17.5138 6.87 16.9688 6.67 16.5888 6.27C 16.2088 5.87 16.0188 5.305 16.0188 4.575L 16.0188 3.795C 16.0188 3.065 16.2088 2.505 16.5888 2.115C 16.9788 1.715 17.5238 1.515 18.2238 1.515C 18.9438 1.515 19.4938 1.715 19.8738 2.115C 20.2638 2.505 20.4588 3.065 20.4588 3.795ZM 18.2238 5.745C 18.8538 5.745 19.1688 5.35 19.1688 4.56L 19.1688 3.825C 19.1688 3.045 18.8538 2.655 18.2238 2.655C 17.6238 2.655 17.3238 3.045 17.3238 3.825L 17.3238 4.56C 17.3238 5.35 17.6238 5.745 18.2238 5.745Z"/>
<path id="allmob44path17_fill" d="M 162.015 53.9528C 150.022 22.4268 119.504 -1.0209e-07 83.7382 -1.0209e-07C 73.9937 -1.0209e-07 64.6241 1.71279 55.8969 4.76369C 38.8708 10.7584 24.4147 22.0521 14.4561 36.7179C 5.35411 50.099 0 66.317 0 83.7125C 0 94.2033 1.92748 104.212 5.46119 113.472C 17.4544 144.998 47.9728 167.425 83.7382 167.425C 93.4827 167.425 102.852 165.712 111.58 162.661C 128.606 156.667 143.062 145.373 153.02 130.707C 162.122 117.326 167.476 101.108 167.476 83.7125C 167.476 73.2217 165.549 63.2126 162.015 53.9528ZM 129.088 114.489C 122.555 124.07 113.079 131.51 101.942 135.417C 96.2133 137.451 90.1096 138.522 83.6847 138.522C 60.2872 138.522 40.3164 123.856 32.4459 103.195C 30.1436 97.1472 28.8586 90.5637 28.8586 83.7125C 28.8586 72.3118 32.3388 61.7139 38.3354 52.9358C 44.8674 43.3549 54.3442 35.915 65.4807 32.0077C 71.2096 29.9738 77.3133 28.9033 83.7382 28.9033C 107.136 28.9033 127.106 43.569 134.977 64.2295C 137.279 70.2778 138.564 76.8614 138.564 83.7125C 138.564 95.1133 135.084 105.711 129.088 114.489Z"/>
<path id="allmob44path18_fill" d="M 27.0382 0L 4.08486e-07 10.2767C 11.9932 41.8027 42.5116 64.2295 78.277 64.2295L 78.277 35.3262C 54.8796 35.3262 34.9088 20.6605 27.0382 0Z"/>
<path id="allmob44path19_stroke" d="M 27.0382 0L 27.6385 -0.228666C 27.5123 -0.560002 27.1415 -0.726401 26.81 -0.60043L 27.0382 0ZM 4.08486e-07 10.2767L -0.228212 9.67629C -0.387487 9.73683 -0.516183 9.85817 -0.585978 10.0136C -0.655772 10.1691 -0.660947 10.3459 -0.600362 10.5051L 4.08486e-07 10.2767ZM 78.277 64.2295L 78.277 64.8719C 78.6318 64.8719 78.9194 64.5843 78.9194 64.2295L 78.277 64.2295ZM 78.277 35.3262L 78.9194 35.3262C 78.9194 34.9715 78.6318 34.6839 78.277 34.6839L 78.277 35.3262ZM 26.81 -0.60043L -0.228212 9.67629L 0.228213 10.8772L 27.2664 0.60043L 26.81 -0.60043ZM -0.600362 10.5051C 11.4845 42.2721 42.2362 64.8719 78.277 64.8719L 78.277 63.5872C 42.787 63.5872 12.5019 41.3334 0.600363 10.0483L -0.600362 10.5051ZM 78.9194 64.2295L 78.9194 35.3262L 77.6347 35.3262L 77.6347 64.2295L 78.9194 64.2295ZM 78.277 34.6839C 55.1551 34.6839 35.4174 20.1913 27.6385 -0.228666L 26.438 0.228666C 34.4002 21.1297 54.6041 35.9686 78.277 35.9686L 78.277 34.6839Z"/>
<path id="allmob44path20_fill" d="M 28.9122 46.9946C 28.9122 35.5939 32.3923 24.996 38.3889 16.218L 14.4561 1.63344e-06C 5.35411 13.3812 0 29.5991 0 46.9946C 0 57.4854 1.92748 67.4945 5.46119 76.7543L 32.4994 66.4776C 30.1972 60.4293 28.9122 53.8458 28.9122 46.9946Z"/>
<path id="allmob44path21_stroke" d="M 38.3889 16.218L 38.9193 16.5803C 39.0157 16.4393 39.0519 16.2657 39.02 16.0979C 38.9881 15.9302 38.8906 15.782 38.7493 15.6862L 38.3889 16.218ZM 14.4561 1.63344e-06L 14.8164 -0.531746C 14.5231 -0.730507 14.1242 -0.654229 13.925 -0.361267L 14.4561 1.63344e-06ZM 5.46119 76.7543L 4.86107 76.9833C 4.98743 77.3144 5.35811 77.4806 5.6894 77.3547L 5.46119 76.7543ZM 32.4994 66.4776L 32.7276 67.078C 32.8869 67.0175 33.0156 66.8961 33.0854 66.7406C 33.1552 66.5852 33.1604 66.4083 33.0997 66.2491L 32.4994 66.4776ZM 29.5545 46.9946C 29.5545 35.7266 32.9937 25.2544 38.9193 16.5803L 37.8585 15.8556C 31.791 24.7376 28.2698 35.4612 28.2698 46.9946L 29.5545 46.9946ZM 38.7493 15.6862L 14.8164 -0.531746L 14.0958 0.531749L 38.0286 16.7497L 38.7493 15.6862ZM 13.925 -0.361267C 4.75308 13.1227 -0.642337 29.4658 -0.642337 46.9946L 0.642337 46.9946C 0.642337 29.7324 5.95513 13.6396 14.9872 0.36127L 13.925 -0.361267ZM -0.642337 46.9946C -0.642337 57.5649 1.29989 67.6516 4.86107 76.9833L 6.06131 76.5253C 2.55507 67.3375 0.642337 57.4059 0.642337 46.9946L -0.642337 46.9946ZM 5.6894 77.3547L 32.7276 67.078L 32.2712 65.8771L 5.23298 76.1539L 5.6894 77.3547ZM 33.0997 66.2491C 30.8243 60.2714 29.5545 53.7651 29.5545 46.9946L 28.2698 46.9946C 28.2698 53.9264 29.57 60.5872 31.8991 66.7061L 33.0997 66.2491Z"/>
<path id="allmob44path22_fill" d="M 27.8413 28.9033L 27.8413 2.55225e-08C 18.0969 2.55225e-08 8.72719 1.71279 8.16972e-07 4.76369L 9.63739 32.0077C 15.3127 30.0273 21.47 28.9033 27.8413 28.9033Z"/>
<path id="allmob44path23_stroke" d="M 27.8413 28.9033L 27.8413 29.5456C 28.1961 29.5456 28.4837 29.258 28.4837 28.9033L 27.8413 28.9033ZM 27.8413 2.55225e-08L 28.4837 2.55225e-08C 28.4837 -0.354753 28.1961 -0.642337 27.8413 -0.642337L 27.8413 2.55225e-08ZM 8.16972e-07 4.76369L -0.211972 4.15734C -0.373176 4.21369 -0.505303 4.33192 -0.579158 4.48589C -0.653013 4.63987 -0.662515 4.81691 -0.605565 4.97791L 8.16972e-07 4.76369ZM 9.63739 32.0077L 9.03182 32.2219C 9.14977 32.5554 9.51508 32.7307 9.84902 32.6142L 9.63739 32.0077ZM 28.4837 28.9033L 28.4837 2.55225e-08L 27.199 2.55225e-08L 27.199 28.9033L 28.4837 28.9033ZM 27.8413 -0.642337C 18.0211 -0.642337 8.5799 1.08383 -0.211972 4.15734L 0.211974 5.37005C 8.87449 2.34175 18.1726 0.642337 27.8413 0.642337L 27.8413 -0.642337ZM -0.605565 4.97791L 9.03182 32.2219L 10.243 31.7935L 0.605566 4.54948L -0.605565 4.97791ZM 9.84902 32.6142C 15.4597 30.6564 21.5454 29.5456 27.8413 29.5456L 27.8413 28.261C 21.3945 28.261 15.1658 29.3983 9.42576 31.4012L 9.84902 32.6142Z"/>
<path id="allmob44path24_fill" d="M 78.3306 53.9528C 66.3374 22.4268 35.819 2.55225e-08 0.0535378 2.55225e-08L 0.0535378 28.9033C 23.451 28.9033 43.4218 43.569 51.2923 64.2295C 53.5946 70.2778 54.8796 76.8614 54.8796 83.7125C 54.8796 95.1133 51.3994 105.711 45.4028 114.489C 38.8708 124.07 29.394 131.51 18.2575 135.417C 12.5286 137.451 6.42493 138.522 1.63394e-06 138.522L 1.63394e-06 167.425C 9.74448 167.425 19.1142 165.712 27.8414 162.661C 44.8674 156.667 59.3235 145.373 69.2822 130.707C 78.3841 117.326 83.7382 101.108 83.7382 83.7125C 83.7918 73.2217 81.8643 63.2126 78.3306 53.9528Z"/>
<path id="allmob44path25_stroke" d="M 78.3306 53.9528L 77.7302 54.1812L 77.7305 54.1818L 78.3306 53.9528ZM 0.0535378 2.55225e-08L 0.0535378 -0.642337C -0.301215 -0.642337 -0.5888 -0.354753 -0.5888 2.55225e-08L 0.0535378 2.55225e-08ZM 0.0535378 28.9033L -0.5888 28.9033C -0.5888 29.258 -0.301215 29.5456 0.0535378 29.5456L 0.0535378 28.9033ZM 51.2923 64.2295L 51.8927 64.001L 51.8926 64.0009L 51.2923 64.2295ZM 45.4028 114.489L 44.8724 114.127L 44.8721 114.127L 45.4028 114.489ZM 18.2575 135.417L 18.0448 134.811L 18.0426 134.812L 18.2575 135.417ZM 1.63394e-06 138.522L 1.63394e-06 137.879C -0.354751 137.879 -0.642336 138.167 -0.642336 138.522L 1.63394e-06 138.522ZM 1.63394e-06 167.425L -0.642336 167.425C -0.642336 167.78 -0.354751 168.067 1.63394e-06 168.067L 1.63394e-06 167.425ZM 27.8414 162.661L 28.0533 163.268L 28.0547 163.267L 27.8414 162.661ZM 69.2822 130.707L 68.751 130.346L 68.7507 130.346L 69.2822 130.707ZM 83.7382 83.7125L 83.0959 83.7092L 83.0959 83.7125L 83.7382 83.7125ZM 78.931 53.7244C 66.8461 21.9575 36.0944 -0.642337 0.0535378 -0.642337L 0.0535378 0.642337C 35.5436 0.642337 65.8287 22.8961 77.7302 54.1812L 78.931 53.7244ZM -0.5888 2.55225e-08L -0.5888 28.9033L 0.695875 28.9033L 0.695875 2.55225e-08L -0.5888 2.55225e-08ZM 0.0535378 29.5456C 23.1755 29.5456 42.9132 44.0383 50.6921 64.4582L 51.8926 64.0009C 43.9304 43.0998 23.7265 28.261 0.0535378 28.261L 0.0535378 29.5456ZM 50.692 64.4581C 52.9674 70.4358 54.2373 76.942 54.2373 83.7125L 55.5219 83.7125C 55.5219 76.7807 54.2218 70.1199 51.8927 64.001L 50.692 64.4581ZM 54.2373 83.7125C 54.2373 94.9806 50.7981 105.453 44.8724 114.127L 45.9332 114.851C 52.0008 105.97 55.5219 95.246 55.5219 83.7125L 54.2373 83.7125ZM 44.8721 114.127C 38.4152 123.598 29.0485 130.951 18.0448 134.811L 18.4702 136.023C 29.7396 132.069 39.3264 124.542 45.9336 114.851L 44.8721 114.127ZM 18.0426 134.812C 12.3834 136.821 6.35245 137.879 1.63394e-06 137.879L 1.63394e-06 139.164C 6.49741 139.164 12.6738 138.081 18.4724 136.023L 18.0426 134.812ZM -0.642336 138.522L -0.642336 167.425L 0.642339 167.425L 0.642339 138.522L -0.642336 138.522ZM 1.63394e-06 168.067C 9.82023 168.067 19.2615 166.341 28.0533 163.268L 27.6294 162.055C 18.9669 165.083 9.66872 166.783 1.63394e-06 166.783L 1.63394e-06 168.067ZM 28.0547 163.267C 45.212 157.226 59.7789 145.846 69.8136 131.068L 68.7507 130.346C 58.8682 144.9 44.5228 156.107 27.628 162.055L 28.0547 163.267ZM 69.8133 131.068C 78.9852 117.584 84.3806 101.241 84.3806 83.7125L 83.0959 83.7125C 83.0959 100.975 77.7831 117.067 68.751 130.346L 69.8133 131.068ZM 84.3806 83.7158C 84.4345 73.1433 82.4919 63.0555 78.9307 53.7238L 77.7305 54.1818C 81.2367 63.3696 83.149 73.3001 83.0959 83.7092L 84.3806 83.7158Z"/>
<path id="allmob44path26_fill" d="M 51.0246 27.244L 41.3872 2.0418e-07C 24.4147 5.99476 9.95864 17.2885 0 31.9542L 23.9329 48.1722C 30.4113 38.5913 39.9416 31.2049 51.0246 27.244Z"/>
<path id="allmob44path27_stroke" d="M 51.0246 27.244L 51.2408 27.8489C 51.5741 27.7298 51.7482 27.3635 51.6302 27.0298L 51.0246 27.244ZM 41.3872 2.0418e-07L 41.9928 -0.214214C 41.8745 -0.548546 41.5077 -0.723775 41.1733 -0.605668L 41.3872 2.0418e-07ZM 0 31.9542L -0.531403 31.5934C -0.627164 31.7344 -0.662942 31.9077 -0.630856 32.0751C -0.59877 32.2425 -0.501452 32.3903 -0.360336 32.4859L 0 31.9542ZM 23.9329 48.1722L 23.5725 48.7039C 23.7136 48.7995 23.887 48.8351 24.0544 48.8029C 24.2218 48.7706 24.3695 48.6732 24.465 48.532L 23.9329 48.1722ZM 51.6302 27.0298L 41.9928 -0.214214L 40.7817 0.214215L 50.4191 27.4582L 51.6302 27.0298ZM 41.1733 -0.605668C 24.0698 5.43535 9.50318 16.8158 -0.531403 31.5934L 0.531403 32.315C 10.4141 17.7611 24.7596 6.55416 41.6012 0.605668L 41.1733 -0.605668ZM -0.360336 32.4859L 23.5725 48.7039L 24.2932 47.6404L 0.360336 31.4225L -0.360336 32.4859ZM 24.465 48.532C 30.8661 39.0654 40.2852 31.7642 51.2408 27.8489L 50.8085 26.6392C 39.5981 30.6455 29.9566 38.1171 23.4007 47.8124L 24.465 48.532Z"/>
<path id="allmob44path28_fill" d="M 54.8796 3.26688e-06C 54.8796 11.4007 51.3994 21.9986 45.4028 30.7767C 38.8708 40.3576 29.394 47.7975 18.2575 51.7048C 12.5286 53.7387 6.42493 54.8092 1.63394e-06 54.8092L 1.63394e-06 83.7125C 9.74448 83.7125 19.1142 81.9997 27.8414 78.9488C 44.8674 72.9541 59.3235 61.6604 69.2821 46.9946C 78.3841 33.6135 83.7382 17.3955 83.7382 3.26688e-06L 54.8796 3.26688e-06Z"/>
<path id="allmob44path29_stroke" d="M 45.4028 30.7767L 44.8724 30.4143L 44.8721 30.4148L 45.4028 30.7767ZM 18.2575 51.7048L 18.0448 51.0987L 18.0426 51.0995L 18.2575 51.7048ZM 1.63394e-06 54.8092L 1.63394e-06 54.1669C -0.354751 54.1669 -0.642336 54.4545 -0.642336 54.8092L 1.63394e-06 54.8092ZM 1.63394e-06 83.7125L -0.642336 83.7125C -0.642336 84.0673 -0.354751 84.3548 1.63394e-06 84.3548L 1.63394e-06 83.7125ZM 27.8414 78.9488L 28.0533 79.5552L 28.0547 79.5547L 27.8414 78.9488ZM 69.2821 46.9946L 68.751 46.6333L 68.7507 46.6338L 69.2821 46.9946ZM 83.7382 3.26688e-06L 84.3806 3.26688e-06C 84.3806 -0.35475 84.093 -0.642334 83.7382 -0.642334L 83.7382 3.26688e-06ZM 54.8796 -0.642334C 54.5248 -0.642334 54.2372 -0.35475 54.2372 3.26688e-06C 54.2372 0.354756 54.5248 0.642341 54.8796 0.642341L 54.8796 -0.642334ZM 54.2372 3.26688e-06C 54.2372 11.268 50.798 21.7402 44.8724 30.4143L 45.9332 31.139C 52.0008 22.257 55.5219 11.5334 55.5219 3.26688e-06L 54.2372 3.26688e-06ZM 44.8721 30.4148C 38.4152 39.8856 29.0485 47.238 18.0448 51.0987L 18.4702 52.3109C 29.7396 48.357 39.3264 40.8296 45.9336 31.1385L 44.8721 30.4148ZM 18.0426 51.0995C 12.3834 53.1087 6.35245 54.1669 1.63394e-06 54.1669L 1.63394e-06 55.4515C 6.49741 55.4515 12.6738 54.3688 18.4724 52.3101L 18.0426 51.0995ZM -0.642336 54.8092L -0.642336 83.7125L 0.642339 83.7125L 0.642339 54.8092L -0.642336 54.8092ZM 1.63394e-06 84.3548C 9.82023 84.3548 19.2615 82.6287 28.0533 79.5552L 27.6294 78.3425C 18.9669 81.3708 9.66872 83.0702 1.63394e-06 83.0702L 1.63394e-06 84.3548ZM 28.0547 79.5547C 45.212 73.5137 59.7789 62.1332 69.8135 47.3555L 68.7507 46.6338C 58.8682 61.1875 44.5228 72.3944 27.628 78.3429L 28.0547 79.5547ZM 69.8133 47.3559C 78.9851 33.8719 84.3806 17.5288 84.3806 3.26688e-06L 83.0959 3.26688e-06C 83.0959 17.2622 77.7831 33.355 68.751 46.6333L 69.8133 47.3559ZM 83.7382 -0.642334L 54.8796 -0.642334L 54.8796 0.642341L 83.7382 0.642341L 83.7382 -0.642334Z"/>
<path id="allmob44path30_fill" d="M 80.0586 1.20463C 75.9722 0.458906 71.7707 -1.09412e-07 67.4541 -1.09412e-07C 58.418 -1.09412e-07 49.7848 1.77826 41.8998 4.9906C 19.5686 14.1113 3.22306 34.8195 0.460438 59.6004C 0.172664 62.1243 0 64.6483 0 67.2297C 0 100.041 23.5974 127.404 54.8497 133.255C 58.936 134 63.1375 134.459 67.4541 134.459C 76.4902 134.459 85.1234 132.681 93.0084 129.469C 115.34 120.348 131.685 99.6399 134.448 74.859C 134.736 72.335 134.908 69.811 134.908 67.2297C 134.908 34.4179 111.253 7.05567 80.0586 1.20463ZM 84.145 107.958C 78.9651 110.08 73.3247 111.227 67.3966 111.227C 64.5764 111.227 61.8138 110.94 59.1663 110.424C 38.7343 106.581 23.2521 88.6835 23.2521 67.1723C 23.2521 65.5088 23.3672 63.8452 23.5399 62.1817C 25.3816 45.9479 36.0868 32.4102 50.7057 26.4444C 55.8856 24.322 61.526 23.1747 67.4541 23.1747C 70.2743 23.1747 73.0369 23.4615 75.6845 23.9778C 96.1164 27.8212 111.599 45.7185 111.599 67.2297C 111.599 68.8932 111.484 70.5567 111.311 72.2203C 109.469 88.4541 98.7639 101.992 84.145 107.958Z"/>
<path id="allmob44path31_fill" d="M 8.78215e-07 3.26971L 8.78215e-07 26.5018C 9.03609 26.5018 17.6693 24.7235 25.5543 21.5112L 16.7484 -3.50117e-06C 11.5685 2.12243 5.92814 3.26971 8.78215e-07 3.26971Z"/>
<path id="allmob44path32_stroke" d="M 8.78215e-07 3.26971L 8.78215e-07 2.57873C -0.381617 2.57873 -0.690979 2.88809 -0.690979 3.26971L 8.78215e-07 3.26971ZM 8.78215e-07 26.5018L -0.690979 26.5018C -0.690979 26.8834 -0.381617 27.1928 8.78215e-07 27.1928L 8.78215e-07 26.5018ZM 25.5543 21.5112L 25.815 22.1511C 25.9849 22.0819 26.1203 21.9479 26.1914 21.7788C 26.2624 21.6097 26.2633 21.4192 26.1938 21.2494L 25.5543 21.5112ZM 16.7484 -3.50117e-06L 17.3879 -0.26178C 17.3185 -0.431415 17.1845 -0.566507 17.0154 -0.637327C 16.8463 -0.708146 16.6561 -0.708889 16.4864 -0.639391L 16.7484 -3.50117e-06ZM -0.690979 3.26971L -0.690979 26.5018L 0.690981 26.5018L 0.690981 3.26971L -0.690979 3.26971ZM 8.78215e-07 27.1928C 9.12737 27.1928 17.849 25.3964 25.815 22.1511L 25.2936 20.8713C 17.4896 24.0506 8.94481 25.8108 8.78215e-07 25.8108L 8.78215e-07 27.1928ZM 26.1938 21.2494L 17.3879 -0.26178L 16.109 0.261773L 24.9148 21.773L 26.1938 21.2494ZM 16.4864 -0.639391C 11.3894 1.4491 5.83796 2.57873 8.78215e-07 2.57873L 8.78215e-07 3.96069C 6.01831 3.96069 11.7476 2.79577 17.0104 0.639384L 16.4864 -0.639391Z"/>
<path id="allmob44path33_fill" d="M 50.3028 2.63871L 27.1658 -8.75293e-07C 25.3241 16.2338 14.6189 29.7715 -3.51286e-06 35.7373L 8.80587 57.2485C 31.1947 48.1277 47.4827 27.4196 50.3028 2.63871Z"/>
<path id="allmob44path34_stroke" d="M 50.3028 2.63871L 50.9894 2.71684C 51.0325 2.33773 50.7602 1.99541 50.3811 1.95218L 50.3028 2.63871ZM 27.1658 -8.75293e-07L 27.2441 -0.68653C 27.062 -0.707304 26.879 -0.65484 26.7356 -0.540688C 26.5921 -0.426536 26.4999 -0.260055 26.4793 -0.077894L 27.1658 -8.75293e-07ZM -3.51286e-06 35.7373L -0.26108 35.0975C -0.430876 35.1668 -0.566162 35.3007 -0.637137 35.4698C -0.708112 35.6389 -0.708954 35.8293 -0.639477 35.999L -3.51286e-06 35.7373ZM 8.80587 57.2485L 8.1664 57.5102C 8.3108 57.863 8.71357 58.0322 9.06656 57.8884L 8.80587 57.2485ZM 50.3811 1.95218L 27.2441 -0.68653L 27.0875 0.686529L 50.2245 3.32523L 50.3811 1.95218ZM 26.4793 -0.077894C 24.6668 15.8974 14.1311 29.2243 -0.26108 35.0975L 0.261073 36.377C 15.1067 30.3187 25.9813 16.5702 27.8524 0.0778923L 26.4793 -0.077894ZM -0.639477 35.999L 8.1664 57.5102L 9.44534 56.9867L 0.63947 35.4755L -0.639477 35.999ZM 9.06656 57.8884C 31.6836 48.6747 48.1399 27.7549 50.9894 2.71684L 49.6163 2.56057C 46.8254 27.0843 30.7058 47.5808 8.54518 56.6085L 9.06656 57.8884Z"/>
<path id="allmob44path35_fill" d="M 35.9142 66.025C 35.9142 67.6886 35.799 69.3521 35.6264 71.0156L 58.7634 73.6544C 59.0512 71.1304 59.2238 68.6064 59.2238 66.025C 59.2238 33.2133 35.6264 5.85105 4.37416 -2.73529e-08L -1.75643e-06 22.7732C 20.4319 26.6165 35.9142 44.5138 35.9142 66.025Z"/>
<path id="allmob44path36_stroke" d="M 35.6264 71.0156L 34.9391 70.9443C 34.9 71.3212 35.1716 71.6592 35.5481 71.7022L 35.6264 71.0156ZM 58.7634 73.6544L 58.6851 74.3409C 58.8672 74.3616 59.05 74.3092 59.1935 74.1952C 59.3369 74.0811 59.4292 73.9147 59.4499 73.7326L 58.7634 73.6544ZM 4.37416 -2.73529e-08L 4.50132 -0.679179C 4.12746 -0.749173 3.76733 -0.503863 3.69559 -0.130338L 4.37416 -2.73529e-08ZM -1.75643e-06 22.7732L -0.678578 22.6429C -0.713232 22.8233 -0.674609 23.0101 -0.571246 23.162C -0.467883 23.3138 -0.308289 23.4183 -0.127738 23.4523L -1.75643e-06 22.7732ZM 35.2232 66.025C 35.2232 67.6574 35.1102 69.2958 34.9391 70.9443L 36.3137 71.087C 36.4879 69.4085 36.6051 67.7198 36.6051 66.025L 35.2232 66.025ZM 35.5481 71.7022L 58.6851 74.3409L 58.8417 72.9678L 35.7047 70.3291L 35.5481 71.7022ZM 59.4499 73.7326C 59.74 71.188 59.9148 68.6374 59.9148 66.025L 58.5328 66.025C 58.5328 68.5754 58.3623 71.0728 58.0769 73.5761L 59.4499 73.7326ZM 59.9148 66.025C 59.9148 32.8738 36.0736 5.23178 4.50132 -0.679179L 4.24701 0.679179C 35.1792 6.47031 58.5328 33.5528 58.5328 66.025L 59.9148 66.025ZM 3.69559 -0.130338L -0.678578 22.6429L 0.678574 22.9035L 5.05274 0.130337L 3.69559 -0.130338ZM -0.127738 23.4523C 19.9853 27.2356 35.2232 44.854 35.2232 66.025L 36.6051 66.025C 36.6051 44.1737 20.8786 25.9974 0.127734 22.0941L -0.127738 23.4523Z"/>
<path id="allmob44path37_fill" d="M 67.4541 2.73529e-08C 58.4181 2.73529e-08 49.7848 1.77826 41.8998 4.9906C 19.5686 14.1113 3.22306 34.8195 0.460438 59.6004C 0.172664 62.1243 -1.09777e-07 64.6483 -1.09777e-07 67.2297C -1.09777e-07 100.041 23.5974 127.404 54.8497 133.255C 58.936 134 63.1375 134.459 67.4541 134.459L 67.4541 111.227C 64.634 111.227 61.8713 110.94 59.2238 110.424C 38.7919 106.581 23.3097 88.6835 23.3097 67.1723C 23.3097 65.5088 23.4248 63.8452 23.5974 62.1817C 25.4392 45.9479 36.1444 32.4102 50.7633 26.4444C 55.9432 24.322 61.5836 23.1747 67.5117 23.1747C 70.3319 23.1747 73.0945 23.4615 75.742 23.9778L 80.1162 1.14726C 75.9722 0.401542 71.7708 2.73529e-08 67.4541 2.73529e-08Z"/>
<path id="allmob44path38_stroke" d="M 41.8998 4.9906L 41.6391 4.35069L 41.6386 4.35092L 41.8998 4.9906ZM 0.460438 59.6004L 1.14697 59.6786L 1.14716 59.6769L 0.460438 59.6004ZM 54.8497 133.255L 54.7225 133.934L 54.7256 133.934L 54.8497 133.255ZM 67.4541 134.459L 67.4541 135.15C 67.8358 135.15 68.1451 134.841 68.1451 134.459L 67.4541 134.459ZM 67.4541 111.227L 68.1451 111.227C 68.1451 110.846 67.8358 110.536 67.4541 110.536L 67.4541 111.227ZM 59.2238 110.424L 59.3561 109.746L 59.3516 109.745L 59.2238 110.424ZM 23.5974 62.1817L 22.9108 62.1038L 22.9102 62.1104L 23.5974 62.1817ZM 50.7633 26.4444L 51.0243 27.0842L 51.0253 27.0838L 50.7633 26.4444ZM 75.742 23.9778L 75.6098 24.656C 75.79 24.6912 75.9769 24.6531 76.129 24.5503C 76.2812 24.4474 76.3861 24.2882 76.4207 24.1078L 75.742 23.9778ZM 80.1162 1.14726L 80.7948 1.27729C 80.8296 1.09598 80.7903 0.908307 80.6858 0.756125C 80.5813 0.603942 80.4202 0.499904 80.2386 0.467208L 80.1162 1.14726ZM 67.4541 -0.69098C 58.3268 -0.69098 49.6051 1.10534 41.6391 4.35069L 42.1605 5.63051C 49.9645 2.45117 58.5093 0.69098 67.4541 0.69098L 67.4541 -0.69098ZM 41.6386 4.35092C 19.0805 13.5643 2.56524 34.4836 -0.226288 59.5238L 1.14716 59.6769C 3.88089 35.1553 20.0567 14.6584 42.1611 5.63028L 41.6386 4.35092ZM -0.226094 59.5221C -0.516226 62.0668 -0.69098 64.6173 -0.69098 67.2297L 0.69098 67.2297C 0.69098 64.6793 0.861555 62.1819 1.14697 59.6786L -0.226094 59.5221ZM -0.69098 67.2297C -0.69098 100.381 23.1502 128.023 54.7225 133.934L 54.9768 132.576C 24.0446 126.784 0.69098 99.7019 0.69098 67.2297L -0.69098 67.2297ZM 54.7256 133.934C 58.8449 134.686 63.0885 135.15 67.4541 135.15L 67.4541 133.768C 63.1866 133.768 59.0272 133.315 54.9737 132.575L 54.7256 133.934ZM 68.1451 134.459L 68.1451 111.227L 66.7632 111.227L 66.7632 134.459L 68.1451 134.459ZM 67.4541 110.536C 64.6807 110.536 61.9623 110.254 59.3561 109.746L 59.0916 111.102C 61.7803 111.627 64.5873 111.918 67.4541 111.918L 67.4541 110.536ZM 59.3516 109.745C 39.2385 105.962 24.0006 88.3434 24.0006 67.1723L 22.6187 67.1723C 22.6187 89.0236 38.3452 107.2 59.0961 111.103L 59.3516 109.745ZM 24.0006 67.1723C 24.0006 65.54 24.1136 63.9016 24.2847 62.253L 22.9102 62.1104C 22.7359 63.7889 22.6187 65.4776 22.6187 67.1723L 24.0006 67.1723ZM 24.284 62.2596C 26.0964 46.2843 36.6322 32.9574 51.0243 27.0842L 50.5022 25.8047C 35.6565 31.863 24.7819 45.6115 22.9109 62.1038L 24.284 62.2596ZM 51.0253 27.0838C 56.1223 24.9953 61.6737 23.8657 67.5117 23.8657L 67.5117 22.4838C 61.4934 22.4838 55.7641 23.6487 50.5013 25.805L 51.0253 27.0838ZM 67.5117 23.8657C 70.2852 23.8657 73.0035 24.1478 75.6098 24.656L 75.8743 23.2996C 73.1855 22.7753 70.3786 22.4838 67.5117 22.4838L 67.5117 23.8657ZM 76.4207 24.1078L 80.7948 1.27729L 79.4375 1.01724L 75.0634 23.8478L 76.4207 24.1078ZM 80.2386 0.467208C 76.0566 -0.285356 71.8141 -0.69098 67.4541 -0.69098L 67.4541 0.69098C 71.7274 0.69098 75.8879 1.08844 79.9938 1.82732L 80.2386 0.467208Z"/>
<path id="allmob44path39_stroke" d="M 4 0L 4 -0.5L 3.59891 -0.5L 3.51191 -0.108465L 4 0ZM 0.488094 18.1085L 4.48809 0.108465L 3.51191 -0.108465L -0.488094 17.8915L 0.488094 18.1085ZM 4 0.5L 186 0.5L 186 -0.5L 4 -0.5L 4 0.5Z"/>
<path id="allmob44path40_stroke" d="M 0 0.5L 124 0.5L 124 -0.5L 0 -0.5L 0 0.5Z"/>
<path id="allmob44path41_stroke" d="M 0 0.5L 120 0.5L 120 -0.5L 0 -0.5L 0 0.5Z"/>
<path id="allmob44path42_stroke" d="M 4.25824 9L 3.80627 9.21384L 3.94167 9.5L 4.25824 9.5L 4.25824 9ZM -0.451964 0.213841L 3.80627 9.21384L 4.7102 8.78616L 0.451964 -0.213841L -0.451964 0.213841ZM 4.25824 9.5L 171 9.5L 171 8.5L 4.25824 8.5L 4.25824 9.5Z"/>
<path id="allmob44path43_fill" d="M 3.355 10C 5.038 10 6.105 9.054 6.105 6.601L 6.105 5.809C 6.105 3.356 5.038 2.41 3.355 2.41L 0.935 2.41L 0.935 10L 3.355 10ZM 3.355 9.142L 1.881 9.142L 1.881 3.268L 3.355 3.268C 4.521 3.268 5.159 3.928 5.159 5.809L 5.159 6.601C 5.159 8.482 4.521 9.142 3.355 9.142ZM 10.6972 8.68C 10.4662 9.087 10.1032 9.296 9.38816 9.296C 8.43116 9.296 7.98016 8.548 7.98016 7.602L 7.98016 7.448L 11.4562 7.448L 11.4562 6.876C 11.4562 5.303 10.7302 4.412 9.27816 4.412C 7.83716 4.412 7.10016 5.314 7.10016 6.876L 7.10016 7.602C 7.10016 9.131 7.98016 10.088 9.45416 10.088C 10.4112 10.088 10.9942 9.835 11.3792 9.164L 10.6972 8.68ZM 9.27816 5.204C 10.1142 5.204 10.5212 5.754 10.5652 6.678L 7.98016 6.678C 8.03516 5.765 8.43116 5.204 9.27816 5.204ZM 16.3678 4.5L 14.6958 8.878L 13.0238 4.5L 12.0338 4.5L 14.2778 10L 15.1578 10L 17.3578 4.5L 16.3678 4.5ZM 21.5038 8.68C 21.2728 9.087 20.9098 9.296 20.1948 9.296C 19.2378 9.296 18.7868 8.548 18.7868 7.602L 18.7868 7.448L 22.2628 7.448L 22.2628 6.876C 22.2628 5.303 21.5368 4.412 20.0848 4.412C 18.6438 4.412 17.9068 5.314 17.9068 6.876L 17.9068 7.602C 17.9068 9.131 18.7868 10.088 20.2608 10.088C 21.2178 10.088 21.8008 9.835 22.1858 9.164L 21.5038 8.68ZM 20.0848 5.204C 20.9208 5.204 21.3278 5.754 21.3718 6.678L 18.7868 6.678C 18.8418 5.765 19.2378 5.204 20.0848 5.204ZM 23.5529 8.306C 23.5529 9.45 23.9819 10 25.3679 10L 25.3679 9.186C 24.4659 9.186 24.4329 8.68 24.4329 8.086L 24.4329 2.41L 23.5529 2.41L 23.5529 8.306ZM 30.8724 6.876C 30.8724 5.303 30.0364 4.412 28.5844 4.412C 27.1434 4.412 26.2964 5.314 26.2964 6.876L 26.2964 7.602C 26.2964 9.12 27.1214 10.088 28.5844 10.088C 30.1684 10.088 30.8724 9.032 30.8724 7.602L 30.8724 6.876ZM 28.5844 9.296C 27.5724 9.296 27.1764 8.548 27.1764 7.602L 27.1764 6.876C 27.1764 5.842 27.6824 5.204 28.5844 5.204C 29.4864 5.204 29.9924 5.831 29.9924 6.876L 29.9924 7.602C 29.9924 8.537 29.5194 9.296 28.5844 9.296ZM 32.9085 5.05L 32.9085 4.5L 32.0285 4.5L 32.0285 12.09L 32.9085 12.09L 32.9085 9.45C 33.2055 9.857 33.6785 10.088 34.4045 10.088C 35.9005 10.088 36.6045 9.032 36.6045 7.602L 36.6045 6.876C 36.6045 5.303 35.7685 4.412 34.4045 4.412C 33.6785 4.412 33.2055 4.643 32.9085 5.05ZM 34.3165 9.296C 33.3045 9.296 32.9085 8.548 32.9085 7.602L 32.9085 6.799C 32.9085 5.809 33.4365 5.204 34.3165 5.204C 35.2185 5.204 35.7245 5.831 35.7245 6.876L 35.7245 7.602C 35.7245 8.537 35.2515 9.296 34.3165 9.296ZM 37.7648 10L 38.6448 10L 38.6448 6.568C 38.6448 5.809 39.1618 5.226 39.8768 5.226C 40.5258 5.226 41.0208 5.578 41.0208 6.579L 41.0208 10L 41.9008 10L 41.9008 6.568C 41.9008 5.787 42.4288 5.226 43.1328 5.226C 43.7818 5.226 44.2768 5.578 44.2768 6.579L 44.2768 10L 45.1568 10L 45.1568 6.568C 45.1568 5.138 44.4418 4.412 43.2648 4.412C 42.5938 4.412 41.9888 4.698 41.6148 5.281C 41.3068 4.709 40.7458 4.412 40.0088 4.412C 39.3048 4.412 38.8868 4.665 38.6448 5.039L 38.6448 4.5L 37.7648 4.5L 37.7648 10ZM 49.9061 8.68C 49.6751 9.087 49.3121 9.296 48.5971 9.296C 47.6401 9.296 47.1891 8.548 47.1891 7.602L 47.1891 7.448L 50.6651 7.448L 50.6651 6.876C 50.6651 5.303 49.9391 4.412 48.4871 4.412C 47.0461 4.412 46.3091 5.314 46.3091 6.876L 46.3091 7.602C 46.3091 9.131 47.1891 10.088 48.6631 10.088C 49.6201 10.088 50.2031 9.835 50.5881 9.164L 49.9061 8.68ZM 48.4871 5.204C 49.3231 5.204 49.7301 5.754 49.7741 6.678L 47.1891 6.678C 47.2441 5.765 47.6401 5.204 48.4871 5.204ZM 51.9552 10L 52.8352 10L 52.8352 6.568C 52.8352 5.809 53.3522 5.226 54.1772 5.226C 54.8262 5.226 55.4312 5.468 55.4312 6.579L 55.4312 10L 56.3112 10L 56.3112 6.568C 56.3112 5.028 55.4862 4.412 54.3092 4.412C 53.4952 4.412 53.1102 4.621 52.8352 5.039L 52.8352 4.5L 51.9552 4.5L 51.9552 10ZM 57.2613 5.292L 57.9653 5.292L 57.9653 8.306C 57.9653 9.45 58.3393 10 59.6373 10L 60.1103 10L 60.1103 9.164L 59.6703 9.164C 58.9333 9.164 58.8453 8.845 58.8453 8.086L 58.8453 5.292L 60.1103 5.292L 60.1103 4.5L 58.8453 4.5L 58.8453 3.29L 57.9653 3.29L 57.9653 4.5L 57.2613 4.5L 57.2613 5.292Z"/>
<path id="allmob44path44_fill" d="M 1.859 2.41L 0.935 2.41L 0.935 10L 1.881 10L 1.881 4.467L 3.696 8.416L 4.543 8.416L 6.391 4.434L 6.391 10L 7.337 10L 7.337 2.41L 6.402 2.41L 4.136 7.14L 1.859 2.41ZM 8.71148 8.394C 8.71148 9.461 9.40448 10.088 10.6805 10.088C 11.3955 10.088 11.7695 9.967 12.0775 9.461L 12.0775 10L 12.9575 10L 12.9575 6.183C 12.9575 4.863 12.2645 4.412 10.8675 4.412C 9.82248 4.412 9.26148 4.687 8.87648 5.325L 9.53648 5.787C 9.84448 5.281 10.1965 5.226 10.8565 5.226C 11.7145 5.226 12.0775 5.402 12.0775 6.183L 12.0775 6.821L 10.7685 6.821C 9.55848 6.821 8.71148 7.206 8.71148 8.394ZM 12.0775 7.888C 12.0775 9.12 11.4945 9.274 10.6805 9.274C 10.0315 9.274 9.59148 9.032 9.59148 8.416C 9.59148 7.866 9.89948 7.569 10.7685 7.569L 12.0775 7.569L 12.0775 7.888ZM 18.1188 5.16C 17.7668 4.665 17.2938 4.412 16.5458 4.412C 15.8748 4.412 15.5008 4.654 15.2698 5.039L 15.2698 4.5L 14.3898 4.5L 14.3898 10L 15.2698 10L 15.2698 6.557C 15.2698 5.732 15.7758 5.226 16.4468 5.226C 16.8538 5.226 17.1398 5.369 17.3708 5.688L 18.1188 5.16ZM 21.8209 4.5L 19.5989 6.744L 19.5989 2.41L 18.7189 2.41L 18.7189 10L 19.5989 10L 19.5989 7.965L 19.9399 7.602L 22.1619 10L 23.3059 10L 20.5889 6.931L 22.9649 4.5L 21.8209 4.5ZM 27.0683 8.68C 26.8372 9.087 26.4742 9.296 25.7592 9.296C 24.8022 9.296 24.3512 8.548 24.3512 7.602L 24.3512 7.448L 27.8272 7.448L 27.8272 6.876C 27.8272 5.303 27.1013 4.412 25.6493 4.412C 24.2083 4.412 23.4712 5.314 23.4712 6.876L 23.4712 7.602C 23.4712 9.131 24.3512 10.088 25.8253 10.088C 26.7822 10.088 27.3652 9.835 27.7502 9.164L 27.0683 8.68ZM 25.6493 5.204C 26.4853 5.204 26.8923 5.754 26.9362 6.678L 24.3512 6.678C 24.4062 5.765 24.8022 5.204 25.6493 5.204ZM 28.6333 5.292L 29.3373 5.292L 29.3373 8.306C 29.3373 9.45 29.7113 10 31.0093 10L 31.4823 10L 31.4823 9.164L 31.0423 9.164C 30.3053 9.164 30.2173 8.845 30.2173 8.086L 30.2173 5.292L 31.4823 5.292L 31.4823 4.5L 30.2173 4.5L 30.2173 3.29L 29.3373 3.29L 29.3373 4.5L 28.6333 4.5L 28.6333 5.292ZM 32.7521 10L 33.6321 10L 33.6321 4.5L 32.7521 4.5L 32.7521 10ZM 32.6971 3.4L 33.6871 3.4L 33.6871 2.41L 32.6971 2.41L 32.6971 3.4ZM 35.2296 10L 36.1096 10L 36.1096 6.568C 36.1096 5.809 36.6266 5.226 37.4516 5.226C 38.1006 5.226 38.7056 5.468 38.7056 6.579L 38.7056 10L 39.5856 10L 39.5856 6.568C 39.5856 5.028 38.7606 4.412 37.5836 4.412C 36.7696 4.412 36.3846 4.621 36.1096 5.039L 36.1096 4.5L 35.2296 4.5L 35.2296 10ZM 44.4407 5.05C 44.1437 4.643 43.6707 4.412 42.9447 4.412C 41.5807 4.412 40.7447 5.303 40.7447 6.876L 40.7447 7.602C 40.7447 9.032 41.4487 10.088 42.9447 10.088C 43.6707 10.088 44.1437 9.901 44.4407 9.516L 44.4407 9.89C 44.4407 10.836 43.9897 11.364 43.0327 11.364C 42.3177 11.364 41.9547 11.155 41.7237 10.748L 41.0417 11.232C 41.4267 11.903 42.0097 12.156 42.9667 12.156C 44.4407 12.156 45.3207 11.419 45.3207 9.89L 45.3207 4.5L 44.4407 4.5L 44.4407 5.05ZM 43.0327 9.296C 42.0977 9.296 41.6247 8.537 41.6247 7.602L 41.6247 6.876C 41.6247 5.831 42.1307 5.204 43.0327 5.204C 43.9347 5.204 44.4407 5.842 44.4407 6.876L 44.4407 7.602C 44.4407 8.548 44.0447 9.296 43.0327 9.296Z"/>
<path id="allmob44path45_fill" d="M 6.05 6.623L 6.05 5.787C 6.05 3.334 4.983 2.322 3.3 2.322C 1.617 2.322 0.55 3.334 0.55 5.787L 0.55 6.623C 0.55 9.076 1.617 10.088 3.3 10.088C 4.983 10.088 6.05 9.076 6.05 6.623ZM 1.496 5.787C 1.496 3.906 2.134 3.18 3.3 3.18C 4.466 3.18 5.104 3.906 5.104 5.787L 5.104 6.623C 5.104 8.504 4.466 9.23 3.3 9.23C 2.134 9.23 1.496 8.504 1.496 6.623L 1.496 5.787ZM 8.1907 5.05L 8.1907 4.5L 7.3107 4.5L 7.3107 12.09L 8.1907 12.09L 8.1907 9.45C 8.4877 9.857 8.9607 10.088 9.6867 10.088C 11.1827 10.088 11.8867 9.032 11.8867 7.602L 11.8867 6.876C 11.8867 5.303 11.0507 4.412 9.6867 4.412C 8.9607 4.412 8.4877 4.643 8.1907 5.05ZM 9.5987 9.296C 8.5867 9.296 8.1907 8.548 8.1907 7.602L 8.1907 6.799C 8.1907 5.809 8.7187 5.204 9.5987 5.204C 10.5007 5.204 11.0067 5.831 11.0067 6.876L 11.0067 7.602C 11.0067 8.537 10.5337 9.296 9.5987 9.296ZM 16.369 8.68C 16.138 9.087 15.775 9.296 15.06 9.296C 14.103 9.296 13.652 8.548 13.652 7.602L 13.652 7.448L 17.128 7.448L 17.128 6.876C 17.128 5.303 16.402 4.412 14.95 4.412C 13.509 4.412 12.772 5.314 12.772 6.876L 12.772 7.602C 12.772 9.131 13.652 10.088 15.126 10.088C 16.083 10.088 16.666 9.835 17.051 9.164L 16.369 8.68ZM 14.95 5.204C 15.786 5.204 16.193 5.754 16.237 6.678L 13.652 6.678C 13.707 5.765 14.103 5.204 14.95 5.204ZM 22.1471 5.16C 21.7951 4.665 21.3221 4.412 20.5741 4.412C 19.9031 4.412 19.5291 4.654 19.2981 5.039L 19.2981 4.5L 18.4181 4.5L 18.4181 10L 19.2981 10L 19.2981 6.557C 19.2981 5.732 19.8041 5.226 20.4751 5.226C 20.8821 5.226 21.1681 5.369 21.3991 5.688L 22.1471 5.16ZM 22.3648 8.394C 22.3648 9.461 23.0578 10.088 24.3338 10.088C 25.0488 10.088 25.4228 9.967 25.7308 9.461L 25.7308 10L 26.6108 10L 26.6108 6.183C 26.6108 4.863 25.9178 4.412 24.5208 4.412C 23.4758 4.412 22.9148 4.687 22.5298 5.325L 23.1898 5.787C 23.4978 5.281 23.8498 5.226 24.5098 5.226C 25.3678 5.226 25.7308 5.402 25.7308 6.183L 25.7308 6.821L 24.4218 6.821C 23.2118 6.821 22.3648 7.206 22.3648 8.394ZM 25.7308 7.888C 25.7308 9.12 25.1478 9.274 24.3338 9.274C 23.6848 9.274 23.2448 9.032 23.2448 8.416C 23.2448 7.866 23.5528 7.569 24.4218 7.569L 25.7308 7.569L 25.7308 7.888ZM 27.5591 5.292L 28.2631 5.292L 28.2631 8.306C 28.2631 9.45 28.6371 10 29.9351 10L 30.4081 10L 30.4081 9.164L 29.9681 9.164C 29.2311 9.164 29.1431 8.845 29.1431 8.086L 29.1431 5.292L 30.4081 5.292L 30.4081 4.5L 29.1431 4.5L 29.1431 3.29L 28.2631 3.29L 28.2631 4.5L 27.5591 4.5L 27.5591 5.292ZM 31.6779 10L 32.5579 10L 32.5579 4.5L 31.6779 4.5L 31.6779 10ZM 31.6229 3.4L 32.6129 3.4L 32.6129 2.41L 31.6229 2.41L 31.6229 3.4ZM 38.4564 6.876C 38.4564 5.303 37.6204 4.412 36.1684 4.412C 34.7274 4.412 33.8804 5.314 33.8804 6.876L 33.8804 7.602C 33.8804 9.12 34.7054 10.088 36.1684 10.088C 37.7524 10.088 38.4564 9.032 38.4564 7.602L 38.4564 6.876ZM 36.1684 9.296C 35.1564 9.296 34.7604 8.548 34.7604 7.602L 34.7604 6.876C 34.7604 5.842 35.2664 5.204 36.1684 5.204C 37.0704 5.204 37.5764 5.831 37.5764 6.876L 37.5764 7.602C 37.5764 8.537 37.1034 9.296 36.1684 9.296ZM 39.6125 10L 40.4925 10L 40.4925 6.568C 40.4925 5.809 41.0095 5.226 41.8345 5.226C 42.4835 5.226 43.0885 5.468 43.0885 6.579L 43.0885 10L 43.9685 10L 43.9685 6.568C 43.9685 5.028 43.1435 4.412 41.9665 4.412C 41.1525 4.412 40.7675 4.621 40.4925 5.039L 40.4925 4.5L 39.6125 4.5L 39.6125 10ZM 49.1535 5.325C 48.7245 4.643 48.0425 4.412 47.1515 4.412C 45.8425 4.412 45.1825 5.061 45.1825 5.974C 45.1825 7.173 46.0955 7.547 47.0195 7.613C 48.0865 7.69 48.4385 7.899 48.4385 8.493C 48.4385 8.988 47.9985 9.274 47.2615 9.274C 46.4695 9.274 46.0735 9.109 45.7765 8.713L 45.1275 9.175C 45.5455 9.747 46.1285 10.088 47.2505 10.088C 48.6695 10.088 49.3185 9.428 49.3185 8.471C 49.3185 7.206 48.3725 6.909 47.3385 6.832C 46.6125 6.777 46.0625 6.59 46.0625 5.963C 46.0625 5.479 46.4805 5.226 47.1295 5.226C 47.8885 5.226 48.1965 5.402 48.4935 5.787L 49.1535 5.325Z"/>
<path id="allmob44path46_fill" d="M 1.881 2.41L 0.935 2.41L 0.935 10L 5.511 10L 5.511 9.142L 1.881 9.142L 1.881 2.41ZM 9.54774 8.68C 9.31674 9.087 8.95374 9.296 8.23874 9.296C 7.28174 9.296 6.83074 8.548 6.83074 7.602L 6.83074 7.448L 10.3067 7.448L 10.3067 6.876C 10.3067 5.303 9.58074 4.412 8.12874 4.412C 6.68774 4.412 5.95074 5.314 5.95074 6.876L 5.95074 7.602C 5.95074 9.131 6.83074 10.088 8.30474 10.088C 9.26174 10.088 9.84474 9.835 10.2297 9.164L 9.54774 8.68ZM 8.12874 5.204C 8.96474 5.204 9.37174 5.754 9.41574 6.678L 6.83074 6.678C 6.88574 5.765 7.28174 5.204 8.12874 5.204ZM 15.0178 5.05C 14.7208 4.643 14.2478 4.412 13.5218 4.412C 12.1578 4.412 11.3218 5.303 11.3218 6.876L 11.3218 7.602C 11.3218 9.032 12.0258 10.088 13.5218 10.088C 14.2478 10.088 14.7208 9.901 15.0178 9.516L 15.0178 9.89C 15.0178 10.836 14.5668 11.364 13.6098 11.364C 12.8948 11.364 12.5318 11.155 12.3008 10.748L 11.6188 11.232C 12.0038 11.903 12.5868 12.156 13.5438 12.156C 15.0178 12.156 15.8978 11.419 15.8978 9.89L 15.8978 4.5L 15.0178 4.5L 15.0178 5.05ZM 13.6098 9.296C 12.6748 9.296 12.2018 8.537 12.2018 7.602L 12.2018 6.876C 12.2018 5.831 12.7078 5.204 13.6098 5.204C 14.5118 5.204 15.0178 5.842 15.0178 6.876L 15.0178 7.602C 15.0178 8.548 14.6218 9.296 13.6098 9.296ZM 17.0582 8.394C 17.0582 9.461 17.7512 10.088 19.0272 10.088C 19.7422 10.088 20.1162 9.967 20.4242 9.461L 20.4242 10L 21.3042 10L 21.3042 6.183C 21.3042 4.863 20.6112 4.412 19.2142 4.412C 18.1692 4.412 17.6082 4.687 17.2232 5.325L 17.8832 5.787C 18.1912 5.281 18.5432 5.226 19.2032 5.226C 20.0612 5.226 20.4242 5.402 20.4242 6.183L 20.4242 6.821L 19.1152 6.821C 17.9052 6.821 17.0582 7.206 17.0582 8.394ZM 20.4242 7.888C 20.4242 9.12 19.8412 9.274 19.0272 9.274C 18.3782 9.274 17.9382 9.032 17.9382 8.416C 17.9382 7.866 18.2462 7.569 19.1152 7.569L 20.4242 7.569L 20.4242 7.888ZM 22.7365 8.306C 22.7365 9.45 23.1655 10 24.5515 10L 24.5515 9.186C 23.6495 9.186 23.6165 8.68 23.6165 8.086L 23.6165 2.41L 22.7365 2.41L 22.7365 8.306Z"/>
<path id="allmob44path47_fill" d="M 3.915 6.495C 3.375 6.495 2.955 6.75 2.655 7.26L 1.08 7.26L 1.08 1.65L 6.69 1.65L 6.69 3.285L 2.775 3.285L 2.775 5.475C 3.175 5.075 3.705 4.875 4.365 4.875C 5.235 4.875 5.905 5.2 6.375 5.85C 6.855 6.49 7.095 7.41 7.095 8.61C 7.095 9.75 6.825 10.625 6.285 11.235C 5.755 11.835 4.975 12.135 3.945 12.135C 3.085 12.135 2.365 11.89 1.785 11.4C 1.205 10.91 0.875 10.255 0.795 9.435L 2.505 9.435C 2.695 10.225 3.165 10.62 3.915 10.62C 4.875 10.62 5.355 9.97 5.355 8.67C 5.355 7.22 4.875 6.495 3.915 6.495ZM 11.7519 6.495C 11.2119 6.495 10.7919 6.75 10.4919 7.26L 8.91691 7.26L 8.91691 1.65L 14.5269 1.65L 14.5269 3.285L 10.6119 3.285L 10.6119 5.475C 11.0119 5.075 11.5419 4.875 12.2019 4.875C 13.0719 4.875 13.7419 5.2 14.2119 5.85C 14.6919 6.49 14.9319 7.41 14.9319 8.61C 14.9319 9.75 14.6619 10.625 14.1219 11.235C 13.5919 11.835 12.8119 12.135 11.7819 12.135C 10.9219 12.135 10.2019 11.89 9.62191 11.4C 9.04191 10.91 8.71191 10.255 8.63191 9.435L 10.3419 9.435C 10.5319 10.225 11.0019 10.62 11.7519 10.62C 12.7119 10.62 13.1919 9.97 13.1919 8.67C 13.1919 7.22 12.7119 6.495 11.7519 6.495ZM 17.5338 12L 23.3238 1.65L 24.9138 1.65L 19.1388 12L 17.5338 12ZM 26.5338 9.06L 26.5338 9.84C 26.5338 10.57 26.3438 11.135 25.9638 11.535C 25.5938 11.935 25.0388 12.135 24.2988 12.135C 23.5988 12.135 23.0588 11.935 22.6788 11.535C 22.2988 11.135 22.1088 10.57 22.1088 9.84L 22.1088 9.06C 22.1088 8.33 22.2988 7.77 22.6788 7.38C 23.0688 6.98 23.6088 6.78 24.2988 6.78C 25.0188 6.78 25.5688 6.98 25.9488 7.38C 26.3388 7.77 26.5338 8.33 26.5338 9.06ZM 24.3138 11.01C 24.9438 11.01 25.2588 10.615 25.2588 9.825L 25.2588 9.09C 25.2588 8.31 24.9438 7.92 24.3138 7.92C 23.7038 7.92 23.3988 8.31 23.3988 9.09L 23.3988 9.825C 23.3988 10.615 23.7038 11.01 24.3138 11.01ZM 20.4588 3.795L 20.4588 4.575C 20.4588 5.305 20.2688 5.87 19.8888 6.27C 19.5188 6.67 18.9638 6.87 18.2238 6.87C 17.5138 6.87 16.9688 6.67 16.5888 6.27C 16.2088 5.87 16.0188 5.305 16.0188 4.575L 16.0188 3.795C 16.0188 3.065 16.2088 2.505 16.5888 2.115C 16.9788 1.715 17.5238 1.515 18.2238 1.515C 18.9438 1.515 19.4938 1.715 19.8738 2.115C 20.2638 2.505 20.4588 3.065 20.4588 3.795ZM 18.2238 5.745C 18.8538 5.745 19.1688 5.35 19.1688 4.56L 19.1688 3.825C 19.1688 3.045 18.8538 2.655 18.2238 2.655C 17.6238 2.655 17.3238 3.045 17.3238 3.825L 17.3238 4.56C 17.3238 5.35 17.6238 5.745 18.2238 5.745Z"/>
<path id="allmob44path48_fill" d="M 3 10.5L 6.93 10.5L 6.93 12L 0.675 12L 0.675 10.77L 4.23 6.6C 4.93 5.8 5.28 5.075 5.28 4.425C 5.28 3.985 5.14 3.64 4.86 3.39C 4.59 3.13 4.24 3 3.81 3C 3.38 3 3.03 3.13 2.76 3.39C 2.5 3.64 2.36 3.985 2.34 4.425L 0.75 4.425C 0.75 3.565 1.05 2.865 1.65 2.325C 2.25 1.785 2.99 1.515 3.87 1.515C 4.78 1.515 5.525 1.79 6.105 2.34C 6.705 2.9 7.005 3.605 7.005 4.455C 7.005 5.085 6.82 5.68 6.45 6.24C 6.32 6.44 6.165 6.66 5.985 6.9L 5.445 7.575L 3 10.5ZM 11.4069 7.41L 10.6869 7.41L 10.6869 5.91L 11.4069 5.91C 11.9469 5.91 12.3569 5.775 12.6369 5.505C 12.9269 5.235 13.0719 4.855 13.0719 4.365C 13.0719 3.975 12.9319 3.65 12.6519 3.39C 12.3719 3.13 12.0219 3 11.6019 3C 11.1919 3 10.8519 3.12 10.5819 3.36C 10.3219 3.6 10.1719 3.905 10.1319 4.275L 8.54191 4.275C 8.55191 3.465 8.86191 2.805 9.47191 2.295C 10.0819 1.775 10.8119 1.515 11.6619 1.515C 12.5719 1.515 13.3169 1.785 13.8969 2.325C 14.4969 2.865 14.7969 3.53 14.7969 4.32C 14.7969 4.84 14.6669 5.3 14.4069 5.7C 14.1469 6.1 13.7869 6.41 13.3269 6.63C 14.4069 7.11 14.9469 7.945 14.9469 9.135C 14.9469 9.985 14.6619 10.7 14.0919 11.28C 13.5219 11.85 12.7519 12.135 11.7819 12.135C 10.7819 12.135 9.98191 11.88 9.38191 11.37C 8.78191 10.85 8.45691 10.16 8.40691 9.3L 9.99691 9.3C 10.0569 9.71 10.2319 10.035 10.5219 10.275C 10.8119 10.505 11.2069 10.62 11.7069 10.62C 12.1569 10.62 12.5219 10.48 12.8019 10.2C 13.0819 9.91 13.2219 9.54 13.2219 9.09C 13.2219 8.55 13.0669 8.135 12.7569 7.845C 12.4469 7.555 11.9969 7.41 11.4069 7.41ZM 17.5338 12L 23.3238 1.65L 24.9138 1.65L 19.1388 12L 17.5338 12ZM 26.5338 9.06L 26.5338 9.84C 26.5338 10.57 26.3438 11.135 25.9638 11.535C 25.5938 11.935 25.0388 12.135 24.2988 12.135C 23.5988 12.135 23.0588 11.935 22.6788 11.535C 22.2988 11.135 22.1088 10.57 22.1088 9.84L 22.1088 9.06C 22.1088 8.33 22.2988 7.77 22.6788 7.38C 23.0688 6.98 23.6088 6.78 24.2988 6.78C 25.0188 6.78 25.5688 6.98 25.9488 7.38C 26.3388 7.77 26.5338 8.33 26.5338 9.06ZM 24.3138 11.01C 24.9438 11.01 25.2588 10.615 25.2588 9.825L 25.2588 9.09C 25.2588 8.31 24.9438 7.92 24.3138 7.92C 23.7038 7.92 23.3988 8.31 23.3988 9.09L 23.3988 9.825C 23.3988 10.615 23.7038 11.01 24.3138 11.01ZM 20.4588 3.795L 20.4588 4.575C 20.4588 5.305 20.2688 5.87 19.8888 6.27C 19.5188 6.67 18.9638 6.87 18.2238 6.87C 17.5138 6.87 16.9688 6.67 16.5888 6.27C 16.2088 5.87 16.0188 5.305 16.0188 4.575L 16.0188 3.795C 16.0188 3.065 16.2088 2.505 16.5888 2.115C 16.9788 1.715 17.5238 1.515 18.2238 1.515C 18.9438 1.515 19.4938 1.715 19.8738 2.115C 20.2638 2.505 20.4588 3.065 20.4588 3.795ZM 18.2238 5.745C 18.8538 5.745 19.1688 5.35 19.1688 4.56L 19.1688 3.825C 19.1688 3.045 18.8538 2.655 18.2238 2.655C 17.6238 2.655 17.3238 3.045 17.3238 3.825L 17.3238 4.56C 17.3238 5.35 17.6238 5.745 18.2238 5.745Z"/>
<path id="allmob44path49_fill" d="M 2.43 3.165L 2.43 4.86L 0.93 4.86L 0.93 1.65L 7.02 1.65L 7.02 2.985L 3.915 12L 2.1 12L 5.22 3.165L 2.43 3.165ZM 9.69691 12L 15.4869 1.65L 17.0769 1.65L 11.3019 12L 9.69691 12ZM 18.6969 9.06L 18.6969 9.84C 18.6969 10.57 18.5069 11.135 18.1269 11.535C 17.7569 11.935 17.2019 12.135 16.4619 12.135C 15.7619 12.135 15.2219 11.935 14.8419 11.535C 14.4619 11.135 14.2719 10.57 14.2719 9.84L 14.2719 9.06C 14.2719 8.33 14.4619 7.77 14.8419 7.38C 15.2319 6.98 15.7719 6.78 16.4619 6.78C 17.1819 6.78 17.7319 6.98 18.1119 7.38C 18.5019 7.77 18.6969 8.33 18.6969 9.06ZM 16.4769 11.01C 17.1069 11.01 17.4219 10.615 17.4219 9.825L 17.4219 9.09C 17.4219 8.31 17.1069 7.92 16.4769 7.92C 15.8669 7.92 15.5619 8.31 15.5619 9.09L 15.5619 9.825C 15.5619 10.615 15.8669 11.01 16.4769 11.01ZM 12.6219 3.795L 12.6219 4.575C 12.6219 5.305 12.4319 5.87 12.0519 6.27C 11.6819 6.67 11.1269 6.87 10.3869 6.87C 9.67691 6.87 9.13191 6.67 8.75191 6.27C 8.37191 5.87 8.18191 5.305 8.18191 4.575L 8.18191 3.795C 8.18191 3.065 8.37191 2.505 8.75191 2.115C 9.14191 1.715 9.68691 1.515 10.3869 1.515C 11.1069 1.515 11.6569 1.715 12.0369 2.115C 12.4269 2.505 12.6219 3.065 12.6219 3.795ZM 10.3869 5.745C 11.0169 5.745 11.3319 5.35 11.3319 4.56L 11.3319 3.825C 11.3319 3.045 11.0169 2.655 10.3869 2.655C 9.78691 2.655 9.48691 3.045 9.48691 3.825L 9.48691 4.56C 9.48691 5.35 9.78691 5.745 10.3869 5.745Z"/>
<path id="allmob44path50_stroke" d="M 0 7.5L 34 7.5L 34 6.5L 0 6.5L 0 7.5ZM 34 7.5L 58 7.5L 58 6.5L 34 6.5L 34 7.5ZM 23.7133 0.409616L 33.7133 7.40962L 34.2867 6.59038L 24.2867 -0.409616L 23.7133 0.409616ZM 33.6877 6.60957L 23.6877 14.6096L 24.3123 15.3904L 34.3123 7.39043L 33.6877 6.60957Z"/>
</defs>
</svg>
