<svg width="1040" height="377" viewBox="0 0 1040 377" version="1.1" xmlns="http://www.w3.org/2000/svg" xmlns:xlink="http://www.w3.org/1999/xlink">
<title>Page 1</title>
<desc>Created using Figma</desc>
<g id="Canvas" transform="translate(-1258 -4222)">
<g id="Vector 4">
<use xlink:href="#erd11path0_stroke" transform="translate(1258 4545)" fill="#D0D3E6"/>
</g>
<g id="pic_toke_2">
<g id="Vector">
<use xlink:href="#erd11path1_fill" transform="translate(1918 4327.72)" fill="#D0D3E6"/>
</g>
<g id="Group">
<g id="Vector">
<use xlink:href="#erd11path2_fill" transform="translate(2034.98 4501.28)" fill="#F0F0F9"/>
<use xlink:href="#erd11path3_stroke" transform="translate(2034.98 4501.28)" fill="#67679A"/>
</g>
<g id="Vector">
<use xlink:href="#erd11path4_fill" transform="translate(2062.7 4441.93)" fill="#DAD9EE"/>
<use xlink:href="#erd11path5_stroke" transform="translate(2062.7 4441.93)" fill="#67679A"/>
</g>
<g id="Vector">
<use xlink:href="#erd11path6_fill" transform="translate(2048.65 4324)" fill="#C2C1E2"/>
<use xlink:href="#erd11path7_stroke" transform="translate(2048.65 4324)" fill="#67679A"/>
</g>
<g id="Vector">
<use xlink:href="#erd11path8_fill" transform="translate(1922.97 4322)" fill="#9999CC"/>
<use xlink:href="#erd11path9_stroke" transform="translate(1922.97 4322)" fill="#67679A"/>
</g>
</g>
</g>
<g id="Vector 3">
<use xlink:href="#erd11path10_stroke" transform="translate(1258 4253)" fill="#D0D3E6"/>
</g>
<g id="Vector 7">
<use xlink:href="#erd11path11_stroke" transform="translate(1769 4429)" fill="#D0D3E6"/>
</g>
<g id="Vector 5">
<use xlink:href="#erd11path12_stroke" transform="translate(1258 4327)" fill="#D0D3E6"/>
</g>
<g id="Vector 6">
<use xlink:href="#erd11path13_stroke" transform="translate(1258 4450)" fill="#D0D3E6"/>
</g>
<g id="Vector 7.1">
<use xlink:href="#erd11path14_stroke" transform="translate(1717 4316)" fill="#D0D3E6"/>
</g>
<g id="Vector 8">
<use xlink:href="#erd11path15_stroke" transform="translate(2042 4279)" fill="#D0D3E6"/>
</g>
<g id="Vector 9">
<use xlink:href="#erd11path16_stroke" transform="translate(2142 4368)" fill="#D0D3E6"/>
</g>
<g id="Vector 10">
<use xlink:href="#erd11path17_stroke" transform="translate(2152 4475)" fill="#D0D3E6"/>
</g>
<g id="Vector 11">
<use xlink:href="#erd11path18_stroke" transform="translate(2066 4553)" fill="#D0D3E6"/>
</g>
<g id="4%">
<use xlink:href="#erd11path19_fill" transform="translate(1258 4220)" fill="#67679A"/>
</g>
<g id="Bounty">
<use xlink:href="#erd11path20_fill" transform="translate(1258 4258)" fill="#3C3C3B"/>
</g>
<g id="Investments">
<use xlink:href="#erd11path21_fill" transform="translate(1755 4321)" fill="#3C3C3B"/>
</g>
<g id="Development">
<use xlink:href="#erd11path22_fill" transform="translate(2199 4284)" fill="#3C3C3B"/>
</g>
<g id="Marketing">
<use xlink:href="#erd11path23_fill" transform="translate(2222 4373)" fill="#3C3C3B"/>
</g>
<g id="Operations">
<use xlink:href="#erd11path24_fill" transform="translate(2216 4480)" fill="#3C3C3B"/>
</g>
<g id="Legal">
<use xlink:href="#erd11path25_fill" transform="translate(2257 4571)" fill="#3C3C3B"/>
</g>
<g id="Advisors, team mem- bers, partners and early contributors">
<use xlink:href="#erd11path26_fill" transform="translate(1258 4332)" fill="#3C3C3B"/>
</g>
<g id="Early miners reward">
<use xlink:href="#erd11path27_fill" transform="translate(1258 4455)" fill="#3C3C3B"/>
</g>
<g id="Moeco company">
<use xlink:href="#erd11path28_fill" transform="translate(1258 4550)" fill="#3C3C3B"/>
</g>
<g id="25%">
<use xlink:href="#erd11path29_fill" transform="translate(1806 4283)" fill="#67679A"/>
</g>
<g id="Vector 7.2">
<use xlink:href="#erd11path14_stroke" transform="translate(1717 4552)" fill="#D0D3E6"/>
</g>
<g id="Sold">
<use xlink:href="#erd11path30_fill" transform="translate(1815 4557)" fill="#3C3C3B"/>
</g>
<g id="25%">
<use xlink:href="#erd11path29_fill" transform="translate(1806 4519)" fill="#67679A"/>
</g>
<g id="55%">
<use xlink:href="#erd11path31_fill" transform="translate(2255 4246)" fill="#67679A"/>
</g>
<g id="23%">
<use xlink:href="#erd11path32_fill" transform="translate(2255 4335)" fill="#67679A"/>
</g>
<g id="15%">
<use xlink:href="#erd11path33_fill" transform="translate(2255 4442)" fill="#67679A"/>
</g>
<g id="7%">
<use xlink:href="#erd11path34_fill" transform="translate(2267 4533)" fill="#67679A"/>
</g>
<g id="11%">
<use xlink:href="#erd11path35_fill" transform="translate(1258 4294)" fill="#67679A"/>
</g>
<g id="15%">
<use xlink:href="#erd11path33_fill" transform="translate(1258 4417)" fill="#67679A"/>
</g>
<g id="20%">
<use xlink:href="#erd11path36_fill" transform="translate(1258 4512)" fill="#67679A"/>
</g>
<g id="pic_toke_1">
<g id="Vector">
<use xlink:href="#erd11path37_fill" transform="translate(1442 4289.85)" fill="#D0D3E6"/>
</g>
<g id="Group">
<g id="Vector">
<use xlink:href="#erd11path38_fill" transform="translate(1458.84 4471.7)" fill="#C2C1E2"/>
<use xlink:href="#erd11path39_stroke" transform="translate(1458.84 4471.7)" fill="#67679A"/>
</g>
<g id="Vector">
<use xlink:href="#erd11path40_fill" transform="translate(1448.85 4350.14)" fill="#DAD9EE"/>
<use xlink:href="#erd11path41_stroke" transform="translate(1448.85 4350.14)" fill="#67679A"/>
</g>
<g id="Vector">
<use xlink:href="#erd11path42_fill" transform="translate(1551.06 4283)" fill="#F8F8FC"/>
<use xlink:href="#erd11path43_stroke" transform="translate(1551.06 4283)" fill="#67679A"/>
</g>
<g id="Vector">
<use xlink:href="#erd11path44_fill" transform="translate(1601.88 4283)" fill="#9999CC"/>
<use xlink:href="#erd11path45_stroke" transform="translate(1601.88 4283)" fill="#67679A"/>
</g>
<g id="Vector">
<use xlink:href="#erd11path46_fill" transform="translate(1475.29 4291.71)" fill="#F0F0F9"/>
<use xlink:href="#erd11path47_stroke" transform="translate(1475.29 4291.71)" fill="#67679A"/>
</g>
<g id="Group">
<g id="Vector">
<use xlink:href="#erd11path48_fill" transform="translate(1601.88 4436.07)" fill="#8E8EC1"/>
<use xlink:href="#erd11path49_stroke" transform="translate(1601.88 4436.07)" fill="#67679A"/>
</g>
</g>
</g>
</g>
</g>
<defs>
<path id="erd11path0_stroke" d="M 0 0.5L 209 0.5L 209 -0.5L 0 -0.5L 0 0.5Z"/>
<path id="erd11path1_fill" d="M 132.946 2.00042C 126.16 0.762063 119.183 -1.8169e-07 112.015 -1.8169e-07C 97.0096 -1.8169e-07 82.6732 2.95299 69.5793 8.28744C 32.4958 23.4334 5.35225 57.8215 0.764608 98.973C 0.286728 103.164 0 107.356 0 111.642C 0 166.13 39.1861 211.568 91.0839 221.284C 97.8698 222.522 104.847 223.285 112.015 223.285C 127.02 223.285 141.357 220.332 154.451 214.997C 191.534 199.851 218.678 165.463 223.265 124.312C 223.743 120.12 224.03 115.929 224.03 111.642C 224.03 57.1547 184.748 11.7167 132.946 2.00042ZM 139.732 179.275C 131.13 182.8 121.764 184.705 111.919 184.705C 107.236 184.705 102.649 184.229 98.2521 183.371C 64.3226 176.989 38.6127 147.269 38.6127 111.547C 38.6127 108.785 38.8038 106.022 39.0906 103.26C 42.149 76.3016 59.9261 53.8207 84.2024 43.9139C 92.8043 40.3893 102.171 38.4842 112.015 38.4842C 116.698 38.4842 121.286 38.9605 125.682 39.8178C 159.612 46.2001 185.322 75.9206 185.322 111.642C 185.322 114.405 185.131 117.167 184.844 119.93C 181.785 146.888 164.008 169.369 139.732 179.275Z"/>
<path id="erd11path2_fill" d="M 1.45837e-06 5.42971L 1.45837e-06 44.0092C 15.0054 44.0092 29.3418 41.0562 42.4357 35.7217L 27.8126 -5.81408e-06C 19.2108 3.52454 9.84433 5.42971 1.45837e-06 5.42971Z"/>
<path id="erd11path3_stroke" d="M 1.45837e-06 5.42971L 1.45837e-06 4.28471C -0.632365 4.28471 -1.145 4.79734 -1.145 5.42971L 1.45837e-06 5.42971ZM 1.45837e-06 44.0092L -1.145 44.0092C -1.145 44.6415 -0.632365 45.1542 1.45837e-06 45.1542L 1.45837e-06 44.0092ZM 42.4357 35.7217L 42.8677 36.7821C 43.1493 36.6674 43.3736 36.4454 43.4914 36.1652C 43.6091 35.8849 43.6105 35.5693 43.4954 35.2879L 42.4357 35.7217ZM 27.8126 -5.81408e-06L 28.8723 -0.433787C 28.7572 -0.714883 28.5351 -0.938741 28.255 -1.05609C 27.9748 -1.17345 27.6595 -1.17468 27.3785 -1.05951L 27.8126 -5.81408e-06ZM -1.145 5.42971L -1.145 44.0092L 1.145 44.0092L 1.145 5.42971L -1.145 5.42971ZM 1.45837e-06 45.1542C 15.1567 45.1542 29.6396 42.1712 42.8677 36.7821L 42.0037 34.6613C 29.0441 39.9411 14.8542 42.8642 1.45837e-06 42.8642L 1.45837e-06 45.1542ZM 43.4954 35.2879L 28.8723 -0.433787L 26.753 0.433775L 41.3761 36.1555L 43.4954 35.2879ZM 27.3785 -1.05951C 18.9139 2.40878 9.6949 4.28471 1.45837e-06 4.28471L 1.45837e-06 6.57471C 9.99375 6.57471 19.5076 4.64029 28.2467 1.0595L 27.3785 -1.05951Z"/>
<path id="erd11path4_fill" d="M 83.5334 4.38186L 45.1119 -1.45352e-06C 42.0534 26.958 24.2763 49.4388 -5.83349e-06 59.3457L 14.6231 95.0674C 51.8022 79.9214 78.8502 45.5333 83.5334 4.38186Z"/>
<path id="erd11path5_stroke" d="M 83.5334 4.38186L 84.6711 4.51133C 84.7425 3.88313 84.2913 3.31588 83.6631 3.24424L 83.5334 4.38186ZM 45.1119 -1.45352e-06L 45.2416 -1.13763C 44.9398 -1.17205 44.6366 -1.08511 44.3989 -0.895957C 44.1612 -0.7068 44.0084 -0.430929 43.9742 -0.129076L 45.1119 -1.45352e-06ZM -5.83349e-06 59.3457L -0.432628 58.2855C -0.713991 58.4004 -0.938169 58.6223 -1.05578 58.9025C -1.17339 59.1827 -1.17478 59.4982 -1.05966 59.7794L -5.83349e-06 59.3457ZM 14.6231 95.0674L 13.5635 95.5012C 13.8028 96.0857 14.4702 96.3661 15.0551 96.1278L 14.6231 95.0674ZM 83.6631 3.24424L 45.2416 -1.13763L 44.9821 1.13762L 83.4036 5.51949L 83.6631 3.24424ZM 43.9742 -0.129076C 40.9643 26.4005 23.4679 48.5321 -0.432628 58.2855L 0.432616 60.4058C 25.0847 50.3456 43.1425 27.5154 46.2496 0.129073L 43.9742 -0.129076ZM -1.05966 59.7794L 13.5635 95.5012L 15.6828 94.6336L 1.05964 58.9119L -1.05966 59.7794ZM 15.0551 96.1278C 52.6123 80.8277 79.9393 46.0889 84.6711 4.51133L 82.3957 4.25239C 77.761 44.9776 50.992 79.015 14.1911 94.007L 15.0551 96.1278Z"/>
<path id="erd11path6_fill" d="M 59.6394 109.642C 59.6394 112.404 59.4483 115.167 59.1615 117.929L 97.5831 122.311C 98.061 118.12 98.3477 113.928 98.3477 109.642C 98.3477 55.1543 59.1615 9.71631 7.26378 -4.54225e-08L -2.91675e-06 37.8174C 33.9295 44.1997 59.6394 73.9201 59.6394 109.642Z"/>
<path id="erd11path7_stroke" d="M 59.1615 117.929L 58.0226 117.811C 57.9578 118.436 58.408 118.996 59.0318 119.067L 59.1615 117.929ZM 97.5831 122.311L 97.4533 123.449C 97.7551 123.483 98.0581 123.396 98.2958 123.207C 98.5334 123.018 98.6863 122.743 98.7207 122.441L 97.5831 122.311ZM 7.26378 -4.54225e-08L 7.47448 -1.12545C 6.85497 -1.24143 6.25822 -0.834936 6.13933 -0.215978L 7.26378 -4.54225e-08ZM -2.91675e-06 37.8174L -1.12445 37.6014C -1.18187 37.9004 -1.11787 38.2099 -0.946593 38.4616C -0.775313 38.7133 -0.510856 38.8864 -0.21167 38.9427L -2.91675e-06 37.8174ZM 58.4944 109.642C 58.4944 112.353 58.3068 115.073 58.0226 117.811L 60.3004 118.047C 60.5897 115.26 60.7844 112.456 60.7844 109.642L 58.4944 109.642ZM 59.0318 119.067L 97.4533 123.449L 97.7128 121.174L 59.2913 116.792L 59.0318 119.067ZM 98.7207 122.441C 99.2025 118.215 99.4927 113.98 99.4927 109.642L 97.2027 109.642C 97.2027 113.877 96.9194 118.024 96.4454 122.181L 98.7207 122.441ZM 99.4927 109.642C 99.4927 54.5917 59.9026 8.69015 7.47448 -1.12545L 7.05307 1.12545C 58.4205 10.7425 97.2027 55.7169 97.2027 109.642L 99.4927 109.642ZM 6.13933 -0.215978L -1.12445 37.6014L 1.12444 38.0334L 8.38822 0.215978L 6.13933 -0.215978ZM -0.21167 38.9427C 33.1893 45.2255 58.4944 74.4838 58.4944 109.642L 60.7844 109.642C 60.7844 73.3565 34.6696 43.1738 0.211664 36.6921L -0.21167 38.9427Z"/>
<path id="erd11path8_fill" d="M 112.015 4.54225e-08C 97.0096 4.54225e-08 82.6732 2.95299 69.5793 8.28744C 32.4958 23.4334 5.35225 57.8215 0.764608 98.973C 0.286728 103.164 -1.82297e-07 107.356 -1.82297e-07 111.642C -1.82297e-07 166.13 39.1861 211.568 91.0839 221.284C 97.8698 222.522 104.847 223.285 112.015 223.285L 112.015 184.705C 107.332 184.705 102.744 184.229 98.3477 183.371C 64.4182 176.989 38.7083 147.269 38.7083 111.547C 38.7083 108.785 38.8994 106.022 39.1861 103.26C 42.2446 76.3016 60.0217 53.8207 84.298 43.9139C 92.8998 40.3893 102.266 38.4842 112.111 38.4842C 116.794 38.4842 121.381 38.9605 125.778 39.8178L 133.042 1.90516C 126.16 0.666805 119.183 4.54225e-08 112.015 4.54225e-08Z"/>
<path id="erd11path9_stroke" d="M 69.5793 8.28744L 69.1473 7.22706L 69.1464 7.22744L 69.5793 8.28744ZM 0.764608 98.973L 1.90224 99.1027L 1.90256 99.0998L 0.764608 98.973ZM 91.0839 221.284L 90.8732 222.41L 90.8783 222.411L 91.0839 221.284ZM 112.015 223.285L 112.015 224.43C 112.647 224.43 113.16 223.917 113.16 223.285L 112.015 223.285ZM 112.015 184.705L 113.16 184.705C 113.16 184.073 112.647 183.56 112.015 183.56L 112.015 184.705ZM 98.3477 183.371L 98.5668 182.248L 98.5593 182.246L 98.3477 183.371ZM 39.1861 103.26L 38.0484 103.13L 38.0473 103.141L 39.1861 103.26ZM 84.298 43.9139L 84.7306 44.974L 84.7321 44.9734L 84.298 43.9139ZM 125.778 39.8178L 125.559 40.9416C 125.858 40.9999 126.167 40.9368 126.419 40.7664C 126.671 40.5959 126.845 40.3321 126.903 40.0333L 125.778 39.8178ZM 133.042 1.90516L 134.166 2.12061C 134.224 1.82017 134.159 1.50919 133.986 1.25701C 133.812 1.00484 133.546 0.832438 133.245 0.778259L 133.042 1.90516ZM 112.015 -1.145C 96.8583 -1.145 82.3754 1.83793 69.1473 7.22706L 70.0113 9.34782C 82.971 4.06806 97.1609 1.145 112.015 1.145L 112.015 -1.145ZM 69.1464 7.22744C 31.687 22.527 4.2622 57.2651 -0.373343 98.8461L 1.90256 99.0998C 6.44231 58.378 33.3046 24.3399 70.0122 9.34743L 69.1464 7.22744ZM -0.373022 98.8433C -0.85481 103.069 -1.145 107.304 -1.145 111.642L 1.145 111.642C 1.145 107.407 1.42827 103.26 1.90224 99.1027L -0.373022 98.8433ZM -1.145 111.642C -1.145 166.692 38.4451 212.594 90.8732 222.41L 91.2946 220.159C 39.9272 210.542 1.145 165.567 1.145 111.642L -1.145 111.642ZM 90.8783 222.411C 97.7188 223.659 104.766 224.43 112.015 224.43L 112.015 222.14C 104.928 222.14 98.0208 221.386 91.2895 220.158L 90.8783 222.411ZM 113.16 223.285L 113.16 184.705L 110.87 184.705L 110.87 223.285L 113.16 223.285ZM 112.015 183.56C 107.409 183.56 102.895 183.092 98.5668 182.248L 98.1285 184.495C 102.593 185.366 107.254 185.85 112.015 185.85L 112.015 183.56ZM 98.5593 182.246C 65.1583 175.963 39.8533 146.705 39.8533 111.547L 37.5633 111.547C 37.5633 147.832 63.6781 178.015 98.136 184.497L 98.5593 182.246ZM 39.8533 111.547C 39.8533 108.836 40.0409 106.115 40.325 103.378L 38.0473 103.141C 37.758 105.929 37.5633 108.733 37.5633 111.547L 39.8533 111.547ZM 40.3238 103.389C 43.3337 76.859 60.8301 54.7275 84.7306 44.974L 83.8654 42.8538C 59.2133 52.9139 41.1555 75.7441 38.0484 103.13L 40.3238 103.389ZM 84.7321 44.9734C 93.1967 41.5051 102.416 39.6292 112.111 39.6292L 112.111 37.3392C 102.117 37.3392 92.603 39.2736 83.8639 42.8544L 84.7321 44.9734ZM 112.111 39.6292C 116.716 39.6292 121.231 40.0976 125.559 40.9416L 125.997 38.694C 121.532 37.8233 116.871 37.3392 112.111 37.3392L 112.111 39.6292ZM 126.903 40.0333L 134.166 2.12061L 131.917 1.6897L 124.653 39.6023L 126.903 40.0333ZM 133.245 0.778259C 126.3 -0.471432 119.255 -1.145 112.015 -1.145L 112.015 1.145C 119.111 1.145 126.02 1.80504 132.839 3.03206L 133.245 0.778259Z"/>
<path id="erd11path10_stroke" d="M 266.553 0L 266.856 -0.397471L 266.722 -0.5L 266.553 -0.5L 266.553 0ZM 0 0.5L 266.553 0.5L 266.553 -0.5L 0 -0.5L 0 0.5ZM 266.249 0.397471L 297.697 24.3975L 298.303 23.6025L 266.856 -0.397471L 266.249 0.397471Z"/>
<path id="erd11path11_stroke" d="M 0 10.2561L 77.5289 10.2561L 77.5289 9.2561L 0 9.2561L 0 10.2561ZM 77.5289 10.2561L 139 10.2561L 139 9.2561L 77.5289 9.2561L 77.5289 10.2561ZM 63.72 0.40542L 77.2362 10.1615L 77.8215 9.35068L 64.3053 -0.40542L 63.72 0.40542ZM 77.2269 9.35761L 63.7106 19.6015L 64.3146 20.3985L 77.8309 10.1546L 77.2269 9.35761Z"/>
<path id="erd11path12_stroke" d="M 0 0.5L 212 0.5L 212 -0.5L 0 -0.5L 0 0.5Z"/>
<path id="erd11path13_stroke" d="M 0 0.5L 171.5 0.5L 171.5 -0.5L 0 -0.5L 0 0.5Z"/>
<path id="erd11path14_stroke" d="M 0 0.5L 131.5 0.5L 131.5 -0.5L 0 -0.5L 0 0.5Z"/>
<path id="erd11path15_stroke" d="M 38 0L 38 -0.5L 37.8175 -0.5L 37.6779 -0.382456L 38 0ZM 0.322068 32.3825L 38.3221 0.382456L 37.6779 -0.382456L -0.322068 31.6175L 0.322068 32.3825ZM 38 0.5L 256 0.5L 256 -0.5L 38 -0.5L 38 0.5Z"/>
<path id="erd11path16_stroke" d="M 0 0.5L 156 0.5L 156 -0.5L 0 -0.5L 0 0.5Z"/>
<path id="erd11path17_stroke" d="M 0 0.5L 146 0.5L 146 -0.5L 0 -0.5L 0 0.5Z"/>
<path id="erd11path18_stroke" d="M 13 13L 12.6464 13.3536L 12.7929 13.5L 13 13.5L 13 13ZM -0.353553 0.353553L 12.6464 13.3536L 13.3536 12.6464L 0.353553 -0.353553L -0.353553 0.353553ZM 13 13.5L 232 13.5L 232 12.5L 13 12.5L 13 13.5Z"/>
<path id="erd11path19_fill" d="M 0.336 14.536L 6.072 2.44L 9.024 2.44L 3.72 14.08L 7.608 14.08L 7.608 9.568L 10.392 9.568L 10.392 14.08L 11.904 14.08L 11.904 16.504L 10.392 16.504L 10.392 19L 7.608 19L 7.608 16.504L 0.336 16.504L 0.336 14.536ZM 15.5151 19L 24.7791 2.44L 27.3231 2.44L 18.0831 19L 15.5151 19ZM 29.9151 14.296L 29.9151 15.544C 29.9151 16.712 29.6111 17.616 29.0031 18.256C 28.4111 18.896 27.5231 19.216 26.3391 19.216C 25.2191 19.216 24.3551 18.896 23.7471 18.256C 23.1391 17.616 22.8351 16.712 22.8351 15.544L 22.8351 14.296C 22.8351 13.128 23.1391 12.232 23.7471 11.608C 24.3711 10.968 25.2351 10.648 26.3391 10.648C 27.4911 10.648 28.3711 10.968 28.9791 11.608C 29.6031 12.232 29.9151 13.128 29.9151 14.296ZM 26.3631 17.416C 27.3711 17.416 27.8751 16.784 27.8751 15.52L 27.8751 14.344C 27.8751 13.096 27.3711 12.472 26.3631 12.472C 25.3871 12.472 24.8991 13.096 24.8991 14.344L 24.8991 15.52C 24.8991 16.784 25.3871 17.416 26.3631 17.416ZM 20.1951 5.872L 20.1951 7.12C 20.1951 8.288 19.8911 9.192 19.2831 9.832C 18.6911 10.472 17.8031 10.792 16.6191 10.792C 15.4831 10.792 14.6111 10.472 14.0031 9.832C 13.3951 9.192 13.0911 8.288 13.0911 7.12L 13.0911 5.872C 13.0911 4.704 13.3951 3.808 14.0031 3.184C 14.6271 2.544 15.4991 2.224 16.6191 2.224C 17.7711 2.224 18.6511 2.544 19.2591 3.184C 19.8831 3.808 20.1951 4.704 20.1951 5.872ZM 16.6191 8.992C 17.6271 8.992 18.1311 8.36 18.1311 7.096L 18.1311 5.92C 18.1311 4.672 17.6271 4.048 16.6191 4.048C 15.6591 4.048 15.1791 4.672 15.1791 5.92L 15.1791 7.096C 15.1791 8.36 15.6591 8.992 16.6191 8.992Z"/>
<path id="erd11path20_fill" d="M 1.53 4.58L 1.53 17L 5.724 17C 8.91 17 10.008 15.236 10.008 13.436C 10.008 11.852 9.126 10.808 7.56 10.52C 8.766 10.232 9.612 9.044 9.612 7.748C 9.612 5.678 8.226 4.58 5.328 4.58L 1.53 4.58ZM 3.078 11.258L 5.436 11.258C 7.488 11.258 8.46 11.942 8.46 13.436C 8.46 14.786 7.596 15.596 5.724 15.596L 3.078 15.596L 3.078 11.258ZM 3.078 5.966L 5.328 5.966C 7.506 5.966 8.064 6.65 8.064 7.748C 8.064 8.972 7.344 9.854 5.598 9.854L 3.078 9.854L 3.078 5.966ZM 18.9307 11.888C 18.9307 9.314 17.5627 7.856 15.1867 7.856C 12.8287 7.856 11.4427 9.332 11.4427 11.888L 11.4427 13.076C 11.4427 15.56 12.7927 17.144 15.1867 17.144C 17.7787 17.144 18.9307 15.416 18.9307 13.076L 18.9307 11.888ZM 15.1867 15.848C 13.5307 15.848 12.8827 14.624 12.8827 13.076L 12.8827 11.888C 12.8827 10.196 13.7107 9.152 15.1867 9.152C 16.6627 9.152 17.4907 10.178 17.4907 11.888L 17.4907 13.076C 17.4907 14.606 16.7167 15.848 15.1867 15.848ZM 27.9503 8L 26.5103 8L 26.5103 13.616C 26.5103 14.858 25.6643 15.812 24.3143 15.812C 23.2523 15.812 22.2623 15.416 22.2623 13.598L 22.2623 8L 20.8223 8L 20.8223 13.616C 20.8223 16.136 22.1723 17.144 24.0983 17.144C 25.4303 17.144 26.0603 16.802 26.5103 16.118L 26.5103 17L 27.9503 17L 27.9503 8ZM 30.297 17L 31.737 17L 31.737 11.384C 31.737 10.142 32.583 9.188 33.933 9.188C 34.995 9.188 35.985 9.584 35.985 11.402L 35.985 17L 37.425 17L 37.425 11.384C 37.425 8.864 36.075 7.856 34.149 7.856C 32.817 7.856 32.187 8.198 31.737 8.882L 31.737 8L 30.297 8L 30.297 17ZM 38.9796 9.296L 40.1316 9.296L 40.1316 14.228C 40.1316 16.1 40.7436 17 42.8676 17L 43.6416 17L 43.6416 15.632L 42.9216 15.632C 41.7156 15.632 41.5716 15.11 41.5716 13.868L 41.5716 9.296L 43.6416 9.296L 43.6416 8L 41.5716 8L 41.5716 6.02L 40.1316 6.02L 40.1316 8L 38.9796 8L 38.9796 9.296ZM 47.8613 17.216C 47.3213 18.818 46.7633 19.016 45.5753 19.016L 45.5753 20.42C 48.0953 20.42 48.5813 19.448 49.3193 17.288L 52.4873 8L 50.9573 8L 48.5993 14.984L 45.9173 8L 44.3693 8L 47.8973 17.09L 47.8613 17.216Z"/>
<path id="erd11path21_fill" d="M 3.258 4.58L 1.71 4.58L 1.71 17L 3.258 17L 3.258 4.58ZM 6.14461 17L 7.58461 17L 7.58461 11.384C 7.58461 10.142 8.43061 9.188 9.78061 9.188C 10.8426 9.188 11.8326 9.584 11.8326 11.402L 11.8326 17L 13.2726 17L 13.2726 11.384C 13.2726 8.864 11.9226 7.856 9.99661 7.856C 8.66461 7.856 8.03461 8.198 7.58461 8.882L 7.58461 8L 6.14461 8L 6.14461 17ZM 21.7212 8L 18.9852 15.164L 16.2492 8L 14.6292 8L 18.3012 17L 19.7412 17L 23.3412 8L 21.7212 8ZM 30.1255 14.84C 29.7475 15.506 29.1535 15.848 27.9835 15.848C 26.4175 15.848 25.6795 14.624 25.6795 13.076L 25.6795 12.824L 31.3675 12.824L 31.3675 11.888C 31.3675 9.314 30.1795 7.856 27.8035 7.856C 25.4455 7.856 24.2395 9.332 24.2395 11.888L 24.2395 13.076C 24.2395 15.578 25.6795 17.144 28.0915 17.144C 29.6575 17.144 30.6115 16.73 31.2415 15.632L 30.1255 14.84ZM 27.8035 9.152C 29.1715 9.152 29.8375 10.052 29.9095 11.564L 25.6795 11.564C 25.7695 10.07 26.4175 9.152 27.8035 9.152ZM 39.6166 9.35C 38.9146 8.234 37.7986 7.856 36.3406 7.856C 34.1986 7.856 33.1186 8.918 33.1186 10.412C 33.1186 12.374 34.6126 12.986 36.1246 13.094C 37.8706 13.22 38.4466 13.562 38.4466 14.534C 38.4466 15.344 37.7266 15.812 36.5206 15.812C 35.2246 15.812 34.5766 15.542 34.0906 14.894L 33.0286 15.65C 33.7126 16.586 34.6666 17.144 36.5026 17.144C 38.8246 17.144 39.8866 16.064 39.8866 14.498C 39.8866 12.428 38.3386 11.942 36.6466 11.816C 35.4586 11.726 34.5586 11.42 34.5586 10.394C 34.5586 9.602 35.2426 9.188 36.3046 9.188C 37.5466 9.188 38.0506 9.476 38.5366 10.106L 39.6166 9.35ZM 41.0714 9.296L 42.2234 9.296L 42.2234 14.228C 42.2234 16.1 42.8354 17 44.9594 17L 45.7334 17L 45.7334 15.632L 45.0134 15.632C 43.8074 15.632 43.6634 15.11 43.6634 13.868L 43.6634 9.296L 45.7334 9.296L 45.7334 8L 43.6634 8L 43.6634 6.02L 42.2234 6.02L 42.2234 8L 41.0714 8L 41.0714 9.296ZM 47.5411 17L 48.9811 17L 48.9811 11.384C 48.9811 10.142 49.8271 9.188 50.9971 9.188C 52.0591 9.188 52.8691 9.764 52.8691 11.402L 52.8691 17L 54.3091 17L 54.3091 11.384C 54.3091 10.106 55.1731 9.188 56.3251 9.188C 57.3871 9.188 58.1971 9.764 58.1971 11.402L 58.1971 17L 59.6371 17L 59.6371 11.384C 59.6371 9.044 58.4671 7.856 56.5411 7.856C 55.4431 7.856 54.4531 8.324 53.8411 9.278C 53.3371 8.342 52.4191 7.856 51.2131 7.856C 50.0611 7.856 49.3771 8.27 48.9811 8.882L 48.9811 8L 47.5411 8L 47.5411 17ZM 67.4087 14.84C 67.0307 15.506 66.4367 15.848 65.2667 15.848C 63.7007 15.848 62.9627 14.624 62.9627 13.076L 62.9627 12.824L 68.6507 12.824L 68.6507 11.888C 68.6507 9.314 67.4627 7.856 65.0867 7.856C 62.7287 7.856 61.5227 9.332 61.5227 11.888L 61.5227 13.076C 61.5227 15.578 62.9627 17.144 65.3747 17.144C 66.9407 17.144 67.8947 16.73 68.5247 15.632L 67.4087 14.84ZM 65.0867 9.152C 66.4547 9.152 67.1207 10.052 67.1927 11.564L 62.9627 11.564C 63.0527 10.07 63.7007 9.152 65.0867 9.152ZM 70.7618 17L 72.2018 17L 72.2018 11.384C 72.2018 10.142 73.0478 9.188 74.3978 9.188C 75.4598 9.188 76.4498 9.584 76.4498 11.402L 76.4498 17L 77.8898 17L 77.8898 11.384C 77.8898 8.864 76.5398 7.856 74.6138 7.856C 73.2818 7.856 72.6518 8.198 72.2018 8.882L 72.2018 8L 70.7618 8L 70.7618 17ZM 79.4444 9.296L 80.5964 9.296L 80.5964 14.228C 80.5964 16.1 81.2084 17 83.3324 17L 84.1064 17L 84.1064 15.632L 83.3864 15.632C 82.1804 15.632 82.0364 15.11 82.0364 13.868L 82.0364 9.296L 84.1064 9.296L 84.1064 8L 82.0364 8L 82.0364 6.02L 80.5964 6.02L 80.5964 8L 79.4444 8L 79.4444 9.296ZM 92.0521 9.35C 91.3501 8.234 90.2341 7.856 88.7761 7.856C 86.6341 7.856 85.5541 8.918 85.5541 10.412C 85.5541 12.374 87.0481 12.986 88.5601 13.094C 90.3061 13.22 90.8821 13.562 90.8821 14.534C 90.8821 15.344 90.1621 15.812 88.9561 15.812C 87.6601 15.812 87.0121 15.542 86.5261 14.894L 85.4641 15.65C 86.1481 16.586 87.1021 17.144 88.9381 17.144C 91.2601 17.144 92.3221 16.064 92.3221 14.498C 92.3221 12.428 90.7741 11.942 89.0821 11.816C 87.8941 11.726 86.9941 11.42 86.9941 10.394C 86.9941 9.602 87.6781 9.188 88.7401 9.188C 89.9821 9.188 90.4861 9.476 90.9721 10.106L 92.0521 9.35Z"/>
<path id="erd11path22_fill" d="M 5.49 17C 8.244 17 9.99 15.452 9.99 11.438L 9.99 10.142C 9.99 6.128 8.244 4.58 5.49 4.58L 1.53 4.58L 1.53 17L 5.49 17ZM 5.49 15.596L 3.078 15.596L 3.078 5.984L 5.49 5.984C 7.398 5.984 8.442 7.064 8.442 10.142L 8.442 11.438C 8.442 14.516 7.398 15.596 5.49 15.596ZM 17.5044 14.84C 17.1264 15.506 16.5324 15.848 15.3624 15.848C 13.7964 15.848 13.0584 14.624 13.0584 13.076L 13.0584 12.824L 18.7464 12.824L 18.7464 11.888C 18.7464 9.314 17.5584 7.856 15.1824 7.856C 12.8244 7.856 11.6184 9.332 11.6184 11.888L 11.6184 13.076C 11.6184 15.578 13.0584 17.144 15.4704 17.144C 17.0364 17.144 17.9904 16.73 18.6204 15.632L 17.5044 14.84ZM 15.1824 9.152C 16.5504 9.152 17.2164 10.052 17.2884 11.564L 13.0584 11.564C 13.1484 10.07 13.7964 9.152 15.1824 9.152ZM 26.7837 8L 24.0477 15.164L 21.3117 8L 19.6917 8L 23.3637 17L 24.8037 17L 28.4037 8L 26.7837 8ZM 35.188 14.84C 34.81 15.506 34.216 15.848 33.046 15.848C 31.48 15.848 30.742 14.624 30.742 13.076L 30.742 12.824L 36.43 12.824L 36.43 11.888C 36.43 9.314 35.242 7.856 32.866 7.856C 30.508 7.856 29.302 9.332 29.302 11.888L 29.302 13.076C 29.302 15.578 30.742 17.144 33.154 17.144C 34.72 17.144 35.674 16.73 36.304 15.632L 35.188 14.84ZM 32.866 9.152C 34.234 9.152 34.9 10.052 34.972 11.564L 30.742 11.564C 30.832 10.07 31.48 9.152 32.866 9.152ZM 38.5411 14.228C 38.5411 16.1 39.2431 17 41.5111 17L 41.5111 15.668C 40.0351 15.668 39.9811 14.84 39.9811 13.868L 39.9811 4.58L 38.5411 4.58L 38.5411 14.228ZM 50.5185 11.888C 50.5185 9.314 49.1505 7.856 46.7745 7.856C 44.4165 7.856 43.0305 9.332 43.0305 11.888L 43.0305 13.076C 43.0305 15.56 44.3805 17.144 46.7745 17.144C 49.3665 17.144 50.5185 15.416 50.5185 13.076L 50.5185 11.888ZM 46.7745 15.848C 45.1185 15.848 44.4705 14.624 44.4705 13.076L 44.4705 11.888C 44.4705 10.196 45.2985 9.152 46.7745 9.152C 48.2505 9.152 49.0785 10.178 49.0785 11.888L 49.0785 13.076C 49.0785 14.606 48.3045 15.848 46.7745 15.848ZM 53.8502 8.9L 53.8502 8L 52.4102 8L 52.4102 20.42L 53.8502 20.42L 53.8502 16.1C 54.3362 16.766 55.1102 17.144 56.2982 17.144C 58.7462 17.144 59.8982 15.416 59.8982 13.076L 59.8982 11.888C 59.8982 9.314 58.5302 7.856 56.2982 7.856C 55.1102 7.856 54.3362 8.234 53.8502 8.9ZM 56.1542 15.848C 54.4982 15.848 53.8502 14.624 53.8502 13.076L 53.8502 11.762C 53.8502 10.142 54.7142 9.152 56.1542 9.152C 57.6302 9.152 58.4582 10.178 58.4582 11.888L 58.4582 13.076C 58.4582 14.606 57.6842 15.848 56.1542 15.848ZM 61.797 17L 63.237 17L 63.237 11.384C 63.237 10.142 64.083 9.188 65.253 9.188C 66.315 9.188 67.125 9.764 67.125 11.402L 67.125 17L 68.565 17L 68.565 11.384C 68.565 10.106 69.429 9.188 70.581 9.188C 71.643 9.188 72.453 9.764 72.453 11.402L 72.453 17L 73.893 17L 73.893 11.384C 73.893 9.044 72.723 7.856 70.797 7.856C 69.699 7.856 68.709 8.324 68.097 9.278C 67.593 8.342 66.675 7.856 65.469 7.856C 64.317 7.856 63.633 8.27 63.237 8.882L 63.237 8L 61.797 8L 61.797 17ZM 81.6646 14.84C 81.2866 15.506 80.6926 15.848 79.5226 15.848C 77.9566 15.848 77.2186 14.624 77.2186 13.076L 77.2186 12.824L 82.9066 12.824L 82.9066 11.888C 82.9066 9.314 81.7186 7.856 79.3426 7.856C 76.9846 7.856 75.7786 9.332 75.7786 11.888L 75.7786 13.076C 75.7786 15.578 77.2186 17.144 79.6306 17.144C 81.1966 17.144 82.1506 16.73 82.7806 15.632L 81.6646 14.84ZM 79.3426 9.152C 80.7106 9.152 81.3766 10.052 81.4486 11.564L 77.2186 11.564C 77.3086 10.07 77.9566 9.152 79.3426 9.152ZM 85.0177 17L 86.4577 17L 86.4577 11.384C 86.4577 10.142 87.3037 9.188 88.6537 9.188C 89.7157 9.188 90.7057 9.584 90.7057 11.402L 90.7057 17L 92.1457 17L 92.1457 11.384C 92.1457 8.864 90.7957 7.856 88.8697 7.856C 87.5377 7.856 86.9077 8.198 86.4577 8.882L 86.4577 8L 85.0177 8L 85.0177 17ZM 93.7003 9.296L 94.8523 9.296L 94.8523 14.228C 94.8523 16.1 95.4643 17 97.5883 17L 98.3623 17L 98.3623 15.632L 97.6423 15.632C 96.4363 15.632 96.2923 15.11 96.2923 13.868L 96.2923 9.296L 98.3623 9.296L 98.3623 8L 96.2923 8L 96.2923 6.02L 94.8523 6.02L 94.8523 8L 93.7003 8L 93.7003 9.296Z"/>
<path id="erd11path23_fill" d="M 3.042 4.58L 1.53 4.58L 1.53 17L 3.078 17L 3.078 7.946L 6.048 14.408L 7.434 14.408L 10.458 7.892L 10.458 17L 12.006 17L 12.006 4.58L 10.476 4.58L 6.768 12.32L 3.042 4.58ZM 14.2552 14.372C 14.2552 16.118 15.3892 17.144 17.4772 17.144C 18.6472 17.144 19.2592 16.946 19.7632 16.118L 19.7632 17L 21.2032 17L 21.2032 10.754C 21.2032 8.594 20.0692 7.856 17.7832 7.856C 16.0732 7.856 15.1552 8.306 14.5252 9.35L 15.6052 10.106C 16.1092 9.278 16.6852 9.188 17.7652 9.188C 19.1692 9.188 19.7632 9.476 19.7632 10.754L 19.7632 11.798L 17.6212 11.798C 15.6412 11.798 14.2552 12.428 14.2552 14.372ZM 19.7632 13.544C 19.7632 15.56 18.8092 15.812 17.4772 15.812C 16.4152 15.812 15.6952 15.416 15.6952 14.408C 15.6952 13.508 16.1992 13.022 17.6212 13.022L 19.7632 13.022L 19.7632 13.544ZM 29.649 9.08C 29.073 8.27 28.299 7.856 27.075 7.856C 25.977 7.856 25.365 8.252 24.987 8.882L 24.987 8L 23.547 8L 23.547 17L 24.987 17L 24.987 11.366C 24.987 10.016 25.815 9.188 26.913 9.188C 27.579 9.188 28.047 9.422 28.425 9.944L 29.649 9.08ZM 35.7069 8L 32.0709 11.672L 32.0709 4.58L 30.6309 4.58L 30.6309 17L 32.0709 17L 32.0709 13.67L 32.6289 13.076L 36.2649 17L 38.1369 17L 33.6909 11.978L 37.5789 8L 35.7069 8ZM 44.2935 14.84C 43.9155 15.506 43.3215 15.848 42.1515 15.848C 40.5855 15.848 39.8475 14.624 39.8475 13.076L 39.8475 12.824L 45.5355 12.824L 45.5355 11.888C 45.5355 9.314 44.3475 7.856 41.9715 7.856C 39.6135 7.856 38.4075 9.332 38.4075 11.888L 38.4075 13.076C 38.4075 15.578 39.8475 17.144 42.2595 17.144C 43.8255 17.144 44.7795 16.73 45.4095 15.632L 44.2935 14.84ZM 41.9715 9.152C 43.3395 9.152 44.0055 10.052 44.0775 11.564L 39.8475 11.564C 39.9375 10.07 40.5855 9.152 41.9715 9.152ZM 46.8546 9.296L 48.0066 9.296L 48.0066 14.228C 48.0066 16.1 48.6186 17 50.7426 17L 51.5166 17L 51.5166 15.632L 50.7966 15.632C 49.5906 15.632 49.4466 15.11 49.4466 13.868L 49.4466 9.296L 51.5166 9.296L 51.5166 8L 49.4466 8L 49.4466 6.02L 48.0066 6.02L 48.0066 8L 46.8546 8L 46.8546 9.296ZM 53.5943 17L 55.0343 17L 55.0343 8L 53.5943 8L 53.5943 17ZM 53.5043 6.2L 55.1243 6.2L 55.1243 4.58L 53.5043 4.58L 53.5043 6.2ZM 57.6485 17L 59.0885 17L 59.0885 11.384C 59.0885 10.142 59.9345 9.188 61.2845 9.188C 62.3465 9.188 63.3365 9.584 63.3365 11.402L 63.3365 17L 64.7765 17L 64.7765 11.384C 64.7765 8.864 63.4265 7.856 61.5005 7.856C 60.1685 7.856 59.5385 8.198 59.0885 8.882L 59.0885 8L 57.6485 8L 57.6485 17ZM 72.7211 8.9C 72.2351 8.234 71.4611 7.856 70.2731 7.856C 68.0411 7.856 66.6731 9.314 66.6731 11.888L 66.6731 13.076C 66.6731 15.416 67.8251 17.144 70.2731 17.144C 71.4611 17.144 72.2351 16.838 72.7211 16.208L 72.7211 16.82C 72.7211 18.368 71.9831 19.232 70.4171 19.232C 69.2471 19.232 68.6531 18.89 68.2751 18.224L 67.1591 19.016C 67.7891 20.114 68.7431 20.528 70.3091 20.528C 72.7211 20.528 74.1611 19.322 74.1611 16.82L 74.1611 8L 72.7211 8L 72.7211 8.9ZM 70.4171 15.848C 68.8871 15.848 68.1131 14.606 68.1131 13.076L 68.1131 11.888C 68.1131 10.178 68.9411 9.152 70.4171 9.152C 71.8931 9.152 72.7211 10.196 72.7211 11.888L 72.7211 13.076C 72.7211 14.624 72.0731 15.848 70.4171 15.848Z"/>
<path id="erd11path24_fill" d="M 9.9 11.474L 9.9 10.106C 9.9 6.092 8.154 4.436 5.4 4.436C 2.646 4.436 0.9 6.092 0.9 10.106L 0.9 11.474C 0.9 15.488 2.646 17.144 5.4 17.144C 8.154 17.144 9.9 15.488 9.9 11.474ZM 2.448 10.106C 2.448 7.028 3.492 5.84 5.4 5.84C 7.308 5.84 8.352 7.028 8.352 10.106L 8.352 11.474C 8.352 14.552 7.308 15.74 5.4 15.74C 3.492 15.74 2.448 14.552 2.448 11.474L 2.448 10.106ZM 13.403 8.9L 13.403 8L 11.963 8L 11.963 20.42L 13.403 20.42L 13.403 16.1C 13.889 16.766 14.663 17.144 15.851 17.144C 18.299 17.144 19.451 15.416 19.451 13.076L 19.451 11.888C 19.451 9.314 18.083 7.856 15.851 7.856C 14.663 7.856 13.889 8.234 13.403 8.9ZM 15.707 15.848C 14.051 15.848 13.403 14.624 13.403 13.076L 13.403 11.762C 13.403 10.142 14.267 9.152 15.707 9.152C 17.183 9.152 18.011 10.178 18.011 11.888L 18.011 13.076C 18.011 14.606 17.237 15.848 15.707 15.848ZM 26.7857 14.84C 26.4077 15.506 25.8137 15.848 24.6437 15.848C 23.0777 15.848 22.3397 14.624 22.3397 13.076L 22.3397 12.824L 28.0277 12.824L 28.0277 11.888C 28.0277 9.314 26.8397 7.856 24.4637 7.856C 22.1057 7.856 20.8997 9.332 20.8997 11.888L 20.8997 13.076C 20.8997 15.578 22.3397 17.144 24.7517 17.144C 26.3177 17.144 27.2717 16.73 27.9017 15.632L 26.7857 14.84ZM 24.4637 9.152C 25.8317 9.152 26.4977 10.052 26.5697 11.564L 22.3397 11.564C 22.4297 10.07 23.0777 9.152 24.4637 9.152ZM 36.2408 9.08C 35.6648 8.27 34.8907 7.856 33.6668 7.856C 32.5688 7.856 31.9567 8.252 31.5787 8.882L 31.5787 8L 30.1387 8L 30.1387 17L 31.5787 17L 31.5787 11.366C 31.5787 10.016 32.4067 9.188 33.5048 9.188C 34.1708 9.188 34.6387 9.422 35.0167 9.944L 36.2408 9.08ZM 36.597 14.372C 36.597 16.118 37.731 17.144 39.819 17.144C 40.989 17.144 41.601 16.946 42.105 16.118L 42.105 17L 43.545 17L 43.545 10.754C 43.545 8.594 42.411 7.856 40.125 7.856C 38.415 7.856 37.497 8.306 36.867 9.35L 37.947 10.106C 38.451 9.278 39.027 9.188 40.107 9.188C 41.511 9.188 42.105 9.476 42.105 10.754L 42.105 11.798L 39.963 11.798C 37.983 11.798 36.597 12.428 36.597 14.372ZM 42.105 13.544C 42.105 15.56 41.151 15.812 39.819 15.812C 38.757 15.812 38.037 15.416 38.037 14.408C 38.037 13.508 38.541 13.022 39.963 13.022L 42.105 13.022L 42.105 13.544ZM 45.0967 9.296L 46.2488 9.296L 46.2488 14.228C 46.2488 16.1 46.8608 17 48.9848 17L 49.7588 17L 49.7588 15.632L 49.0387 15.632C 47.8327 15.632 47.6888 15.11 47.6888 13.868L 47.6888 9.296L 49.7588 9.296L 49.7588 8L 47.6888 8L 47.6888 6.02L 46.2488 6.02L 46.2488 8L 45.0967 8L 45.0967 9.296ZM 51.8365 17L 53.2765 17L 53.2765 8L 51.8365 8L 51.8365 17ZM 51.7465 6.2L 53.3665 6.2L 53.3665 4.58L 51.7465 4.58L 51.7465 6.2ZM 62.9287 11.888C 62.9287 9.314 61.5607 7.856 59.1847 7.856C 56.8267 7.856 55.4407 9.332 55.4407 11.888L 55.4407 13.076C 55.4407 15.56 56.7907 17.144 59.1847 17.144C 61.7767 17.144 62.9287 15.416 62.9287 13.076L 62.9287 11.888ZM 59.1847 15.848C 57.5287 15.848 56.8807 14.624 56.8807 13.076L 56.8807 11.888C 56.8807 10.196 57.7087 9.152 59.1847 9.152C 60.6607 9.152 61.4887 10.178 61.4887 11.888L 61.4887 13.076C 61.4887 14.606 60.7147 15.848 59.1847 15.848ZM 64.8204 17L 66.2604 17L 66.2604 11.384C 66.2604 10.142 67.1064 9.188 68.4564 9.188C 69.5184 9.188 70.5084 9.584 70.5084 11.402L 70.5084 17L 71.9484 17L 71.9484 11.384C 71.9484 8.864 70.5984 7.856 68.6724 7.856C 67.3404 7.856 66.7104 8.198 66.2604 8.882L 66.2604 8L 64.8204 8L 64.8204 17ZM 80.433 9.35C 79.731 8.234 78.615 7.856 77.157 7.856C 75.015 7.856 73.935 8.918 73.935 10.412C 73.935 12.374 75.429 12.986 76.941 13.094C 78.687 13.22 79.263 13.562 79.263 14.534C 79.263 15.344 78.543 15.812 77.337 15.812C 76.041 15.812 75.393 15.542 74.907 14.894L 73.845 15.65C 74.529 16.586 75.483 17.144 77.319 17.144C 79.641 17.144 80.703 16.064 80.703 14.498C 80.703 12.428 79.155 11.942 77.463 11.816C 76.275 11.726 75.375 11.42 75.375 10.394C 75.375 9.602 76.059 9.188 77.121 9.188C 78.363 9.188 78.867 9.476 79.353 10.106L 80.433 9.35Z"/>
<path id="erd11path25_fill" d="M 3.078 4.58L 1.53 4.58L 1.53 17L 9.018 17L 9.018 15.596L 3.078 15.596L 3.078 4.58ZM 15.6236 14.84C 15.2456 15.506 14.6516 15.848 13.4816 15.848C 11.9156 15.848 11.1776 14.624 11.1776 13.076L 11.1776 12.824L 16.8656 12.824L 16.8656 11.888C 16.8656 9.314 15.6776 7.856 13.3016 7.856C 10.9436 7.856 9.73758 9.332 9.73758 11.888L 9.73758 13.076C 9.73758 15.578 11.1776 17.144 13.5896 17.144C 15.1556 17.144 16.1096 16.73 16.7396 15.632L 15.6236 14.84ZM 13.3016 9.152C 14.6696 9.152 15.3356 10.052 15.4076 11.564L 11.1776 11.564C 11.2676 10.07 11.9156 9.152 13.3016 9.152ZM 24.5746 8.9C 24.0886 8.234 23.3146 7.856 22.1266 7.856C 19.8946 7.856 18.5266 9.314 18.5266 11.888L 18.5266 13.076C 18.5266 15.416 19.6786 17.144 22.1266 17.144C 23.3146 17.144 24.0886 16.838 24.5746 16.208L 24.5746 16.82C 24.5746 18.368 23.8366 19.232 22.2706 19.232C 21.1006 19.232 20.5066 18.89 20.1286 18.224L 19.0126 19.016C 19.6426 20.114 20.5966 20.528 22.1626 20.528C 24.5746 20.528 26.0146 19.322 26.0146 16.82L 26.0146 8L 24.5746 8L 24.5746 8.9ZM 22.2706 15.848C 20.7406 15.848 19.9666 14.606 19.9666 13.076L 19.9666 11.888C 19.9666 10.178 20.7946 9.152 22.2706 9.152C 23.7466 9.152 24.5746 10.196 24.5746 11.888L 24.5746 13.076C 24.5746 14.624 23.9266 15.848 22.2706 15.848ZM 27.9134 14.372C 27.9134 16.118 29.0474 17.144 31.1354 17.144C 32.3054 17.144 32.9174 16.946 33.4214 16.118L 33.4214 17L 34.8614 17L 34.8614 10.754C 34.8614 8.594 33.7274 7.856 31.4414 7.856C 29.7314 7.856 28.8134 8.306 28.1834 9.35L 29.2634 10.106C 29.7674 9.278 30.3434 9.188 31.4234 9.188C 32.8274 9.188 33.4214 9.476 33.4214 10.754L 33.4214 11.798L 31.2794 11.798C 29.2994 11.798 27.9134 12.428 27.9134 14.372ZM 33.4214 13.544C 33.4214 15.56 32.4674 15.812 31.1354 15.812C 30.0734 15.812 29.3534 15.416 29.3534 14.408C 29.3534 13.508 29.8574 13.022 31.2794 13.022L 33.4214 13.022L 33.4214 13.544ZM 37.2052 14.228C 37.2052 16.1 37.9072 17 40.1752 17L 40.1752 15.668C 38.6992 15.668 38.6452 14.84 38.6452 13.868L 38.6452 4.58L 37.2052 4.58L 37.2052 14.228Z"/>
<path id="erd11path26_fill" d="M 1.818 17L 2.772 14.156L 7.668 14.156L 8.622 17L 10.26 17L 5.94 4.58L 4.5 4.58L 0.18 17L 1.818 17ZM 5.22 6.92L 7.182 12.752L 3.258 12.752L 5.22 6.92ZM 17.1039 8.9C 16.6179 8.234 15.8439 7.856 14.6559 7.856C 12.4239 7.856 11.0559 9.314 11.0559 11.888L 11.0559 13.076C 11.0559 15.416 12.2079 17.144 14.6559 17.144C 15.8439 17.144 16.6179 16.838 17.1039 16.208L 17.1039 17L 18.5439 17L 18.5439 4.58L 17.1039 4.58L 17.1039 8.9ZM 14.7999 15.848C 13.2699 15.848 12.4959 14.606 12.4959 13.076L 12.4959 11.888C 12.4959 10.178 13.3239 9.152 14.7999 9.152C 16.2759 9.152 17.1039 10.196 17.1039 11.888L 17.1039 13.202C 17.1039 14.696 16.4019 15.848 14.7999 15.848ZM 26.9947 8L 24.2587 15.164L 21.5227 8L 19.9027 8L 23.5747 17L 25.0147 17L 28.6147 8L 26.9947 8ZM 30.233 17L 31.673 17L 31.673 8L 30.233 8L 30.233 17ZM 30.143 6.2L 31.763 6.2L 31.763 4.58L 30.143 4.58L 30.143 6.2ZM 40.4252 9.35C 39.7232 8.234 38.6072 7.856 37.1492 7.856C 35.0072 7.856 33.9272 8.918 33.9272 10.412C 33.9272 12.374 35.4212 12.986 36.9332 13.094C 38.6792 13.22 39.2552 13.562 39.2552 14.534C 39.2552 15.344 38.5352 15.812 37.3292 15.812C 36.0332 15.812 35.3852 15.542 34.8992 14.894L 33.8372 15.65C 34.5212 16.586 35.4752 17.144 37.3112 17.144C 39.6332 17.144 40.6952 16.064 40.6952 14.498C 40.6952 12.428 39.1472 11.942 37.4552 11.816C 36.2672 11.726 35.3672 11.42 35.3672 10.394C 35.3672 9.602 36.0512 9.188 37.1132 9.188C 38.3552 9.188 38.8592 9.476 39.3452 10.106L 40.4252 9.35ZM 49.71 11.888C 49.71 9.314 48.342 7.856 45.966 7.856C 43.608 7.856 42.222 9.332 42.222 11.888L 42.222 13.076C 42.222 15.56 43.572 17.144 45.966 17.144C 48.558 17.144 49.71 15.416 49.71 13.076L 49.71 11.888ZM 45.966 15.848C 44.31 15.848 43.662 14.624 43.662 13.076L 43.662 11.888C 43.662 10.196 44.49 9.152 45.966 9.152C 47.442 9.152 48.27 10.178 48.27 11.888L 48.27 13.076C 48.27 14.606 47.496 15.848 45.966 15.848ZM 57.7036 9.08C 57.1276 8.27 56.3536 7.856 55.1296 7.856C 54.0316 7.856 53.4196 8.252 53.0416 8.882L 53.0416 8L 51.6016 8L 51.6016 17L 53.0416 17L 53.0416 11.366C 53.0416 10.016 53.8696 9.188 54.9676 9.188C 55.6336 9.188 56.1016 9.422 56.4796 9.944L 57.7036 9.08ZM 64.8236 9.35C 64.1216 8.234 63.0056 7.856 61.5476 7.856C 59.4056 7.856 58.3256 8.918 58.3256 10.412C 58.3256 12.374 59.8196 12.986 61.3316 13.094C 63.0776 13.22 63.6536 13.562 63.6536 14.534C 63.6536 15.344 62.9336 15.812 61.7276 15.812C 60.4316 15.812 59.7836 15.542 59.2976 14.894L 58.2356 15.65C 58.9196 16.586 59.8736 17.144 61.7096 17.144C 64.0316 17.144 65.0936 16.064 65.0936 14.498C 65.0936 12.428 63.5456 11.942 61.8536 11.816C 60.6656 11.726 59.7656 11.42 59.7656 10.394C 59.7656 9.602 60.4496 9.188 61.5116 9.188C 62.7536 9.188 63.2576 9.476 63.7436 10.106L 64.8236 9.35ZM 68.7084 14.912L 66.9804 14.912L 66.9804 19.556L 68.7084 18.062L 68.7084 14.912ZM 74.6632 9.296L 75.8152 9.296L 75.8152 14.228C 75.8152 16.1 76.4272 17 78.5512 17L 79.3252 17L 79.3252 15.632L 78.6052 15.632C 77.3992 15.632 77.2552 15.11 77.2552 13.868L 77.2552 9.296L 79.3252 9.296L 79.3252 8L 77.2552 8L 77.2552 6.02L 75.8152 6.02L 75.8152 8L 74.6632 8L 74.6632 9.296ZM 86.5689 14.84C 86.1909 15.506 85.5969 15.848 84.4269 15.848C 82.8609 15.848 82.1229 14.624 82.1229 13.076L 82.1229 12.824L 87.8109 12.824L 87.8109 11.888C 87.8109 9.314 86.6229 7.856 84.2469 7.856C 81.8889 7.856 80.6829 9.332 80.6829 11.888L 80.6829 13.076C 80.6829 15.578 82.1229 17.144 84.5349 17.144C 86.1009 17.144 87.0549 16.73 87.6849 15.632L 86.5689 14.84ZM 84.2469 9.152C 85.6149 9.152 86.2809 10.052 86.3529 11.564L 82.1229 11.564C 82.2129 10.07 82.8609 9.152 84.2469 9.152ZM 89.472 14.372C 89.472 16.118 90.606 17.144 92.694 17.144C 93.864 17.144 94.476 16.946 94.98 16.118L 94.98 17L 96.42 17L 96.42 10.754C 96.42 8.594 95.286 7.856 93 7.856C 91.29 7.856 90.372 8.306 89.742 9.35L 90.822 10.106C 91.326 9.278 91.902 9.188 92.982 9.188C 94.386 9.188 94.98 9.476 94.98 10.754L 94.98 11.798L 92.838 11.798C 90.858 11.798 89.472 12.428 89.472 14.372ZM 94.98 13.544C 94.98 15.56 94.026 15.812 92.694 15.812C 91.632 15.812 90.912 15.416 90.912 14.408C 90.912 13.508 91.416 13.022 92.838 13.022L 94.98 13.022L 94.98 13.544ZM 98.7637 17L 100.204 17L 100.204 11.384C 100.204 10.142 101.05 9.188 102.22 9.188C 103.282 9.188 104.092 9.764 104.092 11.402L 104.092 17L 105.532 17L 105.532 11.384C 105.532 10.106 106.396 9.188 107.548 9.188C 108.61 9.188 109.42 9.764 109.42 11.402L 109.42 17L 110.86 17L 110.86 11.384C 110.86 9.044 109.69 7.856 107.764 7.856C 106.666 7.856 105.676 8.324 105.064 9.278C 104.56 8.342 103.642 7.856 102.436 7.856C 101.284 7.856 100.6 8.27 100.204 8.882L 100.204 8L 98.7637 8L 98.7637 17ZM 117.695 17L 119.135 17L 119.135 11.384C 119.135 10.142 119.981 9.188 121.151 9.188C 122.213 9.188 123.023 9.764 123.023 11.402L 123.023 17L 124.463 17L 124.463 11.384C 124.463 10.106 125.327 9.188 126.479 9.188C 127.541 9.188 128.351 9.764 128.351 11.402L 128.351 17L 129.791 17L 129.791 11.384C 129.791 9.044 128.621 7.856 126.695 7.856C 125.597 7.856 124.607 8.324 123.995 9.278C 123.491 8.342 122.573 7.856 121.367 7.856C 120.215 7.856 119.531 8.27 119.135 8.882L 119.135 8L 117.695 8L 117.695 17ZM 137.563 14.84C 137.185 15.506 136.591 15.848 135.421 15.848C 133.855 15.848 133.117 14.624 133.117 13.076L 133.117 12.824L 138.805 12.824L 138.805 11.888C 138.805 9.314 137.617 7.856 135.241 7.856C 132.883 7.856 131.677 9.332 131.677 11.888L 131.677 13.076C 131.677 15.578 133.117 17.144 135.529 17.144C 137.095 17.144 138.049 16.73 138.679 15.632L 137.563 14.84ZM 135.241 9.152C 136.609 9.152 137.275 10.052 137.347 11.564L 133.117 11.564C 133.207 10.07 133.855 9.152 135.241 9.152ZM 140.916 17L 142.356 17L 142.356 11.384C 142.356 10.142 143.202 9.188 144.372 9.188C 145.434 9.188 146.244 9.764 146.244 11.402L 146.244 17L 147.684 17L 147.684 11.384C 147.684 10.106 148.548 9.188 149.7 9.188C 150.762 9.188 151.572 9.764 151.572 11.402L 151.572 17L 153.012 17L 153.012 11.384C 153.012 9.044 151.842 7.856 149.916 7.856C 148.818 7.856 147.828 8.324 147.216 9.278C 146.712 8.342 145.794 7.856 144.588 7.856C 143.436 7.856 142.752 8.27 142.356 8.882L 142.356 8L 140.916 8L 140.916 17ZM 154.718 12.446L 159.38 12.446L 159.38 11.15L 154.718 11.15L 154.718 12.446ZM 2.61 25.58L 1.17 25.58L 1.17 38L 2.61 38L 2.61 37.208C 3.096 37.838 3.852 38.144 5.058 38.144C 7.506 38.144 8.658 36.416 8.658 34.076L 8.658 32.888C 8.658 30.314 7.29 28.856 5.058 28.856C 3.87 28.856 3.096 29.234 2.61 29.9L 2.61 25.58ZM 4.914 36.848C 3.258 36.848 2.61 35.624 2.61 34.076L 2.61 32.762C 2.61 31.142 3.474 30.152 4.914 30.152C 6.39 30.152 7.218 31.178 7.218 32.888L 7.218 34.076C 7.218 35.606 6.444 36.848 4.914 36.848ZM 15.9927 35.84C 15.6147 36.506 15.0207 36.848 13.8507 36.848C 12.2847 36.848 11.5467 35.624 11.5467 34.076L 11.5467 33.824L 17.2347 33.824L 17.2347 32.888C 17.2347 30.314 16.0467 28.856 13.6707 28.856C 11.3127 28.856 10.1067 30.332 10.1067 32.888L 10.1067 34.076C 10.1067 36.578 11.5467 38.144 13.9587 38.144C 15.5247 38.144 16.4787 37.73 17.1087 36.632L 15.9927 35.84ZM 13.6707 30.152C 15.0387 30.152 15.7047 31.052 15.7767 32.564L 11.5467 32.564C 11.6367 31.07 12.2847 30.152 13.6707 30.152ZM 25.4478 30.08C 24.8718 29.27 24.0978 28.856 22.8738 28.856C 21.7758 28.856 21.1638 29.252 20.7858 29.882L 20.7858 29L 19.3458 29L 19.3458 38L 20.7858 38L 20.7858 32.366C 20.7858 31.016 21.6138 30.188 22.7118 30.188C 23.3778 30.188 23.8458 30.422 24.2238 30.944L 25.4478 30.08ZM 32.5678 30.35C 31.8658 29.234 30.7498 28.856 29.2918 28.856C 27.1498 28.856 26.0698 29.918 26.0698 31.412C 26.0698 33.374 27.5638 33.986 29.0758 34.094C 30.8218 34.22 31.3978 34.562 31.3978 35.534C 31.3978 36.344 30.6778 36.812 29.4718 36.812C 28.1758 36.812 27.5278 36.542 27.0418 35.894L 25.9798 36.65C 26.6638 37.586 27.6178 38.144 29.4538 38.144C 31.7758 38.144 32.8378 37.064 32.8378 35.498C 32.8378 33.428 31.2898 32.942 29.5978 32.816C 28.4098 32.726 27.5098 32.42 27.5098 31.394C 27.5098 30.602 28.1938 30.188 29.2558 30.188C 30.4978 30.188 31.0018 30.476 31.4878 31.106L 32.5678 30.35ZM 36.4525 35.912L 34.7245 35.912L 34.7245 40.556L 36.4525 39.062L 36.4525 35.912ZM 44.6393 29.9L 44.6393 29L 43.1993 29L 43.1993 41.42L 44.6393 41.42L 44.6393 37.1C 45.1253 37.766 45.8993 38.144 47.0873 38.144C 49.5353 38.144 50.6873 36.416 50.6873 34.076L 50.6873 32.888C 50.6873 30.314 49.3193 28.856 47.0873 28.856C 45.8993 28.856 45.1253 29.234 44.6393 29.9ZM 46.9433 36.848C 45.2873 36.848 44.6393 35.624 44.6393 34.076L 44.6393 32.762C 44.6393 31.142 45.5033 30.152 46.9433 30.152C 48.4193 30.152 49.2473 31.178 49.2473 32.888L 49.2473 34.076C 49.2473 35.606 48.4733 36.848 46.9433 36.848ZM 52.136 35.372C 52.136 37.118 53.27 38.144 55.358 38.144C 56.528 38.144 57.14 37.946 57.644 37.118L 57.644 38L 59.084 38L 59.084 31.754C 59.084 29.594 57.95 28.856 55.664 28.856C 53.954 28.856 53.036 29.306 52.406 30.35L 53.486 31.106C 53.99 30.278 54.566 30.188 55.646 30.188C 57.05 30.188 57.644 30.476 57.644 31.754L 57.644 32.798L 55.502 32.798C 53.522 32.798 52.136 33.428 52.136 35.372ZM 57.644 34.544C 57.644 36.56 56.69 36.812 55.358 36.812C 54.296 36.812 53.576 36.416 53.576 35.408C 53.576 34.508 54.08 34.022 55.502 34.022L 57.644 34.022L 57.644 34.544ZM 67.5298 30.08C 66.9538 29.27 66.1798 28.856 64.9558 28.856C 63.8578 28.856 63.2458 29.252 62.8678 29.882L 62.8678 29L 61.4278 29L 61.4278 38L 62.8678 38L 62.8678 32.366C 62.8678 31.016 63.6958 30.188 64.7938 30.188C 65.4598 30.188 65.9278 30.422 66.3058 30.944L 67.5298 30.08ZM 67.7198 30.296L 68.8718 30.296L 68.8718 35.228C 68.8718 37.1 69.4838 38 71.6078 38L 72.3818 38L 72.3818 36.632L 71.6618 36.632C 70.4558 36.632 70.3118 36.11 70.3118 34.868L 70.3118 30.296L 72.3818 30.296L 72.3818 29L 70.3118 29L 70.3118 27.02L 68.8718 27.02L 68.8718 29L 67.7198 29L 67.7198 30.296ZM 74.1895 38L 75.6295 38L 75.6295 32.384C 75.6295 31.142 76.4755 30.188 77.8255 30.188C 78.8875 30.188 79.8775 30.584 79.8775 32.402L 79.8775 38L 81.3175 38L 81.3175 32.384C 81.3175 29.864 79.9675 28.856 78.0415 28.856C 76.7095 28.856 76.0795 29.198 75.6295 29.882L 75.6295 29L 74.1895 29L 74.1895 38ZM 89.1001 35.84C 88.7221 36.506 88.1281 36.848 86.9581 36.848C 85.3921 36.848 84.6541 35.624 84.6541 34.076L 84.6541 33.824L 90.3421 33.824L 90.3421 32.888C 90.3421 30.314 89.1541 28.856 86.7781 28.856C 84.4201 28.856 83.2141 30.332 83.2141 32.888L 83.2141 34.076C 83.2141 36.578 84.6541 38.144 87.0661 38.144C 88.6321 38.144 89.5861 37.73 90.2161 36.632L 89.1001 35.84ZM 86.7781 30.152C 88.1461 30.152 88.8121 31.052 88.8841 32.564L 84.6541 32.564C 84.7441 31.07 85.3921 30.152 86.7781 30.152ZM 98.5552 30.08C 97.9792 29.27 97.2052 28.856 95.9812 28.856C 94.8832 28.856 94.2712 29.252 93.8932 29.882L 93.8932 29L 92.4532 29L 92.4532 38L 93.8932 38L 93.8932 32.366C 93.8932 31.016 94.7212 30.188 95.8192 30.188C 96.4852 30.188 96.9532 30.422 97.3312 30.944L 98.5552 30.08ZM 105.675 30.35C 104.973 29.234 103.857 28.856 102.399 28.856C 100.257 28.856 99.1772 29.918 99.1772 31.412C 99.1772 33.374 100.671 33.986 102.183 34.094C 103.929 34.22 104.505 34.562 104.505 35.534C 104.505 36.344 103.785 36.812 102.579 36.812C 101.283 36.812 100.635 36.542 100.149 35.894L 99.0872 36.65C 99.7712 37.586 100.725 38.144 102.561 38.144C 104.883 38.144 105.945 37.064 105.945 35.498C 105.945 33.428 104.397 32.942 102.705 32.816C 101.517 32.726 100.617 32.42 100.617 31.394C 100.617 30.602 101.301 30.188 102.363 30.188C 103.605 30.188 104.109 30.476 104.595 31.106L 105.675 30.35ZM 111.972 35.372C 111.972 37.118 113.106 38.144 115.194 38.144C 116.364 38.144 116.976 37.946 117.48 37.118L 117.48 38L 118.92 38L 118.92 31.754C 118.92 29.594 117.786 28.856 115.5 28.856C 113.79 28.856 112.872 29.306 112.242 30.35L 113.322 31.106C 113.826 30.278 114.402 30.188 115.482 30.188C 116.886 30.188 117.48 30.476 117.48 31.754L 117.48 32.798L 115.338 32.798C 113.358 32.798 111.972 33.428 111.972 35.372ZM 117.48 34.544C 117.48 36.56 116.526 36.812 115.194 36.812C 114.132 36.812 113.412 36.416 113.412 35.408C 113.412 34.508 113.916 34.022 115.338 34.022L 117.48 34.022L 117.48 34.544ZM 121.264 38L 122.704 38L 122.704 32.384C 122.704 31.142 123.55 30.188 124.9 30.188C 125.962 30.188 126.952 30.584 126.952 32.402L 126.952 38L 128.392 38L 128.392 32.384C 128.392 29.864 127.042 28.856 125.116 28.856C 123.784 28.856 123.154 29.198 122.704 29.882L 122.704 29L 121.264 29L 121.264 38ZM 136.336 29.9C 135.85 29.234 135.076 28.856 133.888 28.856C 131.656 28.856 130.288 30.314 130.288 32.888L 130.288 34.076C 130.288 36.416 131.44 38.144 133.888 38.144C 135.076 38.144 135.85 37.838 136.336 37.208L 136.336 38L 137.776 38L 137.776 25.58L 136.336 25.58L 136.336 29.9ZM 134.032 36.848C 132.502 36.848 131.728 35.606 131.728 34.076L 131.728 32.888C 131.728 31.178 132.556 30.152 134.032 30.152C 135.508 30.152 136.336 31.196 136.336 32.888L 136.336 34.202C 136.336 35.696 135.634 36.848 134.032 36.848ZM 6.606 55.84C 6.228 56.506 5.634 56.848 4.464 56.848C 2.898 56.848 2.16 55.624 2.16 54.076L 2.16 53.824L 7.848 53.824L 7.848 52.888C 7.848 50.314 6.66 48.856 4.284 48.856C 1.926 48.856 0.72 50.332 0.72 52.888L 0.72 54.076C 0.72 56.578 2.16 58.144 4.572 58.144C 6.138 58.144 7.092 57.73 7.722 56.632L 6.606 55.84ZM 4.284 50.152C 5.652 50.152 6.318 51.052 6.39 52.564L 2.16 52.564C 2.25 51.07 2.898 50.152 4.284 50.152ZM 9.50906 55.372C 9.50906 57.118 10.6431 58.144 12.7311 58.144C 13.9011 58.144 14.5131 57.946 15.0171 57.118L 15.0171 58L 16.4571 58L 16.4571 51.754C 16.4571 49.594 15.3231 48.856 13.0371 48.856C 11.3271 48.856 10.4091 49.306 9.77906 50.35L 10.8591 51.106C 11.3631 50.278 11.9391 50.188 13.0191 50.188C 14.4231 50.188 15.0171 50.476 15.0171 51.754L 15.0171 52.798L 12.8751 52.798C 10.8951 52.798 9.50906 53.428 9.50906 55.372ZM 15.0171 54.544C 15.0171 56.56 14.0631 56.812 12.7311 56.812C 11.6691 56.812 10.9491 56.416 10.9491 55.408C 10.9491 54.508 11.4531 54.022 12.8751 54.022L 15.0171 54.022L 15.0171 54.544ZM 24.9029 50.08C 24.3269 49.27 23.5529 48.856 22.3289 48.856C 21.2309 48.856 20.6189 49.252 20.2409 49.882L 20.2409 49L 18.8009 49L 18.8009 58L 20.2409 58L 20.2409 52.366C 20.2409 51.016 21.0689 50.188 22.1669 50.188C 22.8329 50.188 23.3009 50.422 23.6789 50.944L 24.9029 50.08ZM 25.8848 55.228C 25.8848 57.1 26.5868 58 28.8548 58L 28.8548 56.668C 27.3788 56.668 27.3248 55.84 27.3248 54.868L 27.3248 45.58L 25.8848 45.58L 25.8848 55.228ZM 33.2363 58.216C 32.6963 59.818 32.1383 60.016 30.9503 60.016L 30.9503 61.42C 33.4703 61.42 33.9563 60.448 34.6943 58.288L 37.8623 49L 36.3323 49L 33.9743 55.984L 31.2923 49L 29.7443 49L 33.2723 58.09L 33.2363 58.216ZM 49.1451 55.84C 48.7671 56.56 47.9931 56.848 47.1471 56.848C 45.4191 56.848 44.6991 55.624 44.6991 54.076L 44.6991 52.888C 44.6991 51.196 45.5991 50.152 47.1471 50.152C 47.9751 50.152 48.7311 50.476 49.1271 51.052L 50.2611 50.26C 49.6131 49.342 48.4971 48.856 47.1471 48.856C 44.7171 48.856 43.2591 50.332 43.2591 52.888L 43.2591 54.076C 43.2591 56.56 44.6811 58.144 47.1471 58.144C 48.6051 58.144 49.7031 57.676 50.2611 56.632L 49.1451 55.84ZM 58.7451 52.888C 58.7451 50.314 57.3771 48.856 55.0011 48.856C 52.6431 48.856 51.2571 50.332 51.2571 52.888L 51.2571 54.076C 51.2571 56.56 52.6071 58.144 55.0011 58.144C 57.5931 58.144 58.7451 56.416 58.7451 54.076L 58.7451 52.888ZM 55.0011 56.848C 53.3451 56.848 52.6971 55.624 52.6971 54.076L 52.6971 52.888C 52.6971 51.196 53.5251 50.152 55.0011 50.152C 56.4771 50.152 57.3051 51.178 57.3051 52.888L 57.3051 54.076C 57.3051 55.606 56.5311 56.848 55.0011 56.848ZM 60.6368 58L 62.0768 58L 62.0768 52.384C 62.0768 51.142 62.9228 50.188 64.2728 50.188C 65.3348 50.188 66.3248 50.584 66.3248 52.402L 66.3248 58L 67.7648 58L 67.7648 52.384C 67.7648 49.864 66.4148 48.856 64.4888 48.856C 63.1568 48.856 62.5268 49.198 62.0768 49.882L 62.0768 49L 60.6368 49L 60.6368 58ZM 69.3194 50.296L 70.4714 50.296L 70.4714 55.228C 70.4714 57.1 71.0834 58 73.2074 58L 73.9814 58L 73.9814 56.632L 73.2614 56.632C 72.0554 56.632 71.9114 56.11 71.9114 54.868L 71.9114 50.296L 73.9814 50.296L 73.9814 49L 71.9114 49L 71.9114 47.02L 70.4714 47.02L 70.4714 49L 69.3194 49L 69.3194 50.296ZM 81.8911 50.08C 81.3151 49.27 80.5411 48.856 79.3171 48.856C 78.2191 48.856 77.6071 49.252 77.2291 49.882L 77.2291 49L 75.7891 49L 75.7891 58L 77.2291 58L 77.2291 52.366C 77.2291 51.016 78.0571 50.188 79.1551 50.188C 79.8211 50.188 80.2891 50.422 80.6671 50.944L 81.8911 50.08ZM 83.1431 58L 84.5831 58L 84.5831 49L 83.1431 49L 83.1431 58ZM 83.0531 47.2L 84.6731 47.2L 84.6731 45.58L 83.0531 45.58L 83.0531 47.2ZM 88.6373 45.58L 87.1973 45.58L 87.1973 58L 88.6373 58L 88.6373 57.208C 89.1233 57.838 89.8793 58.144 91.0853 58.144C 93.5333 58.144 94.6853 56.416 94.6853 54.076L 94.6853 52.888C 94.6853 50.314 93.3173 48.856 91.0853 48.856C 89.8973 48.856 89.1233 49.234 88.6373 49.9L 88.6373 45.58ZM 90.9413 56.848C 89.2853 56.848 88.6373 55.624 88.6373 54.076L 88.6373 52.762C 88.6373 51.142 89.5013 50.152 90.9413 50.152C 92.4173 50.152 93.2453 51.178 93.2453 52.888L 93.2453 54.076C 93.2453 55.606 92.4713 56.848 90.9413 56.848ZM 103.712 49L 102.272 49L 102.272 54.616C 102.272 55.858 101.426 56.812 100.076 56.812C 99.0141 56.812 98.0241 56.416 98.0241 54.598L 98.0241 49L 96.5841 49L 96.5841 54.616C 96.5841 57.136 97.9341 58.144 99.8601 58.144C 101.192 58.144 101.822 57.802 102.272 57.118L 102.272 58L 103.712 58L 103.712 49ZM 105.267 50.296L 106.419 50.296L 106.419 55.228C 106.419 57.1 107.031 58 109.155 58L 109.929 58L 109.929 56.632L 109.209 56.632C 108.003 56.632 107.859 56.11 107.859 54.868L 107.859 50.296L 109.929 50.296L 109.929 49L 107.859 49L 107.859 47.02L 106.419 47.02L 106.419 49L 105.267 49L 105.267 50.296ZM 118.774 52.888C 118.774 50.314 117.406 48.856 115.03 48.856C 112.672 48.856 111.286 50.332 111.286 52.888L 111.286 54.076C 111.286 56.56 112.636 58.144 115.03 58.144C 117.622 58.144 118.774 56.416 118.774 54.076L 118.774 52.888ZM 115.03 56.848C 113.374 56.848 112.726 55.624 112.726 54.076L 112.726 52.888C 112.726 51.196 113.554 50.152 115.03 50.152C 116.506 50.152 117.334 51.178 117.334 52.888L 117.334 54.076C 117.334 55.606 116.56 56.848 115.03 56.848ZM 126.768 50.08C 126.192 49.27 125.418 48.856 124.194 48.856C 123.096 48.856 122.484 49.252 122.106 49.882L 122.106 49L 120.666 49L 120.666 58L 122.106 58L 122.106 52.366C 122.106 51.016 122.934 50.188 124.032 50.188C 124.698 50.188 125.166 50.422 125.544 50.944L 126.768 50.08ZM 133.888 50.35C 133.186 49.234 132.07 48.856 130.612 48.856C 128.47 48.856 127.39 49.918 127.39 51.412C 127.39 53.374 128.884 53.986 130.396 54.094C 132.142 54.22 132.718 54.562 132.718 55.534C 132.718 56.344 131.998 56.812 130.792 56.812C 129.496 56.812 128.848 56.542 128.362 55.894L 127.3 56.65C 127.984 57.586 128.938 58.144 130.774 58.144C 133.096 58.144 134.158 57.064 134.158 55.498C 134.158 53.428 132.61 52.942 130.918 52.816C 129.73 52.726 128.83 52.42 128.83 51.394C 128.83 50.602 129.514 50.188 130.576 50.188C 131.818 50.188 132.322 50.476 132.808 51.106L 133.888 50.35Z"/>
<path id="erd11path27_fill" d="M 1.53 4.58L 1.53 17L 9.018 17L 9.018 15.596L 3.078 15.596L 3.078 11.276L 8.478 11.276L 8.478 9.872L 3.078 9.872L 3.078 5.984L 9.018 5.984L 9.018 4.58L 1.53 4.58ZM 10.4583 14.372C 10.4583 16.118 11.5923 17.144 13.6803 17.144C 14.8503 17.144 15.4623 16.946 15.9663 16.118L 15.9663 17L 17.4063 17L 17.4063 10.754C 17.4063 8.594 16.2723 7.856 13.9863 7.856C 12.2763 7.856 11.3583 8.306 10.7283 9.35L 11.8083 10.106C 12.3123 9.278 12.8883 9.188 13.9683 9.188C 15.3723 9.188 15.9663 9.476 15.9663 10.754L 15.9663 11.798L 13.8243 11.798C 11.8443 11.798 10.4583 12.428 10.4583 14.372ZM 15.9663 13.544C 15.9663 15.56 15.0123 15.812 13.6803 15.812C 12.6183 15.812 11.8983 15.416 11.8983 14.408C 11.8983 13.508 12.4023 13.022 13.8243 13.022L 15.9663 13.022L 15.9663 13.544ZM 25.8521 9.08C 25.2761 8.27 24.5021 7.856 23.2781 7.856C 22.1801 7.856 21.5681 8.252 21.1901 8.882L 21.1901 8L 19.7501 8L 19.7501 17L 21.1901 17L 21.1901 11.366C 21.1901 10.016 22.0181 9.188 23.1161 9.188C 23.7821 9.188 24.2501 9.422 24.6281 9.944L 25.8521 9.08ZM 26.8341 14.228C 26.8341 16.1 27.5361 17 29.8041 17L 29.8041 15.668C 28.3281 15.668 28.2741 14.84 28.2741 13.868L 28.2741 4.58L 26.8341 4.58L 26.8341 14.228ZM 34.1855 17.216C 33.6455 18.818 33.0875 19.016 31.8995 19.016L 31.8995 20.42C 34.4195 20.42 34.9055 19.448 35.6435 17.288L 38.8115 8L 37.2815 8L 34.9235 14.984L 32.2415 8L 30.6935 8L 34.2215 17.09L 34.1855 17.216ZM 44.6583 17L 46.0983 17L 46.0983 11.384C 46.0983 10.142 46.9443 9.188 48.1143 9.188C 49.1763 9.188 49.9863 9.764 49.9863 11.402L 49.9863 17L 51.4263 17L 51.4263 11.384C 51.4263 10.106 52.2903 9.188 53.4423 9.188C 54.5043 9.188 55.3143 9.764 55.3143 11.402L 55.3143 17L 56.7543 17L 56.7543 11.384C 56.7543 9.044 55.5843 7.856 53.6583 7.856C 52.5603 7.856 51.5703 8.324 50.9583 9.278C 50.4543 8.342 49.5363 7.856 48.3303 7.856C 47.1783 7.856 46.4943 8.27 46.0983 8.882L 46.0983 8L 44.6583 8L 44.6583 17ZM 59.3599 17L 60.7999 17L 60.7999 8L 59.3599 8L 59.3599 17ZM 59.2699 6.2L 60.8899 6.2L 60.8899 4.58L 59.2699 4.58L 59.2699 6.2ZM 63.4141 17L 64.8541 17L 64.8541 11.384C 64.8541 10.142 65.7001 9.188 67.0501 9.188C 68.1121 9.188 69.1021 9.584 69.1021 11.402L 69.1021 17L 70.5421 17L 70.5421 11.384C 70.5421 8.864 69.1921 7.856 67.2661 7.856C 65.9341 7.856 65.3041 8.198 64.8541 8.882L 64.8541 8L 63.4141 8L 63.4141 17ZM 78.3248 14.84C 77.9467 15.506 77.3527 15.848 76.1827 15.848C 74.6167 15.848 73.8787 14.624 73.8787 13.076L 73.8787 12.824L 79.5667 12.824L 79.5667 11.888C 79.5667 9.314 78.3788 7.856 76.0028 7.856C 73.6448 7.856 72.4387 9.332 72.4387 11.888L 72.4387 13.076C 72.4387 15.578 73.8787 17.144 76.2908 17.144C 77.8567 17.144 78.8107 16.73 79.4407 15.632L 78.3248 14.84ZM 76.0028 9.152C 77.3708 9.152 78.0368 10.052 78.1087 11.564L 73.8787 11.564C 73.9688 10.07 74.6167 9.152 76.0028 9.152ZM 87.7798 9.08C 87.2038 8.27 86.4298 7.856 85.2058 7.856C 84.1078 7.856 83.4958 8.252 83.1178 8.882L 83.1178 8L 81.6778 8L 81.6778 17L 83.1178 17L 83.1178 11.366C 83.1178 10.016 83.9458 9.188 85.0438 9.188C 85.7098 9.188 86.1778 9.422 86.5558 9.944L 87.7798 9.08ZM 94.8998 9.35C 94.1978 8.234 93.0818 7.856 91.6238 7.856C 89.4818 7.856 88.4018 8.918 88.4018 10.412C 88.4018 12.374 89.8958 12.986 91.4078 13.094C 93.1538 13.22 93.7298 13.562 93.7298 14.534C 93.7298 15.344 93.0098 15.812 91.8038 15.812C 90.5078 15.812 89.8598 15.542 89.3738 14.894L 88.3118 15.65C 88.9958 16.586 89.9498 17.144 91.7858 17.144C 94.1078 17.144 95.1698 16.064 95.1698 14.498C 95.1698 12.428 93.6218 11.942 91.9298 11.816C 90.7418 11.726 89.8418 11.42 89.8418 10.394C 89.8418 9.602 90.5258 9.188 91.5878 9.188C 92.8298 9.188 93.3338 9.476 93.8198 10.106L 94.8998 9.35ZM 107.749 9.08C 107.173 8.27 106.399 7.856 105.175 7.856C 104.077 7.856 103.465 8.252 103.087 8.882L 103.087 8L 101.647 8L 101.647 17L 103.087 17L 103.087 11.366C 103.087 10.016 103.915 9.188 105.013 9.188C 105.679 9.188 106.147 9.422 106.525 9.944L 107.749 9.08ZM 114.167 14.84C 113.789 15.506 113.195 15.848 112.025 15.848C 110.459 15.848 109.721 14.624 109.721 13.076L 109.721 12.824L 115.409 12.824L 115.409 11.888C 115.409 9.314 114.221 7.856 111.845 7.856C 109.487 7.856 108.281 9.332 108.281 11.888L 108.281 13.076C 108.281 15.578 109.721 17.144 112.133 17.144C 113.699 17.144 114.653 16.73 115.283 15.632L 114.167 14.84ZM 111.845 9.152C 113.213 9.152 113.879 10.052 113.951 11.564L 109.721 11.564C 109.811 10.07 110.459 9.152 111.845 9.152ZM 122.706 10.268L 125.1 17L 126.36 17L 128.97 8L 127.44 8L 125.64 14.372L 123.246 8L 122.04 8L 119.772 14.318L 117.972 8L 116.442 8L 119.052 17L 120.312 17L 122.706 10.268ZM 129.866 14.372C 129.866 16.118 131 17.144 133.088 17.144C 134.258 17.144 134.87 16.946 135.374 16.118L 135.374 17L 136.814 17L 136.814 10.754C 136.814 8.594 135.68 7.856 133.394 7.856C 131.684 7.856 130.766 8.306 130.136 9.35L 131.216 10.106C 131.72 9.278 132.296 9.188 133.376 9.188C 134.78 9.188 135.374 9.476 135.374 10.754L 135.374 11.798L 133.232 11.798C 131.252 11.798 129.866 12.428 129.866 14.372ZM 135.374 13.544C 135.374 15.56 134.42 15.812 133.088 15.812C 132.026 15.812 131.306 15.416 131.306 14.408C 131.306 13.508 131.81 13.022 133.232 13.022L 135.374 13.022L 135.374 13.544ZM 145.26 9.08C 144.684 8.27 143.91 7.856 142.686 7.856C 141.588 7.856 140.976 8.252 140.598 8.882L 140.598 8L 139.158 8L 139.158 17L 140.598 17L 140.598 11.366C 140.598 10.016 141.426 9.188 142.524 9.188C 143.19 9.188 143.658 9.422 144.036 9.944L 145.26 9.08ZM 151.84 8.9C 151.354 8.234 150.58 7.856 149.392 7.856C 147.16 7.856 145.792 9.314 145.792 11.888L 145.792 13.076C 145.792 15.416 146.944 17.144 149.392 17.144C 150.58 17.144 151.354 16.838 151.84 16.208L 151.84 17L 153.28 17L 153.28 4.58L 151.84 4.58L 151.84 8.9ZM 149.536 15.848C 148.006 15.848 147.232 14.606 147.232 13.076L 147.232 11.888C 147.232 10.178 148.06 9.152 149.536 9.152C 151.012 9.152 151.84 10.196 151.84 11.888L 151.84 13.202C 151.84 14.696 151.138 15.848 149.536 15.848Z"/>
<path id="erd11path28_fill" d="M 3.042 4.58L 1.53 4.58L 1.53 17L 3.078 17L 3.078 7.946L 6.048 14.408L 7.434 14.408L 10.458 7.892L 10.458 17L 12.006 17L 12.006 4.58L 10.476 4.58L 6.768 12.32L 3.042 4.58ZM 21.7432 11.888C 21.7432 9.314 20.3752 7.856 17.9992 7.856C 15.6412 7.856 14.2552 9.332 14.2552 11.888L 14.2552 13.076C 14.2552 15.56 15.6052 17.144 17.9992 17.144C 20.5912 17.144 21.7432 15.416 21.7432 13.076L 21.7432 11.888ZM 17.9992 15.848C 16.3432 15.848 15.6952 14.624 15.6952 13.076L 15.6952 11.888C 15.6952 10.196 16.5232 9.152 17.9992 9.152C 19.4752 9.152 20.3032 10.178 20.3032 11.888L 20.3032 13.076C 20.3032 14.606 19.5292 15.848 17.9992 15.848ZM 29.0708 14.84C 28.6928 15.506 28.0988 15.848 26.9288 15.848C 25.3628 15.848 24.6248 14.624 24.6248 13.076L 24.6248 12.824L 30.3128 12.824L 30.3128 11.888C 30.3128 9.314 29.1248 7.856 26.7488 7.856C 24.3908 7.856 23.1848 9.332 23.1848 11.888L 23.1848 13.076C 23.1848 15.578 24.6248 17.144 27.0368 17.144C 28.6028 17.144 29.5568 16.73 30.1868 15.632L 29.0708 14.84ZM 26.7488 9.152C 28.1168 9.152 28.7828 10.052 28.8548 11.564L 24.6248 11.564C 24.7148 10.07 25.3628 9.152 26.7488 9.152ZM 37.8599 14.84C 37.4819 15.56 36.7079 15.848 35.8619 15.848C 34.1339 15.848 33.4139 14.624 33.4139 13.076L 33.4139 11.888C 33.4139 10.196 34.3139 9.152 35.8619 9.152C 36.6899 9.152 37.4459 9.476 37.8419 10.052L 38.9759 9.26C 38.3279 8.342 37.2119 7.856 35.8619 7.856C 33.4319 7.856 31.9739 9.332 31.9739 11.888L 31.9739 13.076C 31.9739 15.56 33.3959 17.144 35.8619 17.144C 37.3199 17.144 38.4179 16.676 38.9759 15.632L 37.8599 14.84ZM 47.46 11.888C 47.46 9.314 46.092 7.856 43.716 7.856C 41.358 7.856 39.972 9.332 39.972 11.888L 39.972 13.076C 39.972 15.56 41.322 17.144 43.716 17.144C 46.308 17.144 47.46 15.416 47.46 13.076L 47.46 11.888ZM 43.716 15.848C 42.06 15.848 41.412 14.624 41.412 13.076L 41.412 11.888C 41.412 10.196 42.24 9.152 43.716 9.152C 45.192 9.152 46.02 10.178 46.02 11.888L 46.02 13.076C 46.02 14.606 45.246 15.848 43.716 15.848ZM 59.2876 14.84C 58.9096 15.56 58.1356 15.848 57.2896 15.848C 55.5616 15.848 54.8416 14.624 54.8416 13.076L 54.8416 11.888C 54.8416 10.196 55.7416 9.152 57.2896 9.152C 58.1176 9.152 58.8736 9.476 59.2696 10.052L 60.4036 9.26C 59.7556 8.342 58.6396 7.856 57.2896 7.856C 54.8596 7.856 53.4016 9.332 53.4016 11.888L 53.4016 13.076C 53.4016 15.56 54.8236 17.144 57.2896 17.144C 58.7476 17.144 59.8456 16.676 60.4036 15.632L 59.2876 14.84ZM 68.8877 11.888C 68.8877 9.314 67.5197 7.856 65.1437 7.856C 62.7857 7.856 61.3997 9.332 61.3997 11.888L 61.3997 13.076C 61.3997 15.56 62.7497 17.144 65.1437 17.144C 67.7357 17.144 68.8877 15.416 68.8877 13.076L 68.8877 11.888ZM 65.1437 15.848C 63.4877 15.848 62.8397 14.624 62.8397 13.076L 62.8397 11.888C 62.8397 10.196 63.6677 9.152 65.1437 9.152C 66.6197 9.152 67.4477 10.178 67.4477 11.888L 67.4477 13.076C 67.4477 14.606 66.6737 15.848 65.1437 15.848ZM 70.7794 17L 72.2194 17L 72.2194 11.384C 72.2194 10.142 73.0654 9.188 74.2354 9.188C 75.2974 9.188 76.1074 9.764 76.1074 11.402L 76.1074 17L 77.5474 17L 77.5474 11.384C 77.5474 10.106 78.4114 9.188 79.5634 9.188C 80.6254 9.188 81.4354 9.764 81.4354 11.402L 81.4354 17L 82.8754 17L 82.8754 11.384C 82.8754 9.044 81.7054 7.856 79.7794 7.856C 78.6814 7.856 77.6914 8.324 77.0794 9.278C 76.5754 8.342 75.6574 7.856 74.4514 7.856C 73.2994 7.856 72.6154 8.27 72.2194 8.882L 72.2194 8L 70.7794 8L 70.7794 17ZM 86.651 8.9L 86.651 8L 85.211 8L 85.211 20.42L 86.651 20.42L 86.651 16.1C 87.137 16.766 87.911 17.144 89.099 17.144C 91.547 17.144 92.699 15.416 92.699 13.076L 92.699 11.888C 92.699 9.314 91.331 7.856 89.099 7.856C 87.911 7.856 87.137 8.234 86.651 8.9ZM 88.955 15.848C 87.299 15.848 86.651 14.624 86.651 13.076L 86.651 11.762C 86.651 10.142 87.515 9.152 88.955 9.152C 90.431 9.152 91.259 10.178 91.259 11.888L 91.259 13.076C 91.259 14.606 90.485 15.848 88.955 15.848ZM 94.1477 14.372C 94.1477 16.118 95.2817 17.144 97.3697 17.144C 98.5397 17.144 99.1517 16.946 99.6557 16.118L 99.6557 17L 101.096 17L 101.096 10.754C 101.096 8.594 99.9617 7.856 97.6757 7.856C 95.9657 7.856 95.0477 8.306 94.4177 9.35L 95.4977 10.106C 96.0017 9.278 96.5777 9.188 97.6577 9.188C 99.0617 9.188 99.6557 9.476 99.6557 10.754L 99.6557 11.798L 97.5137 11.798C 95.5337 11.798 94.1477 12.428 94.1477 14.372ZM 99.6557 13.544C 99.6557 15.56 98.7017 15.812 97.3697 15.812C 96.3077 15.812 95.5877 15.416 95.5877 14.408C 95.5877 13.508 96.0917 13.022 97.5137 13.022L 99.6557 13.022L 99.6557 13.544ZM 103.44 17L 104.88 17L 104.88 11.384C 104.88 10.142 105.726 9.188 107.076 9.188C 108.138 9.188 109.128 9.584 109.128 11.402L 109.128 17L 110.568 17L 110.568 11.384C 110.568 8.864 109.218 7.856 107.292 7.856C 105.96 7.856 105.33 8.198 104.88 8.882L 104.88 8L 103.44 8L 103.44 17ZM 115.326 17.216C 114.786 18.818 114.228 19.016 113.04 19.016L 113.04 20.42C 115.56 20.42 116.046 19.448 116.784 17.288L 119.952 8L 118.422 8L 116.064 14.984L 113.382 8L 111.834 8L 115.362 17.09L 115.326 17.216Z"/>
<path id="erd11path29_fill" d="M 4.8 16.6L 11.088 16.6L 11.088 19L 1.08 19L 1.08 17.032L 6.768 10.36C 7.888 9.08 8.448 7.92 8.448 6.88C 8.448 6.176 8.224 5.624 7.776 5.224C 7.344 4.808 6.784 4.6 6.096 4.6C 5.408 4.6 4.848 4.808 4.416 5.224C 4 5.624 3.776 6.176 3.744 6.88L 1.2 6.88C 1.2 5.504 1.68 4.384 2.64 3.52C 3.6 2.656 4.784 2.224 6.192 2.224C 7.648 2.224 8.84 2.664 9.768 3.544C 10.728 4.44 11.208 5.568 11.208 6.928C 11.208 7.936 10.912 8.888 10.32 9.784C 10.112 10.104 9.864 10.456 9.576 10.84L 8.712 11.92L 4.8 16.6ZM 18.8031 10.192C 17.9391 10.192 17.2671 10.6 16.7871 11.416L 14.2671 11.416L 14.2671 2.44L 23.2431 2.44L 23.2431 5.056L 16.9791 5.056L 16.9791 8.56C 17.6191 7.92 18.4671 7.6 19.5231 7.6C 20.9151 7.6 21.9871 8.12 22.7391 9.16C 23.5071 10.184 23.8911 11.656 23.8911 13.576C 23.8911 15.4 23.4591 16.8 22.5951 17.776C 21.7471 18.736 20.4991 19.216 18.8511 19.216C 17.4751 19.216 16.3231 18.824 15.3951 18.04C 14.4671 17.256 13.9391 16.208 13.8111 14.896L 16.5471 14.896C 16.8511 16.16 17.6031 16.792 18.8031 16.792C 20.3391 16.792 21.1071 15.752 21.1071 13.672C 21.1071 11.352 20.3391 10.192 18.8031 10.192ZM 28.0541 19L 37.3181 2.44L 39.8621 2.44L 30.6221 19L 28.0541 19ZM 42.4541 14.296L 42.4541 15.544C 42.4541 16.712 42.1501 17.616 41.5421 18.256C 40.9501 18.896 40.0621 19.216 38.8781 19.216C 37.7581 19.216 36.8941 18.896 36.2861 18.256C 35.6781 17.616 35.3741 16.712 35.3741 15.544L 35.3741 14.296C 35.3741 13.128 35.6781 12.232 36.2861 11.608C 36.9101 10.968 37.7741 10.648 38.8781 10.648C 40.0301 10.648 40.9101 10.968 41.5181 11.608C 42.1421 12.232 42.4541 13.128 42.4541 14.296ZM 38.9021 17.416C 39.9101 17.416 40.4141 16.784 40.4141 15.52L 40.4141 14.344C 40.4141 13.096 39.9101 12.472 38.9021 12.472C 37.9261 12.472 37.4381 13.096 37.4381 14.344L 37.4381 15.52C 37.4381 16.784 37.9261 17.416 38.9021 17.416ZM 32.7341 5.872L 32.7341 7.12C 32.7341 8.288 32.4301 9.192 31.8221 9.832C 31.2301 10.472 30.3421 10.792 29.1581 10.792C 28.0221 10.792 27.1501 10.472 26.5421 9.832C 25.9341 9.192 25.6301 8.288 25.6301 7.12L 25.6301 5.872C 25.6301 4.704 25.9341 3.808 26.5421 3.184C 27.1661 2.544 28.0381 2.224 29.1581 2.224C 30.3101 2.224 31.1901 2.544 31.7981 3.184C 32.4221 3.808 32.7341 4.704 32.7341 5.872ZM 29.1581 8.992C 30.1661 8.992 30.6701 8.36 30.6701 7.096L 30.6701 5.92C 30.6701 4.672 30.1661 4.048 29.1581 4.048C 28.1981 4.048 27.7181 4.672 27.7181 5.92L 27.7181 7.096C 27.7181 8.36 28.1981 8.992 29.1581 8.992Z"/>
<path id="erd11path30_fill" d="M 9.198 6.47C 8.316 5.102 7.074 4.436 5.094 4.436C 2.25 4.436 1.08 6.002 1.08 7.784C 1.08 9.944 2.592 11.06 4.932 11.42C 7.272 11.78 7.866 12.572 7.866 13.742C 7.866 14.804 7.272 15.74 5.238 15.74C 3.618 15.74 2.898 15.182 2.088 14.228L 0.81 15.11C 1.746 16.46 3.222 17.144 5.238 17.144C 8.334 17.144 9.414 15.29 9.414 13.67C 9.414 11.366 7.956 10.502 5.562 10.088C 3.744 9.764 2.628 9.26 2.628 7.784C 2.628 6.488 3.6 5.84 5.04 5.84C 6.606 5.84 7.326 6.47 7.992 7.334L 9.198 6.47ZM 18.4912 11.888C 18.4912 9.314 17.1232 7.856 14.7472 7.856C 12.3892 7.856 11.0032 9.332 11.0032 11.888L 11.0032 13.076C 11.0032 15.56 12.3532 17.144 14.7472 17.144C 17.3392 17.144 18.4912 15.416 18.4912 13.076L 18.4912 11.888ZM 14.7472 15.848C 13.0912 15.848 12.4432 14.624 12.4432 13.076L 12.4432 11.888C 12.4432 10.196 13.2712 9.152 14.7472 9.152C 16.2232 9.152 17.0512 10.178 17.0512 11.888L 17.0512 13.076C 17.0512 14.606 16.2772 15.848 14.7472 15.848ZM 20.3829 14.228C 20.3829 16.1 21.0849 17 23.3529 17L 23.3529 15.668C 21.8769 15.668 21.8229 14.84 21.8229 13.868L 21.8229 4.58L 20.3829 4.58L 20.3829 14.228ZM 30.9203 8.9C 30.4343 8.234 29.6603 7.856 28.4723 7.856C 26.2403 7.856 24.8723 9.314 24.8723 11.888L 24.8723 13.076C 24.8723 15.416 26.0243 17.144 28.4723 17.144C 29.6603 17.144 30.4343 16.838 30.9203 16.208L 30.9203 17L 32.3603 17L 32.3603 4.58L 30.9203 4.58L 30.9203 8.9ZM 28.6163 15.848C 27.0863 15.848 26.3123 14.606 26.3123 13.076L 26.3123 11.888C 26.3123 10.178 27.1403 9.152 28.6163 9.152C 30.0923 9.152 30.9203 10.196 30.9203 11.888L 30.9203 13.202C 30.9203 14.696 30.2183 15.848 28.6163 15.848Z"/>
<path id="erd11path31_fill" d="M 6.264 10.192C 5.4 10.192 4.728 10.6 4.248 11.416L 1.728 11.416L 1.728 2.44L 10.704 2.44L 10.704 5.056L 4.44 5.056L 4.44 8.56C 5.08 7.92 5.928 7.6 6.984 7.6C 8.376 7.6 9.448 8.12 10.2 9.16C 10.968 10.184 11.352 11.656 11.352 13.576C 11.352 15.4 10.92 16.8 10.056 17.776C 9.208 18.736 7.96 19.216 6.312 19.216C 4.936 19.216 3.784 18.824 2.856 18.04C 1.928 17.256 1.4 16.208 1.272 14.896L 4.008 14.896C 4.312 16.16 5.064 16.792 6.264 16.792C 7.8 16.792 8.568 15.752 8.568 13.672C 8.568 11.352 7.8 10.192 6.264 10.192ZM 18.8031 10.192C 17.9391 10.192 17.2671 10.6 16.7871 11.416L 14.2671 11.416L 14.2671 2.44L 23.2431 2.44L 23.2431 5.056L 16.9791 5.056L 16.9791 8.56C 17.6191 7.92 18.4671 7.6 19.5231 7.6C 20.9151 7.6 21.9871 8.12 22.7391 9.16C 23.5071 10.184 23.8911 11.656 23.8911 13.576C 23.8911 15.4 23.4591 16.8 22.5951 17.776C 21.7471 18.736 20.4991 19.216 18.8511 19.216C 17.4751 19.216 16.3231 18.824 15.3951 18.04C 14.4671 17.256 13.9391 16.208 13.8111 14.896L 16.5471 14.896C 16.8511 16.16 17.6031 16.792 18.8031 16.792C 20.3391 16.792 21.1071 15.752 21.1071 13.672C 21.1071 11.352 20.3391 10.192 18.8031 10.192ZM 28.0541 19L 37.3181 2.44L 39.8621 2.44L 30.6221 19L 28.0541 19ZM 42.4541 14.296L 42.4541 15.544C 42.4541 16.712 42.1501 17.616 41.5421 18.256C 40.9501 18.896 40.0621 19.216 38.8781 19.216C 37.7581 19.216 36.8941 18.896 36.2861 18.256C 35.6781 17.616 35.3741 16.712 35.3741 15.544L 35.3741 14.296C 35.3741 13.128 35.6781 12.232 36.2861 11.608C 36.9101 10.968 37.7741 10.648 38.8781 10.648C 40.0301 10.648 40.9101 10.968 41.5181 11.608C 42.1421 12.232 42.4541 13.128 42.4541 14.296ZM 38.9021 17.416C 39.9101 17.416 40.4141 16.784 40.4141 15.52L 40.4141 14.344C 40.4141 13.096 39.9101 12.472 38.9021 12.472C 37.9261 12.472 37.4381 13.096 37.4381 14.344L 37.4381 15.52C 37.4381 16.784 37.9261 17.416 38.9021 17.416ZM 32.7341 5.872L 32.7341 7.12C 32.7341 8.288 32.4301 9.192 31.8221 9.832C 31.2301 10.472 30.3421 10.792 29.1581 10.792C 28.0221 10.792 27.1501 10.472 26.5421 9.832C 25.9341 9.192 25.6301 8.288 25.6301 7.12L 25.6301 5.872C 25.6301 4.704 25.9341 3.808 26.5421 3.184C 27.1661 2.544 28.0381 2.224 29.1581 2.224C 30.3101 2.224 31.1901 2.544 31.7981 3.184C 32.4221 3.808 32.7341 4.704 32.7341 5.872ZM 29.1581 8.992C 30.1661 8.992 30.6701 8.36 30.6701 7.096L 30.6701 5.92C 30.6701 4.672 30.1661 4.048 29.1581 4.048C 28.1981 4.048 27.7181 4.672 27.7181 5.92L 27.7181 7.096C 27.7181 8.36 28.1981 8.992 29.1581 8.992Z"/>
<path id="erd11path32_fill" d="M 4.8 16.6L 11.088 16.6L 11.088 19L 1.08 19L 1.08 17.032L 6.768 10.36C 7.888 9.08 8.448 7.92 8.448 6.88C 8.448 6.176 8.224 5.624 7.776 5.224C 7.344 4.808 6.784 4.6 6.096 4.6C 5.408 4.6 4.848 4.808 4.416 5.224C 4 5.624 3.776 6.176 3.744 6.88L 1.2 6.88C 1.2 5.504 1.68 4.384 2.64 3.52C 3.6 2.656 4.784 2.224 6.192 2.224C 7.648 2.224 8.84 2.664 9.768 3.544C 10.728 4.44 11.208 5.568 11.208 6.928C 11.208 7.936 10.912 8.888 10.32 9.784C 10.112 10.104 9.864 10.456 9.576 10.84L 8.712 11.92L 4.8 16.6ZM 18.2511 11.656L 17.0991 11.656L 17.0991 9.256L 18.2511 9.256C 19.1151 9.256 19.7711 9.04 20.2191 8.608C 20.6831 8.176 20.9151 7.568 20.9151 6.784C 20.9151 6.16 20.6911 5.64 20.2431 5.224C 19.7951 4.808 19.2351 4.6 18.5631 4.6C 17.9071 4.6 17.3631 4.792 16.9311 5.176C 16.5151 5.56 16.2751 6.048 16.2111 6.64L 13.6671 6.64C 13.6831 5.344 14.1791 4.288 15.1551 3.472C 16.1311 2.64 17.2991 2.224 18.6591 2.224C 20.1151 2.224 21.3071 2.656 22.2351 3.52C 23.1951 4.384 23.6751 5.448 23.6751 6.712C 23.6751 7.544 23.4671 8.28 23.0511 8.92C 22.6351 9.56 22.0591 10.056 21.3231 10.408C 23.0511 11.176 23.9151 12.512 23.9151 14.416C 23.9151 15.776 23.4591 16.92 22.5471 17.848C 21.6351 18.76 20.4031 19.216 18.8511 19.216C 17.2511 19.216 15.9711 18.808 15.0111 17.992C 14.0511 17.16 13.5311 16.056 13.4511 14.68L 15.9951 14.68C 16.0911 15.336 16.3711 15.856 16.8351 16.24C 17.2991 16.608 17.9311 16.792 18.7311 16.792C 19.4511 16.792 20.0351 16.568 20.4831 16.12C 20.9311 15.656 21.1551 15.064 21.1551 14.344C 21.1551 13.48 20.9071 12.816 20.4111 12.352C 19.9151 11.888 19.1951 11.656 18.2511 11.656ZM 28.0541 19L 37.3181 2.44L 39.8621 2.44L 30.6221 19L 28.0541 19ZM 42.4541 14.296L 42.4541 15.544C 42.4541 16.712 42.1501 17.616 41.5421 18.256C 40.9501 18.896 40.0621 19.216 38.8781 19.216C 37.7581 19.216 36.8941 18.896 36.2861 18.256C 35.6781 17.616 35.3741 16.712 35.3741 15.544L 35.3741 14.296C 35.3741 13.128 35.6781 12.232 36.2861 11.608C 36.9101 10.968 37.7741 10.648 38.8781 10.648C 40.0301 10.648 40.9101 10.968 41.5181 11.608C 42.1421 12.232 42.4541 13.128 42.4541 14.296ZM 38.9021 17.416C 39.9101 17.416 40.4141 16.784 40.4141 15.52L 40.4141 14.344C 40.4141 13.096 39.9101 12.472 38.9021 12.472C 37.9261 12.472 37.4381 13.096 37.4381 14.344L 37.4381 15.52C 37.4381 16.784 37.9261 17.416 38.9021 17.416ZM 32.7341 5.872L 32.7341 7.12C 32.7341 8.288 32.4301 9.192 31.8221 9.832C 31.2301 10.472 30.3421 10.792 29.1581 10.792C 28.0221 10.792 27.1501 10.472 26.5421 9.832C 25.9341 9.192 25.6301 8.288 25.6301 7.12L 25.6301 5.872C 25.6301 4.704 25.9341 3.808 26.5421 3.184C 27.1661 2.544 28.0381 2.224 29.1581 2.224C 30.3101 2.224 31.1901 2.544 31.7981 3.184C 32.4221 3.808 32.7341 4.704 32.7341 5.872ZM 29.1581 8.992C 30.1661 8.992 30.6701 8.36 30.6701 7.096L 30.6701 5.92C 30.6701 4.672 30.1661 4.048 29.1581 4.048C 28.1981 4.048 27.7181 4.672 27.7181 5.92L 27.7181 7.096C 27.7181 8.36 28.1981 8.992 29.1581 8.992Z"/>
<path id="erd11path33_fill" d="M 5.544 2.44L 8.16 2.44L 8.16 19L 5.376 19L 5.376 5.44L 3 7.072L 3 4.264L 5.544 2.44ZM 18.8031 10.192C 17.9391 10.192 17.2671 10.6 16.7871 11.416L 14.2671 11.416L 14.2671 2.44L 23.2431 2.44L 23.2431 5.056L 16.9791 5.056L 16.9791 8.56C 17.6191 7.92 18.4671 7.6 19.5231 7.6C 20.9151 7.6 21.9871 8.12 22.7391 9.16C 23.5071 10.184 23.8911 11.656 23.8911 13.576C 23.8911 15.4 23.4591 16.8 22.5951 17.776C 21.7471 18.736 20.4991 19.216 18.8511 19.216C 17.4751 19.216 16.3231 18.824 15.3951 18.04C 14.4671 17.256 13.9391 16.208 13.8111 14.896L 16.5471 14.896C 16.8511 16.16 17.6031 16.792 18.8031 16.792C 20.3391 16.792 21.1071 15.752 21.1071 13.672C 21.1071 11.352 20.3391 10.192 18.8031 10.192ZM 28.0541 19L 37.3181 2.44L 39.8621 2.44L 30.6221 19L 28.0541 19ZM 42.4541 14.296L 42.4541 15.544C 42.4541 16.712 42.1501 17.616 41.5421 18.256C 40.9501 18.896 40.0621 19.216 38.8781 19.216C 37.7581 19.216 36.8941 18.896 36.2861 18.256C 35.6781 17.616 35.3741 16.712 35.3741 15.544L 35.3741 14.296C 35.3741 13.128 35.6781 12.232 36.2861 11.608C 36.9101 10.968 37.7741 10.648 38.8781 10.648C 40.0301 10.648 40.9101 10.968 41.5181 11.608C 42.1421 12.232 42.4541 13.128 42.4541 14.296ZM 38.9021 17.416C 39.9101 17.416 40.4141 16.784 40.4141 15.52L 40.4141 14.344C 40.4141 13.096 39.9101 12.472 38.9021 12.472C 37.9261 12.472 37.4381 13.096 37.4381 14.344L 37.4381 15.52C 37.4381 16.784 37.9261 17.416 38.9021 17.416ZM 32.7341 5.872L 32.7341 7.12C 32.7341 8.288 32.4301 9.192 31.8221 9.832C 31.2301 10.472 30.3421 10.792 29.1581 10.792C 28.0221 10.792 27.1501 10.472 26.5421 9.832C 25.9341 9.192 25.6301 8.288 25.6301 7.12L 25.6301 5.872C 25.6301 4.704 25.9341 3.808 26.5421 3.184C 27.1661 2.544 28.0381 2.224 29.1581 2.224C 30.3101 2.224 31.1901 2.544 31.7981 3.184C 32.4221 3.808 32.7341 4.704 32.7341 5.872ZM 29.1581 8.992C 30.1661 8.992 30.6701 8.36 30.6701 7.096L 30.6701 5.92C 30.6701 4.672 30.1661 4.048 29.1581 4.048C 28.1981 4.048 27.7181 4.672 27.7181 5.92L 27.7181 7.096C 27.7181 8.36 28.1981 8.992 29.1581 8.992Z"/>
<path id="erd11path34_fill" d="M 3.888 4.864L 3.888 7.576L 1.488 7.576L 1.488 2.44L 11.232 2.44L 11.232 4.576L 6.264 19L 3.36 19L 8.352 4.864L 3.888 4.864ZM 15.5151 19L 24.7791 2.44L 27.3231 2.44L 18.0831 19L 15.5151 19ZM 29.9151 14.296L 29.9151 15.544C 29.9151 16.712 29.6111 17.616 29.0031 18.256C 28.4111 18.896 27.5231 19.216 26.3391 19.216C 25.2191 19.216 24.3551 18.896 23.7471 18.256C 23.1391 17.616 22.8351 16.712 22.8351 15.544L 22.8351 14.296C 22.8351 13.128 23.1391 12.232 23.7471 11.608C 24.3711 10.968 25.2351 10.648 26.3391 10.648C 27.4911 10.648 28.3711 10.968 28.9791 11.608C 29.6031 12.232 29.9151 13.128 29.9151 14.296ZM 26.3631 17.416C 27.3711 17.416 27.8751 16.784 27.8751 15.52L 27.8751 14.344C 27.8751 13.096 27.3711 12.472 26.3631 12.472C 25.3871 12.472 24.8991 13.096 24.8991 14.344L 24.8991 15.52C 24.8991 16.784 25.3871 17.416 26.3631 17.416ZM 20.1951 5.872L 20.1951 7.12C 20.1951 8.288 19.8911 9.192 19.2831 9.832C 18.6911 10.472 17.8031 10.792 16.6191 10.792C 15.4831 10.792 14.6111 10.472 14.0031 9.832C 13.3951 9.192 13.0911 8.288 13.0911 7.12L 13.0911 5.872C 13.0911 4.704 13.3951 3.808 14.0031 3.184C 14.6271 2.544 15.4991 2.224 16.6191 2.224C 17.7711 2.224 18.6511 2.544 19.2591 3.184C 19.8831 3.808 20.1951 4.704 20.1951 5.872ZM 16.6191 8.992C 17.6271 8.992 18.1311 8.36 18.1311 7.096L 18.1311 5.92C 18.1311 4.672 17.6271 4.048 16.6191 4.048C 15.6591 4.048 15.1791 4.672 15.1791 5.92L 15.1791 7.096C 15.1791 8.36 15.6591 8.992 16.6191 8.992Z"/>
<path id="erd11path35_fill" d="M 5.544 2.44L 8.16 2.44L 8.16 19L 5.376 19L 5.376 5.44L 3 7.072L 3 4.264L 5.544 2.44ZM 18.0831 2.44L 20.6991 2.44L 20.6991 19L 17.9151 19L 17.9151 5.44L 15.5391 7.072L 15.5391 4.264L 18.0831 2.44ZM 28.0541 19L 37.3181 2.44L 39.8621 2.44L 30.6221 19L 28.0541 19ZM 42.4541 14.296L 42.4541 15.544C 42.4541 16.712 42.1501 17.616 41.5421 18.256C 40.9501 18.896 40.0621 19.216 38.8781 19.216C 37.7581 19.216 36.8941 18.896 36.2861 18.256C 35.6781 17.616 35.3741 16.712 35.3741 15.544L 35.3741 14.296C 35.3741 13.128 35.6781 12.232 36.2861 11.608C 36.9101 10.968 37.7741 10.648 38.8781 10.648C 40.0301 10.648 40.9101 10.968 41.5181 11.608C 42.1421 12.232 42.4541 13.128 42.4541 14.296ZM 38.9021 17.416C 39.9101 17.416 40.4141 16.784 40.4141 15.52L 40.4141 14.344C 40.4141 13.096 39.9101 12.472 38.9021 12.472C 37.9261 12.472 37.4381 13.096 37.4381 14.344L 37.4381 15.52C 37.4381 16.784 37.9261 17.416 38.9021 17.416ZM 32.7341 5.872L 32.7341 7.12C 32.7341 8.288 32.4301 9.192 31.8221 9.832C 31.2301 10.472 30.3421 10.792 29.1581 10.792C 28.0221 10.792 27.1501 10.472 26.5421 9.832C 25.9341 9.192 25.6301 8.288 25.6301 7.12L 25.6301 5.872C 25.6301 4.704 25.9341 3.808 26.5421 3.184C 27.1661 2.544 28.0381 2.224 29.1581 2.224C 30.3101 2.224 31.1901 2.544 31.7981 3.184C 32.4221 3.808 32.7341 4.704 32.7341 5.872ZM 29.1581 8.992C 30.1661 8.992 30.6701 8.36 30.6701 7.096L 30.6701 5.92C 30.6701 4.672 30.1661 4.048 29.1581 4.048C 28.1981 4.048 27.7181 4.672 27.7181 5.92L 27.7181 7.096C 27.7181 8.36 28.1981 8.992 29.1581 8.992Z"/>
<path id="erd11path36_fill" d="M 4.8 16.6L 11.088 16.6L 11.088 19L 1.08 19L 1.08 17.032L 6.768 10.36C 7.888 9.08 8.448 7.92 8.448 6.88C 8.448 6.176 8.224 5.624 7.776 5.224C 7.344 4.808 6.784 4.6 6.096 4.6C 5.408 4.6 4.848 4.808 4.416 5.224C 4 5.624 3.776 6.176 3.744 6.88L 1.2 6.88C 1.2 5.504 1.68 4.384 2.64 3.52C 3.6 2.656 4.784 2.224 6.192 2.224C 7.648 2.224 8.84 2.664 9.768 3.544C 10.728 4.44 11.208 5.568 11.208 6.928C 11.208 7.936 10.912 8.888 10.32 9.784C 10.112 10.104 9.864 10.456 9.576 10.84L 8.712 11.92L 4.8 16.6ZM 24.0111 7.288L 24.0111 14.152C 24.0111 15.784 23.5071 17.04 22.4991 17.92C 21.5231 18.784 20.2911 19.216 18.8031 19.216C 17.3311 19.216 16.0911 18.784 15.0831 17.92C 14.0911 17.024 13.5951 15.768 13.5951 14.152L 13.5951 7.312C 13.5951 5.648 14.0911 4.384 15.0831 3.52C 16.0751 2.656 17.3151 2.224 18.8031 2.224C 20.2911 2.224 21.5311 2.656 22.5231 3.52C 23.5151 4.368 24.0111 5.624 24.0111 7.288ZM 21.2271 13.984L 21.2271 7.456C 21.2271 6.576 21.0111 5.888 20.5791 5.392C 20.1471 4.896 19.5551 4.648 18.8031 4.648C 18.0351 4.648 17.4351 4.896 17.0031 5.392C 16.5711 5.888 16.3551 6.576 16.3551 7.456L 16.3551 13.984C 16.3551 14.864 16.5711 15.552 17.0031 16.048C 17.4351 16.544 18.0351 16.792 18.8031 16.792C 19.5551 16.792 20.1471 16.544 20.5791 16.048C 21.0111 15.552 21.2271 14.864 21.2271 13.984ZM 28.0541 19L 37.3181 2.44L 39.8621 2.44L 30.6221 19L 28.0541 19ZM 42.4541 14.296L 42.4541 15.544C 42.4541 16.712 42.1501 17.616 41.5421 18.256C 40.9501 18.896 40.0621 19.216 38.8781 19.216C 37.7581 19.216 36.8941 18.896 36.2861 18.256C 35.6781 17.616 35.3741 16.712 35.3741 15.544L 35.3741 14.296C 35.3741 13.128 35.6781 12.232 36.2861 11.608C 36.9101 10.968 37.7741 10.648 38.8781 10.648C 40.0301 10.648 40.9101 10.968 41.5181 11.608C 42.1421 12.232 42.4541 13.128 42.4541 14.296ZM 38.9021 17.416C 39.9101 17.416 40.4141 16.784 40.4141 15.52L 40.4141 14.344C 40.4141 13.096 39.9101 12.472 38.9021 12.472C 37.9261 12.472 37.4381 13.096 37.4381 14.344L 37.4381 15.52C 37.4381 16.784 37.9261 17.416 38.9021 17.416ZM 32.7341 5.872L 32.7341 7.12C 32.7341 8.288 32.4301 9.192 31.8221 9.832C 31.2301 10.472 30.3421 10.792 29.1581 10.792C 28.0221 10.792 27.1501 10.472 26.5421 9.832C 25.9341 9.192 25.6301 8.288 25.6301 7.12L 25.6301 5.872C 25.6301 4.704 25.9341 3.808 26.5421 3.184C 27.1661 2.544 28.0381 2.224 29.1581 2.224C 30.3101 2.224 31.1901 2.544 31.7981 3.184C 32.4221 3.808 32.7341 4.704 32.7341 5.872ZM 29.1581 8.992C 30.1661 8.992 30.6701 8.36 30.6701 7.096L 30.6701 5.92C 30.6701 4.672 30.1661 4.048 29.1581 4.048C 28.1981 4.048 27.7181 4.672 27.7181 5.92L 27.7181 7.096C 27.7181 8.36 28.1981 8.992 29.1581 8.992Z"/>
<path id="erd11path37_fill" d="M 296.257 98.6566C 274.326 41.009 218.521 -1.86679e-07 153.121 -1.86679e-07C 135.303 -1.86679e-07 118.17 3.13196 102.211 8.71075C 71.0781 19.6726 44.6441 40.3239 26.434 67.1413C 9.79037 91.6097 0 121.265 0 153.074C 0 172.258 3.52453 190.56 9.98617 207.492C 31.9166 265.14 87.7217 306.149 153.121 306.149C 170.94 306.149 188.073 303.017 204.031 297.438C 235.165 286.476 261.599 265.825 279.809 239.007C 296.452 214.539 306.243 184.883 306.243 153.074C 306.243 133.891 302.718 115.589 296.257 98.6566ZM 236.046 209.352C 224.101 226.871 206.773 240.475 186.409 247.62C 175.933 251.339 164.772 253.297 153.023 253.297C 110.24 253.297 73.7215 226.479 59.3296 188.7C 55.1198 177.641 52.7701 165.602 52.7701 153.074C 52.7701 132.227 59.1338 112.848 70.099 96.797C 82.0433 79.2776 99.3722 65.6732 119.736 58.5284C 130.212 54.8092 141.373 52.8517 153.121 52.8517C 195.905 52.8517 232.423 79.6691 246.815 117.448C 251.025 128.508 253.375 140.546 253.375 153.074C 253.375 173.921 247.011 193.3 236.046 209.352Z"/>
<path id="erd11path38_fill" d="M 49.4413 0L 7.46946e-07 18.7917C 21.9304 76.4393 77.7355 117.448 143.135 117.448L 143.135 64.5966C 100.351 64.5966 63.8332 37.7792 49.4413 0Z"/>
<path id="erd11path39_stroke" d="M 49.4413 0L 50.5382 -0.417843C 50.3076 -1.0233 49.63 -1.32736 49.0243 -1.09717L 49.4413 0ZM 7.46946e-07 18.7917L -0.417014 17.6946C -0.708059 17.8052 -0.943226 18.0269 -1.07076 18.3109C -1.1983 18.595 -1.20775 18.9181 -1.09705 19.2091L 7.46946e-07 18.7917ZM 143.135 117.448L 143.135 118.622C 143.783 118.622 144.309 118.097 144.309 117.448L 143.135 117.448ZM 143.135 64.5966L 144.309 64.5966C 144.309 63.9483 143.783 63.4228 143.135 63.4228L 143.135 64.5966ZM 49.0243 -1.09717L -0.417014 17.6946L 0.417015 19.8889L 49.8584 1.09717L 49.0243 -1.09717ZM -1.09705 19.2091C 21.0009 77.2969 77.2323 118.622 143.135 118.622L 143.135 116.275C 78.2387 116.275 22.86 75.5817 1.09705 18.3744L -1.09705 19.2091ZM 144.309 117.448L 144.309 64.5966L 141.961 64.5966L 141.961 117.448L 144.309 117.448ZM 143.135 63.4228C 100.855 63.4228 64.7626 36.9217 50.5382 -0.417843L 48.3445 0.417843C 62.9038 38.6367 99.8478 65.7703 143.135 65.7703L 143.135 63.4228Z"/>
<path id="erd11path40_fill" d="M 52.868 85.933C 52.868 65.0859 59.2317 45.707 70.1969 29.6557L 26.434 2.98686e-06C 9.79037 24.4684 0 54.1241 0 85.933C 0 105.116 3.52453 123.419 9.98617 140.351L 59.4275 121.559C 55.2177 110.499 52.868 98.4608 52.868 85.933Z"/>
<path id="erd11path41_stroke" d="M 70.1969 29.6557L 71.1661 30.3178C 71.3421 30.0601 71.4083 29.7429 71.35 29.4364C 71.2917 29.1298 71.1137 28.8591 70.8554 28.684L 70.1969 29.6557ZM 26.434 2.98686e-06L 27.0924 -0.971665C 26.5565 -1.33486 25.8276 -1.19548 25.4635 -0.660147L 26.434 2.98686e-06ZM 9.98617 140.351L 8.88956 140.769C 9.12047 141.374 9.79781 141.678 10.4032 141.448L 9.98617 140.351ZM 59.4275 121.559L 59.8445 122.656C 60.1356 122.546 60.3708 122.324 60.4983 122.04C 60.6259 121.756 60.6353 121.432 60.5245 121.141L 59.4275 121.559ZM 54.0417 85.933C 54.0417 65.3284 60.3306 46.1792 71.1661 30.3178L 69.2277 28.9936C 58.1328 45.2347 51.6942 64.8435 51.6942 85.933L 54.0417 85.933ZM 70.8554 28.684L 27.0924 -0.971665L 25.7755 0.971671L 69.5385 30.6274L 70.8554 28.684ZM 25.4635 -0.660147C 8.69211 23.9961 -1.17375 53.8805 -1.17375 85.933L 1.17375 85.933C 1.17375 54.3677 10.8886 24.9407 27.4045 0.660153L 25.4635 -0.660147ZM -1.17375 85.933C -1.17375 105.262 2.37773 123.706 8.88956 140.769L 11.0828 139.932C 4.67133 123.132 1.17375 104.971 1.17375 85.933L -1.17375 85.933ZM 10.4032 141.448L 59.8445 122.656L 59.0105 120.462L 9.56916 139.254L 10.4032 141.448ZM 60.5245 121.141C 56.3637 110.211 54.0417 98.3135 54.0417 85.933L 51.6942 85.933C 51.6942 98.6082 54.0716 110.788 58.3306 121.977L 60.5245 121.141Z"/>
<path id="erd11path42_fill" d="M 50.9099 52.8517L 50.9099 4.66698e-08C 33.0914 4.66698e-08 15.9583 3.13196 1.49389e-06 8.71075L 17.6227 58.5284C 28.0004 54.9071 39.2594 52.8517 50.9099 52.8517Z"/>
<path id="erd11path43_stroke" d="M 50.9099 52.8517L 50.9099 54.0255C 51.5581 54.0255 52.0836 53.5 52.0836 52.8517L 50.9099 52.8517ZM 50.9099 4.66698e-08L 52.0836 4.66698e-08C 52.0836 -0.648244 51.5581 -1.17375 50.9099 -1.17375L 50.9099 4.66698e-08ZM 1.49389e-06 8.71075L -0.387338 7.60275C -0.681908 7.70573 -0.923346 7.92177 -1.0583 8.20313C -1.19326 8.48448 -1.21062 8.808 -1.10655 9.10219L 1.49389e-06 8.71075ZM 17.6227 58.5284L 16.5161 58.9198C 16.7316 59.5291 17.3992 59.8496 18.0094 59.6366L 17.6227 58.5284ZM 52.0836 52.8517L 52.0836 4.66698e-08L 49.7361 4.66698e-08L 49.7361 52.8517L 52.0836 52.8517ZM 50.9099 -1.17375C 32.953 -1.17375 15.6891 1.98265 -0.387338 7.60275L 0.387341 9.81875C 16.2275 4.28127 33.2299 1.17375 50.9099 1.17375L 50.9099 -1.17375ZM -1.10655 9.10219L 16.5161 58.9198L 18.7292 58.137L 1.10656 8.31931L -1.10655 9.10219ZM 18.0094 59.6366C 28.2689 56.0566 39.3973 54.0255 50.9099 54.0255L 50.9099 51.678C 39.1214 51.678 27.732 53.7576 17.2359 57.4202L 18.0094 59.6366Z"/>
<path id="erd11path44_fill" d="M 143.233 98.6566C 121.303 41.009 65.4976 4.66698e-08 0.0978977 4.66698e-08L 0.0978977 52.8517C 42.8818 52.8517 79.3999 79.6691 93.7917 117.448C 98.0016 128.508 100.351 140.546 100.351 153.074C 100.351 173.921 93.9875 193.3 83.0223 209.352C 71.0781 226.871 53.7491 240.475 33.3851 247.62C 22.9095 251.339 11.7484 253.297 2.98778e-06 253.297L 2.98778e-06 306.149C 17.8185 306.149 34.9516 303.017 50.9099 297.438C 82.0433 286.476 108.477 265.825 126.687 239.007C 143.331 214.539 153.121 184.883 153.121 153.074C 153.219 133.891 149.695 115.589 143.233 98.6566Z"/>
<path id="erd11path45_stroke" d="M 143.233 98.6566L 142.136 99.0739L 142.136 99.0751L 143.233 98.6566ZM 0.0978977 4.66698e-08L 0.0978977 -1.17375C -0.550346 -1.17375 -1.07585 -0.648244 -1.07585 4.66698e-08L 0.0978977 4.66698e-08ZM 0.0978977 52.8517L -1.07585 52.8517C -1.07585 53.5 -0.550346 54.0255 0.0978977 54.0255L 0.0978977 52.8517ZM 93.7917 117.448L 94.8887 117.031L 94.8886 117.03L 93.7917 117.448ZM 83.0223 209.352L 82.0531 208.69L 82.0525 208.69L 83.0223 209.352ZM 33.3851 247.62L 32.9966 246.513L 32.9924 246.514L 33.3851 247.62ZM 2.98778e-06 253.297L 2.98778e-06 252.123C -0.648241 252.123 -1.17375 252.649 -1.17375 253.297L 2.98778e-06 253.297ZM 2.98778e-06 306.149L -1.17375 306.149C -1.17375 306.797 -0.648241 307.322 2.98778e-06 307.322L 2.98778e-06 306.149ZM 50.9099 297.438L 51.2973 298.546L 51.2997 298.545L 50.9099 297.438ZM 126.687 239.007L 125.717 238.347L 125.716 238.348L 126.687 239.007ZM 153.121 153.074L 151.948 153.068L 151.948 153.074L 153.121 153.074ZM 144.33 98.2392C 122.232 40.1514 66.0008 -1.17375 0.0978977 -1.17375L 0.0978977 1.17375C 64.9943 1.17375 120.373 41.8667 142.136 99.0739L 144.33 98.2392ZM -1.07585 4.66698e-08L -1.07585 52.8517L 1.27165 52.8517L 1.27165 4.66698e-08L -1.07585 4.66698e-08ZM 0.0978977 54.0255C 42.3784 54.0255 78.4705 80.5266 92.6949 117.866L 94.8886 117.03C 80.3293 78.8117 43.3852 51.678 0.0978977 51.678L 0.0978977 54.0255ZM 92.6948 117.866C 96.8555 128.797 99.1775 140.694 99.1775 153.074L 101.525 153.074C 101.525 140.399 99.1476 128.219 94.8887 117.031L 92.6948 117.866ZM 99.1775 153.074C 99.1775 173.679 92.8886 192.828 82.0531 208.69L 83.9915 210.014C 95.0864 193.773 101.525 174.164 101.525 153.074L 99.1775 153.074ZM 82.0525 208.69C 70.2455 226.008 53.1177 239.453 32.9966 246.513L 33.7737 248.728C 54.3805 241.498 71.9106 227.734 83.9921 210.013L 82.0525 208.69ZM 32.9924 246.514C 22.6441 250.188 11.616 252.123 2.98778e-06 252.123L 2.98778e-06 254.471C 11.8809 254.471 23.1748 252.491 33.7778 248.726L 32.9924 246.514ZM -1.17375 253.297L -1.17375 306.149L 1.17375 306.149L 1.17375 253.297L -1.17375 253.297ZM 2.98778e-06 307.322C 17.9569 307.322 35.2208 304.166 51.2973 298.546L 50.5226 296.33C 34.6825 301.867 17.68 304.975 2.98778e-06 304.975L 2.98778e-06 307.322ZM 51.2997 298.545C 82.673 287.499 109.309 266.689 127.658 239.667L 125.716 238.348C 107.645 264.961 81.4136 285.453 50.5201 296.331L 51.2997 298.545ZM 127.658 239.667C 144.429 215.011 154.295 185.127 154.295 153.074L 151.948 153.074C 151.948 184.64 142.233 214.067 125.717 238.347L 127.658 239.667ZM 154.295 153.08C 154.394 133.748 150.842 115.302 144.33 98.2381L 142.136 99.0751C 148.548 115.876 152.045 134.034 151.948 153.068L 154.295 153.08Z"/>
<path id="erd11path46_fill" d="M 93.3022 49.8177L 75.6795 3.73358e-07C 44.6441 10.9618 18.2101 31.6132 0 58.4305L 43.7629 88.0862C 55.6093 70.5669 73.0361 57.0603 93.3022 49.8177Z"/>
<path id="erd11path47_stroke" d="M 93.3022 49.8177L 93.6972 50.9229C 94.3062 50.7053 94.6244 50.036 94.4087 49.4262L 93.3022 49.8177ZM 75.6795 3.73358e-07L 76.7861 -0.391436C 76.57 -1.00236 75.8997 -1.32256 75.2886 -1.10674L 75.6795 3.73358e-07ZM 0 58.4305L -0.971038 57.7712C -1.14602 58.0289 -1.2114 58.3455 -1.15277 58.6515C -1.09414 58.9574 -0.916308 59.2275 -0.658445 59.4022L 0 58.4305ZM 43.7629 88.0862L 43.1045 89.0579C 43.3624 89.2327 43.6791 89.2977 43.985 89.2388C 44.2909 89.1799 44.5608 89.0018 44.7353 88.7437L 43.7629 88.0862ZM 94.4087 49.4262L 76.7861 -0.391436L 74.573 0.391437L 92.1956 50.2091L 94.4087 49.4262ZM 75.2886 -1.10674C 44.0138 9.93964 17.3778 30.7494 -0.971038 57.7712L 0.971038 59.0899C 19.0423 32.4769 45.2743 11.984 76.0704 1.10674L 75.2886 -1.10674ZM -0.658445 59.4022L 43.1045 89.0579L 44.4214 87.1146L 0.658445 57.4589L -0.658445 59.4022ZM 44.7353 88.7437C 56.4403 71.4334 73.6639 58.0824 93.6972 50.9229L 92.9072 48.7124C 72.4084 56.0382 54.7783 69.7004 42.7906 87.4288L 44.7353 88.7437Z"/>
<path id="erd11path48_fill" d="M 100.351 5.97373e-06C 100.351 20.8471 93.9875 40.2261 83.0223 56.2773C 71.0781 73.7967 53.7491 87.4011 33.3851 94.5459C 22.9095 98.2651 11.7484 100.223 2.98778e-06 100.223L 2.98778e-06 153.074C 17.8185 153.074 34.9516 149.942 50.9099 144.364C 82.0433 133.402 108.477 112.75 126.687 85.933C 143.331 61.4646 153.121 31.8089 153.121 5.97373e-06L 100.351 5.97373e-06Z"/>
<path id="erd11path49_stroke" d="M 83.0223 56.2773L 82.0531 55.6152L 82.0525 55.6161L 83.0223 56.2773ZM 33.3851 94.5459L 32.9966 93.4383L 32.9924 93.4398L 33.3851 94.5459ZM 2.98778e-06 100.223L 2.98778e-06 99.0488C -0.648241 99.0488 -1.17375 99.5743 -1.17375 100.223L 2.98778e-06 100.223ZM 2.98778e-06 153.074L -1.17375 153.074C -1.17375 153.723 -0.648241 154.248 2.98778e-06 154.248L 2.98778e-06 153.074ZM 50.9099 144.364L 51.2972 145.472L 51.2997 145.471L 50.9099 144.364ZM 126.687 85.933L 125.717 85.2729L 125.716 85.2736L 126.687 85.933ZM 153.121 5.97373e-06L 154.295 5.97373e-06C 154.295 -0.648238 153.77 -1.17374 153.121 -1.17374L 153.121 5.97373e-06ZM 100.351 -1.17374C 99.703 -1.17374 99.1775 -0.648238 99.1775 5.97373e-06C 99.1775 0.64825 99.703 1.17376 100.351 1.17376L 100.351 -1.17374ZM 99.1775 5.97373e-06C 99.1775 20.6046 92.8886 39.7538 82.0531 55.6152L 83.9915 56.9394C 95.0864 40.6983 101.525 21.0896 101.525 5.97373e-06L 99.1775 5.97373e-06ZM 82.0525 55.6161C 70.2455 72.9342 53.1177 86.3788 32.9966 93.4383L 33.7737 95.6535C 54.3805 88.4235 71.9106 74.6592 83.9921 56.9385L 82.0525 55.6161ZM 32.9924 93.4398C 22.6441 97.1138 11.616 99.0488 2.98778e-06 99.0488L 2.98778e-06 101.396C 11.8809 101.396 23.1748 99.4164 33.7778 95.652L 32.9924 93.4398ZM -1.17375 100.223L -1.17375 153.074L 1.17375 153.074L 1.17375 100.223L -1.17375 100.223ZM 2.98778e-06 154.248C 17.9569 154.248 35.2208 151.092 51.2972 145.472L 50.5226 143.256C 34.6825 148.793 17.68 151.901 2.98778e-06 151.901L 2.98778e-06 154.248ZM 51.2997 145.471C 82.6729 134.424 109.309 113.614 127.658 86.5924L 125.716 85.2736C 107.645 111.886 81.4136 132.379 50.5201 143.256L 51.2997 145.471ZM 127.658 86.5932C 144.429 61.937 154.295 32.0526 154.295 5.97373e-06L 151.948 5.97373e-06C 151.948 31.5653 142.233 60.9923 125.717 85.2729L 127.658 86.5932ZM 153.121 -1.17374L 100.351 -1.17374L 100.351 1.17376L 153.121 1.17376L 153.121 -1.17374Z"/>
</defs>
</svg>
