<svg width="80" height="92" viewBox="0 0 80 92" version="1.1" xmlns="http://www.w3.org/2000/svg" xmlns:xlink="http://www.w3.org/1999/xlink">
<title>icon_user</title>
<desc>Created using Figma</desc>
<g id="Canvas" transform="translate(62 -1250)">
<g id="icon_user">
<g id="Vector">
<use xlink:href="#path0_fill" transform="translate(-59 1252)" fill="#FFFFFF"/>
<use xlink:href="#path1_stroke" transform="translate(-59 1252)" fill="#67679A"/>
</g>
<g id="Vector">
<use xlink:href="#path2_fill" transform="translate(-53.369 1279.89)" fill="#D0D3E6"/>
</g>
<g id="Vector">
<use xlink:href="#path3_fill" transform="translate(-4.23443 1280.07)" fill="#D0D3E6"/>
</g>
<g id="Vector">
<use xlink:href="#path4_fill" transform="translate(-31.5967 1322.11)" fill="#FFFFFF"/>
<use xlink:href="#path5_stroke" transform="translate(-31.5967 1322.11)" fill="#67679A"/>
</g>
<g id="Vector">
<use xlink:href="#path6_fill" transform="translate(-49.6593 1292.23)" fill="#FFFFFF"/>
<use xlink:href="#path7_stroke" transform="translate(-49.6593 1292.23)" fill="#67679A"/>
</g>
<g id="Vector">
<use xlink:href="#path8_fill" transform="translate(0.236523 1292.06)" fill="#FFFFFF"/>
<use xlink:href="#path9_stroke" transform="translate(0.236523 1292.06)" fill="#67679A"/>
</g>
<g id="Vector">
<use xlink:href="#path10_fill" transform="translate(-30.3448 1325.69)" fill="#D0D3E6"/>
</g>
<g id="Vector">
<use xlink:href="#path11_fill" transform="translate(-44.473 1265.58)" fill="#FFFFFF"/>
<use xlink:href="#path12_stroke" transform="translate(-44.473 1265.58)" fill="#67679A"/>
</g>
<g id="Group">
<g id="Vector">
<use xlink:href="#path13_stroke" transform="translate(-23.549 1302.61)" fill="#67679A"/>
</g>
<g id="Vector">
<use xlink:href="#path14_fill" transform="translate(-26.9469 1310.48)" fill="#FFFFFF"/>
<use xlink:href="#path15_stroke" transform="translate(-26.9469 1310.48)" fill="#67679A"/>
</g>
<g id="Vector">
<use xlink:href="#path16_stroke" transform="translate(-36.783 1291.9)" fill="#67679A"/>
</g>
<g id="Vector">
<use xlink:href="#path17_stroke" transform="translate(-17.2896 1291.9)" fill="#67679A"/>
</g>
<g id="Vector">
<use xlink:href="#path18_stroke" transform="translate(-36.2455 1286.33)" fill="#67679A"/>
</g>
<g id="Vector">
<use xlink:href="#path19_stroke" transform="translate(-13.8917 1286.69)" fill="#67679A"/>
</g>
</g>
<g id="Vector">
<use xlink:href="#path20_fill" transform="translate(-43.4 1267.72)" fill="#D0D3E6"/>
</g>
</g>
</g>
<defs>
<path id="path0_fill" d="M 0.0411713 60.2707C 0.0411713 60.2707 36.5241 82.4543 70.6822 60.2707C 70.6822 60.2707 83.9161 -17.7297 26.5092 3.73832C 26.5092 3.73832 -1.21069 -7.35346 0.0411713 60.2707Z"/>
<path id="path1_stroke" d="M 0.0411713 60.2707L -0.856097 60.2873C -0.850407 60.5947 -0.687766 60.8777 -0.425081 61.0375L 0.0411713 60.2707ZM 70.6822 60.2707L 71.1709 61.0233C 71.3814 60.8867 71.525 60.6682 71.5669 60.4208L 70.6822 60.2707ZM 26.5092 3.73832L 26.5092 4.63574C 26.6165 4.63574 26.723 4.61648 26.8235 4.57889L 26.5092 3.73832ZM 0.0411713 60.2707C -0.425081 61.0375 -0.42462 61.0378 -0.424019 61.0381C -0.423634 61.0384 -0.422893 61.0388 -0.422122 61.0393C -0.420578 61.0402 -0.418479 61.0415 -0.415826 61.0431C -0.410521 61.0463 -0.403 61.0508 -0.393284 61.0566C -0.373851 61.0683 -0.345634 61.0851 -0.308779 61.1068C -0.23507 61.1502 -0.126806 61.2133 0.0148272 61.2941C 0.298082 61.4555 0.714881 61.6875 1.25573 61.9737C 2.33732 62.5461 3.91575 63.3358 5.91508 64.2122C 9.91217 65.9642 15.6004 68.0663 22.3704 69.4683C 35.9107 72.2723 53.8332 72.2831 71.1709 61.0233L 70.1934 59.518C 53.373 70.4418 35.9751 70.4527 22.7344 67.7107C 16.1139 66.3398 10.5465 64.2825 6.63561 62.5683C 4.68095 61.7116 3.1423 60.9415 2.09529 60.3874C 1.57185 60.1103 1.17148 59.8874 0.903635 59.7347C 0.76972 59.6584 0.668954 59.5996 0.60252 59.5605C 0.569303 59.5409 0.544671 59.5262 0.528772 59.5167C 0.520823 59.512 0.515057 59.5085 0.511492 59.5063C 0.50971 59.5053 0.508479 59.5045 0.5078 59.5041C 0.50746 59.5039 0.507367 59.5038 0.507196 59.5037C 0.507241 59.5038 0.507424 59.5039 0.0411713 60.2707ZM 70.6822 60.2707C 71.5669 60.4208 71.567 60.4202 71.5672 60.4193C 71.5673 60.4186 71.5675 60.4175 71.5677 60.4161C 71.5682 60.4133 71.5688 60.4094 71.5697 60.4043C 71.5714 60.394 71.5739 60.3791 71.5771 60.3596C 71.5835 60.3206 71.5928 60.2632 71.6047 60.1881C 71.6285 60.0378 71.6627 59.8166 71.7047 59.53C 71.7887 58.9568 71.9039 58.1214 72.0298 57.0675C 72.2815 54.9599 72.5762 51.9758 72.7493 48.4627C 73.0949 41.4474 72.9578 32.2755 70.9979 23.7529C 69.0418 15.2474 65.233 7.23292 58.1073 2.75486C 50.9492 -1.74355 40.6914 -2.52341 26.1948 2.89775L 26.8235 4.57889C 41.0304 -0.733946 50.646 0.185743 57.1522 4.27453C 63.6909 8.38366 67.3373 15.844 69.2487 24.1551C 71.1561 32.4491 71.2985 41.4355 70.9566 48.3744C 70.786 51.8384 70.4953 54.7804 70.2476 56.8546C 70.1237 57.8915 70.0107 58.711 69.9288 59.2699C 69.8879 59.5493 69.8548 59.7635 69.832 59.9071C 69.8206 59.9789 69.8118 60.033 69.806 60.0688C 69.803 60.0867 69.8008 60.1001 69.7994 60.1087C 69.7986 60.113 69.7981 60.1162 69.7978 60.1182C 69.7976 60.1192 69.7975 60.1198 69.7974 60.1203C 69.7974 60.1206 69.7974 60.1206 70.6822 60.2707ZM 26.5092 3.73832C 26.8426 2.90512 26.8416 2.90474 26.8405 2.90431C 26.84 2.90412 26.8389 2.90365 26.8379 2.90326C 26.8359 2.90247 26.8335 2.90152 26.8306 2.90041C 26.8249 2.89819 26.8176 2.89534 26.8085 2.89189C 26.7904 2.885 26.7657 2.87575 26.7344 2.86447C 26.672 2.84193 26.5836 2.81129 26.4711 2.77536C 26.2462 2.70354 25.9241 2.6104 25.5189 2.51856C 24.7093 2.33511 23.562 2.15554 22.1917 2.16445C 19.4403 2.18234 15.8019 2.96174 12.2291 5.9578C 5.12078 11.9186 -1.48285 26.431 -0.856097 60.2873L 0.93844 60.2541C 0.313325 26.4862 6.9437 12.7324 13.3824 7.33309C 16.583 4.64908 19.7964 3.97491 22.2033 3.95926C 23.4121 3.9514 24.4207 4.11006 25.1222 4.26903C 25.4725 4.34841 25.7447 4.42752 25.9252 4.48516C 26.0154 4.51396 26.0825 4.53735 26.1249 4.55265C 26.1461 4.5603 26.1611 4.56592 26.1696 4.56918C 26.1739 4.5708 26.1766 4.57184 26.1776 4.57225C 26.1781 4.57245 26.1782 4.57249 26.1779 4.57237C 26.1778 4.57231 26.1772 4.5721 26.1772 4.57207C 26.1765 4.57181 26.1758 4.57151 26.5092 3.73832Z"/>
<path id="path2_fill" d="M 8.00182 -1.09192e-05C 8.00182 -1.09192e-05 8.00182 20.9313 8.00182 23.9726C 8.00182 27.3717 9.43248 34.3488 13.5457 38.8213C 13.5457 38.8213 7.46527 37.3901 0.311755 34.1699C 0.311755 34.3488 -2.37078 16.6377 8.00182 -1.09192e-05Z"/>
<path id="path3_fill" d="M 5.36516 0C 5.36516 0 5.36516 20.9313 5.36516 23.9726C 5.36516 27.3717 3.93446 33.8121 2.18308e-05 38.6424C 2.18308e-05 38.6424 6.43818 36.8534 13.234 32.9176C 13.234 32.9176 15.7378 11.9863 5.36516 0Z"/>
<path id="path4_fill" d="M 18.778 0L 18.778 9.66058C 18.778 14.1331 15.2012 17.89 10.5514 17.89L 8.22654 17.89C 3.7556 17.89 -1.09154e-05 14.312 -1.09154e-05 9.66058L -1.09154e-05 0L 18.778 0Z"/>
<path id="path5_stroke" d="M 18.778 0L 19.6754 0C 19.6754 -0.495633 19.2736 -0.897422 18.778 -0.897422L 18.778 0ZM -1.09154e-05 0L -1.09154e-05 -0.897422C -0.495644 -0.897422 -0.897433 -0.495633 -0.897433 1.99268e-16L -1.09154e-05 0ZM 17.8805 0L 17.8805 9.66058L 19.6754 9.66058L 19.6754 0L 17.8805 0ZM 17.8805 9.66058C 17.8805 13.6505 14.6926 16.9926 10.5514 16.9926L 10.5514 18.7874C 15.7098 18.7874 19.6754 14.6156 19.6754 9.66058L 17.8805 9.66058ZM 10.5514 16.9926L 8.22654 16.9926L 8.22654 18.7874L 10.5514 18.7874L 10.5514 16.9926ZM 8.22654 16.9926C 4.23875 16.9926 0.897411 13.804 0.897411 9.66058L -0.897433 9.66058C -0.897433 14.82 3.27244 18.7874 8.22654 18.7874L 8.22654 16.9926ZM 0.897411 9.66058L 0.897411 0L -0.897433 0L -0.897433 9.66058L 0.897411 9.66058ZM -1.09154e-05 0.897422L 18.778 0.897422L 18.778 -0.897422L -1.09154e-05 -0.897422L -1.09154e-05 0.897422Z"/>
<path id="path6_fill" d="M 5.36512 8.40829C 5.00744 8.40829 4.64981 8.5872 4.29213 8.5872C 1.96724 8.5872 -2.18308e-05 6.61929 -2.18308e-05 4.29359C -2.18308e-05 1.96789 1.96724 5.45959e-06 4.29213 5.45959e-06C 4.64981 5.45959e-06 5.00744 -1.09165e-05 5.36512 0.178889L 5.36512 8.40829Z"/>
<path id="path7_stroke" d="M 5.36512 8.40829L 5.36512 9.30571C 5.86075 9.30571 6.26254 8.90392 6.26254 8.40829L 5.36512 8.40829ZM 5.36512 0.178889L 6.26254 0.178889C 6.26254 -0.160985 6.07054 -0.471696 5.76657 -0.623734L 5.36512 0.178889ZM 5.36512 7.51087C 5.05645 7.51087 4.76864 7.58768 4.61087 7.62714C 4.41099 7.67714 4.34115 7.68978 4.29213 7.68978L 4.29213 9.48462C 4.60079 9.48462 4.88861 9.40781 5.04638 9.36835C 5.24626 9.31836 5.3161 9.30571 5.36512 9.30571L 5.36512 7.51087ZM 4.29213 7.68978C 2.46316 7.68978 0.8974 6.12394 0.8974 4.29359L -0.897444 4.29359C -0.897444 7.11463 1.47132 9.48462 4.29213 9.48462L 4.29213 7.68978ZM 0.8974 4.29359C 0.8974 2.46325 2.46315 0.897428 4.29213 0.897428L 4.29213 -0.897417C 1.47133 -0.897417 -0.897444 1.47254 -0.897444 4.29359L 0.8974 4.29359ZM 4.29213 0.897428C 4.67243 0.897428 4.82174 0.910523 4.96367 0.981512L 5.76657 -0.623734C 5.19314 -0.910545 4.62718 -0.897417 4.29213 -0.897417L 4.29213 0.897428ZM 4.46769 0.178889L 4.46769 8.40829L 6.26254 8.40829L 6.26254 0.178889L 4.46769 0.178889Z"/>
<path id="path8_fill" d="M 2.18308e-05 0.178905C 0.357698 0.178905 0.71533 -5.45959e-06 1.07301 -5.45959e-06C 3.3979 -5.45959e-06 5.36516 1.96791 5.36516 4.29361C 5.36516 6.6193 3.3979 8.58719 1.07301 8.58719C 0.71533 8.58719 0.357698 8.58718 2.18308e-05 8.40828L 2.18308e-05 0.178905Z"/>
<path id="path9_stroke" d="M 2.18308e-05 0.178905L 2.18308e-05 -0.718517C -0.495611 -0.718517 -0.8974 -0.316727 -0.8974 0.178905L 2.18308e-05 0.178905ZM 2.18308e-05 8.40828L -0.8974 8.40828C -0.8974 8.74815 -0.7054 9.05887 -0.401429 9.2109L 2.18308e-05 8.40828ZM 2.18308e-05 1.07633C 0.308684 1.07633 0.596497 0.999514 0.754267 0.960053C 0.954151 0.910059 1.02399 0.897417 1.07301 0.897417L 1.07301 -0.897428C 0.764344 -0.897428 0.47653 -0.820614 0.318761 -0.781154C 0.118876 -0.731159 0.0490357 -0.718517 2.18308e-05 -0.718517L 2.18308e-05 1.07633ZM 1.07301 0.897417C 2.90198 0.897417 4.46774 2.46326 4.46774 4.29361L 6.26258 4.29361C 6.26258 1.47256 3.89382 -0.897428 1.07301 -0.897428L 1.07301 0.897417ZM 4.46774 4.29361C 4.46774 6.12395 2.90199 7.68977 1.07301 7.68977L 1.07301 9.48461C 3.89381 9.48461 6.26258 7.11466 6.26258 4.29361L 4.46774 4.29361ZM 1.07301 7.68977C 0.692772 7.68977 0.543424 7.67666 0.401472 7.60566L -0.401429 9.2109C 0.171971 9.4977 0.737888 9.48461 1.07301 9.48461L 1.07301 7.68977ZM 0.897444 8.40828L 0.897444 0.178905L -0.8974 0.178905L -0.8974 8.40828L 0.897444 8.40828Z"/>
<path id="path10_fill" d="M 1.09154e-05 0L 16.4531 0L 16.4531 3.39909C 16.4531 3.39909 13.0552 5.367 8.22657 5.367C 3.39794 5.367 1.09154e-05 3.04132 1.09154e-05 3.04132L 1.09154e-05 0Z"/>
<path id="path11_fill" d="M 44.7095 14.4909L 44.7095 38.4635C 44.7095 50.8075 34.6946 60.8259 22.3548 60.8259C 10.0149 60.8259 2.18308e-05 50.8075 2.18308e-05 38.4635L 2.18308e-05 14.4909C 2.18308e-05 14.4909 9.4784 9.66058 11.9821 -1.09192e-05C 11.9821 -1.09192e-05 23.4278 21.1102 44.7095 14.4909Z"/>
<path id="path12_stroke" d="M 44.7095 14.4909L 45.6069 14.4909C 45.6069 14.2056 45.4713 13.9373 45.2416 13.7682C 45.0118 13.5991 44.7154 13.5492 44.443 13.634L 44.7095 14.4909ZM 2.18308e-05 14.4909L -0.407455 13.6913C -0.708108 13.8445 -0.8974 14.1534 -0.8974 14.4909L 2.18308e-05 14.4909ZM 11.9821 -1.09192e-05L 12.7711 -0.427755C 12.5953 -0.751875 12.2392 -0.935534 11.8733 -0.890805C 11.5073 -0.846075 11.2059 -0.58206 11.1134 -0.225157L 11.9821 -1.09192e-05ZM 43.8121 14.4909L 43.8121 38.4635L 45.6069 38.4635L 45.6069 14.4909L 43.8121 14.4909ZM 43.8121 38.4635C 43.8121 50.3122 34.1987 59.9285 22.3548 59.9285L 22.3548 61.7234C 35.1905 61.7234 45.6069 51.3029 45.6069 38.4635L 43.8121 38.4635ZM 22.3548 59.9285C 10.5109 59.9285 0.897444 50.3122 0.897444 38.4635L -0.8974 38.4635C -0.8974 51.3029 9.51902 61.7234 22.3548 61.7234L 22.3548 59.9285ZM 0.897444 38.4635L 0.897444 14.4909L -0.8974 14.4909L -0.8974 38.4635L 0.897444 38.4635ZM 2.18308e-05 14.4909C 0.407499 15.2905 0.407809 15.2903 0.408156 15.2901C 0.40832 15.29 0.408703 15.2899 0.409031 15.2897C 0.409686 15.2894 0.410487 15.2889 0.41143 15.2885C 0.413317 15.2875 0.415779 15.2862 0.418806 15.2847C 0.424861 15.2815 0.433182 15.2772 0.443706 15.2717C 0.464751 15.2607 0.494612 15.2449 0.532781 15.2243C 0.609112 15.1832 0.718719 15.1229 0.85755 15.0436C 1.13514 14.8849 1.53001 14.6495 2.00966 14.3374C 2.96811 13.7136 4.26992 12.78 5.65264 11.5351C 8.41045 9.0522 11.5392 5.28608 12.8509 0.225135L 11.1134 -0.225157C 9.92132 4.37449 7.05902 7.85382 4.45172 10.2012C 3.15188 11.3715 1.92761 12.2493 1.03062 12.8331C 0.582548 13.1247 0.217359 13.3421 -0.0331782 13.4854C -0.158411 13.5569 -0.254887 13.6099 -0.318622 13.6443C -0.350485 13.6614 -0.374154 13.6739 -0.389129 13.6818C -0.396616 13.6857 -0.401928 13.6885 -0.405004 13.69C -0.406541 13.6908 -0.40752 13.6913 -0.407931 13.6915C -0.408137 13.6917 -0.4082 13.6917 -0.408121 13.6916C -0.408082 13.6916 -0.407915 13.6915 -0.407896 13.6915C -0.407693 13.6914 -0.407455 13.6913 2.18308e-05 14.4909ZM 11.9821 -1.09192e-05C 11.1932 0.427733 11.1934 0.428165 11.1937 0.428677C 11.1939 0.428955 11.1942 0.429548 11.1945 0.430104C 11.1951 0.431216 11.1959 0.432648 11.1968 0.434398C 11.1988 0.437899 11.2014 0.442671 11.2047 0.44869C 11.2113 0.460728 11.2208 0.477759 11.233 0.499594C 11.2575 0.543262 11.2933 0.606161 11.3402 0.68679C 11.434 0.84803 11.5726 1.08029 11.7556 1.37156C 12.1215 1.95391 12.6655 2.77325 13.3849 3.73319C 14.8218 5.65068 16.9679 8.14224 19.802 10.4264C 25.4851 15.0066 33.9718 18.7705 44.976 15.3478L 44.443 13.634C 34.1655 16.8306 26.2885 13.349 20.9283 9.02894C 18.2408 6.86297 16.1954 4.49069 14.8212 2.65687C 14.135 1.74116 13.6186 0.962978 13.2754 0.416723C 13.1039 0.143687 12.9758 -0.0711302 12.8915 -0.215889C 12.8494 -0.28826 12.8183 -0.343092 12.7982 -0.378904C 12.7881 -0.396809 12.7808 -0.409957 12.7763 -0.418161C 12.7741 -0.422263 12.7725 -0.425129 12.7716 -0.426736C 12.7712 -0.427539 12.7709 -0.428028 12.7708 -0.428199C 12.7708 -0.428284 12.7708 -0.428173 12.7708 -0.428216C 12.7709 -0.428026 12.7711 -0.427755 11.9821 -1.09192e-05Z"/>
<path id="path13_stroke" d="M 0.497902 -0.746615C 0.0855518 -1.0216 -0.471647 -0.910252 -0.746637 -0.497902C -1.02163 -0.0855518 -0.910273 0.471647 -0.497924 0.746637L 0.497902 -0.746615ZM 3.71702 0.746632C 4.12937 0.471638 4.24072 -0.0855614 3.96573 -0.497909C 3.69073 -0.910256 3.13353 -1.0216 2.72118 -0.74661L 3.71702 0.746632ZM -1.09154e-05 1.09192e-05C -0.497924 0.746637 -0.49758 0.746865 -0.497231 0.747098C -0.497106 0.747181 -0.496749 0.747419 -0.496499 0.747585C -0.495997 0.747918 -0.49547 0.748267 -0.494917 0.748634C -0.49381 0.749366 -0.492599 0.750164 -0.491284 0.751027C -0.488654 0.752753 -0.485609 0.754738 -0.482155 0.756969C -0.475248 0.761429 -0.466696 0.766877 -0.45655 0.773206C -0.43627 0.785858 -0.409544 0.802081 -0.376776 0.82102C -0.311371 0.858822 -0.221117 0.907893 -0.109301 0.961156C 0.112717 1.06691 0.428908 1.19359 0.811229 1.27857C 1.58349 1.45025 2.65573 1.45441 3.71702 0.746632L 2.72118 -0.74661C 2.17294 -0.380988 1.63562 -0.376824 1.20071 -0.473503C 0.979444 -0.522689 0.792644 -0.59728 0.66257 -0.65924C 0.598338 -0.689837 0.55027 -0.716239 0.521365 -0.732946C 0.506977 -0.741262 0.497551 -0.747051 0.493467 -0.749599C 0.491431 -0.750869 0.490748 -0.751318 0.491466 -0.750854C 0.491826 -0.750622 0.492538 -0.75016 0.493608 -0.749458C 0.494143 -0.749107 0.494767 -0.748695 0.495483 -0.748222C 0.495841 -0.747985 0.496221 -0.747733 0.496624 -0.747465C 0.496825 -0.747331 0.497145 -0.747119 0.497246 -0.747052C 0.497571 -0.746835 0.497902 -0.746615 -1.09154e-05 1.09192e-05Z"/>
<path id="path14_fill" d="M 10.0149 0C 10.0149 2.8624 7.69001 5.00917 5.00744 5.00917C 2.32487 5.00917 0 2.6835 0 0L 10.0149 0Z"/>
<path id="path15_stroke" d="M 10.0149 0L 10.9124 0C 10.9124 -0.495633 10.5106 -0.897422 10.0149 -0.897422L 10.0149 0ZM 0 0L 0 -0.897422C -0.495633 -0.897422 -0.897422 -0.495633 -0.897422 1.99268e-16L 0 0ZM 9.11751 0C 9.11751 2.34628 7.21511 4.11175 5.00744 4.11175L 5.00744 5.9066C 8.16491 5.9066 10.9124 3.37851 10.9124 0L 9.11751 0ZM 5.00744 4.11175C 2.8208 4.11175 0.897422 2.18816 0.897422 0L -0.897422 0C -0.897422 3.17884 1.82895 5.9066 5.00744 5.9066L 5.00744 4.11175ZM 0 0.897422L 10.0149 0.897422L 10.0149 -0.897422L 0 -0.897422L 0 0.897422Z"/>
<path id="path16_stroke" d="M -0.648621 1.31935C -0.991152 1.67757 -0.978431 2.24565 -0.620208 2.58818C -0.261984 2.93071 0.30609 2.91799 0.648621 2.55976L -0.648621 1.31935ZM 8.59428 2.30854C 8.99566 2.5993 9.55676 2.50962 9.84752 2.10823C 10.1383 1.70684 10.0486 1.14575 9.64721 0.854989L 8.59428 2.30854ZM 0 1.93956C 0.648621 2.55976 0.648298 2.5601 0.647989 2.56042C 0.647906 2.56051 0.647611 2.56082 0.647444 2.56099C 0.64711 2.56134 0.646833 2.56163 0.646614 2.56186C 0.646176 2.56231 0.645968 2.56252 0.645988 2.5625C 0.646029 2.56246 0.646984 2.56148 0.648842 2.55961C 0.65256 2.55585 0.659881 2.54854 0.670722 2.53801C 0.692421 2.51693 0.728107 2.4831 0.777117 2.43931C 0.87532 2.35156 1.02588 2.22487 1.22348 2.08123C 1.6208 1.79239 2.19545 1.44435 2.90636 1.20081C 4.28727 0.727733 6.2582 0.616305 8.59428 2.30854L 9.64721 0.854989C 6.79699 -1.20968 4.20755 -1.14221 2.32466 -0.49716C 1.40367 -0.181644 0.670564 0.264185 0.168105 0.629451C -0.0841819 0.812853 -0.28152 0.978273 -0.418742 1.10088C -0.487444 1.16226 -0.541351 1.21316 -0.579818 1.25052C -0.59906 1.26921 -0.614465 1.28454 -0.625952 1.29613C -0.631697 1.30193 -0.636464 1.30679 -0.640245 1.31068C -0.642136 1.31262 -0.64378 1.31432 -0.645176 1.31576C -0.645874 1.31649 -0.64651 1.31715 -0.647084 1.31775C -0.647371 1.31804 -0.647756 1.31845 -0.647899 1.3186C -0.648268 1.31898 -0.648621 1.31935 0 1.93956Z"/>
<path id="path17_stroke" d="M 8.47211 2.55976C 8.81464 2.91799 9.38272 2.93071 9.74094 2.58818C 10.0992 2.24565 10.1119 1.67757 9.76935 1.31935L 8.47211 2.55976ZM -0.526477 0.854989C -0.927863 1.14575 -1.01754 1.70684 -0.726785 2.10823C -0.436025 2.50962 0.12507 2.5993 0.526456 2.30854L -0.526477 0.854989ZM 9.12073 1.93956C 9.76935 1.31935 9.769 1.31898 9.76863 1.3186C 9.76849 1.31845 9.7681 1.31804 9.76782 1.31775C 9.76724 1.31715 9.76661 1.31649 9.76591 1.31576C 9.76451 1.31432 9.76287 1.31262 9.76098 1.31068C 9.7572 1.30679 9.75243 1.30193 9.74669 1.29613C 9.7352 1.28454 9.71979 1.26921 9.70055 1.25052C 9.66208 1.21316 9.60818 1.16226 9.53948 1.10088C 9.40225 0.978273 9.20492 0.812853 8.95263 0.629451C 8.45017 0.264185 7.71706 -0.181644 6.79607 -0.49716C 4.91318 -1.14221 2.32374 -1.20968 -0.526477 0.854989L 0.526456 2.30854C 2.86254 0.616305 4.83347 0.727733 6.21438 1.20081C 6.92528 1.44435 7.49993 1.79239 7.89725 2.08123C 8.09486 2.22487 8.24541 2.35156 8.34362 2.43931C 8.39263 2.4831 8.42831 2.51693 8.45001 2.53801C 8.46085 2.54854 8.46817 2.55585 8.47189 2.55961C 8.47375 2.56148 8.4747 2.56246 8.47474 2.5625C 8.47477 2.56252 8.47456 2.56231 8.47412 2.56186C 8.4739 2.56163 8.47362 2.56134 8.47329 2.56099C 8.47312 2.56082 8.47283 2.56051 8.47274 2.56042C 8.47244 2.5601 8.47211 2.55976 9.12073 1.93956Z"/>
<path id="path18_stroke" d="M -0.311803 0.947476C -0.776563 1.11967 -1.01374 1.63602 -0.841544 2.10078C -0.669352 2.56554 -0.153 2.80271 0.311759 2.63052L -0.311803 0.947476ZM 5.14041 0.841522C 5.60517 0.66933 5.84234 0.152978 5.67015 -0.311781C 5.49795 -0.776541 4.9816 -1.01371 4.51684 -0.841522L 5.14041 0.841522ZM 0.311759 2.63052L 5.14041 0.841522L 4.51684 -0.841522L -0.311803 0.947476L 0.311759 2.63052Z"/>
<path id="path19_stroke" d="M 4.81937 1.95089C 5.304 2.05478 5.78108 1.74613 5.88496 1.2615C 5.98884 0.77688 5.68019 0.2998 5.19557 0.195916L 4.81937 1.95089ZM 0.188077 -0.877494C -0.296546 -0.981378 -0.773626 -0.672728 -0.87751 -0.188104C -0.981394 0.296519 -0.672744 0.773599 -0.188121 0.877483L 0.188077 -0.877494ZM 5.19557 0.195916L 0.188077 -0.877494L -0.188121 0.877483L 4.81937 1.95089L 5.19557 0.195916Z"/>
<path id="path20_fill" d="M -2.18308e-05 12.8808C -2.18308e-05 12.8808 8.04772 8.4083 11.2668 1.09192e-05C 11.2668 1.09192e-05 16.6319 8.58718 25.0373 12.1652C 33.4427 15.7432 39.1655 14.1331 42.7423 13.5964L 42.7423 14.6698C 42.7423 14.6698 23.9643 20.3946 11.4456 4.65139C 11.4456 4.65139 8.76304 10.0184 -2.18308e-05 14.1331L -2.18308e-05 12.8808Z"/>
</defs>
</svg>
