<svg width="24" height="24" viewBox="0 0 24 24" version="1.1" xmlns="http://www.w3.org/2000/svg" xmlns:xlink="http://www.w3.org/1999/xlink">
<title>icon_reddit</title>
<desc>Created using Figma</desc>
<g id="Canvas" transform="translate(-594 -5560)">
<g id="icon_reddit">
<g id="Vector">
<use xlink:href="#path0_fill" transform="translate(597.101 5564.48)" fill="#333333"/>
</g>
</g>
</g>
<defs>
<path id="path0_fill" d="M 10.4132 1.39081L 9.56172 4.26072C 11.3198 4.32739 13.0263 4.8726 14.4973 5.83759C 14.7392 5.61902 15.0323 5.46494 15.3494 5.3896C 15.6666 5.31425 15.9977 5.32007 16.312 5.40651C 16.6263 5.49295 16.9138 5.65723 17.1479 5.88416C 17.3819 6.11109 17.555 6.39336 17.6511 6.70487C 17.7839 7.10892 17.7802 7.54542 17.6406 7.94717C 17.501 8.34892 17.2332 8.69364 16.8784 8.92826C 16.8125 8.96086 16.7587 9.01355 16.7246 9.07874C 16.6906 9.14393 16.6782 9.21823 16.6892 9.29094C 16.742 9.98051 16.6259 10.6726 16.3512 11.3072C 16.0765 11.9419 15.6512 12.5001 15.1123 12.9335C 14.0847 13.8417 12.8415 14.4715 11.5013 14.7627C 9.77783 15.1966 7.97373 15.1966 6.25029 14.7627C 4.70713 14.4379 3.29923 13.6514 2.21349 12.5078C 1.78935 12.0808 1.46481 11.5654 1.26308 10.9984C 1.06136 10.4314 0.987436 9.82677 1.04661 9.22786C 1.05547 9.17784 1.04798 9.12629 1.02526 9.08085C 1.00254 9.03541 0.96579 8.99849 0.920456 8.97556C 0.583314 8.76317 0.318458 8.45359 0.160815 8.08763C 0.00317258 7.72168 -0.0398503 7.31653 0.0374116 6.92563C 0.102432 6.58288 0.25725 6.26353 0.486062 6.00019C 0.714874 5.73685 1.00948 5.53896 1.33979 5.42671C 1.6701 5.31447 2.02428 5.29191 2.36617 5.36132C 2.70805 5.43074 3.02538 5.58965 3.28577 5.82182L 3.5223 5.6799C 4.78483 4.90859 6.21065 4.44412 7.68524 4.32379L 8.37906 4.32379C 8.40722 4.32824 8.43599 4.32676 8.46355 4.31946C 8.4911 4.31215 8.51683 4.29919 8.53909 4.28138C 8.56135 4.26357 8.57965 4.24132 8.59282 4.21604C 8.606 4.19076 8.61375 4.16301 8.6156 4.13457C 8.97828 2.90461 9.35673 1.69041 9.71941 0.476222L 9.71941 0.25546L 10.3186 0.365841L 13.0939 0.933515C 13.2201 0.933515 13.2831 0.933515 13.3462 0.823134C 13.554 0.486647 13.8706 0.231276 14.2434 0.0993515C 14.6162 -0.0325733 15.023 -0.0331303 15.3961 0.0977725C 15.7559 0.219611 16.0667 0.454155 16.2826 0.766611C 16.4985 1.07907 16.6079 1.45279 16.5946 1.83233C 16.5738 2.26497 16.3947 2.67487 16.0914 2.9841C 15.7881 3.29333 15.3817 3.48032 14.9496 3.50952C 14.5174 3.53872 14.0896 3.40809 13.7475 3.14247C 13.4053 2.87685 13.1727 2.49477 13.0939 2.06886C 13.094 2.0221 13.0825 1.97603 13.0605 1.93477C 13.0385 1.8935 13.0066 1.85831 12.9678 1.83233L 10.5078 1.3435L 10.4132 1.39081ZM 6.31336 10.0636C 6.64519 10.0595 6.96202 9.92472 7.1952 9.68859C 7.42838 9.45246 7.55911 9.13396 7.55909 8.80211C 7.55907 8.55194 7.48467 8.30743 7.34535 8.09965C 7.20602 7.89187 7.00807 7.7302 6.77664 7.6352C 6.54521 7.54021 6.29076 7.51616 6.04563 7.56613C 5.8005 7.6161 5.57577 7.73782 5.39999 7.91582C 5.22421 8.09383 5.10532 8.32008 5.05844 8.56581C 5.01156 8.81155 5.0388 9.06567 5.13671 9.29589C 5.23461 9.5261 5.39875 9.72201 5.60827 9.85871C 5.81779 9.99541 6.06321 10.0667 6.31336 10.0636ZM 11.5328 10.0636C 11.783 10.0636 12.0275 9.98919 12.2353 9.84986C 12.4431 9.71054 12.6047 9.51258 12.6997 9.28115C 12.7947 9.04972 12.8188 8.79527 12.7688 8.55015C 12.7188 8.30502 12.5971 8.08028 12.4191 7.9045C 12.2411 7.72872 12.0148 7.60984 11.7691 7.56296C 11.5234 7.51608 11.2692 7.54332 11.039 7.64122C 10.8088 7.73913 10.6129 7.90327 10.4762 8.11278C 10.3395 8.3223 10.2682 8.56773 10.2713 8.81788C 10.2713 8.98281 10.304 9.14609 10.3676 9.29827C 10.4312 9.45044 10.5244 9.58848 10.6417 9.70436C 10.7591 9.82025 10.8983 9.91168 11.0512 9.97335C 11.2042 10.035 11.3679 10.0657 11.5328 10.0636ZM 11.5328 11.5616C 10.8252 12.1731 9.92131 12.5095 8.98616 12.5095C 8.05101 12.5095 7.14707 12.1731 6.43951 11.5616L 5.95068 12.0505C 6.78587 12.7963 7.86642 13.2086 8.98616 13.2086C 10.1059 13.2086 11.1865 12.7963 12.0216 12.0505L 11.5328 11.5616ZM 15.2858 6.56295C 15.7846 6.99042 16.174 7.53111 16.4211 8.13982C 16.5337 8.06556 16.63 7.96916 16.7041 7.85648C 16.7782 7.74381 16.8286 7.61722 16.8522 7.48444C 16.8758 7.35166 16.8721 7.21546 16.8414 7.08414C 16.8106 6.95283 16.7535 6.82915 16.6734 6.72064C 16.5948 6.61622 16.4958 6.52891 16.3823 6.46404C 16.2688 6.39918 16.1434 6.35811 16.0135 6.34336C 15.8836 6.3286 15.7521 6.34046 15.627 6.37822C 15.5019 6.41597 15.3858 6.47883 15.2858 6.56295ZM 2.5131 6.56295C 2.41141 6.48164 2.29402 6.4222 2.1683 6.38834C 2.04257 6.35448 1.91122 6.34693 1.78244 6.36618C 1.65367 6.38542 1.53025 6.43103 1.41992 6.50016C 1.30958 6.5693 1.2147 6.66046 1.14122 6.76794C 0.993012 6.982 0.934761 7.24568 0.978997 7.50224C 1.02323 7.75881 1.16642 7.98776 1.37775 8.13982C 1.6216 7.52929 2.01143 6.98786 2.5131 6.56295ZM 15.475 1.83233C 15.4752 1.65783 15.4081 1.48998 15.2877 1.36369C 15.1673 1.2374 15.0028 1.16239 14.8285 1.15428C 14.6527 1.16223 14.4865 1.2367 14.3635 1.36259C 14.2405 1.48848 14.17 1.65639 14.1662 1.83233C 14.17 2.00409 14.2389 2.168 14.3589 2.29094C 14.4789 2.41387 14.6411 2.48667 14.8127 2.49462C 14.9098 2.49598 15.006 2.47597 15.0945 2.43602C 15.183 2.39606 15.2616 2.33713 15.3248 2.26341C 15.388 2.18968 15.4342 2.10296 15.4602 2.00939C 15.4861 1.91582 15.4912 1.81769 15.475 1.72195L 15.475 1.83233Z"/>
</defs>
</svg>
