<svg width="24" height="24" viewBox="0 0 24 24" version="1.1" xmlns="http://www.w3.org/2000/svg" xmlns:xlink="http://www.w3.org/1999/xlink">
<title>icon_twitter</title>
<desc>Created using Figma</desc>
<g id="Canvas" transform="translate(-557 -5560)">
<g id="icon_twitter">
<g id="Vector">
<use xlink:href="#path0_fill" transform="translate(560.122 5564.8)" fill="#333333"/>
</g>
</g>
</g>
<defs>
<path id="path0_fill" d="M -8.42141e-07 12.8178C 1.92363 13.0035 3.84459 12.4385 5.36136 11.2409C 4.45692 11.2214 3.59177 10.8675 2.93298 10.2475C 2.47181 9.81887 2.13416 9.27429 1.95532 8.67062C 2.47491 8.78326 3.0126 8.78326 3.53219 8.67062C 2.70314 8.49881 1.96083 8.04114 1.43495 7.37759C 0.930588 6.72425 0.668639 5.9161 0.693824 5.09112C 0.949671 5.20407 1.21313 5.29891 1.48226 5.37496C 1.74013 5.44649 2.00407 5.494 2.2707 5.51688C 1.52478 4.97443 1.00367 4.17728 0.80606 3.2764C 0.608447 2.37551 0.748046 1.43344 1.19842 0.628573C 2.11627 1.75577 3.25943 2.67885 4.55466 3.33869C 5.8499 3.99852 7.26867 4.38058 8.72011 4.46037C 8.69648 4.1086 8.69648 3.75564 8.72011 3.40387C 8.76563 2.71061 9.00847 2.04483 9.41998 1.48506C 9.83148 0.925292 10.3945 0.494879 11.0426 0.24459C 11.6907 -0.0056993 12.3968 -0.0654242 13.0778 0.0724598C 13.7587 0.210344 14.386 0.540085 14.8857 1.02279C 14.9213 1.05564 14.964 1.07985 15.0105 1.09352C 15.057 1.1072 15.106 1.10997 15.1537 1.10163C 15.9003 0.919801 16.6209 0.644291 17.2983 0.281661C 17.0309 1.07761 16.5173 1.76791 15.8318 2.25275L 16.4625 2.1266C 16.6872 2.07818 16.9085 2.01497 17.1248 1.93738C 17.3495 1.87007 17.5706 1.79112 17.7871 1.70085C 17.3631 2.31909 16.8285 2.85369 16.2102 3.27772C 16.1047 3.35126 16.0202 3.45099 15.9649 3.56711C 15.9096 3.68323 15.8855 3.81174 15.8949 3.94001C 15.9104 6.06992 15.278 8.15422 14.0815 9.91635C 12.9972 11.5854 11.4293 12.8837 9.58738 13.6378C 8.19327 14.2078 6.69284 14.4713 5.18791 14.4104C 3.61869 14.3683 2.08051 13.9635 0.693824 13.2278L 0.0630755 12.8809C 0.0630755 12.8809 0.0315366 12.8493 -8.42141e-07 12.8178Z"/>
</defs>
</svg>
