<svg width="24" height="24" viewBox="0 0 24 24" version="1.1" xmlns="http://www.w3.org/2000/svg" xmlns:xlink="http://www.w3.org/1999/xlink">
<title>icon_facebook</title>
<desc>Created using Figma</desc>
<g id="Canvas" transform="translate(-520 -5560)">
<g id="icon_facebook">
<g id="Vector">
<use xlink:href="#path0_fill" transform="translate(527.727 5562.79)" fill="#333333"/>
</g>
</g>
</g>
<defs>
<path id="path0_fill" d="M 5.62944 9.2247L 5.62944 18.4336L 1.73456 18.4336L 1.73456 9.2247L 1.50382e-07 9.2247L 1.50382e-07 5.96058L 1.73456 5.96058L 1.73456 5.69251C 1.73456 4.93561 1.73456 4.11564 1.73456 3.42181C 1.75175 2.81847 1.92677 2.23017 2.24218 1.71556C 2.55759 1.20094 3.00237 0.777976 3.53219 0.48883C 4.11241 0.1709 4.76283 0.00287542 5.42444 -3.00765e-08C 6.41787 -3.00765e-08 7.4113 -3.00765e-08 8.40473 -3.00765e-08L 8.49934 -3.00765e-08L 8.49934 3.15375L 6.46518 3.15375C 6.36153 3.1404 6.25623 3.14912 6.15619 3.17934C 6.05615 3.20955 5.96363 3.26059 5.88471 3.32909C 5.80579 3.39759 5.74224 3.482 5.69825 3.5768C 5.65425 3.67159 5.6308 3.77461 5.62944 3.87911C 5.62944 4.55716 5.62944 5.23522 5.62944 5.94481L 8.54665 5.94481L 8.19974 9.20894L 5.62944 9.2247Z"/>
</defs>
</svg>
