<svg width="70" height="97" viewBox="0 0 70 97" version="1.1" xmlns="http://www.w3.org/2000/svg" xmlns:xlink="http://www.w3.org/1999/xlink">
<title>icon_miner</title>
<desc>Created using Figma</desc>
<g id="Canvas" transform="translate(-384 -1006)">
<g id="icon_miner">
<g id="Icon_miner">
<g id="Vector">
<use xlink:href="#path0_fill" transform="translate(411.752 1083.42)" fill="#FFFFFF"/>
<use xlink:href="#path1_stroke" transform="translate(411.752 1083.42)" fill="#67679A"/>
</g>
<g id="Vector">
<use xlink:href="#path2_fill" transform="translate(412.833 1086.83)" fill="#D0D3E6"/>
</g>
<g id="Vector">
<use xlink:href="#path3_fill" transform="translate(398.966 1023.85)" fill="#FFFFFF"/>
<use xlink:href="#path4_stroke" transform="translate(398.966 1023.85)" fill="#67679A"/>
</g>
<g id="Group">
<g id="Vector">
<use xlink:href="#path5_stroke" transform="translate(416.075 1071.58)" fill="#67679A"/>
</g>
<g id="Vector">
<use xlink:href="#path6_fill" transform="translate(409.771 1050.76)" fill="#67679A"/>
</g>
<g id="Vector">
<use xlink:href="#path7_fill" transform="translate(429.041 1050.76)" fill="#67679A"/>
</g>
<g id="Vector">
<use xlink:href="#path8_stroke" transform="translate(419.496 1062.43)" fill="#67679A"/>
</g>
<g id="Vector">
<use xlink:href="#path9_stroke" transform="translate(406.71 1044.36)" fill="#67679A"/>
</g>
<g id="Vector">
<use xlink:href="#path10_stroke" transform="translate(427.78 1044.53)" fill="#67679A"/>
</g>
</g>
<g id="Vector">
<use xlink:href="#path11_fill" transform="translate(399.867 1025.82)" fill="#D0D3E6"/>
</g>
<g id="Vector">
<use xlink:href="#path12_fill" transform="translate(386 1008)" fill="#FFFFFF"/>
<use xlink:href="#path13_stroke" transform="translate(386 1008)" fill="#67679A"/>
</g>
<g id="Vector">
<use xlink:href="#path14_fill" transform="translate(393.564 1053.81)" fill="#FFFFFF"/>
<use xlink:href="#path15_stroke" transform="translate(393.564 1053.81)" fill="#67679A"/>
</g>
<g id="Vector">
<use xlink:href="#path16_fill" transform="translate(443.088 1053.81)" fill="#FFFFFF"/>
<use xlink:href="#path17_stroke" transform="translate(443.088 1053.81)" fill="#67679A"/>
</g>
</g>
</g>
</g>
<defs>
<path id="path0_fill" d="M 18.549 -5.47526e-06L 18.549 9.50891C 18.549 13.9942 14.9472 17.5825 10.445 17.5825L 8.10392 17.5825C 3.60175 17.5825 1.09916e-05 13.9942 1.09916e-05 9.50891L 1.09916e-05 -5.47526e-06L 18.549 -5.47526e-06Z"/>
<path id="path1_stroke" d="M 18.549 -5.47526e-06L 19.4464 -5.47526e-06C 19.4464 -0.495638 19.0446 -0.897428 18.549 -0.897428L 18.549 -5.47526e-06ZM 1.09916e-05 -5.47526e-06L 1.09916e-05 -0.897428C -0.495622 -0.897428 -0.897411 -0.495638 -0.897411 -5.47526e-06L 1.09916e-05 -5.47526e-06ZM 17.6516 -5.47526e-06L 17.6516 9.50891L 19.4464 9.50891L 19.4464 -5.47526e-06L 17.6516 -5.47526e-06ZM 17.6516 9.50891C 17.6516 13.4954 14.4548 16.6851 10.445 16.6851L 10.445 18.4799C 15.4397 18.4799 19.4464 14.493 19.4464 9.50891L 17.6516 9.50891ZM 10.445 16.6851L 8.10392 16.6851L 8.10392 18.4799L 10.445 18.4799L 10.445 16.6851ZM 8.10392 16.6851C 4.09421 16.6851 0.897433 13.4954 0.897433 9.50891L -0.897411 9.50891C -0.897411 14.493 3.10929 18.4799 8.10392 18.4799L 8.10392 16.6851ZM 0.897433 9.50891L 0.897433 -5.47526e-06L -0.897411 -5.47526e-06L -0.897411 9.50891L 0.897433 9.50891ZM 1.09916e-05 0.897417L 18.549 0.897417L 18.549 -0.897428L 1.09916e-05 -0.897428L 1.09916e-05 0.897417Z"/>
<path id="path2_fill" d="M 2.19833e-05 1.09505e-05L 16.3879 1.09505e-05L 16.3879 3.22943C 16.3879 3.22943 12.9662 5.20299 8.28398 5.20299C 3.60172 5.20299 0.180065 3.05003 0.180065 3.05003L 0.180065 1.09505e-05L 2.19833e-05 1.09505e-05Z"/>
<path id="path3_fill" d="M 22.1507 63.6917C 9.90476 63.6917 0 53.824 0 41.6239L 0 18.1207C 0 8.0736 8.10392 0 18.1888 0L 25.9326 0C 36.0174 0 44.1213 8.0736 44.1213 18.1207L 44.1213 41.6239C 44.1213 53.824 34.2165 63.6917 22.1507 63.6917Z"/>
<path id="path4_stroke" d="M 22.1507 62.7943C 10.3972 62.7943 0.897422 53.3252 0.897422 41.6239L -0.897422 41.6239C -0.897422 54.3228 9.4123 64.5892 22.1507 64.5892L 22.1507 62.7943ZM 0.897422 41.6239L 0.897422 18.1207L -0.897422 18.1207L -0.897422 41.6239L 0.897422 41.6239ZM 0.897422 18.1207C 0.897422 8.5724 8.59638 0.897422 18.1888 0.897422L 18.1888 -0.897422C 7.61147 -0.897422 -0.897422 7.5748 -0.897422 18.1207L 0.897422 18.1207ZM 18.1888 0.897422L 25.9326 0.897422L 25.9326 -0.897422L 18.1888 -0.897422L 18.1888 0.897422ZM 25.9326 0.897422C 35.525 0.897422 43.2239 8.5724 43.2239 18.1207L 45.0187 18.1207C 45.0187 7.5748 36.5099 -0.897422 25.9326 -0.897422L 25.9326 0.897422ZM 43.2239 18.1207L 43.2239 41.6239L 45.0187 41.6239L 45.0187 18.1207L 43.2239 18.1207ZM 43.2239 41.6239C 43.2239 53.33 33.7193 62.7943 22.1507 62.7943L 22.1507 64.5892C 34.7137 64.5892 45.0187 54.318 45.0187 41.6239L 43.2239 41.6239Z"/>
<path id="path5_stroke" d="M 0.783792 -0.437066C 0.542401 -0.869943 -0.00420078 -1.02517 -0.437077 -0.783781C -0.869954 -0.54239 -1.02518 0.00421173 -0.783792 0.437088L 0.783792 -0.437066ZM 8.27928 2.85366C 8.76536 2.75681 9.08089 2.28425 8.98403 1.79818C 8.88718 1.3121 8.41463 0.996568 7.92855 1.09342L 8.27928 2.85366ZM 0 1.09505e-05C -0.783792 0.437088 -0.783432 0.437734 -0.783063 0.438393C -0.782931 0.438629 -0.782555 0.4393 -0.782289 0.439773C -0.781758 0.440718 -0.781196 0.441714 -0.780604 0.44276C -0.77942 0.444852 -0.778113 0.447144 -0.776682 0.449633C -0.773821 0.454609 -0.770465 0.460371 -0.766602 0.466888C -0.758876 0.47992 -0.749118 0.495978 -0.737236 0.514811C -0.713479 0.552467 -0.681193 0.601283 -0.639643 0.659235C -0.556576 0.775093 -0.436209 0.927851 -0.272669 1.10107C 0.0549922 1.44812 0.554844 1.87603 1.27098 2.25221C 2.7176 3.01212 4.95778 3.51548 8.27928 2.85366L 7.92855 1.09342C 4.947 1.6875 3.13522 1.20409 2.10565 0.663257C 1.58369 0.389071 1.23938 0.0881214 1.03241 -0.131098C 0.928634 -0.241016 0.859066 -0.330745 0.819027 -0.38659C 0.799023 -0.41449 0.786464 -0.43383 0.780763 -0.442866C 0.777916 -0.44738 0.776792 -0.449302 0.777319 -0.448414C 0.777582 -0.44797 0.778259 -0.44682 0.779341 -0.444939C 0.779882 -0.443998 0.780524 -0.442874 0.781266 -0.441563C 0.781637 -0.440908 0.782034 -0.440206 0.782455 -0.439456C 0.782665 -0.439082 0.783 -0.438484 0.783105 -0.438297C 0.783445 -0.437688 0.783792 -0.437066 0 1.09505e-05Z"/>
<path id="path6_fill" d="M 1.62077 3.22945C 2.51591 3.22945 3.24154 2.50651 3.24154 1.61472C 3.24154 0.722937 2.51591 0 1.62077 0C 0.725638 0 0 0.722937 0 1.61472C 0 2.50651 0.725638 3.22945 1.62077 3.22945Z"/>
<path id="path7_fill" d="M 1.62074 3.22945C 2.51587 3.22945 3.24157 2.50651 3.24157 1.61472C 3.24157 0.722937 2.51587 0 1.62074 0C 0.725605 0 2.19833e-05 0.722937 2.19833e-05 1.61472C 2.19833e-05 2.50651 0.725605 3.22945 1.62074 3.22945Z"/>
<path id="path8_stroke" d="M 0.474486 -0.761722C 0.0537983 -1.02378 -0.499675 -0.895184 -0.761733 -0.474497C -1.02379 -0.0538093 -0.895195 0.499664 -0.474508 0.761722L 0.474486 -0.761722ZM 3.64187 0.803208C 4.08547 0.582139 4.26586 0.0433187 4.0448 -0.400281C 3.82373 -0.84388 3.28491 -1.02428 2.84131 -0.803208L 3.64187 0.803208ZM -1.09916e-05 0C -0.474508 0.761722 -0.474126 0.761959 -0.473739 0.7622C -0.473602 0.762285 -0.473208 0.76253 -0.472934 0.762699C -0.472386 0.763039 -0.471815 0.763393 -0.47122 0.76376C -0.47003 0.764495 -0.468745 0.765285 -0.467367 0.766128C -0.464611 0.767815 -0.46148 0.769716 -0.457977 0.77182C -0.450973 0.776028 -0.442478 0.781053 -0.432525 0.786806C -0.41263 0.798307 -0.386856 0.81275 -0.355476 0.829413C -0.292797 0.862697 -0.207235 0.905115 -0.100991 0.950758C 0.110753 1.04173 0.409479 1.14758 0.776527 1.21793C 1.51807 1.36006 2.53447 1.35508 3.64187 0.803208L 2.84131 -0.803208C 2.14783 -0.457614 1.54343 -0.462594 1.1144 -0.544828C 0.896154 -0.586659 0.722144 -0.649083 0.607474 -0.698346C 0.550511 -0.722817 0.509446 -0.743502 0.486301 -0.755793C 0.474769 -0.761916 0.467831 -0.765879 0.465743 -0.767086C 0.464703 -0.767687 0.464888 -0.767592 0.466331 -0.766726C 0.467053 -0.766292 0.46809 -0.765665 0.469447 -0.764834C 0.470126 -0.764419 0.470885 -0.763953 0.471724 -0.763434C 0.472144 -0.763175 0.472584 -0.762903 0.473044 -0.762618C 0.473274 -0.762475 0.473635 -0.762251 0.47375 -0.762179C 0.474115 -0.761952 0.474486 -0.761722 -1.09916e-05 0Z"/>
<path id="path9_stroke" d="M 5.25047 1.13361C 5.71089 1.31709 6.23287 1.09259 6.41635 0.632165C 6.59983 0.171745 6.37532 -0.350239 5.9149 -0.533718L 5.25047 1.13361ZM -0.775942 1.82259C -1.02497 2.25112 -0.879455 2.80038 -0.450926 3.04941C -0.0223967 3.29844 0.526871 3.15292 0.775899 2.72439L -0.775942 1.82259ZM 5.58268 0.299947C 5.9149 -0.533718 5.91448 -0.533887 5.91404 -0.534061C 5.91388 -0.534127 5.91342 -0.534306 5.91309 -0.534437C 5.91243 -0.534698 5.91172 -0.534982 5.91094 -0.535286C 5.9094 -0.535896 5.90762 -0.536591 5.90563 -0.537368C 5.90163 -0.538923 5.89674 -0.540808 5.89098 -0.542999C 5.87944 -0.547379 5.86439 -0.552987 5.84599 -0.559619C 5.8092 -0.572877 5.75887 -0.590278 5.69632 -0.610193C 5.57145 -0.649951 5.39652 -0.700159 5.18224 -0.747419C 4.75661 -0.841289 4.15924 -0.927193 3.48169 -0.887486C 2.09128 -0.806004 0.392887 -0.188748 -0.775942 1.82259L 0.775899 2.72439C 1.58803 1.32688 2.68098 0.957361 3.58669 0.904284C 4.05719 0.876712 4.48408 0.936582 4.79568 1.00531C 4.95001 1.03934 5.07195 1.07464 5.15179 1.10006C 5.19159 1.11273 5.22058 1.12284 5.23752 1.12894C 5.24597 1.13199 5.25139 1.13402 5.25361 1.13487C 5.25472 1.13529 5.25502 1.13541 5.25451 1.13521C 5.25425 1.13511 5.25378 1.13493 5.25311 1.13466C 5.25278 1.13453 5.25239 1.13438 5.25195 1.1342C 5.25173 1.13411 5.25136 1.13397 5.25125 1.13392C 5.25086 1.13377 5.25047 1.13361 5.58268 0.299947Z"/>
<path id="path10_stroke" d="M 5.34591 1.29193C 5.78482 1.52217 6.32728 1.35302 6.55752 0.914109C 6.78776 0.475201 6.6186 -0.0672527 6.1797 -0.297495L 5.34591 1.29193ZM -0.726697 1.40659C -1.01751 1.80793 -0.927916 2.36904 -0.526572 2.65986C -0.125228 2.95067 0.43588 2.86107 0.726697 2.45973L -0.726697 1.40659ZM 5.7628 0.497218C 6.1797 -0.297495 6.17929 -0.29771 6.17886 -0.297932C 6.1787 -0.298015 6.17827 -0.298244 6.17795 -0.298411C 6.17731 -0.298743 6.17662 -0.299103 6.17587 -0.299491C 6.17438 -0.300265 6.17268 -0.301148 6.17076 -0.302135C 6.16692 -0.30411 6.16222 -0.306505 6.15669 -0.309293C 6.14562 -0.314867 6.13119 -0.32202 6.11353 -0.330532C 6.07824 -0.347546 6.02994 -0.370051 5.96976 -0.396281C 5.84962 -0.448644 5.68082 -0.516418 5.47253 -0.585074C 5.05877 -0.721455 4.47329 -0.866594 3.79438 -0.893131C 2.39947 -0.947656 0.648924 -0.491844 -0.726697 1.40659L 0.726697 2.45973C 1.69221 1.12728 2.82307 0.865117 3.72427 0.900344C 4.19342 0.918682 4.60968 1.02035 4.91065 1.11955C 5.05972 1.16869 5.17653 1.21591 5.25265 1.24908C 5.29061 1.26562 5.3181 1.27853 5.33408 1.28623C 5.34205 1.29007 5.34712 1.29261 5.34915 1.29363C 5.35016 1.29414 5.35041 1.29427 5.34988 1.29399C 5.34961 1.29386 5.34915 1.29362 5.34849 1.29328C 5.34816 1.2931 5.34778 1.29291 5.34735 1.29268C 5.34714 1.29257 5.34678 1.29238 5.34667 1.29233C 5.3463 1.29213 5.34591 1.29193 5.7628 0.497218Z"/>
<path id="path11_fill" d="M 0 16.5093L 0 18.4828C 0 18.4828 5.5827 17.4064 5.40261 11.1269C 5.40261 11.1269 9.18444 11.3063 9.90478 7.71804C 9.90478 7.71804 13.1464 8.97393 14.5871 5.9239C 14.5871 5.9239 18.3689 9.15334 22.3308 5.74449C 22.3308 5.74449 29.5343 9.51216 34.0365 1.79739C 34.0365 1.79739 32.5957 0.90032 30.6148 0.182667C 30.975 0.00325384 0 -2.32911 0 16.5093Z"/>
<path id="path12_fill" d="M 44.3014 16.65C 44.3014 16.65 42.5005 24.0414 35.4771 20.6161C 34.5767 22.4189 29.1741 23.6809 28.2737 19.3542C 28.2737 19.3542 27.0131 25.4837 22.1507 22.0584C 22.1507 22.0584 21.7905 27.2865 17.4684 26.2048C 17.4684 26.2048 17.8286 33.7766 12.9663 33.2357L 12.9663 57.7538C 12.9663 57.7538 9.54459 61.1791 7.20346 56.6721C 7.20346 56.6721 1.26063 56.6721 3.42167 51.444C 3.42167 51.444 -2.34114 48.3792 2.88138 44.5934C 2.88138 44.5934 0.180087 41.8892 3.96191 39.9061C 3.96191 39.9061 -2.19833e-05 39.185 -2.19833e-05 36.661C -2.19833e-05 34.1371 2.16107 33.0554 4.32211 33.2357C 4.32211 33.2357 1.62078 31.2526 3.96191 28.909C 3.96191 28.909 0.720359 24.9428 3.24158 20.2556C 5.76279 15.5683 10.8052 15.7486 12.0658 16.1091C 12.0658 16.1091 10.2649 11.0613 13.6866 8.35709C 17.1083 5.65289 20.5299 7.99652 20.5299 7.99652C 20.5299 7.99652 19.9897 3.30925 24.852 1.32617C 29.7144 -0.656913 33.136 4.03037 33.136 4.03037C 33.136 4.03037 35.117 0.96561 37.9984 0.24449C 40.8798 -0.47663 43.401 0.424762 45.2019 2.58812C 45.2019 2.58812 49.8841 0.24449 52.5854 3.85009C 55.2867 7.45569 52.5854 10.1599 52.5854 10.1599C 52.5854 10.1599 61.95 10.1599 58.7084 17.3711C 58.7084 17.3711 66.6322 20.2556 61.4097 25.1231C 61.4097 25.1231 67.3525 26.7456 63.9309 31.0724C 63.9309 31.0724 66.8123 31.7935 66.9924 34.4977C 67.1724 37.2019 64.111 38.2836 64.111 38.2836C 64.111 38.2836 66.9923 40.8075 65.3715 44.5934C 63.7507 48.199 59.4287 47.8384 57.0876 47.6581L 57.0876 34.1371C 57.0876 34.1371 57.808 21.3372 44.3014 16.65Z"/>
<path id="path13_stroke" d="M 44.3014 16.65L 44.5957 15.8021C 44.3568 15.7193 44.0941 15.741 43.8721 15.8619C 43.6501 15.9829 43.4894 16.1919 43.4295 16.4375L 44.3014 16.65ZM 35.4771 20.6161L 35.8705 19.8095C 35.428 19.5937 34.8943 19.7747 34.6743 20.2151L 35.4771 20.6161ZM 28.2737 19.3542L 29.1523 19.1713C 29.0655 18.7547 28.6982 18.4562 28.2726 18.4567C 27.847 18.4572 27.4804 18.7566 27.3946 19.1734L 28.2737 19.3542ZM 22.1507 22.0584L 22.6675 21.3247C 22.4026 21.1381 22.0577 21.1088 21.7651 21.248C 21.4725 21.3873 21.2777 21.6734 21.2554 21.9967L 22.1507 22.0584ZM 17.4684 26.2048L 17.6863 25.3342C 17.4109 25.2653 17.1192 25.3307 16.8996 25.5107C 16.68 25.6906 16.5585 25.9639 16.572 26.2474L 17.4684 26.2048ZM 12.9663 33.2357L 13.0655 32.3438C 12.8118 32.3156 12.558 32.3967 12.3678 32.567C 12.1776 32.7372 12.0688 32.9804 12.0688 33.2357L 12.9663 33.2357ZM 12.9663 57.7538L 13.6012 58.388C 13.7693 58.2198 13.8637 57.9916 13.8637 57.7538L 12.9663 57.7538ZM 7.20346 56.6721L 7.99985 56.2585C 7.84545 55.9612 7.53839 55.7747 7.20346 55.7747L 7.20346 56.6721ZM 3.42167 51.444L 4.25104 51.7868C 4.42754 51.3598 4.25099 50.8686 3.84305 50.6517L 3.42167 51.444ZM 2.88138 44.5934L 3.4081 45.32C 3.62072 45.1658 3.75517 44.9263 3.77598 44.6645C 3.79679 44.4027 3.70189 44.1449 3.51629 43.9591L 2.88138 44.5934ZM 3.96191 39.9061L 4.37867 40.7009C 4.71792 40.523 4.90686 40.1494 4.84906 39.7707C 4.79127 39.392 4.49949 39.0918 4.12262 39.0232L 3.96191 39.9061ZM 4.32211 33.2357L 4.2475 34.13C 4.64789 34.1634 5.02168 33.9267 5.16256 33.5504C 5.30343 33.1741 5.17705 32.7501 4.85318 32.5123L 4.32211 33.2357ZM 3.96191 28.909L 4.59683 29.5432C 4.92241 29.2173 4.94832 28.6978 4.65678 28.3411L 3.96191 28.909ZM 12.0658 16.1091L 11.819 16.9719C 12.1424 17.0644 12.4903 16.9683 12.7204 16.723C 12.9505 16.4777 13.0241 16.1243 12.9111 15.8076L 12.0658 16.1091ZM 20.5299 7.99652L 20.0228 8.73692C 20.3129 8.93558 20.6922 8.94659 20.9933 8.76509C 21.2943 8.58359 21.4617 8.243 21.4215 7.89376L 20.5299 7.99652ZM 33.136 4.03037L 32.4112 4.55949C 32.5854 4.7982 32.8661 4.93581 33.1615 4.92743C 33.4569 4.91904 33.7293 4.76574 33.8897 4.51753L 33.136 4.03037ZM 45.2019 2.58812L 44.5122 3.16227C 44.7788 3.48259 45.2309 3.57717 45.6036 3.39063L 45.2019 2.58812ZM 52.5854 10.1599L 51.9505 9.52566C 51.694 9.78239 51.6174 10.1683 51.7564 10.5035C 51.8953 10.8388 52.2225 11.0573 52.5854 11.0573L 52.5854 10.1599ZM 58.7084 17.3711L 57.8899 17.0031C 57.7876 17.2307 57.7846 17.4905 57.8817 17.7202C 57.9787 17.95 58.167 18.1291 58.4014 18.2144L 58.7084 17.3711ZM 61.4097 25.1231L 60.7978 24.4666C 60.5597 24.6886 60.4604 25.022 60.5384 25.3381C 60.6164 25.6541 60.8593 25.9031 61.1733 25.9889L 61.4097 25.1231ZM 63.9309 31.0724L 63.2269 30.5157C 63.0379 30.7547 62.9831 31.0732 63.0813 31.3617C 63.1796 31.6501 63.4174 31.869 63.713 31.9429L 63.9309 31.0724ZM 64.111 38.2836L 63.812 37.4374C 63.5115 37.5436 63.2899 37.8012 63.2297 38.1142C 63.1696 38.4272 63.2799 38.7486 63.5197 38.9586L 64.111 38.2836ZM 65.3715 44.5934L 66.1901 44.9613C 66.1923 44.9564 66.1944 44.9515 66.1965 44.9466L 65.3715 44.5934ZM 57.0876 47.6581L 56.1901 47.6581C 56.1901 48.127 56.5511 48.5169 57.0187 48.5529L 57.0876 47.6581ZM 44.3014 16.65C 43.4295 16.4375 43.4296 16.4371 43.4297 16.4368C 43.4297 16.4367 43.4298 16.4363 43.4299 16.4361C 43.4299 16.4358 43.43 16.4356 43.43 16.4354C 43.4301 16.4352 43.4301 16.4353 43.4299 16.4359C 43.4296 16.4371 43.4289 16.44 43.4277 16.4445C 43.4254 16.4535 43.4212 16.469 43.4152 16.4905C 43.4032 16.5334 43.3838 16.5999 43.3562 16.6857C 43.3007 16.8576 43.2132 17.1047 43.0876 17.3929C 42.8336 17.9759 42.4386 18.6942 41.8677 19.3044C 41.303 19.908 40.5833 20.3896 39.6577 20.5587C 38.7316 20.7278 37.4973 20.6029 35.8705 19.8095L 35.0838 21.4227C 36.9687 22.342 38.5933 22.5776 39.9802 22.3243C 41.3676 22.0708 42.4149 21.3467 43.1784 20.5306C 43.9356 19.7212 44.4298 18.8057 44.733 18.1098C 44.886 17.7586 44.994 17.4549 45.0645 17.2361C 45.0998 17.1264 45.126 17.0375 45.1438 16.9738C 45.1527 16.942 45.1595 16.9164 45.1644 16.8976C 45.1669 16.8883 45.1688 16.8806 45.1703 16.8747C 45.171 16.8718 45.1717 16.8692 45.1722 16.8672C 45.1724 16.8662 45.1727 16.8653 45.1729 16.8645C 45.173 16.8641 45.1731 16.8635 45.1731 16.8633C 45.1732 16.8629 45.1734 16.8624 44.3014 16.65ZM 34.6743 20.2151C 34.5764 20.4111 34.2739 20.7138 33.7166 20.9758C 33.1835 21.2263 32.5256 21.3863 31.8754 21.3863C 31.2262 21.3863 30.6338 21.2281 30.1738 20.8998C 29.7289 20.5822 29.3363 20.0555 29.1523 19.1713L 27.3951 19.537C 27.6613 20.8162 28.2816 21.7543 29.1311 22.3606C 29.9654 22.9562 30.9488 23.1811 31.8754 23.1811C 32.801 23.1811 33.7188 22.958 34.4801 22.6001C 35.2171 22.2537 35.9277 21.7225 36.28 21.0171L 34.6743 20.2151ZM 28.2737 19.3542C 27.3946 19.1734 27.3947 19.173 27.3948 19.1727C 27.3948 19.1726 27.3948 19.1723 27.3949 19.1722C 27.3949 19.1718 27.395 19.1716 27.395 19.1715C 27.3951 19.1712 27.3951 19.1713 27.395 19.1717C 27.3948 19.1726 27.3943 19.1749 27.3935 19.1785C 27.3919 19.1857 27.3891 19.1982 27.385 19.2156C 27.3767 19.2505 27.3633 19.3046 27.3443 19.3743C 27.3061 19.5142 27.2458 19.7141 27.1598 19.9451C 26.9839 20.417 26.7176 20.9718 26.347 21.4152C 25.9821 21.8518 25.5608 22.1309 25.0554 22.1894C 24.5439 22.2487 23.7718 22.1026 22.6675 21.3247L 21.6339 22.792C 22.9608 23.7268 24.1696 24.099 25.2621 23.9723C 26.3605 23.845 27.1661 23.2339 27.7241 22.5663C 28.2764 21.9055 28.6292 21.142 28.8417 20.5717C 28.9498 20.2815 29.026 20.0293 29.0757 19.8474C 29.1006 19.7562 29.119 19.682 29.1316 19.6287C 29.1379 19.6021 29.1428 19.5806 29.1463 19.5648C 29.148 19.5569 29.1494 19.5505 29.1505 19.5455C 29.151 19.543 29.1515 19.5408 29.1518 19.5391C 29.152 19.5382 29.1522 19.5374 29.1523 19.5367C 29.1524 19.5364 29.1525 19.5359 29.1525 19.5358C 29.1526 19.5353 29.1527 19.5349 28.2737 19.3542ZM 22.1507 22.0584C 21.2554 21.9967 21.2554 21.9963 21.2555 21.996C 21.2555 21.9959 21.2555 21.9956 21.2555 21.9955C 21.2555 21.9951 21.2555 21.9949 21.2555 21.9947C 21.2556 21.9943 21.2556 21.9943 21.2556 21.9945C 21.2555 21.995 21.2554 21.9967 21.2552 21.9995C 21.2547 22.0052 21.2538 22.0155 21.2524 22.0301C 21.2496 22.0592 21.2446 22.1052 21.2368 22.1653C 21.2212 22.286 21.1941 22.4615 21.1494 22.6705C 21.0585 23.095 20.9014 23.6262 20.64 24.1121C 20.3786 24.5982 20.0395 24.9904 19.6051 25.2193C 19.1885 25.4388 18.5873 25.5597 17.6863 25.3342L 17.2506 27.0754C 18.5106 27.3907 19.5753 27.2637 20.4417 26.8072C 21.2904 26.3601 21.8518 25.6481 22.2207 24.9623C 22.5897 24.2764 22.7927 23.5682 22.9044 23.0462C 22.961 22.782 22.9958 22.5575 23.0167 22.3965C 23.0272 22.3158 23.0343 22.2505 23.0388 22.2036C 23.0411 22.1801 23.0428 22.1611 23.0439 22.1471C 23.0445 22.1401 23.045 22.1343 23.0453 22.1298C 23.0455 22.1275 23.0456 22.1256 23.0457 22.1239C 23.0458 22.1231 23.0458 22.1224 23.0459 22.1218C 23.0459 22.1214 23.0459 22.121 23.046 22.1208C 23.046 22.1204 23.046 22.12 22.1507 22.0584ZM 17.4684 26.2048C 16.572 26.2474 16.572 26.2472 16.572 26.247C 16.572 26.2469 16.572 26.2467 16.572 26.2467C 16.572 26.2465 16.572 26.2465 16.572 26.2466C 16.572 26.2467 16.572 26.2473 16.5721 26.2484C 16.5722 26.2505 16.5723 26.2543 16.5725 26.2599C 16.5729 26.271 16.5735 26.289 16.5742 26.3132C 16.5755 26.3618 16.5768 26.4355 16.577 26.5306C 16.5773 26.7212 16.5728 26.9961 16.5529 27.3255C 16.5129 27.99 16.4123 28.8498 16.1774 29.6782C 15.9392 30.5178 15.5857 31.2438 15.0945 31.7228C 14.6392 32.1667 14.0172 32.4497 13.0655 32.3438L 12.8671 34.1276C 14.3465 34.2922 15.5028 33.8315 16.3475 33.0078C 17.1564 32.2192 17.6245 31.1537 17.9041 30.168C 18.1869 29.171 18.3001 28.1716 18.3445 27.4333C 18.3669 27.0614 18.3722 26.749 18.3718 26.5276C 18.3716 26.4167 18.37 26.3283 18.3684 26.2662C 18.3676 26.2351 18.3668 26.2106 18.3661 26.1931C 18.3658 26.1843 18.3655 26.1774 18.3653 26.1722C 18.3652 26.1696 18.3651 26.1675 18.365 26.1658C 18.365 26.1649 18.3649 26.1642 18.3649 26.1636C 18.3649 26.1633 18.3649 26.163 18.3649 26.1628C 18.3649 26.1625 18.3648 26.1622 17.4684 26.2048ZM 12.0688 33.2357L 12.0688 57.7538L 13.8637 57.7538L 13.8637 33.2357L 12.0688 33.2357ZM 12.9663 57.7538C 12.3313 57.1196 12.3316 57.1193 12.3319 57.119C 12.332 57.1189 12.3323 57.1186 12.3324 57.1185C 12.3328 57.1182 12.333 57.1179 12.3332 57.1177C 12.3337 57.1173 12.3339 57.117 12.3339 57.117C 12.334 57.1169 12.3333 57.1176 12.3318 57.119C 12.3289 57.1219 12.3229 57.1276 12.3141 57.1359C 12.2963 57.1525 12.2672 57.1792 12.2277 57.2133C 12.1483 57.282 12.0294 57.3788 11.8796 57.4839C 11.573 57.6991 11.1724 57.9234 10.7409 58.0335C 10.3222 58.1404 9.8993 58.1352 9.48058 57.9338C 9.05414 57.7287 8.5242 57.2679 7.99985 56.2585L 6.40707 57.0858C 7.05328 58.3299 7.82897 59.131 8.70254 59.5513C 9.58383 59.9752 10.4553 59.9588 11.1847 59.7726C 11.9012 59.5898 12.5024 59.2395 12.9104 58.9532C 13.118 58.8076 13.2847 58.6721 13.4017 58.571C 13.4603 58.5203 13.5069 58.4778 13.5405 58.4464C 13.5572 58.4307 13.5708 58.4178 13.5809 58.4079C 13.586 58.403 13.5902 58.3989 13.5936 58.3955C 13.5953 58.3939 13.5968 58.3924 13.598 58.3911C 13.5987 58.3905 13.5993 58.3899 13.5998 58.3894C 13.6 58.3892 13.6004 58.3888 13.6005 58.3887C 13.6009 58.3884 13.6012 58.388 12.9663 57.7538ZM 7.20346 56.6721C 7.20346 55.7747 7.20382 55.7747 7.20416 55.7747C 7.20425 55.7747 7.20457 55.7747 7.20474 55.7747C 7.20508 55.7747 7.20533 55.7747 7.20549 55.7747C 7.20582 55.7747 7.2058 55.7747 7.20544 55.7747C 7.20473 55.7747 7.20266 55.7747 7.19929 55.7746C 7.19253 55.7745 7.18059 55.7743 7.16387 55.7738C 7.1304 55.7728 7.07804 55.7707 7.0101 55.7664C 6.87373 55.7576 6.67742 55.7397 6.44706 55.7038C 5.97615 55.6303 5.41105 55.4883 4.92713 55.2282C 4.4509 54.9721 4.10755 54.6334 3.94938 54.1742C 3.78981 53.711 3.76376 52.9657 4.25104 51.7868L 2.59231 51.1012C 1.99907 52.5364 1.90548 53.7516 2.25239 54.7588C 2.60071 55.77 3.33787 56.4115 4.07722 56.809C 4.80887 57.2024 5.59441 57.3872 6.17026 57.4771C 6.46327 57.5229 6.71435 57.5459 6.89454 57.5575C 6.98488 57.5633 7.05809 57.5663 7.11061 57.5679C 7.1369 57.5687 7.15806 57.5691 7.17367 57.5693C 7.18147 57.5694 7.18789 57.5695 7.19287 57.5695C 7.19536 57.5695 7.19749 57.5695 7.19926 57.5695C 7.20014 57.5695 7.20093 57.5695 7.20163 57.5695C 7.20198 57.5696 7.20244 57.5696 7.20261 57.5696C 7.20305 57.5696 7.20345 57.5696 7.20346 56.6721ZM 3.42167 51.444C 3.84305 50.6517 3.84338 50.6518 3.84368 50.652C 3.84375 50.652 3.84403 50.6522 3.84417 50.6522C 3.84446 50.6524 3.84466 50.6525 3.84478 50.6526C 3.84501 50.6527 3.84492 50.6526 3.84449 50.6524C 3.84363 50.652 3.84147 50.6508 3.83806 50.6489C 3.83124 50.6451 3.81946 50.6386 3.8032 50.6293C 3.77066 50.6107 3.72044 50.5814 3.65648 50.5418C 3.52809 50.4623 3.34698 50.3434 3.14376 50.1899C 2.7278 49.8757 2.26373 49.4498 1.95043 48.9569C 1.64467 48.4759 1.51317 47.9856 1.63581 47.4678C 1.76267 46.9322 2.2019 46.1943 3.4081 45.32L 2.35466 43.8668C 0.949603 44.8853 0.150736 45.9503 -0.110711 47.0541C -0.376379 48.1757 -0.0463957 49.1614 0.43573 49.9198C 0.910322 50.6664 1.56054 51.2433 2.06191 51.622C 2.31735 51.815 2.54566 51.9651 2.71203 52.068C 2.79545 52.1197 2.86394 52.1598 2.91326 52.188C 2.93794 52.2021 2.95787 52.2132 2.97254 52.2213C 2.97988 52.2253 2.9859 52.2286 2.99055 52.2311C 2.99287 52.2324 2.99485 52.2334 2.99648 52.2343C 2.99729 52.2347 2.99802 52.2351 2.99865 52.2355C 2.99897 52.2356 2.99938 52.2359 2.99954 52.2359C 2.99993 52.2361 3.0003 52.2363 3.42167 51.444ZM 2.88138 44.5934C 3.51629 43.9591 3.51662 43.9595 3.51693 43.9598C 3.51702 43.9599 3.51732 43.9602 3.5175 43.9603C 3.51786 43.9607 3.51818 43.961 3.51847 43.9613C 3.51903 43.9619 3.51945 43.9623 3.51971 43.9626C 3.52024 43.9631 3.52017 43.963 3.51953 43.9624C 3.51826 43.9611 3.51475 43.9574 3.50926 43.9515C 3.49825 43.9397 3.47949 43.919 3.45503 43.8904C 3.40579 43.8327 3.33548 43.7451 3.25966 43.634C 3.10324 43.4048 2.94822 43.112 2.88006 42.8012C 2.81538 42.5062 2.82904 42.2041 2.99277 41.8911C 3.16266 41.5665 3.54201 41.1396 4.37867 40.7009L 3.54515 39.1113C 2.49091 39.6641 1.78973 40.3189 1.40247 41.059C 1.00906 41.8109 0.988949 42.5566 1.12687 43.1856C 1.2613 43.7987 1.54524 44.3059 1.77713 44.6457C 1.89546 44.8191 2.00665 44.9582 2.09036 45.0562C 2.13238 45.1054 2.16796 45.1448 2.19467 45.1735C 2.20805 45.1879 2.21924 45.1997 2.22796 45.2087C 2.23232 45.2132 2.23607 45.2171 2.23916 45.2202C 2.24071 45.2218 2.2421 45.2232 2.24331 45.2244C 2.24392 45.225 2.24449 45.2256 2.24502 45.2261C 2.24528 45.2264 2.24564 45.2268 2.24577 45.2269C 2.24613 45.2273 2.24647 45.2276 2.88138 44.5934ZM 3.96191 39.9061C 4.12262 39.0232 4.12287 39.0232 4.1231 39.0233C 4.12316 39.0233 4.12338 39.0233 4.1235 39.0233C 4.12374 39.0234 4.12392 39.0234 4.12404 39.0234C 4.12428 39.0235 4.12428 39.0235 4.12406 39.0234C 4.12361 39.0233 4.12225 39.0231 4.12001 39.0227C 4.11551 39.0218 4.10749 39.0202 4.09616 39.0179C 4.0735 39.0133 4.03774 39.0058 3.99076 38.9951C 3.89663 38.9737 3.75854 38.9398 3.59137 38.8916C 3.25372 38.7943 2.81377 38.6433 2.38263 38.4275C 1.45739 37.9644 0.8974 37.3803 0.8974 36.661L -0.897444 36.661C -0.897444 38.4657 0.523531 39.5041 1.57926 40.0325C 2.13861 40.3125 2.68914 40.4995 3.09435 40.6163C 3.29861 40.6752 3.47005 40.7174 3.59258 40.7452C 3.65394 40.7592 3.7033 40.7696 3.73867 40.7768C 3.75637 40.7804 3.77059 40.7832 3.78109 40.7852C 3.78634 40.7862 3.79066 40.787 3.79402 40.7877C 3.79571 40.788 3.79715 40.7883 3.79835 40.7885C 3.79895 40.7886 3.79949 40.7887 3.79996 40.7888C 3.8002 40.7888 3.80051 40.7889 3.80063 40.7889C 3.80093 40.789 3.80121 40.789 3.96191 39.9061ZM 0.8974 36.661C 0.8974 35.6913 1.29512 35.0659 1.8629 34.6712C 2.46443 34.253 3.32436 34.053 4.2475 34.13L 4.39672 32.3414C 3.15882 32.2381 1.85768 32.4889 0.838401 33.1974C -0.214624 33.9295 -0.897444 35.1068 -0.897444 36.661L 0.8974 36.661ZM 4.32211 33.2357C 4.85318 32.5123 4.85352 32.5126 4.85384 32.5128C 4.85394 32.5129 4.85425 32.5131 4.85444 32.5132C 4.85482 32.5135 4.85517 32.5138 4.85547 32.514C 4.85608 32.5144 4.85653 32.5148 4.85683 32.515C 4.85744 32.5155 4.85744 32.5155 4.85686 32.515C 4.85572 32.5141 4.85229 32.5115 4.8468 32.5072C 4.8358 32.4986 4.8167 32.4833 4.79127 32.4617C 4.74012 32.4183 4.66509 32.351 4.5796 32.2632C 4.40432 32.0832 4.20744 31.8397 4.07149 31.5595C 3.93821 31.2848 3.87481 31.0002 3.91836 30.7046C 3.96116 30.4142 4.12078 30.0198 4.59683 29.5432L 3.327 28.2748C 2.63248 28.97 2.25185 29.7023 2.1427 30.4429C 2.03431 31.1784 2.20728 31.8289 2.45669 32.343C 2.70342 32.8515 3.03556 33.2502 3.29362 33.5153C 3.42479 33.65 3.54251 33.756 3.62994 33.8302C 3.67381 33.8674 3.71046 33.897 3.73789 33.9185C 3.75161 33.9293 3.76307 33.9381 3.772 33.9449C 3.77647 33.9483 3.78031 33.9512 3.78349 33.9535C 3.78508 33.9547 3.78651 33.9558 3.78777 33.9567C 3.7884 33.9572 3.78898 33.9576 3.78953 33.958C 3.7898 33.9582 3.79018 33.9585 3.79032 33.9586C 3.79068 33.9589 3.79104 33.9591 4.32211 33.2357ZM 3.96191 28.909C 4.65678 28.3411 4.65703 28.3414 4.65727 28.3417C 4.65734 28.3418 4.65757 28.342 4.6577 28.3422C 4.65796 28.3425 4.65817 28.3428 4.65833 28.343C 4.65865 28.3434 4.65879 28.3435 4.65873 28.3435C 4.65863 28.3433 4.65778 28.3423 4.65621 28.3403C 4.65309 28.3364 4.64712 28.3288 4.63857 28.3176C 4.62148 28.2953 4.59414 28.2588 4.55867 28.209C 4.48765 28.1092 4.3846 27.9567 4.26628 27.7576C 4.02879 27.3579 3.73486 26.7795 3.51251 26.0712C 3.07104 24.665 2.91237 22.7621 4.03192 20.6807L 2.45123 19.8305C 1.04957 22.4363 1.25107 24.8601 1.80007 26.6088C 2.07295 27.478 2.43184 28.184 2.72335 28.6745C 2.86953 28.9205 3.00003 29.1144 3.09643 29.2498C 3.14468 29.3176 3.18452 29.3709 3.21368 29.409C 3.22826 29.428 3.24018 29.4433 3.24917 29.4546C 3.25366 29.4603 3.25742 29.465 3.26041 29.4687C 3.26191 29.4706 3.26321 29.4722 3.26432 29.4736C 3.26487 29.4742 3.26538 29.4749 3.26583 29.4754C 3.26606 29.4757 3.26636 29.4761 3.26648 29.4762C 3.26677 29.4766 3.26705 29.4769 3.96191 28.909ZM 4.03192 20.6807C 5.15809 18.587 6.82936 17.5938 8.37322 17.1522C 9.95518 16.6997 11.3597 16.8406 11.819 16.9719L 12.3126 15.2463C 11.5114 15.0171 9.76435 14.8875 7.87964 15.4266C 5.95683 15.9765 3.84628 17.2369 2.45123 19.8305L 4.03192 20.6807ZM 12.0658 16.1091C 12.9111 15.8076 12.9112 15.8079 12.9113 15.8081C 12.9113 15.8082 12.9114 15.8085 12.9114 15.8086C 12.9115 15.8089 12.9116 15.8091 12.9117 15.8092C 12.9117 15.8095 12.9117 15.8094 12.9116 15.8091C 12.9114 15.8084 12.9107 15.8065 12.9097 15.8035C 12.9076 15.7975 12.904 15.7868 12.8991 15.7718C 12.8892 15.7418 12.8741 15.6945 12.8554 15.6314C 12.8179 15.5053 12.7663 15.3175 12.7137 15.0821C 12.6078 14.609 12.5006 13.9568 12.4904 13.2346C 12.4699 11.7777 12.8392 10.1707 14.243 9.06117L 13.1301 7.65301C 11.1123 9.24772 10.6712 11.5167 10.6958 13.2598C 10.7081 14.1375 10.8373 14.9164 10.9621 15.4741C 11.0248 15.7543 11.0872 15.982 11.1348 16.1424C 11.1587 16.2227 11.1789 16.2864 11.1938 16.3317C 11.2012 16.3543 11.2073 16.3724 11.2119 16.3856C 11.2141 16.3922 11.216 16.3977 11.2175 16.4018C 11.2182 16.4039 11.2188 16.4057 11.2193 16.4072C 11.2196 16.4079 11.2198 16.4086 11.22 16.4092C 11.2202 16.4095 11.2203 16.4098 11.2203 16.41C 11.2205 16.4103 11.2206 16.4107 12.0658 16.1091ZM 14.243 9.06117C 15.7082 7.90327 17.1386 7.83472 18.2212 8.04386C 18.772 8.15027 19.234 8.33015 19.5573 8.48346C 19.7181 8.55968 19.8419 8.62807 19.9222 8.67518C 19.9622 8.69868 19.9912 8.71674 20.0083 8.72764C 20.0169 8.73309 20.0224 8.73673 20.0249 8.73835C 20.0261 8.73917 20.0266 8.73947 20.0262 8.73924C 20.026 8.73913 20.0257 8.73888 20.0251 8.73849C 20.0248 8.7383 20.0245 8.73807 20.0241 8.73781C 20.0239 8.73768 20.0236 8.73746 20.0235 8.73739C 20.0232 8.73716 20.0228 8.73692 20.5299 7.99652C 21.0371 7.25612 21.0367 7.25586 21.0363 7.2556C 21.0361 7.2555 21.0357 7.25522 21.0354 7.25502C 21.0349 7.25461 21.0342 7.25418 21.0335 7.2537C 21.0321 7.25275 21.0305 7.25166 21.0287 7.25043C 21.025 7.24796 21.0205 7.24495 21.0151 7.24141C 21.0044 7.23432 20.9904 7.22514 20.973 7.21408C 20.9383 7.19197 20.8905 7.16232 20.8303 7.12702C 20.7101 7.05652 20.5398 6.96294 20.3263 6.8617C 19.9012 6.66009 19.2939 6.42307 18.5616 6.2816C 17.0779 5.99497 15.0867 6.10671 13.1301 7.65301L 14.243 9.06117ZM 20.5299 7.99652C 21.4215 7.89376 21.4215 7.89421 21.4216 7.89464C 21.4216 7.89476 21.4216 7.89518 21.4216 7.89542C 21.4217 7.8959 21.4217 7.89632 21.4218 7.89667C 21.4219 7.89736 21.4219 7.89778 21.4219 7.89793C 21.422 7.89822 21.4219 7.89744 21.4217 7.89561C 21.4213 7.89193 21.4206 7.88407 21.4197 7.87222C 21.4178 7.84851 21.4151 7.80899 21.4129 7.75541C 21.4086 7.64807 21.4066 7.48547 21.4176 7.28139C 21.4397 6.87134 21.5136 6.3056 21.7191 5.68851C 22.1219 4.4786 23.0377 3.0353 25.1909 2.15714L 24.5131 0.495198C 21.8039 1.60012 20.5587 3.49199 20.0161 5.12148C 19.7489 5.9241 19.6539 6.65412 19.6254 7.18491C 19.611 7.45125 19.6132 7.67034 19.6195 7.82707C 19.6226 7.90553 19.6268 7.96866 19.6305 8.01457C 19.6323 8.03754 19.634 8.05624 19.6354 8.07042C 19.6361 8.07752 19.6367 8.08349 19.6372 8.08831C 19.6375 8.09072 19.6377 8.09284 19.6379 8.09467C 19.638 8.09558 19.6381 8.09643 19.6382 8.09719C 19.6382 8.09758 19.6383 8.0981 19.6383 8.09829C 19.6384 8.0988 19.6384 8.09928 20.5299 7.99652ZM 25.1909 2.15714C 27.272 1.30839 29.0344 1.87012 30.3383 2.69342C 30.9945 3.10781 31.5198 3.58167 31.8817 3.95426C 32.0617 4.13955 32.1987 4.2971 32.2887 4.40564C 32.3336 4.45983 32.3666 4.50157 32.3872 4.52817C 32.3976 4.54146 32.4047 4.55094 32.4088 4.55628C 32.4108 4.55895 32.412 4.56058 32.4124 4.56113C 32.4126 4.56141 32.4126 4.56141 32.4124 4.56114C 32.4123 4.561 32.4121 4.5608 32.4119 4.56053C 32.4118 4.56039 32.4117 4.56013 32.4116 4.56006C 32.4114 4.55979 32.4112 4.55949 33.136 4.03037C 33.8609 3.50124 33.8606 3.50091 33.8604 3.50057C 33.8603 3.50043 33.86 3.50006 33.8598 3.49978C 33.8594 3.49922 33.8589 3.49859 33.8584 3.49789C 33.8574 3.49648 33.8561 3.49479 33.8547 3.49282C 33.8517 3.48888 33.848 3.48382 33.8434 3.47768C 33.8341 3.4654 33.8215 3.44881 33.8056 3.42825C 33.7737 3.38715 33.7285 3.33013 33.6703 3.26003C 33.5542 3.11998 33.3859 2.92682 33.1691 2.70367C 32.7375 2.25936 32.1035 1.68535 31.2965 1.17581C 29.674 0.15123 27.2944 -0.639131 24.5131 0.495198L 25.1909 2.15714ZM 33.136 4.03037C 33.8897 4.51753 33.8896 4.51772 33.8895 4.5179C 33.8894 4.51795 33.8893 4.51812 33.8893 4.51821C 33.8892 4.51839 33.8891 4.51852 33.889 4.51861C 33.8889 4.51879 33.8889 4.51879 33.889 4.51861C 33.8892 4.51825 33.89 4.51717 33.8911 4.51539C 33.8935 4.51183 33.8977 4.5055 33.9037 4.49654C 33.9157 4.47863 33.9351 4.45027 33.9614 4.41276C 34.0141 4.33769 34.0945 4.22633 34.2007 4.08897C 34.4136 3.81345 34.7263 3.43777 35.1216 3.04208C 35.9271 2.23574 37.0037 1.41853 38.2163 1.11506L 37.7805 -0.626083C 36.1117 -0.208434 34.7571 0.867301 33.8518 1.77361C 33.3916 2.23426 33.029 2.66983 32.7805 2.99149C 32.6559 3.15272 32.5591 3.28643 32.4922 3.38178C 32.4587 3.42948 32.4326 3.46767 32.4143 3.495C 32.4051 3.50867 32.3978 3.51963 32.3925 3.52772C 32.3898 3.53176 32.3876 3.53509 32.3859 3.53768C 32.3851 3.53897 32.3844 3.54008 32.3838 3.541C 32.3835 3.54146 32.3832 3.54188 32.383 3.54224C 32.3828 3.54243 32.3827 3.54267 32.3826 3.54276C 32.3825 3.54299 32.3823 3.54321 33.136 4.03037ZM 38.2163 1.11506C 40.7546 0.479803 42.926 1.25683 44.5122 3.16227L 45.8916 2.01397C 43.876 -0.407307 41.005 -1.43306 37.7805 -0.626083L 38.2163 1.11506ZM 45.2019 2.58812C 45.6036 3.39063 45.6032 3.39078 45.6029 3.39093C 45.6029 3.39097 45.6026 3.39111 45.6024 3.39119C 45.6021 3.39134 45.6019 3.39145 45.6017 3.39154C 45.6014 3.3917 45.6014 3.39173 45.6016 3.39162C 45.602 3.39141 45.6035 3.39066 45.6061 3.38941C 45.6113 3.38691 45.6207 3.38241 45.6341 3.37615C 45.661 3.36361 45.704 3.34409 45.7614 3.31952C 45.8764 3.27031 46.0482 3.20138 46.2642 3.12804C 46.6993 2.98031 47.2971 2.82034 47.9608 2.76084C 49.2788 2.64269 50.7652 2.91723 51.8672 4.38817L 53.3036 3.31201C 51.7043 1.17735 49.499 0.820907 47.8005 0.973168C 46.956 1.04888 46.2144 1.24947 45.6871 1.42849C 45.422 1.51854 45.2069 1.60453 45.0553 1.6694C 44.9794 1.70188 44.9191 1.72918 44.8761 1.74922C 44.8546 1.75924 44.8374 1.76746 44.8247 1.77361C 44.8183 1.77668 44.8131 1.77924 44.809 1.78125C 44.8069 1.78226 44.8052 1.78313 44.8037 1.78386C 44.803 1.78422 44.8023 1.78455 44.8017 1.78484C 44.8014 1.78499 44.8011 1.78518 44.8009 1.78526C 44.8005 1.78544 44.8002 1.78562 45.2019 2.58812ZM 51.8672 4.38817C 53.0385 5.95157 52.9989 7.23118 52.7387 8.09947C 52.6024 8.55442 52.3963 8.92216 52.2235 9.17584C 52.1378 9.30173 52.0623 9.39653 52.0114 9.45666C 51.986 9.48664 51.967 9.5077 51.9561 9.51941C 51.9507 9.52526 51.9474 9.52875 51.9464 9.52981C 51.9459 9.53034 51.9459 9.53027 51.9466 9.52958C 51.9469 9.52923 51.9474 9.52874 51.9481 9.52808C 51.9484 9.52776 51.9488 9.52739 51.9492 9.52699C 51.9494 9.52678 51.9497 9.52645 51.9498 9.52635C 51.9501 9.52601 51.9505 9.52566 52.5854 10.1599C 53.2203 10.7941 53.2207 10.7937 53.2211 10.7934C 53.2212 10.7932 53.2216 10.7928 53.2219 10.7925C 53.2224 10.792 53.2231 10.7914 53.2237 10.7907C 53.225 10.7894 53.2265 10.7879 53.2281 10.7863C 53.2313 10.7829 53.2352 10.7789 53.2398 10.7742C 53.2488 10.7648 53.2603 10.7527 53.274 10.7379C 53.3014 10.7082 53.3378 10.6677 53.381 10.6166C 53.4673 10.5148 53.5817 10.3702 53.707 10.1862C 53.9563 9.82017 54.2567 9.28651 54.458 8.61471C 54.8732 7.2295 54.8336 5.3542 53.3036 3.31201L 51.8672 4.38817ZM 52.5854 10.1599C 52.5854 11.0573 52.5851 11.0573 52.5848 11.0573C 52.5848 11.0573 52.5846 11.0573 52.5845 11.0573C 52.5843 11.0573 52.5843 11.0573 52.5844 11.0573C 52.5846 11.0573 52.5854 11.0573 52.5867 11.0573C 52.5893 11.0573 52.5941 11.0574 52.601 11.0575C 52.6147 11.0576 52.6368 11.058 52.6665 11.0588C 52.7259 11.0603 52.8158 11.0635 52.9309 11.07C 53.1615 11.083 53.4907 11.1092 53.8769 11.1618C 54.6592 11.2683 55.6298 11.4773 56.4837 11.8748C 57.3403 12.2737 57.987 12.8174 58.2907 13.547C 58.5877 14.2606 58.6356 15.3443 57.8899 17.0031L 59.5269 17.739C 60.402 15.7923 60.4948 14.1717 59.9477 12.8573C 59.4072 11.5587 58.3206 10.7503 57.2413 10.2477C 56.1592 9.74391 54.9913 9.50215 54.1191 9.38335C 53.678 9.32327 53.3009 9.29314 53.032 9.27798C 52.8973 9.27038 52.7892 9.26651 52.7131 9.26453C 52.675 9.26354 52.6449 9.26303 52.6234 9.26276C 52.6126 9.26262 52.604 9.26255 52.5977 9.26251C 52.5945 9.26249 52.5919 9.26248 52.5898 9.26247C 52.5888 9.26247 52.5879 9.26247 52.5872 9.26247C 52.5868 9.26247 52.5864 9.26247 52.5862 9.26247C 52.5858 9.26247 52.5854 9.26247 52.5854 10.1599ZM 58.7084 17.3711C 58.4014 18.2144 58.4011 18.2143 58.4009 18.2142C 58.4008 18.2142 58.4006 18.2141 58.4005 18.2141C 58.4004 18.214 58.4003 18.214 58.4004 18.214C 58.4005 18.214 58.4011 18.2142 58.4021 18.2146C 58.4042 18.2154 58.4081 18.2168 58.4137 18.219C 58.425 18.2232 58.4432 18.2302 58.4678 18.2399C 58.5169 18.2592 58.5912 18.2892 58.6855 18.3296C 58.8746 18.4105 59.1421 18.5323 59.4484 18.6928C 60.0706 19.0188 60.8091 19.4819 61.3826 20.056C 61.9589 20.633 62.2879 21.238 62.2935 21.8663C 62.2989 22.4815 61.9954 23.3504 60.7978 24.4666L 62.0216 25.7796C 63.4352 24.462 64.0997 23.1451 64.0883 21.8504C 64.0769 20.5689 63.4042 19.5401 62.6524 18.7875C 61.8978 18.0321 60.9817 17.4699 60.2814 17.1029C 59.9264 16.9169 59.6156 16.7753 59.3918 16.6795C 59.2797 16.6315 59.1888 16.5948 59.1245 16.5695C 59.0923 16.5568 59.0666 16.547 59.0482 16.54C 59.0391 16.5366 59.0317 16.5338 59.0262 16.5318C 59.0234 16.5307 59.0211 16.5299 59.0193 16.5292C 59.0184 16.5289 59.0176 16.5286 59.017 16.5284C 59.0167 16.5283 59.0163 16.5281 59.0161 16.5281C 59.0157 16.5279 59.0154 16.5278 58.7084 17.3711ZM 61.4097 25.1231C 61.1733 25.9889 61.173 25.9888 61.1727 25.9887C 61.1726 25.9887 61.1724 25.9886 61.1722 25.9885C 61.1719 25.9885 61.1717 25.9884 61.1716 25.9884C 61.1714 25.9883 61.1715 25.9883 61.172 25.9885C 61.1729 25.9887 61.1752 25.9894 61.1787 25.9904C 61.1859 25.9925 61.1982 25.9961 61.2153 26.0012C 61.2494 26.0116 61.3023 26.0282 61.3703 26.0512C 61.5066 26.0974 61.7013 26.1688 61.926 26.2668C 62.3846 26.4669 62.9251 26.7594 63.3551 27.1441C 63.7828 27.5267 64.0412 27.944 64.0875 28.4067C 64.1331 28.8636 63.9901 29.5507 63.2269 30.5157L 64.6348 31.629C 65.5824 30.4307 65.9797 29.2925 65.8734 28.2283C 65.7677 27.1698 65.182 26.3702 64.5517 25.8064C 63.9237 25.2446 63.1923 24.861 62.6436 24.6217C 62.3646 24.5 62.1217 24.4108 61.9465 24.3514C 61.8586 24.3216 61.7872 24.2991 61.7359 24.2836C 61.7103 24.2758 61.6897 24.2698 61.6746 24.2654C 61.667 24.2632 61.6608 24.2615 61.656 24.2601C 61.6536 24.2595 61.6516 24.2589 61.65 24.2585C 61.6491 24.2582 61.6484 24.258 61.6477 24.2578C 61.6474 24.2578 61.647 24.2576 61.6468 24.2576C 61.6464 24.2575 61.6461 24.2574 61.4097 25.1231ZM 63.9309 31.0724C 63.713 31.9429 63.7126 31.9428 63.7123 31.9428C 63.7122 31.9427 63.7118 31.9426 63.7116 31.9426C 63.7112 31.9425 63.7109 31.9424 63.7105 31.9423C 63.7099 31.9422 63.7094 31.942 63.7091 31.942C 63.7085 31.9418 63.7085 31.9418 63.7091 31.942C 63.7104 31.9423 63.7143 31.9433 63.7205 31.9451C 63.733 31.9486 63.7548 31.9549 63.7847 31.9644C 63.8447 31.9833 63.9361 32.0145 64.0488 32.0598C 64.2764 32.1514 64.5784 32.2961 64.8806 32.5069C 65.4807 32.9256 66.0306 33.5618 66.0969 34.5573L 67.8878 34.4381C 67.774 32.7294 66.7932 31.6529 65.9076 31.035C 65.4668 30.7275 65.0372 30.5229 64.719 30.3948C 64.5587 30.3303 64.4236 30.2839 64.3253 30.2529C 64.2761 30.2373 64.2359 30.2255 64.206 30.2172C 64.1911 30.213 64.1787 30.2096 64.1691 30.2071C 64.1643 30.2058 64.1602 30.2047 64.1568 30.2038C 64.1551 30.2034 64.1536 30.203 64.1522 30.2027C 64.1516 30.2025 64.1509 30.2023 64.1503 30.2022C 64.15 30.2021 64.1497 30.202 64.1495 30.202C 64.1491 30.2019 64.1487 30.2018 63.9309 31.0724ZM 66.0969 34.5573C 66.1605 35.5114 65.6692 36.2037 65.0506 36.7104C 64.743 36.9623 64.4252 37.1483 64.1817 37.2714C 64.0612 37.3323 63.9621 37.3762 63.896 37.4039C 63.863 37.4176 63.8385 37.4273 63.824 37.4328C 63.8167 37.4356 63.812 37.4374 63.8099 37.4382C 63.8089 37.4385 63.8085 37.4387 63.8089 37.4385C 63.809 37.4385 63.8094 37.4383 63.8099 37.4382C 63.8102 37.4381 63.8105 37.438 63.8108 37.4378C 63.811 37.4378 63.8113 37.4377 63.8114 37.4376C 63.8117 37.4375 63.812 37.4374 64.111 38.2836C 64.41 39.1297 64.4103 39.1296 64.4107 39.1295C 64.4108 39.1294 64.4112 39.1293 64.4114 39.1292C 64.412 39.129 64.4126 39.1288 64.4132 39.1286C 64.4145 39.1281 64.4159 39.1276 64.4176 39.127C 64.4209 39.1258 64.4249 39.1244 64.4297 39.1226C 64.4392 39.1191 64.4516 39.1145 64.4667 39.1087C 64.4969 39.0971 64.538 39.0808 64.5884 39.0597C 64.6891 39.0177 64.8277 38.9559 64.9914 38.8732C 65.3162 38.709 65.7526 38.4555 66.1879 38.099C 67.0549 37.3888 68.0043 36.1881 67.8878 34.4381L 66.0969 34.5573ZM 64.111 38.2836C 63.5197 38.9586 63.5194 38.9583 63.519 38.9581C 63.5189 38.958 63.5186 38.9577 63.5185 38.9576C 63.5181 38.9572 63.5178 38.9569 63.5175 38.9567C 63.5169 38.9562 63.5165 38.9559 63.5163 38.9557C 63.5159 38.9553 63.5161 38.9554 63.5169 38.9562C 63.5186 38.9577 63.5228 38.9615 63.5292 38.9676C 63.5422 38.9797 63.5643 39.0009 63.5938 39.0307C 63.6529 39.0904 63.741 39.1841 63.8445 39.3093C 64.0529 39.561 64.3169 39.9312 64.5365 40.3997C 64.9675 41.319 65.2375 42.6262 64.5465 44.2402L 66.1965 44.9466C 67.1264 42.7746 66.766 40.9269 66.1616 39.6378C 65.8635 39.0021 65.5085 38.5047 65.2272 38.1649C 65.086 37.9943 64.9616 37.8612 64.8695 37.7681C 64.8234 37.7215 64.7851 37.6847 64.7567 37.6581C 64.7425 37.6447 64.7307 37.6339 64.7215 37.6257C 64.717 37.6215 64.7131 37.618 64.7099 37.6152C 64.7083 37.6137 64.7068 37.6125 64.7056 37.6114C 64.7049 37.6108 64.7044 37.6103 64.7038 37.6098C 64.7035 37.6096 64.7032 37.6092 64.703 37.6091C 64.7027 37.6088 64.7023 37.6085 64.111 38.2836ZM 64.553 44.2254C 63.8943 45.6908 62.7023 46.3696 61.3115 46.668C 59.8834 46.9743 58.3473 46.855 57.1565 46.7633L 57.0187 48.5529C 58.169 48.6415 59.9644 48.7926 61.6879 48.4229C 63.4486 48.0452 65.228 47.1015 66.1901 44.9613L 64.553 44.2254ZM 57.985 47.6581L 57.985 34.1371L 56.1901 34.1371L 56.1901 47.6581L 57.985 47.6581ZM 57.985 34.1371C 57.985 34.1617 58.7365 20.7096 44.5957 15.8021L 44.0072 17.4978C 56.8794 21.9649 56.1901 34.1125 56.1901 34.1371L 57.985 34.1371Z"/>
<path id="path14_fill" d="M 5.40261 8.43242C 5.04244 8.43242 4.68225 8.61184 4.32208 8.61184C 1.98095 8.61184 0 6.6383 0 4.30593C 0 1.97356 1.98095 -5.47526e-06 4.32208 -5.47526e-06C 4.68225 -5.47526e-06 5.04244 5.46724e-06 5.40261 0.179419L 5.40261 8.43242Z"/>
<path id="path15_stroke" d="M 5.40261 8.43242L 5.40261 9.32984C 5.89824 9.32984 6.30003 8.92805 6.30003 8.43242L 5.40261 8.43242ZM 5.40261 0.179419L 6.30003 0.179419C 6.30003 -0.160984 6.10744 -0.472084 5.80275 -0.62386L 5.40261 0.179419ZM 5.40261 7.53499C 5.09323 7.53499 4.80457 7.61168 4.64544 7.65131C 4.4444 7.70139 4.37287 7.71442 4.32208 7.71442L 4.32208 9.50926C 4.63146 9.50926 4.92011 9.43258 5.07924 9.39294C 5.28029 9.34287 5.35182 9.32984 5.40261 9.32984L 5.40261 7.53499ZM 4.32208 7.71442C 2.4734 7.71442 0.897422 6.1395 0.897422 4.30593L -0.897422 4.30593C -0.897422 7.1371 1.48849 9.50926 4.32208 9.50926L 4.32208 7.71442ZM 0.897422 4.30593C 0.897422 2.47235 2.47341 0.897417 4.32208 0.897417L 4.32208 -0.897428C 1.48848 -0.897428 -0.897422 1.47476 -0.897422 4.30593L 0.897422 4.30593ZM 4.32208 0.897417C 4.70484 0.897417 4.85746 0.910461 5.00247 0.982698L 5.80275 -0.62386C 5.22741 -0.91045 4.65966 -0.897428 4.32208 -0.897428L 4.32208 0.897417ZM 4.50519 0.179419L 4.50519 8.43242L 6.30003 8.43242L 6.30003 0.179419L 4.50519 0.179419Z"/>
<path id="path16_fill" d="M 0 0.179419C 0.360174 0.179419 0.720304 -5.47526e-06 1.08048 -5.47526e-06C 3.42161 -5.47526e-06 5.40261 1.97356 5.40261 4.30593C 5.40261 6.6383 3.42161 8.61184 1.08048 8.61184C 0.720304 8.61184 0.360174 8.61183 0 8.43242L 0 0.179419Z"/>
<path id="path17_stroke" d="M 0 0.179419L 0 -0.718004C -0.495633 -0.718004 -0.897422 -0.316214 -0.897422 0.179419L 0 0.179419ZM 0 8.43242L -0.897422 8.43242C -0.897422 8.77282 -0.70483 9.08392 -0.400137 9.23569L 0 8.43242ZM 0 1.07684C 0.30939 1.07684 0.598032 1.00016 0.757154 0.960519C 0.958184 0.910444 1.02969 0.897417 1.08048 0.897417L 1.08048 -0.897428C 0.771088 -0.897428 0.482446 -0.820742 0.323324 -0.781106C 0.122294 -0.73103 0.0507843 -0.718004 0 -0.718004L 0 1.07684ZM 1.08048 0.897417C 2.92916 0.897417 4.50519 2.47237 4.50519 4.30593L 6.30003 4.30593C 6.30003 1.47475 3.91406 -0.897428 1.08048 -0.897428L 1.08048 0.897417ZM 4.50519 4.30593C 4.50519 6.13949 2.92916 7.71442 1.08048 7.71442L 1.08048 9.50926C 3.91405 9.50926 6.30003 7.13712 6.30003 4.30593L 4.50519 4.30593ZM 1.08048 7.71442C 0.697732 7.71442 0.545158 7.70138 0.400137 7.62914L -0.400137 9.23569C 0.17519 9.52228 0.742876 9.50926 1.08048 9.50926L 1.08048 7.71442ZM 0.897422 8.43242L 0.897422 0.179419L -0.897422 0.179419L -0.897422 8.43242L 0.897422 8.43242Z"/>
</defs>
</svg>
