<svg width="190" height="190" viewBox="0 0 190 190" version="1.1" xmlns="http://www.w3.org/2000/svg" xmlns:xlink="http://www.w3.org/1999/xlink">
<title>icon_moe_3</title>
<desc>Created using Figma</desc>
<g id="Canvas" transform="translate(-390 -3749)">
<g id="icon_moe_3">
<g id="Group">
<g id="Group">
<g id="Vector">
<use xlink:href="#path0_fill" transform="translate(440 3766.8)" fill="#D0D3E6"/>
</g>
<g id="Vector">
<use xlink:href="#path1_fill" transform="translate(489.265 3862.67)" fill="#D0D3E6"/>
</g>
<g id="Vector">
<use xlink:href="#path2_fill" transform="translate(465.005 3895.01)" fill="#D0D3E6"/>
</g>
</g>
<g id="Group">
<g id="Vector">
<use xlink:href="#path3_fill" transform="translate(444.832 3826.19)" fill="#9999CC"/>
<use xlink:href="#path4_stroke" transform="translate(444.832 3826.19)" fill="#67679A"/>
</g>
<g id="Vector">
<use xlink:href="#path5_fill" transform="translate(449.927 3823.27)" fill="#FFFFFF"/>
<use xlink:href="#path6_stroke" transform="translate(449.927 3823.27)" fill="#67679A"/>
</g>
<g id="Vector">
<use xlink:href="#path7_stroke" transform="translate(449 3845)" fill="#67679A"/>
</g>
<g id="Vector">
<use xlink:href="#path8_stroke" transform="translate(457 3852)" fill="#67679A"/>
</g>
<g id="Vector">
<use xlink:href="#path9_stroke" transform="translate(466.863 3856.13)" fill="#67679A"/>
</g>
<g id="Vector">
<use xlink:href="#path10_stroke" transform="translate(478.308 3857.83)" fill="#67679A"/>
</g>
</g>
<g id="Group">
<g id="Vector">
<use xlink:href="#path11_fill" transform="translate(454.201 3775.81)" fill="#9999CC"/>
<use xlink:href="#path12_stroke" transform="translate(454.201 3775.81)" fill="#67679A"/>
</g>
<g id="Vector">
<use xlink:href="#path13_fill" transform="matrix(0.903021 -0.429525 0.430875 0.902378 443.097 3783.75)" fill="#FFFFFF"/>
<use xlink:href="#path14_stroke" transform="matrix(0.903021 -0.429525 0.430875 0.902378 443.097 3783.75)" fill="#67679A"/>
</g>
<g id="Vector">
<use xlink:href="#path15_stroke" transform="translate(474.412 3818.65)" fill="#67679A"/>
</g>
<g id="Vector">
<use xlink:href="#path16_stroke" transform="translate(487.804 3817.43)" fill="#67679A"/>
</g>
<g id="Vector">
<use xlink:href="#path17_stroke" transform="translate(501.441 3812.08)" fill="#67679A"/>
</g>
<g id="Vector">
<use xlink:href="#path18_stroke" transform="translate(513 3803)" fill="#67679A"/>
</g>
</g>
<g id="Group">
<g id="Vector">
<use xlink:href="#path19_fill" transform="translate(493.892 3864.5)" fill="#9999CC"/>
<use xlink:href="#path20_stroke" transform="translate(493.892 3864.5)" fill="#67679A"/>
</g>
<g id="Vector">
<use xlink:href="#path21_fill" transform="translate(494.136 3859.89)" fill="#FFFFFF"/>
<use xlink:href="#path22_stroke" transform="translate(494.136 3859.89)" fill="#67679A"/>
</g>
<g id="Vector">
<use xlink:href="#path23_stroke" transform="translate(524 3877)" fill="#67679A"/>
</g>
<g id="Vector">
<use xlink:href="#path24_stroke" transform="translate(520 3882)" fill="#67679A"/>
</g>
<g id="Vector">
<use xlink:href="#path25_stroke" transform="translate(515 3887)" fill="#67679A"/>
</g>
<g id="Vector">
<use xlink:href="#path26_stroke" transform="translate(507 3889)" fill="#67679A"/>
</g>
</g>
<g id="Group">
<g id="Vector">
<use xlink:href="#path27_fill" transform="translate(469.701 3897.26)" fill="#9999CC"/>
<use xlink:href="#path28_stroke" transform="translate(469.701 3897.26)" fill="#67679A"/>
</g>
<g id="Vector">
<use xlink:href="#path29_fill" transform="translate(473.625 3892.39)" fill="#FFFFFF"/>
<use xlink:href="#path30_stroke" transform="translate(473.625 3892.39)" fill="#67679A"/>
</g>
<g id="Vector">
<use xlink:href="#path31_stroke" transform="translate(471.976 3908.7)" fill="#67679A"/>
</g>
<g id="Vector">
<use xlink:href="#path32_stroke" transform="translate(476.36 3913.81)" fill="#67679A"/>
</g>
<g id="Vector">
<use xlink:href="#path33_stroke" transform="translate(482.447 3917.7)" fill="#67679A"/>
</g>
<g id="Vector">
<use xlink:href="#path34_stroke" transform="translate(490 3920)" fill="#67679A"/>
</g>
</g>
</g>
</g>
</g>
<defs>
<path id="path0_fill" d="M 34.8986 109.284L 35.1421 109.284C 37.0901 109.284 39.0382 109.04 40.9862 108.553C 47.8044 107.093 52.918 103.442 55.1096 98.0878L 60.2232 86.4053C 60.4667 86.1619 60.4667 85.9185 60.2232 85.4317L 60.2232 85.1883C 60.2232 84.945 59.9797 84.7016 59.9797 84.4582C 59.9797 84.4582 59.9797 84.4582 59.9797 84.2148L 50.2395 72.2889C 54.1356 71.5587 58.0317 70.0984 61.9278 68.3947C 63.1453 67.9079 64.3628 67.1778 65.5804 66.4476L 65.8239 66.4476C 66.0674 66.2042 66.3109 66.2042 66.5544 65.9609C 70.9375 63.2836 74.5901 60.1196 77.5122 56.7122C 77.7557 56.4688 77.7557 56.4688 77.9992 56.2254C 85.5479 47.2201 88.2265 36.5112 84.0869 27.9927L 77.0252 13.1461C 70.694 -0.240104 50.2395 -4.13428 31.4895 4.871C 13.2265 13.3895 3.24271 31.6434 9.57387 45.2731L 16.6356 60.1196C 16.8791 60.6064 17.1226 60.8497 17.3661 61.3365L 7.86933 62.3101C 7.86933 62.3101 7.86933 62.3101 7.62582 62.3101C 7.38232 62.3101 7.13881 62.5534 6.8953 62.5534C 6.8953 62.5534 6.6518 62.5534 6.6518 62.7968C 6.40829 63.0402 6.16478 63.2836 6.16478 63.527L 1.05115 75.2095C -0.896906 80.3206 -0.166386 86.6487 3.48621 92.4899C 7.13881 98.3312 12.983 102.955 20.0447 106.12C 21.0187 106.363 21.9927 106.85 22.9667 107.093L 23.2102 107.336C 23.4537 107.336 23.6973 107.58 23.9408 107.58C 27.5934 108.553 31.246 109.284 34.8986 109.284Z"/>
<path id="path1_fill" d="M 37.987 13.1685L 33.6039 6.11027C 32.1429 3.43303 29.4643 1.48593 26.0552 0.512391C 21.1851 -0.704538 15.5844 0.269011 10.9578 3.18964C 10.2273 3.67641 9.98377 4.64996 10.2273 5.6235L 15.0974 16.5759L 0.73052 24.1208L 0.487012 24.3642L 0.243505 24.6076C 0.243505 24.851 1.85781e-06 24.851 1.85781e-06 25.0944L 1.85781e-06 25.3378C 1.85781e-06 25.5811 1.85781e-06 25.8245 1.85781e-06 25.8245C 1.85781e-06 25.8245 1.85781e-06 25.8245 1.85781e-06 26.0679C 1.85781e-06 26.3113 -1.86869e-06 26.5547 0.243505 26.7981L 4.62662 33.8563C 7.06169 37.507 11.4448 39.4541 16.3149 39.4541C 17.0455 39.4541 18.0195 39.4541 18.75 39.2107C 18.9935 39.2107 18.9935 39.2107 19.237 39.2107C 21.4286 38.9674 23.8636 38.2372 26.0552 37.0203C 26.2987 37.0203 26.5422 37.0203 26.7857 36.7769L 27.0292 36.5335C 27.5162 36.2901 28.2468 36.0467 28.7338 35.56C 33.1169 32.8827 36.526 28.9885 38.2305 24.851C 40.1786 20.7134 40.1786 16.5759 37.987 13.1685Z"/>
<path id="path2_fill" d="M 40.0885 23.6717C 40.0885 23.4284 40.0885 23.185 40.0885 23.185L 40.0885 22.9416C 40.0885 22.6982 39.845 22.6982 39.845 22.4548L 39.6014 22.2114L 39.3579 21.968L 22.556 14.4231L 15.2508 1.03685C 14.7638 0.306694 14.0333 -0.180072 13.0592 0.0633137C 9.65015 1.03686 7.21508 2.98394 5.75404 5.66119L 1.85794 12.9628C -0.577126 16.6136 -0.577127 20.7511 1.61443 25.1321C 3.56248 29.2696 7.21508 32.677 11.8417 35.1109C 12.3287 35.3543 13.0592 35.5976 13.5463 35.841L 13.7898 36.0844C 14.0333 36.0844 14.0333 36.0844 14.2768 36.0844C 16.7118 37.058 19.1469 37.7881 21.582 38.0315L 21.8255 38.0315C 22.3125 38.0315 22.7995 38.0315 23.2865 38.0315C 24.017 38.0315 24.7475 38.0315 25.7216 37.7881C 30.3482 37.3013 34.0008 34.8675 35.9488 31.4601L 39.845 24.1585C 39.845 24.1585 40.0885 23.9151 40.0885 23.6717Z"/>
<path id="path3_fill" d="M 56.852 21.6613L 51.7383 33.3439C 47.5987 43.3227 32.7448 46.4867 18.8649 40.4021C 4.98508 34.5608 -3.05064 21.6613 1.08897 11.6825L 6.20261 -9.28443e-07"/>
<path id="path4_stroke" d="M 58.548 22.4037C 58.958 21.467 58.531 20.3753 57.5943 19.9653C 56.6576 19.5553 55.5659 19.9823 55.1559 20.919L 58.548 22.4037ZM 51.7383 33.3439L 50.0423 32.6015C 50.0375 32.6124 50.0328 32.6234 50.0282 32.6344L 51.7383 33.3439ZM 18.8649 40.4021L 19.6083 38.7064C 19.5999 38.7028 19.5915 38.6991 19.5831 38.6956L 18.8649 40.4021ZM 1.08897 11.6825L -0.607075 10.9401C -0.611865 10.9511 -0.61655 10.9621 -0.621128 10.9731L 1.08897 11.6825ZM 7.89865 0.742387C 8.30866 -0.194314 7.8817 -1.28604 6.945 -1.69605C 6.00829 -2.10606 4.91657 -1.67909 4.50656 -0.742389L 7.89865 0.742387ZM 55.1559 20.919L 50.0423 32.6015L 53.4344 34.0863L 58.548 22.4037L 55.1559 20.919ZM 50.0282 32.6344C 48.254 36.9113 44.117 39.8976 38.5665 41.0864C 33.0214 42.2741 26.233 41.6106 19.6083 38.7064L 18.1216 42.0977C 25.3767 45.2782 32.9553 46.075 39.342 44.7071C 45.7232 43.3404 51.083 39.7553 53.4484 34.0533L 50.0282 32.6344ZM 19.5831 38.6956C 12.9596 35.9081 7.79664 31.4611 4.79304 26.6181C 1.78551 21.7687 1.01936 16.6821 2.79907 12.3919L -0.621128 10.9731C -2.98102 16.6618 -1.79913 23.0143 1.64627 28.5697C 5.09559 34.1314 10.8904 39.0547 18.1468 42.1085L 19.5831 38.6956ZM 2.78502 12.4249L 7.89865 0.742387L 4.50656 -0.742389L -0.607075 10.9401L 2.78502 12.4249Z"/>
<path id="path5_fill" d="M 18.8843 31.6402C 32.7642 37.4814 47.6181 34.3174 51.7577 24.582L 32.0337 1.85689e-06L 1.10832 2.92063C -3.03129 12.8995 4.76092 25.5555 18.8843 31.6402Z"/>
<path id="path6_stroke" d="M 18.8843 31.6402L 18.1518 33.3405C 18.1566 33.3426 18.1613 33.3446 18.1661 33.3466L 18.8843 31.6402ZM 51.7577 24.582L 53.4615 25.3064C 53.7283 24.6788 53.6285 23.9553 53.2017 23.4233L 51.7577 24.582ZM 32.0337 1.85689e-06L 33.4777 -1.15866C 33.0878 -1.64453 32.4798 -1.90178 31.8596 -1.8432L 32.0337 1.85689e-06ZM 1.10832 2.92063L 0.93425 1.07742C 0.251837 1.14187 -0.339126 1.57808 -0.601775 2.21121L 1.10832 2.92063ZM 18.1661 33.3466C 25.4182 36.3986 32.9873 37.1279 39.3613 35.7627C 45.7229 34.4002 51.0878 30.8888 53.4615 25.3064L 50.0539 23.8575C 48.288 28.0106 44.156 30.949 38.5858 32.142C 33.0281 33.3323 26.2302 32.723 19.6024 29.9337L 18.1661 33.3466ZM 53.2017 23.4233L 33.4777 -1.15866L 30.5896 1.15866L 50.3136 25.7406L 53.2017 23.4233ZM 31.8596 -1.8432L 0.93425 1.07742L 1.2824 4.76384L 32.2077 1.84321L 31.8596 -1.8432ZM -0.601775 2.21121C -2.95641 7.88722 -1.84948 14.176 1.57273 19.714C 4.99464 25.2514 10.7903 30.169 18.1518 33.3405L 19.6168 29.9398C 12.855 27.0267 7.69279 22.5739 4.72265 17.7675C 1.75282 12.9615 1.03345 7.93286 2.81842 3.63005L -0.601775 2.21121Z"/>
<path id="path7_stroke" d="M 6.65595 0.827977C 7.11323 -0.0865791 6.74253 -1.19867 5.82798 -1.65595C 4.91342 -2.11323 3.80133 -1.74253 3.34405 -0.827974L 6.65595 0.827977ZM -1.65595 9.17202C -2.11323 10.0866 -1.74253 11.1987 -0.827975 11.6559C 0.0865806 12.1132 1.19867 11.7425 1.65595 10.828L -1.65595 9.17202ZM 3.34405 -0.827974L -1.65595 9.17202L 1.65595 10.828L 6.65595 0.827977L 3.34405 -0.827974Z"/>
<path id="path8_stroke" d="M 6.65595 0.827977C 7.11323 -0.0865792 6.74253 -1.19867 5.82798 -1.65595C 4.91342 -2.11323 3.80133 -1.74253 3.34405 -0.827973L 6.65595 0.827977ZM -1.65595 9.17202C -2.11323 10.0866 -1.74253 11.1987 -0.827975 11.6559C 0.0865811 12.1132 1.19867 11.7425 1.65595 10.828L -1.65595 9.17202ZM 3.34405 -0.827973L -1.65595 9.17202L 1.65595 10.828L 6.65595 0.827977L 3.34405 -0.827973Z"/>
<path id="path9_stroke" d="M 6.80968 0.74239C 7.21969 -0.19431 6.79273 -1.28603 5.85603 -1.69604C 4.91933 -2.10605 3.8276 -1.67909 3.41759 -0.742386L 6.80968 0.74239ZM -1.69605 10.9401C -2.10606 11.8768 -1.67909 12.9686 -0.742388 13.3786C 0.194312 13.7886 1.28604 13.3616 1.69605 12.4249L -1.69605 10.9401ZM 3.41759 -0.742386L -1.69605 10.9401L 1.69605 12.4249L 6.80968 0.74239L 3.41759 -0.742386Z"/>
<path id="path10_stroke" d="M 6.579 0.712385C 6.97244 -0.231396 6.52629 -1.31543 5.58251 -1.70886C 4.63873 -2.1023 3.5547 -1.65616 3.16126 -0.712377L 6.579 0.712385ZM -1.70887 10.9701C -2.1023 11.9139 -1.65616 12.998 -0.712382 13.3914C 0.231399 13.7848 1.31543 13.3387 1.70887 12.3949L -1.70887 10.9701ZM 3.16126 -0.712377L -1.70887 10.9701L 1.70887 12.3949L 6.579 0.712385L 3.16126 -0.712377Z"/>
<path id="path11_fill" d="M 71.5909 15.0899C 77.6786 27.746 67.9383 44.783 50.1623 53.3015C 32.3864 61.82 13.1494 58.4126 7.06169 45.9999L 4.64452e-07 31.1534L 64.5292 -4.64222e-07L 71.5909 15.0899Z"/>
<path id="path12_stroke" d="M 71.5909 15.0899L 69.914 15.8747C 69.9168 15.8806 69.9196 15.8865 69.9225 15.8925L 71.5909 15.0899ZM 7.06169 45.9999L 5.38977 46.7952C 5.39295 46.8018 5.39617 46.8085 5.39943 46.8152L 7.06169 45.9999ZM 4.64452e-07 31.1534L -0.804926 29.4861C -1.72196 29.9288 -2.10931 31.029 -1.67192 31.9486L 4.64452e-07 31.1534ZM 64.5292 -4.64222e-07L 66.2061 -0.784734C 65.9963 -1.23298 65.6158 -1.57858 65.1495 -1.7444C 64.6833 -1.91021 64.17 -1.88244 63.7243 -1.66728L 64.5292 -4.64222e-07ZM 69.9225 15.8925C 72.6331 21.5277 71.9021 28.2984 68.213 34.8376C 64.5257 41.3736 57.9513 47.5159 49.3622 51.6319L 50.9624 54.9711C 60.1494 50.5686 67.3331 43.9332 71.438 36.657C 75.5411 29.3841 76.6364 21.3082 73.2594 14.2874L 69.9225 15.8925ZM 49.3622 51.6319C 40.782 55.7437 31.9164 56.942 24.5424 55.6752C 17.1601 54.407 11.4365 50.7156 8.72395 45.1847L 5.39943 46.8152C 8.77451 53.6969 15.7133 57.9155 23.9154 59.3246C 32.1258 60.735 41.7667 59.3778 50.9624 54.9711L 49.3622 51.6319ZM 8.73361 45.2047L 1.67192 30.3582L -1.67192 31.9486L 5.38977 46.7952L 8.73361 45.2047ZM 0.804927 32.8207L 65.3342 1.66727L 63.7243 -1.66728L -0.804926 29.4861L 0.804927 32.8207ZM 62.8524 0.784733L 69.914 15.8747L 73.2678 14.3052L 66.2061 -0.784734L 62.8524 0.784733Z"/>
<path id="path13_fill" d="M 35.7922 50.6289C 55.5596 50.6289 71.5844 39.2952 71.5844 25.3144C 71.5844 11.3337 55.5596 0 35.7922 0C 16.0247 0 0 11.3337 0 25.3144C 0 39.2952 16.0247 50.6289 35.7922 50.6289Z"/>
<path id="path14_stroke" d="M 69.7329 25.3144C 69.7329 31.5435 66.1659 37.3646 60.032 41.7029C 53.9027 46.0379 45.3385 48.7775 35.7922 48.7775L 35.7922 52.4803C 46.0133 52.4803 55.3452 49.5531 62.1701 44.726C 68.9905 39.9023 73.4358 33.0662 73.4358 25.3144L 69.7329 25.3144ZM 35.7922 48.7775C 26.2458 48.7775 17.6816 46.0379 11.5524 41.7029C 5.41847 37.3647 1.85141 31.5435 1.85141 25.3144L -1.85141 25.3144C -1.85141 33.0662 2.59388 39.9023 9.41422 44.726C 16.2392 49.5531 25.571 52.4803 35.7922 52.4803L 35.7922 48.7775ZM 1.85141 25.3144C 1.85141 19.0854 5.41847 13.2642 11.5524 8.92599C 17.6816 4.591 26.2458 1.85141 35.7922 1.85141L 35.7922 -1.85141C 25.571 -1.85141 16.2392 1.07583 9.41422 5.90287C 2.59388 10.7266 -1.85141 17.5627 -1.85141 25.3144L 1.85141 25.3144ZM 35.7922 1.85141C 45.3385 1.85141 53.9027 4.591 60.032 8.92599C 66.1659 13.2642 69.7329 19.0854 69.7329 25.3144L 73.4358 25.3144C 73.4358 17.5627 68.9905 10.7266 62.1701 5.90287C 55.3452 1.07583 46.0133 -1.85141 35.7922 -1.85141L 35.7922 1.85141Z"/>
<path id="path15_stroke" d="M 1.67192 -0.795242C 1.23272 -1.71862 0.128136 -2.11112 -0.795239 -1.67192C -1.71861 -1.23272 -2.11111 -0.128136 -1.67192 0.795238L 1.67192 -0.795242ZM 5.38977 15.6418C 5.82897 16.5652 6.93355 16.9577 7.85693 16.5185C 8.7803 16.0793 9.1728 14.9747 8.73361 14.0513L 5.38977 15.6418ZM -1.67192 0.795238L 5.38977 15.6418L 8.73361 14.0513L 1.67192 -0.795242L -1.67192 0.795238Z"/>
<path id="path16_stroke" d="M 1.6612 -0.817391C 1.20977 -1.73485 0.100068 -2.11263 -0.817388 -1.6612C -1.73484 -1.20977 -2.11263 -0.100069 -1.6612 0.817387L 1.6612 -0.817391ZM 5.644 15.6639C 6.09543 16.5814 7.20513 16.9592 8.12259 16.5077C 9.04004 16.0563 9.41783 14.9466 8.9664 14.0291L 5.644 15.6639ZM -1.6612 0.817387L 5.644 15.6639L 8.9664 14.0291L 1.6612 -0.817391L -1.6612 0.817387Z"/>
<path id="path17_stroke" d="M 1.67192 -0.795239C 1.23272 -1.71861 0.128137 -2.11111 -0.795238 -1.67192C -1.71861 -1.23272 -2.11111 -0.128134 -1.67192 0.795241L 1.67192 -0.795239ZM 5.38977 15.6418C 5.82897 16.5652 6.93355 16.9577 7.85693 16.5185C 8.7803 16.0793 9.17281 14.9747 8.73361 14.0513L 5.38977 15.6418ZM -1.67192 0.795241L 5.38977 15.6418L 8.73361 14.0513L 1.67192 -0.795239L -1.67192 0.795241Z"/>
<path id="path18_stroke" d="M 1.65595 -0.827973C 1.19867 -1.74253 0.086579 -2.11323 -0.827977 -1.65595C -1.74253 -1.19867 -2.11323 -0.086579 -1.65595 0.827977L 1.65595 -0.827973ZM 5.34405 14.828C 5.80133 15.7425 6.91342 16.1132 7.82797 15.6559C 8.74253 15.1987 9.11323 14.0866 8.65595 13.172L 5.34405 14.828ZM -1.65595 0.827977L 5.34405 14.828L 8.65595 13.172L 1.65595 -0.827973L -1.65595 0.827977Z"/>
<path id="path19_fill" d="M 0 19.375L 4.38311 26.4332C 8.03571 32.2744 17.776 33.0046 26.0552 27.6501C 34.3344 22.2956 38.2605 13.3413 34.6079 7.5L 30.1079 0"/>
<path id="path20_stroke" d="M 1.57281 18.3982C 1.03339 17.5296 -0.108071 17.2627 -0.976712 17.8021C -1.84535 18.3416 -2.11224 19.483 -1.57281 20.3517L 1.57281 18.3982ZM 4.38311 26.4332L 2.81029 27.4099L 2.81334 27.4148L 4.38311 26.4332ZM 34.6079 7.5L 33.0204 8.45254C 33.0262 8.46228 33.0321 8.47196 33.0382 8.48159L 34.6079 7.5ZM 31.6955 -0.952542C 31.1694 -1.82933 30.0322 -2.11364 29.1554 -1.58757C 28.2786 -1.0615 27.9943 0.0757513 28.5204 0.952542L 31.6955 -0.952542ZM -1.57281 20.3517L 2.8103 27.4099L 5.95593 25.4564L 1.57281 18.3982L -1.57281 20.3517ZM 2.81334 27.4148C 5.0382 30.9728 9.01917 32.8182 13.3696 33.0879C 17.7293 33.3581 22.6221 32.0752 27.0606 29.2047L 25.0498 26.0955C 21.209 28.5794 17.0921 29.6087 13.5987 29.3922C 10.0961 29.1751 7.38063 27.7348 5.95289 25.4516L 2.81334 27.4148ZM 27.0606 29.2047C 31.4675 26.3546 34.7844 22.5061 36.5076 18.4872C 38.2276 14.4757 38.419 10.1026 36.1777 6.51841L 33.0382 8.48159C 34.4495 10.7386 34.5042 13.7634 33.1044 17.028C 31.7078 20.2852 28.9221 23.5911 25.0498 26.0955L 27.0606 29.2047ZM 36.1955 6.54746L 31.6955 -0.952542L 28.5204 0.952542L 33.0204 8.45254L 36.1955 6.54746Z"/>
<path id="path21_fill" d="M 21.6721 25.4428C 13.3929 30.5539 3.6526 30.0671 1.85781e-06 24.2258L 15.8279 15.7073L 10.2273 3.05127C 18.0195 -2.05983 27.5162 -0.356128 30.4383 5.24175C 33.3604 11.5698 29.9513 20.0883 21.6721 25.4428Z"/>
<path id="path22_stroke" d="M 21.6721 25.4428L 22.6446 27.0182C 22.6557 27.0114 22.6666 27.0044 22.6775 26.9974L 21.6721 25.4428ZM 1.85781e-06 24.2258L -0.877413 22.5955C -1.32821 22.8382 -1.65843 23.2566 -1.7896 23.7515C -1.92077 24.2463 -1.84119 24.7734 -1.56977 25.2074L 1.85781e-06 24.2258ZM 15.8279 15.7073L 16.7053 17.3376C 17.557 16.8793 17.9124 15.8426 17.521 14.9581L 15.8279 15.7073ZM 10.2273 3.05127L 9.21184 1.50317C 8.45434 2.00003 8.16763 2.97207 8.53423 3.80049L 10.2273 3.05127ZM 30.4383 5.24175L 32.1192 4.46558C 32.1066 4.43841 32.0934 4.41155 32.0796 4.38501L 30.4383 5.24175ZM 20.6995 23.8674C 16.8436 26.2478 12.7088 27.283 9.20132 27.0928C 5.68562 26.9021 2.98708 25.5108 1.56977 23.2442L -1.56977 25.2074C 0.665516 28.7821 4.66341 30.5549 9.00079 30.7901C 13.3464 31.0258 18.2214 29.7488 22.6446 27.0182L 20.6995 23.8674ZM 0.877417 25.8561L 16.7053 17.3376L 14.9505 14.077L -0.877413 22.5955L 0.877417 25.8561ZM 17.521 14.9581L 11.9203 2.30205L 8.53423 3.80049L 14.1349 16.4566L 17.521 14.9581ZM 11.2427 4.59937C 14.7746 2.2827 18.6523 1.53821 21.9185 1.96635C 25.2169 2.39872 27.6913 3.98011 28.7971 6.09848L 32.0796 4.38501C 30.2633 0.905512 26.5282 -1.16389 22.3997 -1.70506C 18.2389 -2.25047 13.4721 -1.29126 9.21184 1.50317L 11.2427 4.59937ZM 28.7575 6.01791C 31.1418 11.1814 28.5199 18.8092 20.6667 23.8882L 22.6775 26.9974C 31.3827 21.3674 35.579 11.9582 32.1192 4.46558L 28.7575 6.01791Z"/>
<path id="path23_stroke" d="M 1.54047 -1.02698C 0.973284 -1.87775 -0.176198 -2.10765 -1.02697 -1.54046C -1.87775 -0.973279 -2.10765 0.176203 -1.54046 1.02698L 1.54047 -1.02698ZM 2.45954 7.02697C 3.02672 7.87775 4.1762 8.10765 5.02698 7.54046C 5.87775 6.97328 6.10765 5.82379 5.54047 4.97302L 2.45954 7.02697ZM -1.54046 1.02698L 2.45954 7.02697L 5.54047 4.97302L 1.54047 -1.02698L -1.54046 1.02698Z"/>
<path id="path24_stroke" d="M 1.60747 -0.918552C 1.10017 -1.80633 -0.0307719 -2.11477 -0.918554 -1.60747C -1.80634 -1.10016 -2.11478 0.0307772 -1.60747 0.91856L 1.60747 -0.918552ZM 2.39253 7.91855C 2.89983 8.80634 4.03077 9.11477 4.91856 8.60747C 5.80634 8.10017 6.11478 6.96922 5.60747 6.08144L 2.39253 7.91855ZM -1.60747 0.91856L 2.39253 7.91855L 5.60747 6.08144L 1.60747 -0.918552L -1.60747 0.91856Z"/>
<path id="path25_stroke" d="M 1.65595 -0.827978C 1.19867 -1.74253 0.0865804 -2.11323 -0.827976 -1.65595C -1.74253 -1.19868 -2.11323 -0.0865848 -1.65595 0.827971L 1.65595 -0.827978ZM 1.34405 6.82797C 1.80132 7.74253 2.91342 8.11323 3.82797 7.65595C 4.74253 7.19867 5.11323 6.08658 4.65595 5.17203L 1.34405 6.82797ZM -1.65595 0.827971L 1.34405 6.82797L 4.65595 5.17203L 1.65595 -0.827978L -1.65595 0.827971Z"/>
<path id="path26_stroke" d="M 1.65595 -0.827975C 1.19867 -1.74253 0.0865801 -2.11323 -0.827976 -1.65595C -1.74253 -1.19867 -2.11323 -0.0865808 -1.65595 0.827975L 1.65595 -0.827975ZM 1.34405 6.82798C 1.80133 7.74253 2.91342 8.11323 3.82798 7.65595C 4.74253 7.19867 5.11323 6.08658 4.65595 5.17203L 1.34405 6.82798ZM -1.65595 0.827975L 1.34405 6.82798L 4.65595 5.17203L 1.65595 -0.827975L -1.65595 0.827975Z"/>
<path id="path27_fill" d="M 36.3663 16.7936L 32.4702 24.0952C 29.0611 30.1798 19.5643 31.3968 10.7981 26.7724C 2.03185 22.1481 -2.10776 13.3862 1.05783 7.30157L 4.95393 -3.71377e-06"/>
<path id="path28_stroke" d="M 37.9997 17.6652C 38.481 16.7631 38.14 15.6416 37.2379 15.1602C 36.3357 14.6788 35.2142 15.0199 34.7329 15.922L 37.9997 17.6652ZM 32.4702 24.0952L 34.0853 25.0001C 34.0915 24.9891 34.0976 24.978 34.1036 24.9668L 32.4702 24.0952ZM 1.05783 7.30157L -0.57559 6.42999C -0.578624 6.43567 -0.581627 6.44137 -0.584601 6.44709L 1.05783 7.30157ZM 6.58735 0.871583C 7.06871 -0.0305279 6.72763 -1.15206 5.82552 -1.63342C 4.9234 -2.11478 3.80188 -1.7737 3.32051 -0.871591L 6.58735 0.871583ZM 34.7329 15.922L 30.8367 23.2236L 34.1036 24.9668L 37.9997 17.6652L 34.7329 15.922ZM 30.855 23.1903C 29.5082 25.594 26.8849 27.1789 23.4135 27.6126C 19.9421 28.0463 15.7555 27.2943 11.6619 25.1349L 9.93426 28.41C 14.607 30.8749 19.5518 31.8266 23.8726 31.2868C 28.1934 30.747 32.023 28.6811 34.0853 25.0001L 30.855 23.1903ZM 11.6619 25.1349C 7.58776 22.9857 4.6599 19.9102 3.115 16.7678C 1.5663 13.6176 1.45792 10.544 2.70025 8.15606L -0.584601 6.44709C -2.50785 10.1438 -2.12922 14.4934 -0.207956 18.4014C 1.71711 22.3172 5.24218 25.9348 9.93426 28.41L 11.6619 25.1349ZM 2.69124 8.17316L 6.58735 0.871583L 3.32051 -0.871591L -0.57559 6.42999L 2.69124 8.17316Z"/>
<path id="path29_fill" d="M 10.7698 24.3386C 19.536 28.9629 29.0328 27.746 32.4419 21.6613L 15.1529 13.873L 7.36069 -3.71377e-06C 4.68212 0.730154 2.49056 2.43386 1.02952 4.86771C -2.13606 10.9524 2.24706 19.4709 10.7698 24.3386Z"/>
<path id="path30_stroke" d="M 10.7698 24.3386L 9.85157 25.9463C 9.86953 25.9565 9.88766 25.9665 9.90596 25.9761L 10.7698 24.3386ZM 32.4419 21.6613L 34.057 22.5663C 34.3108 22.1134 34.3627 21.5748 34.2002 21.0817C 34.0377 20.5887 33.6756 20.1865 33.2023 19.9733L 32.4419 21.6613ZM 15.1529 13.873L 13.5387 14.7797C 13.7325 15.1247 14.0317 15.3985 14.3925 15.561L 15.1529 13.873ZM 7.36069 -3.71377e-06L 8.9749 -0.906674C 8.55908 -1.64698 7.69298 -2.00955 6.87378 -1.78624L 7.36069 -3.71377e-06ZM 1.02952 4.86771L -0.557838 3.91482C -0.577189 3.94706 -0.595552 3.97988 -0.612904 4.01323L 1.02952 4.86771ZM 9.90596 25.9761C 14.5787 28.441 19.5235 29.3928 23.8443 28.853C 28.1651 28.3131 31.9947 26.2472 34.057 22.5663L 30.8267 20.7564C 29.4799 23.1601 26.8566 24.745 23.3852 25.1787C 19.9138 25.6124 15.7272 24.8605 11.6336 22.701L 9.90596 25.9761ZM 33.2023 19.9733L 15.9133 12.185L 14.3925 15.561L 31.6814 23.3494L 33.2023 19.9733ZM 16.7671 12.9663L 8.9749 -0.906674L 5.74648 0.906667L 13.5387 14.7797L 16.7671 12.9663ZM 6.87378 -1.78624C 3.71261 -0.924527 1.13684 1.09175 -0.557838 3.91482L 2.61688 5.8206C 3.84428 3.77596 5.65163 2.38483 7.8476 1.78623L 6.87378 -1.78624ZM -0.612904 4.01323C -2.54659 7.73 -2.08617 12.0295 -0.136361 15.8935C 1.81519 19.7611 5.32095 23.3586 9.85157 25.9463L 11.688 22.7309C 7.69589 20.4508 4.74873 17.3553 3.16944 14.2254C 1.5884 11.0922 1.44005 8.09007 2.67195 5.7222L -0.612904 4.01323Z"/>
<path id="path31_stroke" d="M 5.52952 0.871585C 6.01088 -0.0305259 5.6698 -1.15205 4.76769 -1.63342C 3.86558 -2.11478 2.74405 -1.7737 2.26269 -0.871589L 5.52952 0.871585ZM -1.63342 6.42999C -2.11478 7.3321 -1.7737 8.45363 -0.871586 8.93499C 0.030525 9.41635 1.15205 9.07527 1.63342 8.17316L -1.63342 6.42999ZM 2.26269 -0.871589L -1.63342 6.42999L 1.63342 8.17316L 5.52952 0.871585L 2.26269 -0.871589Z"/>
<path id="path32_stroke" d="M 5.52952 0.871591C 6.01088 -0.0305198 5.6698 -1.15205 4.76769 -1.63341C 3.86558 -2.11478 2.74405 -1.77369 2.26269 -0.871584L 5.52952 0.871591ZM -1.63342 6.42999C -2.11478 7.3321 -1.7737 8.45363 -0.871588 8.935C 0.0305225 9.41636 1.15205 9.07528 1.63342 8.17317L -1.63342 6.42999ZM 2.26269 -0.871584L -1.63342 6.42999L 1.63342 8.17317L 5.52952 0.871591L 2.26269 -0.871584Z"/>
<path id="path33_stroke" d="M 5.75018 0.91311C 6.25448 0.023616 5.94222 -1.10628 5.05272 -1.61057C 4.16323 -2.11487 3.03334 -1.8026 2.52904 -0.91311L 5.75018 0.91311ZM -1.61057 6.38847C -2.11487 7.27796 -1.80261 8.40785 -0.913111 8.91215C -0.0236169 9.41644 1.10627 9.10418 1.61057 8.21469L -1.61057 6.38847ZM 2.52904 -0.91311L -1.61057 6.38847L 1.61057 8.21469L 5.75018 0.91311L 2.52904 -0.91311Z"/>
<path id="path34_stroke" d="M 4.65595 0.827969C 5.11323 -0.0865868 4.74253 -1.19868 3.82798 -1.65596C 2.91342 -2.11323 1.80133 -1.74254 1.34405 -0.827981L 4.65595 0.827969ZM -1.65595 5.17202C -2.11323 6.08657 -1.74253 7.19867 -0.827976 7.65594C 0.08658 8.11322 1.19867 7.74252 1.65595 6.82797L -1.65595 5.17202ZM 1.34405 -0.827981L -1.65595 5.17202L 1.65595 6.82797L 4.65595 0.827969L 1.34405 -0.827981Z"/>
</defs>
</svg>
