<svg width="190" height="190" viewBox="0 0 190 190" version="1.1" xmlns="http://www.w3.org/2000/svg" xmlns:xlink="http://www.w3.org/1999/xlink">
<title>icon_moe_2</title>
<desc>Created using Figma</desc>
<g id="Canvas" transform="translate(30 -3749)">
<g id="icon_moe_2">
<g id="Group">
<g id="Vector">
<use xlink:href="#path0_fill" transform="translate(43.3253 3815.17)" fill="#D0D3E6"/>
</g>
<g id="Vector">
<use xlink:href="#path1_fill" transform="translate(-18 3766.44)" fill="#D0D3E6"/>
</g>
<g id="Group">
<g id="Group">
<g id="Vector">
<use xlink:href="#path2_fill" transform="translate(47.597 3821)" fill="#9999CC"/>
<use xlink:href="#path3_stroke" transform="translate(47.597 3821)" fill="#67679A"/>
</g>
<g id="Vector">
<use xlink:href="#path4_fill" transform="matrix(0.835448 -0.549598 0.556405 0.83093 37.3662 3834.64)" fill="#FFFFFF"/>
<use xlink:href="#path5_stroke" transform="matrix(0.835448 -0.549598 0.556405 0.83093 37.3662 3834.64)" fill="#67679A"/>
</g>
<g id="Vector">
<use xlink:href="#path6_stroke" transform="translate(64 3857)" fill="#67679A"/>
</g>
<g id="Vector">
<use xlink:href="#path7_stroke" transform="translate(74 3854)" fill="#67679A"/>
</g>
<g id="Vector">
<use xlink:href="#path8_stroke" transform="translate(82 3849)" fill="#67679A"/>
</g>
<g id="Vector">
<use xlink:href="#path9_stroke" transform="translate(90 3841)" fill="#67679A"/>
</g>
</g>
<g id="Vector">
<use xlink:href="#path10_stroke" transform="translate(-2.77608 3843.55)" fill="#67679A"/>
</g>
<g id="Vector">
<use xlink:href="#path11_stroke" transform="translate(40.209 3789.78)" fill="#67679A"/>
</g>
<g id="Vector">
<use xlink:href="#path12_stroke" transform="translate(89.4627 3766)" fill="#67679A"/>
</g>
<g id="Vector">
<use xlink:href="#path13_stroke" transform="translate(126.851 3800.67)" fill="#67679A"/>
</g>
<g id="Vector">
<use xlink:href="#path14_stroke" transform="translate(124.612 3865.33)" fill="#67679A"/>
</g>
<g id="Vector">
<use xlink:href="#path15_stroke" transform="translate(133.343 3902.89)" fill="#67679A"/>
</g>
<g id="Vector">
<use xlink:href="#path16_stroke" transform="translate(89.4627 3917.33)" fill="#67679A"/>
</g>
<g id="Vector">
<use xlink:href="#path17_stroke" transform="translate(46.7015 3885.33)" fill="#67679A"/>
</g>
<g id="Vector">
<use xlink:href="#path18_stroke" transform="translate(-4.56716 3902.89)" fill="#67679A"/>
</g>
<g id="Vector">
<use xlink:href="#path19_stroke" transform="translate(-15.5373 3776.22)" fill="#67679A"/>
</g>
<g id="Vector">
<use xlink:href="#path20_stroke" transform="translate(-2.77608 3784.22)" fill="#67679A"/>
</g>
<g id="Vector">
<use xlink:href="#path21_stroke" transform="translate(52 3775)" fill="#67679A"/>
</g>
<g id="Vector">
<use xlink:href="#path22_stroke" transform="translate(99 3779)" fill="#67679A"/>
</g>
<g id="Vector">
<use xlink:href="#path23_stroke" transform="translate(131.104 3812.5)" fill="#67679A"/>
</g>
<g id="Vector">
<use xlink:href="#path24_stroke" transform="translate(100 3877)" fill="#67679A"/>
</g>
<g id="Vector">
<use xlink:href="#path25_stroke" transform="translate(59 3872)" fill="#67679A"/>
</g>
<g id="Vector">
<use xlink:href="#path26_stroke" transform="translate(8.41795 3854.44)" fill="#67679A"/>
</g>
<g id="Vector">
<use xlink:href="#path27_stroke" transform="translate(2 3857)" fill="#67679A"/>
</g>
<g id="Vector">
<use xlink:href="#path28_stroke" transform="translate(9 3896)" fill="#67679A"/>
</g>
<g id="Vector">
<use xlink:href="#path29_stroke" transform="translate(58 3896)" fill="#67679A"/>
</g>
<g id="Vector">
<use xlink:href="#path30_stroke" transform="translate(7.74626 3801.78)" fill="#67679A"/>
</g>
<g id="Vector">
<use xlink:href="#path31_stroke" transform="translate(-8.37309 3789.11)" fill="#67679A"/>
</g>
<g id="Vector">
<use xlink:href="#path32_stroke" transform="translate(9 3912)" fill="#67679A"/>
</g>
<g id="Vector">
<use xlink:href="#path33_stroke" transform="translate(52.7463 3798.44)" fill="#67679A"/>
</g>
<g id="Vector">
<use xlink:href="#path34_stroke" transform="translate(-4 3771)" fill="#67679A"/>
</g>
<g id="Vector">
<use xlink:href="#path35_stroke" transform="translate(102.448 3912.89)" fill="#67679A"/>
</g>
<g id="Vector">
<use xlink:href="#path36_stroke" transform="translate(132.5 3878.5)" fill="#67679A"/>
</g>
</g>
</g>
</g>
</g>
<defs>
<path id="path0_fill" d="M 48.824 7.27134C 42.7792 -1.83976 27.3314 -2.50643 14.5702 5.938C 1.80903 14.3824 -3.56411 28.6046 2.48066 37.7157L 9.19708 47.7157C 12.3314 52.6046 18.1523 55.049 24.8687 55.049C 25.3165 55.049 25.7642 55.049 26.212 55.049C 26.212 55.049 26.212 55.049 26.4359 55.049C 26.6598 55.049 26.6598 55.049 26.8837 55.049C 30.018 54.8268 33.3762 54.1601 36.5105 52.8268C 38.7493 51.9379 41.212 50.8268 43.2269 49.2713C 44.1225 48.8268 44.7941 48.1602 45.6896 47.4935C 45.6896 47.4935 45.9135 47.4935 45.9135 47.2713C 46.1374 47.049 46.3613 47.0491 46.3613 46.8268C 49.2717 44.6046 51.5105 41.938 53.5254 39.0491C 53.5254 39.0491 53.5254 39.0491 53.5254 38.8268C 54.6448 37.2713 55.5404 35.4935 56.212 33.938C 58.6747 27.938 58.2269 21.938 55.3165 17.4935L 48.824 7.27134Z"/>
<path id="path1_fill" d="M 156.94 136.889C 156.94 136.889 156.716 136.889 156.94 136.889L 151.567 114.666C 154.254 113.333 156.269 110.666 156.269 107.333C 156.269 103.555 153.582 100.444 150 99.5554L 155.149 49.3333C 157.164 47.7777 158.507 45.5555 158.507 42.6666C 158.507 38.2222 154.925 34.6666 150.448 34.6666C 149.776 34.6666 149.104 34.6666 148.433 34.8888L 118.433 14.2222C 120.224 12.6666 121.343 10.4444 121.343 7.99999C 121.343 3.55555 117.761 -5.29818e-08 113.284 -5.29818e-08C 110.149 -5.29818e-08 107.463 1.77777 106.119 4.44444L 13.209 12C 11.8657 10.8889 10.0746 10.2222 8.0597 10.2222C 3.58209 10.2222 0 13.7778 0 18.2222C 0 22.4444 3.35821 25.7777 7.38806 26.2222L 17.0149 78.4443C 14.5522 79.7776 12.7612 82.4443 12.7612 85.5554C 12.7612 89.3332 15.4478 92.6665 19.0299 93.3332L 17.4627 137.111C 13.6567 137.778 10.9701 141.111 10.9701 145.111C 10.9701 149.555 14.5522 153.111 19.0299 153.111C 21.9403 153.111 24.403 151.555 25.9702 149.333L 105.224 160.889C 105.896 164.666 109.254 167.555 113.284 167.555C 117.537 167.555 121.119 164.222 121.343 160L 151.119 150.666C 152.687 152.222 154.701 153.333 156.94 153.333C 161.418 153.333 165 149.778 165 145.333C 165 140.444 161.418 136.889 156.94 136.889ZM 152.91 107.333C 152.91 110 150.896 112 148.209 112C 145.522 112 143.507 110 143.507 107.333C 143.507 104.667 145.522 102.666 148.209 102.666C 150.896 102.666 152.91 104.889 152.91 107.333ZM 117.09 152.444C 115.97 151.778 114.627 151.333 113.284 151.333C 111.716 151.333 110.149 151.778 108.806 152.666L 77.4627 131.555C 78.1343 130.444 78.5821 129.111 78.5821 127.555C 78.5821 127.111 78.5821 126.444 78.3582 126L 140.597 109.555C 141.045 110.889 141.716 112 142.612 113.111L 117.09 152.444ZM 20.8209 137.111L 22.6119 93.5554C 23.7313 93.3332 24.6269 92.8887 25.2985 92.4443L 62.4627 125.333C 62.2388 126 62.0149 126.666 62.0149 127.555C 62.0149 128.444 62.2388 129.333 62.4627 130L 25.9702 140.889C 24.8507 139.111 23.0597 137.555 20.8209 137.111ZM 65.597 127.555C 65.597 124.889 67.6119 122.889 70.2985 122.889C 72.9851 122.889 75 124.889 75 127.555C 75 130.222 72.9851 132.222 70.2985 132.222C 67.6119 132.222 65.597 130 65.597 127.555ZM 146.642 99.5554C 143.284 100.222 140.821 102.889 140.149 106.222L 76.791 122.889C 75.2239 120.889 72.9851 119.555 70.2985 119.555C 67.8358 119.555 65.597 120.666 64.2537 122.444L 27.7612 89.9999C 28.6567 88.6665 29.1045 87.3332 29.1045 85.5554C 29.1045 83.5554 28.4328 81.7776 27.3134 80.4443L 61.1194 39.5555C 62.0149 39.7777 62.9104 39.9999 64.0299 39.9999C 67.1642 39.9999 69.8507 38.2222 71.194 35.7777L 142.612 42.2222C 142.612 42.4444 142.612 42.6666 142.612 42.8888C 142.612 47.3333 146.194 50.8888 150.672 50.8888C 151.119 50.8888 151.343 50.8888 151.791 50.6666L 146.642 99.5554ZM 68.5075 32C 68.5075 34.6666 66.4925 36.6666 63.806 36.6666C 61.1194 36.6666 59.1045 34.6666 59.1045 32C 59.1045 29.3333 61.1194 27.3333 63.806 27.3333C 66.4925 27.3333 68.5075 29.3333 68.5075 32ZM 155.149 42.8888C 155.149 45.5555 153.134 47.5555 150.448 47.5555C 147.761 47.5555 145.746 45.5555 145.746 42.8888C 145.746 40.2222 147.761 38.2222 150.448 38.2222C 153.134 38.2222 155.149 40.2222 155.149 42.8888ZM 145.075 36.6666C 144.403 37.3333 143.731 37.9999 143.284 38.6666L 71.6418 32.2222C 71.6418 32 71.6418 32 71.6418 31.7777C 71.6418 30.6666 71.4179 29.7777 71.194 28.8888L 106.343 12.6666C 107.91 14.6666 110.149 16 112.836 16C 113.507 16 113.955 16 114.627 15.7778L 145.075 36.6666ZM 113.06 3.55555C 115.746 3.55555 117.761 5.55555 117.761 8.22221C 117.761 10.8889 115.746 12.8889 113.06 12.8889C 111.045 12.8889 109.478 11.7778 108.806 9.99998C 108.582 9.33332 108.358 8.88888 108.358 8.22221C 108.358 5.55555 110.597 3.55555 113.06 3.55555ZM 105.224 9.77776L 69.6269 26.2222C 68.0597 24.6666 66.0448 23.7777 63.806 23.7777C 60 23.7777 56.8657 26.2222 55.9701 29.7777L 16.1194 18.6666C 16.1194 18.4444 16.1194 18.4444 16.1194 18.2222C 16.1194 17.1111 15.8955 16 15.4478 15.1111L 104.776 7.77777C 104.776 7.77777 104.776 7.77777 104.776 7.99999C 105 8.66665 105 9.33332 105.224 9.77776ZM 3.35821 18.2222C 3.35821 15.7778 5.59701 13.5555 8.0597 13.5555C 10.5224 13.5555 12.7612 15.7778 12.7612 18.2222C 12.7612 20.6666 10.7463 22.8889 8.0597 22.8889C 5.37313 22.8889 3.35821 20.8889 3.35821 18.2222ZM 10.7463 26C 12.7612 25.3333 14.3284 24 15.2239 22L 55.7463 33.3333C 55.9701 35.1111 56.8657 36.6666 57.9851 37.7777L 24.6269 78.4443C 23.5075 77.9999 22.3881 77.5554 21.0448 77.5554C 20.8209 77.5554 20.597 77.5554 20.597 77.5554L 10.7463 26ZM 16.3433 85.5554C 16.3433 82.8888 18.3582 80.8888 21.0448 80.8888C 23.7313 80.8888 25.7463 82.8888 25.7463 85.5554C 25.7463 88.2221 23.7313 90.2221 21.0448 90.2221C 18.3582 90.2221 16.3433 88.2221 16.3433 85.5554ZM 19.0299 149.778C 16.3433 149.778 14.3284 147.778 14.3284 145.111C 14.3284 142.444 16.3433 140.222 19.0299 140.222C 21.0448 140.222 22.8358 141.555 23.5075 143.333C 23.7313 143.778 23.7313 144.222 23.7313 144.666C 23.7313 147.555 21.7164 149.778 19.0299 149.778ZM 27.0896 144.222L 64.2537 133.111C 65.8209 134.666 67.8358 135.555 70.0746 135.555C 71.8657 135.555 73.4328 134.889 74.7761 134L 106.119 155.111C 105.672 155.778 105.224 156.666 105 157.555L 26.8657 146.222C 26.8657 145.778 27.0896 145.555 27.0896 145.111C 27.0896 144.666 27.0896 144.444 27.0896 144.222ZM 113.06 164.222C 110.373 164.222 108.358 162.222 108.358 159.555C 108.358 156.889 110.373 154.889 113.06 154.889C 115.746 154.889 117.761 156.889 117.761 159.555C 117.761 162.222 115.746 164.222 113.06 164.222ZM 120.672 156.444C 120.448 155.778 120 155.111 119.552 154.444L 145.075 114.666C 145.97 115.111 147.09 115.333 148.209 115.333L 153.358 137.555C 150.672 138.889 148.657 141.555 148.657 144.889C 148.657 145.778 148.881 146.666 149.104 147.333L 120.672 156.444ZM 156.94 149.778C 154.254 149.778 152.239 147.778 152.239 145.111C 152.239 142.444 154.254 140.444 156.94 140.444C 159.627 140.444 161.642 142.444 161.642 145.111C 161.642 147.778 159.627 149.778 156.94 149.778Z"/>
<path id="path2_fill" d="M 49.9254 10.1118C 55.5224 18.5562 50.3731 31.6673 38.5075 39.6673C 26.6418 47.4451 12.3134 47.2229 6.71642 38.7784L 0 28.7784L 42.903 0L 49.9254 10.1118Z"/>
<path id="path3_stroke" d="M 49.9254 10.1118L 51.3393 9.17465C 51.3325 9.16443 51.3256 9.15429 51.3186 9.14422L 49.9254 10.1118ZM 38.5075 39.6673L 39.4374 41.086C 39.4435 41.082 39.4496 41.0779 39.4557 41.0738L 38.5075 39.6673ZM 6.71642 38.7784L 8.13036 37.8413L 8.12458 37.8327L 6.71642 38.7784ZM 0 28.7784L -0.944941 27.3697C -1.3187 27.6204 -1.57751 28.0094 -1.66439 28.451C -1.75127 28.8926 -1.65909 29.3506 -1.40816 29.7242L 0 28.7784ZM 42.903 0L 44.2963 -0.967584C 43.768 -1.72828 42.7272 -1.92464 41.9581 -1.40872L 42.903 0ZM 48.5115 11.049C 50.9252 14.6907 51.1144 19.4699 49.1837 24.4422C 47.2537 29.4125 43.2434 34.4285 37.5592 38.2608L 39.4557 41.0738C 45.6372 36.9062 50.1343 31.3666 52.3462 25.6702C 54.5573 19.9759 54.5225 13.9773 51.3393 9.17465L 48.5115 11.049ZM 37.5775 38.2486C 31.8987 41.971 25.6843 43.7401 20.302 43.6104C 14.9125 43.4806 10.5356 41.4701 8.13033 37.8413L 5.3025 39.7156C 8.49429 44.5312 14.0801 46.8541 20.2203 47.002C 26.368 47.1501 33.2505 45.1414 39.4374 41.086L 37.5775 38.2486ZM 8.12458 37.8327L 1.40816 27.8327L -1.40816 29.7242L 5.30826 39.7242L 8.12458 37.8327ZM 0.944941 30.1872L 43.848 1.40872L 41.9581 -1.40872L -0.944941 27.3697L 0.944941 30.1872ZM 41.5098 0.967584L 48.5321 11.0794L 51.3186 9.14422L 44.2963 -0.967584L 41.5098 0.967584Z"/>
<path id="path4_fill" d="M 25.9116 36.5279C 40.2221 36.5279 51.8231 28.3509 51.8231 18.264C 51.8231 8.17706 40.2221 0 25.9116 0C 11.601 0 0 8.17706 0 18.264C 0 28.3509 11.601 36.5279 25.9116 36.5279Z"/>
<path id="path5_stroke" d="M 50.1268 18.264C 50.1268 22.6073 47.6316 26.7082 43.2565 29.792C 38.886 32.8726 32.759 34.8316 25.9116 34.8316L 25.9116 38.2243C 33.3747 38.2243 40.2035 36.0947 45.2111 32.5651C 50.2141 29.0386 53.5195 24.0076 53.5195 18.264L 50.1268 18.264ZM 25.9116 34.8316C 19.0642 34.8316 12.9371 32.8726 8.56662 29.792C 4.19149 26.7082 1.69632 22.6073 1.69632 18.264L -1.69632 18.264C -1.69632 24.0076 1.60901 29.0386 6.61203 32.5651C 11.6197 36.0947 18.4484 38.2243 25.9116 38.2243L 25.9116 34.8316ZM 1.69632 18.264C 1.69632 13.9207 4.19149 9.81974 8.56662 6.7359C 12.9371 3.65531 19.0642 1.69632 25.9116 1.69632L 25.9116 -1.69632C 18.4484 -1.69632 11.6197 0.433223 6.61203 3.96289C 1.60901 7.48931 -1.69632 12.5204 -1.69632 18.264L 1.69632 18.264ZM 25.9116 1.69632C 32.759 1.69632 38.886 3.65531 43.2565 6.7359C 47.6316 9.81974 50.1268 13.9207 50.1268 18.264L 53.5195 18.264C 53.5195 12.5204 50.2141 7.48931 45.2111 3.96289C 40.2035 0.433223 33.3747 -1.69632 25.9116 -1.69632L 25.9116 1.69632Z"/>
<path id="path6_stroke" d="M 1.4114 -0.940936C 0.891736 -1.72043 -0.16144 -1.93107 -0.940936 -1.4114C -1.72043 -0.891739 -1.93107 0.161437 -1.4114 0.940933L 1.4114 -0.940936ZM 4.5886 9.94093C 5.10826 10.7204 6.16144 10.9311 6.94093 10.4114C 7.72043 9.89174 7.93106 8.83856 7.4114 8.05906L 4.5886 9.94093ZM -1.4114 0.940933L 4.5886 9.94093L 7.4114 8.05906L 1.4114 -0.940936L -1.4114 0.940933Z"/>
<path id="path7_stroke" d="M 1.4114 -0.940936C 0.891734 -1.72043 -0.161442 -1.93107 -0.940937 -1.4114C -1.72043 -0.891739 -1.93107 0.161437 -1.4114 0.940933L 1.4114 -0.940936ZM 4.5886 9.94093C 5.10826 10.7204 6.16144 10.9311 6.94093 10.4114C 7.72043 9.89174 7.93106 8.83856 7.4114 8.05906L 4.5886 9.94093ZM -1.4114 0.940933L 4.5886 9.94093L 7.4114 8.05906L 1.4114 -0.940936L -1.4114 0.940933Z"/>
<path id="path8_stroke" d="M 1.4114 -0.940931C 0.89174 -1.72043 -0.161436 -1.93106 -0.940932 -1.4114C -1.72043 -0.891735 -1.93106 0.161441 -1.4114 0.940937L 1.4114 -0.940931ZM 4.58859 9.94094C 5.10826 10.7204 6.16143 10.9311 6.94093 10.4114C 7.72043 9.89174 7.93106 8.83856 7.4114 8.05907L 4.58859 9.94094ZM -1.4114 0.940937L 4.58859 9.94094L 7.4114 8.05907L 1.4114 -0.940931L -1.4114 0.940937Z"/>
<path id="path9_stroke" d="M 1.4114 -0.940931C 0.891741 -1.72043 -0.161436 -1.93106 -0.940931 -1.4114C -1.72043 -0.891735 -1.93106 0.161442 -1.4114 0.940937L 1.4114 -0.940931ZM 4.5886 9.94094C 5.10827 10.7204 6.16144 10.9311 6.94094 10.4114C 7.72043 9.89174 7.93107 8.83856 7.4114 8.05907L 4.5886 9.94094ZM -1.4114 0.940937L 4.5886 9.94094L 7.4114 8.05907L 1.4114 -0.940931L -1.4114 0.940937Z"/>
<path id="path10_stroke" d="M 11.2888 6.44444C 11.2888 9.05489 9.15334 11.1926 6.49254 11.1926L 6.49254 14.5852C 11.0032 14.5852 14.6814 10.9523 14.6814 6.44444L 11.2888 6.44444ZM 6.49254 11.1926C 3.83173 11.1926 1.69629 9.05489 1.69629 6.44444L -1.69629 6.44444C -1.69629 10.9523 1.98188 14.5852 6.49254 14.5852L 6.49254 11.1926ZM 1.69629 6.44444C 1.69629 3.83398 3.83173 1.69629 6.49254 1.69629L 6.49254 -1.6963C 1.98188 -1.6963 -1.69629 1.93657 -1.69629 6.44444L 1.69629 6.44444ZM 6.49254 1.69629C 9.15334 1.69629 11.2888 3.83398 11.2888 6.44444L 14.6814 6.44444C 14.6814 1.93657 11.0032 -1.6963 6.49254 -1.6963L 6.49254 1.69629Z"/>
<path id="path11_stroke" d="M 11.2888 6.44444C 11.2888 9.05489 9.15334 11.1926 6.49254 11.1926L 6.49254 14.5852C 11.0032 14.5852 14.6814 10.9523 14.6814 6.44444L 11.2888 6.44444ZM 6.49254 11.1926C 3.83173 11.1926 1.69629 9.05489 1.69629 6.44444L -1.69629 6.44444C -1.69629 10.9523 1.98188 14.5852 6.49254 14.5852L 6.49254 11.1926ZM 1.69629 6.44444C 1.69629 3.83398 3.83173 1.69629 6.49254 1.69629L 6.49254 -1.69629C 1.98188 -1.69629 -1.69629 1.93656 -1.69629 6.44444L 1.69629 6.44444ZM 6.49254 1.69629C 9.15334 1.69629 11.2888 3.83398 11.2888 6.44444L 14.6814 6.44444C 14.6814 1.93656 11.0032 -1.69629 6.49254 -1.69629L 6.49254 1.69629Z"/>
<path id="path12_stroke" d="M 11.2888 6.44443C 11.2888 9.05489 9.15335 11.1926 6.49254 11.1926L 6.49254 14.5852C 11.0032 14.5852 14.6814 10.9523 14.6814 6.44443L 11.2888 6.44443ZM 6.49254 11.1926C 3.83173 11.1926 1.69629 9.05489 1.69629 6.44443L -1.69629 6.44443C -1.69629 10.9523 1.98189 14.5852 6.49254 14.5852L 6.49254 11.1926ZM 1.69629 6.44443C 1.69629 3.83398 3.83173 1.69629 6.49254 1.69629L 6.49254 -1.69629C 1.98189 -1.69629 -1.69629 1.93656 -1.69629 6.44443L 1.69629 6.44443ZM 6.49254 1.69629C 9.15335 1.69629 11.2888 3.83398 11.2888 6.44443L 14.6814 6.44443C 14.6814 1.93657 11.0032 -1.69629 6.49254 -1.69629L 6.49254 1.69629Z"/>
<path id="path13_stroke" d="M 11.2888 6.44444C 11.2888 9.05489 9.15334 11.1926 6.49253 11.1926L 6.49253 14.5852C 11.0032 14.5852 14.6814 10.9523 14.6814 6.44444L 11.2888 6.44444ZM 6.49253 11.1926C 3.83172 11.1926 1.69629 9.05489 1.69629 6.44444L -1.6963 6.44444C -1.6963 10.9523 1.98188 14.5852 6.49253 14.5852L 6.49253 11.1926ZM 1.69629 6.44444C 1.69629 3.83398 3.83173 1.69629 6.49253 1.69629L 6.49253 -1.69629C 1.98188 -1.69629 -1.6963 1.93657 -1.6963 6.44444L 1.69629 6.44444ZM 6.49253 1.69629C 9.15334 1.69629 11.2888 3.83398 11.2888 6.44444L 14.6814 6.44444C 14.6814 1.93657 11.0032 -1.69629 6.49253 -1.69629L 6.49253 1.69629Z"/>
<path id="path14_stroke" d="M 11.2888 6.44443C 11.2888 9.05489 9.15334 11.1926 6.49253 11.1926L 6.49253 14.5852C 11.0032 14.5852 14.6814 10.9523 14.6814 6.44443L 11.2888 6.44443ZM 6.49253 11.1926C 3.83173 11.1926 1.69629 9.05489 1.69629 6.44443L -1.69629 6.44443C -1.69629 10.9523 1.98188 14.5852 6.49253 14.5852L 6.49253 11.1926ZM 1.69629 6.44443C 1.69629 3.83398 3.83173 1.6963 6.49253 1.6963L 6.49253 -1.69629C 1.98188 -1.69629 -1.69629 1.93656 -1.69629 6.44443L 1.69629 6.44443ZM 6.49253 1.6963C 9.15335 1.6963 11.2888 3.83398 11.2888 6.44443L 14.6814 6.44443C 14.6814 1.93656 11.0032 -1.69629 6.49253 -1.69629L 6.49253 1.6963Z"/>
<path id="path15_stroke" d="M 11.2888 6.44443C 11.2888 9.05488 9.15335 11.1926 6.49254 11.1926L 6.49254 14.5852C 11.0032 14.5852 14.6814 10.9523 14.6814 6.44443L 11.2888 6.44443ZM 6.49254 11.1926C 3.83173 11.1926 1.69629 9.05488 1.69629 6.44443L -1.6963 6.44443C -1.6963 10.9523 1.98189 14.5852 6.49254 14.5852L 6.49254 11.1926ZM 1.69629 6.44443C 1.69629 3.83398 3.83173 1.69629 6.49254 1.69629L 6.49254 -1.69629C 1.98189 -1.69629 -1.6963 1.93655 -1.6963 6.44443L 1.69629 6.44443ZM 6.49254 1.69629C 9.15335 1.69629 11.2888 3.83398 11.2888 6.44443L 14.6814 6.44443C 14.6814 1.93655 11.0032 -1.69629 6.49254 -1.69629L 6.49254 1.69629Z"/>
<path id="path16_stroke" d="M 11.2888 6.44443C 11.2888 9.05489 9.15335 11.1926 6.49254 11.1926L 6.49254 14.5852C 11.0032 14.5852 14.6814 10.9523 14.6814 6.44443L 11.2888 6.44443ZM 6.49254 11.1926C 3.83173 11.1926 1.69629 9.05488 1.69629 6.44443L -1.69629 6.44443C -1.69629 10.9523 1.98189 14.5852 6.49254 14.5852L 6.49254 11.1926ZM 1.69629 6.44443C 1.69629 3.83398 3.83173 1.6963 6.49254 1.6963L 6.49254 -1.69629C 1.9819 -1.69629 -1.69629 1.93655 -1.69629 6.44443L 1.69629 6.44443ZM 6.49254 1.6963C 9.15335 1.6963 11.2888 3.83398 11.2888 6.44443L 14.6814 6.44443C 14.6814 1.93655 11.0032 -1.69629 6.49254 -1.69629L 6.49254 1.6963Z"/>
<path id="path17_stroke" d="M 11.2888 6.44443C 11.2888 9.05489 9.15334 11.1926 6.49254 11.1926L 6.49254 14.5852C 11.0032 14.5852 14.6814 10.9523 14.6814 6.44443L 11.2888 6.44443ZM 6.49254 11.1926C 3.83173 11.1926 1.69629 9.05489 1.69629 6.44443L -1.69629 6.44443C -1.69629 10.9523 1.98188 14.5852 6.49254 14.5852L 6.49254 11.1926ZM 1.69629 6.44443C 1.69629 3.83398 3.83173 1.6963 6.49254 1.6963L 6.49254 -1.69629C 1.98189 -1.69629 -1.69629 1.93656 -1.69629 6.44443L 1.69629 6.44443ZM 6.49254 1.6963C 9.15335 1.6963 11.2888 3.83398 11.2888 6.44443L 14.6814 6.44443C 14.6814 1.93656 11.0032 -1.69629 6.49254 -1.69629L 6.49254 1.6963Z"/>
<path id="path18_stroke" d="M 11.2888 6.44443C 11.2888 9.05488 9.15334 11.1926 6.49254 11.1926L 6.49254 14.5852C 11.0032 14.5852 14.6814 10.9523 14.6814 6.44443L 11.2888 6.44443ZM 6.49254 11.1926C 3.83173 11.1926 1.69629 9.05488 1.69629 6.44443L -1.69629 6.44443C -1.69629 10.9523 1.98188 14.5852 6.49254 14.5852L 6.49254 11.1926ZM 1.69629 6.44443C 1.69629 3.83397 3.83173 1.69629 6.49254 1.69629L 6.49254 -1.69629C 1.98189 -1.69629 -1.69629 1.93656 -1.69629 6.44443L 1.69629 6.44443ZM 6.49254 1.69629C 9.15335 1.69629 11.2888 3.83397 11.2888 6.44443L 14.6814 6.44443C 14.6814 1.93656 11.0032 -1.69629 6.49254 -1.69629L 6.49254 1.69629Z"/>
<path id="path19_stroke" d="M 11.2888 6.44443C 11.2888 9.05489 9.15335 11.1926 6.49254 11.1926L 6.49254 14.5852C 11.0032 14.5852 14.6814 10.9523 14.6814 6.44443L 11.2888 6.44443ZM 6.49254 11.1926C 3.83173 11.1926 1.69629 9.05489 1.69629 6.44443L -1.69629 6.44443C -1.69629 10.9523 1.98189 14.5852 6.49254 14.5852L 6.49254 11.1926ZM 1.69629 6.44443C 1.69629 3.83398 3.83173 1.69629 6.49254 1.69629L 6.49254 -1.69629C 1.98189 -1.69629 -1.69629 1.93656 -1.69629 6.44443L 1.69629 6.44443ZM 6.49254 1.69629C 9.15335 1.69629 11.2888 3.83398 11.2888 6.44443L 14.6814 6.44443C 14.6814 1.93656 11.0032 -1.69629 6.49254 -1.69629L 6.49254 1.69629Z"/>
<path id="path20_stroke" d="M 0.456108 -1.63382C -0.446227 -1.88572 -1.38192 -1.35844 -1.63382 -0.456109C -1.88572 0.446226 -1.35844 1.38192 -0.456108 1.63382L 0.456108 -1.63382ZM 42.529 13.6338C 43.4313 13.8857 44.367 13.3584 44.6189 12.4561C 44.8708 11.5538 44.3435 10.6181 43.4412 10.3662L 42.529 13.6338ZM -0.456108 1.63382L 42.529 13.6338L 43.4412 10.3662L 0.456108 -1.63382L -0.456108 1.63382Z"/>
<path id="path21_stroke" d="M -0.692707 15.4516C -1.54787 15.8342 -1.93098 16.8375 -1.54841 17.6927C -1.16583 18.5479 -0.162451 18.931 0.69271 18.5484L -0.692707 15.4516ZM 38.6927 1.54841C 39.5479 1.16584 39.931 0.162454 39.5484 -0.692708C 39.1658 -1.54787 38.1624 -1.93098 37.3073 -1.54841L 38.6927 1.54841ZM 0.69271 18.5484L 38.6927 1.54841L 37.3073 -1.54841L -0.692707 15.4516L 0.69271 18.5484Z"/>
<path id="path22_stroke" d="M 0.960997 -1.39782C 0.189005 -1.92856 -0.867073 -1.73299 -1.39782 -0.960999C -1.92856 -0.189006 -1.73299 0.867072 -0.961001 1.39782L 0.960997 -1.39782ZM 31.039 23.3978C 31.811 23.9286 32.8671 23.733 33.3978 22.961C 33.9286 22.189 33.733 21.1329 32.961 20.6022L 31.039 23.3978ZM -0.961001 1.39782L 31.039 23.3978L 32.961 20.6022L 0.960997 -1.39782L -0.961001 1.39782Z"/>
<path id="path23_stroke" d="M 7.58134 0.188116C 7.68523 -0.742943 7.01468 -1.58194 6.08362 -1.68583C 5.15257 -1.78972 4.31357 -1.11917 4.20968 -0.188116L 7.58134 0.188116ZM -1.68583 52.6455C -1.78972 53.5765 -1.11917 54.4155 -0.188116 54.5194C 0.742943 54.6233 1.58194 53.9528 1.68583 53.0217L -1.68583 52.6455ZM 4.20968 -0.188116L -1.68583 52.6455L 1.68583 53.0217L 7.58134 0.188116L 4.20968 -0.188116Z"/>
<path id="path24_stroke" d="M 27.4325 0.908436C 27.9342 0.11727 27.6996 -0.930819 26.9084 -1.43253C 26.1173 -1.93425 25.0692 -1.6996 24.5675 -0.908436L 27.4325 0.908436ZM -1.43253 40.0916C -1.93425 40.8827 -1.6996 41.9308 -0.908436 42.4325C -0.11727 42.9342 0.930819 42.6996 1.43253 41.9084L -1.43253 40.0916ZM 24.5675 -0.908436L -1.43253 40.0916L 1.43253 41.9084L 27.4325 0.908436L 24.5675 -0.908436Z"/>
<path id="path25_stroke" d="M 65.4292 1.64109C 66.3356 1.40405 66.8781 0.47714 66.6411 -0.429211C 66.4041 -1.33556 65.4771 -1.87814 64.5708 -1.6411L 65.4292 1.64109ZM -0.429211 15.3589C -1.33556 15.5959 -1.87814 16.5229 -1.6411 17.4292C -1.40405 18.3356 -0.477144 18.8781 0.429207 18.6411L -0.429211 15.3589ZM 64.5708 -1.6411L -0.429211 15.3589L 0.429207 18.6411L 65.4292 1.64109L 64.5708 -1.6411Z"/>
<path id="path26_stroke" d="M 37.8275 35.9338C 38.5274 36.5566 39.5996 36.4941 40.2224 35.7943C 40.8452 35.0944 40.7827 34.0222 40.0829 33.3994L 37.8275 35.9338ZM 1.12768 -1.26718C 0.427832 -1.88998 -0.644383 -1.82752 -1.26718 -1.12768C -1.88998 -0.427832 -1.82752 0.644384 -1.12768 1.26718L 1.12768 -1.26718ZM 40.0829 33.3994L 1.12768 -1.26718L -1.12768 1.26718L 37.8275 35.9338L 40.0829 33.3994Z"/>
<path id="path27_stroke" d="M 3.69462 0.0753148C 3.73622 -0.860598 3.01123 -1.65303 2.07532 -1.69462C 1.1394 -1.73622 0.346975 -1.01123 0.305379 -0.0753181L 3.69462 0.0753148ZM -1.69462 44.9247C -1.73622 45.8606 -1.01123 46.653 -0.0753174 46.6946C 0.860595 46.7362 1.65302 46.0112 1.69462 45.0753L -1.69462 44.9247ZM 0.305379 -0.0753181L -1.69462 44.9247L 1.69462 45.0753L 3.69462 0.0753148L 0.305379 -0.0753181Z"/>
<path id="path28_stroke" d="M -0.471667 9.37061C -1.37156 9.6311 -1.88989 10.5718 -1.6294 11.4717C -1.3689 12.3716 -0.428223 12.8899 0.471669 12.6294L -0.471667 9.37061ZM 38.4717 1.6294C 39.3716 1.3689 39.8899 0.428224 39.6294 -0.471668C 39.3689 -1.37156 38.4282 -1.88989 37.5283 -1.6294L 38.4717 1.6294ZM 0.471669 12.6294L 38.4717 1.6294L 37.5283 -1.6294L -0.471667 9.37061L 0.471669 12.6294Z"/>
<path id="path29_stroke" d="M 0.969926 -1.39164C 0.201347 -1.92731 -0.855961 -1.73851 -1.39164 -0.96993C -1.92731 -0.20135 -1.73851 0.855958 -0.96993 1.39163L 0.969926 -1.39164ZM 32.0301 24.3916C 32.7987 24.9273 33.856 24.7385 34.3916 23.9699C 34.9273 23.2013 34.7385 22.144 33.9699 21.6084L 32.0301 24.3916ZM -0.96993 1.39163L 32.0301 24.3916L 33.9699 21.6084L 0.969926 -1.39164L -0.96993 1.39163Z"/>
<path id="path30_stroke" d="M -1.30802 42.031C -1.90451 42.7534 -1.80244 43.8226 -1.08004 44.4191C -0.35764 45.0156 0.711532 44.9135 1.30802 44.1911L -1.30802 42.031ZM 36.905 1.08004C 37.5015 0.357638 37.3995 -0.711534 36.6771 -1.30802C 35.9547 -1.90451 34.8855 -1.80244 34.289 -1.08004L 36.905 1.08004ZM 1.30802 44.1911L 36.905 1.08004L 34.289 -1.08004L -1.30802 42.031L 1.30802 44.1911Z"/>
<path id="path31_stroke" d="M 8.63154 54.9806C 8.80497 55.9013 9.6919 56.507 10.6125 56.3335C 11.5332 56.1601 12.1389 55.2732 11.9655 54.3525L 8.63154 54.9806ZM 1.66697 -0.314036C 1.49353 -1.23468 0.606606 -1.84041 -0.314036 -1.66697C -1.23468 -1.49353 -1.84041 -0.606605 -1.66697 0.314037L 1.66697 -0.314036ZM 11.9655 54.3525L 1.66697 -0.314036L -1.66697 0.314037L 8.63154 54.9806L 11.9655 54.3525Z"/>
<path id="path32_stroke" d="M 0.251629 -1.67753C -0.674843 -1.8165 -1.53856 -1.1781 -1.67753 -0.251629C -1.8165 0.674843 -1.1781 1.53856 -0.251629 1.67753L 0.251629 -1.67753ZM 79.7484 13.6775C 80.6748 13.8165 81.5386 13.1781 81.6775 12.2516C 81.8165 11.3252 81.1781 10.4614 80.2516 10.3225L 79.7484 13.6775ZM -0.251629 1.67753L 79.7484 13.6775L 80.2516 10.3225L 0.251629 -1.67753L -0.251629 1.67753Z"/>
<path id="path33_stroke" d="M 0.146087 -1.68999C -0.787269 -1.77067 -1.60931 -1.07944 -1.68999 -0.146086C -1.77067 0.787271 -1.07944 1.60931 -0.146085 1.68999L 0.146087 -1.68999ZM 74.4062 8.13443C 75.3395 8.21511 76.1616 7.52388 76.2422 6.59052C 76.3229 5.65717 75.6317 4.83513 74.6983 4.75445L 74.4062 8.13443ZM -0.146085 1.68999L 74.4062 8.13443L 74.6983 4.75445L 0.146087 -1.68999L -0.146085 1.68999Z"/>
<path id="path34_stroke" d="M -0.127318 5.30849C -1.06151 5.37881 -1.76182 6.19312 -1.69151 7.12732C -1.62119 8.06151 -0.806876 8.76182 0.127318 8.69151L -0.127318 5.30849ZM 93.1273 1.69151C 94.0615 1.62119 94.7618 0.806876 94.6915 -0.127318C 94.6212 -1.06151 93.8069 -1.76182 92.8727 -1.69151L 93.1273 1.69151ZM 0.127318 8.69151L 93.1273 1.69151L 92.8727 -1.69151L -0.127318 5.30849L 0.127318 8.69151Z"/>
<path id="path35_stroke" d="M -0.515957 8.60629C -1.40841 8.89124 -1.90088 9.84572 -1.61592 10.7382C -1.33097 11.6306 -0.376495 12.1231 0.515954 11.8381L -0.515957 8.60629ZM 32.5309 1.61593C 33.4233 1.33097 33.9158 0.3765 33.6308 -0.515949C 33.3459 -1.4084 32.3914 -1.90087 31.499 -1.61591L 32.5309 1.61593ZM 0.515954 11.8381L 32.5309 1.61593L 31.499 -1.61591L -0.515957 8.60629L 0.515954 11.8381Z"/>
<path id="path36_stroke" d="M 1.65153 -0.387118C 1.43773 -1.29923 0.524997 -1.86533 -0.387118 -1.65153C -1.29923 -1.43773 -1.86533 -0.524997 -1.65153 0.387118L 1.65153 -0.387118ZM 4.11718 24.9977C 4.33098 25.9098 5.24371 26.4759 6.15583 26.2621C 7.06794 26.0483 7.63404 25.1356 7.42024 24.2235L 4.11718 24.9977ZM -1.65153 0.387118L 4.11718 24.9977L 7.42024 24.2235L 1.65153 -0.387118L -1.65153 0.387118Z"/>
</defs>
</svg>
