<svg width="220" height="190" viewBox="0 0 220 190" version="1.1" xmlns="http://www.w3.org/2000/svg" xmlns:xlink="http://www.w3.org/1999/xlink">
<title>icon_moe_1</title>
<desc>Created using Figma</desc>
<g id="Canvas" transform="translate(465 -3749)">
<g id="icon_moe_1">
<g id="Group">
<g id="Vector">
<use xlink:href="#path0_fill" transform="translate(-459 3778)" fill="#D0D3E6"/>
</g>
<g id="Group">
<g id="Vector">
<use xlink:href="#path1_fill" transform="translate(-393.142 3782.21)" fill="#9999CC"/>
<use xlink:href="#path2_stroke" transform="translate(-393.142 3782.21)" fill="#67679A"/>
</g>
<g id="Vector">
<use xlink:href="#path3_fill" transform="matrix(0.999901 -0.0127438 0.0128452 0.999899 -393.068 3811.9)" fill="#FFFFFF"/>
<use xlink:href="#path4_stroke" transform="matrix(0.999901 -0.0127438 0.0128452 0.999899 -393.068 3811.9)" fill="#67679A"/>
</g>
<g id="Vector">
<use xlink:href="#path5_fill" transform="translate(-393.142 3792.99)" fill="#D0D3E6"/>
<use xlink:href="#path6_stroke" transform="translate(-393.142 3792.99)" fill="#67679A"/>
</g>
<g id="Vector">
<use xlink:href="#path7_fill" transform="translate(-282.154 3837.69)" fill="#FFFFFF"/>
<use xlink:href="#path8_stroke" transform="translate(-282.154 3837.69)" fill="#67679A"/>
</g>
</g>
<g id="Group">
<g id="Group">
<g id="Vector">
<use xlink:href="#path9_fill" transform="matrix(0.652985 -0.757322 0.759875 0.650013 -450.041 3854.83)" fill="#FFFFFF"/>
<use xlink:href="#path10_stroke" transform="matrix(0.652985 -0.757322 0.759875 0.650013 -450.041 3854.83)" fill="#67679A"/>
</g>
</g>
<g id="Group">
<g id="Vector">
<use xlink:href="#path11_stroke" transform="translate(-412.651 3867.67)" fill="#D0D3E6"/>
</g>
<g id="Vector">
<use xlink:href="#path12_stroke" transform="translate(-399.733 3852.42)" fill="#D0D3E6"/>
</g>
<g id="Vector">
<use xlink:href="#path13_stroke" transform="translate(-386.815 3837.43)" fill="#D0D3E6"/>
</g>
<g id="Vector">
<use xlink:href="#path14_stroke" transform="translate(-373.634 3822.44)" fill="#D0D3E6"/>
</g>
</g>
<g id="Vector">
<use xlink:href="#path15_stroke" transform="translate(-404.742 3841.64)" fill="#D0D3E6"/>
</g>
</g>
<g id="Group">
<g id="Vector">
<use xlink:href="#path16_fill" transform="translate(-376.487 3877.14)" fill="#9999CC"/>
<use xlink:href="#path17_stroke" transform="translate(-376.487 3877.14)" fill="#67679A"/>
</g>
<g id="Vector">
<use xlink:href="#path18_fill" transform="matrix(0.572225 -0.820138 0.822258 0.569175 -377.772 3891.29)" fill="#FFFFFF"/>
<use xlink:href="#path19_stroke" transform="matrix(0.572225 -0.820138 0.822258 0.569175 -377.772 3891.29)" fill="#67679A"/>
</g>
<g id="Vector">
<use xlink:href="#path20_stroke" transform="translate(-374 3894)" fill="#67679A"/>
</g>
<g id="Vector">
<use xlink:href="#path21_stroke" transform="translate(-369 3901)" fill="#67679A"/>
</g>
<g id="Vector">
<use xlink:href="#path22_stroke" transform="translate(-361 3907)" fill="#67679A"/>
</g>
<g id="Vector">
<use xlink:href="#path23_stroke" transform="translate(-352 3911)" fill="#67679A"/>
</g>
</g>
<g id="Vector">
<use xlink:href="#path24_fill" transform="translate(-345.689 3833.75)" fill="#FFFFFF"/>
<use xlink:href="#path25_stroke" transform="translate(-345.689 3833.75)" fill="#D0D3E6"/>
</g>
<g id="Vector">
<use xlink:href="#path26_stroke" transform="translate(-265.545 3845.84)" fill="#D0D3E6"/>
</g>
</g>
</g>
</g>
<defs>
<path id="path0_fill" d="M 198.2 59.9556C 198.2 58.1148 197.409 56.2741 196.091 54.9593C 194.773 53.6444 192.928 52.8556 191.082 52.8556L 180.537 53.1185L 180.273 27.6111C 180.273 27.0852 180.01 26.5593 179.746 26.2963C 179.482 26.0333 178.955 25.7704 178.428 25.7704L 168.674 25.7704L 168.41 12.6222C 168.41 12.0963 168.146 11.5704 167.619 11.0444C 167.092 10.7815 166.565 10.5185 166.037 10.5185L 149.692 13.4111L 149.429 1.57778C 149.429 1.05185 149.165 0.262963 148.638 1.31376e-14C 148.11 0 147.583 0 147.056 0L 86.9482 20.5111L 65.5942 2.1037C 65.0669 1.84074 64.8033 1.57778 64.276 1.57778C 63.7488 1.57778 63.2215 1.84074 62.9579 2.36667L 0.477537 75.7333C -0.313354 76.5222 -0.0497237 77.837 0.741167 78.6259L 47.1401 118.859C 47.4037 119.122 47.931 119.385 48.4582 119.385C 48.4582 119.385 48.4582 119.385 48.7219 119.385C 49.2491 119.385 49.7764 119.122 50.04 118.596L 61.6397 104.922L 77.7212 104.659L 77.1939 105.185C 68.5 120.5 84.5 137.5 100.13 141.211C 100.393 141.211 100.657 141.474 100.921 141.474C 102.502 141.737 104.084 142 105.666 142C 111.729 142 117.002 139.896 119.902 135.426L 126.229 126.222C 130.447 120.174 129.393 111.759 124.384 104.396L 179.746 103.607C 180.273 103.607 180.801 103.344 181.064 103.081C 181.328 102.819 181.591 102.293 181.591 101.767L 181.328 76.2593L 191.873 75.9963C 195.827 75.9963 198.991 72.5778 198.991 68.6333L 198.2 59.9556Z"/>
<path id="path1_fill" d="M 0 29.7148L 88.8434 6.26953e-08L 89.107 28.663L 0 29.7148Z"/>
<path id="path2_stroke" d="M 0 29.7148L -0.635135 27.8158C -1.57037 28.1286 -2.13862 29.0758 -1.97442 30.0482C -1.81021 31.0206 -0.962459 31.7287 0.023635 31.717L 0 29.7148ZM 88.8434 6.26953e-08L 90.8456 -0.0184158C 90.8398 -0.659149 90.5276 -1.25836 90.0059 -1.63036C 89.4841 -2.00236 88.8159 -2.10221 88.2082 -1.89897L 88.8434 6.26953e-08ZM 89.107 28.663L 89.1306 30.6652C 90.2344 30.6522 91.1194 29.7483 91.1093 28.6445L 89.107 28.663ZM 0.635135 31.6138L 89.4785 1.89897L 88.2082 -1.89897L -0.635135 27.8158L 0.635135 31.6138ZM 86.8411 0.018416L 87.1047 28.6814L 91.1093 28.6445L 90.8456 -0.0184158L 86.8411 0.018416ZM 89.0834 26.6607L -0.023635 27.7126L 0.023635 31.717L 89.1306 30.6652L 89.0834 26.6607Z"/>
<path id="path3_fill" d="M 119.952 0L 2.01134e-06 0L 2.01134e-06 71L 119.952 71L 119.952 0Z"/>
<path id="path4_stroke" d="M 2.01134e-06 0L 2.01134e-06 -2.00237C -1.10588 -2.00237 -2.00237 -1.10588 -2.00237 4.44615e-16L 2.01134e-06 0ZM 119.952 0L 121.954 0C 121.954 -1.10588 121.058 -2.00237 119.952 -2.00237L 119.952 0ZM 119.952 71L 119.952 73.0024C 121.058 73.0024 121.954 72.1059 121.954 71L 119.952 71ZM 2.01134e-06 71L -2.00237 71C -2.00237 72.1059 -1.10588 73.0024 2.01134e-06 73.0024L 2.01134e-06 71ZM 2.01134e-06 2.00237L 119.952 2.00237L 119.952 -2.00237L 2.01134e-06 -2.00237L 2.01134e-06 2.00237ZM 117.949 0L 117.949 71L 121.954 71L 121.954 0L 117.949 0ZM 119.952 68.9977L 2.01134e-06 68.9977L 2.01134e-06 73.0024L 119.952 73.0024L 119.952 68.9977ZM 2.00237 71L 2.00237 0L -2.00237 0L -2.00237 71L 2.00237 71Z"/>
<path id="path5_fill" d="M 0 18.9333L 107.825 -5.01562e-07L 108.088 17.6185L 0 18.9333Z"/>
<path id="path6_stroke" d="M 0 18.9333L -0.346305 16.9611C -1.37377 17.1416 -2.09059 18.0806 -1.99372 19.1193C -1.89685 20.1579 -1.01876 20.9482 0.0243555 20.9356L 0 18.9333ZM 107.825 -5.01562e-07L 109.827 -0.0299586C 109.818 -0.616294 109.553 -1.16932 109.101 -1.54304C 108.649 -1.91676 108.056 -2.07361 107.478 -1.9722L 107.825 -5.01562e-07ZM 108.088 17.6185L 108.113 19.6207C 108.645 19.6143 109.152 19.3963 109.523 19.0151C 109.894 18.6338 110.098 18.1205 110.091 17.5886L 108.088 17.6185ZM 0.346305 20.9055L 108.171 1.97219L 107.478 -1.9722L -0.346305 16.9611L 0.346305 20.9055ZM 105.823 0.0299576L 106.086 17.6485L 110.091 17.5886L 109.827 -0.0299586L 105.823 0.0299576ZM 108.064 15.6163L -0.0243555 16.9311L 0.0243555 20.9356L 108.113 19.6207L 108.064 15.6163Z"/>
<path id="path7_fill" d="M 21.8813 16.0407L 5.2726 16.3037C 2.37267 16.3037 -4.02268e-06 13.937 -4.02268e-06 11.0444L -4.02268e-06 5.52222C -4.02268e-06 2.62963 2.37267 0.262961 5.2726 0.262961L 21.8813 2.00625e-06C 24.7812 2.00625e-06 27.1539 2.36667 27.1539 5.25926L 27.1539 10.7815C 27.1539 13.6741 24.7812 16.0407 21.8813 16.0407Z"/>
<path id="path8_stroke" d="M 21.8813 16.0407L 21.8813 14.0384C 21.8707 14.0384 21.8602 14.0385 21.8496 14.0386L 21.8813 16.0407ZM 5.2726 16.3037L 5.2726 18.3061C 5.28317 18.3061 5.29373 18.306 5.3043 18.3058L 5.2726 16.3037ZM 5.2726 0.262961L 5.2726 2.26533C 5.28317 2.26533 5.29373 2.26525 5.3043 2.26508L 5.2726 0.262961ZM 21.8813 2.00625e-06L 21.8813 -2.00237C 21.8707 -2.00237 21.8602 -2.00228 21.8496 -2.00212L 21.8813 2.00625e-06ZM 21.8496 14.0386L 5.2409 14.3016L 5.3043 18.3058L 21.913 18.0429L 21.8496 14.0386ZM 5.2726 14.3013C 3.47376 14.3013 2.00236 12.8264 2.00236 11.0444L -2.00237 11.0444C -2.00237 15.0477 1.27158 18.3061 5.2726 18.3061L 5.2726 14.3013ZM 2.00236 11.0444L 2.00236 5.52222L -2.00237 5.52222L -2.00237 11.0444L 2.00236 11.0444ZM 2.00236 5.52222C 2.00236 3.74029 3.47376 2.26533 5.2726 2.26533L 5.2726 -1.73941C 1.27158 -1.73941 -2.00237 1.51897 -2.00237 5.52222L 2.00236 5.52222ZM 5.3043 2.26508L 21.913 2.00212L 21.8496 -2.00212L 5.2409 -1.73916L 5.3043 2.26508ZM 21.8813 2.00237C 23.6801 2.00237 25.1515 3.47733 25.1515 5.25926L 29.1563 5.25926C 29.1563 1.25601 25.8823 -2.00237 21.8813 -2.00237L 21.8813 2.00237ZM 25.1515 5.25926L 25.1515 10.7815L 29.1563 10.7815L 29.1563 5.25926L 25.1515 5.25926ZM 25.1515 10.7815C 25.1515 12.5634 23.6801 14.0384 21.8813 14.0384L 21.8813 18.0431C 25.8823 18.0431 29.1563 14.7847 29.1563 10.7815L 25.1515 10.7815Z"/>
<path id="path9_fill" d="M 93.7158 0L 0 0L 0 61.8867L 93.7158 61.8867L 93.7158 0Z"/>
<path id="path10_stroke" d="M 0 0L 0 -2.00237C -1.10588 -2.00237 -2.00237 -1.10588 -2.00237 4.44616e-16L 0 0ZM 93.7158 0L 95.7182 0C 95.7182 -1.10588 94.8217 -2.00237 93.7158 -2.00237L 93.7158 0ZM 93.7158 61.8867L 93.7158 63.889C 94.8217 63.889 95.7182 62.9925 95.7182 61.8867L 93.7158 61.8867ZM 0 61.8867L -2.00237 61.8867C -2.00237 62.9925 -1.10588 63.889 4.44616e-16 63.889L 0 61.8867ZM 0 2.00237L 93.7158 2.00237L 93.7158 -2.00237L 0 -2.00237L 0 2.00237ZM 91.7135 0L 91.7135 61.8867L 95.7182 61.8867L 95.7182 0L 91.7135 0ZM 93.7158 59.8843L 0 59.8843L 0 63.889L 93.7158 63.889L 93.7158 59.8843ZM 2.00237 61.8867L 2.00237 0L -2.00237 0L -2.00237 61.8867L 2.00237 61.8867Z"/>
<path id="path11_stroke" d="M -1.48922 6.28738C -2.22848 7.10985 -2.16102 8.37588 -1.33855 9.11514C -0.516075 9.8544 0.749959 9.78695 1.48922 8.96447L -1.48922 6.28738ZM 8.34361 1.33854C 9.08286 0.516072 9.01541 -0.749962 8.19293 -1.48922C 7.37046 -2.22848 6.10443 -2.16102 5.36517 -1.33855L 8.34361 1.33854ZM 1.48922 8.96447L 8.34361 1.33854L 5.36517 -1.33855L -1.48922 6.28738L 1.48922 8.96447Z"/>
<path id="path12_stroke" d="M -1.51152 6.57558C -2.23684 7.41037 -2.1481 8.67509 -1.31331 9.40041C -0.478519 10.1257 0.786201 10.037 1.51152 9.2022L -1.51152 6.57558ZM 8.36591 1.31331C 9.09123 0.478517 9.00249 -0.786203 8.1677 -1.51152C 7.3329 -2.23685 6.06818 -2.1481 5.34286 -1.31331L 8.36591 1.31331ZM 1.51152 9.2022L 8.36591 1.31331L 5.34286 -1.31331L -1.51152 6.57558L 1.51152 9.2022Z"/>
<path id="path13_stroke" d="M -1.51152 6.57558C -2.23684 7.41037 -2.1481 8.67509 -1.31331 9.40041C -0.47852 10.1257 0.7862 10.037 1.51152 9.2022L -1.51152 6.57558ZM 8.36591 1.31331C 9.09123 0.47852 9.00248 -0.7862 8.16769 -1.51152C 7.3329 -2.23684 6.06818 -2.1481 5.34286 -1.31331L 8.36591 1.31331ZM 1.51152 9.2022L 8.36591 1.31331L 5.34286 -1.31331L -1.51152 6.57558L 1.51152 9.2022Z"/>
<path id="path14_stroke" d="M -1.53666 6.60508C -2.24568 7.45376 -2.13247 8.71653 -1.2838 9.42555C -0.435122 10.1346 0.827643 10.0214 1.53667 9.17269L -1.53666 6.60508ZM 8.12742 1.2838C 8.83644 0.435125 8.72324 -0.82764 7.87456 -1.53666C 7.02588 -2.24569 5.76312 -2.13248 5.05409 -1.2838L 8.12742 1.2838ZM 1.53667 9.17269L 8.12742 1.2838L 5.05409 -1.2838L -1.53666 6.60508L 1.53667 9.17269Z"/>
<path id="path15_stroke" d="M -1.51868 39.1913C -2.23942 40.03 -2.14377 41.2942 -1.30503 42.015C -0.466283 42.7357 0.797933 42.6401 1.51868 41.8013L -1.51868 39.1913ZM 36.3179 1.30503C 37.0386 0.466286 36.9429 -0.79793 36.1042 -1.51868C 35.2655 -2.23942 34.0012 -2.14377 33.2805 -1.30503L 36.3179 1.30503ZM 1.51868 41.8013L 36.3179 1.30503L 33.2805 -1.30503L -1.51868 39.1913L 1.51868 41.8013Z"/>
<path id="path16_fill" d="M 41.8703 36.8148C 36.5977 44.4407 23.1526 44.7037 12.3437 37.0778C 1.5349 29.4519 -3.21044 17.0926 2.32579 9.20371L 8.65291 2.00625e-06L 48.4611 27.6111L 41.8703 36.8148Z"/>
<path id="path17_stroke" d="M 41.8703 36.8148L 40.2423 35.649C 40.2359 35.658 40.2296 35.667 40.2233 35.6761L 41.8703 36.8148ZM 2.32579 9.20371L 3.96483 10.3539C 3.96853 10.3487 3.97221 10.3434 3.97586 10.3381L 2.32579 9.20371ZM 8.65291 2.00625e-06L 9.79412 -1.64533C 9.35656 -1.94882 8.81614 -2.06552 8.29234 -1.96963C 7.76854 -1.87375 7.3045 -1.57316 7.00284 -1.13435L 8.65291 2.00625e-06ZM 48.4611 27.6111L 50.0891 28.7769C 50.4013 28.3409 50.5256 27.7979 50.4341 27.2695C 50.3426 26.741 50.0429 26.2714 49.6023 25.9658L 48.4611 27.6111ZM 40.2233 35.6761C 38.0612 38.8031 34.0915 40.6031 29.1586 40.6635C 24.2434 40.7237 18.5873 39.0322 13.4981 35.4416L 11.1894 38.7139C 16.9091 42.7493 23.3799 44.7393 29.2076 44.668C 35.0177 44.5969 40.4068 42.4524 43.5173 37.9536L 40.2233 35.6761ZM 13.4981 35.4416C 8.3803 31.8309 4.77238 27.1476 3.08517 22.5496C 1.39851 17.953 1.67314 13.6195 3.96483 10.3539L 0.686755 8.05347C -2.55779 12.6768 -2.67861 18.4673 -0.674447 23.9291C 1.32916 29.3894 5.49833 34.6987 11.1894 38.7139L 13.4981 35.4416ZM 3.97586 10.3381L 10.303 1.13435L 7.00284 -1.13435L 0.675719 8.06936L 3.97586 10.3381ZM 7.5117 1.64534L 47.3199 29.2564L 49.6023 25.9658L 9.79412 -1.64533L 7.5117 1.64534ZM 46.8331 26.4453L 40.2423 35.649L 43.4983 37.9806L 50.0891 28.7769L 46.8331 26.4453Z"/>
<path id="path18_fill" d="M 17.1067 48.4681C 26.5545 48.4681 34.2135 37.6181 34.2135 24.234C 34.2135 10.8499 26.5545 -2.00968e-06 17.1067 -2.00968e-06C 7.65895 -2.00968e-06 -4.01582e-06 10.8499 -4.01582e-06 24.234C -4.01582e-06 37.6181 7.65895 48.4681 17.1067 48.4681Z"/>
<path id="path19_stroke" d="M 32.2111 24.234C 32.2111 30.562 30.3974 36.2059 27.5672 40.2153C 24.7333 44.23 21.0055 46.4657 17.1067 46.4657L 17.1067 50.4704C 22.6558 50.4704 27.4814 47.2812 30.8389 42.5248C 34.2001 37.7632 36.2159 31.2901 36.2159 24.234L 32.2111 24.234ZM 17.1067 46.4657C 13.208 46.4657 9.48023 44.23 6.64631 40.2153C 3.81609 36.2059 2.00237 30.562 2.00237 24.234L -2.00238 24.234C -2.00238 31.2901 0.0133737 37.7632 3.37458 42.5248C 6.73209 47.2812 11.5577 50.4704 17.1067 50.4704L 17.1067 46.4657ZM 2.00237 24.234C 2.00237 17.9061 3.81609 12.2621 6.64631 8.25273C 9.48023 4.2381 13.208 2.00237 17.1067 2.00237L 17.1067 -2.00238C 11.5577 -2.00238 6.73209 1.18687 3.37458 5.94323C 0.0133737 10.7048 -2.00238 17.1779 -2.00238 24.234L 2.00237 24.234ZM 17.1067 2.00237C 21.0055 2.00237 24.7333 4.2381 27.5672 8.25273C 30.3974 12.2621 32.2111 17.9061 32.2111 24.234L 36.2159 24.234C 36.2159 17.1779 34.2001 10.7048 30.8389 5.94323C 27.4814 1.18687 22.6558 -2.00238 17.1067 -2.00238L 17.1067 2.00237Z"/>
<path id="path20_stroke" d="M 7.6019 1.20142C 8.26542 0.316717 8.08612 -0.93837 7.20142 -1.6019C 6.31672 -2.26542 5.06163 -2.08613 4.3981 -1.20142L 7.6019 1.20142ZM -1.6019 6.79858C -2.26542 7.68328 -2.08612 8.93837 -1.20142 9.60189C -0.316719 10.2654 0.938368 10.0861 1.6019 9.20142L -1.6019 6.79858ZM 4.3981 -1.20142L -1.6019 6.79858L 1.6019 9.20142L 7.6019 1.20142L 4.3981 -1.20142Z"/>
<path id="path21_stroke" d="M 7.66607 1.11072C 8.27951 0.190571 8.03086 -1.05264 7.11072 -1.66607C 6.19057 -2.2795 4.94736 -2.03086 4.33393 -1.11071L 7.66607 1.11072ZM -1.66607 7.88929C -2.2795 8.80943 -2.03086 10.0526 -1.11071 10.6661C -0.190569 11.2795 1.05264 11.0309 1.66607 10.1107L -1.66607 7.88929ZM 4.33393 -1.11071L -1.66607 7.88929L 1.66607 10.1107L 7.66607 1.11072L 4.33393 -1.11071Z"/>
<path id="path22_stroke" d="M 7.66608 1.11071C 8.27951 0.190568 8.03086 -1.05264 7.11072 -1.66607C 6.19057 -2.2795 4.94736 -2.03086 4.33393 -1.11071L 7.66608 1.11071ZM -1.66607 7.88929C -2.2795 8.80943 -2.03086 10.0526 -1.11071 10.6661C -0.190565 11.2795 1.05264 11.0309 1.66608 10.1107L -1.66607 7.88929ZM 4.33393 -1.11071L -1.66607 7.88929L 1.66608 10.1107L 7.66608 1.11071L 4.33393 -1.11071Z"/>
<path id="path23_stroke" d="M 7.6019 1.20142C 8.26543 0.316718 8.08613 -0.93837 7.20143 -1.6019C 6.31672 -2.26542 5.06164 -2.08613 4.39811 -1.20142L 7.6019 1.20142ZM -1.60189 6.79858C -2.26542 7.68328 -2.08612 8.93837 -1.20142 9.60189C -0.31672 10.2654 0.938368 10.0861 1.60189 9.20142L -1.60189 6.79858ZM 4.39811 -1.20142L -1.60189 6.79858L 1.60189 9.20142L 7.6019 1.20142L 4.39811 -1.20142Z"/>
<path id="path24_fill" d="M 12.9179 25.7704C 20.0522 25.7704 25.8358 20.0015 25.8358 12.8852C 25.8358 5.7689 20.0522 2.00625e-06 12.9179 2.00625e-06C 5.78353 2.00625e-06 0 5.7689 0 12.8852C 0 20.0015 5.78353 25.7704 12.9179 25.7704Z"/>
<path id="path25_stroke" d="M 23.8334 12.8852C 23.8334 18.8908 18.9511 23.768 12.9179 23.768L 12.9179 27.7727C 21.1533 27.7727 27.8381 21.1121 27.8381 12.8852L 23.8334 12.8852ZM 12.9179 23.768C 6.88462 23.768 2.00237 18.8908 2.00237 12.8852L -2.00237 12.8852C -2.00237 21.1121 4.68244 27.7727 12.9179 27.7727L 12.9179 23.768ZM 2.00237 12.8852C 2.00237 6.87955 6.88462 2.00237 12.9179 2.00237L 12.9179 -2.00237C 4.68244 -2.00237 -2.00237 4.65824 -2.00237 12.8852L 2.00237 12.8852ZM 12.9179 2.00237C 18.9511 2.00237 23.8334 6.87955 23.8334 12.8852L 27.8381 12.8852C 27.8381 4.65824 21.1533 -2.00237 12.9179 -2.00237L 12.9179 2.00237Z"/>
<path id="path26_stroke" d="M 2.89993 2.00237C 4.00581 2.00237 4.9023 1.10588 4.9023 0C 4.9023 -1.10588 4.00581 -2.00237 2.89993 -2.00237L 2.89993 2.00237ZM 4.02268e-06 -2.00237C -1.10587 -2.00237 -2.00236 -1.10588 -2.00236 0C -2.00236 1.10588 -1.10587 2.00237 4.02268e-06 2.00237L 4.02268e-06 -2.00237ZM 2.89993 -2.00237L 4.02268e-06 -2.00237L 4.02268e-06 2.00237L 2.89993 2.00237L 2.89993 -2.00237Z"/>
</defs>
</svg>
