<svg width="24" height="24" viewBox="0 0 24 24" version="1.1" xmlns="http://www.w3.org/2000/svg" xmlns:xlink="http://www.w3.org/1999/xlink">
<title>icon_telegram</title>
<desc>Created using Figma</desc>
<g id="Canvas" transform="translate(-631 -5560)">
<g id="icon_telegram">
<g id="Vector">
<use xlink:href="#path0_fill" transform="translate(634.122 5564.31)" fill="#333333"/>
</g>
</g>
</g>
<defs>
<path id="path0_fill" d="M 17.7871 0.314784L 17.7871 0.630158L 17.7871 0.724771C 16.7359 5.42385 15.7319 10.1229 14.7753 14.822C 14.6334 15.437 14.318 15.5631 13.7976 15.1847C 12.5519 14.2859 11.3062 13.3871 10.0762 12.4725C 9.55585 12.1098 9.33509 12.1098 8.84626 12.4725L 6.92247 14.0493C 6.41787 14.4436 6.11827 14.349 5.92905 13.7182C 5.45598 12.1413 4.98292 10.7064 4.50986 9.17681C 4.48688 9.07094 4.43488 8.97357 4.35968 8.89558C 4.28448 8.8176 4.18906 8.7621 4.0841 8.73528C 2.91721 8.30953 1.75032 7.88377 0.583437 7.42648C 0.378733 7.32286 0.183513 7.20151 1.92489e-06 7.0638L 1.92489e-06 6.73265C 0.130372 6.6058 0.279241 6.49946 0.441524 6.41728L 16.8725 0.10979C 17.2983 -0.0794345 17.5664 -0.0321281 17.7871 0.314784ZM 14.0657 3.38969L 13.908 3.15315C 13.785 3.18264 13.6639 3.2195 13.5453 3.26354L 5.80289 7.99415C 5.62285 8.08301 5.48167 8.23483 5.4061 8.42084C 5.33053 8.60684 5.32584 8.81411 5.3929 9.00335C 5.66097 9.94947 5.92905 10.8956 6.21288 11.826C 6.21288 11.9363 6.38633 12.0309 6.46518 12.1256C 6.55872 12.0239 6.63347 11.9064 6.68594 11.7786C 6.76478 11.3529 6.81209 10.9271 6.8594 10.5014C 6.88789 10.0653 7.086 9.65779 7.4113 9.36603L 13.6242 3.57891C 13.7648 3.50158 13.9127 3.43821 14.0657 3.38969Z"/>
</defs>
</svg>
