<svg width="67" height="67" viewBox="0 0 67 67" version="1.1" xmlns="http://www.w3.org/2000/svg" xmlns:xlink="http://www.w3.org/1999/xlink">
<title>icon_vendor</title>
<desc>Created using Figma</desc>
<g id="Canvas" transform="translate(499 -1029)">
<g id="icon_vendor">
<g id="Icon_manuf">
<g id="Vector">
<use xlink:href="#path0_fill" transform="translate(-497 1035.87)" fill="#FFFFFF"/>
<use xlink:href="#path1_stroke" transform="translate(-497 1035.87)" fill="#67679A"/>
</g>
<g id="Vector">
<use xlink:href="#path2_fill" transform="translate(-468.719 1051.01)" fill="#FFFFFF"/>
<use xlink:href="#path3_stroke" transform="translate(-468.719 1051.01)" fill="#67679A"/>
</g>
<g id="Vector">
<use xlink:href="#path4_fill" transform="translate(-451.86 1051.01)" fill="#FFFFFF"/>
<use xlink:href="#path5_stroke" transform="translate(-451.86 1051.01)" fill="#67679A"/>
</g>
<g id="Vector">
<use xlink:href="#path6_fill" transform="translate(-497 1087.25)" fill="#FFFFFF"/>
<use xlink:href="#path7_stroke" transform="translate(-497 1087.25)" fill="#67679A"/>
</g>
<g id="Vector">
<use xlink:href="#path8_fill" transform="translate(-468.719 1087.25)" fill="#FFFFFF"/>
<use xlink:href="#path9_stroke" transform="translate(-468.719 1087.25)" fill="#67679A"/>
</g>
<g id="Vector">
<use xlink:href="#path10_fill" transform="translate(-451.86 1087.25)" fill="#FFFFFF"/>
<use xlink:href="#path11_stroke" transform="translate(-451.86 1087.25)" fill="#67679A"/>
</g>
<g id="Vector">
<use xlink:href="#path12_fill" transform="translate(-463.643 1072.1)" fill="#FFFFFF"/>
<use xlink:href="#path13_stroke" transform="translate(-463.643 1072.1)" fill="#D0D3E6"/>
</g>
<g id="Vector">
<use xlink:href="#path14_fill" transform="translate(-446.602 1072.1)" fill="#FFFFFF"/>
<use xlink:href="#path15_stroke" transform="translate(-446.602 1072.1)" fill="#D0D3E6"/>
</g>
<g id="Group">
<g id="Vector">
<use xlink:href="#path16_fill" transform="translate(-490.474 1044.52)" fill="#FFFFFF"/>
<use xlink:href="#path17_stroke" transform="translate(-490.474 1044.52)" fill="#D0D3E6"/>
</g>
<g id="Vector">
<use xlink:href="#path18_stroke" transform="translate(-482.86 1044.52)" fill="#D0D3E6"/>
</g>
<g id="Vector">
<use xlink:href="#path19_stroke" transform="translate(-490.474 1052.09)" fill="#D0D3E6"/>
</g>
</g>
<g id="Vector">
<use xlink:href="#path20_fill" transform="translate(-468.719 1044.7)" fill="#D0D3E6"/>
<use xlink:href="#path21_stroke" transform="translate(-468.719 1044.7)" fill="#67679A"/>
</g>
<g id="Vector">
<use xlink:href="#path22_fill" transform="translate(-451.86 1044.7)" fill="#D0D3E6"/>
<use xlink:href="#path23_stroke" transform="translate(-451.86 1044.7)" fill="#67679A"/>
</g>
<g id="Vector">
<use xlink:href="#path24_fill" transform="translate(-497 1031)" fill="#D0D3E6"/>
<use xlink:href="#path25_stroke" transform="translate(-497 1031)" fill="#67679A"/>
</g>
</g>
</g>
</g>
<defs>
<path id="path0_fill" d="M 28.2807 -5.50176e-06L 0 -5.50176e-06L 0 58.9521L 28.2807 58.9521L 28.2807 -5.50176e-06Z"/>
<path id="path1_stroke" d="M 0 -5.50176e-06L 0 -0.897428C -0.495633 -0.897428 -0.897422 -0.495638 -0.897422 -5.50176e-06L 0 -5.50176e-06ZM 28.2807 -5.50176e-06L 29.1781 -5.50176e-06C 29.1781 -0.495638 28.7763 -0.897428 28.2807 -0.897428L 28.2807 -5.50176e-06ZM 28.2807 58.9521L 28.2807 59.8495C 28.7763 59.8495 29.1781 59.4477 29.1781 58.9521L 28.2807 58.9521ZM 0 58.9521L -0.897422 58.9521C -0.897422 59.4477 -0.495633 59.8495 1.99268e-16 59.8495L 0 58.9521ZM 0 0.897417L 28.2807 0.897417L 28.2807 -0.897428L 0 -0.897428L 0 0.897417ZM 27.3833 -5.50176e-06L 27.3833 58.9521L 29.1781 58.9521L 29.1781 -5.50176e-06L 27.3833 -5.50176e-06ZM 28.2807 58.0547L 0 58.0547L 0 59.8495L 28.2807 59.8495L 28.2807 58.0547ZM 0.897422 58.9521L 0.897422 -5.50176e-06L -0.897422 -5.50176e-06L -0.897422 58.9521L 0.897422 58.9521Z"/>
<path id="path2_fill" d="M 16.8596 43.9887L 0 43.9887L 0 14.9634L 16.8596 -2.75088e-06L 16.8596 43.9887Z"/>
<path id="path3_stroke" d="M 16.8596 43.9887L 16.8596 44.8862C 17.3553 44.8862 17.7571 44.4844 17.7571 43.9887L 16.8596 43.9887ZM 0 43.9887L -0.897422 43.9887C -0.897422 44.4844 -0.495633 44.8862 1.99268e-16 44.8862L 0 43.9887ZM 0 14.9634L -0.595704 14.2922C -0.787601 14.4625 -0.897422 14.7068 -0.897422 14.9634L 0 14.9634ZM 16.8596 -2.75088e-06L 17.7571 -2.75088e-06C 17.7571 -0.353277 17.5498 -0.673684 17.2276 -0.818527C 16.9054 -0.963371 16.5282 -0.9057 16.2639 -0.671198L 16.8596 -2.75088e-06ZM 16.8596 43.0913L 0 43.0913L 0 44.8862L 16.8596 44.8862L 16.8596 43.0913ZM 0.897422 43.9887L 0.897422 14.9634L -0.897422 14.9634L -0.897422 43.9887L 0.897422 43.9887ZM 0.595704 15.6346L 17.4554 0.671193L 16.2639 -0.671198L -0.595704 14.2922L 0.595704 15.6346ZM 15.9622 -2.75088e-06L 15.9622 43.9887L 17.7571 43.9887L 17.7571 -2.75088e-06L 15.9622 -2.75088e-06Z"/>
<path id="path4_fill" d="M 16.8596 43.9887L -1.38311e-06 43.9887L -1.38311e-06 14.9634L 16.8596 -2.75088e-06L 16.8596 43.9887Z"/>
<path id="path5_stroke" d="M 16.8596 43.9887L 16.8596 44.8862C 17.3553 44.8862 17.7571 44.4844 17.7571 43.9887L 16.8596 43.9887ZM -1.38311e-06 43.9887L -0.897424 43.9887C -0.897424 44.4844 -0.495634 44.8862 -1.38311e-06 44.8862L -1.38311e-06 43.9887ZM -1.38311e-06 14.9634L -0.595705 14.2922C -0.787602 14.4625 -0.897424 14.7068 -0.897424 14.9634L -1.38311e-06 14.9634ZM 16.8596 -2.75088e-06L 17.7571 -2.75088e-06C 17.7571 -0.353277 17.5498 -0.673684 17.2276 -0.818527C 16.9054 -0.963371 16.5282 -0.9057 16.2639 -0.671198L 16.8596 -2.75088e-06ZM 16.8596 43.0913L -1.38311e-06 43.0913L -1.38311e-06 44.8862L 16.8596 44.8862L 16.8596 43.0913ZM 0.897421 43.9887L 0.897421 14.9634L -0.897424 14.9634L -0.897424 43.9887L 0.897421 43.9887ZM 0.595703 15.6346L 17.4554 0.671193L 16.2639 -0.671198L -0.595705 14.2922L 0.595703 15.6346ZM 15.9622 -2.75088e-06L 15.9622 43.9887L 17.7571 43.9887L 17.7571 -2.75088e-06L 15.9622 -2.75088e-06Z"/>
<path id="path6_fill" d="M 28.2807 -5.50176e-06L 0 -5.50176e-06L 0 7.57182L 28.2807 7.57182L 28.2807 -5.50176e-06Z"/>
<path id="path7_stroke" d="M 0 -5.50176e-06L 0 -0.897428C -0.495633 -0.897428 -0.897422 -0.495638 -0.897422 -5.50176e-06L 0 -5.50176e-06ZM 28.2807 -5.50176e-06L 29.1781 -5.50176e-06C 29.1781 -0.495638 28.7763 -0.897428 28.2807 -0.897428L 28.2807 -5.50176e-06ZM 28.2807 7.57182L 28.2807 8.46924C 28.7763 8.46924 29.1781 8.06745 29.1781 7.57182L 28.2807 7.57182ZM 0 7.57182L -0.897422 7.57182C -0.897422 8.06745 -0.495633 8.46924 1.99268e-16 8.46924L 0 7.57182ZM 0 0.897417L 28.2807 0.897417L 28.2807 -0.897428L 0 -0.897428L 0 0.897417ZM 27.3833 -5.50176e-06L 27.3833 7.57182L 29.1781 7.57182L 29.1781 -5.50176e-06L 27.3833 -5.50176e-06ZM 28.2807 6.6744L 0 6.6744L 0 8.46924L 28.2807 8.46924L 28.2807 6.6744ZM 0.897422 7.57182L 0.897422 -5.50176e-06L -0.897422 -5.50176e-06L -0.897422 7.57182L 0.897422 7.57182Z"/>
<path id="path8_fill" d="M 16.8596 -5.50176e-06L 0 -5.50176e-06L 0 7.57182L 16.8596 7.57182L 16.8596 -5.50176e-06Z"/>
<path id="path9_stroke" d="M 0 -5.50176e-06L 0 -0.897428C -0.495633 -0.897428 -0.897422 -0.495638 -0.897422 -5.50176e-06L 0 -5.50176e-06ZM 16.8596 -5.50176e-06L 17.7571 -5.50176e-06C 17.7571 -0.495638 17.3553 -0.897428 16.8596 -0.897428L 16.8596 -5.50176e-06ZM 16.8596 7.57182L 16.8596 8.46924C 17.3553 8.46924 17.7571 8.06745 17.7571 7.57182L 16.8596 7.57182ZM 0 7.57182L -0.897422 7.57182C -0.897422 8.06745 -0.495633 8.46924 1.99268e-16 8.46924L 0 7.57182ZM 0 0.897417L 16.8596 0.897417L 16.8596 -0.897428L 0 -0.897428L 0 0.897417ZM 15.9622 -5.50176e-06L 15.9622 7.57182L 17.7571 7.57182L 17.7571 -5.50176e-06L 15.9622 -5.50176e-06ZM 16.8596 6.6744L 0 6.6744L 0 8.46924L 16.8596 8.46924L 16.8596 6.6744ZM 0.897422 7.57182L 0.897422 -5.50176e-06L -0.897422 -5.50176e-06L -0.897422 7.57182L 0.897422 7.57182Z"/>
<path id="path10_fill" d="M 16.8596 -5.50176e-06L 0 -5.50176e-06L 0 7.57182L 16.8596 7.57182L 16.8596 -5.50176e-06Z"/>
<path id="path11_stroke" d="M 0 -5.50176e-06L 0 -0.897428C -0.495633 -0.897428 -0.897422 -0.495638 -0.897422 -5.50176e-06L 0 -5.50176e-06ZM 16.8596 -5.50176e-06L 17.7571 -5.50176e-06C 17.7571 -0.495638 17.3553 -0.897428 16.8596 -0.897428L 16.8596 -5.50176e-06ZM 16.8596 7.57182L 16.8596 8.46924C 17.3553 8.46924 17.7571 8.06745 17.7571 7.57182L 16.8596 7.57182ZM 0 7.57182L -0.897422 7.57182C -0.897422 8.06745 -0.495633 8.46924 1.99268e-16 8.46924L 0 7.57182ZM 0 0.897417L 16.8596 0.897417L 16.8596 -0.897428L 0 -0.897428L 0 0.897417ZM 15.9622 -5.50176e-06L 15.9622 7.57182L 17.7571 7.57182L 17.7571 -5.50176e-06L 15.9622 -5.50176e-06ZM 16.8596 6.6744L 0 6.6744L 0 8.46924L 16.8596 8.46924L 16.8596 6.6744ZM 0.897422 7.57182L 0.897422 -5.50176e-06L -0.897422 -5.50176e-06L -0.897422 7.57182L 0.897422 7.57182Z"/>
<path id="path12_fill" d="M 6.52632 5.50176e-06L 0 5.50176e-06L 0 5.58872L 6.52632 5.58872L 6.52632 5.50176e-06Z"/>
<path id="path13_stroke" d="M 0 5.50176e-06L 0 -0.626036C -0.345753 -0.626036 -0.626042 -0.345748 -0.626042 5.50176e-06L 0 5.50176e-06ZM 6.52632 5.50176e-06L 7.15236 5.50176e-06C 7.15236 -0.345748 6.87207 -0.626036 6.52632 -0.626036L 6.52632 5.50176e-06ZM 6.52632 5.58872L 6.52632 6.21476C 6.87207 6.21476 7.15236 5.93447 7.15236 5.58872L 6.52632 5.58872ZM 0 5.58872L -0.626042 5.58872C -0.626042 5.93447 -0.345753 6.21476 1.39009e-16 6.21476L 0 5.58872ZM 0 0.626047L 6.52632 0.626047L 6.52632 -0.626036L 0 -0.626036L 0 0.626047ZM 5.90028 5.50176e-06L 5.90028 5.58872L 7.15236 5.58872L 7.15236 5.50176e-06L 5.90028 5.50176e-06ZM 6.52632 4.96268L 0 4.96268L 0 6.21476L 6.52632 6.21476L 6.52632 4.96268ZM 0.626042 5.58872L 0.626042 5.50176e-06L -0.626042 5.50176e-06L -0.626042 5.58872L 0.626042 5.58872Z"/>
<path id="path14_fill" d="M 6.52631 5.50176e-06L 0 5.50176e-06L 0 5.58872L 6.52631 5.58872L 6.52631 5.50176e-06Z"/>
<path id="path15_stroke" d="M 0 5.50176e-06L 0 -0.626036C -0.345753 -0.626036 -0.626042 -0.345748 -0.626042 5.50176e-06L 0 5.50176e-06ZM 6.52631 5.50176e-06L 7.15236 5.50176e-06C 7.15236 -0.345748 6.87207 -0.626036 6.52631 -0.626036L 6.52631 5.50176e-06ZM 6.52631 5.58872L 6.52631 6.21476C 6.87207 6.21476 7.15236 5.93447 7.15236 5.58872L 6.52631 5.58872ZM 0 5.58872L -0.626042 5.58872C -0.626042 5.93447 -0.345753 6.21476 1.39009e-16 6.21476L 0 5.58872ZM 0 0.626047L 6.52631 0.626047L 6.52631 -0.626036L 0 -0.626036L 0 0.626047ZM 5.90027 5.50176e-06L 5.90027 5.58872L 7.15236 5.58872L 7.15236 5.50176e-06L 5.90027 5.50176e-06ZM 6.52631 4.96268L 0 4.96268L 0 6.21476L 6.52631 6.21476L 6.52631 4.96268ZM 0.626042 5.58872L 0.626042 5.50176e-06L -0.626042 5.50176e-06L -0.626042 5.58872L 0.626042 5.58872Z"/>
<path id="path16_fill" d="M 7.61404 15.1437C 11.8192 15.1437 15.2281 11.7536 15.2281 7.57183C 15.2281 3.39002 11.8192 0 7.61404 0C 3.40892 0 0 3.39002 0 7.57183C 0 11.7536 3.40892 15.1437 7.61404 15.1437Z"/>
<path id="path17_stroke" d="M 14.602 7.57183C 14.602 11.4046 11.4767 14.5176 7.61404 14.5176L 7.61404 15.7697C 12.1616 15.7697 15.8541 12.1027 15.8541 7.57183L 14.602 7.57183ZM 7.61404 14.5176C 3.75139 14.5176 0.626042 11.4046 0.626042 7.57183L -0.626042 7.57183C -0.626042 12.1027 3.06645 15.7697 7.61404 15.7697L 7.61404 14.5176ZM 0.626042 7.57183C 0.626042 3.73905 3.75139 0.626042 7.61404 0.626042L 7.61404 -0.626042C 3.06645 -0.626042 -0.626042 3.04099 -0.626042 7.57183L 0.626042 7.57183ZM 7.61404 0.626042C 11.4767 0.626042 14.602 3.73905 14.602 7.57183L 15.8541 7.57183C 15.8541 3.04099 12.1616 -0.626042 7.61404 -0.626042L 7.61404 0.626042Z"/>
<path id="path18_stroke" d="M 0.626042 0C 0.626042 -0.345753 0.345753 -0.626042 0 -0.626042C -0.345753 -0.626042 -0.626042 -0.345753 -0.626042 0L 0.626042 0ZM -0.626042 7.57183C -0.626042 7.91758 -0.345753 8.19787 0 8.19787C 0.345753 8.19787 0.626042 7.91758 0.626042 7.57183L -0.626042 7.57183ZM -0.626042 0L -0.626042 7.57183L 0.626042 7.57183L 0.626042 0L -0.626042 0Z"/>
<path id="path19_stroke" d="M 0 -0.626045C -0.345753 -0.626045 -0.626042 -0.345756 -0.626042 -3.05176e-06C -0.626042 0.34575 -0.345753 0.626039 0 0.626039L 0 -0.626045ZM 15.2281 0.626039C 15.5738 0.626039 15.8541 0.34575 15.8541 -3.05176e-06C 15.8541 -0.345756 15.5738 -0.626045 15.2281 -0.626045L 15.2281 0.626039ZM 0 0.626039L 15.2281 0.626039L 15.2281 -0.626045L 0 -0.626045L 0 0.626039Z"/>
<path id="path20_fill" d="M 0 14.9634L 16.8596 -2.75088e-06L 16.8596 6.30986L 0 21.2732L 0 14.9634Z"/>
<path id="path21_stroke" d="M 0 14.9634L -0.595704 14.2922C -0.787601 14.4625 -0.897422 14.7068 -0.897422 14.9634L 0 14.9634ZM 16.8596 -2.75088e-06L 17.7571 -2.75088e-06C 17.7571 -0.353277 17.5498 -0.673684 17.2276 -0.818527C 16.9054 -0.963371 16.5282 -0.9057 16.2639 -0.671198L 16.8596 -2.75088e-06ZM 16.8596 6.30986L 17.4554 6.98105C 17.6472 6.81074 17.7571 6.56643 17.7571 6.30986L 16.8596 6.30986ZM 0 21.2732L -0.897422 21.2732C -0.897422 21.6265 -0.690162 21.9469 -0.367946 22.0918C -0.0457307 22.2366 0.331485 22.1789 0.595704 21.9444L 0 21.2732ZM 0.595704 15.6346L 17.4554 0.671193L 16.2639 -0.671198L -0.595704 14.2922L 0.595704 15.6346ZM 15.9622 -2.75088e-06L 15.9622 6.30986L 17.7571 6.30986L 17.7571 -2.75088e-06L 15.9622 -2.75088e-06ZM 16.2639 5.63866L -0.595704 20.602L 0.595704 21.9444L 17.4554 6.98105L 16.2639 5.63866ZM 0.897422 21.2732L 0.897422 14.9634L -0.897422 14.9634L -0.897422 21.2732L 0.897422 21.2732Z"/>
<path id="path22_fill" d="M -1.38311e-06 14.9634L 16.8596 -2.75088e-06L 16.8596 6.30986L -1.38311e-06 21.2732L -1.38311e-06 14.9634Z"/>
<path id="path23_stroke" d="M -1.38311e-06 14.9634L -0.595705 14.2922C -0.787602 14.4625 -0.897424 14.7068 -0.897424 14.9634L -1.38311e-06 14.9634ZM 16.8596 -2.75088e-06L 17.7571 -2.75088e-06C 17.7571 -0.353277 17.5498 -0.673684 17.2276 -0.818527C 16.9054 -0.963371 16.5282 -0.9057 16.2639 -0.671198L 16.8596 -2.75088e-06ZM 16.8596 6.30986L 17.4554 6.98105C 17.6472 6.81074 17.7571 6.56643 17.7571 6.30986L 16.8596 6.30986ZM -1.38311e-06 21.2732L -0.897424 21.2732C -0.897424 21.6265 -0.690163 21.9469 -0.367948 22.0918C -0.045732 22.2366 0.331484 22.1789 0.595703 21.9444L -1.38311e-06 21.2732ZM 0.595703 15.6346L 17.4554 0.671193L 16.2639 -0.671198L -0.595705 14.2922L 0.595703 15.6346ZM 15.9622 -2.75088e-06L 15.9622 6.30986L 17.7571 6.30986L 17.7571 -2.75088e-06L 15.9622 -2.75088e-06ZM 16.2639 5.63866L -0.595705 20.602L 0.595703 21.9444L 17.4554 6.98105L 16.2639 5.63866ZM 0.897421 21.2732L 0.897421 14.9634L -0.897424 14.9634L -0.897424 21.2732L 0.897421 21.2732Z"/>
<path id="path24_fill" d="M 28.2807 0L 0 0L 0 4.8676L 28.2807 4.8676L 28.2807 0Z"/>
<path id="path25_stroke" d="M 0 0L 0 -0.897422C -0.495633 -0.897422 -0.897422 -0.495633 -0.897422 1.99268e-16L 0 0ZM 28.2807 0L 29.1781 0C 29.1781 -0.495633 28.7763 -0.897422 28.2807 -0.897422L 28.2807 0ZM 28.2807 4.8676L 28.2807 5.76502C 28.7763 5.76502 29.1781 5.36323 29.1781 4.8676L 28.2807 4.8676ZM 0 4.8676L -0.897422 4.8676C -0.897422 5.36323 -0.495633 5.76502 1.99268e-16 5.76502L 0 4.8676ZM 0 0.897422L 28.2807 0.897422L 28.2807 -0.897422L 0 -0.897422L 0 0.897422ZM 27.3833 0L 27.3833 4.8676L 29.1781 4.8676L 29.1781 0L 27.3833 0ZM 28.2807 3.97018L 0 3.97018L 0 5.76502L 28.2807 5.76502L 28.2807 3.97018ZM 0.897422 4.8676L 0.897422 0L -0.897422 0L -0.897422 4.8676L 0.897422 4.8676Z"/>
</defs>
</svg>
