<svg width="150" height="27" viewBox="0 0 150 27" version="1.1" xmlns="http://www.w3.org/2000/svg" xmlns:xlink="http://www.w3.org/1999/xlink">
<title>Logo_moeco</title>
<desc>Created using Figma</desc>
<g id="Canvas" transform="translate(525 984)">
<g id="Logo_moeco">
<g id="Group 3">
<g id="Group">
<g id="Vector">
<use xlink:href="#path0_fill" transform="translate(-518.787 -966.406)" fill="#FFFFFF"/>
</g>
<g id="Vector">
<use xlink:href="#path1_fill" transform="translate(-509.911 -982.781)" fill="#FFFFFF"/>
</g>
<g id="Vector">
<use xlink:href="#path2_fill" transform="translate(-520.03 -982.868)" fill="#FFFFFF"/>
</g>
<g id="Vector">
<use xlink:href="#path3_fill" transform="translate(-509.911 -979.471)" fill="#FFFFFF"/>
</g>
<g id="Vector">
<use xlink:href="#path4_fill" transform="translate(-501.568 -974.594)" fill="#FFFFFF"/>
</g>
<g id="Vector">
<use xlink:href="#path5_fill" transform="translate(-525 -974.855)" fill="#FFFFFF"/>
</g>
<g id="Vector">
<use xlink:href="#path6_fill" transform="translate(-523.402 -979.558)" fill="#FFFFFF"/>
</g>
<g id="Vector">
<use xlink:href="#path7_fill" transform="translate(-509.29 -966.145)" fill="#FFFFFF"/>
</g>
<g id="Vector">
<use xlink:href="#path8_fill" transform="translate(-514.97 -984)" fill="#FFFFFF"/>
</g>
</g>
</g>
<g id="Group 2">
<g id="Vector">
<use xlink:href="#path9_fill" transform="translate(-458.077 -978.6)" fill="#FFFFFF"/>
</g>
<g id="Vector">
<use xlink:href="#path10_fill" transform="translate(-432.604 -978.513)" fill="#FFFFFF"/>
</g>
<g id="Vector">
<use xlink:href="#path11_fill" transform="translate(-487.012 -978.861)" fill="#FFFFFF"/>
</g>
<g id="Vector">
<use xlink:href="#path12_fill" transform="translate(-416.893 -978.687)" fill="#FFFFFF"/>
</g>
<g id="Vector">
<use xlink:href="#path13_fill" transform="translate(-394.172 -978.6)" fill="#FFFFFF"/>
</g>
</g>
</g>
</g>
<defs>
<path id="path0_fill" d="M 0 7.22903C 1.77515 8.36129 3.72781 9.05806 5.68047 9.31936L 6.0355 9.40645L 0 6.64496e-07L 0 7.22903Z"/>
<path id="path1_fill" d="M 2.21893 10.2774L 7.81065 2.00323L 7.72189 1.91613C 6.83432 1.13226 5.76923 0.522581 4.70414 0.0870968L 4.61538 -2.07655e-08L 0 6.88064L 2.21893 10.2774Z"/>
<path id="path2_fill" d="M 11.2722 11.9323L 3.28402 -4.1531e-08L 3.10651 0.0870968C 2.04142 0.609677 1.06509 1.21935 0.0887572 1.91613L -8.46456e-08 2.00323L 9.05325 15.2419L 11.2722 11.9323Z"/>
<path id="path3_fill" d="M 0 13.5L 2.21893 16.7226L 11.1834 2.87419L 11.1834 2.7871C 10.6509 1.82903 10.0296 0.958065 9.31952 0.174194L 9.14201 -1.66124e-07L 0 13.4129L 0 13.5Z"/>
<path id="path4_fill" d="M 3.81657 0.348387L 3.72781 1.66124e-07L -3.38583e-07 5.74839L -3.38583e-07 14.371L 0.266273 14.1097C 2.929 11.5839 4.34911 8.1871 4.34911 4.18065C 4.34911 2.87419 4.1716 1.56774 3.81657 0.348387Z"/>
<path id="path5_fill" d="M 0.621302 0.348387C 0.177515 1.65484 0 3.04839 0 4.35484C 0 8.0129 1.42012 11.4097 4.08284 13.9355L 4.34911 14.1968L 4.34911 5.66129L 0.710059 0L 0.621302 0.348387Z"/>
<path id="path6_fill" d="M 2.04142 -8.3062e-08L 1.86391 0.0870966C 1.15385 0.870968 0.532544 1.74194 -4.23228e-08 2.7L -4.23228e-08 2.7871L 12.3373 21.8613L 14.5562 18.4645L 2.04142 -8.3062e-08Z"/>
<path id="path7_fill" d="M 0.35503 9.05806C 2.30769 8.79677 4.1716 8.1871 5.85799 7.22903L 5.94674 7.14194L 5.94674 3.0943e-15L 6.77165e-07 9.14516L 0.35503 9.05806Z"/>
<path id="path8_fill" d="M 7.89941 0.609677L 7.72189 0.522581C 5.23669 -0.174194 2.66272 -0.174194 0.177515 0.522581L 1.69291e-07 0.609677L 3.99408 6.61935L 7.89941 0.609677Z"/>
<path id="path9_fill" d="M 9.85207 18.6387C 7.18935 18.6387 4.88166 17.7677 3.01775 16.0258C 1.15385 14.2839 1.35433e-06 12.0194 1.35433e-06 9.31935C 1.35433e-06 6.61935 1.15385 4.35484 3.01775 2.6129C 4.88166 0.870967 7.10059 -1.66124e-07 9.85207 -1.66124e-07C 12.5148 -1.66124e-07 14.8225 0.870967 16.6864 2.6129C 18.5503 4.35484 19.4379 6.61935 19.4379 9.31935C 19.4379 12.0194 18.5503 14.2839 16.6864 16.0258C 14.8225 17.7677 12.5148 18.6387 9.85207 18.6387ZM 13.9349 13.5871C 15 12.5419 15.5325 11.0613 15.5325 9.23226C 15.5325 7.40322 15 6.00968 13.9349 4.87742C 12.8698 3.83226 11.5385 3.22258 9.85207 3.22258C 8.16568 3.22258 6.74556 3.74516 5.68048 4.87742C 4.61539 6.00968 4.08284 7.40322 4.08284 9.23226C 4.08284 11.0613 4.61539 12.4548 5.68048 13.5871C 6.74556 14.7194 8.16568 15.2419 9.85207 15.2419C 11.5385 15.2419 12.8698 14.7194 13.9349 13.5871Z"/>
<path id="path10_fill" d="M 12.6035 0.0870969L 10.8284 2.87419L 3.81657 2.87419L 3.81657 7.66452L 10.0296 7.66452L 10.0296 10.4516L 3.81657 10.4516L 3.81657 15.5032L 10.8284 15.5032L 10.8284 18.2903L -1.35433e-06 18.2903L -1.35433e-06 1.66124e-07L 12.6035 1.66124e-07L 12.6035 0.0870969Z"/>
<path id="path11_fill" d="M 21.1243 8.3062e-08L 12.6923 12.2806L 4.1716 8.3062e-08L -6.77165e-07 8.3062e-08L 2.39645 3.39677L 2.39645 18.5516L 6.0355 18.5516L 6.0355 8.53548L 12.6923 17.8548L 19.3491 8.53548L 19.3491 18.5516L 22.9882 18.5516L 22.9882 3.39677L 25.3846 8.3062e-08L 21.1243 8.3062e-08Z"/>
<path id="path12_fill" d="M 2.75148 16.0258C 0.887575 14.2839 2.70866e-06 12.0194 2.70866e-06 9.31935C 2.70866e-06 6.61935 0.887575 4.35484 2.75148 2.6129C 4.61539 0.870968 6.83432 -8.3062e-08 9.5858 -8.3062e-08C 11.6272 -8.3062e-08 13.4024 0.522581 15 1.48065C 16.5976 2.52581 17.7515 3.91935 18.3728 5.74839L 13.8461 5.74839C 13.0473 4.18064 11.5385 3.30968 9.5858 3.30968C 7.89941 3.30968 6.47929 3.83226 5.4142 4.96452C 4.34911 6.09677 3.81657 7.49032 3.81657 9.31935C 3.81657 11.1484 4.34911 12.5419 5.4142 13.6742C 6.47929 14.8064 7.89941 15.329 9.5858 15.329C 11.6272 15.329 13.0473 14.5452 13.8461 12.8903L 18.3728 12.8903C 17.6627 14.7194 16.5976 16.1129 15 17.1581C 13.4024 18.2032 11.6272 18.6387 9.5858 18.6387C 6.83432 18.6387 4.61539 17.7677 2.75148 16.0258Z"/>
<path id="path13_fill" d="M 9.5858 18.6387C 6.92307 18.6387 4.61538 17.7677 2.75148 16.0258C 0.887574 14.2839 -5.41732e-06 12.0194 -5.41732e-06 9.31935C -5.41732e-06 6.61935 0.887574 4.35484 2.75148 2.6129C 4.61538 0.870967 6.83432 -1.66124e-07 9.5858 -1.66124e-07C 12.2485 -1.66124e-07 14.5562 0.870967 16.4201 2.6129C 18.284 4.35484 19.1716 6.61935 19.1716 9.31935C 19.1716 12.0194 18.284 14.2839 16.4201 16.0258C 14.5562 17.7677 12.3373 18.6387 9.5858 18.6387ZM 13.7574 13.5871C 14.8225 12.5419 15.355 11.0613 15.355 9.23226C 15.355 7.40322 14.8225 6.00968 13.7574 4.87742C 12.6923 3.83226 11.361 3.22258 9.67456 3.22258C 7.98817 3.22258 6.56805 3.74516 5.50296 4.87742C 4.43788 6.00968 3.90533 7.40322 3.90533 9.23226C 3.90533 11.0613 4.43788 12.4548 5.50296 13.5871C 6.56805 14.7194 7.98817 15.2419 9.67456 15.2419C 11.2722 15.2419 12.6923 14.7194 13.7574 13.5871Z"/>
</defs>
</svg>
