<svg width="180" height="169" viewBox="0 0 180 169" version="1.1" xmlns="http://www.w3.org/2000/svg" xmlns:xlink="http://www.w3.org/1999/xlink">
<title>Pic_gps</title>
<desc>Created using Figma</desc>
<g id="Canvas" transform="translate(13 -1332)">
<g id="Pic_gps">
<g id="Vector">
<use xlink:href="#path0_fill" transform="translate(43 1343.52)" fill="#D0D3E6"/>
</g>
<g id="Group">
<g id="Vector">
<use xlink:href="#path1_fill" transform="translate(48.0518 1388.36)" fill="#9999CC"/>
<use xlink:href="#path2_stroke" transform="translate(48.0518 1388.36)" fill="#67679A"/>
</g>
<g id="Vector">
<use xlink:href="#path3_fill" transform="translate(48.0518 1388.36)" fill="#FFFFFF"/>
<use xlink:href="#path4_stroke" transform="translate(48.0518 1388.36)" fill="#67679A"/>
</g>
<g id="Group">
<g id="Vector">
<use xlink:href="#path5_stroke" transform="translate(90.3186 1342)" fill="#67679A"/>
</g>
</g>
<g id="Group">
<g id="Vector">
<use xlink:href="#path6_fill" transform="translate(56.9767 1420.18)" fill="#D0D3E6"/>
</g>
<g id="Vector">
<use xlink:href="#path7_fill" transform="translate(68.7642 1420.35)" fill="#D0D3E6"/>
</g>
<g id="Vector">
<use xlink:href="#path8_fill" transform="translate(79.0363 1420.35)" fill="#D0D3E6"/>
</g>
</g>
</g>
</g>
</g>
<defs>
<path id="path0_fill" d="M 54.8964 46.5335L 52.7073 46.5335L 45.6347 46.5335L 45.6347 1.69214C 45.6347 0.676861 44.9611 1.03279e-05 43.9508 1.03279e-05C 42.9404 1.03279e-05 42.2668 0.676861 42.2668 1.69214L 42.2668 46.5335L 8.41971 46.5335L 7.9145 46.5335C 3.53626 46.5335 2.05559e-05 50.0869 2.05559e-05 54.4864L 2.05559e-05 54.9941L 2.05559e-05 134.016L 2.05559e-05 134.524C 2.05559e-05 138.924 3.53626 142.477 7.9145 142.477L 8.41971 142.477L 52.7073 142.477L 54.8964 142.477C 59.6114 142.477 63.316 138.754 63.316 134.016L 63.316 54.9941C 63.316 50.4254 59.6114 46.5335 54.8964 46.5335Z"/>
<path id="path1_fill" d="M 53.2124 92.5593L 6.73577 92.5593C 3.03111 92.5593 2.05559e-05 89.5135 2.05559e-05 85.7908L 2.05559e-05 6.76851C 2.05559e-05 3.04584 3.03111 1.03279e-05 6.73577 1.03279e-05L 53.2124 1.03279e-05C 56.9171 1.03279e-05 59.9482 3.04584 59.9482 6.76851L 59.9482 85.7908C 59.9482 89.5135 56.9171 92.5593 53.2124 92.5593Z"/>
<path id="path2_stroke" d="M 53.2124 90.7644L 6.73577 90.7644L 6.73577 94.3541L 53.2124 94.3541L 53.2124 90.7644ZM 6.73577 90.7644C 4.03057 90.7644 1.79487 88.5304 1.79487 85.7908L -1.79482 85.7908C -1.79482 90.4965 2.03165 94.3541 6.73577 94.3541L 6.73577 90.7644ZM 1.79487 85.7908L 1.79487 6.76851L -1.79482 6.76851L -1.79482 85.7908L 1.79487 85.7908ZM 1.79487 6.76851C 1.79487 4.02888 4.03057 1.79485 6.73577 1.79485L 6.73577 -1.79483C 2.03165 -1.79483 -1.79482 2.06279 -1.79482 6.76851L 1.79487 6.76851ZM 6.73577 1.79485L 53.2124 1.79485L 53.2124 -1.79483L 6.73577 -1.79483L 6.73577 1.79485ZM 53.2124 1.79485C 55.9176 1.79485 58.1533 4.02888 58.1533 6.76851L 61.743 6.76851C 61.743 2.06279 57.9165 -1.79483 53.2124 -1.79483L 53.2124 1.79485ZM 58.1533 6.76851L 58.1533 85.7908L 61.743 85.7908L 61.743 6.76851L 58.1533 6.76851ZM 58.1533 85.7908C 58.1533 88.5304 55.9176 90.7644 53.2124 90.7644L 53.2124 94.3541C 57.9165 94.3541 61.743 90.4965 61.743 85.7908L 58.1533 85.7908Z"/>
<path id="path3_fill" d="M 51.0233 92.5593L 6.23056 92.5593C 2.86268 92.5593 2.05559e-05 89.6827 2.05559e-05 86.2984L 2.05559e-05 6.26085C 2.05559e-05 2.87659 2.86268 1.03279e-05 6.23056 1.03279e-05L 51.0233 1.03279e-05L 51.0233 92.5593Z"/>
<path id="path4_stroke" d="M 51.0233 92.5593L 51.0233 94.3541C 52.0146 94.3541 52.8182 93.5505 52.8182 92.5593L 51.0233 92.5593ZM 51.0233 1.03279e-05L 52.8182 1.03279e-05C 52.8182 -0.991255 52.0146 -1.79483 51.0233 -1.79483L 51.0233 1.03279e-05ZM 51.0233 90.7644L 6.23056 90.7644L 6.23056 94.3541L 51.0233 94.3541L 51.0233 90.7644ZM 6.23056 90.7644C 3.86215 90.7644 1.79487 88.6996 1.79487 86.2984L -1.79482 86.2984C -1.79482 90.6657 1.86322 94.3541 6.23056 94.3541L 6.23056 90.7644ZM 1.79487 86.2984L 1.79487 6.26085L -1.79482 6.26085L -1.79482 86.2984L 1.79487 86.2984ZM 1.79487 6.26085C 1.79487 3.85964 3.86215 1.79485 6.23056 1.79485L 6.23056 -1.79483C 1.86322 -1.79483 -1.79482 1.89355 -1.79482 6.26085L 1.79487 6.26085ZM 6.23056 1.79485L 51.0233 1.79485L 51.0233 -1.79483L 6.23056 -1.79483L 6.23056 1.79485ZM 49.2285 1.03279e-05L 49.2285 92.5593L 52.8182 92.5593L 52.8182 1.03279e-05L 49.2285 1.03279e-05Z"/>
<path id="path5_stroke" d="M -1.79486 46.3643C -1.79486 47.3555 -0.991278 48.1591 -1.2207e-05 48.1591C 0.991253 48.1591 1.79483 47.3555 1.79483 46.3643L -1.79486 46.3643ZM 1.79483 2.06558e-05C 1.79483 -0.991245 0.991253 -1.79482 -1.2207e-05 -1.79482C -0.991278 -1.79482 -1.79486 -0.991245 -1.79486 2.06558e-05L 1.79483 2.06558e-05ZM 1.79483 46.3643L 1.79483 2.06558e-05L -1.79486 2.06558e-05L -1.79486 46.3643L 1.79483 46.3643Z"/>
<path id="path6_fill" d="M 9.59847 6.26088L 9.59847 7.44533C 9.59847 11.3372 7.7461 13.0294 4.88341 13.0294C 2.02072 13.0294 0 11.3372 0 7.44533L 0 5.75321C 0 1.69211 2.02072 -1.03279e-05 4.88341 -1.03279e-05C 7.57771 -1.03279e-05 9.09329 1.52289 9.59847 4.06108L 7.07256 4.06108C 6.90417 2.87659 6.23056 2.19978 4.88341 2.19978C 3.36787 2.19978 2.52591 3.21506 2.52591 5.58404L 2.52591 7.44533C 2.52591 9.81431 3.36787 10.8296 4.88341 10.8296C 6.39895 10.8296 6.90417 9.98353 7.07256 8.46062L 5.05181 8.46062L 5.05181 6.26088L 9.59847 6.26088Z"/>
<path id="path7_fill" d="M 2.52591 8.12218L 2.52591 12.6909L 0 12.6909L 0 0L 4.54665 0C 7.40935 0 9.26166 1.35369 9.26166 4.06109C 9.26166 6.76849 7.40935 8.29141 4.54665 8.29141L 2.52591 8.29141L 2.52591 8.12218ZM 4.20985 5.92244C 6.06218 5.92244 6.73575 5.24557 6.73575 3.89187C 6.73575 2.70738 6.06218 2.03057 4.20985 2.03057L 2.52591 2.03057L 2.52591 5.92244L 4.20985 5.92244Z"/>
<path id="path8_fill" d="M 7.24092 3.21503C 6.73574 2.36897 6.06217 1.86135 4.71502 1.86135C 3.53626 1.86135 2.86267 2.36897 2.86267 3.21503C 2.86267 4.2303 3.70464 4.73795 5.38858 5.07638C 8.08288 5.75323 9.26167 6.76848 9.26167 8.96825C 9.26167 10.9988 7.91451 12.6909 4.88342 12.6909C 2.6943 12.6909 1.17877 12.0141 1.02779e-05 10.6604L 2.0207 9.30669C 2.69428 10.1528 3.53626 10.6604 4.71502 10.6604C 6.23056 10.6604 6.73576 9.98354 6.73576 9.30669C 6.73576 8.46063 6.23058 7.95298 4.20986 7.44534C 1.68395 6.76849 0.505171 5.58403 0.505171 3.55347C 0.505171 1.52292 1.85233 9.61862e-14 4.88342 9.61862e-14C 6.90415 9.61862e-14 8.4197 0.676871 9.26167 2.03057L 7.24092 3.21503Z"/>
</defs>
</svg>
