<svg width="231" height="231" viewBox="0 0 231 231" version="1.1" xmlns="http://www.w3.org/2000/svg" xmlns:xlink="http://www.w3.org/1999/xlink">
<title>pic_toke_2</title>
<desc>Created using Figma</desc>
<g id="Canvas" transform="translate(-275 -4458)">
<g id="pic_toke_2">
<g id="Vector">
<use xlink:href="#path0_fill" transform="translate(275 4465.72)" fill="#D0D3E6"/>
</g>
<g id="Group">
<g id="Vector">
<use xlink:href="#path1_fill" transform="translate(391.985 4639.28)" fill="#F0F0F9"/>
<use xlink:href="#path2_stroke" transform="translate(391.985 4639.28)" fill="#67679A"/>
</g>
<g id="Vector">
<use xlink:href="#path3_fill" transform="translate(419.702 4579.93)" fill="#DAD9EE"/>
<use xlink:href="#path4_stroke" transform="translate(419.702 4579.93)" fill="#67679A"/>
</g>
<g id="Vector">
<use xlink:href="#path5_fill" transform="translate(405.652 4462)" fill="#C2C1E2"/>
<use xlink:href="#path6_stroke" transform="translate(405.652 4462)" fill="#67679A"/>
</g>
<g id="Vector">
<use xlink:href="#path7_fill" transform="translate(279.97 4460)" fill="#9999CC"/>
<use xlink:href="#path8_stroke" transform="translate(279.97 4460)" fill="#67679A"/>
</g>
</g>
</g>
</g>
<defs>
<path id="path0_fill" d="M 132.946 2.00042C 126.16 0.762063 119.183 -1.8169e-07 112.015 -1.8169e-07C 97.0096 -1.8169e-07 82.6732 2.95299 69.5793 8.28744C 32.4958 23.4334 5.35225 57.8215 0.764608 98.973C 0.286728 103.164 0 107.356 0 111.642C 0 166.13 39.1861 211.568 91.0839 221.284C 97.8698 222.522 104.847 223.285 112.015 223.285C 127.02 223.285 141.357 220.332 154.451 214.997C 191.534 199.851 218.678 165.463 223.265 124.312C 223.743 120.12 224.03 115.929 224.03 111.642C 224.03 57.1547 184.748 11.7167 132.946 2.00042ZM 139.732 179.275C 131.13 182.8 121.764 184.705 111.919 184.705C 107.236 184.705 102.649 184.229 98.2521 183.371C 64.3226 176.989 38.6127 147.269 38.6127 111.547C 38.6127 108.785 38.8038 106.022 39.0906 103.26C 42.149 76.3016 59.9261 53.8207 84.2024 43.9139C 92.8043 40.3893 102.171 38.4842 112.015 38.4842C 116.698 38.4842 121.286 38.9605 125.682 39.8178C 159.612 46.2001 185.322 75.9206 185.322 111.642C 185.322 114.405 185.131 117.167 184.844 119.93C 181.785 146.888 164.008 169.369 139.732 179.275Z"/>
<path id="path1_fill" d="M 1.45837e-06 5.42971L 1.45837e-06 44.0092C 15.0054 44.0092 29.3418 41.0562 42.4357 35.7217L 27.8126 -5.81408e-06C 19.2108 3.52454 9.84433 5.42971 1.45837e-06 5.42971Z"/>
<path id="path2_stroke" d="M 1.45837e-06 5.42971L 1.45837e-06 4.28471C -0.632365 4.28471 -1.145 4.79734 -1.145 5.42971L 1.45837e-06 5.42971ZM 1.45837e-06 44.0092L -1.145 44.0092C -1.145 44.6415 -0.632365 45.1542 1.45837e-06 45.1542L 1.45837e-06 44.0092ZM 42.4357 35.7217L 42.8677 36.7821C 43.1493 36.6674 43.3736 36.4454 43.4914 36.1652C 43.6091 35.8849 43.6105 35.5693 43.4954 35.2879L 42.4357 35.7217ZM 27.8126 -5.81408e-06L 28.8723 -0.433787C 28.7572 -0.714883 28.5351 -0.938741 28.255 -1.05609C 27.9748 -1.17345 27.6595 -1.17468 27.3785 -1.05951L 27.8126 -5.81408e-06ZM -1.145 5.42971L -1.145 44.0092L 1.145 44.0092L 1.145 5.42971L -1.145 5.42971ZM 1.45837e-06 45.1542C 15.1567 45.1542 29.6396 42.1712 42.8677 36.7821L 42.0037 34.6613C 29.0441 39.9411 14.8542 42.8642 1.45837e-06 42.8642L 1.45837e-06 45.1542ZM 43.4954 35.2879L 28.8723 -0.433787L 26.753 0.433775L 41.3761 36.1555L 43.4954 35.2879ZM 27.3785 -1.05951C 18.9139 2.40878 9.6949 4.28471 1.45837e-06 4.28471L 1.45837e-06 6.57471C 9.99375 6.57471 19.5076 4.64029 28.2467 1.0595L 27.3785 -1.05951Z"/>
<path id="path3_fill" d="M 83.5334 4.38186L 45.1119 -1.45352e-06C 42.0534 26.958 24.2763 49.4388 -5.83349e-06 59.3457L 14.6231 95.0674C 51.8022 79.9214 78.8502 45.5333 83.5334 4.38186Z"/>
<path id="path4_stroke" d="M 83.5334 4.38186L 84.6711 4.51133C 84.7425 3.88313 84.2913 3.31588 83.6631 3.24424L 83.5334 4.38186ZM 45.1119 -1.45352e-06L 45.2416 -1.13763C 44.9398 -1.17205 44.6366 -1.08511 44.3989 -0.895957C 44.1612 -0.7068 44.0084 -0.430929 43.9742 -0.129076L 45.1119 -1.45352e-06ZM -5.83349e-06 59.3457L -0.432628 58.2855C -0.713991 58.4004 -0.938169 58.6223 -1.05578 58.9025C -1.17339 59.1827 -1.17478 59.4982 -1.05966 59.7794L -5.83349e-06 59.3457ZM 14.6231 95.0674L 13.5635 95.5012C 13.8028 96.0857 14.4702 96.3661 15.0551 96.1278L 14.6231 95.0674ZM 83.6631 3.24424L 45.2416 -1.13763L 44.9821 1.13762L 83.4036 5.51949L 83.6631 3.24424ZM 43.9742 -0.129076C 40.9643 26.4005 23.4679 48.5321 -0.432628 58.2855L 0.432616 60.4058C 25.0847 50.3456 43.1425 27.5154 46.2496 0.129073L 43.9742 -0.129076ZM -1.05966 59.7794L 13.5635 95.5012L 15.6828 94.6336L 1.05964 58.9119L -1.05966 59.7794ZM 15.0551 96.1278C 52.6123 80.8277 79.9393 46.0889 84.6711 4.51133L 82.3957 4.25239C 77.761 44.9776 50.992 79.015 14.1911 94.007L 15.0551 96.1278Z"/>
<path id="path5_fill" d="M 59.6394 109.642C 59.6394 112.404 59.4483 115.167 59.1615 117.929L 97.5831 122.311C 98.061 118.12 98.3477 113.928 98.3477 109.642C 98.3477 55.1543 59.1615 9.71631 7.26378 -4.54225e-08L -2.91675e-06 37.8174C 33.9295 44.1997 59.6394 73.9201 59.6394 109.642Z"/>
<path id="path6_stroke" d="M 59.1615 117.929L 58.0226 117.811C 57.9578 118.436 58.408 118.996 59.0318 119.067L 59.1615 117.929ZM 97.5831 122.311L 97.4533 123.449C 97.7551 123.483 98.0581 123.396 98.2958 123.207C 98.5334 123.018 98.6863 122.743 98.7207 122.441L 97.5831 122.311ZM 7.26378 -4.54225e-08L 7.47448 -1.12545C 6.85497 -1.24143 6.25822 -0.834936 6.13933 -0.215978L 7.26378 -4.54225e-08ZM -2.91675e-06 37.8174L -1.12445 37.6014C -1.18187 37.9004 -1.11787 38.2099 -0.946593 38.4616C -0.775313 38.7133 -0.510856 38.8864 -0.21167 38.9427L -2.91675e-06 37.8174ZM 58.4944 109.642C 58.4944 112.353 58.3068 115.073 58.0226 117.811L 60.3004 118.047C 60.5897 115.26 60.7844 112.456 60.7844 109.642L 58.4944 109.642ZM 59.0318 119.067L 97.4533 123.449L 97.7128 121.174L 59.2913 116.792L 59.0318 119.067ZM 98.7207 122.441C 99.2025 118.215 99.4927 113.98 99.4927 109.642L 97.2027 109.642C 97.2027 113.877 96.9194 118.024 96.4454 122.181L 98.7207 122.441ZM 99.4927 109.642C 99.4927 54.5917 59.9026 8.69015 7.47448 -1.12545L 7.05307 1.12545C 58.4205 10.7425 97.2027 55.7169 97.2027 109.642L 99.4927 109.642ZM 6.13933 -0.215978L -1.12445 37.6014L 1.12444 38.0334L 8.38822 0.215978L 6.13933 -0.215978ZM -0.21167 38.9427C 33.1893 45.2255 58.4944 74.4838 58.4944 109.642L 60.7844 109.642C 60.7844 73.3565 34.6696 43.1738 0.211664 36.6921L -0.21167 38.9427Z"/>
<path id="path7_fill" d="M 112.015 4.54225e-08C 97.0096 4.54225e-08 82.6732 2.95299 69.5793 8.28744C 32.4958 23.4334 5.35225 57.8215 0.764608 98.973C 0.286728 103.164 -1.82297e-07 107.356 -1.82297e-07 111.642C -1.82297e-07 166.13 39.1861 211.568 91.0839 221.284C 97.8698 222.522 104.847 223.285 112.015 223.285L 112.015 184.705C 107.332 184.705 102.744 184.229 98.3477 183.371C 64.4182 176.989 38.7083 147.269 38.7083 111.547C 38.7083 108.785 38.8994 106.022 39.1861 103.26C 42.2446 76.3016 60.0217 53.8207 84.298 43.9139C 92.8998 40.3893 102.266 38.4842 112.111 38.4842C 116.794 38.4842 121.381 38.9605 125.778 39.8178L 133.042 1.90516C 126.16 0.666805 119.183 4.54225e-08 112.015 4.54225e-08Z"/>
<path id="path8_stroke" d="M 69.5793 8.28744L 69.1473 7.22706L 69.1464 7.22744L 69.5793 8.28744ZM 0.764608 98.973L 1.90224 99.1027L 1.90256 99.0998L 0.764608 98.973ZM 91.0839 221.284L 90.8732 222.41L 90.8783 222.411L 91.0839 221.284ZM 112.015 223.285L 112.015 224.43C 112.647 224.43 113.16 223.917 113.16 223.285L 112.015 223.285ZM 112.015 184.705L 113.16 184.705C 113.16 184.073 112.647 183.56 112.015 183.56L 112.015 184.705ZM 98.3477 183.371L 98.5668 182.248L 98.5593 182.246L 98.3477 183.371ZM 39.1861 103.26L 38.0484 103.13L 38.0473 103.141L 39.1861 103.26ZM 84.298 43.9139L 84.7306 44.974L 84.7321 44.9734L 84.298 43.9139ZM 125.778 39.8178L 125.559 40.9416C 125.858 40.9999 126.167 40.9368 126.419 40.7664C 126.671 40.5959 126.845 40.3321 126.903 40.0333L 125.778 39.8178ZM 133.042 1.90516L 134.166 2.12061C 134.224 1.82017 134.159 1.50919 133.986 1.25701C 133.812 1.00484 133.546 0.832438 133.245 0.778259L 133.042 1.90516ZM 112.015 -1.145C 96.8583 -1.145 82.3754 1.83793 69.1473 7.22706L 70.0113 9.34782C 82.971 4.06806 97.1609 1.145 112.015 1.145L 112.015 -1.145ZM 69.1464 7.22744C 31.687 22.527 4.2622 57.2651 -0.373343 98.8461L 1.90256 99.0998C 6.44231 58.378 33.3046 24.3399 70.0122 9.34743L 69.1464 7.22744ZM -0.373022 98.8433C -0.85481 103.069 -1.145 107.304 -1.145 111.642L 1.145 111.642C 1.145 107.407 1.42827 103.26 1.90224 99.1027L -0.373022 98.8433ZM -1.145 111.642C -1.145 166.692 38.4451 212.594 90.8732 222.41L 91.2946 220.159C 39.9272 210.542 1.145 165.567 1.145 111.642L -1.145 111.642ZM 90.8783 222.411C 97.7188 223.659 104.766 224.43 112.015 224.43L 112.015 222.14C 104.928 222.14 98.0208 221.386 91.2895 220.158L 90.8783 222.411ZM 113.16 223.285L 113.16 184.705L 110.87 184.705L 110.87 223.285L 113.16 223.285ZM 112.015 183.56C 107.409 183.56 102.895 183.092 98.5668 182.248L 98.1285 184.495C 102.593 185.366 107.254 185.85 112.015 185.85L 112.015 183.56ZM 98.5593 182.246C 65.1583 175.963 39.8533 146.705 39.8533 111.547L 37.5633 111.547C 37.5633 147.832 63.6781 178.015 98.136 184.497L 98.5593 182.246ZM 39.8533 111.547C 39.8533 108.836 40.0409 106.115 40.325 103.378L 38.0473 103.141C 37.758 105.929 37.5633 108.733 37.5633 111.547L 39.8533 111.547ZM 40.3238 103.389C 43.3337 76.859 60.8301 54.7275 84.7306 44.974L 83.8654 42.8538C 59.2133 52.9139 41.1555 75.7441 38.0484 103.13L 40.3238 103.389ZM 84.7321 44.9734C 93.1967 41.5051 102.416 39.6292 112.111 39.6292L 112.111 37.3392C 102.117 37.3392 92.603 39.2736 83.8639 42.8544L 84.7321 44.9734ZM 112.111 39.6292C 116.716 39.6292 121.231 40.0976 125.559 40.9416L 125.997 38.694C 121.532 37.8233 116.871 37.3392 112.111 37.3392L 112.111 39.6292ZM 126.903 40.0333L 134.166 2.12061L 131.917 1.6897L 124.653 39.6023L 126.903 40.0333ZM 133.245 0.778259C 126.3 -0.471432 119.255 -1.145 112.015 -1.145L 112.015 1.145C 119.111 1.145 126.02 1.80504 132.839 3.03206L 133.245 0.778259Z"/>
</defs>
</svg>
