<svg width="220" height="220" viewBox="0 0 220 220" version="1.1" xmlns="http://www.w3.org/2000/svg" xmlns:xlink="http://www.w3.org/1999/xlink">
<title>Pic_motivation</title>
<desc>Created using Figma</desc>
<g id="Canvas" transform="translate(-365 -76)">
<g id="Pic_motivation">
<g id="Group">
<g id="Group">
<g id="Vector">
<use xlink:href="#path0_fill" transform="translate(433.942 178.137)" fill="#D0D3E6"/>
</g>
<g id="Group">
<g id="Group">
<g id="Vector">
<use xlink:href="#path1_fill" transform="translate(441.866 177.647)" fill="#9999CC"/>
<use xlink:href="#path2_stroke" transform="translate(441.866 177.647)" fill="#666699"/>
</g>
<g id="Vector">
<use xlink:href="#path3_fill" transform="matrix(0.744559 -0.66756 0.663437 0.748235 433.295 192.661)" fill="#FFFFFF"/>
<use xlink:href="#path4_stroke" transform="matrix(0.744559 -0.66756 0.663437 0.748235 433.295 192.661)" fill="#666699"/>
</g>
<g id="Vector">
<use xlink:href="#path5_stroke" transform="translate(452.615 178.369)" fill="#666699"/>
</g>
<g id="Vector">
<use xlink:href="#path6_stroke" transform="translate(458.034 181.227)" fill="#666699"/>
</g>
<g id="Vector">
<use xlink:href="#path7_stroke" transform="translate(462.743 185.962)" fill="#666699"/>
</g>
<g id="Vector">
<use xlink:href="#path8_stroke" transform="translate(465.852 192.036)" fill="#666699"/>
</g>
</g>
</g>
<g id="Vector">
<use xlink:href="#path9_fill" transform="translate(471.941 141.387)" fill="#D0D3E6"/>
</g>
<g id="Vector">
<use xlink:href="#path10_fill" transform="translate(474.8 138.319)" fill="#9999CC"/>
<use xlink:href="#path11_stroke" transform="translate(474.8 138.319)" fill="#666699"/>
</g>
<g id="Vector">
<use xlink:href="#path12_fill" transform="matrix(0.26652 -0.963783 0.963014 0.269286 478.609 169.344)" fill="#FFFFFF"/>
<use xlink:href="#path13_stroke" transform="matrix(0.26652 -0.963783 0.963014 0.269286 478.609 169.344)" fill="#666699"/>
</g>
<g id="Vector">
<use xlink:href="#path14_stroke" transform="translate(475.446 162.2)" fill="#666699"/>
</g>
<g id="Vector">
<use xlink:href="#path15_stroke" transform="translate(474.913 155.947)" fill="#666699"/>
</g>
<g id="Vector">
<use xlink:href="#path16_stroke" transform="translate(476.245 149.426)" fill="#666699"/>
</g>
<g id="Vector">
<use xlink:href="#path17_stroke" transform="translate(479.621 143.53)" fill="#666699"/>
</g>
<g id="Vector">
<use xlink:href="#path18_fill" transform="translate(466.889 209.433)" fill="#D0D3E6"/>
</g>
<g id="Group">
<g id="Group">
<g id="Vector">
<use xlink:href="#path19_fill" transform="translate(468.714 214.086)" fill="#9999CC"/>
<use xlink:href="#path20_stroke" transform="translate(468.714 214.086)" fill="#666699"/>
</g>
<g id="Vector">
<use xlink:href="#path21_fill" transform="matrix(0.48873 -0.872463 0.870129 0.492873 470.133 241.895)" fill="#FFFFFF"/>
<use xlink:href="#path22_stroke" transform="matrix(0.48873 -0.872463 0.870129 0.492873 470.133 241.895)" fill="#666699"/>
</g>
<g id="Vector">
<use xlink:href="#path23_stroke" transform="translate(468.694 234.2)" fill="#666699"/>
</g>
<g id="Vector">
<use xlink:href="#path24_stroke" transform="translate(469.672 228.036)" fill="#666699"/>
</g>
<g id="Vector">
<use xlink:href="#path25_stroke" transform="translate(472.603 222.051)" fill="#666699"/>
</g>
<g id="Vector">
<use xlink:href="#path26_stroke" transform="translate(477.311 217.138)" fill="#666699"/>
</g>
</g>
</g>
</g>
<g id="Group">
<g id="Vector">
<use xlink:href="#path27_stroke" transform="translate(418.059 188.82)" fill="#D0D3E6"/>
</g>
<g id="Vector">
<use xlink:href="#path28_stroke" transform="translate(423.567 196.503)" fill="#D0D3E6"/>
</g>
<g id="Vector">
<use xlink:href="#path29_stroke" transform="translate(428.008 182.031)" fill="#D0D3E6"/>
</g>
</g>
<g id="Group">
<g id="Vector">
<use xlink:href="#path30_stroke" transform="translate(509.025 132.185)" fill="#D0D3E6"/>
</g>
<g id="Vector">
<use xlink:href="#path31_stroke" transform="translate(504.495 129.059)" fill="#D0D3E6"/>
</g>
<g id="Vector">
<use xlink:href="#path32_stroke" transform="translate(512.135 143.977)" fill="#D0D3E6"/>
</g>
</g>
</g>
</g>
</g>
<defs>
<path id="path0_fill" d="M 26.4019 30.8723L 31.5543 25.2445C 35.9071 20.51 33.9528 11.6664 27.3791 5.50264C 20.7165 -0.661111 11.833 -1.8224 7.48012 2.91208L 2.32773 8.53986C -2.02516 13.2743 -0.0707871 22.118 6.50296 28.2817C 13.1655 34.4455 22.049 35.6068 26.4019 30.8723Z"/>
<path id="path1_fill" d="M 27.5387 26.8063C 32.3357 22.5184 31.2697 13.5855 25.229 6.79641C 19.1883 0.00734351 10.4825 -2.04724 5.68542 2.24059L -1.0844e-05 7.33238L 21.7644 31.8981L 27.5387 26.8063Z"/>
<path id="path2_stroke" d="M 27.5387 26.8063L 28.6314 28.0454L 28.6396 28.038L 27.5387 26.8063ZM 5.68542 2.24059L 4.58444 1.00886L 4.58325 1.00992L 5.68542 2.24059ZM -1.0844e-05 7.33238L -1.10218 6.10172C -1.77928 6.70812 -1.83933 7.74759 -1.23657 8.42793L -1.0844e-05 7.33238ZM 21.7644 31.8981L 20.5279 32.9936C 21.1319 33.6754 22.1739 33.7397 22.8571 33.1372L 21.7644 31.8981ZM 28.6396 28.038C 31.546 25.4401 32.5545 21.5391 32.089 17.5479C 31.623 13.553 29.6806 9.31412 26.4632 5.69822L 23.9948 7.89459C 26.8182 11.0678 28.4291 14.6898 28.8071 17.9307C 29.1855 21.1752 28.3284 23.8846 26.4377 25.5745L 28.6396 28.038ZM 26.4632 5.69822C 23.246 2.08243 19.271 -0.330459 15.3672 -1.24394C 11.4653 -2.15701 7.48935 -1.58768 4.58444 1.00886L 6.78639 3.47232C 8.67855 1.78103 11.454 1.23374 14.6144 1.97327C 17.773 2.71238 21.1713 4.72132 23.9948 7.89459L 26.4632 5.69822ZM 4.58325 1.00992L -1.10218 6.10172L 1.10216 8.56305L 6.78758 3.47125L 4.58325 1.00992ZM -1.23657 8.42793L 20.5279 32.9936L 23.001 30.8025L 1.23655 6.23683L -1.23657 8.42793ZM 22.8571 33.1372L 28.6313 28.0454L 26.446 25.5672L 20.6718 30.659L 22.8571 33.1372Z"/>
<path id="path3_fill" d="M 11.577 32.7927C 17.9709 32.7927 23.1541 25.4518 23.1541 16.3964C 23.1541 7.34091 17.9709 0 11.577 0C 5.18322 0 5.43543e-06 7.34091 5.43543e-06 16.3964C 5.43543e-06 25.4518 5.18322 32.7927 11.577 32.7927Z"/>
<path id="path4_stroke" d="M 21.502 16.3964C 21.502 20.6236 20.2896 24.3806 18.4137 27.0375C 16.5347 29.6986 14.0934 31.1407 11.577 31.1407L 11.577 34.4448C 15.4546 34.4448 18.8017 32.2164 21.1128 28.9433C 23.427 25.6658 24.8062 21.2246 24.8062 16.3964L 21.502 16.3964ZM 11.577 31.1407C 9.06073 31.1407 6.61937 29.6986 4.74041 27.0375C 2.86449 24.3806 1.65208 20.6236 1.65208 16.3964L -1.65207 16.3964C -1.65207 21.2246 -0.272874 25.6658 2.04127 28.9433C 4.35238 32.2164 7.69954 34.4448 11.577 34.4448L 11.577 31.1407ZM 1.65208 16.3964C 1.65208 12.1691 2.86449 8.41212 4.74041 5.75528C 6.61937 3.09415 9.06073 1.65207 11.577 1.65207L 11.577 -1.65207C 7.69953 -1.65207 4.35238 0.576309 2.04127 3.84949C -0.272874 7.12698 -1.65207 11.5682 -1.65207 16.3964L 1.65208 16.3964ZM 11.577 1.65207C 14.0934 1.65207 16.5347 3.09415 18.4137 5.75528C 20.2896 8.41212 21.502 12.1691 21.502 16.3964L 24.8062 16.3964C 24.8062 11.5682 23.427 7.12698 21.1128 3.84949C 18.8017 0.576309 15.4546 -1.65207 11.577 -1.65207L 11.577 1.65207Z"/>
<path id="path5_stroke" d="M -1.10218 3.86113C -1.78185 4.46985 -1.83938 5.51429 -1.23067 6.19397C -0.621955 6.87364 0.422489 6.93117 1.10216 6.32246L -1.10218 3.86113ZM 6.78757 1.23066C 7.46724 0.621947 7.52477 -0.422497 6.91606 -1.10217C 6.30735 -1.78185 5.2629 -1.83938 4.58323 -1.23066L 6.78757 1.23066ZM 1.10216 6.32246L 6.78757 1.23066L 4.58323 -1.23066L -1.10218 3.86113L 1.10216 6.32246Z"/>
<path id="path6_stroke" d="M -1.10217 3.86113C -1.78185 4.46985 -1.83937 5.51429 -1.23066 6.19397C -0.62195 6.87364 0.422495 6.93117 1.10217 6.32246L -1.10217 3.86113ZM 6.78757 1.23066C 7.46725 0.62195 7.52477 -0.422495 6.91606 -1.10217C 6.30735 -1.78185 5.2629 -1.83937 4.58323 -1.23066L 6.78757 1.23066ZM 1.10217 6.32246L 6.78757 1.23066L 4.58323 -1.23066L -1.10217 3.86113L 1.10217 6.32246Z"/>
<path id="path7_stroke" d="M -1.10218 3.86113C -1.78186 4.46984 -1.83939 5.51429 -1.23067 6.19396C -0.621964 6.87364 0.42248 6.93117 1.10216 6.32246L -1.10218 3.86113ZM 6.78758 1.23066C 7.46726 0.621951 7.52479 -0.422494 6.91608 -1.10217C 6.30737 -1.78185 5.26292 -1.83938 4.58325 -1.23067L 6.78758 1.23066ZM 1.10216 6.32246L 6.78758 1.23066L 4.58325 -1.23067L -1.10218 3.86113L 1.10216 6.32246Z"/>
<path id="path8_stroke" d="M -1.10218 3.86113C -1.78186 4.46984 -1.83939 5.51429 -1.23068 6.19397C -0.621965 6.87364 0.422479 6.93117 1.10216 6.32246L -1.10218 3.86113ZM 6.78759 1.23066C 7.46726 0.621954 7.52479 -0.42249 6.91608 -1.10217C 6.30737 -1.78184 5.26293 -1.83937 4.58325 -1.23066L 6.78759 1.23066ZM 1.10216 6.32246L 6.78759 1.23066L 4.58325 -1.23066L -1.10218 3.86113L 1.10216 6.32246Z"/>
<path id="path9_fill" d="M 23.404 2.23265L 16.0307 0.267397C 9.81229 -1.34054 2.97203 4.46589 0.751168 13.3095C -1.55853 22.1532 1.63951 30.5502 7.85792 32.1581L 15.2312 34.1234C 21.4496 35.7313 28.2898 29.9249 30.5107 21.0812C 32.7316 12.3269 29.6224 3.84059 23.404 2.23265Z"/>
<path id="path10_fill" d="M 16.3692 0.298319C 10.2397 -1.39895 3.22175 4.31816 0.823218 13.0725C -1.57531 21.8268 1.44509 30.3131 7.57467 32.0997L 14.859 34.1543L 23.6537 2.44223L 16.3692 0.298319Z"/>
<path id="path11_stroke" d="M 16.3692 0.298319L 16.8357 -1.28653C 16.8272 -1.28903 16.8187 -1.29147 16.8101 -1.29383L 16.3692 0.298319ZM 7.57467 32.0997L 7.11238 33.6858C 7.11698 33.6871 7.12158 33.6884 7.1262 33.6897L 7.57467 32.0997ZM 14.859 34.1543L 14.4106 35.7443C 14.8335 35.8636 15.2865 35.8095 15.6694 35.594C 16.0523 35.3784 16.3336 35.0192 16.451 34.5958L 14.859 34.1543ZM 23.6537 2.44223L 25.2457 2.88373C 25.4868 2.01425 24.9857 1.11214 24.1201 0.857384L 23.6537 2.44223ZM 16.8101 -1.29383C 13.085 -2.32531 9.25631 -1.05744 6.14993 1.48826C 3.0368 4.03948 0.509641 7.96496 -0.770123 12.6359L 2.41656 13.509C 3.53533 9.42567 5.71639 6.11544 8.24425 4.04385C 10.7789 1.96673 13.5239 1.22469 15.9284 1.89047L 16.8101 -1.29383ZM -0.770123 12.6359C -2.04822 17.3008 -1.90296 21.9591 -0.555886 25.7519C 0.788866 29.5382 3.39976 32.6037 7.11238 33.6858L 8.03696 30.5137C 5.62 29.8092 3.6559 27.7382 2.55769 24.6461C 1.4618 21.5605 1.29613 17.5985 2.41656 13.509L -0.770123 12.6359ZM 7.1262 33.6897L 14.4106 35.7443L 15.3075 32.5643L 8.02314 30.5097L 7.1262 33.6897ZM 16.451 34.5958L 25.2457 2.88373L 22.0617 2.00073L 13.2671 33.7128L 16.451 34.5958ZM 24.1201 0.857384L 16.8357 -1.28653L 15.9028 1.88317L 23.1872 4.02708L 24.1201 0.857384Z"/>
<path id="path12_fill" d="M 16.4301 23.1062C 25.5043 23.1062 32.8603 17.9337 32.8603 11.5531C 32.8603 5.17251 25.5043 0 16.4301 0C 7.35601 0 1.09002e-05 5.17251 1.09002e-05 11.5531C 1.09002e-05 17.9337 7.35601 23.1062 16.4301 23.1062Z"/>
<path id="path13_stroke" d="M 31.2082 11.5531C 31.2082 14.0597 29.7656 16.495 27.0977 18.371C 24.4346 20.2436 20.6682 21.4542 16.4301 21.4542L 16.4301 24.7583C 21.2662 24.7583 25.7149 23.3826 28.9983 21.0738C 32.2769 18.7684 34.5124 15.4271 34.5124 11.5531L 31.2082 11.5531ZM 16.4301 21.4542C 12.1921 21.4542 8.42568 20.2436 5.76254 18.371C 3.09467 16.495 1.65208 14.0597 1.65208 11.5531L -1.65205 11.5531C -1.65205 15.4271 0.583349 18.7684 3.86201 21.0738C 7.14539 23.3826 11.5941 24.7583 16.4301 24.7583L 16.4301 21.4542ZM 1.65208 11.5531C 1.65208 9.04648 3.09467 6.6112 5.76254 4.73524C 8.42568 2.86261 12.1921 1.65207 16.4301 1.65207L 16.4301 -1.65207C 11.5941 -1.65207 7.14539 -0.276353 3.86201 2.03242C 0.583349 4.33786 -1.65205 7.67914 -1.65205 11.5531L 1.65208 11.5531ZM 16.4301 1.65207C 20.6682 1.65207 24.4346 2.86261 27.0977 4.73524C 29.7656 6.61121 31.2082 9.04649 31.2082 11.5531L 34.5124 11.5531C 34.5124 7.67913 32.2769 4.33786 28.9983 2.03242C 25.7149 -0.276353 21.2662 -1.65207 16.4301 -1.65207L 16.4301 1.65207Z"/>
<path id="path14_stroke" d="M 6.85409 3.56029C 7.735 3.79795 8.64179 3.27649 8.87945 2.39558C 9.11711 1.51467 8.59565 0.607884 7.71473 0.370224L 6.85409 3.56029ZM 0.4303 -1.59503C -0.450613 -1.83269 -1.35739 -1.31123 -1.59506 -0.430322C -1.83272 0.450591 -1.31126 1.35737 -0.430343 1.59503L 0.4303 -1.59503ZM 7.71473 0.370224L 0.4303 -1.59503L -0.430343 1.59503L 6.85409 3.56029L 7.71473 0.370224Z"/>
<path id="path15_stroke" d="M 6.83597 3.64461C 7.71411 3.89229 8.62678 3.3812 8.87446 2.50305C 9.12214 1.62491 8.61105 0.71224 7.7329 0.464558L 6.83597 3.64461ZM 0.448469 -1.59003C -0.429678 -1.83771 -1.34234 -1.32662 -1.59003 -0.448469C -1.83771 0.429678 -1.32662 1.34234 -0.448469 1.59003L 0.448469 -1.59003ZM 7.7329 0.464558L 0.448469 -1.59003L -0.448469 1.59003L 6.83597 3.64461L 7.7329 0.464558Z"/>
<path id="path16_stroke" d="M 6.92979 3.64602C 7.80871 3.89093 8.71976 3.37697 8.96468 2.49804C 9.20959 1.61912 8.69563 0.70807 7.8167 0.463154L 6.92979 3.64602ZM 0.443459 -1.59143C -0.435464 -1.83635 -1.34652 -1.32238 -1.59143 -0.443459C -1.83635 0.435464 -1.32238 1.34652 -0.443459 1.59143L 0.443459 -1.59143ZM 7.8167 0.463154L 0.443459 -1.59143L -0.443459 1.59143L 6.92979 3.64602L 7.8167 0.463154Z"/>
<path id="path17_stroke" d="M 6.92978 3.64602C 7.80871 3.89093 8.71976 3.37697 8.96467 2.49804C 9.20959 1.61912 8.69562 0.708071 7.8167 0.463155L 6.92978 3.64602ZM 0.443448 -1.59143C -0.435475 -1.83635 -1.34653 -1.32238 -1.59144 -0.443459C -1.83636 0.435464 -1.32239 1.34652 -0.443469 1.59143L 0.443448 -1.59143ZM 7.8167 0.463155L 0.443448 -1.59143L -0.443469 1.59143L 6.92978 3.64602L 7.8167 0.463155Z"/>
<path id="path18_fill" d="M 4.91476 28.4292L 11.6662 32.181C 17.3516 35.3969 25.702 31.8237 30.3214 24.32C 34.9408 16.8163 34.0525 8.06201 28.3671 4.93547L 21.6156 1.18362C 15.9302 -2.03225 7.57979 1.54094 2.9604 9.04464C -1.659 16.5483 -0.770641 25.3027 4.91476 28.4292Z"/>
<path id="path19_fill" d="M 20.945 1.08694C 15.3484 -2.0396 7.26452 1.80159 2.82279 9.75193C -1.61893 17.7023 -0.730594 26.6353 4.86598 29.8511L 11.5286 33.603L 27.6076 4.92812L 20.945 1.08694Z"/>
<path id="path20_stroke" d="M 20.945 1.08694L 21.7701 -0.344298C 21.7637 -0.348017 21.7572 -0.351692 21.7507 -0.355324L 20.945 1.08694ZM 4.86598 29.8511L 4.04289 31.2835C 4.04703 31.2859 4.05119 31.2883 4.05535 31.2906L 4.86598 29.8511ZM 11.5286 33.603L 10.7179 35.0425C 11.1002 35.2577 11.5523 35.3121 11.9747 35.1937C 12.3971 35.0752 12.755 34.7936 12.9695 34.411L 11.5286 33.603ZM 27.6076 4.92812L 29.0486 5.73613C 29.491 4.947 29.2165 3.94876 28.4327 3.49688L 27.6076 4.92812ZM 21.7507 -0.355324C 18.3627 -2.24806 14.3574 -1.95201 10.7393 -0.22538C 7.11825 1.50267 3.74722 4.71002 1.38055 8.94618L 4.26504 10.5577C 6.34009 6.8435 9.23188 4.15508 12.1624 2.75659C 15.0958 1.35667 17.9307 1.29539 20.1393 2.5292L 21.7507 -0.355324ZM 1.38055 8.94618C -0.984463 13.1794 -1.96822 17.7366 -1.56368 21.7429C -1.15942 25.7465 0.662579 29.3412 4.04289 31.2835L 5.68907 28.4187C 3.4728 27.1452 2.05235 24.6655 1.72373 21.411C 1.39539 18.1593 2.18833 14.2748 4.26504 10.5577L 1.38055 8.94618ZM 4.05535 31.2906L 10.7179 35.0425L 12.3392 32.1635L 5.6766 28.4116L 4.05535 31.2906ZM 12.9695 34.411L 29.0486 5.73613L 26.1666 4.12011L 10.0876 32.795L 12.9695 34.411ZM 28.4327 3.49688L 21.7701 -0.344298L 20.1198 2.51817L 26.7824 6.35935L 28.4327 3.49688Z"/>
<path id="path21_fill" d="M 16.4148 23.128C 25.4804 23.128 32.8296 17.9507 32.8296 11.564C 32.8296 5.17739 25.4804 -2.71466e-06 16.4148 -2.71466e-06C 7.34914 -2.71466e-06 -2.178e-05 5.17739 -2.178e-05 11.564C -2.178e-05 17.9507 7.34914 23.128 16.4148 23.128Z"/>
<path id="path22_stroke" d="M 31.1775 11.564C 31.1775 14.0751 29.7351 16.5131 27.0703 18.3904C 24.41 20.2646 20.6479 21.476 16.4148 21.476L 16.4148 24.7801C 21.2472 24.7801 25.6925 23.4028 28.9732 21.0916C 32.2494 18.7836 34.4816 15.4396 34.4816 11.564L 31.1775 11.564ZM 16.4148 21.476C 12.1816 21.476 8.4195 20.2646 5.75923 18.3904C 3.09441 16.5131 1.65205 14.0751 1.65205 11.564L -1.65209 11.564C -1.65209 15.4396 0.580124 18.7836 3.8563 21.0916C 7.13701 23.4028 11.5823 24.7801 16.4148 24.7801L 16.4148 21.476ZM 1.65205 11.564C 1.65205 9.05298 3.09441 6.61492 5.75923 4.7376C 8.4195 2.86346 12.1816 1.65207 16.4148 1.65207L 16.4148 -1.65207C 11.5823 -1.65207 7.13701 -0.274776 3.8563 2.03644C 0.580124 4.34447 -1.65209 7.68843 -1.65209 11.564L 1.65205 11.564ZM 16.4148 1.65207C 20.6479 1.65207 24.41 2.86346 27.0703 4.7376C 29.7351 6.61492 31.1775 9.05298 31.1775 11.564L 34.4816 11.564C 34.4816 7.68843 32.2494 4.34447 28.9732 2.03644C 25.6925 -0.274776 21.2472 -1.65207 16.4148 -1.65207L 16.4148 1.65207Z"/>
<path id="path23_stroke" d="M 5.85196 5.19135C 6.64699 5.63905 7.65441 5.35748 8.1021 4.56246C 8.54979 3.76744 8.26823 2.76002 7.47321 2.31233L 5.85196 5.19135ZM 0.810621 -1.43952C 0.0155991 -1.88721 -0.991821 -1.60565 -1.43951 -0.810624C -1.88721 -0.0156018 -1.60564 0.991818 -0.810621 1.43951L 0.810621 -1.43952ZM 7.47321 2.31233L 0.810621 -1.43952L -0.810621 1.43951L 5.85196 5.19135L 7.47321 2.31233Z"/>
<path id="path24_stroke" d="M 5.85194 5.19136C 6.64696 5.63905 7.65438 5.35749 8.10208 4.56247C 8.54977 3.76744 8.26821 2.76002 7.47318 2.31233L 5.85194 5.19136ZM 0.810599 -1.43951C 0.0155773 -1.88721 -0.991843 -1.60564 -1.43954 -0.810618C -1.88723 -0.0155962 -1.60566 0.991824 -0.810643 1.43952L 0.810599 -1.43951ZM 7.47318 2.31233L 0.810599 -1.43951L -0.810643 1.43952L 5.85194 5.19136L 7.47318 2.31233Z"/>
<path id="path25_stroke" d="M 5.75484 5.18667C 6.54727 5.63893 7.55629 5.36318 8.00856 4.57075C 8.46083 3.77832 8.18507 2.76929 7.39264 2.31703L 5.75484 5.18667ZM 0.818922 -1.43482C 0.0264926 -1.88708 -0.982533 -1.61132 -1.4348 -0.818895C -1.88707 -0.0264654 -1.61131 0.98256 -0.818879 1.43483L 0.818922 -1.43482ZM 7.39264 2.31703L 0.818922 -1.43482L -0.818879 1.43483L 5.75484 5.18667L 7.39264 2.31703Z"/>
<path id="path26_stroke" d="M 5.75482 5.18667C 6.54725 5.63894 7.55628 5.36319 8.00855 4.57076C 8.46081 3.77833 8.18506 2.7693 7.39263 2.31703L 5.75482 5.18667ZM 0.818913 -1.43481C 0.0264836 -1.88708 -0.982542 -1.61133 -1.43481 -0.818896C -1.88708 -0.0264673 -1.61132 0.982558 -0.818891 1.43483L 0.818913 -1.43481ZM 7.39263 2.31703L 0.818913 -1.43481L -0.818891 1.43483L 5.75482 5.18667L 7.39263 2.31703Z"/>
<path id="path27_stroke" d="M 0.135644 -1.02359C -0.42967 -1.0985 -0.948676 -0.700956 -1.02359 -0.135642C -1.0985 0.429671 -0.700957 0.948678 -0.135644 1.02359L 0.135644 -1.02359ZM 11.324 2.54219C 11.8893 2.61711 12.4083 2.21956 12.4832 1.65425C 12.5581 1.08893 12.1606 0.569928 11.5953 0.495014L 11.324 2.54219ZM -0.135644 1.02359L 11.324 2.54219L 11.5953 0.495014L 0.135644 -1.02359L -0.135644 1.02359Z"/>
<path id="path28_stroke" d="M -0.3198 1.07283C -0.862013 1.24946 -1.15838 1.83219 -0.981751 2.3744C -0.805124 2.91662 -0.22239 3.21298 0.319822 3.03635L -0.3198 1.07283ZM 6.62705 0.981762C 7.16926 0.805135 7.46563 0.222401 7.289 -0.319811C 7.11237 -0.862023 6.52964 -1.15839 5.98742 -0.981762L 6.62705 0.981762ZM 0.319822 3.03635L 6.62705 0.981762L 5.98742 -0.981762L -0.3198 1.07283L 0.319822 3.03635Z"/>
<path id="path29_stroke" d="M 0.613885 -0.830235C 0.155357 -1.16927 -0.491194 -1.0724 -0.830227 -0.613871C -1.16926 -0.155344 -1.07239 0.491207 -0.613863 0.830241L 0.613885 -0.830235ZM 2.4065 3.06348C 2.86503 3.40252 3.51158 3.30565 3.85061 2.84712C 4.18965 2.38859 4.09278 1.74204 3.63425 1.40301L 2.4065 3.06348ZM -0.613863 0.830241L 2.4065 3.06348L 3.63425 1.40301L 0.613885 -0.830235L -0.613863 0.830241Z"/>
<path id="path30_stroke" d="M 9.94045 0.831021C 10.3994 0.492574 10.4971 -0.153853 10.1587 -0.612813C 9.82021 -1.07177 9.17379 -1.16947 8.71483 -0.831021L 9.94045 0.831021ZM -0.612792 6.04737C -1.07175 6.38582 -1.16945 7.03225 -0.830999 7.49121C -0.492552 7.95017 0.153875 8.04786 0.612835 7.70941L -0.612792 6.04737ZM 8.71483 -0.831021L -0.612792 6.04737L 0.612835 7.70941L 9.94045 0.831021L 8.71483 -0.831021Z"/>
<path id="path31_stroke" d="M 4.02251 0.48165C 4.28852 -0.0227613 4.09526 -0.64731 3.59085 -0.913318C 3.08644 -1.17933 2.46189 -0.986062 2.19588 -0.48165L 4.02251 0.48165ZM -0.913329 5.41411C -1.17934 5.91852 -0.986072 6.54307 -0.481661 6.80908C 0.0227504 7.07509 0.647299 6.88182 0.913307 6.37741L -0.913329 5.41411ZM 2.19588 -0.48165L -0.913329 5.41411L 0.913307 6.37741L 4.02251 0.48165L 2.19588 -0.48165Z"/>
<path id="path32_stroke" d="M 3.96336 1.02252C 4.52808 0.943285 4.92165 0.421251 4.84241 -0.143472C 4.76317 -0.708195 4.24114 -1.10176 3.67642 -1.02252L 3.96336 1.02252ZM -0.143451 -0.486546C -0.708174 -0.407308 -1.10174 0.114725 -1.0225 0.679449C -0.943263 1.24417 -0.421229 1.63774 0.143494 1.5585L -0.143451 -0.486546ZM 3.67642 -1.02252L -0.143451 -0.486546L 0.143494 1.5585L 3.96336 1.02252L 3.67642 -1.02252Z"/>
</defs>
</svg>
