<svg width="320" height="320" viewBox="0 0 320 320" version="1.1" xmlns="http://www.w3.org/2000/svg" xmlns:xlink="http://www.w3.org/1999/xlink">
<title>pic_toke_1</title>
<desc>Created using Figma</desc>
<g id="Canvas" transform="translate(344 -4417)">
<g id="pic_toke_1">
<g id="Vector">
<use xlink:href="#path0_fill" transform="translate(-341 4427.85)" fill="#D0D3E6"/>
</g>
<g id="Group">
<g id="Vector">
<use xlink:href="#path1_fill" transform="translate(-324.161 4609.7)" fill="#C2C1E2"/>
<use xlink:href="#path2_stroke" transform="translate(-324.161 4609.7)" fill="#67679A"/>
</g>
<g id="Vector">
<use xlink:href="#path3_fill" transform="translate(-334.147 4488.14)" fill="#DAD9EE"/>
<use xlink:href="#path4_stroke" transform="translate(-334.147 4488.14)" fill="#67679A"/>
</g>
<g id="Vector">
<use xlink:href="#path5_fill" transform="translate(-231.935 4421)" fill="#F8F8FC"/>
<use xlink:href="#path6_stroke" transform="translate(-231.935 4421)" fill="#67679A"/>
</g>
<g id="Vector">
<use xlink:href="#path7_fill" transform="translate(-181.123 4421)" fill="#9999CC"/>
<use xlink:href="#path8_stroke" transform="translate(-181.123 4421)" fill="#67679A"/>
</g>
<g id="Vector">
<use xlink:href="#path9_fill" transform="translate(-307.713 4429.71)" fill="#F0F0F9"/>
<use xlink:href="#path10_stroke" transform="translate(-307.713 4429.71)" fill="#67679A"/>
</g>
<g id="Group">
<g id="Vector">
<use xlink:href="#path11_fill" transform="translate(-181.123 4574.07)" fill="#8E8EC1"/>
<use xlink:href="#path12_stroke" transform="translate(-181.123 4574.07)" fill="#67679A"/>
</g>
</g>
</g>
</g>
</g>
<defs>
<path id="path0_fill" d="M 296.257 98.6566C 274.326 41.009 218.521 -1.86679e-07 153.121 -1.86679e-07C 135.303 -1.86679e-07 118.17 3.13196 102.211 8.71075C 71.0781 19.6726 44.6441 40.3239 26.434 67.1413C 9.79037 91.6097 0 121.265 0 153.074C 0 172.258 3.52453 190.56 9.98617 207.492C 31.9166 265.14 87.7217 306.149 153.121 306.149C 170.94 306.149 188.073 303.017 204.031 297.438C 235.165 286.476 261.599 265.825 279.809 239.007C 296.452 214.539 306.243 184.883 306.243 153.074C 306.243 133.891 302.718 115.589 296.257 98.6566ZM 236.046 209.352C 224.101 226.871 206.773 240.475 186.409 247.62C 175.933 251.339 164.772 253.297 153.023 253.297C 110.24 253.297 73.7215 226.479 59.3296 188.7C 55.1198 177.641 52.7701 165.602 52.7701 153.074C 52.7701 132.227 59.1338 112.848 70.099 96.797C 82.0433 79.2776 99.3722 65.6732 119.736 58.5284C 130.212 54.8092 141.373 52.8517 153.121 52.8517C 195.905 52.8517 232.423 79.6691 246.815 117.448C 251.025 128.508 253.375 140.546 253.375 153.074C 253.375 173.921 247.011 193.3 236.046 209.352Z"/>
<path id="path1_fill" d="M 49.4413 0L 7.46946e-07 18.7917C 21.9304 76.4393 77.7355 117.448 143.135 117.448L 143.135 64.5966C 100.351 64.5966 63.8332 37.7792 49.4413 0Z"/>
<path id="path2_stroke" d="M 49.4413 0L 50.5382 -0.417843C 50.3076 -1.0233 49.63 -1.32736 49.0243 -1.09717L 49.4413 0ZM 7.46946e-07 18.7917L -0.417014 17.6946C -0.708059 17.8052 -0.943226 18.0269 -1.07076 18.3109C -1.1983 18.595 -1.20775 18.9181 -1.09705 19.2091L 7.46946e-07 18.7917ZM 143.135 117.448L 143.135 118.622C 143.783 118.622 144.309 118.097 144.309 117.448L 143.135 117.448ZM 143.135 64.5966L 144.309 64.5966C 144.309 63.9483 143.783 63.4228 143.135 63.4228L 143.135 64.5966ZM 49.0243 -1.09717L -0.417014 17.6946L 0.417015 19.8889L 49.8584 1.09717L 49.0243 -1.09717ZM -1.09705 19.2091C 21.0009 77.2969 77.2323 118.622 143.135 118.622L 143.135 116.275C 78.2387 116.275 22.86 75.5817 1.09705 18.3744L -1.09705 19.2091ZM 144.309 117.448L 144.309 64.5966L 141.961 64.5966L 141.961 117.448L 144.309 117.448ZM 143.135 63.4228C 100.855 63.4228 64.7626 36.9217 50.5382 -0.417843L 48.3445 0.417843C 62.9038 38.6367 99.8478 65.7703 143.135 65.7703L 143.135 63.4228Z"/>
<path id="path3_fill" d="M 52.868 85.933C 52.868 65.0859 59.2317 45.707 70.1969 29.6557L 26.434 2.98686e-06C 9.79037 24.4684 0 54.1241 0 85.933C 0 105.116 3.52453 123.419 9.98617 140.351L 59.4275 121.559C 55.2177 110.499 52.868 98.4608 52.868 85.933Z"/>
<path id="path4_stroke" d="M 70.1969 29.6557L 71.1661 30.3178C 71.3421 30.0601 71.4083 29.7429 71.35 29.4364C 71.2917 29.1298 71.1137 28.8591 70.8554 28.684L 70.1969 29.6557ZM 26.434 2.98686e-06L 27.0924 -0.971665C 26.5565 -1.33486 25.8276 -1.19548 25.4635 -0.660147L 26.434 2.98686e-06ZM 9.98617 140.351L 8.88956 140.769C 9.12047 141.374 9.79781 141.678 10.4032 141.448L 9.98617 140.351ZM 59.4275 121.559L 59.8445 122.656C 60.1356 122.546 60.3708 122.324 60.4983 122.04C 60.6259 121.756 60.6353 121.432 60.5245 121.141L 59.4275 121.559ZM 54.0417 85.933C 54.0417 65.3284 60.3306 46.1792 71.1661 30.3178L 69.2277 28.9936C 58.1328 45.2347 51.6942 64.8435 51.6942 85.933L 54.0417 85.933ZM 70.8554 28.684L 27.0924 -0.971665L 25.7755 0.971671L 69.5385 30.6274L 70.8554 28.684ZM 25.4635 -0.660147C 8.69211 23.9961 -1.17375 53.8805 -1.17375 85.933L 1.17375 85.933C 1.17375 54.3677 10.8886 24.9407 27.4045 0.660153L 25.4635 -0.660147ZM -1.17375 85.933C -1.17375 105.262 2.37773 123.706 8.88956 140.769L 11.0828 139.932C 4.67133 123.132 1.17375 104.971 1.17375 85.933L -1.17375 85.933ZM 10.4032 141.448L 59.8445 122.656L 59.0105 120.462L 9.56916 139.254L 10.4032 141.448ZM 60.5245 121.141C 56.3637 110.211 54.0417 98.3135 54.0417 85.933L 51.6942 85.933C 51.6942 98.6082 54.0716 110.788 58.3306 121.977L 60.5245 121.141Z"/>
<path id="path5_fill" d="M 50.9099 52.8517L 50.9099 4.66698e-08C 33.0914 4.66698e-08 15.9583 3.13196 1.49389e-06 8.71075L 17.6227 58.5284C 28.0004 54.9071 39.2594 52.8517 50.9099 52.8517Z"/>
<path id="path6_stroke" d="M 50.9099 52.8517L 50.9099 54.0255C 51.5581 54.0255 52.0836 53.5 52.0836 52.8517L 50.9099 52.8517ZM 50.9099 4.66698e-08L 52.0836 4.66698e-08C 52.0836 -0.648244 51.5581 -1.17375 50.9099 -1.17375L 50.9099 4.66698e-08ZM 1.49389e-06 8.71075L -0.387338 7.60275C -0.681908 7.70573 -0.923346 7.92177 -1.0583 8.20313C -1.19326 8.48448 -1.21062 8.808 -1.10655 9.10219L 1.49389e-06 8.71075ZM 17.6227 58.5284L 16.5161 58.9198C 16.7316 59.5291 17.3992 59.8496 18.0094 59.6366L 17.6227 58.5284ZM 52.0836 52.8517L 52.0836 4.66698e-08L 49.7361 4.66698e-08L 49.7361 52.8517L 52.0836 52.8517ZM 50.9099 -1.17375C 32.953 -1.17375 15.6891 1.98265 -0.387338 7.60275L 0.387341 9.81875C 16.2275 4.28127 33.2299 1.17375 50.9099 1.17375L 50.9099 -1.17375ZM -1.10655 9.10219L 16.5161 58.9198L 18.7292 58.137L 1.10656 8.31931L -1.10655 9.10219ZM 18.0094 59.6366C 28.2689 56.0566 39.3973 54.0255 50.9099 54.0255L 50.9099 51.678C 39.1214 51.678 27.732 53.7576 17.2359 57.4202L 18.0094 59.6366Z"/>
<path id="path7_fill" d="M 143.233 98.6566C 121.303 41.009 65.4976 4.66698e-08 0.0978977 4.66698e-08L 0.0978977 52.8517C 42.8818 52.8517 79.3999 79.6691 93.7917 117.448C 98.0016 128.508 100.351 140.546 100.351 153.074C 100.351 173.921 93.9875 193.3 83.0223 209.352C 71.0781 226.871 53.7491 240.475 33.3851 247.62C 22.9095 251.339 11.7484 253.297 2.98778e-06 253.297L 2.98778e-06 306.149C 17.8185 306.149 34.9516 303.017 50.9099 297.438C 82.0433 286.476 108.477 265.825 126.687 239.007C 143.331 214.539 153.121 184.883 153.121 153.074C 153.219 133.891 149.695 115.589 143.233 98.6566Z"/>
<path id="path8_stroke" d="M 143.233 98.6566L 142.136 99.0739L 142.136 99.0751L 143.233 98.6566ZM 0.0978977 4.66698e-08L 0.0978977 -1.17375C -0.550346 -1.17375 -1.07585 -0.648244 -1.07585 4.66698e-08L 0.0978977 4.66698e-08ZM 0.0978977 52.8517L -1.07585 52.8517C -1.07585 53.5 -0.550346 54.0255 0.0978977 54.0255L 0.0978977 52.8517ZM 93.7917 117.448L 94.8887 117.031L 94.8886 117.03L 93.7917 117.448ZM 83.0223 209.352L 82.0531 208.69L 82.0525 208.69L 83.0223 209.352ZM 33.3851 247.62L 32.9966 246.513L 32.9924 246.514L 33.3851 247.62ZM 2.98778e-06 253.297L 2.98778e-06 252.123C -0.648241 252.123 -1.17375 252.649 -1.17375 253.297L 2.98778e-06 253.297ZM 2.98778e-06 306.149L -1.17375 306.149C -1.17375 306.797 -0.648241 307.322 2.98778e-06 307.322L 2.98778e-06 306.149ZM 50.9099 297.438L 51.2973 298.546L 51.2997 298.545L 50.9099 297.438ZM 126.687 239.007L 125.717 238.347L 125.716 238.348L 126.687 239.007ZM 153.121 153.074L 151.948 153.068L 151.948 153.074L 153.121 153.074ZM 144.33 98.2392C 122.232 40.1514 66.0008 -1.17375 0.0978977 -1.17375L 0.0978977 1.17375C 64.9943 1.17375 120.373 41.8667 142.136 99.0739L 144.33 98.2392ZM -1.07585 4.66698e-08L -1.07585 52.8517L 1.27165 52.8517L 1.27165 4.66698e-08L -1.07585 4.66698e-08ZM 0.0978977 54.0255C 42.3784 54.0255 78.4705 80.5266 92.6949 117.866L 94.8886 117.03C 80.3293 78.8117 43.3852 51.678 0.0978977 51.678L 0.0978977 54.0255ZM 92.6948 117.866C 96.8555 128.797 99.1775 140.694 99.1775 153.074L 101.525 153.074C 101.525 140.399 99.1476 128.219 94.8887 117.031L 92.6948 117.866ZM 99.1775 153.074C 99.1775 173.679 92.8886 192.828 82.0531 208.69L 83.9915 210.014C 95.0864 193.773 101.525 174.164 101.525 153.074L 99.1775 153.074ZM 82.0525 208.69C 70.2455 226.008 53.1177 239.453 32.9966 246.513L 33.7737 248.728C 54.3805 241.498 71.9106 227.734 83.9921 210.013L 82.0525 208.69ZM 32.9924 246.514C 22.6441 250.188 11.616 252.123 2.98778e-06 252.123L 2.98778e-06 254.471C 11.8809 254.471 23.1748 252.491 33.7778 248.726L 32.9924 246.514ZM -1.17375 253.297L -1.17375 306.149L 1.17375 306.149L 1.17375 253.297L -1.17375 253.297ZM 2.98778e-06 307.322C 17.9569 307.322 35.2208 304.166 51.2973 298.546L 50.5226 296.33C 34.6825 301.867 17.68 304.975 2.98778e-06 304.975L 2.98778e-06 307.322ZM 51.2997 298.545C 82.673 287.499 109.309 266.689 127.658 239.667L 125.716 238.348C 107.645 264.961 81.4136 285.453 50.5201 296.331L 51.2997 298.545ZM 127.658 239.667C 144.429 215.011 154.295 185.127 154.295 153.074L 151.948 153.074C 151.948 184.64 142.233 214.067 125.717 238.347L 127.658 239.667ZM 154.295 153.08C 154.394 133.748 150.842 115.302 144.33 98.2381L 142.136 99.0751C 148.548 115.876 152.045 134.034 151.948 153.068L 154.295 153.08Z"/>
<path id="path9_fill" d="M 93.3022 49.8177L 75.6795 3.73358e-07C 44.6441 10.9618 18.2101 31.6132 0 58.4305L 43.7629 88.0862C 55.6093 70.5669 73.0361 57.0603 93.3022 49.8177Z"/>
<path id="path10_stroke" d="M 93.3022 49.8177L 93.6972 50.9229C 94.3062 50.7053 94.6244 50.036 94.4087 49.4262L 93.3022 49.8177ZM 75.6795 3.73358e-07L 76.7861 -0.391436C 76.57 -1.00236 75.8997 -1.32256 75.2886 -1.10674L 75.6795 3.73358e-07ZM 0 58.4305L -0.971038 57.7712C -1.14602 58.0289 -1.2114 58.3455 -1.15277 58.6515C -1.09414 58.9574 -0.916308 59.2275 -0.658445 59.4022L 0 58.4305ZM 43.7629 88.0862L 43.1045 89.0579C 43.3624 89.2327 43.6791 89.2977 43.985 89.2388C 44.2909 89.1799 44.5608 89.0018 44.7353 88.7437L 43.7629 88.0862ZM 94.4087 49.4262L 76.7861 -0.391436L 74.573 0.391437L 92.1956 50.2091L 94.4087 49.4262ZM 75.2886 -1.10674C 44.0138 9.93964 17.3778 30.7494 -0.971038 57.7712L 0.971038 59.0899C 19.0423 32.4769 45.2743 11.984 76.0704 1.10674L 75.2886 -1.10674ZM -0.658445 59.4022L 43.1045 89.0579L 44.4214 87.1146L 0.658445 57.4589L -0.658445 59.4022ZM 44.7353 88.7437C 56.4403 71.4334 73.6639 58.0824 93.6972 50.9229L 92.9072 48.7124C 72.4084 56.0382 54.7783 69.7004 42.7906 87.4288L 44.7353 88.7437Z"/>
<path id="path11_fill" d="M 100.351 5.97373e-06C 100.351 20.8471 93.9875 40.2261 83.0223 56.2773C 71.0781 73.7967 53.7491 87.4011 33.3851 94.5459C 22.9095 98.2651 11.7484 100.223 2.98778e-06 100.223L 2.98778e-06 153.074C 17.8185 153.074 34.9516 149.942 50.9099 144.364C 82.0433 133.402 108.477 112.75 126.687 85.933C 143.331 61.4646 153.121 31.8089 153.121 5.97373e-06L 100.351 5.97373e-06Z"/>
<path id="path12_stroke" d="M 83.0223 56.2773L 82.0531 55.6152L 82.0525 55.6161L 83.0223 56.2773ZM 33.3851 94.5459L 32.9966 93.4383L 32.9924 93.4398L 33.3851 94.5459ZM 2.98778e-06 100.223L 2.98778e-06 99.0488C -0.648241 99.0488 -1.17375 99.5743 -1.17375 100.223L 2.98778e-06 100.223ZM 2.98778e-06 153.074L -1.17375 153.074C -1.17375 153.723 -0.648241 154.248 2.98778e-06 154.248L 2.98778e-06 153.074ZM 50.9099 144.364L 51.2972 145.472L 51.2997 145.471L 50.9099 144.364ZM 126.687 85.933L 125.717 85.2729L 125.716 85.2736L 126.687 85.933ZM 153.121 5.97373e-06L 154.295 5.97373e-06C 154.295 -0.648238 153.77 -1.17374 153.121 -1.17374L 153.121 5.97373e-06ZM 100.351 -1.17374C 99.703 -1.17374 99.1775 -0.648238 99.1775 5.97373e-06C 99.1775 0.64825 99.703 1.17376 100.351 1.17376L 100.351 -1.17374ZM 99.1775 5.97373e-06C 99.1775 20.6046 92.8886 39.7538 82.0531 55.6152L 83.9915 56.9394C 95.0864 40.6983 101.525 21.0896 101.525 5.97373e-06L 99.1775 5.97373e-06ZM 82.0525 55.6161C 70.2455 72.9342 53.1177 86.3788 32.9966 93.4383L 33.7737 95.6535C 54.3805 88.4235 71.9106 74.6592 83.9921 56.9385L 82.0525 55.6161ZM 32.9924 93.4398C 22.6441 97.1138 11.616 99.0488 2.98778e-06 99.0488L 2.98778e-06 101.396C 11.8809 101.396 23.1748 99.4164 33.7778 95.652L 32.9924 93.4398ZM -1.17375 100.223L -1.17375 153.074L 1.17375 153.074L 1.17375 100.223L -1.17375 100.223ZM 2.98778e-06 154.248C 17.9569 154.248 35.2208 151.092 51.2972 145.472L 50.5226 143.256C 34.6825 148.793 17.68 151.901 2.98778e-06 151.901L 2.98778e-06 154.248ZM 51.2997 145.471C 82.6729 134.424 109.309 113.614 127.658 86.5924L 125.716 85.2736C 107.645 111.886 81.4136 132.379 50.5201 143.256L 51.2997 145.471ZM 127.658 86.5932C 144.429 61.937 154.295 32.0526 154.295 5.97373e-06L 151.948 5.97373e-06C 151.948 31.5653 142.233 60.9923 125.717 85.2729L 127.658 86.5932ZM 153.121 -1.17374L 100.351 -1.17374L 100.351 1.17376L 153.121 1.17376L 153.121 -1.17374Z"/>
</defs>
</svg>
