<svg width="1167" height="528" viewBox="0 0 1167 528" version="1.1" xmlns="http://www.w3.org/2000/svg" xmlns:xlink="http://www.w3.org/1999/xlink">
<title>Pic_fixing_iot</title>
<desc>Created using Figma</desc>
<g id="Canvas" transform="translate(242 -2939)">
<g id="Pic_fixing_iot">
<g id="Vector">
<use xlink:href="#path0_fill" transform="translate(-242 2939)" fill="url(#paint0_radial)"/>
</g>
<g id="Group">
<g id="Group">
<g id="Vector">
<use xlink:href="#path1_fill" transform="translate(323.838 2965.44)" fill="#8991C8"/>
</g>
<g id="Vector">
<use xlink:href="#path2_fill" transform="translate(193.669 3053.78)" fill="#8991C8"/>
</g>
</g>
<g id="Group">
<g id="Group">
<g id="Vector">
<use xlink:href="#path3_fill" transform="translate(398.276 3061.13)" fill="#9999CC"/>
<use xlink:href="#path4_stroke" transform="translate(398.276 3061.13)" fill="#4E4D74"/>
</g>
<g id="Vector">
<use xlink:href="#path5_fill" transform="matrix(0.665032 -0.746817 0.745982 0.665968 398.477 3107.4)" fill="#FFFFFF"/>
<use xlink:href="#path6_stroke" transform="matrix(0.665032 -0.746817 0.745982 0.665968 398.477 3107.4)" fill="#4E4D74"/>
</g>
<g id="Vector">
<use xlink:href="#path7_stroke" transform="translate(425.574 3062.58)" fill="#4E4D74"/>
</g>
<g id="Vector">
<use xlink:href="#path8_stroke" transform="translate(414.948 3068.19)" fill="#4E4D74"/>
</g>
<g id="Vector">
<use xlink:href="#path9_stroke" transform="translate(405.957 3077.2)" fill="#4E4D74"/>
</g>
<g id="Vector">
<use xlink:href="#path10_stroke" transform="translate(399.885 3088.77)" fill="#4E4D74"/>
</g>
</g>
</g>
<g id="Group">
<g id="Group">
<g id="Vector">
<use xlink:href="#path11_fill" transform="translate(210.715 3083.74)" fill="#FFFFFF"/>
<use xlink:href="#path12_stroke" transform="translate(210.715 3083.74)" fill="#4E4D74"/>
</g>
</g>
<g id="Vector">
<use xlink:href="#path13_stroke" transform="translate(280.838 3083.74)" fill="#D0D3E6"/>
</g>
<g id="Vector">
<use xlink:href="#path14_stroke" transform="translate(362.986 3083.86)" fill="#D0D3E6"/>
</g>
<g id="Vector">
<use xlink:href="#path15_stroke" transform="translate(210.601 3236.32)" fill="#D0D3E6"/>
</g>
</g>
<g id="Vector">
<use xlink:href="#path16_stroke" transform="translate(362.986 3083.74)" fill="#D0D3E6"/>
</g>
<g id="Group">
<g id="Vector">
<use xlink:href="#path17_fill" transform="translate(230.218 3138.58)" fill="#FFFFFF"/>
<use xlink:href="#path18_stroke" transform="translate(230.218 3138.58)" fill="#4E4D74"/>
</g>
<g id="Vector">
<use xlink:href="#path19_fill" transform="translate(303.083 3197.27)" fill="#FFFFFF"/>
<use xlink:href="#path20_stroke" transform="translate(303.083 3197.27)" fill="#4E4D74"/>
</g>
<g id="Vector">
<use xlink:href="#path21_fill" transform="translate(329.122 3255.73)" fill="#FFFFFF"/>
<use xlink:href="#path22_stroke" transform="translate(329.122 3255.73)" fill="#4E4D74"/>
</g>
<g id="Vector">
<use xlink:href="#path23_fill" transform="translate(421.137 3364.46)" fill="#FFFFFF"/>
<use xlink:href="#path24_stroke" transform="translate(421.137 3364.46)" fill="#4E4D74"/>
</g>
<g id="Vector">
<use xlink:href="#path25_fill" transform="translate(318.38 3325.41)" fill="#FFFFFF"/>
<use xlink:href="#path26_stroke" transform="translate(318.38 3325.41)" fill="#4E4D74"/>
</g>
<g id="Vector">
<use xlink:href="#path27_fill" transform="translate(354.111 3378.49)" fill="#FFFFFF"/>
<use xlink:href="#path28_stroke" transform="translate(354.111 3378.49)" fill="#4E4D74"/>
</g>
<g id="Vector">
<use xlink:href="#path29_fill" transform="translate(240.728 3329.27)" fill="#FFFFFF"/>
<use xlink:href="#path30_stroke" transform="translate(240.728 3329.27)" fill="#4E4D74"/>
</g>
<g id="Vector">
<use xlink:href="#path31_fill" transform="translate(393.112 3136.59)" fill="#FFFFFF"/>
<use xlink:href="#path32_stroke" transform="translate(393.112 3136.59)" fill="#4E4D74"/>
</g>
<g id="Vector">
<use xlink:href="#path33_fill" transform="translate(354.111 3074.86)" fill="#FFFFFF"/>
<use xlink:href="#path34_stroke" transform="translate(354.111 3074.86)" fill="#4E4D74"/>
</g>
<g id="Vector">
<use xlink:href="#path35_fill" transform="translate(436.317 3227.44)" fill="#FFFFFF"/>
<use xlink:href="#path36_stroke" transform="translate(436.317 3227.44)" fill="#4E4D74"/>
</g>
<g id="Vector">
<use xlink:href="#path33_fill" transform="translate(376.298 3202.88)" fill="#FFFFFF"/>
<use xlink:href="#path34_stroke" transform="translate(376.298 3202.88)" fill="#4E4D74"/>
</g>
<g id="Vector">
<use xlink:href="#path37_fill" transform="translate(467.495 3329.27)" fill="#FFFFFF"/>
<use xlink:href="#path38_stroke" transform="translate(467.495 3329.27)" fill="#4E4D74"/>
</g>
<g id="Vector">
<use xlink:href="#path39_fill" transform="translate(506.613 3227.44)" fill="#FFFFFF"/>
<use xlink:href="#path40_stroke" transform="translate(506.613 3227.44)" fill="#4E4D74"/>
</g>
<g id="Vector">
<use xlink:href="#path41_fill" transform="translate(489.214 3156.82)" fill="#FFFFFF"/>
<use xlink:href="#path42_stroke" transform="translate(489.214 3156.82)" fill="#4E4D74"/>
</g>
<g id="Vector">
<use xlink:href="#path29_fill" transform="translate(240.728 3256.2)" fill="#FFFFFF"/>
<use xlink:href="#path30_stroke" transform="translate(240.728 3256.2)" fill="#4E4D74"/>
</g>
<g id="Vector">
<use xlink:href="#path43_stroke" transform="translate(244.698 3154.36)" fill="#4E4D74"/>
</g>
<g id="Vector">
<use xlink:href="#path44_stroke" transform="translate(257.075 3211.77)" fill="#4E4D74"/>
</g>
<g id="Vector">
<use xlink:href="#path45_stroke" transform="translate(249.602 3274.09)" fill="#4E4D74"/>
</g>
<g id="Vector">
<use xlink:href="#path46_stroke" transform="translate(254.156 3214.34)" fill="#4E4D74"/>
</g>
<g id="Vector">
<use xlink:href="#path47_stroke" transform="translate(210.601 3236.09)" fill="#4E4D74"/>
</g>
<g id="Vector">
<use xlink:href="#path48_stroke" transform="translate(318.847 3152.49)" fill="#4E4D74"/>
</g>
<g id="Vector">
<use xlink:href="#path49_stroke" transform="translate(410.861 3145.48)" fill="#4E4D74"/>
</g>
<g id="Vector">
<use xlink:href="#path50_stroke" transform="translate(449.979 3173.3)" fill="#4E4D74"/>
</g>
<g id="Vector">
<use xlink:href="#path51_stroke" transform="translate(448.812 3244.51)" fill="#4E4D74"/>
</g>
<g id="Vector">
<use xlink:href="#path52_stroke" transform="translate(406.658 3153.08)" fill="#4E4D74"/>
</g>
<g id="Vector">
<use xlink:href="#path53_stroke" transform="translate(320.365 3209.08)" fill="#4E4D74"/>
</g>
<g id="Vector">
<use xlink:href="#path54_stroke" transform="translate(388.558 3154.25)" fill="#4E4D74"/>
</g>
<g id="Vector">
<use xlink:href="#path55_stroke" transform="translate(257.542 3270.81)" fill="#4E4D74"/>
</g>
<g id="Vector">
<use xlink:href="#path56_stroke" transform="translate(345.937 3268.59)" fill="#4E4D74"/>
</g>
<g id="Vector">
<use xlink:href="#path57_fill" transform="translate(201.726 3227.2)" fill="#FFFFFF"/>
<use xlink:href="#path58_stroke" transform="translate(201.726 3227.2)" fill="#4E4D74"/>
</g>
<g id="Vector">
<use xlink:href="#path59_stroke" transform="translate(454.066 3236.32)" fill="#4E4D74"/>
</g>
<g id="Vector">
<use xlink:href="#path60_stroke" transform="translate(392.412 3216.91)" fill="#4E4D74"/>
</g>
<g id="Vector">
<use xlink:href="#path61_stroke" transform="translate(316.395 3213.87)" fill="#4E4D74"/>
</g>
<g id="Vector">
<use xlink:href="#path62_stroke" transform="translate(343.952 3218.43)" fill="#4E4D74"/>
</g>
<g id="Vector">
<use xlink:href="#path63_stroke" transform="translate(343.018 3271.98)" fill="#4E4D74"/>
</g>
<g id="Vector">
<use xlink:href="#path64_stroke" transform="translate(329.122 3273.39)" fill="#4E4D74"/>
</g>
<g id="Vector">
<use xlink:href="#path65_stroke" transform="translate(258.477 3334.3)" fill="#4E4D74"/>
</g>
<g id="Vector">
<use xlink:href="#path66_stroke" transform="translate(331.575 3342.13)" fill="#4E4D74"/>
</g>
<g id="Vector">
<use xlink:href="#path67_stroke" transform="translate(367.073 3091.69)" fill="#4E4D74"/>
</g>
</g>
<g id="Group">
<g id="Group">
<g id="Vector">
<use xlink:href="#path68_fill" transform="translate(387.391 3270.7)" fill="#9999CC"/>
<use xlink:href="#path69_stroke" transform="translate(387.391 3270.7)" fill="#67679A"/>
</g>
<g id="Vector">
<use xlink:href="#path70_fill" transform="matrix(0.592214 -0.805757 0.805042 0.593185 386.064 3288.81)" fill="#FFFFFF"/>
<use xlink:href="#path71_stroke" transform="matrix(0.592214 -0.805757 0.805042 0.593185 386.064 3288.81)" fill="#67679A"/>
</g>
<g id="Vector">
<use xlink:href="#path72_stroke" transform="translate(389.726 3291.51)" fill="#67679A"/>
</g>
<g id="Vector">
<use xlink:href="#path73_stroke" transform="translate(396.265 3301.56)" fill="#67679A"/>
</g>
<g id="Vector">
<use xlink:href="#path74_stroke" transform="translate(406.074 3309.75)" fill="#67679A"/>
</g>
<g id="Vector">
<use xlink:href="#path75_stroke" transform="translate(418.218 3314.54)" fill="#67679A"/>
</g>
</g>
</g>
<g id="Group">
<g id="Group">
<g id="Vector">
<use xlink:href="#path76_fill" transform="translate(291.873 3110.75)" fill="#9999CC"/>
<use xlink:href="#path77_stroke" transform="translate(291.873 3110.75)" fill="#67679A"/>
</g>
<g id="Vector">
<use xlink:href="#path78_fill" transform="matrix(0.548116 -0.836418 0.835782 0.549084 273.187 3151.35)" fill="#FFFFFF"/>
<use xlink:href="#path79_stroke" transform="matrix(0.548116 -0.836418 0.835782 0.549084 273.187 3151.35)" fill="#67679A"/>
</g>
<g id="Vector">
<use xlink:href="#path80_stroke" transform="translate(312.541 3163.37)" fill="#67679A"/>
</g>
<g id="Vector">
<use xlink:href="#path81_stroke" transform="translate(322.233 3156.35)" fill="#67679A"/>
</g>
<g id="Vector">
<use xlink:href="#path82_stroke" transform="translate(329.823 3146.06)" fill="#67679A"/>
</g>
<g id="Vector">
<use xlink:href="#path83_stroke" transform="translate(334.027 3133.67)" fill="#67679A"/>
</g>
</g>
</g>
<g id="Group">
<g id="Vector">
<use xlink:href="#path84_fill" transform="translate(347.455 2966.83)" fill="#9999CC"/>
<use xlink:href="#path85_stroke" transform="translate(347.455 2966.83)" fill="#4E4D74"/>
</g>
<g id="Vector">
<use xlink:href="#path86_fill" transform="matrix(0.963313 -0.268214 0.267586 0.963487 326.012 2977.23)" fill="#FFFFFF"/>
<use xlink:href="#path87_stroke" transform="matrix(0.963313 -0.268214 0.267586 0.963487 326.012 2977.23)" fill="#4E4D74"/>
</g>
<g id="Vector">
<use xlink:href="#path88_stroke" transform="translate(377.815 3012.42)" fill="#4E4D74"/>
</g>
<g id="Vector">
<use xlink:href="#path89_stroke" transform="translate(378.866 3000.5)" fill="#4E4D74"/>
</g>
<g id="Vector">
<use xlink:href="#path90_stroke" transform="translate(376.181 2987.99)" fill="#4E4D74"/>
</g>
<g id="Vector">
<use xlink:href="#path91_stroke" transform="translate(369.642 2976.65)" fill="#4E4D74"/>
</g>
</g>
</g>
</g>
</g>
<defs>
<radialGradient id="paint0_radial" cx="0.5" cy="0.5" r="0.5" gradientUnits="userSpaceOnUse" gradientTransform="matrix(905.507 0 0 906.652 130.722 -189.312)">
<stop offset="0" stop-color="#8991C8"/>
<stop offset="1" stop-color="#8991C8" stop-opacity="0.1"/>
</radialGradient>
<path id="path0_fill" d="M 1166.3 421.371L 1120.99 434.232C 1120.64 431.426 1118.19 429.205 1115.27 429.205C 1114.45 429.205 1113.64 429.438 1112.94 429.672L 1050.58 345.141C 1051.51 344.322 1052.21 343.153 1052.45 341.75L 1165.72 358.82L 1165.83 357.651L 1052.45 340.581C 1052.45 339.646 1052.21 338.827 1051.75 338.009L 1137.11 287.267C 1138.04 288.085 1139.33 288.553 1140.73 288.553C 1142.6 288.553 1144.35 287.617 1145.4 286.214L 1165.37 299.192L 1165.95 298.257L 1145.98 285.279C 1146.33 284.577 1146.57 283.759 1146.57 282.824C 1146.57 280.485 1145.16 278.498 1143.18 277.562L 1167 214.895L 1165.95 214.427L 1142.01 277.212C 1141.54 277.095 1141.19 277.095 1140.73 277.095C 1139.33 277.095 1138.16 277.562 1137.11 278.381L 1041.71 221.559C 1041.82 221.091 1041.94 220.624 1041.94 220.039C 1041.94 219.454 1041.82 218.987 1041.71 218.519L 1165.83 176.429L 1165.48 175.376L 1041.36 217.467C 1040.89 216.531 1040.19 215.713 1039.25 215.245L 1115.85 91.1957C 1116.44 91.4296 1117.14 91.5465 1117.84 91.5465C 1119.59 91.5465 1121.11 90.7281 1122.16 89.5589L 1165.25 139.249L 1166.07 138.43L 1122.74 88.5066C 1123.21 87.6882 1123.56 86.636 1123.56 85.5837C 1123.56 85.116 1123.44 84.5314 1123.33 84.0638L 1166.42 76.4641L 1166.18 75.295L 1122.86 83.0115C 1122.04 81.3747 1120.41 80.0886 1118.54 79.8547L 1147.15 0.701506L 1146.1 0.350753L 1117.37 79.8547C 1115.27 79.9717 1113.52 81.2578 1112.7 83.0115L 975.497 46.7671C 975.497 46.5332 975.497 46.4163 975.497 46.1825C 975.497 44.8964 975.147 43.7272 974.446 42.7918L 1028.74 0.935341L 1028.04 4.93258e-15L 973.746 41.8565C 972.695 40.9212 971.293 40.2197 969.775 40.2197C 969.191 40.2197 968.724 40.3366 968.141 40.4535L 941.984 0.116918L 941.05 0.701506L 967.09 40.9212C 965.338 41.8565 964.17 43.6103 964.054 45.5979L 842.73 91.6634C 841.912 90.9619 840.744 90.3773 839.577 90.2604L 853.005 0.584588L 851.838 0.467671L 838.409 90.2604C 837.241 90.3773 836.19 90.845 835.373 91.4296L 772.784 0.116918L 771.85 0.818423L 834.556 92.248C 833.855 93.1833 833.271 94.2356 833.154 95.5217L 763.092 106.98C 762.742 104.291 760.64 102.186 757.954 101.835L 751.182 0.467671L 750.014 0.584588L 756.787 101.952C 755.269 102.069 753.984 102.888 753.05 103.94L 675.515 39.752C 675.632 39.2843 675.748 38.6997 675.748 38.2321C 675.748 36.7121 675.164 35.1922 674.114 34.1399L 699.336 0.935341L 698.285 0.116918L 673.063 33.3215C 672.128 32.7369 670.961 32.2693 669.793 32.2693C 668.509 32.2693 667.458 32.62 666.523 33.3215L 637.798 0.116918L 636.864 0.818423L 665.589 34.1399C 664.655 35.0753 664.188 36.2445 664.071 37.6475L 553.257 48.9885C 553.023 48.4039 552.673 47.8193 552.322 47.2347L 578.712 0.818423L 577.661 0.233835L 551.505 46.4163C 550.454 45.5979 549.286 45.1302 547.885 45.1302C 546.484 45.1302 545.199 45.5979 544.148 46.5332L 511.103 0.116918L 510.168 0.818423L 543.331 47.2347C 542.514 48.287 542.047 49.4562 542.047 50.8592C 542.047 51.093 542.047 51.2099 542.047 51.4438L 480.042 62.9017C 479.224 60.6802 477.122 59.1603 474.67 59.1603C 473.853 59.1603 473.152 59.2772 472.452 59.628L 436.954 0.116918L 435.903 0.701506L 471.284 59.9787C 470.7 60.3295 470.233 60.7972 469.883 61.3818L 346.457 43.6103C 346.807 42.7919 347.041 41.9734 347.041 41.0381C 347.041 39.752 346.574 38.4659 345.873 37.5306L 378.569 0.818423L 377.751 0L 345.172 36.7121C 344.121 35.7768 342.837 35.1922 341.319 35.1922C 339.567 35.1922 338.049 36.0106 336.998 37.1798L 287.605 4.93258e-15L 286.904 0.935341L 336.181 38.2321C 335.714 39.0505 335.364 40.1027 335.364 41.155C 335.364 41.7396 335.48 42.3242 335.714 42.9088L 236.693 85.8175C 235.642 84.4145 234.007 83.4792 232.139 83.4792C 231.205 83.4792 230.271 83.713 229.453 84.1807L 179.943 0.116918L 178.892 0.701506L 228.285 84.8822C 227.468 85.4668 226.884 86.4021 226.534 87.3375L 116.42 91.4296C 115.719 89.3251 113.968 87.6882 111.632 87.3375L 140.241 0.584588L 139.19 0.233835L 110.464 87.3375C 107.662 87.5713 105.327 89.7927 105.093 92.5988L 0.23354 122.413L 0.58385 123.582L 105.21 93.8849C 105.56 96.6909 108.012 98.9123 110.932 98.9123C 111.749 98.9123 112.566 98.6785 113.267 98.4446L 175.622 182.976C 174.688 183.795 173.987 184.964 173.754 186.367L 0.46708 160.177L 0.35031 161.346L 173.754 187.419C 173.754 188.354 173.987 189.173 174.454 189.991L 89.0956 240.733C 88.1614 239.915 86.8769 239.447 85.4757 239.447C 83.6074 239.447 81.8558 240.383 80.8049 241.786L 0.70062 189.991L 0.11677 190.926L 80.221 242.721C 79.8707 243.423 79.6372 244.241 79.6372 245.176C 79.6372 247.515 81.0384 249.502 83.0235 250.438L 42.154 359.405C 41.6869 359.288 41.3366 359.288 40.8695 359.288C 39.3515 359.288 37.8335 359.872 36.8993 360.925L 0.93416 321.173L 0 321.991L 36.0819 361.86C 35.3813 362.795 35.031 363.965 35.031 365.134C 35.031 366.771 35.7316 368.174 36.7826 369.226L 0 407.341L 0.81739 408.159L 37.7167 370.044C 38.6509 370.629 39.7018 370.98 40.8695 370.98C 41.6869 370.98 42.3875 370.863 43.0882 370.512L 103.341 439.61C 102.874 440.429 102.524 441.481 102.524 442.533C 102.524 443.001 102.641 443.585 102.758 444.053L 0.35031 462.175L 0.58385 463.345L 103.225 445.105C 104.042 446.742 105.677 448.028 107.545 448.262L 78.9366 527.415L 79.9875 527.766L 108.713 448.262C 110.815 448.145 112.566 446.859 113.384 445.105L 250.589 481.35C 250.589 481.584 250.589 481.701 250.589 481.934C 250.589 483.221 250.939 484.39 251.639 485.325L 197.341 527.065L 198.042 528L 252.34 486.143C 253.391 487.079 254.792 487.78 256.31 487.78C 256.894 487.78 257.361 487.663 257.945 487.547L 284.102 527.883L 285.036 527.298L 258.996 487.079C 260.748 486.143 261.915 484.39 262.032 482.402L 383.356 436.453C 384.173 437.155 385.341 437.74 386.509 437.857L 373.08 527.532L 374.248 527.649L 387.677 437.74C 388.844 437.623 389.895 437.155 390.713 436.57L 453.301 527.883L 454.236 527.182L 391.53 435.752C 392.231 434.934 392.698 433.764 392.814 432.595L 450.382 434.7C 450.616 437.506 452.834 439.727 455.637 439.961L 474.904 527.649L 476.072 527.415L 456.804 439.961C 458.323 439.727 459.607 439.026 460.541 437.857L 550.571 488.365C 550.454 488.833 550.337 489.3 550.337 489.885C 550.337 491.405 550.921 492.925 551.972 493.977L 526.75 527.182L 527.684 527.883L 552.906 494.678C 553.84 495.263 555.008 495.731 556.176 495.731C 557.46 495.731 558.511 495.38 559.445 494.678L 588.171 527.883L 589.105 527.182L 560.38 493.977C 561.314 493.042 561.781 491.872 561.898 490.469L 672.712 479.128C 672.946 479.713 673.296 480.298 673.646 480.882L 647.607 527.298L 648.658 527.883L 674.814 481.701C 675.865 482.519 677.033 482.987 678.434 482.987C 679.835 482.987 681.12 482.519 682.171 481.584L 715.217 527.883L 716.151 527.182L 682.988 480.765C 683.689 479.83 684.156 478.778 684.273 477.608L 729.696 467.32C 730.747 468.723 732.499 469.658 734.367 469.658C 735.184 469.658 736.002 469.424 736.702 469.19L 789.366 527.883L 790.183 527.065L 737.753 468.606C 738.22 468.255 738.687 467.787 739.154 467.203L 879.862 484.273C 879.512 485.091 879.279 485.91 879.279 486.845C 879.279 488.131 879.746 489.417 880.446 490.353L 847.751 527.065L 848.568 527.883L 881.147 491.171C 882.198 492.106 883.482 492.691 885 492.691C 886.752 492.691 888.27 491.872 889.321 490.703L 938.598 528L 939.298 527.065L 890.021 489.768C 890.488 488.949 890.839 487.897 890.839 486.845C 890.839 486.26 890.722 485.676 890.488 485.091L 989.51 442.182C 990.56 443.585 992.195 444.521 994.063 444.521C 994.998 444.521 995.932 444.287 996.749 443.819L 1046.03 527.883L 1047.08 527.298L 997.683 443.118C 998.501 442.533 999.085 441.598 999.435 440.663L 1109.55 436.57C 1110.25 438.675 1112 440.312 1114.34 440.663L 1085.73 527.415L 1086.78 527.766L 1115.5 440.663C 1118.31 440.429 1120.64 438.207 1120.88 435.401L 1166.42 422.54L 1166.3 421.371ZM 1046.73 345.375C 1044.16 345.375 1042.06 343.27 1042.06 340.698C 1042.06 338.126 1044.16 336.021 1046.73 336.021C 1049.3 336.021 1051.4 338.126 1051.4 340.698C 1051.4 343.27 1049.3 345.375 1046.73 345.375ZM 1041.12 339.178L 973.862 321.874C 974.096 321.29 974.213 320.588 974.213 320.004C 974.213 316.847 971.644 314.158 968.374 314.158C 967.44 314.158 966.622 314.392 965.805 314.742L 930.307 266.105C 931.008 265.169 931.475 264 931.475 262.714C 931.475 262.48 931.475 262.246 931.358 262.012L 1032.13 224.248C 1033.06 225.183 1034.23 225.651 1035.63 225.768L 1046.03 335.086C 1043.69 335.32 1041.71 336.957 1041.12 339.178ZM 990.21 434.466L 912.441 376.475C 913.492 375.422 914.076 374.02 914.076 372.5C 914.076 371.681 913.842 370.863 913.492 370.161L 964.871 324.68C 965.805 325.382 966.973 325.849 968.257 325.849C 968.608 325.849 968.958 325.849 969.308 325.733L 991.962 433.297C 991.495 433.531 990.794 433.881 990.21 434.466ZM 885 481.116C 884.416 481.116 883.833 481.233 883.365 481.35L 811.902 405.003C 813.07 404.067 813.887 402.664 814.004 401.027L 903.917 376.007C 904.734 377.059 905.785 377.761 906.953 378.112L 885.584 481.116C 885.234 481.116 885.117 481.116 885 481.116ZM 803.495 400.56C 803.495 397.988 805.597 395.883 808.166 395.883C 810.734 395.883 812.836 397.988 812.836 400.56C 812.836 403.132 810.734 405.236 808.166 405.236C 805.597 405.236 803.495 403.132 803.495 400.56ZM 763.092 108.149L 833.154 96.6909C 833.505 99.2631 835.49 101.368 838.059 101.718L 795.321 201.917C 794.971 201.8 794.62 201.8 794.27 201.8C 793.219 201.8 792.168 202.151 791.234 202.618L 759.823 112.709C 761.691 111.89 762.859 110.136 763.092 108.149ZM 972.344 51.2099L 1027.58 126.388C 1026.53 127.206 1025.71 128.376 1025.36 129.779L 924.352 129.779C 924.001 128.376 923.184 127.206 922.133 126.388L 968.141 51.6776C 968.608 51.7945 969.191 51.9114 969.775 51.9114C 970.709 51.9114 971.527 51.6776 972.344 51.2099ZM 1035.63 131.065C 1035.63 133.637 1033.53 135.741 1030.96 135.741C 1028.39 135.741 1026.29 133.637 1026.29 131.065C 1026.29 128.492 1028.39 126.388 1030.96 126.388C 1033.53 126.388 1035.63 128.492 1035.63 131.065ZM 929.256 258.154L 951.91 197.357C 952.493 197.591 953.194 197.708 953.895 197.708C 955.646 197.708 957.281 196.889 958.332 195.603L 1030.73 218.402C 1030.61 218.87 1030.5 219.454 1030.5 219.922C 1030.5 221.091 1030.85 222.26 1031.43 223.196L 931.241 260.843C 930.774 259.674 930.19 258.739 929.256 258.154ZM 908.938 366.771L 924.936 268.443C 925.169 268.443 925.403 268.56 925.753 268.56C 927.271 268.56 928.555 267.975 929.606 267.04L 964.871 315.444C 963.47 316.496 962.536 318.133 962.536 320.004C 962.536 321.523 963.119 322.81 964.054 323.862L 912.908 369.109C 912.091 367.823 910.573 367.004 908.938 366.771ZM 813.771 399.858C 813.537 398.338 812.836 396.935 811.669 396.117L 862.931 305.973C 863.631 306.324 864.449 306.558 865.383 306.558C 867.018 306.558 868.419 305.973 869.47 304.921L 904.851 368.057C 903.45 369.109 902.633 370.746 902.633 372.616C 902.633 373.552 902.866 374.37 903.216 375.072L 813.771 399.858ZM 799.875 209.049L 873.09 210.569C 872.739 211.27 872.506 212.089 872.506 213.024C 872.506 215.83 874.374 218.051 876.943 218.636L 865.616 294.866C 865.5 294.866 865.383 294.866 865.266 294.866C 863.865 294.866 862.58 295.334 861.646 296.152L 797.539 212.439C 798.707 211.621 799.641 210.452 799.875 209.049ZM 918.747 126.388C 921.316 126.388 923.418 128.492 923.418 131.065C 923.418 133.637 921.316 135.741 918.747 135.741C 916.178 135.741 914.076 133.637 914.076 131.065C 914.076 128.492 916.178 126.388 918.747 126.388ZM 924.585 130.831L 1025.24 130.831L 1025.24 130.948C 1025.24 132.234 1025.71 133.403 1026.41 134.338L 957.281 187.068C 956.347 186.367 955.179 185.899 953.895 185.899C 953.194 185.899 952.493 186.016 951.793 186.25L 922.133 135.624C 923.651 134.572 924.585 132.818 924.585 130.948C 924.585 130.948 924.585 130.948 924.585 130.831ZM 953.895 196.539C 951.326 196.539 949.224 194.434 949.224 191.862C 949.224 189.29 951.326 187.185 953.895 187.185C 956.464 187.185 958.565 189.29 958.565 191.862C 958.565 194.434 956.464 196.539 953.895 196.539ZM 925.753 256.868C 924.702 256.868 923.885 257.102 923.067 257.57L 883.365 215.947C 883.949 215.012 884.3 213.959 884.3 212.907C 884.3 211.972 884.066 211.036 883.599 210.335L 948.64 194.2C 949.107 195.252 949.924 196.188 950.975 196.772L 928.322 257.453C 927.505 257.102 926.687 256.868 925.753 256.868ZM 918.747 136.794C 919.564 136.794 920.382 136.56 921.082 136.326L 950.742 186.951C 949.107 188.004 947.939 189.757 947.939 191.862C 947.939 192.329 947.939 192.68 948.056 193.148L 882.782 209.283C 882.198 208.581 881.497 207.996 880.68 207.646L 916.645 136.443C 917.346 136.677 918.046 136.794 918.747 136.794ZM 883.015 212.907C 883.015 215.479 880.913 217.584 878.344 217.584C 875.775 217.584 873.674 215.479 873.674 212.907C 873.674 210.335 875.775 208.23 878.344 208.23C 880.913 208.23 883.015 210.335 883.015 212.907ZM 865.383 295.919C 867.952 295.919 870.054 298.023 870.054 300.595C 870.054 303.167 867.952 305.272 865.383 305.272C 862.814 305.272 860.712 303.167 860.712 300.595C 860.712 298.023 862.814 295.919 865.383 295.919ZM 905.669 367.355L 870.17 303.869C 870.754 302.934 871.105 301.764 871.105 300.595C 871.105 297.906 869.236 295.568 866.667 294.983L 878.111 218.753L 878.228 218.753C 879.862 218.753 881.38 218.051 882.431 216.882L 921.9 258.154C 920.615 259.206 919.798 260.843 919.798 262.597C 919.798 265.169 921.433 267.274 923.651 268.092L 907.654 366.654C 907.07 366.771 906.369 367.004 905.669 367.355ZM 925.753 267.274C 923.184 267.274 921.082 265.169 921.082 262.597C 921.082 260.025 923.184 257.92 925.753 257.92C 928.322 257.92 930.424 260.025 930.424 262.597C 930.424 265.169 928.322 267.274 925.753 267.274ZM 1031.08 217.233L 959.032 194.551C 959.5 193.732 959.733 192.797 959.733 191.862C 959.733 190.342 959.149 188.939 958.215 188.004L 1027.23 135.391C 1028.16 136.209 1029.33 136.677 1030.61 136.911L 1034.82 214.544C 1033.06 214.778 1031.78 215.83 1031.08 217.233ZM 921.082 125.686C 920.382 125.336 919.564 125.219 918.747 125.219C 916.995 125.219 915.477 125.92 914.426 127.089L 844.481 97.5093C 844.598 97.0416 844.715 96.574 844.715 95.9894C 844.715 94.7033 844.248 93.5341 843.547 92.4818L 964.054 46.7671C 964.287 48.6377 965.455 50.2746 967.09 51.093L 921.082 125.686ZM 844.131 98.5616L 913.842 128.025C 913.375 128.843 913.025 129.895 913.025 130.948C 913.025 133.052 914.076 134.806 915.711 135.858L 879.629 207.178C 879.279 207.061 878.811 207.061 878.344 207.061C 876.476 207.061 874.841 207.996 873.79 209.283L 799.992 207.763L 799.992 207.646C 799.992 205.19 798.474 203.086 796.372 202.267L 839.226 101.718C 841.445 101.601 843.197 100.432 844.131 98.5616ZM 794.27 202.969C 796.839 202.969 798.941 205.074 798.941 207.646C 798.941 210.218 796.839 212.322 794.27 212.322C 791.701 212.322 789.599 210.218 789.599 207.646C 789.599 205.074 791.701 202.969 794.27 202.969ZM 794.27 213.492C 795.087 213.492 795.905 213.375 796.605 213.024L 860.946 296.854C 860.128 297.906 859.544 299.192 859.544 300.595C 859.544 300.946 859.544 301.297 859.661 301.647L 789.015 334.618C 788.198 332.748 786.446 331.461 784.344 331.228L 793.336 213.375C 793.569 213.492 793.92 213.492 794.27 213.492ZM 783.761 332.397C 786.33 332.397 788.431 334.501 788.431 337.073C 788.431 339.646 786.33 341.75 783.761 341.75C 781.192 341.75 779.09 339.646 779.09 337.073C 779.09 334.501 781.192 332.397 783.761 332.397ZM 789.599 336.957C 789.599 336.489 789.482 336.021 789.482 335.671L 860.011 302.817C 860.479 303.869 861.062 304.687 861.997 305.272L 810.734 395.415C 809.917 395.065 809.1 394.714 808.166 394.714C 807.582 394.714 807.115 394.831 806.648 394.948L 785.746 342.452C 787.848 341.75 789.599 339.529 789.599 336.957ZM 903.684 372.5C 903.684 369.927 905.785 367.823 908.354 367.823C 910.923 367.823 913.025 369.927 913.025 372.5C 913.025 375.072 910.923 377.176 908.354 377.176C 905.785 377.176 903.684 375.072 903.684 372.5ZM 968.491 324.563C 965.922 324.563 963.82 322.459 963.82 319.887C 963.82 317.314 965.922 315.21 968.491 315.21C 971.06 315.21 973.162 317.314 973.162 319.887C 973.045 322.576 971.06 324.563 968.491 324.563ZM 1145.4 282.824C 1145.4 285.396 1143.3 287.5 1140.73 287.5C 1138.16 287.5 1136.06 285.396 1136.06 282.824C 1136.06 280.252 1138.16 278.147 1140.73 278.147C 1143.3 278.147 1145.4 280.252 1145.4 282.824ZM 1136.29 279.082C 1135.47 280.135 1134.89 281.421 1134.89 282.824C 1134.89 284.227 1135.36 285.513 1136.29 286.565L 1051.16 337.19C 1050.23 336.021 1048.83 335.203 1047.19 335.086L 1036.92 225.651C 1038.9 225.417 1040.54 224.248 1041.47 222.494L 1136.29 279.082ZM 1040.89 219.922C 1040.89 222.494 1038.79 224.599 1036.22 224.599C 1033.65 224.599 1031.55 222.494 1031.55 219.922C 1031.55 217.35 1033.65 215.245 1036.22 215.245C 1038.79 215.245 1040.89 217.35 1040.89 219.922ZM 1038.2 214.544C 1037.62 214.31 1036.92 214.193 1036.22 214.193C 1036.1 214.193 1035.87 214.193 1035.75 214.193L 1031.66 136.794C 1034.58 136.443 1036.92 133.988 1036.92 131.065C 1036.92 130.363 1036.8 129.779 1036.57 129.194L 1112.47 87.3375C 1112.94 88.6236 1113.75 89.6758 1114.92 90.3773L 1038.2 214.544ZM 1117.84 80.907C 1120.41 80.907 1122.51 83.0115 1122.51 85.5837C 1122.51 88.1559 1120.41 90.2604 1117.84 90.2604C 1115.27 90.2604 1113.17 88.1559 1113.17 85.5837C 1113.17 83.0115 1115.27 80.907 1117.84 80.907ZM 1112.23 83.9469C 1112.12 84.4145 1112 84.9991 1112 85.4668C 1112 85.7006 1112 85.9345 1112.12 86.0514L 1035.98 128.025C 1034.93 126.271 1033.18 125.102 1030.96 125.102C 1030.15 125.102 1029.33 125.336 1028.51 125.686L 973.278 50.5084C 974.213 49.8069 974.913 48.7547 975.264 47.7024L 1112.23 83.9469ZM 969.775 41.3888C 972.344 41.3888 974.446 43.4934 974.446 46.0655C 974.446 48.6377 972.344 50.7423 969.775 50.7423C 967.206 50.7423 965.105 48.6377 965.105 46.0655C 965.105 43.4934 967.206 41.3888 969.775 41.3888ZM 838.876 91.3127C 841.445 91.3127 843.547 93.4172 843.547 95.9894C 843.547 98.5616 841.445 100.666 838.876 100.666C 836.307 100.666 834.205 98.5616 834.205 95.9894C 834.205 93.4172 836.307 91.3127 838.876 91.3127ZM 757.371 102.888C 759.94 102.888 762.041 104.992 762.041 107.564C 762.041 110.136 759.94 112.241 757.371 112.241C 754.802 112.241 752.7 110.136 752.7 107.564C 752.7 104.992 754.802 102.888 757.371 102.888ZM 752.233 104.758C 751.882 105.46 751.649 106.161 751.532 106.98L 658.583 97.2755C 658.466 95.4048 657.415 93.8848 655.897 92.9495L 668.625 43.8441C 668.976 43.961 669.443 43.961 669.793 43.961C 672.012 43.961 673.88 42.6749 674.931 40.8043L 752.233 104.758ZM 657.532 97.86C 657.532 100.432 655.43 102.537 652.861 102.537C 650.292 102.537 648.191 100.432 648.191 97.86C 648.191 95.2879 650.292 93.1833 652.861 93.1833C 655.43 93.1833 657.532 95.2879 657.532 97.86ZM 669.793 33.4384C 672.362 33.4384 674.464 35.543 674.464 38.1151C 674.464 40.6873 672.362 42.7918 669.793 42.7918C 667.224 42.7918 665.122 40.6873 665.122 38.1151C 665.122 35.543 667.224 33.4384 669.793 33.4384ZM 664.071 38.6997C 664.305 40.8042 665.706 42.558 667.574 43.3764L 654.846 92.3649C 654.263 92.1311 653.562 92.0142 652.861 92.0142C 649.709 92.0142 647.023 94.5864 647.023 97.86C 647.023 98.3277 647.023 98.6785 647.14 99.0292L 516.124 118.905C 515.773 117.502 514.839 116.333 513.672 115.632L 546.017 56.3543C 546.601 56.5881 547.185 56.705 547.885 56.705C 551.038 56.705 553.724 54.1329 553.724 50.8592C 553.724 50.6253 553.724 50.2746 553.607 50.0407L 664.071 38.6997ZM 387.91 426.282L 402.623 336.606C 402.973 336.606 403.207 336.723 403.557 336.723C 404.725 336.723 405.776 336.372 406.593 335.787L 452.134 430.023C 451.2 430.958 450.616 432.128 450.499 433.531L 392.931 431.426C 392.698 428.737 390.596 426.632 387.91 426.282ZM 253.741 476.79L 198.509 401.612C 199.56 400.794 200.377 399.624 200.728 398.221L 301.734 398.221C 302.084 399.624 302.902 400.794 303.952 401.612L 258.062 476.439C 257.595 476.322 257.011 476.205 256.427 476.205C 255.493 476.205 254.559 476.439 253.741 476.79ZM 111.399 437.623L 188 313.573C 188.584 313.807 189.284 313.924 189.985 313.924C 190.102 313.924 190.335 313.924 190.452 313.924L 194.539 391.323C 191.62 391.674 189.284 394.129 189.284 397.052C 189.284 397.754 189.401 398.338 189.635 398.923L 113.734 440.779C 113.384 439.376 112.566 438.324 111.399 437.623ZM 185.314 308.078C 185.314 305.506 187.416 303.401 189.985 303.401C 192.554 303.401 194.656 305.506 194.656 308.078C 194.656 310.65 192.554 312.755 189.985 312.755C 187.416 312.755 185.314 310.65 185.314 308.078ZM 185.081 188.822L 252.34 206.126C 252.107 206.71 251.99 207.412 251.99 207.996C 251.99 211.153 254.559 213.842 257.828 213.842C 258.762 213.842 259.58 213.608 260.397 213.258L 295.895 261.895C 295.195 262.831 294.728 264 294.728 265.286C 294.728 265.52 294.728 265.754 294.844 265.988L 194.072 303.752C 193.138 302.817 191.97 302.349 190.569 302.232L 180.176 192.914C 182.512 192.797 184.38 191.043 185.081 188.822ZM 235.992 93.5341L 313.761 151.408C 312.71 152.461 312.126 153.864 312.126 155.384C 312.126 156.202 312.36 157.02 312.71 157.722L 261.331 203.203C 260.397 202.501 259.23 202.034 257.945 202.034C 257.595 202.034 257.244 202.034 256.894 202.151L 234.241 94.5864C 234.708 94.4694 235.408 94.1187 235.992 93.5341ZM 341.202 47.0009C 341.786 47.0009 342.37 46.884 342.837 46.7671L 394.683 113.293C 393.515 114.229 392.698 115.748 392.581 117.385L 322.402 151.993C 321.585 151.058 320.651 150.356 319.366 150.005L 340.735 47.0009C 340.852 46.884 341.085 47.0009 341.202 47.0009ZM 424.576 204.372L 366.658 226.586C 366.424 224.95 365.49 223.546 364.206 222.611L 395.967 122.88C 396.785 123.231 397.602 123.465 398.419 123.465C 399.354 123.465 400.171 123.231 400.988 122.88L 428.196 200.864C 426.444 201.566 425.16 202.735 424.576 204.372ZM 397.952 329.474L 352.879 317.665C 353.229 316.847 353.58 316.028 353.58 315.093C 353.58 312.287 351.711 310.066 349.142 309.481L 360.469 233.251C 360.586 233.251 360.703 233.251 360.819 233.251C 361.637 233.251 362.454 233.017 363.155 232.783L 400.405 326.083C 399.237 326.785 398.419 328.071 397.952 329.474ZM 307.456 401.612C 304.887 401.612 302.785 399.508 302.785 396.935C 302.785 394.363 304.887 392.259 307.456 392.259C 310.025 392.259 312.126 394.363 312.126 396.935C 312.01 399.624 309.908 401.612 307.456 401.612ZM 301.617 397.169L 200.961 397.169L 200.961 397.052C 200.961 395.766 200.494 394.597 199.794 393.662L 268.805 340.932C 269.739 341.633 270.907 342.101 272.191 342.101C 272.892 342.101 273.592 341.984 274.293 341.75L 303.952 392.376C 302.434 393.428 301.5 395.182 301.5 397.052C 301.617 397.052 301.617 397.169 301.617 397.169ZM 195.707 391.206L 191.503 313.573C 193.021 313.105 194.305 312.053 195.006 310.65L 267.053 333.332C 266.586 334.151 266.353 335.086 266.353 336.021C 266.353 337.541 266.936 338.944 267.871 339.88L 198.859 392.492C 198.159 391.908 196.991 391.323 195.707 391.206ZM 296.829 269.963L 274.176 330.76C 273.592 330.526 272.892 330.409 272.191 330.409C 270.439 330.409 268.805 331.228 267.754 332.514L 195.356 309.715C 195.473 309.247 195.59 308.663 195.59 308.195C 195.59 307.026 195.24 305.857 194.656 304.921L 294.844 267.274C 295.311 268.326 296.012 269.261 296.829 269.963ZM 317.147 161.229L 301.15 259.557C 300.916 259.557 300.683 259.44 300.333 259.44C 298.815 259.44 297.53 260.025 296.479 260.96L 261.215 212.556C 262.616 211.504 263.55 209.867 263.55 207.996C 263.55 206.477 262.966 205.19 262.032 204.138L 313.177 158.891C 314.111 160.177 315.513 161.112 317.147 161.229ZM 392.698 118.554C 392.931 120.074 393.749 121.36 394.916 122.296L 363.155 222.027C 362.454 221.676 361.637 221.559 360.819 221.559C 359.185 221.559 357.783 222.143 356.733 223.196L 321.351 160.06C 322.752 159.008 323.57 157.371 323.57 155.5C 323.57 154.565 323.336 153.747 322.986 152.928L 392.698 118.554ZM 320.417 160.645L 355.915 224.131C 355.331 225.066 354.981 226.236 354.981 227.405C 354.981 230.094 356.849 232.432 359.418 233.017L 347.975 309.247L 347.858 309.247C 346.223 309.247 344.705 309.949 343.654 311.118L 304.186 269.846C 305.47 268.794 306.288 267.157 306.288 265.403C 306.288 262.831 304.653 260.726 302.434 259.908L 318.432 161.346C 319.133 161.229 319.833 160.996 320.417 160.645ZM 275.344 331.228L 297.88 270.547C 298.698 270.898 299.515 271.132 300.449 271.132C 301.5 271.132 302.318 270.898 303.135 270.43L 342.837 312.053C 342.253 312.988 341.903 314.041 341.903 315.093C 341.903 316.028 342.136 316.964 342.603 317.665L 277.562 333.8C 277.095 332.748 276.278 331.812 275.344 331.228ZM 272.308 340.932C 269.739 340.932 267.637 338.827 267.637 336.255C 267.637 333.683 269.739 331.578 272.308 331.578C 274.877 331.578 276.979 333.683 276.979 336.255C 276.979 338.827 274.877 340.932 272.308 340.932ZM 300.449 260.726C 303.018 260.726 305.12 262.831 305.12 265.403C 305.12 267.975 303.018 270.08 300.449 270.08C 297.88 270.08 295.779 267.975 295.779 265.403C 295.779 262.831 297.88 260.726 300.449 260.726ZM 307.456 391.206C 306.638 391.206 305.821 391.44 305.12 391.674L 275.461 341.049C 277.095 339.996 278.263 338.243 278.263 336.138C 278.263 335.671 278.263 335.32 278.146 334.852L 343.421 318.601C 344.005 319.302 344.705 319.887 345.523 320.237L 309.441 391.557C 308.857 391.323 308.156 391.206 307.456 391.206ZM 343.187 315.093C 343.187 312.521 345.289 310.416 347.858 310.416C 350.427 310.416 352.529 312.521 352.529 315.093C 352.529 317.665 350.427 319.77 347.858 319.77C 345.289 319.77 343.187 317.665 343.187 315.093ZM 360.819 232.081C 358.251 232.081 356.149 229.977 356.149 227.405C 356.149 224.833 358.251 222.728 360.819 222.728C 363.388 222.728 365.49 224.833 365.49 227.405C 365.49 229.977 363.388 232.081 360.819 232.081ZM 398.419 122.413C 395.851 122.413 393.749 120.308 393.749 117.736C 393.749 115.164 395.851 113.059 398.419 113.059C 400.988 113.059 403.09 115.164 403.09 117.736C 403.09 120.308 400.988 122.413 398.419 122.413ZM 322.519 155.5C 322.519 158.073 320.417 160.177 317.848 160.177C 315.279 160.177 313.177 158.073 313.177 155.5C 313.177 152.928 315.279 150.824 317.848 150.824C 320.417 150.824 322.519 152.928 322.519 155.5ZM 257.712 203.437C 260.28 203.437 262.382 205.541 262.382 208.113C 262.382 210.686 260.28 212.79 257.712 212.79C 255.143 212.79 253.041 210.686 253.041 208.113C 253.041 205.541 255.143 203.437 257.712 203.437ZM 190.452 397.052C 190.452 394.48 192.554 392.376 195.123 392.376C 197.692 392.376 199.794 394.48 199.794 397.052C 199.794 399.624 197.692 401.729 195.123 401.729C 192.554 401.729 190.452 399.624 190.452 397.052ZM 305.003 402.314C 305.704 402.664 306.521 402.781 307.339 402.781C 309.09 402.781 310.608 402.08 311.659 400.911L 381.605 430.491C 381.488 430.958 381.371 431.426 381.371 432.011C 381.371 433.297 381.838 434.466 382.539 435.518L 262.032 481.233C 261.798 479.362 260.631 477.842 258.996 476.907L 305.003 402.314ZM 382.072 429.438L 312.36 399.975C 312.827 399.157 313.177 398.105 313.177 397.052C 313.177 394.948 312.126 393.194 310.492 392.142L 346.574 320.822C 346.924 320.939 347.391 320.939 347.858 320.939C 349.726 320.939 351.244 320.12 352.295 318.834L 397.836 330.76C 397.836 330.877 397.836 330.994 397.836 330.994C 397.836 333.449 399.354 335.554 401.572 336.489L 386.742 426.399C 384.757 426.399 383.006 427.685 382.072 429.438ZM 403.674 335.554C 401.105 335.554 399.003 333.449 399.003 330.877C 399.003 328.305 401.105 326.2 403.674 326.2C 406.243 326.2 408.345 328.305 408.345 330.877C 408.345 333.449 406.243 335.554 403.674 335.554ZM 403.674 325.031C 402.857 325.031 402.156 325.148 401.455 325.499L 364.206 232.198C 365.607 231.263 366.541 229.626 366.658 227.872L 424.226 205.658C 424.226 205.892 424.109 206.243 424.109 206.477C 424.109 208.698 425.393 210.569 427.145 211.504L 404.608 325.148C 404.375 325.148 404.024 325.031 403.674 325.031ZM 425.277 206.477C 425.277 203.904 427.378 201.8 429.947 201.8C 432.516 201.8 434.618 203.904 434.618 206.477C 434.618 209.049 432.516 211.153 429.947 211.153C 427.378 211.153 425.277 209.049 425.277 206.477ZM 429.947 200.631C 429.714 200.631 429.48 200.631 429.247 200.748L 401.923 122.296C 403.207 121.244 404.024 119.724 404.141 117.97L 469.299 67.1107C 470.233 69.2152 472.218 70.6182 474.554 70.6182C 475.254 70.6182 475.955 70.5013 476.655 70.2675L 506.198 116.801C 505.381 117.853 504.797 119.139 504.797 120.542C 504.797 121.828 505.264 122.997 505.965 124.05L 432.049 201.098C 431.465 200.864 430.648 200.631 429.947 200.631ZM 505.965 120.542C 505.965 117.97 508.067 115.865 510.635 115.865C 513.204 115.865 515.306 117.97 515.306 120.542C 515.306 123.114 513.204 125.219 510.635 125.219C 508.067 125.219 505.965 122.997 505.965 120.542ZM 547.768 46.1825C 550.337 46.1825 552.439 48.287 552.439 50.8592C 552.439 53.4314 550.337 55.5359 547.768 55.5359C 545.199 55.5359 543.098 53.4314 543.098 50.8592C 543.098 48.287 545.199 46.1825 547.768 46.1825ZM 542.28 52.496C 542.747 53.899 543.681 55.0682 544.966 55.7697L 512.621 115.047C 512.037 114.813 511.336 114.696 510.635 114.696C 509.234 114.696 508.067 115.164 507.016 115.982L 477.706 69.7998C 479.341 68.7476 480.392 66.9938 480.392 64.8893C 480.392 64.5385 480.392 64.3047 480.275 63.9539L 542.28 52.496ZM 474.554 60.2126C 477.122 60.2126 479.224 62.3171 479.224 64.8893C 479.224 67.4615 477.122 69.566 474.554 69.566C 471.985 69.566 469.883 67.4615 469.883 64.8893C 469.883 62.3171 471.985 60.2126 474.554 60.2126ZM 469.299 62.5509C 468.949 63.2524 468.832 64.0709 468.832 64.8893C 468.832 65.24 468.832 65.7077 468.949 66.0585L 404.141 116.684C 403.674 113.995 401.222 112.007 398.419 112.007C 397.485 112.007 396.551 112.241 395.734 112.709L 344.005 46.2994C 344.705 45.9486 345.289 45.364 345.756 44.7794L 469.299 62.5509ZM 341.202 36.4783C 343.771 36.4783 345.873 38.5828 345.873 41.155C 345.873 43.7272 343.771 45.8317 341.202 45.8317C 338.633 45.8317 336.531 43.7272 336.531 41.155C 336.531 38.5828 338.633 36.4783 341.202 36.4783ZM 336.181 43.961C 336.882 45.2471 338.166 46.2994 339.684 46.7671L 318.315 149.771C 318.198 149.771 318.082 149.771 317.965 149.771C 316.797 149.771 315.629 150.122 314.695 150.824L 236.81 92.8326C 237.51 91.8973 237.861 90.7281 237.861 89.442C 237.861 88.5066 237.627 87.6882 237.277 86.8698L 336.181 43.961ZM 232.022 84.6484C 234.591 84.6484 236.693 86.7529 236.693 89.3251C 236.693 91.8973 234.591 94.0018 232.022 94.0018C 229.453 94.0018 227.351 91.8973 227.351 89.3251C 227.351 86.7529 229.453 84.6484 232.022 84.6484ZM 106.261 93.0664C 106.261 90.4942 108.363 88.3897 110.932 88.3897C 113.5 88.3897 115.602 90.4942 115.602 93.0664C 115.602 95.6386 113.5 97.7431 110.932 97.7431C 108.363 97.7431 106.261 95.6386 106.261 93.0664ZM 114.318 97.86C 115.836 96.8078 116.77 95.054 116.77 93.0664C 116.77 92.9495 116.77 92.7157 116.77 92.5988L 226.417 88.5066C 226.417 88.7405 226.3 89.0912 226.3 89.3251C 226.3 92.4818 228.869 95.171 232.139 95.171C 232.372 95.171 232.723 95.171 232.956 95.054L 255.61 202.735C 254.442 203.203 253.508 204.021 252.807 205.074L 185.314 187.653C 185.314 187.536 185.314 187.419 185.314 187.185C 185.314 184.028 182.745 181.339 179.476 181.339C 178.425 181.339 177.49 181.69 176.556 182.158L 114.318 97.86ZM 179.476 182.625C 182.045 182.625 184.146 184.73 184.146 187.302C 184.146 189.874 182.045 191.979 179.476 191.979C 176.907 191.979 174.805 189.874 174.805 187.302C 174.805 184.73 176.907 182.625 179.476 182.625ZM 178.892 193.031L 189.284 302.349C 187.299 302.583 185.664 303.752 184.73 305.506L 89.9129 248.918C 90.7303 247.865 91.3142 246.579 91.3142 245.176C 91.3142 243.773 90.8471 242.487 89.9129 241.435L 175.038 190.81C 175.972 192.096 177.374 192.914 178.892 193.031ZM 80.8049 245.176C 80.8049 242.604 82.9067 240.5 85.4757 240.5C 88.0446 240.5 90.1465 242.604 90.1465 245.176C 90.1465 247.748 88.0446 249.853 85.4757 249.853C 82.9067 249.853 80.8049 247.748 80.8049 245.176ZM 84.1912 250.905C 84.6583 251.022 85.0086 251.022 85.4757 251.022C 86.8769 251.022 88.0446 250.554 89.0956 249.736L 184.497 306.558C 184.38 307.026 184.263 307.493 184.263 308.078C 184.263 308.663 184.38 309.13 184.497 309.715L 46.2409 363.029C 45.6571 361.626 44.6062 360.457 43.2049 359.872L 84.1912 250.905ZM 36.1987 365.134C 36.1987 362.562 38.3006 360.457 40.8695 360.457C 43.4385 360.457 45.5403 362.562 45.5403 365.134C 45.5403 367.706 43.4385 369.81 40.8695 369.81C 38.3006 369.81 36.1987 367.706 36.1987 365.134ZM 44.1391 370.044C 45.6571 368.992 46.708 367.238 46.708 365.251C 46.708 364.9 46.708 364.549 46.5913 364.315L 184.847 310.884C 185.314 311.819 186.015 312.638 186.949 313.105L 110.348 437.038C 109.764 436.804 109.063 436.687 108.363 436.687C 106.611 436.687 105.093 437.506 104.042 438.675L 44.1391 370.044ZM 108.363 447.093C 105.794 447.093 103.692 444.988 103.692 442.416C 103.692 439.844 105.794 437.74 108.363 437.74C 110.932 437.74 113.033 439.844 113.033 442.416C 113.033 444.988 110.815 447.093 108.363 447.093ZM 113.851 444.053C 113.968 443.585 114.084 443.001 114.084 442.533C 114.084 442.299 114.084 442.066 113.968 441.949L 190.102 399.975C 191.153 401.729 192.904 402.898 195.123 402.898C 195.94 402.898 196.758 402.664 197.575 402.314L 252.807 477.492C 251.873 478.193 251.172 479.245 250.822 480.298L 113.851 444.053ZM 256.427 486.611C 253.858 486.611 251.756 484.507 251.756 481.934C 251.756 479.362 253.858 477.258 256.427 477.258C 258.996 477.258 261.098 479.362 261.098 481.934C 261.098 484.507 258.996 486.611 256.427 486.611ZM 387.21 436.687C 384.641 436.687 382.539 434.583 382.539 432.011C 382.539 429.438 384.641 427.334 387.21 427.334C 389.778 427.334 391.88 429.438 391.88 432.011C 391.88 434.583 389.778 436.687 387.21 436.687ZM 456.337 438.792C 453.768 438.792 451.667 436.687 451.667 434.115C 451.667 431.543 453.768 429.438 456.337 429.438C 458.906 429.438 461.008 431.543 461.008 434.115C 461.008 436.687 458.906 438.792 456.337 438.792ZM 556.409 494.562C 553.84 494.562 551.739 492.457 551.739 489.885C 551.739 487.313 553.84 485.208 556.409 485.208C 558.978 485.208 561.08 487.313 561.08 489.885C 561.08 492.457 558.978 494.562 556.409 494.562ZM 678.317 481.818C 675.748 481.818 673.646 479.713 673.646 477.141C 673.646 474.569 675.748 472.464 678.317 472.464C 680.886 472.464 682.988 474.569 682.988 477.141C 682.988 479.713 680.886 481.818 678.317 481.818ZM 684.156 476.439C 683.805 473.516 681.353 471.295 678.434 471.295C 675.281 471.295 672.596 473.867 672.596 477.141C 672.596 477.375 672.596 477.725 672.712 477.959L 562.131 489.3C 561.781 486.377 559.329 484.156 556.409 484.156C 554.191 484.156 552.206 485.442 551.271 487.43L 461.475 437.038C 461.942 436.22 462.176 435.284 462.176 434.349C 462.176 431.192 459.607 428.503 456.337 428.503C 455.17 428.503 454.119 428.854 453.185 429.438L 407.644 335.32C 408.812 334.267 409.513 332.748 409.513 331.111C 409.513 328.655 407.995 326.551 405.776 325.733L 428.313 212.322C 428.896 212.439 429.364 212.556 429.947 212.556C 433.1 212.556 435.786 209.984 435.786 206.71C 435.786 204.723 434.735 202.969 433.217 201.917L 506.782 125.102C 507.833 126.037 509.117 126.622 510.635 126.622C 513.788 126.622 516.474 124.05 516.474 120.776C 516.474 120.659 516.474 120.425 516.474 120.308L 647.607 100.432C 648.541 102.537 650.526 103.94 652.978 103.94C 656.014 103.94 658.35 101.718 658.7 98.7954L 751.649 108.5C 751.882 111.423 754.335 113.761 757.371 113.761C 757.838 113.761 758.422 113.644 758.889 113.527L 790.3 203.787C 789.132 204.84 788.431 206.36 788.431 208.113C 788.431 210.569 789.949 212.673 792.168 213.608L 783.177 331.695C 780.258 331.929 777.922 334.384 777.922 337.424C 777.922 340.581 780.491 343.27 783.761 343.27C 783.994 343.27 784.228 343.27 784.461 343.153L 805.48 395.883C 803.612 396.818 802.327 398.806 802.327 401.027C 802.327 402.197 802.677 403.366 803.261 404.301L 739.505 462.058C 738.571 460.071 736.586 458.668 734.25 458.668C 731.097 458.668 728.412 461.24 728.412 464.514C 728.412 465.332 728.645 466.151 728.879 466.852L 684.156 476.439ZM 734.25 468.606C 731.681 468.606 729.579 466.501 729.579 463.929C 729.579 461.357 731.681 459.252 734.25 459.252C 736.819 459.252 738.921 461.357 738.921 463.929C 738.921 466.501 736.819 468.606 734.25 468.606ZM 739.622 466.267C 739.972 465.566 740.089 464.748 740.089 463.929C 740.089 463.578 740.089 463.111 739.972 462.76L 804.079 404.652C 805.13 405.704 806.531 406.289 808.166 406.289C 809.1 406.289 810.034 406.055 810.851 405.587L 882.198 481.701C 881.497 482.051 880.913 482.519 880.446 483.221L 739.622 466.267ZM 885 491.639C 882.431 491.639 880.33 489.534 880.33 486.962C 880.33 484.39 882.431 482.285 885 482.285C 887.569 482.285 889.671 484.39 889.671 486.962C 889.671 489.534 887.569 491.639 885 491.639ZM 890.021 484.039C 889.321 482.753 888.036 481.701 886.518 481.233L 907.887 378.229C 908.004 378.229 908.121 378.229 908.237 378.229C 909.405 378.229 910.573 377.878 911.507 377.176L 989.393 435.167C 988.692 436.103 988.342 437.272 988.342 438.558C 988.342 439.493 988.575 440.312 988.926 441.13L 890.021 484.039ZM 994.18 443.352C 991.611 443.352 989.51 441.247 989.51 438.675C 989.51 436.103 991.611 433.998 994.18 433.998C 996.749 433.998 998.851 436.103 998.851 438.675C 998.851 441.247 996.749 443.352 994.18 443.352ZM 999.902 439.493C 999.902 439.26 1000.02 438.909 1000.02 438.675C 1000.02 435.518 997.45 432.829 994.18 432.829C 993.947 432.829 993.596 432.829 993.363 432.946L 970.709 325.265C 971.877 324.797 972.811 323.979 973.512 322.926L 1041.01 340.347C 1041.01 340.464 1041.01 340.581 1041.01 340.815C 1041.01 343.972 1043.57 346.661 1046.84 346.661C 1047.89 346.661 1048.83 346.31 1049.76 345.842L 1112.12 430.257C 1110.6 431.309 1109.67 433.063 1109.67 435.05C 1109.67 435.167 1109.67 435.401 1109.67 435.518L 999.902 439.493ZM 1115.27 439.61C 1112.7 439.61 1110.6 437.506 1110.6 434.934C 1110.6 432.361 1112.7 430.257 1115.27 430.257C 1117.84 430.257 1119.94 432.361 1119.94 434.934C 1119.94 437.506 1117.84 439.61 1115.27 439.61Z"/>
<path id="path1_fill" d="M 15.443 67.9165C 20.3473 71.8916 25.602 73.9962 30.7399 73.9962C 32.4914 73.9962 34.1262 73.7623 35.8778 73.2947L 50.9411 69.0856C 58.6479 66.9811 64.1361 60.1999 66.4715 51.3141C 66.5883 51.0803 66.5883 50.8465 66.5883 50.6126C 67.5224 46.6374 67.9895 42.3115 67.6392 37.8686C 67.6392 37.7517 67.6392 37.6348 67.6392 37.5179C 67.4057 34.3611 66.9386 31.2043 66.0044 28.0475C 65.6541 26.7614 65.3038 25.5923 64.8367 24.4231C 64.8367 24.3062 64.8367 24.0723 64.72 23.9554C 64.6032 23.7216 64.4864 23.4878 64.3697 23.2539C 62.6181 18.811 60.3995 14.8359 57.597 11.4452C 57.4803 11.3283 57.3634 11.2114 57.2467 11.0945C 55.7286 9.2238 54.0939 7.58695 52.2256 6.06702C 45.6864 0.805732 38.4467 -1.18187 31.7908 0.688816L 16.8442 4.89785C 3.29892 8.63921 -3.47374 27.1122 1.78092 45.9359C 4.23309 54.9386 9.13741 62.7721 15.443 67.9165Z"/>
<path id="path2_fill" d="M 334.663 182.426C 334.663 176.931 330.693 172.488 325.438 171.67C 324.154 152.846 319.6 134.841 312.477 118.355C 315.046 116.368 316.797 113.211 316.797 109.703C 316.797 103.624 311.893 98.7131 305.938 98.7131C 304.77 98.7131 303.602 98.9469 302.551 99.2977C 292.042 82.1108 278.38 66.9115 262.382 54.869C 273.242 41.0727 274.526 23.5351 264.951 14.8832L 253.741 4.82825C 248.02 -0.316125 239.612 -1.25147 231.088 1.55455C 230.971 1.55455 230.854 1.67147 230.621 1.67147C 224.315 3.77599 218.01 7.98502 212.638 13.9478C 211.821 14.8832 211.004 15.8185 210.303 16.8708C 210.186 16.9877 210.069 16.9877 210.069 17.1046C 209.836 17.3384 209.836 17.5723 209.719 17.8061C 207.5 20.846 205.749 24.0027 204.464 27.2764C 195.94 25.1719 187.066 23.7689 177.958 23.1843C 177.023 18.0399 172.586 14.1817 167.215 14.1817C 161.843 14.1817 157.406 18.0399 156.472 23.1843C 111.632 26.2242 71.8136 48.0878 44.8397 81.0585C 43.4385 80.357 41.8037 79.8894 40.0521 79.8894C 34.0969 79.8894 29.1925 84.7999 29.1925 90.8796C 29.1925 93.9195 30.3602 96.6086 32.3453 98.5962C 19.1503 120.109 10.8596 144.896 8.99128 171.553C 3.8534 172.488 7.12708e-06 176.931 7.12708e-06 182.309C 7.12708e-06 187.687 3.8534 192.13 8.99128 193.066C 10.8596 221.827 20.318 249.303 36.549 273.154C 38.4173 275.843 40.2857 278.415 42.2707 280.871C 40.8695 282.741 39.9353 285.08 39.9353 287.652C 39.9353 293.732 44.8397 298.642 50.795 298.642C 52.8968 298.642 54.8819 298.058 56.5167 297.005C 83.3738 323.429 118.872 339.446 156.822 341.902C 158.223 346.228 162.31 349.384 167.098 349.384C 171.886 349.384 175.972 346.228 177.374 341.902C 194.889 340.733 211.587 336.757 227.001 330.327C 228.986 333.016 232.139 334.887 235.759 334.887C 241.714 334.887 246.618 329.976 246.618 323.896C 246.618 322.844 246.502 321.792 246.151 320.857C 257.595 314.192 268.104 306.125 277.446 296.888C 279.08 297.941 281.066 298.642 283.284 298.642C 289.239 298.642 294.144 293.732 294.144 287.652C 294.144 285.08 293.21 282.741 291.808 280.871C 310.842 256.435 322.986 226.27 325.205 193.299C 330.693 192.364 334.663 187.804 334.663 182.426Z"/>
<path id="path3_fill" d="M 5.81277 51.3782C -3.41206 43.194 -1.42696 26.0071 10.1333 13.0293C 21.6935 0.0514032 38.5084 -3.9238 47.7332 4.26044L 58.7096 13.9646L 16.7892 61.0824L 5.81277 51.3782Z"/>
<path id="path4_stroke" d="M 5.81277 51.3782L 4.6897 52.6441L 4.6919 52.6461L 5.81277 51.3782ZM 47.7332 4.26044L 46.6102 5.52631L 46.6124 5.52825L 47.7332 4.26044ZM 58.7096 13.9646L 59.9739 15.0894C 60.2728 14.7534 60.4257 14.3123 60.3988 13.8633C 60.3719 13.4144 60.1674 12.9947 59.8305 12.6968L 58.7096 13.9646ZM 16.7892 61.0824L 15.6683 62.3502C 16.367 62.9679 17.4336 62.9039 18.0535 62.2072L 16.7892 61.0824ZM 6.93584 50.1124C 2.84632 46.4842 1.11523 40.7524 1.86007 34.1923C 2.60436 27.637 5.82132 20.4142 11.3969 14.1549L 8.86965 11.9037C 2.885 18.6222 -0.670714 26.4818 -1.50282 33.8104C -2.33438 41.1343 -0.445608 48.0881 4.6897 52.6441L 6.93584 50.1124ZM 11.3969 14.1549C 16.9733 7.89465 23.7714 3.86114 30.1949 2.35673C 36.623 0.85127 42.5189 1.89658 46.6102 5.5263L 48.8563 2.99457C 43.7227 -1.55993 36.5988 -2.61915 29.4232 -0.9386C 22.243 0.742999 14.8535 5.18601 8.86965 11.9037L 11.3969 14.1549ZM 46.6124 5.52825L 57.5887 15.2324L 59.8305 12.6968L 48.8541 2.99262L 46.6124 5.52825ZM 57.4453 12.8398L 15.5249 59.9576L 18.0535 62.2072L 59.9739 15.0894L 57.4453 12.8398ZM 17.9101 59.8146L 6.93364 50.1104L 4.6919 52.6461L 15.6683 62.3502L 17.9101 59.8146Z"/>
<path id="path5_fill" d="M 31.5501 44.6311C 48.9748 44.6311 63.1003 34.6401 63.1003 22.3156C 63.1003 9.99103 48.9748 0 31.5501 0C 14.1255 0 1.42642e-05 9.99103 1.42642e-05 22.3156C 1.42642e-05 34.6401 14.1255 44.6311 31.5501 44.6311Z"/>
<path id="path6_stroke" d="M 61.408 22.3156C 61.408 27.782 58.278 32.8971 52.8822 36.7135C 47.4907 40.5269 39.954 42.9389 31.5501 42.9389L 31.5501 46.3234C 40.5709 46.3234 48.8092 43.7399 54.8366 39.4766C 60.8598 35.2164 64.7925 29.1737 64.7925 22.3156L 61.408 22.3156ZM 31.5501 42.9389C 23.1462 42.9389 15.6095 40.5269 10.218 36.7135C 4.82232 32.8971 1.69226 27.782 1.69226 22.3156L -1.69224 22.3156C -1.69224 29.1737 2.24045 35.2164 8.26363 39.4766C 14.291 43.7399 22.5294 46.3234 31.5501 46.3234L 31.5501 42.9389ZM 1.69226 22.3156C 1.69226 16.8491 4.82232 11.7341 10.218 7.91767C 15.6095 4.10424 23.1462 1.69225 31.5501 1.69225L 31.5501 -1.69225C 22.5294 -1.69225 14.291 0.891276 8.26363 5.1545C 2.24045 9.41472 -1.69224 15.4575 -1.69224 22.3156L 1.69226 22.3156ZM 31.5501 1.69225C 39.954 1.69225 47.4907 4.10424 52.8822 7.91767C 58.278 11.7341 61.408 16.8491 61.408 22.3156L 64.7925 22.3156C 64.7925 15.4575 60.8598 9.41472 54.8366 5.1545C 48.8092 0.891276 40.5709 -1.69225 31.5501 -1.69225L 31.5501 1.69225Z"/>
<path id="path7_stroke" d="M 9.73203 10.966C 10.4289 11.5888 11.4987 11.5287 12.1215 10.8318C 12.7442 10.1349 12.6841 9.06507 11.9872 8.44232L 9.73203 10.966ZM 1.1276 -1.26185C 0.430704 -1.8846 -0.639081 -1.82449 -1.26183 -1.12759C -1.88458 -0.430694 -1.82447 0.639092 -1.12757 1.26184L 1.1276 -1.26185ZM 11.9872 8.44232L 1.1276 -1.26185L -1.12757 1.26184L 9.73203 10.966L 11.9872 8.44232Z"/>
<path id="path8_stroke" d="M 9.85552 10.972C 10.5557 11.591 11.6252 11.5252 12.2442 10.825C 12.8632 10.1248 12.7975 9.05539 12.0973 8.43635L 9.85552 10.972ZM 1.12084 -1.26782C 0.420643 -1.88686 -0.648808 -1.82106 -1.26785 -1.12087C -1.88688 -0.420672 -1.82109 0.648779 -1.1209 1.26782L 1.12084 -1.26782ZM 12.0973 8.43635L 1.12084 -1.26782L -1.1209 1.26782L 9.85552 10.972L 12.0973 8.43635Z"/>
<path id="path9_stroke" d="M 9.73204 10.966C 10.4289 11.5888 11.4987 11.5287 12.1215 10.8318C 12.7442 10.1349 12.6841 9.06507 11.9872 8.44232L 9.73204 10.966ZM 1.12762 -1.26185C 0.430719 -1.8846 -0.639067 -1.82449 -1.26182 -1.12759C -1.88457 -0.430694 -1.82446 0.639092 -1.12756 1.26184L 1.12762 -1.26185ZM 11.9872 8.44232L 1.12762 -1.26185L -1.12756 1.26184L 9.73204 10.966L 11.9872 8.44232Z"/>
<path id="path10_stroke" d="M 9.85549 10.972C 10.5557 11.591 11.6251 11.5252 12.2442 10.825C 12.8632 10.1248 12.7974 9.05538 12.0972 8.43634L 9.85549 10.972ZM 1.12089 -1.26781C 0.42069 -1.88685 -0.648761 -1.82106 -1.2678 -1.12086C -1.88684 -0.420669 -1.82105 0.648782 -1.12086 1.26782L 1.12089 -1.26781ZM 12.0972 8.43634L 1.12089 -1.26781L -1.12086 1.26782L 9.85549 10.972L 12.0972 8.43634Z"/>
<path id="path11_fill" d="M 26.8571 239.097C 9.92547 214.544 1.42542e-05 184.73 1.42542e-05 152.577C 1.42542e-05 68.3968 68.1937 3.56804e-06 152.385 3.56804e-06C 236.576 3.56804e-06 304.77 68.2799 304.77 152.577C 304.77 236.875 236.576 305.155 152.385 305.155C 100.189 305.038 54.2981 278.965 26.8571 239.097Z"/>
<path id="path12_stroke" d="M 26.8571 239.097L 28.6679 237.85L 28.6667 237.849L 26.8571 239.097ZM 152.385 305.155L 152.38 307.353L 152.385 307.353L 152.385 305.155ZM 28.6667 237.849C 11.9805 213.652 2.1982 184.271 2.1982 152.577L -2.19817 152.577C -2.19817 185.189 7.87048 215.436 25.0475 240.344L 28.6667 237.849ZM 2.1982 152.577C 2.1982 69.6071 69.4115 2.19819 152.385 2.19819L 152.385 -2.19818C 66.976 -2.19818 -2.19817 67.1865 -2.19817 152.577L 2.1982 152.577ZM 152.385 2.19819C 235.359 2.19819 302.572 69.4913 302.572 152.577L 306.968 152.577C 306.968 67.0685 237.793 -2.19818 152.385 -2.19818L 152.385 2.19819ZM 302.572 152.577C 302.572 235.664 235.359 302.957 152.385 302.957L 152.385 307.353C 237.793 307.353 306.968 238.087 306.968 152.577L 302.572 152.577ZM 152.39 302.957C 100.942 302.842 55.7149 277.147 28.6679 237.85L 25.0464 240.343C 52.8813 280.784 99.4356 307.235 152.38 307.353L 152.39 302.957Z"/>
<path id="path13_stroke" d="M 82.8094 1.55752C 83.6696 1.19207 84.0707 0.198496 83.7052 -0.661697C 83.3398 -1.52189 82.3462 -1.92296 81.486 -1.55751L 82.8094 1.55752ZM 81.486 306.596C 82.3462 306.961 83.3398 306.56 83.7052 305.7C 84.0707 304.84 83.6696 303.846 82.8094 303.481L 81.486 306.596ZM 81.486 -1.55751C 25.8303 22.0874 -1.69228 87.5589 -1.69228 152.519C -1.69228 217.479 25.8303 282.951 81.486 306.596L 82.8094 303.481C 28.9348 280.592 1.69222 216.811 1.69222 152.519C 1.69222 88.2268 28.9348 24.4458 82.8094 1.55752L 81.486 -1.55751Z"/>
<path id="path14_stroke" d="M -0.661729 303.481C -1.52192 303.846 -1.92299 304.84 -1.55755 305.7C -1.1921 306.56 -0.198521 306.961 0.661672 306.596L -0.661729 303.481ZM 0.661672 -1.55752C -0.198521 -1.92296 -1.1921 -1.52189 -1.55755 -0.661699C -1.92299 0.198494 -1.52192 1.19207 -0.661729 1.55752L 0.661672 -1.55752ZM 0.661672 306.596C 56.3173 282.951 83.84 217.479 83.84 152.519C 83.84 87.5589 56.3173 22.0874 0.661672 -1.55752L -0.661729 1.55752C 53.2129 24.4458 80.4555 88.2268 80.4555 152.519C 80.4555 216.811 53.2129 280.592 -0.661729 303.481L 0.661672 306.596Z"/>
<path id="path15_stroke" d="M 7.12708e-06 -1.69225C -0.934596 -1.69225 -1.69224 -0.9346 -1.69224 3.05176e-06C -1.69224 0.934606 -0.934596 1.69225 7.12708e-06 1.69225L 7.12708e-06 -1.69225ZM 304.77 1.69225C 305.704 1.69225 306.462 0.934606 306.462 3.05176e-06C 306.462 -0.9346 305.704 -1.69225 304.77 -1.69225L 304.77 1.69225ZM 7.12708e-06 1.69225L 304.77 1.69225L 304.77 -1.69225L 7.12708e-06 -1.69225L 7.12708e-06 1.69225Z"/>
<path id="path16_stroke" d="M -1.69227 305.155C -1.69227 306.09 -0.934628 306.847 -2.44141e-05 306.847C 0.934579 306.847 1.69222 306.09 1.69222 305.155L -1.69227 305.155ZM 1.69222 3.56804e-06C 1.69222 -0.9346 0.934579 -1.69225 -2.44141e-05 -1.69225C -0.934628 -1.69225 -1.69227 -0.9346 -1.69227 3.56804e-06L 1.69222 3.56804e-06ZM 1.69222 305.155L 1.69222 3.56804e-06L -1.69227 3.56804e-06L -1.69227 305.155L 1.69222 305.155Z"/>
<path id="path17_fill" d="M 8.87453 17.7715C 13.7758 17.7715 17.7491 13.7932 17.7491 8.88574C 17.7491 3.97829 13.7758 -3.56804e-06 8.87453 -3.56804e-06C 3.97326 -3.56804e-06 -7.12708e-06 3.97829 -7.12708e-06 8.88574C -7.12708e-06 13.7932 3.97326 17.7715 8.87453 17.7715Z"/>
<path id="path18_stroke" d="M 16.0568 8.88574C 16.0568 12.8606 12.8392 16.0792 8.87453 16.0792L 8.87453 19.4637C 14.7124 19.4637 19.4413 14.7258 19.4413 8.88574L 16.0568 8.88574ZM 8.87453 16.0792C 4.90987 16.0792 1.69224 12.8606 1.69224 8.88574L -1.69226 8.88574C -1.69226 14.7258 3.03665 19.4637 8.87453 19.4637L 8.87453 16.0792ZM 1.69224 8.88574C 1.69224 4.91087 4.90988 1.69225 8.87453 1.69225L 8.87453 -1.69225C 3.03664 -1.69225 -1.69226 3.0457 -1.69226 8.88574L 1.69224 8.88574ZM 8.87453 1.69225C 12.8392 1.69225 16.0568 4.91087 16.0568 8.88574L 19.4413 8.88574C 19.4413 3.0457 14.7124 -1.69225 8.87453 -1.69225L 8.87453 1.69225Z"/>
<path id="path19_fill" d="M 8.87452 17.7715C 13.7758 17.7715 17.7491 13.7932 17.7491 8.88574C 17.7491 3.97828 13.7758 -7.13609e-06 8.87452 -7.13609e-06C 3.97325 -7.13609e-06 -1.42542e-05 3.97828 -1.42542e-05 8.88574C -1.42542e-05 13.7932 3.97325 17.7715 8.87452 17.7715Z"/>
<path id="path20_stroke" d="M 16.0568 8.88574C 16.0568 12.8606 12.8392 16.0792 8.87452 16.0792L 8.87452 19.4637C 14.7124 19.4637 19.4413 14.7258 19.4413 8.88574L 16.0568 8.88574ZM 8.87452 16.0792C 4.90987 16.0792 1.69223 12.8606 1.69223 8.88574L -1.69226 8.88574C -1.69226 14.7258 3.03663 19.4637 8.87452 19.4637L 8.87452 16.0792ZM 1.69223 8.88574C 1.69223 4.91087 4.90987 1.69224 8.87452 1.69224L 8.87452 -1.69226C 3.03663 -1.69226 -1.69226 3.04569 -1.69226 8.88574L 1.69223 8.88574ZM 8.87452 1.69224C 12.8392 1.69224 16.0568 4.91087 16.0568 8.88574L 19.4413 8.88574C 19.4413 3.04569 14.7124 -1.69226 8.87452 -1.69226L 8.87452 1.69224Z"/>
<path id="path21_fill" d="M 8.87454 17.7715C 13.7758 17.7715 17.749 13.7932 17.749 8.88574C 17.749 3.97828 13.7758 -7.13609e-06 8.87454 -7.13609e-06C 3.97327 -7.13609e-06 7.12708e-06 3.97828 7.12708e-06 8.88574C 7.12708e-06 13.7932 3.97327 17.7715 8.87454 17.7715Z"/>
<path id="path22_stroke" d="M 16.0568 8.88574C 16.0568 12.8606 12.8392 16.0792 8.87454 16.0792L 8.87454 19.4637C 14.7124 19.4637 19.4413 14.7258 19.4413 8.88574L 16.0568 8.88574ZM 8.87454 16.0792C 4.90989 16.0792 1.69226 12.8606 1.69226 8.88574L -1.69224 8.88574C -1.69224 14.7258 3.03666 19.4637 8.87454 19.4637L 8.87454 16.0792ZM 1.69226 8.88574C 1.69226 4.91087 4.90989 1.69224 8.87454 1.69224L 8.87454 -1.69226C 3.03666 -1.69226 -1.69224 3.04569 -1.69224 8.88574L 1.69226 8.88574ZM 8.87454 1.69224C 12.8392 1.69224 16.0568 4.91086 16.0568 8.88574L 19.4413 8.88574C 19.4413 3.0457 14.7124 -1.69226 8.87454 -1.69226L 8.87454 1.69224Z"/>
<path id="path23_fill" d="M 8.87453 17.7715C 13.7758 17.7715 17.749 13.7932 17.749 8.88574C 17.749 3.97828 13.7758 -7.13609e-06 8.87453 -7.13609e-06C 3.97326 -7.13609e-06 2.85083e-05 3.97828 2.85083e-05 8.88574C 2.85083e-05 13.7932 3.97326 17.7715 8.87453 17.7715Z"/>
<path id="path24_stroke" d="M 16.0568 8.88574C 16.0568 12.8606 12.8392 16.0792 8.87453 16.0792L 8.87453 19.4637C 14.7124 19.4637 19.4413 14.7258 19.4413 8.88574L 16.0568 8.88574ZM 8.87453 16.0792C 4.90989 16.0792 1.69228 12.8606 1.69228 8.88574L -1.69222 8.88574C -1.69222 14.7258 3.03663 19.4637 8.87453 19.4637L 8.87453 16.0792ZM 1.69228 8.88574C 1.69228 4.91086 4.90989 1.69224 8.87453 1.69224L 8.87453 -1.69226C 3.03663 -1.69226 -1.69222 3.0457 -1.69222 8.88574L 1.69228 8.88574ZM 8.87453 1.69224C 12.8392 1.69224 16.0568 4.91086 16.0568 8.88574L 19.4413 8.88574C 19.4413 3.0457 14.7124 -1.69226 8.87453 -1.69226L 8.87453 1.69224Z"/>
<path id="path25_fill" d="M 8.87453 17.7715C 13.7758 17.7715 17.7491 13.7932 17.7491 8.88575C 17.7491 3.97829 13.7758 0 8.87453 0C 3.97326 0 -7.12708e-06 3.97829 -7.12708e-06 8.88575C -7.12708e-06 13.7932 3.97326 17.7715 8.87453 17.7715Z"/>
<path id="path26_stroke" d="M 16.0568 8.88575C 16.0568 12.8606 12.8392 16.0792 8.87453 16.0792L 8.87453 19.4637C 14.7124 19.4637 19.4413 14.7258 19.4413 8.88575L 16.0568 8.88575ZM 8.87453 16.0792C 4.90988 16.0792 1.69224 12.8606 1.69224 8.88575L -1.69226 8.88575C -1.69226 14.7258 3.03664 19.4637 8.87453 19.4637L 8.87453 16.0792ZM 1.69224 8.88575C 1.69224 4.91088 4.90988 1.69225 8.87453 1.69225L 8.87453 -1.69225C 3.03664 -1.69225 -1.69226 3.0457 -1.69226 8.88575L 1.69224 8.88575ZM 8.87453 1.69225C 12.8392 1.69225 16.0568 4.91088 16.0568 8.88575L 19.4413 8.88575C 19.4413 3.0457 14.7124 -1.69225 8.87453 -1.69225L 8.87453 1.69225Z"/>
<path id="path27_fill" d="M 8.8745 17.7715C 13.7758 17.7715 17.7491 13.7932 17.7491 8.88574C 17.7491 3.97828 13.7758 -7.13609e-06 8.8745 -7.13609e-06C 3.97323 -7.13609e-06 0 3.97828 0 8.88574C 0 13.7932 3.97323 17.7715 8.8745 17.7715Z"/>
<path id="path28_stroke" d="M 16.0568 8.88574C 16.0568 12.8606 12.8392 16.0792 8.8745 16.0792L 8.8745 19.4637C 14.7124 19.4637 19.4413 14.7258 19.4413 8.88574L 16.0568 8.88574ZM 8.8745 16.0792C 4.90986 16.0792 1.69225 12.8606 1.69225 8.88574L -1.69225 8.88574C -1.69225 14.7258 3.0366 19.4637 8.8745 19.4637L 8.8745 16.0792ZM 1.69225 8.88574C 1.69225 4.91086 4.90986 1.69224 8.8745 1.69224L 8.8745 -1.69226C 3.03661 -1.69226 -1.69225 3.0457 -1.69225 8.88574L 1.69225 8.88574ZM 8.8745 1.69224C 12.8392 1.69224 16.0568 4.91088 16.0568 8.88574L 19.4413 8.88574C 19.4413 3.04568 14.7124 -1.69226 8.8745 -1.69226L 8.8745 1.69224Z"/>
<path id="path29_fill" d="M 8.87453 17.7715C 13.7758 17.7715 17.7491 13.7932 17.7491 8.88573C 17.7491 3.97827 13.7758 -1.42722e-05 8.87453 -1.42722e-05C 3.97326 -1.42722e-05 -7.12708e-06 3.97827 -7.12708e-06 8.88573C -7.12708e-06 13.7932 3.97326 17.7715 8.87453 17.7715Z"/>
<path id="path30_stroke" d="M 16.0568 8.88573C 16.0568 12.8606 12.8392 16.0792 8.87453 16.0792L 8.87453 19.4637C 14.7124 19.4637 19.4413 14.7258 19.4413 8.88573L 16.0568 8.88573ZM 8.87453 16.0792C 4.90988 16.0792 1.69224 12.8606 1.69224 8.88573L -1.69226 8.88573C -1.69226 14.7258 3.03664 19.4637 8.87453 19.4637L 8.87453 16.0792ZM 1.69224 8.88573C 1.69224 4.91086 4.90988 1.69223 8.87453 1.69223L 8.87453 -1.69226C 3.03664 -1.69226 -1.69226 3.04569 -1.69226 8.88573L 1.69224 8.88573ZM 8.87453 1.69223C 12.8392 1.69223 16.0568 4.91086 16.0568 8.88573L 19.4413 8.88573C 19.4413 3.04569 14.7124 -1.69226 8.87453 -1.69226L 8.87453 1.69223Z"/>
<path id="path31_fill" d="M 8.87453 17.7715C 13.7758 17.7715 17.749 13.7932 17.749 8.88575C 17.749 3.97829 13.7758 0 8.87453 0C 3.97326 0 2.85083e-05 3.97829 2.85083e-05 8.88575C 2.85083e-05 13.7932 3.97326 17.7715 8.87453 17.7715Z"/>
<path id="path32_stroke" d="M 16.0568 8.88575C 16.0568 12.8606 12.8392 16.0792 8.87453 16.0792L 8.87453 19.4637C 14.7124 19.4637 19.4413 14.7258 19.4413 8.88575L 16.0568 8.88575ZM 8.87453 16.0792C 4.90988 16.0792 1.69228 12.8606 1.69228 8.88575L -1.69222 8.88575C -1.69222 14.7258 3.03664 19.4637 8.87453 19.4637L 8.87453 16.0792ZM 1.69228 8.88575C 1.69228 4.91087 4.90989 1.69225 8.87453 1.69225L 8.87453 -1.69225C 3.03663 -1.69225 -1.69222 3.04571 -1.69222 8.88575L 1.69228 8.88575ZM 8.87453 1.69225C 12.8392 1.69225 16.0568 4.91087 16.0568 8.88575L 19.4413 8.88575C 19.4413 3.04571 14.7124 -1.69225 8.87453 -1.69225L 8.87453 1.69225Z"/>
<path id="path33_fill" d="M 8.8745 17.7715C 13.7758 17.7715 17.7491 13.7932 17.7491 8.88574C 17.7491 3.97829 13.7758 -3.56804e-06 8.8745 -3.56804e-06C 3.97323 -3.56804e-06 0 3.97829 0 8.88574C 0 13.7932 3.97323 17.7715 8.8745 17.7715Z"/>
<path id="path34_stroke" d="M 16.0568 8.88574C 16.0568 12.8606 12.8392 16.0792 8.8745 16.0792L 8.8745 19.4637C 14.7124 19.4637 19.4413 14.7258 19.4413 8.88574L 16.0568 8.88574ZM 8.8745 16.0792C 4.90985 16.0792 1.69225 12.8606 1.69225 8.88574L -1.69225 8.88574C -1.69225 14.7258 3.03661 19.4637 8.8745 19.4637L 8.8745 16.0792ZM 1.69225 8.88574C 1.69225 4.91086 4.90986 1.69225 8.8745 1.69225L 8.8745 -1.69225C 3.0366 -1.69225 -1.69225 3.04571 -1.69225 8.88574L 1.69225 8.88574ZM 8.8745 1.69225C 12.8392 1.69225 16.0568 4.91088 16.0568 8.88574L 19.4413 8.88574C 19.4413 3.04569 14.7124 -1.69225 8.8745 -1.69225L 8.8745 1.69225Z"/>
<path id="path35_fill" d="M 8.87453 17.7715C 13.7758 17.7715 17.749 13.7932 17.749 8.88574C 17.749 3.97829 13.7758 -3.56804e-06 8.87453 -3.56804e-06C 3.97326 -3.56804e-06 2.85083e-05 3.97829 2.85083e-05 8.88574C 2.85083e-05 13.7932 3.97326 17.7715 8.87453 17.7715Z"/>
<path id="path36_stroke" d="M 16.0568 8.88574C 16.0568 12.8606 12.8392 16.0792 8.87453 16.0792L 8.87453 19.4637C 14.7124 19.4637 19.4413 14.7258 19.4413 8.88574L 16.0568 8.88574ZM 8.87453 16.0792C 4.90988 16.0792 1.69228 12.8606 1.69228 8.88574L -1.69222 8.88574C -1.69222 14.7258 3.03664 19.4637 8.87453 19.4637L 8.87453 16.0792ZM 1.69228 8.88574C 1.69228 4.91086 4.90989 1.69225 8.87453 1.69225L 8.87453 -1.69225C 3.03663 -1.69225 -1.69222 3.04571 -1.69222 8.88574L 1.69228 8.88574ZM 8.87453 1.69225C 12.8392 1.69225 16.0568 4.91086 16.0568 8.88574L 19.4413 8.88574C 19.4413 3.04571 14.7124 -1.69225 8.87453 -1.69225L 8.87453 1.69225Z"/>
<path id="path37_fill" d="M 8.87454 17.7715C 13.7758 17.7715 17.749 13.7932 17.749 8.88573C 17.749 3.97827 13.7758 -1.42722e-05 8.87454 -1.42722e-05C 3.97327 -1.42722e-05 -2.85083e-05 3.97827 -2.85083e-05 8.88573C -2.85083e-05 13.7932 3.97327 17.7715 8.87454 17.7715Z"/>
<path id="path38_stroke" d="M 16.0568 8.88573C 16.0568 12.8606 12.8392 16.0792 8.87454 16.0792L 8.87454 19.4637C 14.7124 19.4637 19.4413 14.7258 19.4413 8.88573L 16.0568 8.88573ZM 8.87454 16.0792C 4.90988 16.0792 1.69222 12.8606 1.69222 8.88573L -1.69228 8.88573C -1.69228 14.7258 3.03667 19.4637 8.87454 19.4637L 8.87454 16.0792ZM 1.69222 8.88573C 1.69222 4.91087 4.90988 1.69223 8.87454 1.69223L 8.87454 -1.69226C 3.03667 -1.69226 -1.69228 3.04568 -1.69228 8.88573L 1.69222 8.88573ZM 8.87454 1.69223C 12.8392 1.69223 16.0568 4.91085 16.0568 8.88573L 19.4413 8.88573C 19.4413 3.0457 14.7124 -1.69226 8.87454 -1.69226L 8.87454 1.69223Z"/>
<path id="path39_fill" d="M 8.87454 17.7715C 13.7758 17.7715 17.749 13.7932 17.749 8.88574C 17.749 3.97829 13.7758 -3.56804e-06 8.87454 -3.56804e-06C 3.97327 -3.56804e-06 -2.85083e-05 3.97829 -2.85083e-05 8.88574C -2.85083e-05 13.7932 3.97327 17.7715 8.87454 17.7715Z"/>
<path id="path40_stroke" d="M 16.0568 8.88574C 16.0568 12.8606 12.8392 16.0792 8.87454 16.0792L 8.87454 19.4637C 14.7124 19.4637 19.4413 14.7258 19.4413 8.88574L 16.0568 8.88574ZM 8.87454 16.0792C 4.90988 16.0792 1.69222 12.8606 1.69222 8.88574L -1.69228 8.88574C -1.69228 14.7258 3.03667 19.4637 8.87454 19.4637L 8.87454 16.0792ZM 1.69222 8.88574C 1.69222 4.91088 4.90988 1.69225 8.87454 1.69225L 8.87454 -1.69225C 3.03667 -1.69225 -1.69228 3.04569 -1.69228 8.88574L 1.69222 8.88574ZM 8.87454 1.69225C 12.8392 1.69225 16.0568 4.91086 16.0568 8.88574L 19.4413 8.88574C 19.4413 3.04571 14.7124 -1.69225 8.87454 -1.69225L 8.87454 1.69225Z"/>
<path id="path41_fill" d="M 8.87451 17.7715C 13.7758 17.7715 17.7491 13.7932 17.7491 8.88573C 17.7491 3.97827 13.7758 3.56804e-06 8.87451 3.56804e-06C 3.97325 3.56804e-06 1.42542e-05 3.97827 1.42542e-05 8.88573C 1.42542e-05 13.7932 3.97325 17.7715 8.87451 17.7715Z"/>
<path id="path42_stroke" d="M 16.0568 8.88573C 16.0568 12.8606 12.8392 16.0792 8.87451 16.0792L 8.87451 19.4637C 14.7124 19.4637 19.4413 14.7258 19.4413 8.88573L 16.0568 8.88573ZM 8.87451 16.0792C 4.90987 16.0792 1.69226 12.8606 1.69226 8.88573L -1.69223 8.88573C -1.69223 14.7258 3.03662 19.4637 8.87451 19.4637L 8.87451 16.0792ZM 1.69226 8.88573C 1.69226 4.91086 4.90987 1.69225 8.87451 1.69225L 8.87451 -1.69225C 3.03662 -1.69225 -1.69223 3.04569 -1.69223 8.88573L 1.69226 8.88573ZM 8.87451 1.69225C 12.8392 1.69225 16.0568 4.91087 16.0568 8.88573L 19.4413 8.88573C 19.4413 3.04567 14.7124 -1.69225 8.87451 -1.69225L 8.87451 1.69225Z"/>
<path id="path43_stroke" d="M 1.02818 -1.34407C 0.285874 -1.91193 -0.776225 -1.77051 -1.34408 -1.0282C -1.91194 -0.285892 -1.77052 0.776207 -1.02821 1.34406L 1.02818 -1.34407ZM 59.3419 47.5265C 60.0842 48.0944 61.1463 47.953 61.7142 47.2107C 62.282 46.4683 62.1406 45.4062 61.3983 44.8384L 59.3419 47.5265ZM -1.02821 1.34406L 59.3419 47.5265L 61.3983 44.8384L 1.02818 -1.34407L -1.02821 1.34406Z"/>
<path id="path44_stroke" d="M -1.20457 47.4491C -1.86101 48.1144 -1.85385 49.1859 -1.18859 49.8423C -0.523329 50.4987 0.54812 50.4916 1.20456 49.8263L -1.20457 47.4491ZM 49.1971 1.18859C 49.8535 0.523326 49.8463 -0.548123 49.1811 -1.20456C 48.5158 -1.861 47.4444 -1.85384 46.7879 -1.18858L 49.1971 1.18859ZM 1.20456 49.8263L 49.1971 1.18859L 46.7879 -1.18858L -1.20457 47.4491L 1.20456 49.8263Z"/>
<path id="path45_stroke" d="M -1.69215 55.1672C -1.70204 56.1017 -0.952454 56.8674 -0.0179027 56.8773C 0.916648 56.8871 1.68227 56.1376 1.69215 55.203L -1.69215 55.1672ZM 2.276 0.0179099C 2.28589 -0.916641 1.5363 -1.68226 0.601753 -1.69215C -0.332798 -1.70203 -1.09842 -0.952447 -1.1083 -0.0178956L 2.276 0.0179099ZM 1.69215 55.203L 2.276 0.0179099L -1.1083 -0.0178956L -1.69215 55.1672L 1.69215 55.203Z"/>
<path id="path46_stroke" d="M 55.9474 0.717583C 56.3437 -0.128833 55.9788 -1.13626 55.1324 -1.53257C 54.286 -1.92888 53.2786 -1.564 52.8823 -0.717583L 55.9474 0.717583ZM -1.53258 115.499C -1.92889 116.345 -1.56401 117.352 -0.717591 117.749C 0.128826 118.145 1.13626 117.78 1.53257 116.934L -1.53258 115.499ZM 52.8823 -0.717583L -1.53258 115.499L 1.53257 116.934L 55.9474 0.717583L 52.8823 -0.717583Z"/>
<path id="path47_stroke" d="M 32.7039 23.397C 33.4863 23.9084 34.535 23.6887 35.0463 22.9063C 35.5576 22.124 35.3379 21.0753 34.5556 20.564L 32.7039 23.397ZM 0.925848 -1.41651C 0.143526 -1.92784 -0.905184 -1.70816 -1.41651 -0.925833C -1.92784 -0.143511 -1.70816 0.905199 -0.925833 1.41653L 0.925848 -1.41651ZM 34.5556 20.564L 0.925848 -1.41651L -0.925833 1.41653L 32.7039 23.397L 34.5556 20.564Z"/>
<path id="path48_stroke" d="M -0.890507 46.6141C -1.68525 47.1059 -1.93082 48.1489 -1.43902 48.9436C -0.947212 49.7384 0.0957389 49.984 0.890478 49.4921L -0.890507 46.6141ZM 78.5426 1.43901C 79.3373 0.947205 79.5829 -0.095746 79.0911 -0.890485C 78.5993 -1.68522 77.5563 -1.9308 76.7616 -1.439L 78.5426 1.43901ZM 0.890478 49.4921L 78.5426 1.43901L 76.7616 -1.439L -0.890507 46.6141L 0.890478 49.4921Z"/>
<path id="path49_stroke" d="M 0.373231 -1.65056C -0.538354 -1.85671 -1.44445 -1.28484 -1.6506 -0.373252C -1.85674 0.538333 -1.28487 1.44443 -0.373288 1.65058L 0.373231 -1.65056ZM 78.213 19.4221C 79.1246 19.6282 80.0307 19.0563 80.2368 18.1447C 80.443 17.2332 79.8711 16.3271 78.9595 16.1209L 78.213 19.4221ZM -0.373288 1.65058L 78.213 19.4221L 78.9595 16.1209L 0.373231 -1.65056L -0.373288 1.65058Z"/>
<path id="path50_stroke" d="M -1.33297 54.4933C -1.90877 55.2294 -1.77877 56.293 -1.04261 56.8688C -0.306451 57.4446 0.757107 57.3146 1.33291 56.5784L -1.33297 54.4933ZM 44.7714 1.04258C 45.3472 0.306415 45.2172 -0.757142 44.481 -1.33295C 43.7449 -1.90875 42.6813 -1.77875 42.1055 -1.04259L 44.7714 1.04258ZM 1.33291 56.5784L 44.7714 1.04258L 42.1055 -1.04259L -1.33297 54.4933L 1.33291 56.5784Z"/>
<path id="path51_stroke" d="M 20.0779 86.9311C 20.3055 87.8375 21.2248 88.3879 22.1313 88.1603C 23.0378 87.9328 23.5881 87.0135 23.3606 86.107L 20.0779 86.9311ZM 1.64129 -0.412043C 1.41374 -1.31852 0.49442 -1.86889 -0.412057 -1.64134C -1.31853 -1.41378 -1.86891 -0.494463 -1.64135 0.412014L 1.64129 -0.412043ZM 23.3606 86.107L 1.64129 -0.412043L -1.64135 0.412014L 20.0779 86.9311L 23.3606 86.107Z"/>
<path id="path52_stroke" d="M 33.3799 75.7748C 33.7741 76.6222 34.7806 76.9897 35.628 76.5955C 36.4754 76.2013 36.8428 75.1948 36.4487 74.3474L 33.3799 75.7748ZM 1.53438 -0.713702C 1.14021 -1.56112 0.133706 -1.92854 -0.713709 -1.53437C -1.56112 -1.1402 -1.92855 -0.133699 -1.53438 0.713716L 1.53438 -0.713702ZM 36.4487 74.3474L 1.53438 -0.713702L -1.53438 0.713716L 33.3799 75.7748L 36.4487 74.3474Z"/>
<path id="path53_stroke" d="M 0.0814418 -1.69029C -0.852079 -1.73526 -1.64531 -1.01496 -1.69028 -0.0814347C -1.73526 0.852086 -1.01495 1.64531 -0.0814276 1.69029L 0.0814418 -1.69029ZM 55.7347 4.3794C 56.6682 4.42437 57.4614 3.70406 57.5064 2.77054C 57.5514 1.83702 56.8311 1.0438 55.8976 0.99882L 55.7347 4.3794ZM -0.0814276 1.69029L 55.7347 4.3794L 55.8976 0.99882L 0.0814418 -1.69029L -0.0814276 1.69029Z"/>
<path id="path54_stroke" d="M 13.3236 0.390618C 13.5393 -0.518747 12.977 -1.43082 12.0676 -1.64654C 11.1583 -1.86227 10.2462 -1.29997 10.0305 -0.390604L 13.3236 0.390618ZM -1.64655 48.8317C -1.86228 49.7411 -1.29998 50.6531 -0.390611 50.8689C 0.518754 51.0846 1.43082 50.5223 1.64655 49.6129L -1.64655 48.8317ZM 10.0305 -0.390604L -1.64655 48.8317L 1.64655 49.6129L 13.3236 0.390618L 10.0305 -0.390604Z"/>
<path id="path55_stroke" d="M -1.10162 62.2017C -1.81108 62.8101 -1.89301 63.8784 -1.28461 64.5879C -0.67621 65.2973 0.392126 65.3793 1.10159 64.7709L -1.10162 62.2017ZM 75.1339 1.28458C 75.8433 0.676181 75.9252 -0.392155 75.3168 -1.10162C 74.7084 -1.81108 73.6401 -1.89301 72.9306 -1.28461L 75.1339 1.28458ZM 1.10159 64.7709L 75.1339 1.28458L 72.9306 -1.28461L -1.10162 62.2017L 1.10159 64.7709Z"/>
<path id="path56_stroke" d="M 121.333 67.8959C 122.154 68.3424 123.182 68.0386 123.628 67.2176C 124.075 66.3965 123.771 65.3689 122.95 64.9225L 121.333 67.8959ZM 0.808334 -1.48672C -0.0127519 -1.93315 -1.04028 -1.62943 -1.48671 -0.808342C -1.93314 0.0127447 -1.62942 1.04027 -0.808334 1.4867L 0.808334 -1.48672ZM 122.95 64.9225L 0.808334 -1.48672L -0.808334 1.4867L 121.333 67.8959L 122.95 64.9225Z"/>
<path id="path57_fill" d="M 8.87453 17.7715C 13.7758 17.7715 17.7491 13.7932 17.7491 8.88575C 17.7491 3.97829 13.7758 0 8.87453 0C 3.97327 0 0 3.97829 0 8.88575C 0 13.7932 3.97327 17.7715 8.87453 17.7715Z"/>
<path id="path58_stroke" d="M 16.0568 8.88575C 16.0568 12.8606 12.8392 16.0792 8.87453 16.0792L 8.87453 19.4637C 14.7124 19.4637 19.4413 14.7258 19.4413 8.88575L 16.0568 8.88575ZM 8.87453 16.0792C 4.90988 16.0792 1.69225 12.8606 1.69225 8.88575L -1.69225 8.88575C -1.69225 14.7258 3.03665 19.4637 8.87453 19.4637L 8.87453 16.0792ZM 1.69225 8.88575C 1.69225 4.91088 4.90988 1.69225 8.87453 1.69225L 8.87453 -1.69225C 3.03665 -1.69225 -1.69225 3.0457 -1.69225 8.88575L 1.69225 8.88575ZM 8.87453 1.69225C 12.8392 1.69225 16.0568 4.91088 16.0568 8.88575L 19.4413 8.88575C 19.4413 3.0457 14.7124 -1.69225 8.87453 -1.69225L 8.87453 1.69225Z"/>
<path id="path59_stroke" d="M -2.85083e-05 -1.69225C -0.934632 -1.69225 -1.69228 -0.9346 -1.69228 3.05176e-06C -1.69228 0.934606 -0.934632 1.69225 -2.85083e-05 1.69225L -2.85083e-05 -1.69225ZM 52.5465 1.69225C 53.4811 1.69225 54.2388 0.934606 54.2388 3.05176e-06C 54.2388 -0.9346 53.4811 -1.69225 52.5465 -1.69225L 52.5465 1.69225ZM -2.85083e-05 1.69225L 52.5465 1.69225L 52.5465 -1.69225L -2.85083e-05 -1.69225L -2.85083e-05 1.69225Z"/>
<path id="path60_stroke" d="M 43.3996 18.9943C 44.2687 19.3382 45.2519 18.9124 45.5958 18.0434C 45.9397 17.1744 45.514 16.1911 44.645 15.8472L 43.3996 18.9943ZM 0.622668 -1.57353C -0.246365 -1.91742 -1.22964 -1.49172 -1.57354 -0.622686C -1.91743 0.246347 -1.49173 1.22962 -0.622697 1.57352L 0.622668 -1.57353ZM 44.645 15.8472L 0.622668 -1.57353L -0.622697 1.57352L 43.3996 18.9943L 44.645 15.8472Z"/>
<path id="path61_stroke" d="M 16.5421 43.2203C 16.9079 44.0804 17.9016 44.4811 18.7617 44.1153C 19.6217 43.7495 20.0224 42.7558 19.6566 41.8957L 16.5421 43.2203ZM 1.55728 -0.662278C 1.19151 -1.52233 0.197784 -1.92303 -0.662271 -1.55726C -1.52233 -1.19149 -1.92302 -0.197763 -1.55725 0.662293L 1.55728 -0.662278ZM 19.6566 41.8957L 1.55728 -0.662278L -1.55725 0.662293L 16.5421 43.2203L 19.6566 41.8957Z"/>
<path id="path62_stroke" d="M -1.26429 38.5102C -1.88553 39.2084 -1.82312 40.2781 -1.12488 40.8993C -0.426639 41.5206 0.643014 41.4582 1.26426 40.7599L -1.26429 38.5102ZM 36.5288 1.12486C 37.1501 0.426625 37.0877 -0.643028 36.3894 -1.26427C 35.6912 -1.88552 34.6215 -1.8231 34.0003 -1.12486L 36.5288 1.12486ZM 1.26426 40.7599L 36.5288 1.12486L 34.0003 -1.12486L -1.26429 38.5102L 1.26426 40.7599Z"/>
<path id="path63_stroke" d="M 1.28431 -1.10195C 0.675724 -1.81125 -0.392633 -1.8929 -1.10194 -1.28432C -1.81124 -0.675738 -1.89289 0.392619 -1.28431 1.10192L 1.28431 -1.10195ZM 79.8709 95.6883C 80.4795 96.3976 81.5478 96.4793 82.2571 95.8707C 82.9664 95.2621 83.0481 94.1937 82.4395 93.4844L 79.8709 95.6883ZM -1.28431 1.10192L 79.8709 95.6883L 82.4395 93.4844L 1.28431 -1.10195L -1.28431 1.10192Z"/>
<path id="path64_stroke" d="M 8.68332 0.225842C 8.80805 -0.700401 8.1583 -1.55238 7.23205 -1.67711C 6.30581 -1.80184 5.45383 -1.15208 5.3291 -0.225842L 8.68332 0.225842ZM -1.6771 51.8025C -1.80183 52.7287 -1.15208 53.5807 -0.225835 53.7055C 0.700408 53.8302 1.55239 53.1804 1.67712 52.2542L -1.6771 51.8025ZM 5.3291 -0.225842L -1.6771 51.8025L 1.67712 52.2542L 8.68332 0.225842L 5.3291 -0.225842Z"/>
<path id="path65_stroke" d="M 59.8952 1.68874C 60.8279 1.62855 61.5352 0.823689 61.475 -0.108974C 61.4148 -1.04164 60.6099 -1.74892 59.6773 -1.68873L 59.8952 1.68874ZM -0.108974 2.16954C -1.04164 2.22973 -1.74892 3.03459 -1.68873 3.96726C -1.62854 4.89992 -0.823674 5.6072 0.108989 5.54701L -0.108974 2.16954ZM 59.6773 -1.68873L -0.108974 2.16954L 0.108989 5.54701L 59.8952 1.68874L 59.6773 -1.68873Z"/>
<path id="path66_stroke" d="M 24.7625 38.9577C 25.2925 39.7276 26.3461 39.9221 27.116 39.3921C 27.8858 38.8622 28.0803 37.8085 27.5504 37.0387L 24.7625 38.9577ZM 1.39394 -0.959536C 0.86401 -1.72938 -0.189664 -1.92387 -0.959507 -1.39394C -1.72935 -0.86401 -1.92384 0.189664 -1.39391 0.959507L 1.39394 -0.959536ZM 27.5504 37.0387L 1.39394 -0.959536L -1.39391 0.959507L 24.7625 38.9577L 27.5504 37.0387Z"/>
<path id="path67_stroke" d="M 29.0657 46.9993C 29.5814 47.7787 30.6313 47.9926 31.4107 47.4769C 32.1902 46.9612 32.404 45.9113 31.8883 45.1318L 29.0657 46.9993ZM 1.4113 -0.933729C 0.89561 -1.71318 -0.15431 -1.92701 -0.933764 -1.41132C -1.71322 -0.895632 -1.92704 0.154289 -1.41136 0.933743L 1.4113 -0.933729ZM 31.8883 45.1318L 1.4113 -0.933729L -1.41136 0.933743L 29.0657 46.9993L 31.8883 45.1318Z"/>
<path id="path68_fill" d="M 53.9478 49.2223C 46.708 59.1603 29.4261 58.8096 15.4136 48.4039C 1.40123 38.1152 -4.08699 21.6297 3.26953 11.8087L 11.9105 1.42722e-05L 62.7055 37.4137L 53.9478 49.2223Z"/>
<path id="path69_stroke" d="M 53.9478 49.2223L 52.5885 48.2142C 52.5857 48.2181 52.5828 48.222 52.58 48.2259L 53.9478 49.2223ZM 15.4136 48.4039L 16.4226 47.0453L 16.4152 47.0399L 15.4136 48.4039ZM 3.26953 11.8087L 4.62394 12.8232C 4.62772 12.8181 4.63147 12.8131 4.63519 12.808L 3.26953 11.8087ZM 11.9105 1.42722e-05L 12.9141 -1.36252C 12.552 -1.62924 12.0986 -1.74084 11.6541 -1.67269C 11.2096 -1.60455 10.8105 -1.36225 10.5449 -0.999316L 11.9105 1.42722e-05ZM 62.7055 37.4137L 64.0648 38.4217C 64.3327 38.0604 64.4458 37.6074 64.379 37.1626C 64.3123 36.7178 64.0713 36.3179 63.7091 36.0511L 62.7055 37.4137ZM 52.58 48.2259C 49.3732 52.6278 43.8463 54.8881 37.2559 54.7501C 30.6704 54.6122 23.1809 52.0641 16.4225 47.0453L 14.4047 49.7625C 21.6588 55.1494 29.8165 57.9795 37.185 58.1339C 44.5486 58.2881 51.2826 55.7548 55.3156 50.2187L 52.58 48.2259ZM 16.4152 47.0399C 9.65915 42.0792 5.01563 35.6634 2.9342 29.3974C 0.850526 23.1247 1.36951 17.1679 4.62394 12.8232L 1.91511 10.7941C -2.18697 16.2705 -2.60213 23.4669 -0.277724 30.4644C 2.04893 37.4686 7.15573 44.4399 14.4121 49.7679L 16.4152 47.0399ZM 4.63519 12.808L 13.2762 0.999345L 10.5449 -0.999316L 1.90386 10.8093L 4.63519 12.808ZM 10.9069 1.36255L 61.7019 38.7762L 63.7091 36.0511L 12.9141 -1.36252L 10.9069 1.36255ZM 61.3463 36.4056L 52.5885 48.2142L 55.307 50.2304L 64.0648 38.4217L 61.3463 36.4056Z"/>
<path id="path70_fill" d="M 22.3214 63.0838C 34.6492 63.0838 44.6427 48.962 44.6427 31.5419C 44.6427 14.1218 34.6492 -1.42605e-05 22.3214 -1.42605e-05C 9.99365 -1.42605e-05 -1.42658e-05 14.1218 -1.42658e-05 31.5419C -1.42658e-05 48.962 9.99365 63.0838 22.3214 63.0838Z"/>
<path id="path71_stroke" d="M 42.9505 31.5419C 42.9505 39.9434 40.538 47.4779 36.7236 52.8679C 32.9063 58.262 27.7899 61.3916 22.3214 61.3916L 22.3214 64.7761C 29.1807 64.7761 35.2249 60.8447 39.4863 54.8229C 43.7507 48.797 46.335 40.5606 46.335 31.5419L 42.9505 31.5419ZM 22.3214 61.3916C 16.8529 61.3916 11.7364 58.262 7.91913 52.8679C 4.10478 47.4779 1.69224 39.9434 1.69224 31.5419L -1.69226 31.5419C -1.69226 40.5606 0.892026 48.797 5.15644 54.823C 9.4179 60.8447 15.4621 64.7761 22.3214 64.7761L 22.3214 61.3916ZM 1.69224 31.5419C 1.69224 23.1404 4.10478 15.6059 7.91913 10.2159C 11.7364 4.82179 16.8529 1.69224 22.3214 1.69224L 22.3214 -1.69226C 15.4621 -1.69226 9.4179 2.23908 5.15644 8.26086C 0.892026 14.2868 -1.69226 22.5232 -1.69226 31.5419L 1.69224 31.5419ZM 22.3214 1.69224C 27.7899 1.69224 32.9063 4.82179 36.7236 10.2159C 40.538 15.6059 42.9505 23.1404 42.9505 31.5419L 46.335 31.5419C 46.335 22.5232 43.7507 14.2868 39.4863 8.26086C 35.2249 2.23908 29.1807 -1.69226 22.3214 -1.69226L 22.3214 1.69224Z"/>
<path id="path72_stroke" d="M 10.0067 0.999328C 10.5586 0.245091 10.3946 -0.813754 9.64034 -1.36567C 8.8861 -1.91758 7.82726 -1.75357 7.27534 -0.999328L 10.0067 0.999328ZM -1.36567 10.8094C -1.91758 11.5636 -1.75357 12.6224 -0.999328 13.1744C -0.245091 13.7263 0.813754 13.5623 1.36567 12.808L -1.36567 10.8094ZM 7.27534 -0.999328L -1.36567 10.8094L 1.36567 12.808L 10.0067 0.999328L 7.27534 -0.999328Z"/>
<path id="path73_stroke" d="M 10.0067 0.999335C 10.5586 0.245098 10.3945 -0.813747 9.64031 -1.36566C 8.88607 -1.91757 7.82723 -1.75356 7.27532 -0.999321L 10.0067 0.999335ZM -1.3657 10.8094C -1.91761 11.5636 -1.75359 12.6224 -0.999357 13.1744C -0.245119 13.7263 0.813726 13.5623 1.36564 12.808L -1.3657 10.8094ZM 7.27532 -0.999321L -1.3657 10.8094L 1.36564 12.808L 10.0067 0.999335L 7.27532 -0.999321Z"/>
<path id="path74_stroke" d="M 10.0067 0.999335C 10.5586 0.245098 10.3946 -0.813747 9.64034 -1.36566C 8.8861 -1.91757 7.82726 -1.75356 7.27534 -0.999321L 10.0067 0.999335ZM -1.36567 10.8094C -1.91758 11.5636 -1.75357 12.6224 -0.999328 13.1744C -0.245091 13.7263 0.813754 13.5623 1.36567 12.808L -1.36567 10.8094ZM 7.27534 -0.999321L -1.36567 10.8094L 1.36567 12.808L 10.0067 0.999335L 7.27534 -0.999321Z"/>
<path id="path75_stroke" d="M 10.0066 0.999339C 10.5586 0.2451 10.3945 -0.813744 9.64029 -1.36566C 8.88605 -1.91757 7.82721 -1.75355 7.2753 -0.999311L 10.0066 0.999339ZM -1.36564 10.8093C -1.91755 11.5636 -1.75354 12.6224 -0.999296 13.1743C -0.245057 13.7262 0.813787 13.5622 1.3657 12.808L -1.36564 10.8093ZM 7.2753 -0.999311L -1.36564 10.8093L 1.3657 12.808L 10.0066 0.999339L 7.2753 -0.999311Z"/>
<path id="path76_fill" d="M 46.8248 8.06732C 57.1005 14.8485 57.6844 32.1523 48.1093 46.6501C 38.5341 61.2648 22.5366 67.5784 12.2609 60.7972L 1.42542e-05 52.7298L 34.5639 -7.13609e-06L 46.8248 8.06732Z"/>
<path id="path77_stroke" d="M 46.8248 8.06732L 47.7569 6.6549L 47.7549 6.65364L 46.8248 8.06732ZM 48.1093 46.6501L 46.6972 45.7175L 46.6938 45.7227L 48.1093 46.6501ZM 12.2609 60.7972L 13.193 59.3847L 13.191 59.3835L 12.2609 60.7972ZM 1.42542e-05 52.7298L -1.41528 51.8021C -1.92701 52.5828 -1.70995 53.6304 -0.930151 54.1435L 1.42542e-05 52.7298ZM 34.5639 -7.13609e-06L 35.4941 -1.41369C 35.1187 -1.66066 34.6606 -1.74822 34.2206 -1.65706C 33.7806 -1.5659 33.395 -1.3035 33.1486 -0.927719L 34.5639 -7.13609e-06ZM 45.8927 9.47974C 50.4502 12.4873 52.9991 17.9188 53.2198 24.5216C 53.4403 31.1184 51.3136 38.7278 46.6972 45.7175L 49.5213 47.5827C 54.4801 40.0747 56.849 31.7832 56.6024 24.4085C 56.3561 17.0396 53.4751 10.4285 47.7569 6.6549L 45.8927 9.47974ZM 46.6938 45.7227C 42.0733 52.775 35.9429 57.7592 29.8266 60.173C 23.7073 62.588 17.7492 62.3915 13.193 59.3847L 11.3288 62.2096C 17.0483 65.984 24.2269 66.0214 31.069 63.3212C 37.9141 60.6198 44.57 55.14 49.5248 47.5775L 46.6938 45.7227ZM 13.191 59.3835L 0.930179 51.3162L -0.930151 54.1435L 11.3307 62.2108L 13.191 59.3835ZM 1.41531 53.6576L 35.9792 0.927705L 33.1486 -0.927719L -1.41528 51.8021L 1.41531 53.6576ZM 33.6338 1.41367L 45.8946 9.481L 47.7549 6.65364L 35.4941 -1.41369L 33.6338 1.41367Z"/>
<path id="path78_fill" d="M 31.5558 44.6231C 48.9835 44.6231 63.1115 34.6339 63.1115 22.3116C 63.1115 9.98923 48.9835 -7.12979e-06 31.5558 -7.12979e-06C 14.128 -7.12979e-06 0 9.98923 0 22.3116C 0 34.6339 14.128 44.6231 31.5558 44.6231Z"/>
<path id="path79_stroke" d="M 61.4193 22.3116C 61.4193 27.7766 58.2889 32.8907 52.8921 36.7065C 47.4996 40.5193 39.9614 42.9309 31.5558 42.9309L 31.5558 46.3154C 40.5779 46.3154 48.8176 43.7324 54.846 39.47C 60.8702 35.2106 64.8038 29.1688 64.8038 22.3116L 61.4193 22.3116ZM 31.5558 42.9309C 23.1502 42.9309 15.612 40.5193 10.2194 36.7065C 4.82265 32.8907 1.69225 27.7766 1.69225 22.3116L -1.69225 22.3116C -1.69225 29.1688 2.24135 35.2106 8.2655 39.47C 14.2939 43.7324 22.5336 46.3154 31.5558 46.3154L 31.5558 42.9309ZM 1.69225 22.3116C 1.69225 16.8465 4.82265 11.7325 10.2194 7.91666C 15.612 4.10385 23.1502 1.69224 31.5558 1.69224L 31.5558 -1.69226C 22.5336 -1.69226 14.2939 0.89075 8.2655 5.15315C 2.24135 9.41254 -1.69225 15.4543 -1.69225 22.3116L 1.69225 22.3116ZM 31.5558 1.69224C 39.9614 1.69224 47.4996 4.10385 52.8921 7.91666C 58.2889 11.7325 61.4193 16.8465 61.4193 22.3116L 64.8038 22.3116C 64.8038 15.4543 60.8702 9.41254 54.846 5.15315C 48.8176 0.89075 40.5779 -1.69226 31.5558 -1.69226L 31.5558 1.69224Z"/>
<path id="path80_stroke" d="M 0.930159 -1.41369C 0.149404 -1.92741 -0.899973 -1.71093 -1.41369 -0.930173C -1.92741 -0.149418 -1.71093 0.899958 -0.930173 1.41367L 0.930159 -1.41369ZM 11.3307 9.481C 12.1114 9.99472 13.1608 9.77824 13.6745 8.99749C 14.1882 8.21673 13.9718 7.16736 13.191 6.65364L 11.3307 9.481ZM -0.930173 1.41367L 11.3307 9.481L 13.191 6.65364L 0.930159 -1.41369L -0.930173 1.41367Z"/>
<path id="path81_stroke" d="M 0.92071 -1.41988C 0.136539 -1.92836 -0.911368 -1.70487 -1.41985 -0.920703C -1.92834 -0.136532 -1.70485 0.911375 -0.920682 1.41986L 0.92071 -1.41988ZM 11.3402 9.37026C 12.1243 9.87875 13.1723 9.65526 13.6807 8.87109C 14.1892 8.08692 13.9657 7.03901 13.1816 6.53053L 11.3402 9.37026ZM -0.920682 1.41986L 11.3402 9.37026L 13.1816 6.53053L 0.92071 -1.41988L -0.920682 1.41986Z"/>
<path id="path82_stroke" d="M 0.930179 -1.41368C 0.149424 -1.92739 -0.899953 -1.71091 -1.41367 -0.930158C -1.92738 -0.149402 -1.71091 0.899974 -0.930151 1.41369L 0.930179 -1.41368ZM 11.3307 9.481C 12.1115 9.99472 13.1608 9.77824 13.6746 8.99748C 14.1883 8.21673 13.9718 7.16735 13.191 6.65363L 11.3307 9.481ZM -0.930151 1.41369L 11.3307 9.481L 13.191 6.65363L 0.930179 -1.41368L -0.930151 1.41369Z"/>
<path id="path83_stroke" d="M 0.930151 -1.41368C 0.149395 -1.9274 -0.899981 -1.71092 -1.4137 -0.930165C -1.92741 -0.149409 -1.71093 0.899967 -0.930179 1.41368L 0.930151 -1.41368ZM 11.3307 9.48099C 12.1114 9.99471 13.1608 9.77823 13.6745 8.99747C 14.1882 8.21672 13.9718 7.16734 13.191 6.65363L 11.3307 9.48099ZM -0.930179 1.41368L 11.3307 9.48099L 13.191 6.65363L 0.930151 -1.41368L -0.930179 1.41368Z"/>
<path id="path84_fill" d="M 14.1292 0.58152C 25.923 -2.69217 39.3515 8.18117 44.0223 25.0173C 48.6931 41.8534 42.8546 58.105 31.0609 61.3787L 16.9316 65.3539L -1.42542e-05 4.55672L 14.1292 0.58152Z"/>
<path id="path85_stroke" d="M 14.1292 0.58152L 13.6766 -1.04909L 13.6709 -1.04748L 14.1292 0.58152ZM 44.0223 25.0173L 42.3917 25.4697L 44.0223 25.0173ZM 31.0609 61.3787L 30.6082 59.7481L 30.6025 59.7497L 31.0609 61.3787ZM 16.9316 65.3539L 15.3014 65.8079C 15.422 66.241 15.7101 66.6083 16.1019 66.8287C 16.4937 67.0492 16.9572 67.1046 17.39 66.9829L 16.9316 65.3539ZM -1.42542e-05 4.55672L -0.458328 2.92772C -1.35632 3.18036 -1.8805 4.11207 -1.63022 5.01073L -1.42542e-05 4.55672ZM 14.5818 2.21212C 19.8078 0.761507 25.5593 2.39821 30.6777 6.56997C 35.7911 10.7376 40.1389 17.3497 42.3917 25.4697L 45.653 24.5649C 43.2349 15.8488 38.5331 8.60617 32.816 3.94648C 27.104 -0.709043 20.2444 -2.87216 13.6766 -1.04908L 14.5818 2.21212ZM 42.3917 25.4697C 44.645 33.592 44.3414 41.504 42.1222 47.7145C 39.901 53.9308 35.8317 58.2982 30.6082 59.7481L 31.5135 63.0093C 38.0838 61.1855 42.8306 55.7903 45.3094 48.8533C 47.7902 41.9106 48.0704 33.2787 45.653 24.5649L 42.3917 25.4697ZM 30.6025 59.7497L 16.4733 63.7249L 17.39 66.9829L 31.5192 63.0077L 30.6025 59.7497ZM 18.5619 64.8999L 1.6302 4.10272L -1.63022 5.01073L 15.3014 65.8079L 18.5619 64.8999ZM 0.4583 6.18573L 14.5875 2.21052L 13.6709 -1.04748L -0.458328 2.92772L 0.4583 6.18573Z"/>
<path id="path86_fill" d="M 22.3051 63.1298C 34.6238 63.1298 44.6102 48.9977 44.6102 31.5649C 44.6102 14.1321 34.6238 0 22.3051 0C 9.98631 0 0 14.1321 0 31.5649C 0 48.9977 9.98631 63.1298 22.3051 63.1298Z"/>
<path id="path87_stroke" d="M 42.918 31.5649C 42.918 39.9732 40.507 47.5139 36.6952 52.9081C 32.8803 58.3066 27.7679 61.4376 22.3051 61.4376L 22.3051 64.8221C 29.161 64.8221 35.2012 60.887 39.4592 54.8613C 43.7203 48.8312 46.3025 40.5894 46.3025 31.5649L 42.918 31.5649ZM 22.3051 61.4376C 16.8422 61.4376 11.7298 58.3066 7.91502 52.9081C 4.10325 47.5139 1.69225 39.9732 1.69225 31.5649L -1.69225 31.5649C -1.69225 40.5894 0.889908 48.8312 5.15098 54.8613C 9.409 60.887 15.4492 64.8221 22.3051 64.8221L 22.3051 61.4376ZM 1.69225 31.5649C 1.69225 23.1566 4.10325 15.6159 7.91502 10.2217C 11.7298 4.8232 16.8422 1.69225 22.3051 1.69225L 22.3051 -1.69225C 15.4492 -1.69225 9.409 2.24284 5.15098 8.26855C 0.889908 14.2986 -1.69225 22.5404 -1.69225 31.5649L 1.69225 31.5649ZM 22.3051 1.69225C 27.7679 1.69225 32.8803 4.8232 36.6952 10.2217C 40.507 15.616 42.918 23.1566 42.918 31.5649L 46.3025 31.5649C 46.3025 22.5404 43.7203 14.2986 39.4592 8.26855C 35.2012 2.24284 29.161 -1.69225 22.3051 -1.69225L 22.3051 1.69225Z"/>
<path id="path88_stroke" d="M -0.445797 2.2258C -1.34739 2.472 -1.87869 3.40247 -1.63249 4.30406C -1.38629 5.20566 -0.455825 5.73696 0.445768 5.49076L -0.445797 2.2258ZM 14.575 1.63248C 15.4766 1.38628 16.0079 0.45581 15.7617 -0.445782C 15.5155 -1.34738 14.585 -1.87868 13.6834 -1.63248L 14.575 1.63248ZM 0.445768 5.49076L 14.575 1.63248L 13.6834 -1.63248L -0.445797 2.2258L 0.445768 5.49076Z"/>
<path id="path89_stroke" d="M -0.445771 2.22581C -1.34736 2.47201 -1.87866 3.40248 -1.63246 4.30407C -1.38626 5.20566 -0.455793 5.73696 0.445799 5.49076L -0.445771 2.22581ZM 14.5749 1.63248C 15.4765 1.38628 16.0078 0.455807 15.7616 -0.445785C 15.5154 -1.34738 14.585 -1.87868 13.6834 -1.63248L 14.5749 1.63248ZM 0.445799 5.49076L 14.5749 1.63248L 13.6834 -1.63248L -0.445771 2.22581L 0.445799 5.49076Z"/>
<path id="path90_stroke" d="M -0.445756 2.22581C -1.34735 2.47201 -1.87865 3.40248 -1.63245 4.30407C -1.38625 5.20566 -0.455779 5.73696 0.445813 5.49076L -0.445756 2.22581ZM 14.575 1.63248C 15.4766 1.38628 16.0079 0.455808 15.7617 -0.445785C 15.5155 -1.34738 14.585 -1.87868 13.6834 -1.63248L 14.575 1.63248ZM 0.445813 5.49076L 14.575 1.63248L 13.6834 -1.63248L -0.445756 2.22581L 0.445813 5.49076Z"/>
<path id="path91_stroke" d="M -0.458328 2.34619C -1.358 2.59931 -1.88214 3.53384 -1.62902 4.43351C -1.3759 5.33319 -0.441375 5.85732 0.458299 5.6042L -0.458328 2.34619ZM 14.5875 1.629C 15.4872 1.37588 16.0113 0.441361 15.7582 -0.458314C 15.5051 -1.35799 14.5706 -1.88212 13.6709 -1.629L 14.5875 1.629ZM 0.458299 5.6042L 14.5875 1.629L 13.6709 -1.629L -0.458328 2.34619L 0.458299 5.6042Z"/>
</defs>
</svg>
