<svg width="220" height="220" viewBox="0 0 220 220" version="1.1" xmlns="http://www.w3.org/2000/svg" xmlns:xlink="http://www.w3.org/1999/xlink">
<title>Pic_network</title>
<desc>Created using Figma</desc>
<g id="Canvas" transform="translate(455 -76)">
<g id="Pic_network">
<g id="Group">
<g id="Vector">
<use xlink:href="#path0_stroke" transform="translate(-412.347 168.643)" fill="#D0D3E6"/>
</g>
<g id="Vector">
<use xlink:href="#path1_stroke" transform="translate(-335.627 200.955)" fill="#D0D3E6"/>
</g>
<g id="Vector">
<use xlink:href="#path2_stroke" transform="translate(-347.144 200.955)" fill="#D0D3E6"/>
</g>
<g id="Vector">
<use xlink:href="#path3_stroke" transform="translate(-405.437 192.988)" fill="#D0D3E6"/>
</g>
<g id="Vector">
<use xlink:href="#path4_stroke" transform="translate(-398.438 128.098)" fill="#D0D3E6"/>
</g>
<g id="Vector">
<use xlink:href="#path5_stroke" transform="translate(-385.858 128.098)" fill="#D0D3E6"/>
</g>
<g id="Group">
<g id="Vector">
<use xlink:href="#path6_fill" transform="translate(-369.912 168.643)" fill="#FFFFFF"/>
<use xlink:href="#path7_stroke" transform="translate(-369.912 168.643)" fill="#D0D3E6"/>
</g>
<g id="Vector">
<use xlink:href="#path8_fill" transform="translate(-363.267 190.067)" fill="#FFFFFF"/>
<use xlink:href="#path9_stroke" transform="translate(-363.267 190.067)" fill="#D0D3E6"/>
</g>
<g id="Vector">
<use xlink:href="#path10_fill" transform="translate(-350.067 216.536)" fill="#FFFFFF"/>
<use xlink:href="#path11_stroke" transform="translate(-350.067 216.536)" fill="#D0D3E6"/>
</g>
<g id="Vector">
<use xlink:href="#path12_fill" transform="translate(-366.988 217.864)" fill="#FFFFFF"/>
<use xlink:href="#path13_stroke" transform="translate(-366.988 217.864)" fill="#D0D3E6"/>
</g>
<g id="Vector">
<use xlink:href="#path14_fill" transform="translate(-381.34 244.688)" fill="#FFFFFF"/>
<use xlink:href="#path15_stroke" transform="translate(-381.34 244.688)" fill="#D0D3E6"/>
</g>
<g id="Vector">
<use xlink:href="#path16_fill" transform="translate(-349.536 253.275)" fill="#FFFFFF"/>
<use xlink:href="#path17_stroke" transform="translate(-349.536 253.275)" fill="#D0D3E6"/>
</g>
<g id="Vector">
<use xlink:href="#path18_fill" transform="translate(-312.327 240.704)" fill="#FFFFFF"/>
<use xlink:href="#path19_stroke" transform="translate(-312.327 240.704)" fill="#D0D3E6"/>
</g>
<g id="Vector">
<use xlink:href="#path20_fill" transform="translate(-331.906 234.861)" fill="#FFFFFF"/>
<use xlink:href="#path21_stroke" transform="translate(-331.906 234.861)" fill="#D0D3E6"/>
</g>
<g id="Vector">
<use xlink:href="#path22_fill" transform="translate(-328.982 154.125)" fill="#FFFFFF"/>
<use xlink:href="#path23_stroke" transform="translate(-328.982 154.125)" fill="#D0D3E6"/>
</g>
<g id="Vector">
<use xlink:href="#path24_fill" transform="translate(-357.42 146.423)" fill="#FFFFFF"/>
<use xlink:href="#path25_stroke" transform="translate(-357.42 146.423)" fill="#D0D3E6"/>
</g>
<g id="Vector">
<use xlink:href="#path26_fill" transform="translate(-346.612 125.176)" fill="#FFFFFF"/>
<use xlink:href="#path27_stroke" transform="translate(-346.612 125.176)" fill="#D0D3E6"/>
</g>
<g id="Vector">
<use xlink:href="#path28_fill" transform="translate(-381.34 135.977)" fill="#FFFFFF"/>
<use xlink:href="#path29_stroke" transform="translate(-381.34 135.977)" fill="#D0D3E6"/>
</g>
<g id="Vector">
<use xlink:href="#path30_fill" transform="translate(-315.162 140.58)" fill="#FFFFFF"/>
<use xlink:href="#path31_stroke" transform="translate(-315.162 140.58)" fill="#D0D3E6"/>
</g>
<g id="Vector">
<use xlink:href="#path32_fill" transform="translate(-344.84 168.643)" fill="#FFFFFF"/>
<use xlink:href="#path33_stroke" transform="translate(-344.84 168.643)" fill="#D0D3E6"/>
</g>
<g id="Vector">
<use xlink:href="#path34_fill" transform="translate(-338.55 198.034)" fill="#FFFFFF"/>
<use xlink:href="#path35_stroke" transform="translate(-338.55 198.034)" fill="#D0D3E6"/>
</g>
<g id="Vector">
<use xlink:href="#path36_fill" transform="translate(-322.338 181.657)" fill="#FFFFFF"/>
<use xlink:href="#path37_stroke" transform="translate(-322.338 181.657)" fill="#D0D3E6"/>
</g>
</g>
</g>
<g id="Group">
<g id="Group">
<g id="Vector">
<use xlink:href="#path38_fill" transform="translate(-428.471 155.718)" fill="#D0D3E6"/>
</g>
<g id="Vector">
<use xlink:href="#path39_fill" transform="translate(-424.927 152.177)" fill="#FFFFFF"/>
</g>
<g id="Vector">
<use xlink:href="#path40_stroke" transform="translate(-424.927 152.177)" fill="#666699"/>
</g>
</g>
<g id="Vector">
<use xlink:href="#path41_fill" transform="translate(-424.927 164.482)" fill="#9999CC"/>
<use xlink:href="#path42_stroke" transform="translate(-424.927 164.482)" fill="#666699"/>
</g>
<g id="Vector">
<use xlink:href="#path43_fill" transform="translate(-403.488 223.441)" fill="#FFFFFF"/>
<use xlink:href="#path44_stroke" transform="translate(-403.488 223.441)" fill="#D0D3E6"/>
</g>
<g id="Vector">
<use xlink:href="#path45_stroke" transform="translate(-406.057 158.64)" fill="#D0D3E6"/>
</g>
</g>
<g id="Group">
<g id="Group">
<g id="Vector">
<use xlink:href="#path46_fill" transform="translate(-270.075 128.452)" fill="#D0D3E6"/>
</g>
<g id="Vector">
<use xlink:href="#path47_fill" transform="translate(-267.417 125.796)" fill="#FFFFFF"/>
</g>
<g id="Vector">
<use xlink:href="#path48_stroke" transform="translate(-267.417 125.796)" fill="#666699"/>
</g>
</g>
<g id="Group">
<g id="Vector">
<use xlink:href="#path49_fill" transform="translate(-277.776 175.46)" fill="#D0D3E6"/>
</g>
<g id="Vector">
<use xlink:href="#path50_fill" transform="translate(-275.119 172.804)" fill="#FFFFFF"/>
</g>
<g id="Vector">
<use xlink:href="#path51_stroke" transform="translate(-275.119 172.804)" fill="#666699"/>
</g>
</g>
<g id="Group">
<g id="Group">
<g id="Vector">
<use xlink:href="#path52_fill" transform="translate(-325.616 155.807)" fill="#D0D3E6"/>
</g>
<g id="Vector">
<use xlink:href="#path52_fill" transform="translate(-322.072 152.266)" fill="#FFFFFF"/>
</g>
<g id="Vector">
<use xlink:href="#path53_stroke" transform="translate(-322.072 152.266)" fill="#666699"/>
</g>
</g>
<g id="Group">
<g id="Vector">
<use xlink:href="#path54_fill" transform="translate(-303.999 214.057)" fill="#666699"/>
</g>
<g id="Vector">
<use xlink:href="#path55_fill" transform="translate(-297.887 202.372)" fill="#666699"/>
</g>
<g id="Vector">
<use xlink:href="#path56_fill" transform="translate(-304.885 202.283)" fill="#666699"/>
</g>
<g id="Vector">
<use xlink:href="#path57_fill" transform="translate(-297.798 204.674)" fill="#666699"/>
</g>
<g id="Vector">
<use xlink:href="#path58_fill" transform="translate(-291.951 208.126)" fill="#666699"/>
</g>
<g id="Vector">
<use xlink:href="#path59_fill" transform="translate(-308.34 208.038)" fill="#666699"/>
</g>
<g id="Vector">
<use xlink:href="#path60_fill" transform="translate(-307.189 204.585)" fill="#666699"/>
</g>
<g id="Vector">
<use xlink:href="#path61_fill" transform="translate(-297.355 214.323)" fill="#666699"/>
</g>
<g id="Vector">
<use xlink:href="#path62_fill" transform="translate(-301.43 201.442)" fill="#666699"/>
</g>
</g>
</g>
</g>
</g>
</g>
<defs>
<path id="path0_stroke" d="M 126.538 0.617322C 126.879 0.454227 127.023 0.0456268 126.86 -0.295311C 126.697 -0.636249 126.289 -0.780418 125.948 -0.617322L 126.538 0.617322ZM 92.9325 15.9348L 92.6372 15.3175C 92.5662 15.3515 92.5016 15.3975 92.4462 15.4534L 92.9325 15.9348ZM 76.7203 32.3123L 76.0511 32.4555C 76.1037 32.7013 76.2868 32.8985 76.528 32.9691C 76.7692 33.0397 77.0298 32.9724 77.2066 32.7937L 76.7203 32.3123ZM 70.4303 2.92139L 71.0994 2.77818C 71.045 2.52398 70.8513 2.32255 70.5994 2.2583C 70.3475 2.19405 70.081 2.27806 69.9115 2.47515L 70.4303 2.92139ZM 52.0032 24.3449L 52.3614 24.928C 52.4217 24.891 52.4759 24.8448 52.522 24.7911L 52.0032 24.3449ZM 26.4889 40.0141L 26.0908 40.5708C 26.3146 40.7308 26.6125 40.7413 26.847 40.5973L 26.4889 40.0141ZM -6.759e-07 21.0694L -0.254205 20.434C -0.486396 20.5269 -0.649419 20.7391 -0.67939 20.9874C -0.709361 21.2357 -0.601506 21.4805 -0.39809 21.626L -6.759e-07 21.0694ZM 45.3589 2.92139L 46.0125 2.71868C 45.9559 2.53627 45.8257 2.3858 45.6533 2.30364C 45.4809 2.22147 45.282 2.21509 45.1047 2.28604L 45.3589 2.92139ZM 51.3496 24.5476C 51.4616 24.9086 51.845 25.1105 52.2059 24.9985C 52.5669 24.8865 52.7688 24.5032 52.6568 24.1422L 51.3496 24.5476ZM 125.948 -0.617322L 92.6372 15.3175L 93.2278 16.5522L 126.538 0.617322L 125.948 -0.617322ZM 92.4462 15.4534L 76.2339 31.8309L 77.2066 32.7937L 93.4188 16.4163L 92.4462 15.4534ZM 77.3894 32.1691L 71.0994 2.77818L 69.7611 3.0646L 76.0511 32.4555L 77.3894 32.1691ZM 69.9115 2.47515L 51.4844 23.8986L 52.522 24.7911L 70.9491 3.36763L 69.9115 2.47515ZM 51.6451 23.7618L 26.1307 39.431L 26.847 40.5973L 52.3614 24.928L 51.6451 23.7618ZM 26.887 39.4575L 0.398088 20.5128L -0.39809 21.626L 26.0908 40.5708L 26.887 39.4575ZM 0.254204 21.7048L 45.6131 3.55674L 45.1047 2.28604L -0.254205 20.434L 0.254204 21.7048ZM 44.7053 3.1241L 51.3496 24.5476L 52.6568 24.1422L 46.0125 2.71868L 44.7053 3.1241Z"/>
<path id="path1_stroke" d="M 25.8183 43.03C 26.0172 43.3514 26.4389 43.4508 26.7603 43.2519C 27.0817 43.053 27.1811 42.6313 26.9822 42.3099L 25.8183 43.03ZM 0.581944 -0.360053C 0.383092 -0.681451 -0.0386535 -0.780794 -0.360052 -0.581943C -0.68145 -0.383091 -0.780793 0.0386549 -0.581941 0.360053L 0.581944 -0.360053ZM 26.9822 42.3099L 0.581944 -0.360053L -0.581941 0.360053L 25.8183 43.03L 26.9822 42.3099Z"/>
<path id="path2_stroke" d="M 18.1613 36.8272L 17.6752 37.3089C 17.8862 37.5218 18.2112 37.5726 18.4771 37.4343C 18.743 37.2959 18.8879 37.0007 18.8347 36.7057L 18.1613 36.8272ZM 11.5169 0L 12.1903 -0.121504C 12.1401 -0.400043 11.9236 -0.618903 11.6456 -0.672117C 11.3676 -0.725332 11.0855 -0.601918 10.9359 -0.361629L 11.5169 0ZM 1.3518e-06 18.5021L -0.580963 18.1405C -0.748504 18.4096 -0.709229 18.7586 -0.486054 18.9838L 1.3518e-06 18.5021ZM 18.8347 36.7057L 12.1903 -0.121504L 10.8435 0.121504L 17.4878 36.9487L 18.8347 36.7057ZM 10.9359 -0.361629L -0.580963 18.1405L 0.580966 18.8637L 12.0979 0.361629L 10.9359 -0.361629ZM -0.486054 18.9838L 17.6752 37.3089L 18.6473 36.3455L 0.486057 18.0204L -0.486054 18.9838Z"/>
<path id="path3_stroke" d="M 45.303 -0.651319C 44.9433 -0.767271 44.5577 -0.569663 44.4418 -0.20995C 44.3258 0.149764 44.5234 0.535367 44.8831 0.651319L 45.303 -0.651319ZM 69.8101 7.96742L 69.9138 8.64384C 70.2275 8.59574 70.4669 8.33832 70.4923 8.022C 70.5176 7.70568 70.3221 7.41346 70.0201 7.3161L 69.8101 7.96742ZM 19.5787 15.6693L 19.475 14.9928C 19.3947 15.0052 19.3172 15.0317 19.2461 15.0712L 19.5787 15.6693ZM -1.3518e-06 26.5581L -0.332611 25.96C -0.518236 26.0633 -0.645401 26.2468 -0.676803 26.4569C -0.708204 26.667 -0.640282 26.8797 -0.49296 27.0327L -1.3518e-06 26.5581ZM 27.0204 54.6211L 26.5275 55.0957C 26.6793 55.2534 26.8974 55.329 27.1143 55.2989C 27.3311 55.2689 27.5205 55.137 27.6238 54.9439L 27.0204 54.6211ZM 41.3722 27.7974L 41.3187 27.1152C 41.0862 27.1335 40.8789 27.2689 40.7689 27.4746L 41.3722 27.7974ZM 58.2932 26.4695L 58.9775 26.4596C 58.9747 26.2706 58.8939 26.0911 58.7542 25.9637C 58.6144 25.8364 58.4282 25.7725 58.2397 25.7873L 58.2932 26.4695ZM 58.8248 63.2082L 58.1405 63.2181C 58.1445 63.4958 58.3159 63.7435 58.5744 63.8451C 58.8328 63.9467 59.127 63.882 59.3191 63.6814L 58.8248 63.2082ZM 76.4545 44.7946L 76.6486 44.1384C 76.4029 44.0658 76.1373 44.1364 75.9602 44.3214L 76.4545 44.7946ZM 96.2104 50.6374L 96.0163 51.2936C 96.3228 51.3842 96.6512 51.2507 96.8074 50.9718L 96.2104 50.6374ZM 112.577 22.8203C 112.761 22.4905 112.644 22.0735 112.314 21.8888C 111.984 21.7041 111.567 21.8217 111.383 22.1514L 112.577 22.8203ZM 44.8831 0.651319L 69.6002 8.61874L 70.0201 7.3161L 45.303 -0.651319L 44.8831 0.651319ZM 69.7064 7.291L 19.475 14.9928L 19.6824 16.3457L 69.9138 8.64384L 69.7064 7.291ZM 19.2461 15.0712L -0.332611 25.96L 0.332608 27.1561L 19.9113 16.2673L 19.2461 15.0712ZM -0.49296 27.0327L 26.5275 55.0957L 27.5134 54.1464L 0.492957 26.0834L -0.49296 27.0327ZM 27.6238 54.9439L 41.9756 28.1203L 40.7689 27.4746L 26.417 54.2983L 27.6238 54.9439ZM 41.4258 28.4797L 58.3468 27.1518L 58.2397 25.7873L 41.3187 27.1152L 41.4258 28.4797ZM 57.609 26.4794L 58.1405 63.2181L 59.509 63.1983L 58.9775 26.4596L 57.609 26.4794ZM 59.3191 63.6814L 76.9488 45.2679L 75.9602 44.3214L 58.3305 62.7349L 59.3191 63.6814ZM 76.2604 45.4508L 96.0163 51.2936L 96.4045 49.9812L 76.6486 44.1384L 76.2604 45.4508ZM 96.8074 50.9718L 112.577 22.8203L 111.383 22.1514L 95.6134 50.3029L 96.8074 50.9718Z"/>
<path id="path4_stroke" d="M -0.459582 28.4413C -0.739607 28.6951 -0.760851 29.1278 -0.507031 29.4079C -0.253211 29.6879 0.179556 29.7091 0.459582 29.4553L -0.459582 28.4413ZM 20.0217 10.8003L 19.8185 10.1468C 19.7234 10.1764 19.6359 10.2264 19.5621 10.2933L 20.0217 10.8003ZM 54.7496 6.75407e-07L 55.0513 -0.61423C 54.8942 -0.69139 54.7135 -0.705425 54.5463 -0.653449L 54.7496 6.75407e-07ZM 86.111 15.4037L 86.6176 14.9437C 86.5596 14.8798 86.4901 14.8275 86.4127 14.7894L 86.111 15.4037ZM 102.082 34.0117C 102.336 34.2915 102.769 34.3124 103.049 34.0583C 103.329 33.8043 103.35 33.3715 103.096 33.0917L 102.082 34.0117ZM 0.459582 29.4553L 20.4813 11.3073L 19.5621 10.2933L -0.459582 28.4413L 0.459582 29.4553ZM 20.2249 11.4537L 54.9528 0.65345L 54.5463 -0.653449L 19.8185 10.1468L 20.2249 11.4537ZM 54.4479 0.614231L 85.8093 16.0179L 86.4127 14.7894L 55.0513 -0.61423L 54.4479 0.614231ZM 85.6043 15.8637L 102.082 34.0117L 103.096 33.0917L 86.6176 14.9437L 85.6043 15.8637Z"/>
<path id="path5_stroke" d="M 6.759e-07 80.5595L -0.609931 80.2492C -0.678755 80.3845 -0.700647 80.5388 -0.672163 80.6879L 6.759e-07 80.5595ZM 7.44169 119.511L 6.76952 119.64C 6.81868 119.897 7.01041 120.104 7.26331 120.172L 7.44169 119.511ZM 39.246 128.098L 39.0677 128.759C 39.3272 128.829 39.6038 128.741 39.7746 128.533C 39.9454 128.325 39.9787 128.037 39.8599 127.796L 39.246 128.098ZM 21.7935 92.6876L 22.4073 92.3851C 22.3458 92.2604 22.2478 92.1573 22.1263 92.0897L 21.7935 92.6876ZM 18.87 43.4667L 18.87 42.7824C 18.6125 42.7824 18.3768 42.9269 18.2601 43.1564L 18.87 43.4667ZM 43.9414 43.4667L 44.284 42.8743C 44.1799 42.8141 44.0617 42.7824 43.9414 42.7824L 43.9414 43.4667ZM 66.4436 56.4801L 66.1011 57.0725C 66.2948 57.1846 66.5311 57.1948 66.7338 57.0999C 66.9365 57.005 67.0799 56.817 67.118 56.5965L 66.4436 56.4801ZM 73.531 15.4037L 74.2053 15.52C 74.2559 15.227 74.1114 14.9349 73.8479 14.7972C 73.5844 14.6595 73.2621 14.7077 73.0504 14.9165L 73.531 15.4037ZM 59.7993 28.9483L 59.2148 29.3042C 59.3236 29.4828 59.508 29.6019 59.7156 29.6275C 59.9231 29.653 60.131 29.5823 60.2798 29.4355L 59.7993 28.9483ZM 42.1696 6.75407e-07L 42.754 -0.355943C 42.6249 -0.568021 42.391 -0.693494 42.1428 -0.683799C 41.8947 -0.674104 41.6713 -0.530762 41.5591 -0.309253L 42.1696 6.75407e-07ZM 31.3614 21.335L 31.0856 21.9613C 31.4183 22.1078 31.8076 21.9686 31.9719 21.6442L 31.3614 21.335ZM 7.44169 10.8003L 7.71751 10.174C 7.46808 10.0642 7.17723 10.1128 6.97711 10.2978C 6.77699 10.4829 6.70575 10.769 6.79575 11.0263L 7.44169 10.8003ZM 18.87 43.4667L 18.2241 43.6927C 18.3128 43.9463 18.5418 44.1245 18.8094 44.1483C 19.0771 44.1721 19.3339 44.0371 19.4659 43.8031L 18.87 43.4667ZM 31.3614 21.335L 31.9563 20.9968C 31.8345 20.7825 31.6069 20.6503 31.3604 20.6507C 31.1139 20.651 30.8866 20.7839 30.7654 20.9986L 31.3614 21.335ZM 43.9414 43.4667L 43.3465 43.8049C 43.4494 43.9859 43.6292 44.1103 43.8349 44.1427C 44.0406 44.1751 44.2499 44.1121 44.4035 43.9714L 43.9414 43.4667ZM 59.7993 28.9483L 60.4645 28.7877C 60.4077 28.5524 60.2307 28.3645 59.9991 28.2938C 59.7675 28.2231 59.5158 28.28 59.3372 28.4436L 59.7993 28.9483ZM 66.4436 56.4801L 67.118 56.3638C 67.1154 56.349 67.1124 56.3342 67.1089 56.3196L 66.4436 56.4801ZM 76.6317 115.528L 76.8498 116.176C 77.1697 116.069 77.3634 115.744 77.306 115.411L 76.6317 115.528ZM 39.0279 127.45C 38.6697 127.57 38.477 127.958 38.5974 128.316C 38.7179 128.675 39.1059 128.867 39.4641 128.747L 39.0279 127.45ZM -0.672163 80.6879L 6.76952 119.64L 8.11385 119.383L 0.672165 80.431L -0.672163 80.6879ZM 7.26331 120.172L 39.0677 128.759L 39.4244 127.438L 7.62006 118.851L 7.26331 120.172ZM 39.8599 127.796L 22.4073 92.3851L 21.1797 92.9902L 38.6322 128.401L 39.8599 127.796ZM 22.1263 92.0897L 0.33277 79.9615L -0.332768 81.1574L 21.4607 93.2856L 22.1263 92.0897ZM 0.609933 80.8697L 19.4799 43.777L 18.2601 43.1564L -0.609931 80.2492L 0.609933 80.8697ZM 18.87 44.151L 43.9414 44.151L 43.9414 42.7824L 18.87 42.7824L 18.87 44.151ZM 43.5988 44.0591L 66.1011 57.0725L 66.7862 55.8878L 44.284 42.8743L 43.5988 44.0591ZM 67.118 56.5965L 74.2053 15.52L 72.8566 15.2873L 65.7693 56.3638L 67.118 56.5965ZM 73.0504 14.9165L 59.3187 28.4611L 60.2798 29.4355L 74.0115 15.8909L 73.0504 14.9165ZM 60.3837 28.5923L 42.754 -0.355943L 41.5851 0.355944L 59.2148 29.3042L 60.3837 28.5923ZM 41.5591 -0.309253L 30.7509 21.0257L 31.9719 21.6442L 42.78 0.309254L 41.5591 -0.309253ZM 31.6372 20.7087L 7.71751 10.174L 7.16586 11.4266L 31.0856 21.9613L 31.6372 20.7087ZM 6.79575 11.0263L 18.2241 43.6927L 19.5159 43.2407L 8.08762 10.5743L 6.79575 11.0263ZM 19.4659 43.8031L 31.9573 21.6713L 30.7654 20.9986L 18.274 43.1303L 19.4659 43.8031ZM 30.7665 21.6731L 43.3465 43.8049L 44.5363 43.1285L 31.9563 20.9968L 30.7665 21.6731ZM 44.4035 43.9714L 60.2614 29.453L 59.3372 28.4436L 43.4793 42.962L 44.4035 43.9714ZM 59.1341 29.1088L 65.7784 56.6407L 67.1089 56.3196L 60.4645 28.7877L 59.1341 29.1088ZM 65.7693 56.5965L 75.9573 115.644L 77.306 115.411L 67.118 56.3638L 65.7693 56.5965ZM 76.4136 114.879L 39.0279 127.45L 39.4641 128.747L 76.8498 116.176L 76.4136 114.879Z"/>
<path id="path6_fill" d="M 2.92352 5.84277C 4.53813 5.84277 5.84704 4.53483 5.84704 2.92139C 5.84704 1.30795 4.53813 0 2.92352 0C 1.3089 0 -2.7036e-06 1.30795 -2.7036e-06 2.92139C -2.7036e-06 4.53483 1.3089 5.84277 2.92352 5.84277Z"/>
<path id="path7_stroke" d="M 5.16272 2.92139C 5.16272 4.15641 4.16067 5.15845 2.92352 5.15845L 2.92352 6.52709C 4.9156 6.52709 6.53136 4.91324 6.53136 2.92139L 5.16272 2.92139ZM 2.92352 5.15845C 1.68637 5.15845 0.684318 4.15641 0.684318 2.92139L -0.684324 2.92139C -0.684324 4.91324 0.931437 6.52709 2.92352 6.52709L 2.92352 5.15845ZM 0.684318 2.92139C 0.684318 1.68636 1.68637 0.684321 2.92352 0.684321L 2.92352 -0.684321C 0.931435 -0.684321 -0.684324 0.929541 -0.684324 2.92139L 0.684318 2.92139ZM 2.92352 0.684321C 4.16067 0.684321 5.16272 1.68636 5.16272 2.92139L 6.53136 2.92139C 6.53136 0.929541 4.9156 -0.684321 2.92352 -0.684321L 2.92352 0.684321Z"/>
<path id="path8_fill" d="M 2.92352 5.84277C 4.53814 5.84277 5.84704 4.53482 5.84704 2.92139C 5.84704 1.30795 4.53814 -2.70162e-06 2.92352 -2.70162e-06C 1.3089 -2.70162e-06 -2.7036e-06 1.30795 -2.7036e-06 2.92139C -2.7036e-06 4.53482 1.3089 5.84277 2.92352 5.84277Z"/>
<path id="path9_stroke" d="M 5.16272 2.92139C 5.16272 4.15641 4.16067 5.15845 2.92352 5.15845L 2.92352 6.52709C 4.91561 6.52709 6.53137 4.91323 6.53137 2.92139L 5.16272 2.92139ZM 2.92352 5.15845C 1.68637 5.15845 0.684318 4.15641 0.684318 2.92139L -0.684324 2.92139C -0.684324 4.91323 0.931436 6.52709 2.92352 6.52709L 2.92352 5.15845ZM 0.684318 2.92139C 0.684318 1.68636 1.68637 0.684318 2.92352 0.684318L 2.92352 -0.684324C 0.931436 -0.684324 -0.684324 0.929537 -0.684324 2.92139L 0.684318 2.92139ZM 2.92352 0.684318C 4.16067 0.684318 5.16272 1.68636 5.16272 2.92139L 6.53137 2.92139C 6.53137 0.929537 4.91561 -0.684324 2.92352 -0.684324L 2.92352 0.684318Z"/>
<path id="path10_fill" d="M 2.92352 5.84277C 4.53814 5.84277 5.84704 4.53482 5.84704 2.92138C 5.84704 1.30794 4.53814 5.40326e-06 2.92352 5.40326e-06C 1.30891 5.40326e-06 0 1.30794 0 2.92138C 0 4.53482 1.30891 5.84277 2.92352 5.84277Z"/>
<path id="path11_stroke" d="M 5.16272 2.92138C 5.16272 4.15641 4.16067 5.15845 2.92352 5.15845L 2.92352 6.5271C 4.91561 6.5271 6.53136 4.91323 6.53136 2.92138L 5.16272 2.92138ZM 2.92352 5.15845C 1.68638 5.15845 0.684321 4.15641 0.684321 2.92138L -0.684321 2.92138C -0.684321 4.91323 0.931437 6.5271 2.92352 6.5271L 2.92352 5.15845ZM 0.684321 2.92138C 0.684321 1.68636 1.68637 0.684326 2.92352 0.684326L 2.92352 -0.684316C 0.931441 -0.684316 -0.684321 0.92953 -0.684321 2.92138L 0.684321 2.92138ZM 2.92352 0.684326C 4.16067 0.684326 5.16272 1.68636 5.16272 2.92138L 6.53136 2.92138C 6.53136 0.929532 4.91561 -0.684316 2.92352 -0.684316L 2.92352 0.684326Z"/>
<path id="path12_fill" d="M 2.92352 5.84277C 4.53814 5.84277 5.84704 4.53482 5.84704 2.92138C 5.84704 1.30794 4.53814 5.40326e-06 2.92352 5.40326e-06C 1.30891 5.40326e-06 0 1.30794 0 2.92138C 0 4.53482 1.30891 5.84277 2.92352 5.84277Z"/>
<path id="path13_stroke" d="M 5.16272 2.92138C 5.16272 4.15641 4.16067 5.15845 2.92352 5.15845L 2.92352 6.5271C 4.91561 6.5271 6.53136 4.91323 6.53136 2.92138L 5.16272 2.92138ZM 2.92352 5.15845C 1.68638 5.15845 0.684321 4.15641 0.684321 2.92138L -0.684321 2.92138C -0.684321 4.91323 0.931438 6.5271 2.92352 6.5271L 2.92352 5.15845ZM 0.684321 2.92138C 0.684321 1.68636 1.68637 0.684326 2.92352 0.684326L 2.92352 -0.684316C 0.931442 -0.684316 -0.684321 0.92953 -0.684321 2.92138L 0.684321 2.92138ZM 2.92352 0.684326C 4.16067 0.684326 5.16272 1.68636 5.16272 2.92138L 6.53136 2.92138C 6.53136 0.929532 4.91561 -0.684316 2.92352 -0.684316L 2.92352 0.684326Z"/>
<path id="path14_fill" d="M 2.92352 5.84278C 4.53813 5.84278 5.84704 4.53482 5.84704 2.92139C 5.84704 1.30795 4.53813 -5.40326e-06 2.92352 -5.40326e-06C 1.3089 -5.40326e-06 2.7036e-06 1.30795 2.7036e-06 2.92139C 2.7036e-06 4.53482 1.3089 5.84278 2.92352 5.84278Z"/>
<path id="path15_stroke" d="M 5.16272 2.92139C 5.16272 4.15641 4.16066 5.15846 2.92352 5.15846L 2.92352 6.5271C 4.9156 6.5271 6.53136 4.91323 6.53136 2.92139L 5.16272 2.92139ZM 2.92352 5.15846C 1.68637 5.15846 0.684324 4.15642 0.684324 2.92139L -0.684318 2.92139C -0.684318 4.91323 0.931431 6.5271 2.92352 6.5271L 2.92352 5.15846ZM 0.684324 2.92139C 0.684324 1.68636 1.68637 0.684316 2.92352 0.684316L 2.92352 -0.684326C 0.931431 -0.684326 -0.684318 0.929539 -0.684318 2.92139L 0.684324 2.92139ZM 2.92352 0.684316C 4.16066 0.684316 5.16272 1.68636 5.16272 2.92139L 6.53136 2.92139C 6.53136 0.929537 4.9156 -0.684326 2.92352 -0.684326L 2.92352 0.684316Z"/>
<path id="path16_fill" d="M 2.92352 5.84277C 4.53814 5.84277 5.84704 4.53482 5.84704 2.92138C 5.84704 1.30794 4.53814 5.40326e-06 2.92352 5.40326e-06C 1.3089 5.40326e-06 -2.7036e-06 1.30794 -2.7036e-06 2.92138C -2.7036e-06 4.53482 1.3089 5.84277 2.92352 5.84277Z"/>
<path id="path17_stroke" d="M 5.16272 2.92138C 5.16272 4.15641 4.16067 5.15845 2.92352 5.15845L 2.92352 6.5271C 4.91561 6.5271 6.53137 4.91323 6.53137 2.92138L 5.16272 2.92138ZM 2.92352 5.15845C 1.68637 5.15845 0.684318 4.15641 0.684318 2.92138L -0.684324 2.92138C -0.684324 4.91323 0.931436 6.5271 2.92352 6.5271L 2.92352 5.15845ZM 0.684318 2.92138C 0.684318 1.68636 1.68637 0.684326 2.92352 0.684326L 2.92352 -0.684316C 0.93144 -0.684316 -0.684324 0.92953 -0.684324 2.92138L 0.684318 2.92138ZM 2.92352 0.684326C 4.16067 0.684326 5.16272 1.68636 5.16272 2.92138L 6.53137 2.92138C 6.53137 0.92953 4.9156 -0.684316 2.92352 -0.684316L 2.92352 0.684326Z"/>
<path id="path18_fill" d="M 2.92352 5.84278C 4.53813 5.84278 5.84704 4.53482 5.84704 2.92139C 5.84704 1.30795 4.53813 -5.40326e-06 2.92352 -5.40326e-06C 1.3089 -5.40326e-06 -2.7036e-06 1.30795 -2.7036e-06 2.92139C -2.7036e-06 4.53482 1.3089 5.84278 2.92352 5.84278Z"/>
<path id="path19_stroke" d="M 5.16272 2.92139C 5.16272 4.15641 4.16066 5.15846 2.92352 5.15846L 2.92352 6.5271C 4.9156 6.5271 6.53136 4.91323 6.53136 2.92139L 5.16272 2.92139ZM 2.92352 5.15846C 1.68637 5.15846 0.684318 4.15641 0.684318 2.92139L -0.684324 2.92139C -0.684324 4.91323 0.931434 6.5271 2.92352 6.5271L 2.92352 5.15846ZM 0.684318 2.92139C 0.684318 1.68636 1.68637 0.684316 2.92352 0.684316L 2.92352 -0.684326C 0.931434 -0.684326 -0.684324 0.929537 -0.684324 2.92139L 0.684318 2.92139ZM 2.92352 0.684316C 4.16066 0.684316 5.16272 1.68636 5.16272 2.92139L 6.53136 2.92139C 6.53136 0.929537 4.9156 -0.684326 2.92352 -0.684326L 2.92352 0.684316Z"/>
<path id="path20_fill" d="M 2.92352 5.84276C 4.53814 5.84276 5.84704 4.53483 5.84704 2.92139C 5.84704 1.30795 4.53814 2.70162e-06 2.92352 2.70162e-06C 1.30891 2.70162e-06 0 1.30795 0 2.92139C 0 4.53483 1.30891 5.84276 2.92352 5.84276Z"/>
<path id="path21_stroke" d="M 5.16271 2.92139C 5.16271 4.15641 4.16067 5.15844 2.92352 5.15844L 2.92352 6.52709C 4.9156 6.52709 6.53136 4.91324 6.53136 2.92139L 5.16271 2.92139ZM 2.92352 5.15844C 1.68637 5.15844 0.684321 4.15641 0.684321 2.92139L -0.684321 2.92139C -0.684321 4.91324 0.931441 6.52709 2.92352 6.52709L 2.92352 5.15844ZM 0.684321 2.92139C 0.684321 1.68636 1.68637 0.684324 2.92352 0.684324L 2.92352 -0.684318C 0.931436 -0.684318 -0.684321 0.929543 -0.684321 2.92139L 0.684321 2.92139ZM 2.92352 0.684324C 4.16066 0.684324 5.16271 1.68636 5.16271 2.92139L 6.53136 2.92139C 6.53136 0.929545 4.91561 -0.684318 2.92352 -0.684318L 2.92352 0.684324Z"/>
<path id="path22_fill" d="M 2.92352 5.84277C 4.53813 5.84277 5.84704 4.53483 5.84704 2.92139C 5.84704 1.30795 4.53813 0 2.92352 0C 1.3089 0 0 1.30795 0 2.92139C 0 4.53483 1.3089 5.84277 2.92352 5.84277Z"/>
<path id="path23_stroke" d="M 5.16272 2.92139C 5.16272 4.15641 4.16066 5.15845 2.92352 5.15845L 2.92352 6.52709C 4.9156 6.52709 6.53136 4.91324 6.53136 2.92139L 5.16272 2.92139ZM 2.92352 5.15845C 1.68637 5.15845 0.684321 4.15641 0.684321 2.92139L -0.684321 2.92139C -0.684321 4.91324 0.931432 6.52709 2.92352 6.52709L 2.92352 5.15845ZM 0.684321 2.92139C 0.684321 1.68636 1.68637 0.684321 2.92352 0.684321L 2.92352 -0.684321C 0.931431 -0.684321 -0.684321 0.929541 -0.684321 2.92139L 0.684321 2.92139ZM 2.92352 0.684321C 4.16066 0.684321 5.16272 1.68636 5.16272 2.92139L 6.53136 2.92139C 6.53136 0.92954 4.9156 -0.684321 2.92352 -0.684321L 2.92352 0.684321Z"/>
<path id="path24_fill" d="M 2.92352 5.84278C 4.53813 5.84278 5.84704 4.53482 5.84704 2.92139C 5.84704 1.30795 4.53813 0 2.92352 0C 1.3089 0 2.7036e-06 1.30795 2.7036e-06 2.92139C 2.7036e-06 4.53482 1.3089 5.84278 2.92352 5.84278Z"/>
<path id="path25_stroke" d="M 5.16272 2.92139C 5.16272 4.15641 4.16066 5.15846 2.92352 5.15846L 2.92352 6.5271C 4.9156 6.5271 6.53136 4.91323 6.53136 2.92139L 5.16272 2.92139ZM 2.92352 5.15846C 1.68637 5.15846 0.684324 4.15642 0.684324 2.92139L -0.684318 2.92139C -0.684318 4.91323 0.931431 6.5271 2.92352 6.5271L 2.92352 5.15846ZM 0.684324 2.92139C 0.684324 1.68636 1.68637 0.684321 2.92352 0.684321L 2.92352 -0.684321C 0.931433 -0.684321 -0.684318 0.929538 -0.684318 2.92139L 0.684324 2.92139ZM 2.92352 0.684321C 4.16067 0.684321 5.16272 1.68636 5.16272 2.92139L 6.53136 2.92139C 6.53136 0.929536 4.9156 -0.684321 2.92352 -0.684321L 2.92352 0.684321Z"/>
<path id="path26_fill" d="M 2.92352 5.84278C 4.53814 5.84278 5.84704 4.53483 5.84704 2.92139C 5.84704 1.30795 4.53814 0 2.92352 0C 1.30891 0 0 1.30795 0 2.92139C 0 4.53483 1.30891 5.84278 2.92352 5.84278Z"/>
<path id="path27_stroke" d="M 5.16272 2.92139C 5.16272 4.15642 4.16067 5.15845 2.92352 5.15845L 2.92352 6.5271C 4.91561 6.5271 6.53136 4.91324 6.53136 2.92139L 5.16272 2.92139ZM 2.92352 5.15845C 1.68638 5.15845 0.684321 4.15641 0.684321 2.92139L -0.684321 2.92139C -0.684321 4.91324 0.931438 6.5271 2.92352 6.5271L 2.92352 5.15845ZM 0.684321 2.92139C 0.684321 1.68636 1.68638 0.684321 2.92352 0.684321L 2.92352 -0.684321C 0.931438 -0.684321 -0.684321 0.929539 -0.684321 2.92139L 0.684321 2.92139ZM 2.92352 0.684321C 4.16067 0.684321 5.16272 1.68636 5.16272 2.92139L 6.53136 2.92139C 6.53136 0.929541 4.91561 -0.684321 2.92352 -0.684321L 2.92352 0.684321Z"/>
<path id="path28_fill" d="M 2.92352 5.84277C 4.53813 5.84277 5.84704 4.53483 5.84704 2.92139C 5.84704 1.30795 4.53813 0 2.92352 0C 1.3089 0 2.7036e-06 1.30795 2.7036e-06 2.92139C 2.7036e-06 4.53483 1.3089 5.84277 2.92352 5.84277Z"/>
<path id="path29_stroke" d="M 5.16272 2.92139C 5.16272 4.15641 4.16067 5.15845 2.92352 5.15845L 2.92352 6.5271C 4.9156 6.5271 6.53136 4.91324 6.53136 2.92139L 5.16272 2.92139ZM 2.92352 5.15845C 1.68637 5.15845 0.684324 4.15642 0.684324 2.92139L -0.684318 2.92139C -0.684318 4.91324 0.931432 6.5271 2.92352 6.5271L 2.92352 5.15845ZM 0.684324 2.92139C 0.684324 1.68636 1.68637 0.684321 2.92352 0.684321L 2.92352 -0.684321C 0.931432 -0.684321 -0.684318 0.929542 -0.684318 2.92139L 0.684324 2.92139ZM 2.92352 0.684321C 4.16066 0.684321 5.16272 1.68636 5.16272 2.92139L 6.53136 2.92139C 6.53136 0.92954 4.9156 -0.684321 2.92352 -0.684321L 2.92352 0.684321Z"/>
<path id="path30_fill" d="M 2.92352 5.84278C 4.53814 5.84278 5.84704 4.53483 5.84704 2.92139C 5.84704 1.30795 4.53814 0 2.92352 0C 1.30891 0 0 1.30795 0 2.92139C 0 4.53483 1.30891 5.84278 2.92352 5.84278Z"/>
<path id="path31_stroke" d="M 5.16272 2.92139C 5.16272 4.15642 4.16067 5.15846 2.92352 5.15846L 2.92352 6.5271C 4.91561 6.5271 6.53136 4.91324 6.53136 2.92139L 5.16272 2.92139ZM 2.92352 5.15846C 1.68638 5.15846 0.684321 4.15642 0.684321 2.92139L -0.684321 2.92139C -0.684321 4.91324 0.931437 6.5271 2.92352 6.5271L 2.92352 5.15846ZM 0.684321 2.92139C 0.684321 1.68636 1.68638 0.684321 2.92352 0.684321L 2.92352 -0.684321C 0.931438 -0.684321 -0.684321 0.929537 -0.684321 2.92139L 0.684321 2.92139ZM 2.92352 0.684321C 4.16067 0.684321 5.16272 1.68636 5.16272 2.92139L 6.53136 2.92139C 6.53136 0.929537 4.91561 -0.684321 2.92352 -0.684321L 2.92352 0.684321Z"/>
<path id="path32_fill" d="M 2.92352 5.84277C 4.53814 5.84277 5.84704 4.53483 5.84704 2.92139C 5.84704 1.30795 4.53814 0 2.92352 0C 1.30891 0 0 1.30795 0 2.92139C 0 4.53483 1.30891 5.84277 2.92352 5.84277Z"/>
<path id="path33_stroke" d="M 5.16272 2.92139C 5.16272 4.15642 4.16067 5.15845 2.92352 5.15845L 2.92352 6.52709C 4.91561 6.52709 6.53136 4.91324 6.53136 2.92139L 5.16272 2.92139ZM 2.92352 5.15845C 1.68637 5.15845 0.684321 4.15641 0.684321 2.92139L -0.684321 2.92139C -0.684321 4.91324 0.93144 6.52709 2.92352 6.52709L 2.92352 5.15845ZM 0.684321 2.92139C 0.684321 1.68636 1.68638 0.684321 2.92352 0.684321L 2.92352 -0.684321C 0.931438 -0.684321 -0.684321 0.929541 -0.684321 2.92139L 0.684321 2.92139ZM 2.92352 0.684321C 4.16067 0.684321 5.16272 1.68636 5.16272 2.92139L 6.53136 2.92139C 6.53136 0.929543 4.91561 -0.684321 2.92352 -0.684321L 2.92352 0.684321Z"/>
<path id="path34_fill" d="M 2.92352 5.84278C 4.53814 5.84278 5.84704 4.53483 5.84704 2.92139C 5.84704 1.30795 4.53814 -2.70163e-06 2.92352 -2.70163e-06C 1.30891 -2.70163e-06 0 1.30795 0 2.92139C 0 4.53483 1.30891 5.84278 2.92352 5.84278Z"/>
<path id="path35_stroke" d="M 5.16271 2.92139C 5.16271 4.15642 4.16066 5.15846 2.92352 5.15846L 2.92352 6.5271C 4.91561 6.5271 6.53136 4.91324 6.53136 2.92139L 5.16271 2.92139ZM 2.92352 5.15846C 1.68638 5.15846 0.684321 4.15642 0.684321 2.92139L -0.684321 2.92139C -0.684321 4.91324 0.931436 6.5271 2.92352 6.5271L 2.92352 5.15846ZM 0.684321 2.92139C 0.684321 1.68636 1.68638 0.684318 2.92352 0.684318L 2.92352 -0.684324C 0.931436 -0.684324 -0.684321 0.92954 -0.684321 2.92139L 0.684321 2.92139ZM 2.92352 0.684318C 4.16066 0.684318 5.16271 1.68636 5.16271 2.92139L 6.53136 2.92139C 6.53136 0.929542 4.91561 -0.684324 2.92352 -0.684324L 2.92352 0.684318Z"/>
<path id="path36_fill" d="M 2.92352 5.84278C 4.53813 5.84278 5.84704 4.53482 5.84704 2.92139C 5.84704 1.30795 4.53813 -2.70163e-06 2.92352 -2.70163e-06C 1.3089 -2.70163e-06 -5.4072e-06 1.30795 -5.4072e-06 2.92139C -5.4072e-06 4.53482 1.3089 5.84278 2.92352 5.84278Z"/>
<path id="path37_stroke" d="M 5.16272 2.92139C 5.16272 4.15641 4.16066 5.15846 2.92352 5.15846L 2.92352 6.5271C 4.9156 6.5271 6.53136 4.91323 6.53136 2.92139L 5.16272 2.92139ZM 2.92352 5.15846C 1.68637 5.15846 0.684316 4.15641 0.684316 2.92139L -0.684326 2.92139C -0.684326 4.91323 0.931432 6.5271 2.92352 6.5271L 2.92352 5.15846ZM 0.684316 2.92139C 0.684316 1.68636 1.68637 0.684318 2.92352 0.684318L 2.92352 -0.684324C 0.931432 -0.684324 -0.684326 0.929539 -0.684326 2.92139L 0.684316 2.92139ZM 2.92352 0.684318C 4.16066 0.684318 5.16272 1.68636 5.16272 2.92139L 6.53136 2.92139C 6.53136 0.929538 4.9156 -0.684324 2.92352 -0.684324L 2.92352 0.684318Z"/>
<path id="path38_fill" d="M 45.0931 79.4086L 1.94901 79.4086C 0.885915 79.4086 3.3795e-07 78.5233 3.3795e-07 77.461L 3.3795e-07 1.94759C 3.3795e-07 0.885267 0.885915 1.35081e-06 1.94901 1.35081e-06L 45.0931 1.35081e-06C 46.1562 1.35081e-06 47.0421 0.885267 47.0421 1.94759L 47.0421 77.461C 47.0421 78.5233 46.1562 79.4086 45.0931 79.4086Z"/>
<path id="path39_fill" d="M 45.0931 79.4086L 1.94901 79.4086C 0.885915 79.4086 3.3795e-07 78.5233 3.3795e-07 77.461L 3.3795e-07 1.94759C 3.3795e-07 0.885267 0.885915 1.35081e-06 1.94901 1.35081e-06L 45.0931 1.35081e-06C 46.1562 1.35081e-06 47.0421 0.885267 47.0421 1.94759L 47.0421 77.461C 47.0421 78.5233 46.1562 79.4086 45.0931 79.4086Z"/>
<path id="path40_stroke" d="M 45.0931 77.7663L 1.94901 77.7663L 1.94901 81.051L 45.0931 81.051L 45.0931 77.7663ZM 1.94901 77.7663C 1.88113 77.7663 1.80376 77.7384 1.73676 77.6714C 1.66977 77.6045 1.64237 77.5277 1.64237 77.461L -1.64237 77.461C -1.64237 79.4315 -0.0200243 81.051 1.94901 81.051L 1.94901 77.7663ZM 1.64237 77.461L 1.64237 1.94759L -1.64237 1.94759L -1.64237 77.461L 1.64237 77.461ZM 1.64237 1.94759C 1.64237 1.88088 1.66976 1.80412 1.73675 1.73718C 1.80375 1.67023 1.88112 1.64237 1.94901 1.64237L 1.94901 -1.64237C -0.0200094 -1.64237 -1.64237 -0.0229208 -1.64237 1.94759L 1.64237 1.94759ZM 1.94901 1.64237L 45.0931 1.64237L 45.0931 -1.64237L 1.94901 -1.64237L 1.94901 1.64237ZM 45.0931 1.64237C 45.161 1.64237 45.2383 1.67023 45.3053 1.73718C 45.3723 1.80412 45.3997 1.88088 45.3997 1.94759L 48.6845 1.94759C 48.6845 -0.0229189 47.0621 -1.64237 45.0931 -1.64237L 45.0931 1.64237ZM 45.3997 1.94759L 45.3997 77.461L 48.6845 77.461L 48.6845 1.94759L 45.3997 1.94759ZM 45.3997 77.461C 45.3997 77.5277 45.3723 77.6045 45.3053 77.6714C 45.2383 77.7384 45.161 77.7663 45.0931 77.7663L 45.0931 81.051C 47.0621 81.051 48.6845 79.4315 48.6845 77.461L 45.3997 77.461Z"/>
<path id="path41_fill" d="M 47.0421 2.70163e-06L 0 2.70163e-06L 0 54.8867L 47.0421 54.8867L 47.0421 2.70163e-06Z"/>
<path id="path42_stroke" d="M 0 2.70163e-06L 0 -1.64237C -0.907056 -1.64237 -1.64237 -0.907054 -1.64237 2.70163e-06L 0 2.70163e-06ZM 47.0421 2.70163e-06L 48.6845 2.70163e-06C 48.6845 -0.907054 47.9492 -1.64237 47.0421 -1.64237L 47.0421 2.70163e-06ZM 47.0421 54.8867L 47.0421 56.529C 47.9492 56.529 48.6845 55.7937 48.6845 54.8867L 47.0421 54.8867ZM 0 54.8867L -1.64237 54.8867C -1.64237 55.7937 -0.907056 56.529 3.6468e-16 56.529L 0 54.8867ZM 0 1.64237L 47.0421 1.64237L 47.0421 -1.64237L 0 -1.64237L 0 1.64237ZM 45.3997 2.70163e-06L 45.3997 54.8867L 48.6845 54.8867L 48.6845 2.70163e-06L 45.3997 2.70163e-06ZM 47.0421 53.2443L 0 53.2443L 0 56.529L 47.0421 56.529L 47.0421 53.2443ZM 1.64237 54.8867L 1.64237 2.70163e-06L -1.64237 2.70163e-06L -1.64237 54.8867L 1.64237 54.8867Z"/>
<path id="path43_fill" d="M 2.1262 4.24928C 3.30046 4.24928 4.25239 3.29805 4.25239 2.12464C 4.25239 0.951237 3.30046 -5.40324e-06 2.1262 -5.40324e-06C 0.951931 -5.40324e-06 0 0.951237 0 2.12464C 0 3.29805 0.951931 4.24928 2.1262 4.24928Z"/>
<path id="path44_stroke" d="M 3.22591 2.12464C 3.22591 2.73043 2.73426 3.2228 2.1262 3.2228L 2.1262 5.27576C 3.86666 5.27576 5.27887 3.86567 5.27887 2.12464L 3.22591 2.12464ZM 2.1262 3.2228C 1.51813 3.2228 1.02648 2.73043 1.02648 2.12464L -1.02648 2.12464C -1.02648 3.86567 0.385732 5.27576 2.1262 5.27576L 2.1262 3.2228ZM 1.02648 2.12464C 1.02648 1.51885 1.51814 1.02648 2.1262 1.02648L 2.1262 -1.02649C 0.385724 -1.02649 -1.02648 0.383624 -1.02648 2.12464L 1.02648 2.12464ZM 2.1262 1.02648C 2.73425 1.02648 3.22591 1.51885 3.22591 2.12464L 5.27887 2.12464C 5.27887 0.383626 3.86667 -1.02649 2.1262 -1.02649L 2.1262 1.02648Z"/>
<path id="path45_stroke" d="M 1.3518e-06 -1.02648C -0.566909 -1.02648 -1.02648 -0.566913 -1.02648 -3.05176e-06C -1.02648 0.566907 -0.566909 1.02648 1.3518e-06 1.02648L 1.3518e-06 -1.02648ZM 9.3907 1.02648C 9.95761 1.02648 10.4172 0.566907 10.4172 -3.05176e-06C 10.4172 -0.566913 9.95761 -1.02648 9.3907 -1.02648L 9.3907 1.02648ZM 1.3518e-06 1.02648L 9.3907 1.02648L 9.3907 -1.02648L 1.3518e-06 -1.02648L 1.3518e-06 1.02648Z"/>
<path id="path46_fill" d="M 5.23251 60.5524L 1.95463 60.5524C 0.89153 60.5524 -0.0829874 59.6671 0.00560416 58.5163L 1.24589 1.94759C 1.24589 0.885268 2.13181 -1.35081e-06 3.19491 -1.35081e-06L 3.99222 -1.35081e-06C 5.05532 -1.35081e-06 5.94125 0.885268 5.94125 1.94759L 7.18153 58.5163C 7.18153 59.6671 6.29561 60.5524 5.23251 60.5524Z"/>
<path id="path47_fill" d="M 5.23251 60.5524L 1.95463 60.5524C 0.89153 60.5524 -0.0829873 59.6671 0.00560415 58.5163L 1.24589 1.94759C 1.24589 0.885268 2.1318 -1.35081e-06 3.1949 -1.35081e-06L 3.99222 -1.35081e-06C 5.05532 -1.35081e-06 5.94124 0.885268 5.94124 1.94759L 7.18152 58.5163C 7.18152 59.6671 6.29561 60.5524 5.23251 60.5524Z"/>
<path id="path48_stroke" d="M 0.00560415 58.5163L 1.64313 58.6423C 1.64544 58.6124 1.64692 58.5823 1.64758 58.5523L 0.00560415 58.5163ZM 1.24589 1.94759L 2.88787 1.98359C 2.88813 1.97159 2.88826 1.95959 2.88826 1.94759L 1.24589 1.94759ZM 5.94124 1.94759L 4.29887 1.94759C 4.29887 1.95959 4.299 1.97159 4.29927 1.98359L 5.94124 1.94759ZM 7.18152 58.5163L 8.82389 58.5163C 8.82389 58.5043 8.82376 58.4923 8.82349 58.4803L 7.18152 58.5163ZM 5.23251 58.91L 1.95463 58.91L 1.95463 62.1948L 5.23251 62.1948L 5.23251 58.91ZM 1.95463 58.91C 1.87378 58.91 1.77763 58.8726 1.70914 58.8041C 1.67857 58.7736 1.66187 58.7449 1.65333 58.723C 1.64584 58.7038 1.64026 58.6796 1.64313 58.6423L -1.63192 58.3902C -1.80336 60.6173 0.0620018 62.1948 1.95463 62.1948L 1.95463 58.91ZM 1.64758 58.5523L 2.88787 1.98359L -0.396083 1.91159L -1.63637 58.4803L 1.64758 58.5523ZM 2.88826 1.94759C 2.88826 1.88088 2.91566 1.80412 2.98265 1.73718C 3.04964 1.67023 3.12701 1.64237 3.1949 1.64237L 3.1949 -1.64237C 1.22587 -1.64237 -0.396478 -0.0229132 -0.396478 1.94759L 2.88826 1.94759ZM 3.1949 1.64237L 3.99222 1.64237L 3.99222 -1.64237L 3.1949 -1.64237L 3.1949 1.64237ZM 3.99222 1.64237C 4.06011 1.64237 4.13749 1.67023 4.20449 1.73718C 4.27148 1.80412 4.29887 1.88089 4.29887 1.94759L 7.58361 1.94759C 7.58361 -0.0229281 5.96123 -1.64237 3.99222 -1.64237L 3.99222 1.64237ZM 4.29927 1.98359L 5.53954 58.5523L 8.82349 58.4803L 7.58322 1.91159L 4.29927 1.98359ZM 5.53915 58.5163C 5.53915 58.8069 5.34238 58.91 5.23251 58.91L 5.23251 62.1948C 7.24883 62.1948 8.82389 60.5273 8.82389 58.5163L 5.53915 58.5163Z"/>
<path id="path49_fill" d="M 7.79606 7.70184L -2.7036e-06 7.70184L -2.7036e-06 -2.70163e-06L 7.97324 -2.70163e-06L 7.79606 7.70184Z"/>
<path id="path50_fill" d="M 7.79605 7.70184L -2.7036e-06 7.70184L -2.7036e-06 -2.70163e-06L 7.97323 -2.70163e-06L 7.79605 7.70184Z"/>
<path id="path51_stroke" d="M 7.79605 7.70184L 7.79605 9.34421C 8.68839 9.34421 9.41747 8.63172 9.43799 7.73961L 7.79605 7.70184ZM -2.7036e-06 7.70184L -1.64237 7.70184C -1.64237 8.6089 -0.907059 9.34421 -2.7036e-06 9.34421L -2.7036e-06 7.70184ZM -2.7036e-06 -2.70163e-06L -2.7036e-06 -1.64237C -0.907059 -1.64237 -1.64237 -0.907059 -1.64237 -2.70163e-06L -2.7036e-06 -2.70163e-06ZM 7.97323 -2.70163e-06L 9.61517 0.0377699C 9.62534 -0.404246 9.45686 -0.831692 9.14784 -1.1479C 8.83882 -1.46411 8.41536 -1.64237 7.97323 -1.64237L 7.97323 -2.70163e-06ZM 7.79605 6.05947L -2.7036e-06 6.05947L -2.7036e-06 9.34421L 7.79605 9.34421L 7.79605 6.05947ZM 1.64237 7.70184L 1.64237 -2.70163e-06L -1.64237 -2.70163e-06L -1.64237 7.70184L 1.64237 7.70184ZM -2.7036e-06 1.64237L 7.97323 1.64237L 7.97323 -1.64237L -2.7036e-06 -1.64237L -2.7036e-06 1.64237ZM 6.3313 -0.0377753L 6.15412 7.66407L 9.43799 7.73961L 9.61517 0.0377699L 6.3313 -0.0377753Z"/>
<path id="path52_fill" d="M 29.6782 79.3201L 17.2753 79.3201C 7.70746 79.3201 -2.7036e-06 71.6183 -2.7036e-06 62.0574L -2.7036e-06 17.2627C -2.7036e-06 7.70184 7.70746 0 17.2753 0L 29.6782 0C 39.246 0 46.9535 7.70184 46.9535 17.2627L 46.9535 62.0574C 46.9535 71.6183 39.246 79.3201 29.6782 79.3201Z"/>
<path id="path53_stroke" d="M 29.6782 77.6777L 17.2753 77.6777L 17.2753 80.9625L 29.6782 80.9625L 29.6782 77.6777ZM 17.2753 77.6777C 8.61339 77.6777 1.64237 70.7101 1.64237 62.0574L -1.64237 62.0574C -1.64237 72.5264 6.80153 80.9625 17.2753 80.9625L 17.2753 77.6777ZM 1.64237 62.0574L 1.64237 17.2627L -1.64237 17.2627L -1.64237 62.0574L 1.64237 62.0574ZM 1.64237 17.2627C 1.64237 8.61002 8.61339 1.64237 17.2753 1.64237L 17.2753 -1.64237C 6.80153 -1.64237 -1.64237 6.79365 -1.64237 17.2627L 1.64237 17.2627ZM 17.2753 1.64237L 29.6782 1.64237L 29.6782 -1.64237L 17.2753 -1.64237L 17.2753 1.64237ZM 29.6782 1.64237C 38.3401 1.64237 45.3111 8.61002 45.3111 17.2627L 48.5959 17.2627C 48.5959 6.79365 40.152 -1.64237 29.6782 -1.64237L 29.6782 1.64237ZM 45.3111 17.2627L 45.3111 62.0574L 48.5959 62.0574L 48.5959 17.2627L 45.3111 17.2627ZM 45.3111 62.0574C 45.3111 70.7101 38.3401 77.6777 29.6782 77.6777L 29.6782 80.9625C 40.152 80.9625 48.5959 72.5264 48.5959 62.0574L 45.3111 62.0574Z"/>
<path id="path54_fill" d="M 5.4072e-06 5.22308C 1.24029 6.01982 2.56916 6.55098 3.98662 6.72804L 4.25239 6.72804L 5.4072e-06 2.70163e-06L 5.4072e-06 5.22308Z"/>
<path id="path55_fill" d="M 1.68323 7.34773L 5.58127 1.41643L 5.49267 1.3279C 4.87253 0.796741 4.1638 0.354106 3.36648 -1.35081e-06L 3.27788 -1.35081e-06L -2.51792e-14 4.95751L 1.68323 7.34773Z"/>
<path id="path56_fill" d="M 7.88465 8.58711L 2.30338 1.25804e-14L 2.21479 1.25804e-14C 1.41747 0.354108 0.70873 0.796742 0.0885889 1.3279L 5.4072e-06 1.41643L 6.29 10.8888L 7.88465 8.58711Z"/>
<path id="path57_fill" d="M 5.4072e-06 9.73796L 1.50606 12.0397L 7.79605 2.12465L 7.79605 2.03612C 7.44169 1.3279 6.99873 0.708218 6.46718 0.0885296L 6.3786 -2.70163e-06L 5.4072e-06 9.73796Z"/>
<path id="path58_fill" d="M 2.65774 0.265575L 2.56916 5.40325e-06L -2.7036e-06 4.16077L -2.7036e-06 10.3577L 0.177178 10.1806C 2.0376 8.41006 3.01212 5.9313 3.01212 3.00992C 3.10071 2.12465 2.92352 1.15084 2.65774 0.265575Z"/>
<path id="path59_fill" d="M 0.442955 0.265583C 0.17718 1.23938 -2.7036e-06 2.21318 -2.7036e-06 3.18697C -2.7036e-06 5.75425 1.06309 8.23299 2.83492 10.0921L 3.01212 10.2691L 3.01212 4.07224L 0.442955 -2.51608e-14L 0.442955 0.265583Z"/>
<path id="path60_fill" d="M 1.41747 5.40325e-06L 1.32887 0.0885242C 0.797323 0.619685 0.354366 1.23938 0 1.94759L 0 2.03611L 8.68197 15.7578L 10.2766 13.279L 1.41747 5.40325e-06Z"/>
<path id="path61_fill" d="M 0.265769 6.46246C 1.68323 6.2854 2.92352 5.84277 4.07521 5.13455L 4.1638 5.13455L 4.1638 5.40325e-06L 5.4072e-06 6.55099L 0.265769 6.46246Z"/>
<path id="path62_fill" d="M 5.66986 0.398371L 5.49268 0.398371C 3.80944 -0.13279 1.94901 -0.13279 0.17718 0.398371L -2.51792e-14 0.398371L 2.83493 4.64766L 5.66986 0.398371Z"/>
</defs>
</svg>
