<svg width="180" height="169" viewBox="0 0 180 169" version="1.1" xmlns="http://www.w3.org/2000/svg" xmlns:xlink="http://www.w3.org/1999/xlink">
<title>Pic_gateway</title>
<desc>Created using Figma</desc>
<g id="Canvas" transform="translate(-431 -1089)">
<g id="Pic_gateway">
<g id="Group">
<g id="Vector">
<use xlink:href="#path0_fill" transform="translate(558.08 1105.54)" fill="#D0D3E6"/>
</g>
<g id="Vector">
<use xlink:href="#path1_fill" transform="translate(562.94 1100.69)" fill="#FFFFFF"/>
</g>
<g id="Vector">
<use xlink:href="#path2_stroke" transform="translate(562.94 1100.69)" fill="#67679A"/>
</g>
</g>
<g id="Vector">
<use xlink:href="#path3_fill" transform="translate(552.86 1162.89)" fill="#FFFFFF"/>
<use xlink:href="#path4_stroke" transform="translate(552.86 1162.89)" fill="#67679A"/>
</g>
<g id="Group">
<g id="Group">
<g id="Vector">
<use xlink:href="#path5_fill" transform="translate(483.74 1135.57)" fill="#D0D3E6"/>
</g>
<g id="Vector">
<use xlink:href="#path6_fill" transform="translate(490.22 1135.57)" fill="#FFFFFF"/>
</g>
<g id="Vector">
<use xlink:href="#path7_stroke" transform="translate(490.22 1135.57)" fill="#67679A"/>
</g>
</g>
<g id="Group">
<g id="Vector">
<use xlink:href="#path8_fill" transform="translate(514.34 1210)" fill="#67679A"/>
</g>
<g id="Vector">
<use xlink:href="#path9_fill" transform="translate(522.62 1194.54)" fill="#67679A"/>
</g>
<g id="Vector">
<use xlink:href="#path10_fill" transform="translate(513.08 1194.54)" fill="#67679A"/>
</g>
<g id="Vector">
<use xlink:href="#path11_fill" transform="translate(522.62 1197.59)" fill="#67679A"/>
</g>
<g id="Vector">
<use xlink:href="#path12_fill" transform="translate(530.36 1202.27)" fill="#67679A"/>
</g>
<g id="Vector">
<use xlink:href="#path13_fill" transform="translate(508.58 1201.91)" fill="#67679A"/>
</g>
<g id="Vector">
<use xlink:href="#path14_fill" transform="translate(510.2 1197.59)" fill="#67679A"/>
</g>
<g id="Vector">
<use xlink:href="#path15_fill" transform="translate(522.98 1210.36)" fill="#67679A"/>
</g>
<g id="Vector">
<use xlink:href="#path16_fill" transform="translate(517.94 1193.28)" fill="#67679A"/>
</g>
</g>
</g>
</g>
</g>
<defs>
<path id="path0_fill" d="M 7.02 80.3649L 2.69996 80.3649C 1.25996 80.3649 -4.39453e-05 79.1064 -4.39453e-05 77.6681L 1.62 2.51702C 1.62 1.07872 2.88 1.09733e-05 4.32 1.09733e-05L 5.39996 1.09733e-05C 6.83996 1.09733e-05 7.91996 1.07872 8.09996 2.51702L 9.72 77.6681C 9.72 79.1064 8.46 80.3649 7.02 80.3649Z"/>
<path id="path1_fill" d="M 7.02002 80.3649L 2.69998 80.3649C 1.25998 80.3649 -2.19727e-05 79.1064 -2.19727e-05 77.6681L 1.62002 2.51703C 1.62002 1.07873 2.88002 -1.09733e-05 4.32002 -1.09733e-05L 5.39998 -1.09733e-05C 6.83998 -1.09733e-05 7.91998 1.07873 8.09998 2.51703L 9.72002 77.6681C 9.72002 79.1064 8.46002 80.3649 7.02002 80.3649Z"/>
<path id="path2_stroke" d="M -2.19727e-05 77.6681L -1.61743 77.6332C -1.61768 77.6449 -1.61781 77.6565 -1.61781 77.6681L -2.19727e-05 77.6681ZM 1.62002 2.51703L 3.23743 2.55189C 3.23768 2.54027 3.23781 2.52865 3.23781 2.51703L 1.62002 2.51703ZM 8.09998 2.51703L 9.71739 2.48216C 9.71619 2.42665 9.71213 2.37123 9.70524 2.31613L 8.09998 2.51703ZM 9.72002 77.6681L 11.3378 77.6681C 11.3378 77.6565 11.3377 77.6449 11.3374 77.6332L 9.72002 77.6681ZM 7.02002 78.7471L 2.69998 78.7471L 2.69998 81.9827L 7.02002 81.9827L 7.02002 78.7471ZM 2.69998 78.7471C 2.15165 78.7471 1.61776 78.2111 1.61776 77.6681L -1.61781 77.6681C -1.61781 80.0017 0.368306 81.9827 2.69998 81.9827L 2.69998 78.7471ZM 1.61739 77.703L 3.23743 2.55189L 0.00261455 2.48216L -1.61743 77.6332L 1.61739 77.703ZM 3.23781 2.51703C 3.23781 2.11555 3.62308 1.61777 4.32002 1.61777L 4.32002 -1.61779C 2.13696 -1.61779 0.00223878 0.041912 0.00223878 2.51703L 3.23781 2.51703ZM 4.32002 1.61777L 5.39998 1.61777L 5.39998 -1.61779L 4.32002 -1.61779L 4.32002 1.61777ZM 5.39998 1.61777C 5.91922 1.61777 6.40242 1.98046 6.49472 2.71792L 9.70524 2.31613C 9.43753 0.177001 7.76074 -1.61779 5.39998 -1.61779L 5.39998 1.61777ZM 6.48257 2.55189L 8.10261 77.703L 11.3374 77.6332L 9.71739 2.48216L 6.48257 2.55189ZM 8.10224 77.6681C 8.10224 78.2111 7.56835 78.7471 7.02002 78.7471L 7.02002 81.9827C 9.3517 81.9827 11.3378 80.0017 11.3378 77.6681L 8.10224 77.6681Z"/>
<path id="path3_fill" d="M 10.26 10.2479L 2.19727e-05 10.2479L 2.19727e-05 0L 10.44 0L 10.26 10.2479Z"/>
<path id="path4_stroke" d="M 10.26 10.2479L 10.26 11.8656C 11.1424 11.8656 11.8621 11.1585 11.8776 10.2763L 10.26 10.2479ZM 2.19727e-05 10.2479L -1.61776 10.2479C -1.61776 11.1413 -0.893455 11.8656 2.19727e-05 11.8656L 2.19727e-05 10.2479ZM 2.19727e-05 0L 2.19727e-05 -1.61778C -0.893455 -1.61778 -1.61776 -0.893477 -1.61776 3.5922e-16L 2.19727e-05 0ZM 10.44 0L 12.0575 0.0284044C 12.0652 -0.405515 11.8981 -0.824301 11.5939 -1.13386C 11.2898 -1.44342 10.874 -1.61778 10.44 -1.61778L 10.44 0ZM 10.26 8.63008L 2.19727e-05 8.63008L 2.19727e-05 11.8656L 10.26 11.8656L 10.26 8.63008ZM 1.61781 10.2479L 1.61781 0L -1.61776 0L -1.61776 10.2479L 1.61781 10.2479ZM 2.19727e-05 1.61778L 10.44 1.61778L 10.44 -1.61778L 2.19727e-05 -1.61778L 2.19727e-05 1.61778ZM 8.82247 -0.0284044L 8.64251 10.2195L 11.8776 10.2763L 12.0575 0.0284044L 8.82247 -0.0284044Z"/>
<path id="path5_fill" d="M 39.6 105.535L 23.04 105.535C 10.26 105.535 -2.19727e-05 95.2872 -2.19727e-05 82.5223L -2.19727e-05 23.0128C -2.19727e-05 10.2479 10.26 5.48667e-06 23.04 5.48667e-06L 39.6 5.48667e-06C 52.38 5.48667e-06 62.64 10.2479 62.64 23.0128L 62.64 82.5223C 62.64 95.2872 52.2 105.535 39.6 105.535Z"/>
<path id="path6_fill" d="M 39.6 105.535L 23.04 105.535C 10.26 105.535 4.39453e-05 95.2872 4.39453e-05 82.5223L 4.39453e-05 23.0128C 4.39453e-05 10.2479 10.26 5.48667e-06 23.04 5.48667e-06L 39.6 5.48667e-06C 52.38 5.48667e-06 62.64 10.2479 62.64 23.0128L 62.64 82.5223C 62.64 95.2872 52.2 105.535 39.6 105.535Z"/>
<path id="path7_stroke" d="M 62.64 82.5223L 61.0222 82.5223L 62.64 82.5223ZM 39.6 103.917L 23.04 103.917L 23.04 107.153L 39.6 107.153L 39.6 103.917ZM 23.04 103.917C 11.1517 103.917 1.61783 94.392 1.61783 82.5223L -1.61774 82.5223C -1.61774 96.1825 9.36835 107.153 23.04 107.153L 23.04 103.917ZM 1.61783 82.5223L 1.61783 23.0128L -1.61774 23.0128L -1.61774 82.5223L 1.61783 82.5223ZM 1.61783 23.0128C 1.61783 11.1432 11.1517 1.61779 23.04 1.61779L 23.04 -1.61778C 9.36835 -1.61778 -1.61774 9.35261 -1.61774 23.0128L 1.61783 23.0128ZM 23.04 1.61779L 39.6 1.61779L 39.6 -1.61778L 23.04 -1.61778L 23.04 1.61779ZM 39.6 1.61779C 51.4884 1.61779 61.0222 11.1432 61.0222 23.0128L 64.2578 23.0128C 64.2578 9.35261 53.2717 -1.61778 39.6 -1.61778L 39.6 1.61779ZM 61.0222 23.0128L 61.0222 82.5223L 64.2578 82.5223L 64.2578 23.0128L 61.0222 23.0128ZM 61.0222 82.5223C 61.0222 94.3838 51.3166 103.917 39.6 103.917L 39.6 107.153C 53.0835 107.153 64.2578 96.1907 64.2578 82.5223L 61.0222 82.5223Z"/>
<path id="path8_fill" d="M -2.19727e-05 7.01171C 1.61998 8.09044 3.41998 8.80957 5.39998 8.98936L 5.76 8.98936L 0.180044 -5.48667e-06L 0.180044 7.01171L -2.19727e-05 7.01171Z"/>
<path id="path9_fill" d="M 2.15996 9.70851L 7.38 1.79788L 7.20004 1.79788C 6.30004 1.07873 5.40004 0.539373 4.50004 1.09733e-05L 4.31998 1.09733e-05L 4.39453e-05 6.65213L 2.15996 9.70851Z"/>
<path id="path10_fill" d="M 10.62 11.3266L 3.24004 1.09733e-05L 3.05998 1.09733e-05C 1.97998 0.539373 1.08002 1.07873 0.180022 1.79788L -4.39453e-05 1.79788L 8.45998 14.383L 10.62 11.3266Z"/>
<path id="path11_fill" d="M 4.39453e-05 12.9447L 1.98 16.0011L 10.44 2.69681C 9.90002 1.79788 9.36002 0.898925 8.64002 0.179776L 8.45996 5.48667e-06L 4.39453e-05 12.9447Z"/>
<path id="path12_fill" d="M 3.60002 0.359585L 3.41996 -1.09733e-05L 2.19727e-05 5.39361L 2.19727e-05 13.6638L 0.179978 13.484C 2.69998 11.1468 3.96004 7.91065 3.96004 3.95533C 4.14004 2.69682 3.96002 1.6181 3.60002 0.359585Z"/>
<path id="path13_fill" d="M 0.540044 0.539362C 0.180044 1.79787 -4.39453e-05 3.05639 -4.39453e-05 4.3149C -4.39453e-05 7.73086 1.44002 10.967 3.78002 13.484L 3.95998 13.6638L 3.95998 5.39361L 0.540044 -5.48667e-06L 0.540044 0.539362Z"/>
<path id="path14_fill" d="M 1.8 5.48667e-06C 1.08 0.898942 0.36 1.79787 0 2.51702L 11.52 20.6755L 13.68 17.4394L 1.8 5.48667e-06Z"/>
<path id="path15_fill" d="M 0.540044 8.62978C 2.34004 8.44999 4.14002 7.73085 5.58002 6.83191L 5.58002 -1.09733e-05L -4.39453e-05 8.62978L 0.540044 8.62978Z"/>
<path id="path16_fill" d="M 7.38004 0.539356L 7.19998 0.539356C 4.85998 -0.179793 2.52004 -0.179793 0.180044 0.539356L -2.19727e-05 0.539356L 3.78004 6.29254L 7.38004 0.539356Z"/>
</defs>
</svg>
