<svg width="1040" height="230" viewBox="0 0 1040 230" version="1.1" xmlns="http://www.w3.org/2000/svg" xmlns:xlink="http://www.w3.org/1999/xlink">
<title>Page 1</title>
<desc>Created using Figma</desc>
<g id="Canvas" transform="translate(-1258 -4797)">
<g id="strategic investors and partners">
<use xlink:href="#rdm33path0_fill" transform="translate(1518 4960)" fill="#3C3C3B"/>
</g>
<g id="Q1 2018 pre-sale">
<use xlink:href="#rdm33path1_fill" transform="translate(1518 4796)" fill="#666699"/>
</g>
<g id="Q2 2018 private sale">
<use xlink:href="#rdm33path2_fill" transform="translate(1754 4796)" fill="#666699"/>
</g>
<g id="Q3-Q4 2018 private beta">
<use xlink:href="#rdm33path3_fill" transform="translate(1991 4796)" fill="#666699"/>
</g>
<g id="pilot partner integrations, limited deployments, BLE and LORA integration">
<use xlink:href="#rdm33path4_fill" transform="translate(1991 4960)" fill="#3C3C3B"/>
</g>
<g id="Rectangle 7">
<use xlink:href="#rdm33path5_fill" transform="translate(1494 4900)" fill="#D0D3E6"/>
</g>
<g id="Rectangle 7.1">
<use xlink:href="#rdm33path5_fill" transform="translate(1730 4900)" fill="#9999CC"/>
</g>
<g id="Union">
<use xlink:href="#rdm33path6_fill" transform="translate(1966 4900)" fill="#666699"/>
</g>
<g id="Vector">
<use xlink:href="#rdm33path7_stroke" transform="translate(1495 4835)" fill="#D0D3E6"/>
</g>
<g id="Completed. 5M USD invested by BitFury group">
<use xlink:href="#rdm33path8_fill" transform="translate(1282 4960)" fill="#828282"/>
</g>
<g id="Q4 2017 acquiring a seed investor">
<use xlink:href="#rdm33path9_fill" transform="translate(1282 4796)" fill="#828282"/>
</g>
<g id="Rectangle 7.4">
<use xlink:href="#rdm33path5_fill" transform="translate(1258 4900)" fill="#C4C4C4"/>
</g>
<g id="Vector">
<use xlink:href="#rdm33path7_stroke" transform="translate(1259 4835)" fill="#C4C4C4"/>
</g>
<g id="Vector">
<use xlink:href="#rdm33path7_stroke" transform="translate(1731 4835)" fill="#9999CC"/>
</g>
<g id="Vector">
<use xlink:href="#rdm33path7_stroke" transform="translate(1967 4835)" fill="#666699"/>
</g>
</g>
<defs>
<path id="rdm33path0_fill" d="M 7.308 9.35C 6.606 8.234 5.49 7.856 4.032 7.856C 1.89 7.856 0.81 8.918 0.81 10.412C 0.81 12.374 2.304 12.986 3.816 13.094C 5.562 13.22 6.138 13.562 6.138 14.534C 6.138 15.344 5.418 15.812 4.212 15.812C 2.916 15.812 2.268 15.542 1.782 14.894L 0.72 15.65C 1.404 16.586 2.358 17.144 4.194 17.144C 6.516 17.144 7.578 16.064 7.578 14.498C 7.578 12.428 6.03 11.942 4.338 11.816C 3.15 11.726 2.25 11.42 2.25 10.394C 2.25 9.602 2.934 9.188 3.996 9.188C 5.238 9.188 5.742 9.476 6.228 10.106L 7.308 9.35ZM 8.76277 9.296L 9.91477 9.296L 9.91477 14.228C 9.91477 16.1 10.5268 17 12.6508 17L 13.4248 17L 13.4248 15.632L 12.7048 15.632C 11.4988 15.632 11.3548 15.11 11.3548 13.868L 11.3548 9.296L 13.4248 9.296L 13.4248 8L 11.3548 8L 11.3548 6.02L 9.91477 6.02L 9.91477 8L 8.76277 8L 8.76277 9.296ZM 21.3345 9.08C 20.7585 8.27 19.9845 7.856 18.7605 7.856C 17.6625 7.856 17.0505 8.252 16.6725 8.882L 16.6725 8L 15.2325 8L 15.2325 17L 16.6725 17L 16.6725 11.366C 16.6725 10.016 17.5005 9.188 18.5985 9.188C 19.2645 9.188 19.7325 9.422 20.1105 9.944L 21.3345 9.08ZM 21.6907 14.372C 21.6907 16.118 22.8247 17.144 24.9127 17.144C 26.0827 17.144 26.6947 16.946 27.1987 16.118L 27.1987 17L 28.6387 17L 28.6387 10.754C 28.6387 8.594 27.5047 7.856 25.2187 7.856C 23.5087 7.856 22.5907 8.306 21.9607 9.35L 23.0407 10.106C 23.5447 9.278 24.1207 9.188 25.2007 9.188C 26.6047 9.188 27.1987 9.476 27.1987 10.754L 27.1987 11.798L 25.0567 11.798C 23.0767 11.798 21.6907 12.428 21.6907 14.372ZM 27.1987 13.544C 27.1987 15.56 26.2447 15.812 24.9127 15.812C 23.8507 15.812 23.1307 15.416 23.1307 14.408C 23.1307 13.508 23.6347 13.022 25.0567 13.022L 27.1987 13.022L 27.1987 13.544ZM 30.1905 9.296L 31.3425 9.296L 31.3425 14.228C 31.3425 16.1 31.9545 17 34.0785 17L 34.8525 17L 34.8525 15.632L 34.1325 15.632C 32.9265 15.632 32.7825 15.11 32.7825 13.868L 32.7825 9.296L 34.8525 9.296L 34.8525 8L 32.7825 8L 32.7825 6.02L 31.3425 6.02L 31.3425 8L 30.1905 8L 30.1905 9.296ZM 42.0962 14.84C 41.7182 15.506 41.1242 15.848 39.9542 15.848C 38.3882 15.848 37.6502 14.624 37.6502 13.076L 37.6502 12.824L 43.3382 12.824L 43.3382 11.888C 43.3382 9.314 42.1502 7.856 39.7742 7.856C 37.4162 7.856 36.2102 9.332 36.2102 11.888L 36.2102 13.076C 36.2102 15.578 37.6502 17.144 40.0622 17.144C 41.6282 17.144 42.5822 16.73 43.2122 15.632L 42.0962 14.84ZM 39.7742 9.152C 41.1422 9.152 41.8082 10.052 41.8802 11.564L 37.6502 11.564C 37.7402 10.07 38.3882 9.152 39.7742 9.152ZM 51.0473 8.9C 50.5613 8.234 49.7873 7.856 48.5993 7.856C 46.3673 7.856 44.9993 9.314 44.9993 11.888L 44.9993 13.076C 44.9993 15.416 46.1513 17.144 48.5993 17.144C 49.7873 17.144 50.5613 16.838 51.0473 16.208L 51.0473 16.82C 51.0473 18.368 50.3093 19.232 48.7433 19.232C 47.5733 19.232 46.9793 18.89 46.6013 18.224L 45.4853 19.016C 46.1153 20.114 47.0693 20.528 48.6353 20.528C 51.0473 20.528 52.4873 19.322 52.4873 16.82L 52.4873 8L 51.0473 8L 51.0473 8.9ZM 48.7433 15.848C 47.2133 15.848 46.4393 14.606 46.4393 13.076L 46.4393 11.888C 46.4393 10.178 47.2673 9.152 48.7433 9.152C 50.2193 9.152 51.0473 10.196 51.0473 11.888L 51.0473 13.076C 51.0473 14.624 50.3993 15.848 48.7433 15.848ZM 55.106 17L 56.546 17L 56.546 8L 55.106 8L 55.106 17ZM 55.016 6.2L 56.636 6.2L 56.636 4.58L 55.016 4.58L 55.016 6.2ZM 64.5962 14.84C 64.2182 15.56 63.4442 15.848 62.5982 15.848C 60.8702 15.848 60.1502 14.624 60.1502 13.076L 60.1502 11.888C 60.1502 10.196 61.0502 9.152 62.5982 9.152C 63.4262 9.152 64.1822 9.476 64.5782 10.052L 65.7122 9.26C 65.0642 8.342 63.9482 7.856 62.5982 7.856C 60.1682 7.856 58.7102 9.332 58.7102 11.888L 58.7102 13.076C 58.7102 15.56 60.1322 17.144 62.5982 17.144C 64.0562 17.144 65.1542 16.676 65.7122 15.632L 64.5962 14.84ZM 71.9283 17L 73.3683 17L 73.3683 8L 71.9283 8L 71.9283 17ZM 71.8383 6.2L 73.4583 6.2L 73.4583 4.58L 71.8383 4.58L 71.8383 6.2ZM 75.9825 17L 77.4225 17L 77.4225 11.384C 77.4225 10.142 78.2685 9.188 79.6185 9.188C 80.6805 9.188 81.6705 9.584 81.6705 11.402L 81.6705 17L 83.1105 17L 83.1105 11.384C 83.1105 8.864 81.7605 7.856 79.8345 7.856C 78.5025 7.856 77.8725 8.198 77.4225 8.882L 77.4225 8L 75.9825 8L 75.9825 17ZM 91.5591 8L 88.8231 15.164L 86.0871 8L 84.4671 8L 88.1391 17L 89.5791 17L 93.1791 8L 91.5591 8ZM 99.9634 14.84C 99.5854 15.506 98.9914 15.848 97.8214 15.848C 96.2554 15.848 95.5174 14.624 95.5174 13.076L 95.5174 12.824L 101.205 12.824L 101.205 11.888C 101.205 9.314 100.017 7.856 97.6414 7.856C 95.2834 7.856 94.0774 9.332 94.0774 11.888L 94.0774 13.076C 94.0774 15.578 95.5174 17.144 97.9294 17.144C 99.4954 17.144 100.449 16.73 101.079 15.632L 99.9634 14.84ZM 97.6414 9.152C 99.0094 9.152 99.6754 10.052 99.7474 11.564L 95.5174 11.564C 95.6074 10.07 96.2554 9.152 97.6414 9.152ZM 109.454 9.35C 108.752 8.234 107.636 7.856 106.178 7.856C 104.036 7.856 102.956 8.918 102.956 10.412C 102.956 12.374 104.45 12.986 105.962 13.094C 107.708 13.22 108.284 13.562 108.284 14.534C 108.284 15.344 107.564 15.812 106.358 15.812C 105.062 15.812 104.414 15.542 103.928 14.894L 102.866 15.65C 103.55 16.586 104.504 17.144 106.34 17.144C 108.662 17.144 109.724 16.064 109.724 14.498C 109.724 12.428 108.176 11.942 106.484 11.816C 105.296 11.726 104.396 11.42 104.396 10.394C 104.396 9.602 105.08 9.188 106.142 9.188C 107.384 9.188 107.888 9.476 108.374 10.106L 109.454 9.35ZM 110.909 9.296L 112.061 9.296L 112.061 14.228C 112.061 16.1 112.673 17 114.797 17L 115.571 17L 115.571 15.632L 114.851 15.632C 113.645 15.632 113.501 15.11 113.501 13.868L 113.501 9.296L 115.571 9.296L 115.571 8L 113.501 8L 113.501 6.02L 112.061 6.02L 112.061 8L 110.909 8L 110.909 9.296ZM 124.417 11.888C 124.417 9.314 123.049 7.856 120.673 7.856C 118.315 7.856 116.929 9.332 116.929 11.888L 116.929 13.076C 116.929 15.56 118.279 17.144 120.673 17.144C 123.265 17.144 124.417 15.416 124.417 13.076L 124.417 11.888ZM 120.673 15.848C 119.017 15.848 118.369 14.624 118.369 13.076L 118.369 11.888C 118.369 10.196 119.197 9.152 120.673 9.152C 122.149 9.152 122.977 10.178 122.977 11.888L 122.977 13.076C 122.977 14.606 122.203 15.848 120.673 15.848ZM 132.411 9.08C 131.835 8.27 131.061 7.856 129.837 7.856C 128.739 7.856 128.127 8.252 127.749 8.882L 127.749 8L 126.309 8L 126.309 17L 127.749 17L 127.749 11.366C 127.749 10.016 128.577 9.188 129.675 9.188C 130.341 9.188 130.809 9.422 131.187 9.944L 132.411 9.08ZM 139.531 9.35C 138.829 8.234 137.713 7.856 136.255 7.856C 134.113 7.856 133.033 8.918 133.033 10.412C 133.033 12.374 134.527 12.986 136.039 13.094C 137.785 13.22 138.361 13.562 138.361 14.534C 138.361 15.344 137.641 15.812 136.435 15.812C 135.139 15.812 134.491 15.542 134.005 14.894L 132.943 15.65C 133.627 16.586 134.581 17.144 136.417 17.144C 138.739 17.144 139.801 16.064 139.801 14.498C 139.801 12.428 138.253 11.942 136.561 11.816C 135.373 11.726 134.473 11.42 134.473 10.394C 134.473 9.602 135.157 9.188 136.219 9.188C 137.461 9.188 137.965 9.476 138.451 10.106L 139.531 9.35ZM 145.827 14.372C 145.827 16.118 146.961 17.144 149.049 17.144C 150.219 17.144 150.831 16.946 151.335 16.118L 151.335 17L 152.775 17L 152.775 10.754C 152.775 8.594 151.641 7.856 149.355 7.856C 147.645 7.856 146.727 8.306 146.097 9.35L 147.177 10.106C 147.681 9.278 148.257 9.188 149.337 9.188C 150.741 9.188 151.335 9.476 151.335 10.754L 151.335 11.798L 149.193 11.798C 147.213 11.798 145.827 12.428 145.827 14.372ZM 151.335 13.544C 151.335 15.56 150.381 15.812 149.049 15.812C 147.987 15.812 147.267 15.416 147.267 14.408C 147.267 13.508 147.771 13.022 149.193 13.022L 151.335 13.022L 151.335 13.544ZM 155.119 17L 156.559 17L 156.559 11.384C 156.559 10.142 157.405 9.188 158.755 9.188C 159.817 9.188 160.807 9.584 160.807 11.402L 160.807 17L 162.247 17L 162.247 11.384C 162.247 8.864 160.897 7.856 158.971 7.856C 157.639 7.856 157.009 8.198 156.559 8.882L 156.559 8L 155.119 8L 155.119 17ZM 170.192 8.9C 169.706 8.234 168.932 7.856 167.744 7.856C 165.512 7.856 164.144 9.314 164.144 11.888L 164.144 13.076C 164.144 15.416 165.296 17.144 167.744 17.144C 168.932 17.144 169.706 16.838 170.192 16.208L 170.192 17L 171.632 17L 171.632 4.58L 170.192 4.58L 170.192 8.9ZM 167.888 15.848C 166.358 15.848 165.584 14.606 165.584 13.076L 165.584 11.888C 165.584 10.178 166.412 9.152 167.888 9.152C 169.364 9.152 170.192 10.196 170.192 11.888L 170.192 13.202C 170.192 14.696 169.49 15.848 167.888 15.848ZM 2.61 31.9L 2.61 31L 1.17 31L 1.17 43.42L 2.61 43.42L 2.61 39.1C 3.096 39.766 3.87 40.144 5.058 40.144C 7.506 40.144 8.658 38.416 8.658 36.076L 8.658 34.888C 8.658 32.314 7.29 30.856 5.058 30.856C 3.87 30.856 3.096 31.234 2.61 31.9ZM 4.914 38.848C 3.258 38.848 2.61 37.624 2.61 36.076L 2.61 34.762C 2.61 33.142 3.474 32.152 4.914 32.152C 6.39 32.152 7.218 33.178 7.218 34.888L 7.218 36.076C 7.218 37.606 6.444 38.848 4.914 38.848ZM 10.1067 37.372C 10.1067 39.118 11.2407 40.144 13.3287 40.144C 14.4987 40.144 15.1107 39.946 15.6147 39.118L 15.6147 40L 17.0547 40L 17.0547 33.754C 17.0547 31.594 15.9207 30.856 13.6347 30.856C 11.9247 30.856 11.0067 31.306 10.3767 32.35L 11.4567 33.106C 11.9607 32.278 12.5367 32.188 13.6167 32.188C 15.0207 32.188 15.6147 32.476 15.6147 33.754L 15.6147 34.798L 13.4727 34.798C 11.4927 34.798 10.1067 35.428 10.1067 37.372ZM 15.6147 36.544C 15.6147 38.56 14.6607 38.812 13.3287 38.812C 12.2667 38.812 11.5467 38.416 11.5467 37.408C 11.5467 36.508 12.0507 36.022 13.4727 36.022L 15.6147 36.022L 15.6147 36.544ZM 25.5005 32.08C 24.9245 31.27 24.1505 30.856 22.9265 30.856C 21.8285 30.856 21.2165 31.252 20.8385 31.882L 20.8385 31L 19.3985 31L 19.3985 40L 20.8385 40L 20.8385 34.366C 20.8385 33.016 21.6665 32.188 22.7645 32.188C 23.4305 32.188 23.8985 32.422 24.2765 32.944L 25.5005 32.08ZM 25.6905 32.296L 26.8425 32.296L 26.8425 37.228C 26.8425 39.1 27.4545 40 29.5785 40L 30.3525 40L 30.3525 38.632L 29.6325 38.632C 28.4265 38.632 28.2825 38.11 28.2825 36.868L 28.2825 32.296L 30.3525 32.296L 30.3525 31L 28.2825 31L 28.2825 29.02L 26.8425 29.02L 26.8425 31L 25.6905 31L 25.6905 32.296ZM 32.1602 40L 33.6002 40L 33.6002 34.384C 33.6002 33.142 34.4462 32.188 35.7962 32.188C 36.8582 32.188 37.8482 32.584 37.8482 34.402L 37.8482 40L 39.2882 40L 39.2882 34.384C 39.2882 31.864 37.9382 30.856 36.0122 30.856C 34.6802 30.856 34.0502 31.198 33.6002 31.882L 33.6002 31L 32.1602 31L 32.1602 40ZM 47.0708 37.84C 46.6928 38.506 46.0988 38.848 44.9288 38.848C 43.3628 38.848 42.6248 37.624 42.6248 36.076L 42.6248 35.824L 48.3128 35.824L 48.3128 34.888C 48.3128 32.314 47.1248 30.856 44.7488 30.856C 42.3908 30.856 41.1848 32.332 41.1848 34.888L 41.1848 36.076C 41.1848 38.578 42.6248 40.144 45.0368 40.144C 46.6028 40.144 47.5568 39.73 48.1868 38.632L 47.0708 37.84ZM 44.7488 32.152C 46.1168 32.152 46.7828 33.052 46.8548 34.564L 42.6248 34.564C 42.7148 33.07 43.3628 32.152 44.7488 32.152ZM 56.5259 32.08C 55.9499 31.27 55.1759 30.856 53.9519 30.856C 52.8539 30.856 52.2419 31.252 51.8639 31.882L 51.8639 31L 50.4239 31L 50.4239 40L 51.8639 40L 51.8639 34.366C 51.8639 33.016 52.6919 32.188 53.7899 32.188C 54.4559 32.188 54.9239 32.422 55.3019 32.944L 56.5259 32.08ZM 63.6459 32.35C 62.9439 31.234 61.8279 30.856 60.3699 30.856C 58.2279 30.856 57.1479 31.918 57.1479 33.412C 57.1479 35.374 58.6419 35.986 60.1539 36.094C 61.8999 36.22 62.4759 36.562 62.4759 37.534C 62.4759 38.344 61.7559 38.812 60.5499 38.812C 59.2539 38.812 58.6059 38.542 58.1199 37.894L 57.0579 38.65C 57.7419 39.586 58.6959 40.144 60.5319 40.144C 62.8539 40.144 63.9159 39.064 63.9159 37.498C 63.9159 35.428 62.3679 34.942 60.6759 34.816C 59.4879 34.726 58.5879 34.42 58.5879 33.394C 58.5879 32.602 59.2719 32.188 60.3339 32.188C 61.5759 32.188 62.0799 32.476 62.5659 33.106L 63.6459 32.35Z"/>
<path id="rdm33path1_fill" d="M 12.43 8.442L 12.43 10.378C 12.43 11.9913 12.1807 13.304 11.682 14.316L 13.728 16.142L 12.298 17.77L 10.362 16.054C 9.46733 16.8167 8.25733 17.198 6.732 17.198C 4.928 17.198 3.52733 16.626 2.53 15.482C 1.54733 14.338 1.056 12.6367 1.056 10.378L 1.056 8.442C 1.056 6.18333 1.54733 4.482 2.53 3.338C 3.52733 2.194 4.928 1.622 6.732 1.622C 8.536 1.622 9.93667 2.194 10.934 3.338C 11.9313 4.482 12.43 6.18333 12.43 8.442ZM 3.608 8.442L 3.608 10.378C 3.608 11.962 3.86467 13.128 4.378 13.876C 4.89133 14.6093 5.676 14.976 6.732 14.976C 7.45067 14.976 8.052 14.8 8.536 14.448L 6.6 12.71L 8.074 11.06L 9.658 12.49C 9.80467 11.962 9.878 11.258 9.878 10.378L 9.878 8.442C 9.878 6.858 9.614 5.69933 9.086 4.966C 8.57267 4.218 7.788 3.844 6.732 3.844C 5.676 3.844 4.89133 4.218 4.378 4.966C 3.86467 5.69933 3.608 6.858 3.608 8.442ZM 18.6601 1.82L 21.0581 1.82L 21.0581 17L 18.5061 17L 18.5061 4.57L 16.3281 6.066L 16.3281 3.492L 18.6601 1.82ZM 34.9723 14.8L 40.7363 14.8L 40.7363 17L 31.5623 17L 31.5623 15.196L 36.7763 9.08C 37.8029 7.90667 38.3163 6.84333 38.3163 5.89C 38.3163 5.24467 38.1109 4.73867 37.7003 4.372C 37.3043 3.99067 36.7909 3.8 36.1603 3.8C 35.5296 3.8 35.0163 3.99067 34.6203 4.372C 34.2389 4.73867 34.0336 5.24467 34.0043 5.89L 31.6723 5.89C 31.6723 4.62867 32.1123 3.602 32.9923 2.81C 33.8723 2.018 34.9576 1.622 36.2483 1.622C 37.5829 1.622 38.6756 2.02533 39.5263 2.832C 40.4063 3.65333 40.8463 4.68733 40.8463 5.934C 40.8463 6.858 40.5749 7.73067 40.0323 8.552C 39.8416 8.84533 39.6143 9.168 39.3503 9.52L 38.5583 10.51L 34.9723 14.8ZM 52.5824 6.264L 52.5824 12.556C 52.5824 14.052 52.1204 15.2033 51.1964 16.01C 50.3017 16.802 49.1724 17.198 47.8084 17.198C 46.4591 17.198 45.3224 16.802 44.3984 16.01C 43.4891 15.1887 43.0344 14.0373 43.0344 12.556L 43.0344 6.286C 43.0344 4.76067 43.4891 3.602 44.3984 2.81C 45.3077 2.018 46.4444 1.622 47.8084 1.622C 49.1724 1.622 50.3091 2.018 51.2184 2.81C 52.1277 3.58733 52.5824 4.73867 52.5824 6.264ZM 50.0304 12.402L 50.0304 6.418C 50.0304 5.61133 49.8324 4.98067 49.4364 4.526C 49.0404 4.07133 48.4977 3.844 47.8084 3.844C 47.1044 3.844 46.5544 4.07133 46.1584 4.526C 45.7624 4.98067 45.5644 5.61133 45.5644 6.418L 45.5644 12.402C 45.5644 13.2087 45.7624 13.8393 46.1584 14.294C 46.5544 14.7487 47.1044 14.976 47.8084 14.976C 48.4977 14.976 49.0404 14.7487 49.4364 14.294C 49.8324 13.8393 50.0304 13.2087 50.0304 12.402ZM 58.6425 1.82L 61.0405 1.82L 61.0405 17L 58.4885 17L 58.4885 4.57L 56.3105 6.066L 56.3105 3.492L 58.6425 1.82ZM 65.8907 12.754C 65.8907 11.9473 66.1107 11.214 66.5507 10.554C 66.9907 9.87933 67.5334 9.40267 68.1787 9.124C 67.5627 8.816 67.064 8.36133 66.6827 7.76C 66.3014 7.15867 66.1107 6.506 66.1107 5.802C 66.1107 4.55533 66.5727 3.54333 67.4967 2.766C 68.406 2.00333 69.506 1.622 70.7967 1.622C 72.102 1.622 73.202 2.00333 74.0967 2.766C 75.0207 3.54333 75.4827 4.55533 75.4827 5.802C 75.4827 6.506 75.292 7.15867 74.9107 7.76C 74.5294 8.36133 74.0307 8.816 73.4147 9.124C 74.0747 9.40267 74.6174 9.87933 75.0427 10.554C 75.4827 11.214 75.7027 11.9473 75.7027 12.754C 75.7027 14.0887 75.226 15.1667 74.2727 15.988C 73.334 16.7947 72.1754 17.198 70.7967 17.198C 69.418 17.198 68.2594 16.7947 67.3207 15.988C 66.3674 15.1667 65.8907 14.0887 65.8907 12.754ZM 68.4427 12.6C 68.4427 13.2747 68.6627 13.8467 69.1027 14.316C 69.5574 14.7707 70.122 14.998 70.7967 14.998C 71.4567 14.998 72.014 14.7633 72.4687 14.294C 72.938 13.8247 73.1727 13.26 73.1727 12.6C 73.1727 11.896 72.9234 11.324 72.4247 10.884C 71.9407 10.444 71.398 10.224 70.7967 10.224C 70.166 10.224 69.616 10.4513 69.1467 10.906C 68.6774 11.346 68.4427 11.9107 68.4427 12.6ZM 72.9527 5.978C 72.9527 5.39133 72.74 4.89267 72.3147 4.482C 71.904 4.05667 71.398 3.844 70.7967 3.844C 70.1954 3.844 69.682 4.04933 69.2567 4.46C 68.846 4.87067 68.6407 5.37667 68.6407 5.978C 68.6407 6.57933 68.846 7.09267 69.2567 7.518C 69.682 7.94333 70.1954 8.156 70.7967 8.156C 71.398 8.156 71.904 7.94333 72.3147 7.518C 72.74 7.09267 72.9527 6.57933 72.9527 5.978ZM 10.604 38.73L 10.604 40.226C 10.604 41.7513 10.2227 42.9613 9.46 43.856C 8.712 44.7507 7.64867 45.198 6.27 45.198C 5.05267 45.198 4.16533 44.8973 3.608 44.296L 3.608 49.18L 1.254 49.18L 1.254 34L 3.608 34L 3.608 34.88C 4.19467 34.1613 5.08933 33.802 6.292 33.802C 7.62667 33.802 8.67533 34.242 9.438 35.122C 10.2153 35.9873 10.604 37.19 10.604 38.73ZM 5.94 43.174C 6.71733 43.174 7.29667 42.9027 7.678 42.36C 8.074 41.8173 8.272 41.0693 8.272 40.116L 8.272 38.84C 8.272 36.8453 7.49467 35.848 5.94 35.848C 4.4 35.848 3.62267 36.8013 3.608 38.708L 3.608 40.116C 3.608 42.1547 4.38533 43.174 5.94 43.174ZM 20.4942 35.43L 18.6242 36.75C 18.2282 36.178 17.7002 35.892 17.0402 35.892C 16.4242 35.892 15.9329 36.112 15.5662 36.552C 15.1995 36.9773 15.0162 37.5787 15.0162 38.356L 15.0162 45L 12.6622 45L 12.6622 34L 14.9722 34L 14.9722 34.99C 15.4709 34.198 16.2922 33.802 17.4362 33.802C 18.7855 33.802 19.8049 34.3447 20.4942 35.43ZM 27.9833 42.096L 29.7433 43.328C 29.0246 44.5747 27.712 45.198 25.8053 45.198C 24.28 45.198 23.092 44.7507 22.2413 43.856C 21.4053 42.9613 20.9873 41.7513 20.9873 40.226L 20.9873 38.73C 20.9873 37.1167 21.3686 35.892 22.1313 35.056C 22.894 34.22 24.0013 33.802 25.4533 33.802C 28.416 33.802 29.8973 35.4887 29.8973 38.862L 29.8973 40.072L 23.3193 40.072L 23.3193 40.116C 23.3193 41.0693 23.5173 41.8173 23.9133 42.36C 24.3093 42.9027 24.9106 43.174 25.7173 43.174C 26.3186 43.174 26.788 43.0933 27.1253 42.932C 27.4626 42.756 27.7486 42.4773 27.9833 42.096ZM 25.4533 35.848C 24.1626 35.848 23.4586 36.6547 23.3413 38.268L 27.5433 38.268C 27.4553 36.6547 26.7586 35.848 25.4533 35.848ZM 37.274 39.676L 31.576 39.676L 31.576 37.608L 37.274 37.608L 37.274 39.676ZM 47.0274 35.628L 45.2894 36.882C 45.0107 36.5153 44.6954 36.2587 44.3434 36.112C 43.9914 35.9653 43.5074 35.892 42.8914 35.892C 41.7474 35.892 41.1754 36.266 41.1754 37.014C 41.1754 37.4247 41.3367 37.7327 41.6594 37.938C 41.9967 38.1433 42.5321 38.29 43.2654 38.378C 44.6147 38.5247 45.6194 38.8767 46.2794 39.434C 46.9541 39.9767 47.2914 40.7833 47.2914 41.854C 47.2914 42.91 46.9247 43.7313 46.1914 44.318C 45.4727 44.9047 44.4314 45.198 43.0674 45.198C 41.0287 45.198 39.5547 44.5893 38.6454 43.372L 40.4274 42.096C 40.9407 42.7853 41.8134 43.13 43.0454 43.13C 43.6467 43.13 44.1161 43.0273 44.4534 42.822C 44.7907 42.602 44.9594 42.3013 44.9594 41.92C 44.9594 41.4947 44.7981 41.1867 44.4754 40.996C 44.1674 40.8053 43.5661 40.6513 42.6714 40.534C 40.1047 40.2113 38.8214 39.06 38.8214 37.08C 38.8214 36.068 39.1807 35.2687 39.8994 34.682C 40.6181 34.0953 41.6301 33.802 42.9354 33.802C 44.8861 33.802 46.2501 34.4107 47.0274 35.628ZM 49.906 44.296C 49.2166 43.6947 48.872 42.8513 48.872 41.766C 48.872 40.6807 49.224 39.8667 49.928 39.324C 50.6466 38.7813 51.6586 38.51 52.964 38.51L 55.34 38.51L 55.34 37.586C 55.34 36.8967 55.186 36.4347 54.878 36.2C 54.57 35.9507 53.998 35.826 53.162 35.826C 52.5166 35.826 52.0326 35.892 51.71 36.024C 51.3873 36.156 51.1013 36.42 50.852 36.816L 49.158 35.628C 49.554 34.9827 50.0746 34.5207 50.72 34.242C 51.3653 33.9487 52.2306 33.802 53.316 33.802C 54.8266 33.802 55.9266 34.0953 56.616 34.682C 57.3053 35.254 57.65 36.2293 57.65 37.608L 57.65 45L 55.34 45L 55.34 43.988C 55.076 44.428 54.746 44.7433 54.35 44.934C 53.9686 45.11 53.448 45.198 52.788 45.198C 51.556 45.198 50.5953 44.8973 49.906 44.296ZM 55.34 40.842L 55.34 40.314L 53.14 40.314C 51.8346 40.314 51.182 40.798 51.182 41.766C 51.182 42.7193 51.8053 43.196 53.052 43.196C 53.8586 43.196 54.438 43.0273 54.79 42.69C 55.1566 42.338 55.34 41.722 55.34 40.842ZM 60.1642 41.546L 60.1642 29.82L 62.5182 29.82L 62.5182 40.996C 62.5182 41.6853 62.6355 42.184 62.8702 42.492C 63.1048 42.7853 63.5448 42.932 64.1902 42.932L 64.1902 45C 62.7382 45 61.7042 44.7433 61.0882 44.23C 60.4722 43.702 60.1642 42.8073 60.1642 41.546ZM 72.9071 42.096L 74.6671 43.328C 73.9485 44.5747 72.6358 45.198 70.7291 45.198C 69.2038 45.198 68.0158 44.7507 67.1651 43.856C 66.3291 42.9613 65.9111 41.7513 65.9111 40.226L 65.9111 38.73C 65.9111 37.1167 66.2925 35.892 67.0551 35.056C 67.8178 34.22 68.9251 33.802 70.3771 33.802C 73.3398 33.802 74.8211 35.4887 74.8211 38.862L 74.8211 40.072L 68.2431 40.072L 68.2431 40.116C 68.2431 41.0693 68.4411 41.8173 68.8371 42.36C 69.2331 42.9027 69.8345 43.174 70.6411 43.174C 71.2425 43.174 71.7118 43.0933 72.0491 42.932C 72.3865 42.756 72.6725 42.4773 72.9071 42.096ZM 70.3771 35.848C 69.0865 35.848 68.3825 36.6547 68.2651 38.268L 72.4671 38.268C 72.3791 36.6547 71.6825 35.848 70.3771 35.848Z"/>
<path id="rdm33path2_fill" d="M 12.43 8.442L 12.43 10.378C 12.43 11.9913 12.1807 13.304 11.682 14.316L 13.728 16.142L 12.298 17.77L 10.362 16.054C 9.46733 16.8167 8.25733 17.198 6.732 17.198C 4.928 17.198 3.52733 16.626 2.53 15.482C 1.54733 14.338 1.056 12.6367 1.056 10.378L 1.056 8.442C 1.056 6.18333 1.54733 4.482 2.53 3.338C 3.52733 2.194 4.928 1.622 6.732 1.622C 8.536 1.622 9.93667 2.194 10.934 3.338C 11.9313 4.482 12.43 6.18333 12.43 8.442ZM 3.608 8.442L 3.608 10.378C 3.608 11.962 3.86467 13.128 4.378 13.876C 4.89133 14.6093 5.676 14.976 6.732 14.976C 7.45067 14.976 8.052 14.8 8.536 14.448L 6.6 12.71L 8.074 11.06L 9.658 12.49C 9.80467 11.962 9.878 11.258 9.878 10.378L 9.878 8.442C 9.878 6.858 9.614 5.69933 9.086 4.966C 8.57267 4.218 7.788 3.844 6.732 3.844C 5.676 3.844 4.89133 4.218 4.378 4.966C 3.86467 5.69933 3.608 6.858 3.608 8.442ZM 17.9781 14.8L 23.7421 14.8L 23.7421 17L 14.5681 17L 14.5681 15.196L 19.7821 9.08C 20.8088 7.90667 21.3221 6.84333 21.3221 5.89C 21.3221 5.24467 21.1168 4.73867 20.7061 4.372C 20.3101 3.99067 19.7968 3.8 19.1661 3.8C 18.5355 3.8 18.0221 3.99067 17.6261 4.372C 17.2448 4.73867 17.0395 5.24467 17.0101 5.89L 14.6781 5.89C 14.6781 4.62867 15.1181 3.602 15.9981 2.81C 16.8781 2.018 17.9635 1.622 19.2541 1.622C 20.5888 1.622 21.6815 2.02533 22.5321 2.832C 23.4121 3.65333 23.8521 4.68733 23.8521 5.934C 23.8521 6.858 23.5808 7.73067 23.0381 8.552C 22.8475 8.84533 22.6201 9.168 22.3561 9.52L 21.5641 10.51L 17.9781 14.8ZM 34.9723 14.8L 40.7363 14.8L 40.7363 17L 31.5623 17L 31.5623 15.196L 36.7763 9.08C 37.8029 7.90667 38.3163 6.84333 38.3163 5.89C 38.3163 5.24467 38.1109 4.73867 37.7003 4.372C 37.3043 3.99067 36.7909 3.8 36.1603 3.8C 35.5296 3.8 35.0163 3.99067 34.6203 4.372C 34.2389 4.73867 34.0336 5.24467 34.0043 5.89L 31.6723 5.89C 31.6723 4.62867 32.1123 3.602 32.9923 2.81C 33.8723 2.018 34.9576 1.622 36.2483 1.622C 37.5829 1.622 38.6756 2.02533 39.5263 2.832C 40.4063 3.65333 40.8463 4.68733 40.8463 5.934C 40.8463 6.858 40.5749 7.73067 40.0323 8.552C 39.8416 8.84533 39.6143 9.168 39.3503 9.52L 38.5583 10.51L 34.9723 14.8ZM 52.5824 6.264L 52.5824 12.556C 52.5824 14.052 52.1204 15.2033 51.1964 16.01C 50.3017 16.802 49.1724 17.198 47.8084 17.198C 46.4591 17.198 45.3224 16.802 44.3984 16.01C 43.4891 15.1887 43.0344 14.0373 43.0344 12.556L 43.0344 6.286C 43.0344 4.76067 43.4891 3.602 44.3984 2.81C 45.3077 2.018 46.4444 1.622 47.8084 1.622C 49.1724 1.622 50.3091 2.018 51.2184 2.81C 52.1277 3.58733 52.5824 4.73867 52.5824 6.264ZM 50.0304 12.402L 50.0304 6.418C 50.0304 5.61133 49.8324 4.98067 49.4364 4.526C 49.0404 4.07133 48.4977 3.844 47.8084 3.844C 47.1044 3.844 46.5544 4.07133 46.1584 4.526C 45.7624 4.98067 45.5644 5.61133 45.5644 6.418L 45.5644 12.402C 45.5644 13.2087 45.7624 13.8393 46.1584 14.294C 46.5544 14.7487 47.1044 14.976 47.8084 14.976C 48.4977 14.976 49.0404 14.7487 49.4364 14.294C 49.8324 13.8393 50.0304 13.2087 50.0304 12.402ZM 58.6425 1.82L 61.0405 1.82L 61.0405 17L 58.4885 17L 58.4885 4.57L 56.3105 6.066L 56.3105 3.492L 58.6425 1.82ZM 65.8907 12.754C 65.8907 11.9473 66.1107 11.214 66.5507 10.554C 66.9907 9.87933 67.5334 9.40267 68.1787 9.124C 67.5627 8.816 67.064 8.36133 66.6827 7.76C 66.3014 7.15867 66.1107 6.506 66.1107 5.802C 66.1107 4.55533 66.5727 3.54333 67.4967 2.766C 68.406 2.00333 69.506 1.622 70.7967 1.622C 72.102 1.622 73.202 2.00333 74.0967 2.766C 75.0207 3.54333 75.4827 4.55533 75.4827 5.802C 75.4827 6.506 75.292 7.15867 74.9107 7.76C 74.5294 8.36133 74.0307 8.816 73.4147 9.124C 74.0747 9.40267 74.6174 9.87933 75.0427 10.554C 75.4827 11.214 75.7027 11.9473 75.7027 12.754C 75.7027 14.0887 75.226 15.1667 74.2727 15.988C 73.334 16.7947 72.1754 17.198 70.7967 17.198C 69.418 17.198 68.2594 16.7947 67.3207 15.988C 66.3674 15.1667 65.8907 14.0887 65.8907 12.754ZM 68.4427 12.6C 68.4427 13.2747 68.6627 13.8467 69.1027 14.316C 69.5574 14.7707 70.122 14.998 70.7967 14.998C 71.4567 14.998 72.014 14.7633 72.4687 14.294C 72.938 13.8247 73.1727 13.26 73.1727 12.6C 73.1727 11.896 72.9234 11.324 72.4247 10.884C 71.9407 10.444 71.398 10.224 70.7967 10.224C 70.166 10.224 69.616 10.4513 69.1467 10.906C 68.6774 11.346 68.4427 11.9107 68.4427 12.6ZM 72.9527 5.978C 72.9527 5.39133 72.74 4.89267 72.3147 4.482C 71.904 4.05667 71.398 3.844 70.7967 3.844C 70.1954 3.844 69.682 4.04933 69.2567 4.46C 68.846 4.87067 68.6407 5.37667 68.6407 5.978C 68.6407 6.57933 68.846 7.09267 69.2567 7.518C 69.682 7.94333 70.1954 8.156 70.7967 8.156C 71.398 8.156 71.904 7.94333 72.3147 7.518C 72.74 7.09267 72.9527 6.57933 72.9527 5.978ZM 10.604 38.73L 10.604 40.226C 10.604 41.7513 10.2227 42.9613 9.46 43.856C 8.712 44.7507 7.64867 45.198 6.27 45.198C 5.05267 45.198 4.16533 44.8973 3.608 44.296L 3.608 49.18L 1.254 49.18L 1.254 34L 3.608 34L 3.608 34.88C 4.19467 34.1613 5.08933 33.802 6.292 33.802C 7.62667 33.802 8.67533 34.242 9.438 35.122C 10.2153 35.9873 10.604 37.19 10.604 38.73ZM 5.94 43.174C 6.71733 43.174 7.29667 42.9027 7.678 42.36C 8.074 41.8173 8.272 41.0693 8.272 40.116L 8.272 38.84C 8.272 36.8453 7.49467 35.848 5.94 35.848C 4.4 35.848 3.62267 36.8013 3.608 38.708L 3.608 40.116C 3.608 42.1547 4.38533 43.174 5.94 43.174ZM 20.4942 35.43L 18.6242 36.75C 18.2282 36.178 17.7002 35.892 17.0402 35.892C 16.4242 35.892 15.9329 36.112 15.5662 36.552C 15.1995 36.9773 15.0162 37.5787 15.0162 38.356L 15.0162 45L 12.6622 45L 12.6622 34L 14.9722 34L 14.9722 34.99C 15.4709 34.198 16.2922 33.802 17.4362 33.802C 18.7855 33.802 19.8049 34.3447 20.4942 35.43ZM 24.2193 45L 21.8652 45L 21.8652 34L 24.2193 34L 24.2193 45ZM 24.3293 32.218L 21.7553 32.218L 21.7553 29.82L 24.3293 29.82L 24.3293 32.218ZM 31.3467 41.854L 34.1847 34L 36.8027 34L 32.5127 45L 30.2687 45L 25.8907 34L 28.4867 34L 31.3467 41.854ZM 38.5837 44.296C 37.8944 43.6947 37.5497 42.8513 37.5497 41.766C 37.5497 40.6807 37.9017 39.8667 38.6057 39.324C 39.3244 38.7813 40.3364 38.51 41.6417 38.51L 44.0177 38.51L 44.0177 37.586C 44.0177 36.8967 43.8637 36.4347 43.5557 36.2C 43.2477 35.9507 42.6757 35.826 41.8397 35.826C 41.1944 35.826 40.7104 35.892 40.3877 36.024C 40.065 36.156 39.779 36.42 39.5297 36.816L 37.8357 35.628C 38.2317 34.9827 38.7524 34.5207 39.3977 34.242C 40.043 33.9487 40.9084 33.802 41.9937 33.802C 43.5044 33.802 44.6044 34.0953 45.2937 34.682C 45.983 35.254 46.3277 36.2293 46.3277 37.608L 46.3277 45L 44.0177 45L 44.0177 43.988C 43.7537 44.428 43.4237 44.7433 43.0277 44.934C 42.6464 45.11 42.1257 45.198 41.4657 45.198C 40.2337 45.198 39.273 44.8973 38.5837 44.296ZM 44.0177 40.842L 44.0177 40.314L 41.8177 40.314C 40.5124 40.314 39.8597 40.798 39.8597 41.766C 39.8597 42.7193 40.483 43.196 41.7297 43.196C 42.5364 43.196 43.1157 43.0273 43.4677 42.69C 43.8344 42.338 44.0177 41.722 44.0177 40.842ZM 49.3699 36.024L 47.9619 36.024L 47.9619 34L 49.3699 34L 49.3699 31.58L 51.7019 31.58L 51.7019 34L 54.0339 34L 54.0339 36.024L 51.7019 36.024L 51.7019 41.062C 51.7019 41.7513 51.7972 42.228 51.9879 42.492C 52.1786 42.756 52.5599 42.888 53.1319 42.888L 54.0339 42.888L 54.0339 45L 52.9559 45C 51.6359 45 50.7046 44.7433 50.1619 44.23C 49.6339 43.702 49.3699 42.7927 49.3699 41.502L 49.3699 36.024ZM 62.5087 42.096L 64.2687 43.328C 63.55 44.5747 62.2374 45.198 60.3307 45.198C 58.8054 45.198 57.6174 44.7507 56.7667 43.856C 55.9307 42.9613 55.5127 41.7513 55.5127 40.226L 55.5127 38.73C 55.5127 37.1167 55.894 35.892 56.6567 35.056C 57.4194 34.22 58.5267 33.802 59.9787 33.802C 62.9414 33.802 64.4227 35.4887 64.4227 38.862L 64.4227 40.072L 57.8447 40.072L 57.8447 40.116C 57.8447 41.0693 58.0427 41.8173 58.4387 42.36C 58.8347 42.9027 59.436 43.174 60.2427 43.174C 60.844 43.174 61.3134 43.0933 61.6507 42.932C 61.988 42.756 62.274 42.4773 62.5087 42.096ZM 59.9787 35.848C 58.688 35.848 57.984 36.6547 57.8667 38.268L 62.0687 38.268C 61.9807 36.6547 61.284 35.848 59.9787 35.848ZM 80.0274 35.628L 78.2894 36.882C 78.0107 36.5153 77.6954 36.2587 77.3434 36.112C 76.9914 35.9653 76.5074 35.892 75.8914 35.892C 74.7474 35.892 74.1754 36.266 74.1754 37.014C 74.1754 37.4247 74.3367 37.7327 74.6594 37.938C 74.9967 38.1433 75.5321 38.29 76.2654 38.378C 77.6147 38.5247 78.6194 38.8767 79.2794 39.434C 79.9541 39.9767 80.2914 40.7833 80.2914 41.854C 80.2914 42.91 79.9247 43.7313 79.1914 44.318C 78.4727 44.9047 77.4314 45.198 76.0674 45.198C 74.0287 45.198 72.5547 44.5893 71.6454 43.372L 73.4274 42.096C 73.9407 42.7853 74.8134 43.13 76.0454 43.13C 76.6467 43.13 77.1161 43.0273 77.4534 42.822C 77.7907 42.602 77.9594 42.3013 77.9594 41.92C 77.9594 41.4947 77.7981 41.1867 77.4754 40.996C 77.1674 40.8053 76.5661 40.6513 75.6714 40.534C 73.1047 40.2113 71.8214 39.06 71.8214 37.08C 71.8214 36.068 72.1807 35.2687 72.8994 34.682C 73.6181 34.0953 74.6301 33.802 75.9354 33.802C 77.8861 33.802 79.2501 34.4107 80.0274 35.628ZM 82.906 44.296C 82.2166 43.6947 81.872 42.8513 81.872 41.766C 81.872 40.6807 82.224 39.8667 82.928 39.324C 83.6466 38.7813 84.6586 38.51 85.964 38.51L 88.34 38.51L 88.34 37.586C 88.34 36.8967 88.186 36.4347 87.878 36.2C 87.57 35.9507 86.998 35.826 86.162 35.826C 85.5166 35.826 85.0326 35.892 84.71 36.024C 84.3873 36.156 84.1013 36.42 83.852 36.816L 82.158 35.628C 82.554 34.9827 83.0746 34.5207 83.72 34.242C 84.3653 33.9487 85.2306 33.802 86.316 33.802C 87.8266 33.802 88.9266 34.0953 89.616 34.682C 90.3053 35.254 90.65 36.2293 90.65 37.608L 90.65 45L 88.34 45L 88.34 43.988C 88.076 44.428 87.746 44.7433 87.35 44.934C 86.9686 45.11 86.448 45.198 85.788 45.198C 84.556 45.198 83.5953 44.8973 82.906 44.296ZM 88.34 40.842L 88.34 40.314L 86.14 40.314C 84.8346 40.314 84.182 40.798 84.182 41.766C 84.182 42.7193 84.8053 43.196 86.052 43.196C 86.8586 43.196 87.438 43.0273 87.79 42.69C 88.1566 42.338 88.34 41.722 88.34 40.842ZM 93.1642 41.546L 93.1642 29.82L 95.5182 29.82L 95.5182 40.996C 95.5182 41.6853 95.6355 42.184 95.8702 42.492C 96.1048 42.7853 96.5448 42.932 97.1902 42.932L 97.1902 45C 95.7382 45 94.7042 44.7433 94.0882 44.23C 93.4722 43.702 93.1642 42.8073 93.1642 41.546ZM 105.907 42.096L 107.667 43.328C 106.948 44.5747 105.636 45.198 103.729 45.198C 102.204 45.198 101.016 44.7507 100.165 43.856C 99.3291 42.9613 98.9111 41.7513 98.9111 40.226L 98.9111 38.73C 98.9111 37.1167 99.2925 35.892 100.055 35.056C 100.818 34.22 101.925 33.802 103.377 33.802C 106.34 33.802 107.821 35.4887 107.821 38.862L 107.821 40.072L 101.243 40.072L 101.243 40.116C 101.243 41.0693 101.441 41.8173 101.837 42.36C 102.233 42.9027 102.834 43.174 103.641 43.174C 104.242 43.174 104.712 43.0933 105.049 42.932C 105.386 42.756 105.672 42.4773 105.907 42.096ZM 103.377 35.848C 102.086 35.848 101.382 36.6547 101.265 38.268L 105.467 38.268C 105.379 36.6547 104.682 35.848 103.377 35.848Z"/>
<path id="rdm33path3_fill" d="M 12.43 8.442L 12.43 10.378C 12.43 11.9913 12.1807 13.304 11.682 14.316L 13.728 16.142L 12.298 17.77L 10.362 16.054C 9.46733 16.8167 8.25733 17.198 6.732 17.198C 4.928 17.198 3.52733 16.626 2.53 15.482C 1.54733 14.338 1.056 12.6367 1.056 10.378L 1.056 8.442C 1.056 6.18333 1.54733 4.482 2.53 3.338C 3.52733 2.194 4.928 1.622 6.732 1.622C 8.536 1.622 9.93667 2.194 10.934 3.338C 11.9313 4.482 12.43 6.18333 12.43 8.442ZM 3.608 8.442L 3.608 10.378C 3.608 11.962 3.86467 13.128 4.378 13.876C 4.89133 14.6093 5.676 14.976 6.732 14.976C 7.45067 14.976 8.052 14.8 8.536 14.448L 6.6 12.71L 8.074 11.06L 9.658 12.49C 9.80467 11.962 9.878 11.258 9.878 10.378L 9.878 8.442C 9.878 6.858 9.614 5.69933 9.086 4.966C 8.57267 4.218 7.788 3.844 6.732 3.844C 5.676 3.844 4.89133 4.218 4.378 4.966C 3.86467 5.69933 3.608 6.858 3.608 8.442ZM 18.8141 10.268L 17.7581 10.268L 17.7581 8.068L 18.8141 8.068C 19.6061 8.068 20.2075 7.87 20.6181 7.474C 21.0435 7.078 21.2561 6.52067 21.2561 5.802C 21.2561 5.23 21.0508 4.75333 20.6401 4.372C 20.2295 3.99067 19.7161 3.8 19.1001 3.8C 18.4988 3.8 18.0001 3.976 17.6041 4.328C 17.2228 4.68 17.0028 5.12733 16.9441 5.67L 14.6121 5.67C 14.6268 4.482 15.0815 3.514 15.9761 2.766C 16.8708 2.00333 17.9415 1.622 19.1881 1.622C 20.5228 1.622 21.6155 2.018 22.4661 2.81C 23.3461 3.602 23.7861 4.57733 23.7861 5.736C 23.7861 6.49867 23.5955 7.17333 23.2141 7.76C 22.8328 8.34667 22.3048 8.80133 21.6301 9.124C 23.2141 9.828 24.0061 11.0527 24.0061 12.798C 24.0061 14.0447 23.5881 15.0933 22.7521 15.944C 21.9161 16.78 20.7868 17.198 19.3641 17.198C 17.8975 17.198 16.7241 16.824 15.8441 16.076C 14.9641 15.3133 14.4875 14.3013 14.4141 13.04L 16.7461 13.04C 16.8341 13.6413 17.0908 14.118 17.5161 14.47C 17.9415 14.8073 18.5208 14.976 19.2541 14.976C 19.9141 14.976 20.4495 14.7707 20.8601 14.36C 21.2708 13.9347 21.4761 13.392 21.4761 12.732C 21.4761 11.94 21.2488 11.3313 20.7941 10.906C 20.3395 10.4807 19.6795 10.268 18.8141 10.268ZM 31.4303 11.676L 25.7323 11.676L 25.7323 9.608L 31.4303 9.608L 31.4303 11.676ZM 44.5277 8.442L 44.5277 10.378C 44.5277 11.9913 44.2783 13.304 43.7797 14.316L 45.8257 16.142L 44.3957 17.77L 42.4597 16.054C 41.565 16.8167 40.355 17.198 38.8297 17.198C 37.0257 17.198 35.625 16.626 34.6277 15.482C 33.645 14.338 33.1537 12.6367 33.1537 10.378L 33.1537 8.442C 33.1537 6.18333 33.645 4.482 34.6277 3.338C 35.625 2.194 37.0257 1.622 38.8297 1.622C 40.6337 1.622 42.0343 2.194 43.0317 3.338C 44.029 4.482 44.5277 6.18333 44.5277 8.442ZM 35.7057 8.442L 35.7057 10.378C 35.7057 11.962 35.9623 13.128 36.4757 13.876C 36.989 14.6093 37.7737 14.976 38.8297 14.976C 39.5483 14.976 40.1497 14.8 40.6337 14.448L 38.6977 12.71L 40.1717 11.06L 41.7557 12.49C 41.9023 11.962 41.9757 11.258 41.9757 10.378L 41.9757 8.442C 41.9757 6.858 41.7117 5.69933 41.1837 4.966C 40.6703 4.218 39.8857 3.844 38.8297 3.844C 37.7737 3.844 36.989 4.218 36.4757 4.966C 35.9623 5.69933 35.7057 6.858 35.7057 8.442ZM 45.9838 12.908L 51.2418 1.82L 53.9478 1.82L 49.0858 12.49L 52.6498 12.49L 52.6498 8.354L 55.2018 8.354L 55.2018 12.49L 56.5878 12.49L 56.5878 14.712L 55.2018 14.712L 55.2018 17L 52.6498 17L 52.6498 14.712L 45.9838 14.712L 45.9838 12.908ZM 67.0699 14.8L 72.8339 14.8L 72.8339 17L 63.6599 17L 63.6599 15.196L 68.8739 9.08C 69.9006 7.90667 70.4139 6.84333 70.4139 5.89C 70.4139 5.24467 70.2086 4.73867 69.7979 4.372C 69.4019 3.99067 68.8886 3.8 68.2579 3.8C 67.6273 3.8 67.1139 3.99067 66.7179 4.372C 66.3366 4.73867 66.1313 5.24467 66.1019 5.89L 63.7699 5.89C 63.7699 4.62867 64.2099 3.602 65.0899 2.81C 65.9699 2.018 67.0553 1.622 68.3459 1.622C 69.6806 1.622 70.7733 2.02533 71.6239 2.832C 72.5039 3.65333 72.9439 4.68733 72.9439 5.934C 72.9439 6.858 72.6726 7.73067 72.1299 8.552C 71.9393 8.84533 71.7119 9.168 71.4479 9.52L 70.6559 10.51L 67.0699 14.8ZM 84.6801 6.264L 84.6801 12.556C 84.6801 14.052 84.2181 15.2033 83.2941 16.01C 82.3994 16.802 81.2701 17.198 79.9061 17.198C 78.5567 17.198 77.4201 16.802 76.4961 16.01C 75.5867 15.1887 75.1321 14.0373 75.1321 12.556L 75.1321 6.286C 75.1321 4.76067 75.5867 3.602 76.4961 2.81C 77.4054 2.018 78.5421 1.622 79.9061 1.622C 81.2701 1.622 82.4067 2.018 83.3161 2.81C 84.2254 3.58733 84.6801 4.73867 84.6801 6.264ZM 82.1281 12.402L 82.1281 6.418C 82.1281 5.61133 81.9301 4.98067 81.5341 4.526C 81.1381 4.07133 80.5954 3.844 79.9061 3.844C 79.2021 3.844 78.6521 4.07133 78.2561 4.526C 77.8601 4.98067 77.6621 5.61133 77.6621 6.418L 77.6621 12.402C 77.6621 13.2087 77.8601 13.8393 78.2561 14.294C 78.6521 14.7487 79.2021 14.976 79.9061 14.976C 80.5954 14.976 81.1381 14.7487 81.5341 14.294C 81.9301 13.8393 82.1281 13.2087 82.1281 12.402ZM 90.7402 1.82L 93.1382 1.82L 93.1382 17L 90.5862 17L 90.5862 4.57L 88.4082 6.066L 88.4082 3.492L 90.7402 1.82ZM 97.9883 12.754C 97.9883 11.9473 98.2083 11.214 98.6483 10.554C 99.0883 9.87933 99.631 9.40267 100.276 9.124C 99.6603 8.816 99.1617 8.36133 98.7803 7.76C 98.399 7.15867 98.2083 6.506 98.2083 5.802C 98.2083 4.55533 98.6703 3.54333 99.5943 2.766C 100.504 2.00333 101.604 1.622 102.894 1.622C 104.2 1.622 105.3 2.00333 106.194 2.766C 107.118 3.54333 107.58 4.55533 107.58 5.802C 107.58 6.506 107.39 7.15867 107.008 7.76C 106.627 8.36133 106.128 8.816 105.512 9.124C 106.172 9.40267 106.715 9.87933 107.14 10.554C 107.58 11.214 107.8 11.9473 107.8 12.754C 107.8 14.0887 107.324 15.1667 106.37 15.988C 105.432 16.7947 104.273 17.198 102.894 17.198C 101.516 17.198 100.357 16.7947 99.4183 15.988C 98.465 15.1667 97.9883 14.0887 97.9883 12.754ZM 100.54 12.6C 100.54 13.2747 100.76 13.8467 101.2 14.316C 101.655 14.7707 102.22 14.998 102.894 14.998C 103.554 14.998 104.112 14.7633 104.566 14.294C 105.036 13.8247 105.27 13.26 105.27 12.6C 105.27 11.896 105.021 11.324 104.522 10.884C 104.038 10.444 103.496 10.224 102.894 10.224C 102.264 10.224 101.714 10.4513 101.244 10.906C 100.775 11.346 100.54 11.9107 100.54 12.6ZM 105.05 5.978C 105.05 5.39133 104.838 4.89267 104.412 4.482C 104.002 4.05667 103.496 3.844 102.894 3.844C 102.293 3.844 101.78 4.04933 101.354 4.46C 100.944 4.87067 100.738 5.37667 100.738 5.978C 100.738 6.57933 100.944 7.09267 101.354 7.518C 101.78 7.94333 102.293 8.156 102.894 8.156C 103.496 8.156 104.002 7.94333 104.412 7.518C 104.838 7.09267 105.05 6.57933 105.05 5.978ZM 10.604 38.73L 10.604 40.226C 10.604 41.7513 10.2227 42.9613 9.46 43.856C 8.712 44.7507 7.64867 45.198 6.27 45.198C 5.05267 45.198 4.16533 44.8973 3.608 44.296L 3.608 49.18L 1.254 49.18L 1.254 34L 3.608 34L 3.608 34.88C 4.19467 34.1613 5.08933 33.802 6.292 33.802C 7.62667 33.802 8.67533 34.242 9.438 35.122C 10.2153 35.9873 10.604 37.19 10.604 38.73ZM 5.94 43.174C 6.71733 43.174 7.29667 42.9027 7.678 42.36C 8.074 41.8173 8.272 41.0693 8.272 40.116L 8.272 38.84C 8.272 36.8453 7.49467 35.848 5.94 35.848C 4.4 35.848 3.62267 36.8013 3.608 38.708L 3.608 40.116C 3.608 42.1547 4.38533 43.174 5.94 43.174ZM 20.4942 35.43L 18.6242 36.75C 18.2282 36.178 17.7002 35.892 17.0402 35.892C 16.4242 35.892 15.9329 36.112 15.5662 36.552C 15.1995 36.9773 15.0162 37.5787 15.0162 38.356L 15.0162 45L 12.6622 45L 12.6622 34L 14.9722 34L 14.9722 34.99C 15.4709 34.198 16.2922 33.802 17.4362 33.802C 18.7855 33.802 19.8049 34.3447 20.4942 35.43ZM 24.2193 45L 21.8652 45L 21.8652 34L 24.2193 34L 24.2193 45ZM 24.3293 32.218L 21.7553 32.218L 21.7553 29.82L 24.3293 29.82L 24.3293 32.218ZM 31.3467 41.854L 34.1847 34L 36.8027 34L 32.5127 45L 30.2687 45L 25.8907 34L 28.4867 34L 31.3467 41.854ZM 38.5837 44.296C 37.8944 43.6947 37.5497 42.8513 37.5497 41.766C 37.5497 40.6807 37.9017 39.8667 38.6057 39.324C 39.3244 38.7813 40.3364 38.51 41.6417 38.51L 44.0177 38.51L 44.0177 37.586C 44.0177 36.8967 43.8637 36.4347 43.5557 36.2C 43.2477 35.9507 42.6757 35.826 41.8397 35.826C 41.1944 35.826 40.7104 35.892 40.3877 36.024C 40.065 36.156 39.779 36.42 39.5297 36.816L 37.8357 35.628C 38.2317 34.9827 38.7524 34.5207 39.3977 34.242C 40.043 33.9487 40.9084 33.802 41.9937 33.802C 43.5044 33.802 44.6044 34.0953 45.2937 34.682C 45.983 35.254 46.3277 36.2293 46.3277 37.608L 46.3277 45L 44.0177 45L 44.0177 43.988C 43.7537 44.428 43.4237 44.7433 43.0277 44.934C 42.6464 45.11 42.1257 45.198 41.4657 45.198C 40.2337 45.198 39.273 44.8973 38.5837 44.296ZM 44.0177 40.842L 44.0177 40.314L 41.8177 40.314C 40.5124 40.314 39.8597 40.798 39.8597 41.766C 39.8597 42.7193 40.483 43.196 41.7297 43.196C 42.5364 43.196 43.1157 43.0273 43.4677 42.69C 43.8344 42.338 44.0177 41.722 44.0177 40.842ZM 49.3699 36.024L 47.9619 36.024L 47.9619 34L 49.3699 34L 49.3699 31.58L 51.7019 31.58L 51.7019 34L 54.0339 34L 54.0339 36.024L 51.7019 36.024L 51.7019 41.062C 51.7019 41.7513 51.7972 42.228 51.9879 42.492C 52.1786 42.756 52.5599 42.888 53.1319 42.888L 54.0339 42.888L 54.0339 45L 52.9559 45C 51.6359 45 50.7046 44.7433 50.1619 44.23C 49.6339 43.702 49.3699 42.7927 49.3699 41.502L 49.3699 36.024ZM 62.5087 42.096L 64.2687 43.328C 63.55 44.5747 62.2374 45.198 60.3307 45.198C 58.8054 45.198 57.6174 44.7507 56.7667 43.856C 55.9307 42.9613 55.5127 41.7513 55.5127 40.226L 55.5127 38.73C 55.5127 37.1167 55.894 35.892 56.6567 35.056C 57.4194 34.22 58.5267 33.802 59.9787 33.802C 62.9414 33.802 64.4227 35.4887 64.4227 38.862L 64.4227 40.072L 57.8447 40.072L 57.8447 40.116C 57.8447 41.0693 58.0427 41.8173 58.4387 42.36C 58.8347 42.9027 59.436 43.174 60.2427 43.174C 60.844 43.174 61.3134 43.0933 61.6507 42.932C 61.988 42.756 62.274 42.4773 62.5087 42.096ZM 59.9787 35.848C 58.688 35.848 57.984 36.6547 57.8667 38.268L 62.0687 38.268C 61.9807 36.6547 61.284 35.848 59.9787 35.848ZM 72.1954 29.82L 74.4614 29.82L 74.4614 34.858C 75.0334 34.154 75.9134 33.802 77.1014 33.802C 78.4801 33.802 79.5507 34.242 80.3134 35.122C 81.0907 35.9873 81.4794 37.212 81.4794 38.796L 81.4794 40.182C 81.4794 41.7367 81.0981 42.9613 80.3354 43.856C 79.5727 44.7507 78.4947 45.198 77.1014 45.198C 75.8987 45.198 75.0187 44.868 74.4614 44.208L 74.4614 45L 72.1954 45L 72.1954 29.82ZM 76.7934 43.174C 77.5707 43.174 78.1501 42.9027 78.5314 42.36C 78.9274 41.8173 79.1254 41.0693 79.1254 40.116L 79.1254 38.84C 79.1254 36.8453 78.3481 35.848 76.7934 35.848C 76.0454 35.848 75.4734 36.0973 75.0774 36.596C 74.6814 37.08 74.4761 37.784 74.4614 38.708L 74.4614 40.116C 74.4614 42.1547 75.2387 43.174 76.7934 43.174ZM 90.0517 42.096L 91.8117 43.328C 91.093 44.5747 89.7803 45.198 87.8737 45.198C 86.3483 45.198 85.1603 44.7507 84.3097 43.856C 83.4737 42.9613 83.0557 41.7513 83.0557 40.226L 83.0557 38.73C 83.0557 37.1167 83.437 35.892 84.1997 35.056C 84.9623 34.22 86.0697 33.802 87.5217 33.802C 90.4843 33.802 91.9657 35.4887 91.9657 38.862L 91.9657 40.072L 85.3877 40.072L 85.3877 40.116C 85.3877 41.0693 85.5857 41.8173 85.9817 42.36C 86.3777 42.9027 86.979 43.174 87.7857 43.174C 88.387 43.174 88.8563 43.0933 89.1937 42.932C 89.531 42.756 89.817 42.4773 90.0517 42.096ZM 87.5217 35.848C 86.231 35.848 85.527 36.6547 85.4097 38.268L 89.6117 38.268C 89.5237 36.6547 88.827 35.848 87.5217 35.848ZM 94.7664 36.024L 93.3584 36.024L 93.3584 34L 94.7664 34L 94.7664 31.58L 97.0984 31.58L 97.0984 34L 99.4304 34L 99.4304 36.024L 97.0984 36.024L 97.0984 41.062C 97.0984 41.7513 97.1937 42.228 97.3844 42.492C 97.575 42.756 97.9564 42.888 98.5284 42.888L 99.4304 42.888L 99.4304 45L 98.3524 45C 97.0324 45 96.101 44.7433 95.5584 44.23C 95.0304 43.702 94.7664 42.7927 94.7664 41.502L 94.7664 36.024ZM 101.855 44.296C 101.166 43.6947 100.821 42.8513 100.821 41.766C 100.821 40.6807 101.173 39.8667 101.877 39.324C 102.596 38.7813 103.608 38.51 104.913 38.51L 107.289 38.51L 107.289 37.586C 107.289 36.8967 107.135 36.4347 106.827 36.2C 106.519 35.9507 105.947 35.826 105.111 35.826C 104.466 35.826 103.982 35.892 103.659 36.024C 103.337 36.156 103.051 36.42 102.801 36.816L 101.107 35.628C 101.503 34.9827 102.024 34.5207 102.669 34.242C 103.315 33.9487 104.18 33.802 105.265 33.802C 106.776 33.802 107.876 34.0953 108.565 34.682C 109.255 35.254 109.599 36.2293 109.599 37.608L 109.599 45L 107.289 45L 107.289 43.988C 107.025 44.428 106.695 44.7433 106.299 44.934C 105.918 45.11 105.397 45.198 104.737 45.198C 103.505 45.198 102.545 44.8973 101.855 44.296ZM 107.289 40.842L 107.289 40.314L 105.089 40.314C 103.784 40.314 103.131 40.798 103.131 41.766C 103.131 42.7193 103.755 43.196 105.001 43.196C 105.808 43.196 106.387 43.0273 106.739 42.69C 107.106 42.338 107.289 41.722 107.289 40.842Z"/>
<path id="rdm33path4_fill" d="M 2.61 8.9L 2.61 8L 1.17 8L 1.17 20.42L 2.61 20.42L 2.61 16.1C 3.096 16.766 3.87 17.144 5.058 17.144C 7.506 17.144 8.658 15.416 8.658 13.076L 8.658 11.888C 8.658 9.314 7.29 7.856 5.058 7.856C 3.87 7.856 3.096 8.234 2.61 8.9ZM 4.914 15.848C 3.258 15.848 2.61 14.624 2.61 13.076L 2.61 11.762C 2.61 10.142 3.474 9.152 4.914 9.152C 6.39 9.152 7.218 10.178 7.218 11.888L 7.218 13.076C 7.218 14.606 6.444 15.848 4.914 15.848ZM 10.8267 17L 12.2667 17L 12.2667 8L 10.8267 8L 10.8267 17ZM 10.7367 6.2L 12.3567 6.2L 12.3567 4.58L 10.7367 4.58L 10.7367 6.2ZM 14.8809 14.228C 14.8809 16.1 15.5829 17 17.8509 17L 17.8509 15.668C 16.3749 15.668 16.3209 14.84 16.3209 13.868L 16.3209 4.58L 14.8809 4.58L 14.8809 14.228ZM 26.8584 11.888C 26.8584 9.314 25.4904 7.856 23.1144 7.856C 20.7564 7.856 19.3704 9.332 19.3704 11.888L 19.3704 13.076C 19.3704 15.56 20.7204 17.144 23.1144 17.144C 25.7064 17.144 26.8584 15.416 26.8584 13.076L 26.8584 11.888ZM 23.1144 15.848C 21.4584 15.848 20.8104 14.624 20.8104 13.076L 20.8104 11.888C 20.8104 10.196 21.6384 9.152 23.1144 9.152C 24.5904 9.152 25.4184 10.178 25.4184 11.888L 25.4184 13.076C 25.4184 14.606 24.6444 15.848 23.1144 15.848ZM 27.9581 9.296L 29.1101 9.296L 29.1101 14.228C 29.1101 16.1 29.7221 17 31.8461 17L 32.6201 17L 32.6201 15.632L 31.9001 15.632C 30.6941 15.632 30.5501 15.11 30.5501 13.868L 30.5501 9.296L 32.6201 9.296L 32.6201 8L 30.5501 8L 30.5501 6.02L 29.1101 6.02L 29.1101 8L 27.9581 8L 27.9581 9.296ZM 40.3678 8.9L 40.3678 8L 38.9278 8L 38.9278 20.42L 40.3678 20.42L 40.3678 16.1C 40.8538 16.766 41.6278 17.144 42.8158 17.144C 45.2638 17.144 46.4158 15.416 46.4158 13.076L 46.4158 11.888C 46.4158 9.314 45.0478 7.856 42.8158 7.856C 41.6278 7.856 40.8538 8.234 40.3678 8.9ZM 42.6718 15.848C 41.0158 15.848 40.3678 14.624 40.3678 13.076L 40.3678 11.762C 40.3678 10.142 41.2318 9.152 42.6718 9.152C 44.1478 9.152 44.9758 10.178 44.9758 11.888L 44.9758 13.076C 44.9758 14.606 44.2018 15.848 42.6718 15.848ZM 47.8645 14.372C 47.8645 16.118 48.9985 17.144 51.0865 17.144C 52.2565 17.144 52.8685 16.946 53.3725 16.118L 53.3725 17L 54.8125 17L 54.8125 10.754C 54.8125 8.594 53.6785 7.856 51.3925 7.856C 49.6825 7.856 48.7645 8.306 48.1345 9.35L 49.2145 10.106C 49.7185 9.278 50.2945 9.188 51.3745 9.188C 52.7785 9.188 53.3725 9.476 53.3725 10.754L 53.3725 11.798L 51.2305 11.798C 49.2505 11.798 47.8645 12.428 47.8645 14.372ZM 53.3725 13.544C 53.3725 15.56 52.4185 15.812 51.0865 15.812C 50.0245 15.812 49.3045 15.416 49.3045 14.408C 49.3045 13.508 49.8085 13.022 51.2305 13.022L 53.3725 13.022L 53.3725 13.544ZM 63.2583 9.08C 62.6823 8.27 61.9083 7.856 60.6843 7.856C 59.5863 7.856 58.9743 8.252 58.5963 8.882L 58.5963 8L 57.1563 8L 57.1563 17L 58.5963 17L 58.5963 11.366C 58.5963 10.016 59.4243 9.188 60.5223 9.188C 61.1883 9.188 61.6563 9.422 62.0343 9.944L 63.2583 9.08ZM 63.4483 9.296L 64.6003 9.296L 64.6003 14.228C 64.6003 16.1 65.2123 17 67.3363 17L 68.1103 17L 68.1103 15.632L 67.3903 15.632C 66.1843 15.632 66.0403 15.11 66.0403 13.868L 66.0403 9.296L 68.1103 9.296L 68.1103 8L 66.0403 8L 66.0403 6.02L 64.6003 6.02L 64.6003 8L 63.4483 8L 63.4483 9.296ZM 69.918 17L 71.358 17L 71.358 11.384C 71.358 10.142 72.204 9.188 73.554 9.188C 74.616 9.188 75.606 9.584 75.606 11.402L 75.606 17L 77.046 17L 77.046 11.384C 77.046 8.864 75.696 7.856 73.77 7.856C 72.438 7.856 71.808 8.198 71.358 8.882L 71.358 8L 69.918 8L 69.918 17ZM 84.8287 14.84C 84.4507 15.506 83.8567 15.848 82.6867 15.848C 81.1207 15.848 80.3827 14.624 80.3827 13.076L 80.3827 12.824L 86.0707 12.824L 86.0707 11.888C 86.0707 9.314 84.8827 7.856 82.5067 7.856C 80.1487 7.856 78.9427 9.332 78.9427 11.888L 78.9427 13.076C 78.9427 15.578 80.3827 17.144 82.7947 17.144C 84.3607 17.144 85.3147 16.73 85.9447 15.632L 84.8287 14.84ZM 82.5067 9.152C 83.8747 9.152 84.5407 10.052 84.6127 11.564L 80.3827 11.564C 80.4727 10.07 81.1207 9.152 82.5067 9.152ZM 94.2837 9.08C 93.7077 8.27 92.9337 7.856 91.7097 7.856C 90.6117 7.856 89.9997 8.252 89.6217 8.882L 89.6217 8L 88.1817 8L 88.1817 17L 89.6217 17L 89.6217 11.366C 89.6217 10.016 90.4497 9.188 91.5477 9.188C 92.2137 9.188 92.6817 9.422 93.0597 9.944L 94.2837 9.08ZM 100.036 17L 101.476 17L 101.476 8L 100.036 8L 100.036 17ZM 99.9457 6.2L 101.566 6.2L 101.566 4.58L 99.9457 4.58L 99.9457 6.2ZM 104.09 17L 105.53 17L 105.53 11.384C 105.53 10.142 106.376 9.188 107.726 9.188C 108.788 9.188 109.778 9.584 109.778 11.402L 109.778 17L 111.218 17L 111.218 11.384C 111.218 8.864 109.868 7.856 107.942 7.856C 106.61 7.856 105.98 8.198 105.53 8.882L 105.53 8L 104.09 8L 104.09 17ZM 112.773 9.296L 113.925 9.296L 113.925 14.228C 113.925 16.1 114.537 17 116.661 17L 117.435 17L 117.435 15.632L 116.715 15.632C 115.509 15.632 115.365 15.11 115.365 13.868L 115.365 9.296L 117.435 9.296L 117.435 8L 115.365 8L 115.365 6.02L 113.925 6.02L 113.925 8L 112.773 8L 112.773 9.296ZM 124.678 14.84C 124.3 15.506 123.706 15.848 122.536 15.848C 120.97 15.848 120.232 14.624 120.232 13.076L 120.232 12.824L 125.92 12.824L 125.92 11.888C 125.92 9.314 124.732 7.856 122.356 7.856C 119.998 7.856 118.792 9.332 118.792 11.888L 118.792 13.076C 118.792 15.578 120.232 17.144 122.644 17.144C 124.21 17.144 125.164 16.73 125.794 15.632L 124.678 14.84ZM 122.356 9.152C 123.724 9.152 124.39 10.052 124.462 11.564L 120.232 11.564C 120.322 10.07 120.97 9.152 122.356 9.152ZM 133.629 8.9C 133.143 8.234 132.369 7.856 131.181 7.856C 128.949 7.856 127.581 9.314 127.581 11.888L 127.581 13.076C 127.581 15.416 128.733 17.144 131.181 17.144C 132.369 17.144 133.143 16.838 133.629 16.208L 133.629 16.82C 133.629 18.368 132.891 19.232 131.325 19.232C 130.155 19.232 129.561 18.89 129.183 18.224L 128.067 19.016C 128.697 20.114 129.651 20.528 131.217 20.528C 133.629 20.528 135.069 19.322 135.069 16.82L 135.069 8L 133.629 8L 133.629 8.9ZM 131.325 15.848C 129.795 15.848 129.021 14.606 129.021 13.076L 129.021 11.888C 129.021 10.178 129.849 9.152 131.325 9.152C 132.801 9.152 133.629 10.196 133.629 11.888L 133.629 13.076C 133.629 14.624 132.981 15.848 131.325 15.848ZM 143.52 9.08C 142.944 8.27 142.17 7.856 140.946 7.856C 139.848 7.856 139.236 8.252 138.858 8.882L 138.858 8L 137.418 8L 137.418 17L 138.858 17L 138.858 11.366C 138.858 10.016 139.686 9.188 140.784 9.188C 141.45 9.188 141.918 9.422 142.296 9.944L 143.52 9.08ZM 143.876 14.372C 143.876 16.118 145.01 17.144 147.098 17.144C 148.268 17.144 148.88 16.946 149.384 16.118L 149.384 17L 150.824 17L 150.824 10.754C 150.824 8.594 149.69 7.856 147.404 7.856C 145.694 7.856 144.776 8.306 144.146 9.35L 145.226 10.106C 145.73 9.278 146.306 9.188 147.386 9.188C 148.79 9.188 149.384 9.476 149.384 10.754L 149.384 11.798L 147.242 11.798C 145.262 11.798 143.876 12.428 143.876 14.372ZM 149.384 13.544C 149.384 15.56 148.43 15.812 147.098 15.812C 146.036 15.812 145.316 15.416 145.316 14.408C 145.316 13.508 145.82 13.022 147.242 13.022L 149.384 13.022L 149.384 13.544ZM 152.376 9.296L 153.528 9.296L 153.528 14.228C 153.528 16.1 154.14 17 156.264 17L 157.038 17L 157.038 15.632L 156.318 15.632C 155.112 15.632 154.968 15.11 154.968 13.868L 154.968 9.296L 157.038 9.296L 157.038 8L 154.968 8L 154.968 6.02L 153.528 6.02L 153.528 8L 152.376 8L 152.376 9.296ZM 159.116 17L 160.556 17L 160.556 8L 159.116 8L 159.116 17ZM 159.026 6.2L 160.646 6.2L 160.646 4.58L 159.026 4.58L 159.026 6.2ZM 170.208 11.888C 170.208 9.314 168.84 7.856 166.464 7.856C 164.106 7.856 162.72 9.332 162.72 11.888L 162.72 13.076C 162.72 15.56 164.07 17.144 166.464 17.144C 169.056 17.144 170.208 15.416 170.208 13.076L 170.208 11.888ZM 166.464 15.848C 164.808 15.848 164.16 14.624 164.16 13.076L 164.16 11.888C 164.16 10.196 164.988 9.152 166.464 9.152C 167.94 9.152 168.768 10.178 168.768 11.888L 168.768 13.076C 168.768 14.606 167.994 15.848 166.464 15.848ZM 172.1 17L 173.54 17L 173.54 11.384C 173.54 10.142 174.386 9.188 175.736 9.188C 176.798 9.188 177.788 9.584 177.788 11.402L 177.788 17L 179.228 17L 179.228 11.384C 179.228 8.864 177.878 7.856 175.952 7.856C 174.62 7.856 173.99 8.198 173.54 8.882L 173.54 8L 172.1 8L 172.1 17ZM 187.712 9.35C 187.01 8.234 185.894 7.856 184.436 7.856C 182.294 7.856 181.214 8.918 181.214 10.412C 181.214 12.374 182.708 12.986 184.22 13.094C 185.966 13.22 186.542 13.562 186.542 14.534C 186.542 15.344 185.822 15.812 184.616 15.812C 183.32 15.812 182.672 15.542 182.186 14.894L 181.124 15.65C 181.808 16.586 182.762 17.144 184.598 17.144C 186.92 17.144 187.982 16.064 187.982 14.498C 187.982 12.428 186.434 11.942 184.742 11.816C 183.554 11.726 182.654 11.42 182.654 10.394C 182.654 9.602 183.338 9.188 184.4 9.188C 185.642 9.188 186.146 9.476 186.632 10.106L 187.712 9.35ZM 191.597 14.912L 189.869 14.912L 189.869 19.556L 191.597 18.062L 191.597 14.912ZM 198.344 14.228C 198.344 16.1 199.046 17 201.314 17L 201.314 15.668C 199.838 15.668 199.784 14.84 199.784 13.868L 199.784 4.58L 198.344 4.58L 198.344 14.228ZM 203.553 17L 204.993 17L 204.993 8L 203.553 8L 203.553 17ZM 203.463 6.2L 205.083 6.2L 205.083 4.58L 203.463 4.58L 203.463 6.2ZM 207.607 17L 209.047 17L 209.047 11.384C 209.047 10.142 209.894 9.188 211.063 9.188C 212.126 9.188 212.936 9.764 212.936 11.402L 212.936 17L 214.376 17L 214.376 11.384C 214.376 10.106 215.239 9.188 216.391 9.188C 217.453 9.188 218.264 9.764 218.264 11.402L 218.264 17L 219.703 17L 219.703 11.384C 219.703 9.044 218.533 7.856 216.607 7.856C 215.51 7.856 214.52 8.324 213.907 9.278C 213.403 8.342 212.485 7.856 211.279 7.856C 210.127 7.856 209.443 8.27 209.047 8.882L 209.047 8L 207.607 8L 207.607 17ZM 222.309 17L 223.749 17L 223.749 8L 222.309 8L 222.309 17ZM 222.219 6.2L 223.839 6.2L 223.839 4.58L 222.219 4.58L 222.219 6.2ZM 225.571 9.296L 226.723 9.296L 226.723 14.228C 226.723 16.1 227.335 17 229.459 17L 230.233 17L 230.233 15.632L 229.513 15.632C 228.307 15.632 228.163 15.11 228.163 13.868L 228.163 9.296L 230.233 9.296L 230.233 8L 228.163 8L 228.163 6.02L 226.723 6.02L 226.723 8L 225.571 8L 225.571 9.296ZM 237.477 14.84C 237.099 15.506 236.505 15.848 235.335 15.848C 233.769 15.848 233.031 14.624 233.031 13.076L 233.031 12.824L 238.719 12.824L 238.719 11.888C 238.719 9.314 237.531 7.856 235.155 7.856C 232.797 7.856 231.591 9.332 231.591 11.888L 231.591 13.076C 231.591 15.578 233.031 17.144 235.443 17.144C 237.009 17.144 237.963 16.73 238.593 15.632L 237.477 14.84ZM 235.155 9.152C 236.523 9.152 237.189 10.052 237.261 11.564L 233.031 11.564C 233.121 10.07 233.769 9.152 235.155 9.152ZM 246.428 8.9C 245.942 8.234 245.168 7.856 243.98 7.856C 241.748 7.856 240.38 9.314 240.38 11.888L 240.38 13.076C 240.38 15.416 241.532 17.144 243.98 17.144C 245.168 17.144 245.942 16.838 246.428 16.208L 246.428 17L 247.868 17L 247.868 4.58L 246.428 4.58L 246.428 8.9ZM 244.124 15.848C 242.594 15.848 241.82 14.606 241.82 13.076L 241.82 11.888C 241.82 10.178 242.648 9.152 244.124 9.152C 245.6 9.152 246.428 10.196 246.428 11.888L 246.428 13.202C 246.428 14.696 245.726 15.848 244.124 15.848ZM 6.768 31.9C 6.282 31.234 5.508 30.856 4.32 30.856C 2.088 30.856 0.72 32.314 0.72 34.888L 0.72 36.076C 0.72 38.416 1.872 40.144 4.32 40.144C 5.508 40.144 6.282 39.838 6.768 39.208L 6.768 40L 8.208 40L 8.208 27.58L 6.768 27.58L 6.768 31.9ZM 4.464 38.848C 2.934 38.848 2.16 37.606 2.16 36.076L 2.16 34.888C 2.16 33.178 2.988 32.152 4.464 32.152C 5.94 32.152 6.768 33.196 6.768 34.888L 6.768 36.202C 6.768 37.696 6.066 38.848 4.464 38.848ZM 15.9927 37.84C 15.6147 38.506 15.0207 38.848 13.8507 38.848C 12.2847 38.848 11.5467 37.624 11.5467 36.076L 11.5467 35.824L 17.2347 35.824L 17.2347 34.888C 17.2347 32.314 16.0467 30.856 13.6707 30.856C 11.3127 30.856 10.1067 32.332 10.1067 34.888L 10.1067 36.076C 10.1067 38.578 11.5467 40.144 13.9587 40.144C 15.5247 40.144 16.4787 39.73 17.1087 38.632L 15.9927 37.84ZM 13.6707 32.152C 15.0387 32.152 15.7047 33.052 15.7767 34.564L 11.5467 34.564C 11.6367 33.07 12.2847 32.152 13.6707 32.152ZM 20.7858 31.9L 20.7858 31L 19.3458 31L 19.3458 43.42L 20.7858 43.42L 20.7858 39.1C 21.2718 39.766 22.0458 40.144 23.2338 40.144C 25.6818 40.144 26.8338 38.416 26.8338 36.076L 26.8338 34.888C 26.8338 32.314 25.4658 30.856 23.2338 30.856C 22.0458 30.856 21.2718 31.234 20.7858 31.9ZM 23.0898 38.848C 21.4338 38.848 20.7858 37.624 20.7858 36.076L 20.7858 34.762C 20.7858 33.142 21.6498 32.152 23.0898 32.152C 24.5658 32.152 25.3938 33.178 25.3938 34.888L 25.3938 36.076C 25.3938 37.606 24.6198 38.848 23.0898 38.848ZM 28.7325 37.228C 28.7325 39.1 29.4345 40 31.7025 40L 31.7025 38.668C 30.2265 38.668 30.1725 37.84 30.1725 36.868L 30.1725 27.58L 28.7325 27.58L 28.7325 37.228ZM 40.71 34.888C 40.71 32.314 39.342 30.856 36.966 30.856C 34.608 30.856 33.222 32.332 33.222 34.888L 33.222 36.076C 33.222 38.56 34.572 40.144 36.966 40.144C 39.558 40.144 40.71 38.416 40.71 36.076L 40.71 34.888ZM 36.966 38.848C 35.31 38.848 34.662 37.624 34.662 36.076L 34.662 34.888C 34.662 33.196 35.49 32.152 36.966 32.152C 38.442 32.152 39.27 33.178 39.27 34.888L 39.27 36.076C 39.27 37.606 38.496 38.848 36.966 38.848ZM 45.0136 40.216C 44.4736 41.818 43.9156 42.016 42.7276 42.016L 42.7276 43.42C 45.2476 43.42 45.7336 42.448 46.4716 40.288L 49.6396 31L 48.1096 31L 45.7516 37.984L 43.0696 31L 41.5216 31L 45.0496 40.09L 45.0136 40.216ZM 50.9864 40L 52.4264 40L 52.4264 34.384C 52.4264 33.142 53.2724 32.188 54.4424 32.188C 55.5044 32.188 56.3144 32.764 56.3144 34.402L 56.3144 40L 57.7544 40L 57.7544 34.384C 57.7544 33.106 58.6184 32.188 59.7704 32.188C 60.8324 32.188 61.6424 32.764 61.6424 34.402L 61.6424 40L 63.0824 40L 63.0824 34.384C 63.0824 32.044 61.9124 30.856 59.9864 30.856C 58.8884 30.856 57.8984 31.324 57.2864 32.278C 56.7824 31.342 55.8644 30.856 54.6584 30.856C 53.5064 30.856 52.8224 31.27 52.4264 31.882L 52.4264 31L 50.9864 31L 50.9864 40ZM 70.854 37.84C 70.476 38.506 69.882 38.848 68.712 38.848C 67.146 38.848 66.408 37.624 66.408 36.076L 66.408 35.824L 72.096 35.824L 72.096 34.888C 72.096 32.314 70.908 30.856 68.532 30.856C 66.174 30.856 64.968 32.332 64.968 34.888L 64.968 36.076C 64.968 38.578 66.408 40.144 68.82 40.144C 70.386 40.144 71.34 39.73 71.97 38.632L 70.854 37.84ZM 68.532 32.152C 69.9 32.152 70.566 33.052 70.638 34.564L 66.408 34.564C 66.498 33.07 67.146 32.152 68.532 32.152ZM 74.2071 40L 75.6471 40L 75.6471 34.384C 75.6471 33.142 76.4931 32.188 77.8431 32.188C 78.9051 32.188 79.8951 32.584 79.8951 34.402L 79.8951 40L 81.3351 40L 81.3351 34.384C 81.3351 31.864 79.9851 30.856 78.0591 30.856C 76.7271 30.856 76.0971 31.198 75.6471 31.882L 75.6471 31L 74.2071 31L 74.2071 40ZM 82.8897 32.296L 84.0417 32.296L 84.0417 37.228C 84.0417 39.1 84.6537 40 86.7777 40L 87.5517 40L 87.5517 38.632L 86.8317 38.632C 85.6257 38.632 85.4817 38.11 85.4817 36.868L 85.4817 32.296L 87.5517 32.296L 87.5517 31L 85.4817 31L 85.4817 29.02L 84.0417 29.02L 84.0417 31L 82.8897 31L 82.8897 32.296ZM 95.4975 32.35C 94.7955 31.234 93.6795 30.856 92.2215 30.856C 90.0795 30.856 88.9995 31.918 88.9995 33.412C 88.9995 35.374 90.4935 35.986 92.0055 36.094C 93.7515 36.22 94.3275 36.562 94.3275 37.534C 94.3275 38.344 93.6075 38.812 92.4015 38.812C 91.1055 38.812 90.4575 38.542 89.9715 37.894L 88.9095 38.65C 89.5935 39.586 90.5475 40.144 92.3835 40.144C 94.7055 40.144 95.7675 39.064 95.7675 37.498C 95.7675 35.428 94.2195 34.942 92.5275 34.816C 91.3395 34.726 90.4395 34.42 90.4395 33.394C 90.4395 32.602 91.1235 32.188 92.1855 32.188C 93.4275 32.188 93.9315 32.476 94.4175 33.106L 95.4975 32.35ZM 99.3822 37.912L 97.6542 37.912L 97.6542 42.556L 99.3822 41.062L 99.3822 37.912ZM 106.489 27.58L 106.489 40L 110.683 40C 113.869 40 114.967 38.236 114.967 36.436C 114.967 34.852 114.085 33.808 112.519 33.52C 113.725 33.232 114.571 32.044 114.571 30.748C 114.571 28.678 113.185 27.58 110.287 27.58L 106.489 27.58ZM 108.037 34.258L 110.395 34.258C 112.447 34.258 113.419 34.942 113.419 36.436C 113.419 37.786 112.555 38.596 110.683 38.596L 108.037 38.596L 108.037 34.258ZM 108.037 28.966L 110.287 28.966C 112.465 28.966 113.023 29.65 113.023 30.748C 113.023 31.972 112.303 32.854 110.557 32.854L 108.037 32.854L 108.037 28.966ZM 118.76 27.58L 117.212 27.58L 117.212 40L 124.7 40L 124.7 38.596L 118.76 38.596L 118.76 27.58ZM 126.229 27.58L 126.229 40L 133.717 40L 133.717 38.596L 127.777 38.596L 127.777 34.276L 133.177 34.276L 133.177 32.872L 127.777 32.872L 127.777 28.984L 133.717 28.984L 133.717 27.58L 126.229 27.58ZM 139.657 37.372C 139.657 39.118 140.792 40.144 142.879 40.144C 144.05 40.144 144.661 39.946 145.165 39.118L 145.165 40L 146.605 40L 146.605 33.754C 146.605 31.594 145.472 30.856 143.186 30.856C 141.476 30.856 140.558 31.306 139.927 32.35L 141.008 33.106C 141.512 32.278 142.087 32.188 143.167 32.188C 144.571 32.188 145.165 32.476 145.165 33.754L 145.165 34.798L 143.023 34.798C 141.043 34.798 139.657 35.428 139.657 37.372ZM 145.165 36.544C 145.165 38.56 144.212 38.812 142.879 38.812C 141.817 38.812 141.097 38.416 141.097 37.408C 141.097 36.508 141.602 36.022 143.023 36.022L 145.165 36.022L 145.165 36.544ZM 148.949 40L 150.389 40L 150.389 34.384C 150.389 33.142 151.235 32.188 152.585 32.188C 153.647 32.188 154.637 32.584 154.637 34.402L 154.637 40L 156.077 40L 156.077 34.384C 156.077 31.864 154.727 30.856 152.801 30.856C 151.469 30.856 150.839 31.198 150.389 31.882L 150.389 31L 148.949 31L 148.949 40ZM 164.022 31.9C 163.536 31.234 162.762 30.856 161.574 30.856C 159.342 30.856 157.974 32.314 157.974 34.888L 157.974 36.076C 157.974 38.416 159.126 40.144 161.574 40.144C 162.762 40.144 163.536 39.838 164.022 39.208L 164.022 40L 165.462 40L 165.462 27.58L 164.022 27.58L 164.022 31.9ZM 161.718 38.848C 160.188 38.848 159.414 37.606 159.414 36.076L 159.414 34.888C 159.414 33.178 160.242 32.152 161.718 32.152C 163.194 32.152 164.022 33.196 164.022 34.888L 164.022 36.202C 164.022 37.696 163.32 38.848 161.718 38.848ZM 174.219 27.58L 172.671 27.58L 172.671 40L 180.159 40L 180.159 38.596L 174.219 38.596L 174.219 27.58ZM 189.742 34.474L 189.742 33.106C 189.742 29.092 187.996 27.436 185.242 27.436C 182.488 27.436 180.742 29.092 180.742 33.106L 180.742 34.474C 180.742 38.488 182.488 40.144 185.242 40.144C 187.996 40.144 189.742 38.488 189.742 34.474ZM 182.29 33.106C 182.29 30.028 183.334 28.84 185.242 28.84C 187.15 28.84 188.194 30.028 188.194 33.106L 188.194 34.474C 188.194 37.552 187.15 38.74 185.242 38.74C 183.334 38.74 182.29 37.552 182.29 34.474L 182.29 33.106ZM 200.967 40L 198.195 34.492C 199.779 34.024 200.643 32.926 200.643 31.18C 200.643 28.768 198.987 27.58 196.125 27.58L 192.165 27.58L 192.165 40L 193.713 40L 193.713 34.762L 196.647 34.762L 199.239 40L 200.967 40ZM 193.713 33.358L 193.713 28.984L 196.125 28.984C 198.231 28.984 199.095 29.632 199.095 31.18C 199.095 32.71 198.231 33.358 196.125 33.358L 193.713 33.358ZM 203.316 40L 204.27 37.156L 209.166 37.156L 210.12 40L 211.758 40L 207.438 27.58L 205.998 27.58L 201.678 40L 203.316 40ZM 206.718 29.92L 208.68 35.752L 204.756 35.752L 206.718 29.92ZM 217.879 40L 219.319 40L 219.319 31L 217.879 31L 217.879 40ZM 217.789 29.2L 219.409 29.2L 219.409 27.58L 217.789 27.58L 217.789 29.2ZM 221.934 40L 223.374 40L 223.374 34.384C 223.374 33.142 224.22 32.188 225.57 32.188C 226.632 32.188 227.622 32.584 227.622 34.402L 227.622 40L 229.062 40L 229.062 34.384C 229.062 31.864 227.712 30.856 225.786 30.856C 224.454 30.856 223.824 31.198 223.374 31.882L 223.374 31L 221.934 31L 221.934 40ZM 230.616 32.296L 231.768 32.296L 231.768 37.228C 231.768 39.1 232.38 40 234.504 40L 235.278 40L 235.278 38.632L 234.558 38.632C 233.352 38.632 233.208 38.11 233.208 36.868L 233.208 32.296L 235.278 32.296L 235.278 31L 233.208 31L 233.208 29.02L 231.768 29.02L 231.768 31L 230.616 31L 230.616 32.296ZM 242.522 37.84C 242.144 38.506 241.55 38.848 240.38 38.848C 238.814 38.848 238.076 37.624 238.076 36.076L 238.076 35.824L 243.764 35.824L 243.764 34.888C 243.764 32.314 242.576 30.856 240.2 30.856C 237.842 30.856 236.636 32.332 236.636 34.888L 236.636 36.076C 236.636 38.578 238.076 40.144 240.488 40.144C 242.054 40.144 243.008 39.73 243.638 38.632L 242.522 37.84ZM 240.2 32.152C 241.568 32.152 242.234 33.052 242.306 34.564L 238.076 34.564C 238.166 33.07 238.814 32.152 240.2 32.152ZM 251.473 31.9C 250.987 31.234 250.213 30.856 249.025 30.856C 246.793 30.856 245.425 32.314 245.425 34.888L 245.425 36.076C 245.425 38.416 246.577 40.144 249.025 40.144C 250.213 40.144 250.987 39.838 251.473 39.208L 251.473 39.82C 251.473 41.368 250.735 42.232 249.169 42.232C 247.999 42.232 247.405 41.89 247.027 41.224L 245.911 42.016C 246.541 43.114 247.495 43.528 249.061 43.528C 251.473 43.528 252.913 42.322 252.913 39.82L 252.913 31L 251.473 31L 251.473 31.9ZM 249.169 38.848C 247.639 38.848 246.865 37.606 246.865 36.076L 246.865 34.888C 246.865 33.178 247.693 32.152 249.169 32.152C 250.645 32.152 251.473 33.196 251.473 34.888L 251.473 36.076C 251.473 37.624 250.825 38.848 249.169 38.848ZM 261.364 32.08C 260.788 31.27 260.014 30.856 258.79 30.856C 257.692 30.856 257.08 31.252 256.702 31.882L 256.702 31L 255.262 31L 255.262 40L 256.702 40L 256.702 34.366C 256.702 33.016 257.53 32.188 258.628 32.188C 259.294 32.188 259.762 32.422 260.14 32.944L 261.364 32.08ZM 261.72 37.372C 261.72 39.118 262.854 40.144 264.942 40.144C 266.112 40.144 266.724 39.946 267.228 39.118L 267.228 40L 268.668 40L 268.668 33.754C 268.668 31.594 267.534 30.856 265.248 30.856C 263.538 30.856 262.62 31.306 261.99 32.35L 263.07 33.106C 263.574 32.278 264.15 32.188 265.23 32.188C 266.634 32.188 267.228 32.476 267.228 33.754L 267.228 34.798L 265.086 34.798C 263.106 34.798 261.72 35.428 261.72 37.372ZM 267.228 36.544C 267.228 38.56 266.274 38.812 264.942 38.812C 263.88 38.812 263.16 38.416 263.16 37.408C 263.16 36.508 263.664 36.022 265.086 36.022L 267.228 36.022L 267.228 36.544ZM 270.22 32.296L 271.372 32.296L 271.372 37.228C 271.372 39.1 271.984 40 274.108 40L 274.882 40L 274.882 38.632L 274.162 38.632C 272.956 38.632 272.812 38.11 272.812 36.868L 272.812 32.296L 274.882 32.296L 274.882 31L 272.812 31L 272.812 29.02L 271.372 29.02L 271.372 31L 270.22 31L 270.22 32.296ZM 276.96 40L 278.4 40L 278.4 31L 276.96 31L 276.96 40ZM 276.87 29.2L 278.49 29.2L 278.49 27.58L 276.87 27.58L 276.87 29.2ZM 288.052 34.888C 288.052 32.314 286.684 30.856 284.308 30.856C 281.95 30.856 280.564 32.332 280.564 34.888L 280.564 36.076C 280.564 38.56 281.914 40.144 284.308 40.144C 286.9 40.144 288.052 38.416 288.052 36.076L 288.052 34.888ZM 284.308 38.848C 282.652 38.848 282.004 37.624 282.004 36.076L 282.004 34.888C 282.004 33.196 282.832 32.152 284.308 32.152C 285.784 32.152 286.612 33.178 286.612 34.888L 286.612 36.076C 286.612 37.606 285.838 38.848 284.308 38.848ZM 289.943 40L 291.383 40L 291.383 34.384C 291.383 33.142 292.229 32.188 293.579 32.188C 294.641 32.188 295.631 32.584 295.631 34.402L 295.631 40L 297.071 40L 297.071 34.384C 297.071 31.864 295.721 30.856 293.795 30.856C 292.463 30.856 291.833 31.198 291.383 31.882L 291.383 31L 289.943 31L 289.943 40Z"/>
<path id="rdm33path5_fill" d="M 0 0L 236 0L 236 40L 0 40L 0 0Z"/>
<path id="rdm33path6_fill" fill-rule="evenodd" d="M 166 0L 0 0L 0 40L 166 40L 332 40L 332 0L 166 0Z"/>
<path id="rdm33path7_stroke" d="M 1 66L 1 0L -1 0L -1 66L 1 66Z"/>
<path id="rdm33path8_fill" d="M 9.864 8.45C 9.468 5.732 7.848 4.436 5.4 4.436C 2.646 4.436 0.9 6.092 0.9 10.106L 0.9 11.474C 0.9 15.488 2.646 17.144 5.4 17.144C 7.758 17.144 9.45 15.92 9.846 13.13L 8.352 13.13C 7.938 14.948 7.02 15.74 5.4 15.74C 3.492 15.74 2.448 14.552 2.448 11.474L 2.448 10.106C 2.448 7.028 3.492 5.84 5.4 5.84C 6.93 5.84 7.92 6.506 8.352 8.45L 9.864 8.45ZM 18.6143 11.888C 18.6143 9.314 17.2462 7.856 14.8702 7.856C 12.5122 7.856 11.1262 9.332 11.1262 11.888L 11.1262 13.076C 11.1262 15.56 12.4763 17.144 14.8702 17.144C 17.4622 17.144 18.6143 15.416 18.6143 13.076L 18.6143 11.888ZM 14.8702 15.848C 13.2143 15.848 12.5662 14.624 12.5662 13.076L 12.5662 11.888C 12.5662 10.196 13.3942 9.152 14.8702 9.152C 16.3463 9.152 17.1742 10.178 17.1742 11.888L 17.1742 13.076C 17.1742 14.606 16.4003 15.848 14.8702 15.848ZM 20.5059 17L 21.9459 17L 21.9459 11.384C 21.9459 10.142 22.7919 9.188 23.9619 9.188C 25.0239 9.188 25.8339 9.764 25.8339 11.402L 25.8339 17L 27.2739 17L 27.2739 11.384C 27.2739 10.106 28.1379 9.188 29.2899 9.188C 30.3519 9.188 31.1619 9.764 31.1619 11.402L 31.1619 17L 32.6019 17L 32.6019 11.384C 32.6019 9.044 31.4319 7.856 29.5059 7.856C 28.4079 7.856 27.4179 8.324 26.8059 9.278C 26.3019 8.342 25.3839 7.856 24.1779 7.856C 23.0259 7.856 22.3419 8.27 21.9459 8.882L 21.9459 8L 20.5059 8L 20.5059 17ZM 36.3776 8.9L 36.3776 8L 34.9376 8L 34.9376 20.42L 36.3776 20.42L 36.3776 16.1C 36.8636 16.766 37.6376 17.144 38.8256 17.144C 41.2736 17.144 42.4256 15.416 42.4256 13.076L 42.4256 11.888C 42.4256 9.314 41.0576 7.856 38.8256 7.856C 37.6376 7.856 36.8636 8.234 36.3776 8.9ZM 38.6816 15.848C 37.0256 15.848 36.3776 14.624 36.3776 13.076L 36.3776 11.762C 36.3776 10.142 37.2416 9.152 38.6816 9.152C 40.1576 9.152 40.9856 10.178 40.9856 11.888L 40.9856 13.076C 40.9856 14.606 40.2116 15.848 38.6816 15.848ZM 44.3243 14.228C 44.3243 16.1 45.0263 17 47.2943 17L 47.2943 15.668C 45.8183 15.668 45.7643 14.84 45.7643 13.868L 45.7643 4.58L 44.3243 4.58L 44.3243 14.228ZM 54.6998 14.84C 54.3217 15.506 53.7277 15.848 52.5577 15.848C 50.9917 15.848 50.2537 14.624 50.2537 13.076L 50.2537 12.824L 55.9417 12.824L 55.9417 11.888C 55.9417 9.314 54.7538 7.856 52.3778 7.856C 50.0198 7.856 48.8137 9.332 48.8137 11.888L 48.8137 13.076C 48.8137 15.578 50.2537 17.144 52.6658 17.144C 54.2317 17.144 55.1857 16.73 55.8157 15.632L 54.6998 14.84ZM 52.3778 9.152C 53.7458 9.152 54.4118 10.052 54.4837 11.564L 50.2537 11.564C 50.3438 10.07 50.9917 9.152 52.3778 9.152ZM 57.2608 9.296L 58.4128 9.296L 58.4128 14.228C 58.4128 16.1 59.0248 17 61.1488 17L 61.9228 17L 61.9228 15.632L 61.2028 15.632C 59.9968 15.632 59.8528 15.11 59.8528 13.868L 59.8528 9.296L 61.9228 9.296L 61.9228 8L 59.8528 8L 59.8528 6.02L 58.4128 6.02L 58.4128 8L 57.2608 8L 57.2608 9.296ZM 69.1665 14.84C 68.7885 15.506 68.1945 15.848 67.0245 15.848C 65.4585 15.848 64.7205 14.624 64.7205 13.076L 64.7205 12.824L 70.4085 12.824L 70.4085 11.888C 70.4085 9.314 69.2205 7.856 66.8445 7.856C 64.4865 7.856 63.2805 9.332 63.2805 11.888L 63.2805 13.076C 63.2805 15.578 64.7205 17.144 67.1325 17.144C 68.6985 17.144 69.6525 16.73 70.2825 15.632L 69.1665 14.84ZM 66.8445 9.152C 68.2125 9.152 68.8785 10.052 68.9505 11.564L 64.7205 11.564C 64.8105 10.07 65.4585 9.152 66.8445 9.152ZM 78.1176 8.9C 77.6316 8.234 76.8576 7.856 75.6696 7.856C 73.4376 7.856 72.0696 9.314 72.0696 11.888L 72.0696 13.076C 72.0696 15.416 73.2216 17.144 75.6696 17.144C 76.8576 17.144 77.6316 16.838 78.1176 16.208L 78.1176 17L 79.5576 17L 79.5576 4.58L 78.1176 4.58L 78.1176 8.9ZM 75.8136 15.848C 74.2836 15.848 73.5096 14.606 73.5096 13.076L 73.5096 11.888C 73.5096 10.178 74.3376 9.152 75.8136 9.152C 77.2896 9.152 78.1176 10.196 78.1176 11.888L 78.1176 13.202C 78.1176 14.696 77.4156 15.848 75.8136 15.848ZM 83.9043 14.912L 81.8163 14.912L 81.8163 17L 83.9043 17L 83.9043 14.912ZM 4.464 33.124C 5.94 33.124 6.552 34.186 6.552 36.13C 6.552 38.002 5.742 38.74 4.464 38.74C 3.456 38.74 2.736 38.128 2.502 37.084L 0.99 37.084C 1.116 38.794 2.538 40.144 4.464 40.144C 6.84 40.144 8.1 38.578 8.1 36.13C 8.1 33.34 7.056 31.576 4.752 31.576C 3.798 31.576 3.168 31.936 2.772 32.386L 2.772 29.128L 7.578 29.128L 7.578 27.58L 1.278 27.58L 1.278 34.042L 2.7 34.042C 3.042 33.556 3.618 33.124 4.464 33.124ZM 12.042 27.58L 10.53 27.58L 10.53 40L 12.078 40L 12.078 30.946L 15.048 37.408L 16.434 37.408L 19.458 30.892L 19.458 40L 21.006 40L 21.006 27.58L 19.476 27.58L 15.768 35.32L 12.042 27.58ZM 36.0172 27.58L 36.0172 34.96C 36.0172 37.678 34.9732 38.74 33.0652 38.74C 31.1572 38.74 30.1132 37.678 30.1132 34.96L 30.1132 27.58L 28.5652 27.58L 28.5652 34.96C 28.5652 38.614 30.3112 40.144 33.0652 40.144C 35.8192 40.144 37.5652 38.614 37.5652 34.942L 37.5652 27.58L 36.0172 27.58ZM 48.2917 29.47C 47.4098 28.102 46.1678 27.436 44.1877 27.436C 41.3438 27.436 40.1737 29.002 40.1737 30.784C 40.1737 32.944 41.6857 34.06 44.0257 34.42C 46.3658 34.78 46.9598 35.572 46.9598 36.742C 46.9598 37.804 46.3658 38.74 44.3318 38.74C 42.7118 38.74 41.9917 38.182 41.1817 37.228L 39.9038 38.11C 40.8398 39.46 42.3158 40.144 44.3318 40.144C 47.4277 40.144 48.5078 38.29 48.5078 36.67C 48.5078 34.366 47.0498 33.502 44.6557 33.088C 42.8378 32.764 41.7217 32.26 41.7217 30.784C 41.7217 29.488 42.6938 28.84 44.1338 28.84C 45.6998 28.84 46.4198 29.47 47.0858 30.334L 48.2917 29.47ZM 54.867 40C 57.621 40 59.367 38.452 59.367 34.438L 59.367 33.142C 59.367 29.128 57.621 27.58 54.867 27.58L 50.907 27.58L 50.907 40L 54.867 40ZM 54.867 38.596L 52.455 38.596L 52.455 28.984L 54.867 28.984C 56.775 28.984 57.819 30.064 57.819 33.142L 57.819 34.438C 57.819 37.516 56.775 38.596 54.867 38.596ZM 66.2154 40L 67.6554 40L 67.6554 31L 66.2154 31L 66.2154 40ZM 66.1254 29.2L 67.7454 29.2L 67.7454 27.58L 66.1254 27.58L 66.1254 29.2ZM 70.2696 40L 71.7096 40L 71.7096 34.384C 71.7096 33.142 72.5556 32.188 73.9056 32.188C 74.9676 32.188 75.9576 32.584 75.9576 34.402L 75.9576 40L 77.3976 40L 77.3976 34.384C 77.3976 31.864 76.0476 30.856 74.1216 30.856C 72.7896 30.856 72.1596 31.198 71.7096 31.882L 71.7096 31L 70.2696 31L 70.2696 40ZM 85.8462 31L 83.1102 38.164L 80.3742 31L 78.7542 31L 82.4262 40L 83.8662 40L 87.4662 31L 85.8462 31ZM 94.2505 37.84C 93.8725 38.506 93.2785 38.848 92.1085 38.848C 90.5425 38.848 89.8045 37.624 89.8045 36.076L 89.8045 35.824L 95.4925 35.824L 95.4925 34.888C 95.4925 32.314 94.3045 30.856 91.9285 30.856C 89.5705 30.856 88.3645 32.332 88.3645 34.888L 88.3645 36.076C 88.3645 38.578 89.8045 40.144 92.2165 40.144C 93.7825 40.144 94.7365 39.73 95.3665 38.632L 94.2505 37.84ZM 91.9285 32.152C 93.2965 32.152 93.9625 33.052 94.0345 34.564L 89.8045 34.564C 89.8945 33.07 90.5425 32.152 91.9285 32.152ZM 103.742 32.35C 103.04 31.234 101.924 30.856 100.466 30.856C 98.3236 30.856 97.2436 31.918 97.2436 33.412C 97.2436 35.374 98.7376 35.986 100.25 36.094C 101.996 36.22 102.572 36.562 102.572 37.534C 102.572 38.344 101.852 38.812 100.646 38.812C 99.3496 38.812 98.7016 38.542 98.2156 37.894L 97.1536 38.65C 97.8376 39.586 98.7916 40.144 100.628 40.144C 102.95 40.144 104.012 39.064 104.012 37.498C 104.012 35.428 102.464 34.942 100.772 34.816C 99.5836 34.726 98.6836 34.42 98.6836 33.394C 98.6836 32.602 99.3676 32.188 100.43 32.188C 101.672 32.188 102.176 32.476 102.662 33.106L 103.742 32.35ZM 105.196 32.296L 106.348 32.296L 106.348 37.228C 106.348 39.1 106.96 40 109.084 40L 109.858 40L 109.858 38.632L 109.138 38.632C 107.932 38.632 107.788 38.11 107.788 36.868L 107.788 32.296L 109.858 32.296L 109.858 31L 107.788 31L 107.788 29.02L 106.348 29.02L 106.348 31L 105.196 31L 105.196 32.296ZM 117.102 37.84C 116.724 38.506 116.13 38.848 114.96 38.848C 113.394 38.848 112.656 37.624 112.656 36.076L 112.656 35.824L 118.344 35.824L 118.344 34.888C 118.344 32.314 117.156 30.856 114.78 30.856C 112.422 30.856 111.216 32.332 111.216 34.888L 111.216 36.076C 111.216 38.578 112.656 40.144 115.068 40.144C 116.634 40.144 117.588 39.73 118.218 38.632L 117.102 37.84ZM 114.78 32.152C 116.148 32.152 116.814 33.052 116.886 34.564L 112.656 34.564C 112.746 33.07 113.394 32.152 114.78 32.152ZM 126.053 31.9C 125.567 31.234 124.793 30.856 123.605 30.856C 121.373 30.856 120.005 32.314 120.005 34.888L 120.005 36.076C 120.005 38.416 121.157 40.144 123.605 40.144C 124.793 40.144 125.567 39.838 126.053 39.208L 126.053 40L 127.493 40L 127.493 27.58L 126.053 27.58L 126.053 31.9ZM 123.749 38.848C 122.219 38.848 121.445 37.606 121.445 36.076L 121.445 34.888C 121.445 33.178 122.273 32.152 123.749 32.152C 125.225 32.152 126.053 33.196 126.053 34.888L 126.053 36.202C 126.053 37.696 125.351 38.848 123.749 38.848ZM 135.782 27.58L 134.342 27.58L 134.342 40L 135.782 40L 135.782 39.208C 136.268 39.838 137.024 40.144 138.23 40.144C 140.678 40.144 141.83 38.416 141.83 36.076L 141.83 34.888C 141.83 32.314 140.462 30.856 138.23 30.856C 137.042 30.856 136.268 31.234 135.782 31.9L 135.782 27.58ZM 138.086 38.848C 136.43 38.848 135.782 37.624 135.782 36.076L 135.782 34.762C 135.782 33.142 136.646 32.152 138.086 32.152C 139.562 32.152 140.39 33.178 140.39 34.888L 140.39 36.076C 140.39 37.606 139.616 38.848 138.086 38.848ZM 146.141 40.216C 145.601 41.818 145.043 42.016 143.855 42.016L 143.855 43.42C 146.375 43.42 146.861 42.448 147.599 40.288L 150.767 31L 149.237 31L 146.879 37.984L 144.197 31L 142.649 31L 146.177 40.09L 146.141 40.216ZM 1.53 50.58L 1.53 63L 5.724 63C 8.91 63 10.008 61.236 10.008 59.436C 10.008 57.852 9.126 56.808 7.56 56.52C 8.766 56.232 9.612 55.044 9.612 53.748C 9.612 51.678 8.226 50.58 5.328 50.58L 1.53 50.58ZM 3.078 57.258L 5.436 57.258C 7.488 57.258 8.46 57.942 8.46 59.436C 8.46 60.786 7.596 61.596 5.724 61.596L 3.078 61.596L 3.078 57.258ZM 3.078 51.966L 5.328 51.966C 7.506 51.966 8.064 52.65 8.064 53.748C 8.064 54.972 7.344 55.854 5.598 55.854L 3.078 55.854L 3.078 51.966ZM 12.1627 63L 13.6027 63L 13.6027 54L 12.1627 54L 12.1627 63ZM 12.0727 52.2L 13.6927 52.2L 13.6927 50.58L 12.0727 50.58L 12.0727 52.2ZM 15.4249 55.296L 16.5769 55.296L 16.5769 60.228C 16.5769 62.1 17.1889 63 19.3129 63L 20.0869 63L 20.0869 61.632L 19.3669 61.632C 18.1609 61.632 18.0169 61.11 18.0169 59.868L 18.0169 55.296L 20.0869 55.296L 20.0869 54L 18.0169 54L 18.0169 52.02L 16.5769 52.02L 16.5769 54L 15.4249 54L 15.4249 55.296ZM 22.2546 50.58L 22.2546 63L 23.8026 63L 23.8026 57.564L 29.2026 57.564L 29.2026 56.16L 23.8026 56.16L 23.8026 51.984L 29.7426 51.984L 29.7426 50.58L 22.2546 50.58ZM 38.5851 54L 37.1451 54L 37.1451 59.616C 37.1451 60.858 36.2991 61.812 34.9491 61.812C 33.8871 61.812 32.8971 61.416 32.8971 59.598L 32.8971 54L 31.4571 54L 31.4571 59.616C 31.4571 62.136 32.8071 63.144 34.7331 63.144C 36.0651 63.144 36.6951 62.802 37.1451 62.118L 37.1451 63L 38.5851 63L 38.5851 54ZM 47.0337 55.08C 46.4577 54.27 45.6837 53.856 44.4597 53.856C 43.3617 53.856 42.7497 54.252 42.3717 54.882L 42.3717 54L 40.9317 54L 40.9317 63L 42.3717 63L 42.3717 57.366C 42.3717 56.016 43.1997 55.188 44.2977 55.188C 44.9637 55.188 45.4317 55.422 45.8097 55.944L 47.0337 55.08ZM 50.4277 63.216C 49.8877 64.818 49.3297 65.016 48.1417 65.016L 48.1417 66.42C 50.6617 66.42 51.1477 65.448 51.8857 63.288L 55.0537 54L 53.5237 54L 51.1657 60.984L 48.4837 54L 46.9357 54L 50.4637 63.09L 50.4277 63.216ZM 66.4985 54.9C 66.0125 54.234 65.2385 53.856 64.0505 53.856C 61.8185 53.856 60.4505 55.314 60.4505 57.888L 60.4505 59.076C 60.4505 61.416 61.6025 63.144 64.0505 63.144C 65.2385 63.144 66.0125 62.838 66.4985 62.208L 66.4985 62.82C 66.4985 64.368 65.7605 65.232 64.1945 65.232C 63.0245 65.232 62.4305 64.89 62.0525 64.224L 60.9365 65.016C 61.5665 66.114 62.5205 66.528 64.0865 66.528C 66.4985 66.528 67.9385 65.322 67.9385 62.82L 67.9385 54L 66.4985 54L 66.4985 54.9ZM 64.1945 61.848C 62.6645 61.848 61.8905 60.606 61.8905 59.076L 61.8905 57.888C 61.8905 56.178 62.7185 55.152 64.1945 55.152C 65.6705 55.152 66.4985 56.196 66.4985 57.888L 66.4985 59.076C 66.4985 60.624 65.8505 61.848 64.1945 61.848ZM 76.3892 55.08C 75.8132 54.27 75.0392 53.856 73.8152 53.856C 72.7172 53.856 72.1052 54.252 71.7272 54.882L 71.7272 54L 70.2872 54L 70.2872 63L 71.7272 63L 71.7272 57.366C 71.7272 56.016 72.5552 55.188 73.6532 55.188C 74.3192 55.188 74.7872 55.422 75.1652 55.944L 76.3892 55.08ZM 84.4092 57.888C 84.4092 55.314 83.0412 53.856 80.6652 53.856C 78.3072 53.856 76.9212 55.332 76.9212 57.888L 76.9212 59.076C 76.9212 61.56 78.2712 63.144 80.6652 63.144C 83.2572 63.144 84.4092 61.416 84.4092 59.076L 84.4092 57.888ZM 80.6652 61.848C 79.0092 61.848 78.3612 60.624 78.3612 59.076L 78.3612 57.888C 78.3612 56.196 79.1892 55.152 80.6652 55.152C 82.1412 55.152 82.9692 56.178 82.9692 57.888L 82.9692 59.076C 82.9692 60.606 82.1952 61.848 80.6652 61.848ZM 93.4289 54L 91.9889 54L 91.9889 59.616C 91.9889 60.858 91.1429 61.812 89.7929 61.812C 88.7309 61.812 87.7409 61.416 87.7409 59.598L 87.7409 54L 86.3009 54L 86.3009 59.616C 86.3009 62.136 87.6509 63.144 89.5769 63.144C 90.9089 63.144 91.5389 62.802 91.9889 62.118L 91.9889 63L 93.4289 63L 93.4289 54ZM 97.2155 54.9L 97.2155 54L 95.7755 54L 95.7755 66.42L 97.2155 66.42L 97.2155 62.1C 97.7015 62.766 98.4755 63.144 99.6635 63.144C 102.111 63.144 103.263 61.416 103.263 59.076L 103.263 57.888C 103.263 55.314 101.895 53.856 99.6635 53.856C 98.4755 53.856 97.7015 54.234 97.2155 54.9ZM 99.5195 61.848C 97.8635 61.848 97.2155 60.624 97.2155 59.076L 97.2155 57.762C 97.2155 56.142 98.0795 55.152 99.5195 55.152C 100.995 55.152 101.823 56.178 101.823 57.888L 101.823 59.076C 101.823 60.606 101.049 61.848 99.5195 61.848Z"/>
<path id="rdm33path9_fill" d="M 12.43 8.442L 12.43 10.378C 12.43 11.9913 12.1807 13.304 11.682 14.316L 13.728 16.142L 12.298 17.77L 10.362 16.054C 9.46733 16.8167 8.25733 17.198 6.732 17.198C 4.928 17.198 3.52733 16.626 2.53 15.482C 1.54733 14.338 1.056 12.6367 1.056 10.378L 1.056 8.442C 1.056 6.18333 1.54733 4.482 2.53 3.338C 3.52733 2.194 4.928 1.622 6.732 1.622C 8.536 1.622 9.93667 2.194 10.934 3.338C 11.9313 4.482 12.43 6.18333 12.43 8.442ZM 3.608 8.442L 3.608 10.378C 3.608 11.962 3.86467 13.128 4.378 13.876C 4.89133 14.6093 5.676 14.976 6.732 14.976C 7.45067 14.976 8.052 14.8 8.536 14.448L 6.6 12.71L 8.074 11.06L 9.658 12.49C 9.80467 11.962 9.878 11.258 9.878 10.378L 9.878 8.442C 9.878 6.858 9.614 5.69933 9.086 4.966C 8.57267 4.218 7.788 3.844 6.732 3.844C 5.676 3.844 4.89133 4.218 4.378 4.966C 3.86467 5.69933 3.608 6.858 3.608 8.442ZM 13.8861 12.908L 19.1441 1.82L 21.8501 1.82L 16.9881 12.49L 20.5521 12.49L 20.5521 8.354L 23.1041 8.354L 23.1041 12.49L 24.4901 12.49L 24.4901 14.712L 23.1041 14.712L 23.1041 17L 20.5521 17L 20.5521 14.712L 13.8861 14.712L 13.8861 12.908ZM 34.9723 14.8L 40.7363 14.8L 40.7363 17L 31.5623 17L 31.5623 15.196L 36.7763 9.08C 37.8029 7.90667 38.3163 6.84333 38.3163 5.89C 38.3163 5.24467 38.1109 4.73867 37.7003 4.372C 37.3043 3.99067 36.7909 3.8 36.1603 3.8C 35.5296 3.8 35.0163 3.99067 34.6203 4.372C 34.2389 4.73867 34.0336 5.24467 34.0043 5.89L 31.6723 5.89C 31.6723 4.62867 32.1123 3.602 32.9923 2.81C 33.8723 2.018 34.9576 1.622 36.2483 1.622C 37.5829 1.622 38.6756 2.02533 39.5263 2.832C 40.4063 3.65333 40.8463 4.68733 40.8463 5.934C 40.8463 6.858 40.5749 7.73067 40.0323 8.552C 39.8416 8.84533 39.6143 9.168 39.3503 9.52L 38.5583 10.51L 34.9723 14.8ZM 52.5824 6.264L 52.5824 12.556C 52.5824 14.052 52.1204 15.2033 51.1964 16.01C 50.3017 16.802 49.1724 17.198 47.8084 17.198C 46.4591 17.198 45.3224 16.802 44.3984 16.01C 43.4891 15.1887 43.0344 14.0373 43.0344 12.556L 43.0344 6.286C 43.0344 4.76067 43.4891 3.602 44.3984 2.81C 45.3077 2.018 46.4444 1.622 47.8084 1.622C 49.1724 1.622 50.3091 2.018 51.2184 2.81C 52.1277 3.58733 52.5824 4.73867 52.5824 6.264ZM 50.0304 12.402L 50.0304 6.418C 50.0304 5.61133 49.8324 4.98067 49.4364 4.526C 49.0404 4.07133 48.4977 3.844 47.8084 3.844C 47.1044 3.844 46.5544 4.07133 46.1584 4.526C 45.7624 4.98067 45.5644 5.61133 45.5644 6.418L 45.5644 12.402C 45.5644 13.2087 45.7624 13.8393 46.1584 14.294C 46.5544 14.7487 47.1044 14.976 47.8084 14.976C 48.4977 14.976 49.0404 14.7487 49.4364 14.294C 49.8324 13.8393 50.0304 13.2087 50.0304 12.402ZM 58.6425 1.82L 61.0405 1.82L 61.0405 17L 58.4885 17L 58.4885 4.57L 56.3105 6.066L 56.3105 3.492L 58.6425 1.82ZM 68.6187 4.042L 68.6187 6.528L 66.4187 6.528L 66.4187 1.82L 75.3507 1.82L 75.3507 3.778L 70.7967 17L 68.1347 17L 72.7107 4.042L 68.6187 4.042ZM 1.738 44.296C 1.04867 43.6947 0.704 42.8513 0.704 41.766C 0.704 40.6807 1.056 39.8667 1.76 39.324C 2.47867 38.7813 3.49067 38.51 4.796 38.51L 7.172 38.51L 7.172 37.586C 7.172 36.8967 7.018 36.4347 6.71 36.2C 6.402 35.9507 5.83 35.826 4.994 35.826C 4.34867 35.826 3.86467 35.892 3.542 36.024C 3.21933 36.156 2.93333 36.42 2.684 36.816L 0.99 35.628C 1.386 34.9827 1.90667 34.5207 2.552 34.242C 3.19733 33.9487 4.06267 33.802 5.148 33.802C 6.65867 33.802 7.75867 34.0953 8.448 34.682C 9.13733 35.254 9.482 36.2293 9.482 37.608L 9.482 45L 7.172 45L 7.172 43.988C 6.908 44.428 6.578 44.7433 6.182 44.934C 5.80067 45.11 5.28 45.198 4.62 45.198C 3.388 45.198 2.42733 44.8973 1.738 44.296ZM 7.172 40.842L 7.172 40.314L 4.972 40.314C 3.66667 40.314 3.014 40.798 3.014 41.766C 3.014 42.7193 3.63733 43.196 4.884 43.196C 5.69067 43.196 6.27 43.0273 6.622 42.69C 6.98867 42.338 7.172 41.722 7.172 40.842ZM 18.5082 42.096L 20.2902 43.328C 19.5862 44.5747 18.2809 45.198 16.3742 45.198C 14.8635 45.198 13.6755 44.7507 12.8102 43.856C 11.9595 42.9613 11.5342 41.7513 11.5342 40.226L 11.5342 38.73C 11.5342 37.146 11.9595 35.9287 12.8102 35.078C 13.6755 34.2273 14.8929 33.802 16.4622 33.802C 18.2515 33.802 19.5275 34.396 20.2902 35.584L 18.4862 36.838C 18.0169 36.178 17.3275 35.848 16.4182 35.848C 14.7169 35.848 13.8662 36.8453 13.8662 38.84L 13.8662 40.116C 13.8662 42.1547 14.7169 43.174 16.4182 43.174C 17.4155 43.174 18.1122 42.8147 18.5082 42.096ZM 28.2631 34.77L 28.2631 34L 30.5951 34L 30.5951 49.18L 28.2631 49.18L 28.2631 44.252C 27.6765 44.8827 26.7965 45.198 25.6231 45.198C 24.2298 45.198 23.1518 44.7507 22.3891 43.856C 21.6265 42.9613 21.2451 41.7513 21.2451 40.226L 21.2451 38.73C 21.2451 37.1753 21.6338 35.9653 22.4111 35.1C 23.1885 34.2347 24.2591 33.802 25.6231 33.802C 26.7671 33.802 27.6471 34.1247 28.2631 34.77ZM 24.1711 42.36C 24.5671 42.9027 25.1538 43.174 25.9311 43.174C 26.7085 43.174 27.2878 42.932 27.6691 42.448C 28.0651 41.9493 28.2631 41.26 28.2631 40.38L 28.2631 38.84C 28.2631 36.8453 27.4858 35.848 25.9311 35.848C 24.3618 35.848 23.5771 36.8453 23.5771 38.84L 23.5771 40.116C 23.5771 41.0693 23.7751 41.8173 24.1711 42.36ZM 39.8253 34L 42.1573 34L 42.1573 45L 39.8473 45L 39.8473 44.01C 39.5687 44.4353 39.224 44.7433 38.8133 44.934C 38.4173 45.11 37.86 45.198 37.1413 45.198C 35.88 45.198 34.89 44.8387 34.1713 44.12C 33.4673 43.4013 33.1153 42.316 33.1153 40.864L 33.1153 34L 35.4693 34L 35.4693 40.622C 35.4693 41.5167 35.6453 42.162 35.9973 42.558C 36.3493 42.9393 36.8773 43.13 37.5813 43.13C 38.3 43.13 38.85 42.91 39.2313 42.47C 39.6273 42.03 39.8253 41.4213 39.8253 40.644L 39.8253 34ZM 47.3794 45L 45.0254 45L 45.0254 34L 47.3794 34L 47.3794 45ZM 47.4894 32.218L 44.9154 32.218L 44.9154 29.82L 47.4894 29.82L 47.4894 32.218ZM 58.0489 35.43L 56.1789 36.75C 55.7829 36.178 55.2549 35.892 54.5949 35.892C 53.9789 35.892 53.4876 36.112 53.1209 36.552C 52.7542 36.9773 52.5709 37.5787 52.5709 38.356L 52.5709 45L 50.2169 45L 50.2169 34L 52.5269 34L 52.5269 34.99C 53.0256 34.198 53.8469 33.802 54.9909 33.802C 56.3402 33.802 57.3596 34.3447 58.0489 35.43ZM 61.7739 45L 59.4199 45L 59.4199 34L 61.7739 34L 61.7739 45ZM 61.8839 32.218L 59.3099 32.218L 59.3099 29.82L 61.8839 29.82L 61.8839 32.218ZM 66.9654 45L 64.6114 45L 64.6114 34L 66.9214 34L 66.9214 34.99C 67.5081 34.198 68.4174 33.802 69.6494 33.802C 70.9108 33.802 71.8934 34.1613 72.5974 34.88C 73.3014 35.584 73.6534 36.662 73.6534 38.114L 73.6534 45L 71.3214 45L 71.3214 38.378C 71.3214 36.7207 70.6248 35.892 69.2314 35.892C 68.5274 35.892 67.9701 36.1193 67.5594 36.574C 67.1634 37.014 66.9654 37.608 66.9654 38.356L 66.9654 45ZM 82.7475 34.77L 82.7475 34L 85.0795 34L 85.0795 44.78C 85.0795 47.8013 83.4808 49.312 80.2835 49.312C 79.2568 49.312 78.4208 49.1653 77.7755 48.872C 77.1448 48.5787 76.6168 48.0873 76.1915 47.398L 77.8415 46.21C 78.3255 46.9433 79.1175 47.31 80.2175 47.31C 81.0975 47.31 81.7355 47.112 82.1315 46.716C 82.5422 46.32 82.7475 45.6747 82.7475 44.78L 82.7475 44.274C 82.1462 44.89 81.2662 45.198 80.1075 45.198C 78.7142 45.198 77.6362 44.7507 76.8735 43.856C 76.1108 42.9613 75.7295 41.7513 75.7295 40.226L 75.7295 38.73C 75.7295 37.1753 76.1182 35.9653 76.8955 35.1C 77.6728 34.2347 78.7435 33.802 80.1075 33.802C 81.2515 33.802 82.1315 34.1247 82.7475 34.77ZM 80.4155 43.174C 81.9702 43.174 82.7475 42.1547 82.7475 40.116L 82.7475 38.84C 82.7475 36.8453 81.9702 35.848 80.4155 35.848C 78.8462 35.848 78.0615 36.8453 78.0615 38.84L 78.0615 40.116C 78.0615 41.0693 78.2595 41.8173 78.6555 42.36C 79.0515 42.9027 79.6382 43.174 80.4155 43.174ZM 93.5837 44.296C 92.8944 43.6947 92.5497 42.8513 92.5497 41.766C 92.5497 40.6807 92.9017 39.8667 93.6057 39.324C 94.3244 38.7813 95.3364 38.51 96.6417 38.51L 99.0177 38.51L 99.0177 37.586C 99.0177 36.8967 98.8637 36.4347 98.5557 36.2C 98.2477 35.9507 97.6757 35.826 96.8397 35.826C 96.1944 35.826 95.7104 35.892 95.3877 36.024C 95.065 36.156 94.779 36.42 94.5297 36.816L 92.8357 35.628C 93.2317 34.9827 93.7524 34.5207 94.3977 34.242C 95.043 33.9487 95.9084 33.802 96.9937 33.802C 98.5044 33.802 99.6044 34.0953 100.294 34.682C 100.983 35.254 101.328 36.2293 101.328 37.608L 101.328 45L 99.0177 45L 99.0177 43.988C 98.7537 44.428 98.4237 44.7433 98.0277 44.934C 97.6464 45.11 97.1257 45.198 96.4657 45.198C 95.2337 45.198 94.273 44.8973 93.5837 44.296ZM 99.0177 40.842L 99.0177 40.314L 96.8177 40.314C 95.5124 40.314 94.8597 40.798 94.8597 41.766C 94.8597 42.7193 95.483 43.196 96.7297 43.196C 97.5364 43.196 98.1157 43.0273 98.4677 42.69C 98.8344 42.338 99.0177 41.722 99.0177 40.842ZM 117.174 35.628L 115.436 36.882C 115.157 36.5153 114.842 36.2587 114.49 36.112C 114.138 35.9653 113.654 35.892 113.038 35.892C 111.894 35.892 111.322 36.266 111.322 37.014C 111.322 37.4247 111.483 37.7327 111.806 37.938C 112.143 38.1433 112.679 38.29 113.412 38.378C 114.761 38.5247 115.766 38.8767 116.426 39.434C 117.101 39.9767 117.438 40.7833 117.438 41.854C 117.438 42.91 117.071 43.7313 116.338 44.318C 115.619 44.9047 114.578 45.198 113.214 45.198C 111.175 45.198 109.701 44.5893 108.792 43.372L 110.574 42.096C 111.087 42.7853 111.96 43.13 113.192 43.13C 113.793 43.13 114.263 43.0273 114.6 42.822C 114.937 42.602 115.106 42.3013 115.106 41.92C 115.106 41.4947 114.945 41.1867 114.622 40.996C 114.314 40.8053 113.713 40.6513 112.818 40.534C 110.251 40.2113 108.968 39.06 108.968 37.08C 108.968 36.068 109.327 35.2687 110.046 34.682C 110.765 34.0953 111.777 33.802 113.082 33.802C 115.033 33.802 116.397 34.4107 117.174 35.628ZM 126.102 42.096L 127.862 43.328C 127.144 44.5747 125.831 45.198 123.924 45.198C 122.399 45.198 121.211 44.7507 120.36 43.856C 119.524 42.9613 119.106 41.7513 119.106 40.226L 119.106 38.73C 119.106 37.1167 119.488 35.892 120.25 35.056C 121.013 34.22 122.12 33.802 123.572 33.802C 126.535 33.802 128.016 35.4887 128.016 38.862L 128.016 40.072L 121.438 40.072L 121.438 40.116C 121.438 41.0693 121.636 41.8173 122.032 42.36C 122.428 42.9027 123.03 43.174 123.836 43.174C 124.438 43.174 124.907 43.0933 125.244 42.932C 125.582 42.756 125.868 42.4773 126.102 42.096ZM 123.572 35.848C 122.282 35.848 121.578 36.6547 121.46 38.268L 125.662 38.268C 125.574 36.6547 124.878 35.848 123.572 35.848ZM 136.823 42.096L 138.583 43.328C 137.864 44.5747 136.552 45.198 134.645 45.198C 133.12 45.198 131.932 44.7507 131.081 43.856C 130.245 42.9613 129.827 41.7513 129.827 40.226L 129.827 38.73C 129.827 37.1167 130.208 35.892 130.971 35.056C 131.734 34.22 132.841 33.802 134.293 33.802C 137.256 33.802 138.737 35.4887 138.737 38.862L 138.737 40.072L 132.159 40.072L 132.159 40.116C 132.159 41.0693 132.357 41.8173 132.753 42.36C 133.149 42.9027 133.75 43.174 134.557 43.174C 135.158 43.174 135.628 43.0933 135.965 42.932C 136.302 42.756 136.588 42.4773 136.823 42.096ZM 134.293 35.848C 133.002 35.848 132.298 36.6547 132.181 38.268L 136.383 38.268C 136.295 36.6547 135.598 35.848 134.293 35.848ZM 147.566 34.77L 147.566 29.82L 149.898 29.82L 149.898 45L 147.566 45L 147.566 44.23C 146.95 44.8753 146.07 45.198 144.926 45.198C 143.533 45.198 142.455 44.7507 141.692 43.856C 140.929 42.9613 140.548 41.7513 140.548 40.226L 140.548 38.73C 140.548 37.1753 140.937 35.9653 141.714 35.1C 142.491 34.2347 143.562 33.802 144.926 33.802C 146.07 33.802 146.95 34.1247 147.566 34.77ZM 145.234 43.174C 146.789 43.174 147.566 42.1547 147.566 40.116L 147.566 38.708C 147.566 37.7987 147.361 37.0947 146.95 36.596C 146.554 36.0973 145.982 35.848 145.234 35.848C 143.665 35.848 142.88 36.8453 142.88 38.84L 142.88 40.116C 142.88 41.0693 143.078 41.8173 143.474 42.36C 143.87 42.9027 144.457 43.174 145.234 43.174ZM 3.938 73L 1.584 73L 1.584 62L 3.938 62L 3.938 73ZM 4.048 60.218L 1.474 60.218L 1.474 57.82L 4.048 57.82L 4.048 60.218ZM 9.12948 73L 6.77548 73L 6.77548 62L 9.08548 62L 9.08548 62.99C 9.67215 62.198 10.5815 61.802 11.8135 61.802C 13.0748 61.802 14.0575 62.1613 14.7615 62.88C 15.4655 63.584 15.8175 64.662 15.8175 66.114L 15.8175 73L 13.4855 73L 13.4855 66.378C 13.4855 64.7207 12.7888 63.892 11.3955 63.892C 10.6915 63.892 10.1342 64.1193 9.72348 64.574C 9.32748 65.014 9.12948 65.608 9.12948 66.356L 9.12948 73ZM 22.5381 69.854L 25.3761 62L 27.9941 62L 23.7041 73L 21.4601 73L 17.0821 62L 19.6781 62L 22.5381 69.854ZM 35.6962 70.096L 37.4562 71.328C 36.7375 72.5747 35.4249 73.198 33.5182 73.198C 31.9929 73.198 30.8049 72.7507 29.9542 71.856C 29.1182 70.9613 28.7002 69.7513 28.7002 68.226L 28.7002 66.73C 28.7002 65.1167 29.0815 63.892 29.8442 63.056C 30.6069 62.22 31.7142 61.802 33.1662 61.802C 36.1289 61.802 37.6102 63.4887 37.6102 66.862L 37.6102 68.072L 31.0322 68.072L 31.0322 68.116C 31.0322 69.0693 31.2302 69.8173 31.6262 70.36C 32.0222 70.9027 32.6235 71.174 33.4302 71.174C 34.0315 71.174 34.5009 71.0933 34.8382 70.932C 35.1755 70.756 35.4615 70.4773 35.6962 70.096ZM 33.1662 63.848C 31.8755 63.848 31.1715 64.6547 31.0542 66.268L 35.2562 66.268C 35.1682 64.6547 34.4715 63.848 33.1662 63.848ZM 47.7149 63.628L 45.9769 64.882C 45.6982 64.5153 45.3829 64.2587 45.0309 64.112C 44.6789 63.9653 44.1949 63.892 43.5789 63.892C 42.4349 63.892 41.8629 64.266 41.8629 65.014C 41.8629 65.4247 42.0242 65.7327 42.3469 65.938C 42.6842 66.1433 43.2196 66.29 43.9529 66.378C 45.3022 66.5247 46.3069 66.8767 46.9669 67.434C 47.6416 67.9767 47.9789 68.7833 47.9789 69.854C 47.9789 70.91 47.6122 71.7313 46.8789 72.318C 46.1602 72.9047 45.1189 73.198 43.7549 73.198C 41.7162 73.198 40.2422 72.5893 39.3329 71.372L 41.1149 70.096C 41.6282 70.7853 42.5009 71.13 43.7329 71.13C 44.3342 71.13 44.8036 71.0273 45.1409 70.822C 45.4782 70.602 45.6469 70.3013 45.6469 69.92C 45.6469 69.4947 45.4856 69.1867 45.1629 68.996C 44.8549 68.8053 44.2536 68.6513 43.3589 68.534C 40.7922 68.2113 39.5089 67.06 39.5089 65.08C 39.5089 64.068 39.8682 63.2687 40.5869 62.682C 41.3056 62.0953 42.3176 61.802 43.6229 61.802C 45.5736 61.802 46.9376 62.4107 47.7149 63.628ZM 50.6375 64.024L 49.2295 64.024L 49.2295 62L 50.6375 62L 50.6375 59.58L 52.9695 59.58L 52.9695 62L 55.3015 62L 55.3015 64.024L 52.9695 64.024L 52.9695 69.062C 52.9695 69.7513 53.0648 70.228 53.2555 70.492C 53.4461 70.756 53.8275 70.888 54.3995 70.888L 55.3015 70.888L 55.3015 73L 54.2235 73C 52.9035 73 51.9721 72.7433 51.4295 72.23C 50.9015 71.702 50.6375 70.7927 50.6375 69.502L 50.6375 64.024ZM 66.1303 66.796L 66.1303 68.182C 66.1303 69.7513 65.7343 70.9833 64.9423 71.878C 64.1503 72.758 62.9916 73.198 61.4663 73.198C 59.9703 73.198 58.8116 72.758 57.9903 71.878C 57.1836 70.9833 56.7803 69.7513 56.7803 68.182L 56.7803 66.796C 56.7803 65.1827 57.1836 63.9507 57.9903 63.1C 58.8116 62.2347 59.9703 61.802 61.4663 61.802C 62.9623 61.802 64.1136 62.2347 64.9203 63.1C 65.7269 63.9507 66.1303 65.1827 66.1303 66.796ZM 61.4663 71.174C 62.2436 71.174 62.8229 70.9027 63.2043 70.36C 63.6003 69.8173 63.7983 69.0693 63.7983 68.116L 63.7983 66.84C 63.7983 64.8453 63.0209 63.848 61.4663 63.848C 59.8969 63.848 59.1123 64.8453 59.1123 66.84L 59.1123 68.116C 59.1123 70.1547 59.8969 71.174 61.4663 71.174ZM 76.0098 63.43L 74.1398 64.75C 73.7438 64.178 73.2158 63.892 72.5558 63.892C 71.9398 63.892 71.4485 64.112 71.0818 64.552C 70.7152 64.9773 70.5318 65.5787 70.5318 66.356L 70.5318 73L 68.1778 73L 68.1778 62L 70.4878 62L 70.4878 62.99C 70.9865 62.198 71.8078 61.802 72.9518 61.802C 74.3012 61.802 75.3205 62.3447 76.0098 63.43Z"/>
</defs>
</svg>
