<svg data-mobile width="325" height="296" viewBox="0 0 325 296" version="1.1" xmlns="http://www.w3.org/2000/svg" xmlns:xlink="http://www.w3.org/1999/xlink">
<title>Page 1</title>
<desc>Created using Figma</desc>
<g id="Canvas" transform="translate(-3635 -4755)">
<g id="Completed. 5M USD invested by BitFury group">
<use xlink:href="#roadmob19path0_fill" transform="translate(3678 4847)" fill="#828282"/>
</g>
<g id="Q4 2017 acquiring a seed investor">
<use xlink:href="#roadmob19path1_fill" transform="translate(3678 4754)" fill="#828282"/>
</g>
<g id="Rectangle 7.9">
<use xlink:href="#roadmob19path2_fill" transform="translate(3635 4817)" fill="#C4C4C4"/>
</g>
<g id="Strategic investors and partners">
<use xlink:href="#roadmob19path3_fill" transform="translate(3828 4847)" fill="#3C3C3B"/>
</g>
<g id="Q1 2018 pre-sale">
<use xlink:href="#roadmob19path4_fill" transform="translate(3828 4774)" fill="#666699"/>
</g>
<g id="Union">
<use xlink:href="#roadmob19path5_fill" transform="translate(3798 4817)" fill="#D0D3E6"/>
</g>
<g id="Union">
<use xlink:href="#roadmob19path6_fill" transform="matrix(1 0 0 -1 3798 4961)" fill="#9999CC"/>
</g>
<g id="Union">
<use xlink:href="#roadmob19path7_fill" transform="matrix(-1 0 0 1 3798 4946)" fill="#666699"/>
</g>
<g id="Union">
<use xlink:href="#roadmob19path8_fill" transform="matrix(-1 0 0 -1 3960 5051)" fill="#666699"/>
</g>
<g id="Q2 2018 private sale">
<use xlink:href="#roadmob19path9_fill" transform="translate(3828 4903)" fill="#666699"/>
</g>
<g id="Q3-Q4 2018 private beta">
<use xlink:href="#roadmob19path10_fill" transform="translate(3678 4903)" fill="#666699"/>
</g>
<g id="Pilot partner integrations, limited deployments, BLE and LORA integration">
<use xlink:href="#roadmob19path11_fill" transform="translate(3678 4976)" fill="#3C3C3B"/>
</g>
</g>
<defs>
<path id="roadmob19path0_fill" d="M 6.028 4.775C 5.786 3.114 4.796 2.322 3.3 2.322C 1.617 2.322 0.55 3.334 0.55 5.787L 0.55 6.623C 0.55 9.076 1.617 10.088 3.3 10.088C 4.741 10.088 5.775 9.34 6.017 7.635L 5.104 7.635C 4.851 8.746 4.29 9.23 3.3 9.23C 2.134 9.23 1.496 8.504 1.496 6.623L 1.496 5.787C 1.496 3.906 2.134 3.18 3.3 3.18C 4.235 3.18 4.84 3.587 5.104 4.775L 6.028 4.775ZM 11.3754 6.876C 11.3754 5.303 10.5394 4.412 9.08737 4.412C 7.64637 4.412 6.79937 5.314 6.79937 6.876L 6.79937 7.602C 6.79937 9.12 7.62438 10.088 9.08737 10.088C 10.6714 10.088 11.3754 9.032 11.3754 7.602L 11.3754 6.876ZM 9.08737 9.296C 8.07538 9.296 7.67937 8.548 7.67937 7.602L 7.67937 6.876C 7.67937 5.842 8.18537 5.204 9.08737 5.204C 9.98938 5.204 10.4954 5.831 10.4954 6.876L 10.4954 7.602C 10.4954 8.537 10.0224 9.296 9.08737 9.296ZM 12.5314 10L 13.4114 10L 13.4114 6.568C 13.4114 5.809 13.9284 5.226 14.6434 5.226C 15.2924 5.226 15.7874 5.578 15.7874 6.579L 15.7874 10L 16.6674 10L 16.6674 6.568C 16.6674 5.787 17.1954 5.226 17.8994 5.226C 18.5484 5.226 19.0434 5.578 19.0434 6.579L 19.0434 10L 19.9234 10L 19.9234 6.568C 19.9234 5.138 19.2084 4.412 18.0314 4.412C 17.3604 4.412 16.7554 4.698 16.3814 5.281C 16.0734 4.709 15.5124 4.412 14.7754 4.412C 14.0714 4.412 13.6534 4.665 13.4114 5.039L 13.4114 4.5L 12.5314 4.5L 12.5314 10ZM 22.2307 5.05L 22.2307 4.5L 21.3507 4.5L 21.3507 12.09L 22.2307 12.09L 22.2307 9.45C 22.5277 9.857 23.0007 10.088 23.7267 10.088C 25.2227 10.088 25.9267 9.032 25.9267 7.602L 25.9267 6.876C 25.9267 5.303 25.0907 4.412 23.7267 4.412C 23.0007 4.412 22.5277 4.643 22.2307 5.05ZM 23.6387 9.296C 22.6267 9.296 22.2307 8.548 22.2307 7.602L 22.2307 6.799C 22.2307 5.809 22.7587 5.204 23.6387 5.204C 24.5407 5.204 25.0467 5.831 25.0467 6.876L 25.0467 7.602C 25.0467 8.537 24.5737 9.296 23.6387 9.296ZM 27.0871 8.306C 27.0871 9.45 27.5161 10 28.9021 10L 28.9021 9.186C 28.0001 9.186 27.9671 8.68 27.9671 8.086L 27.9671 2.41L 27.0871 2.41L 27.0871 8.306ZM 33.4276 8.68C 33.1966 9.087 32.8336 9.296 32.1186 9.296C 31.1616 9.296 30.7106 8.548 30.7106 7.602L 30.7106 7.448L 34.1866 7.448L 34.1866 6.876C 34.1866 5.303 33.4606 4.412 32.0086 4.412C 30.5676 4.412 29.8306 5.314 29.8306 6.876L 29.8306 7.602C 29.8306 9.131 30.7106 10.088 32.1846 10.088C 33.1416 10.088 33.7246 9.835 34.1096 9.164L 33.4276 8.68ZM 32.0086 5.204C 32.8446 5.204 33.2516 5.754 33.2956 6.678L 30.7106 6.678C 30.7656 5.765 31.1616 5.204 32.0086 5.204ZM 34.9927 5.292L 35.6967 5.292L 35.6967 8.306C 35.6967 9.45 36.0707 10 37.3687 10L 37.8417 10L 37.8417 9.164L 37.4017 9.164C 36.6647 9.164 36.5767 8.845 36.5767 8.086L 36.5767 5.292L 37.8417 5.292L 37.8417 4.5L 36.5767 4.5L 36.5767 3.29L 35.6967 3.29L 35.6967 4.5L 34.9927 4.5L 34.9927 5.292ZM 42.2684 8.68C 42.0374 9.087 41.6744 9.296 40.9594 9.296C 40.0024 9.296 39.5514 8.548 39.5514 7.602L 39.5514 7.448L 43.0274 7.448L 43.0274 6.876C 43.0274 5.303 42.3014 4.412 40.8494 4.412C 39.4084 4.412 38.6714 5.314 38.6714 6.876L 38.6714 7.602C 38.6714 9.131 39.5514 10.088 41.0254 10.088C 41.9824 10.088 42.5654 9.835 42.9504 9.164L 42.2684 8.68ZM 40.8494 5.204C 41.6854 5.204 42.0924 5.754 42.1364 6.678L 39.5514 6.678C 39.6064 5.765 40.0024 5.204 40.8494 5.204ZM 47.7385 5.05C 47.4415 4.643 46.9685 4.412 46.2425 4.412C 44.8785 4.412 44.0425 5.303 44.0425 6.876L 44.0425 7.602C 44.0425 9.032 44.7465 10.088 46.2425 10.088C 46.9685 10.088 47.4415 9.901 47.7385 9.516L 47.7385 10L 48.6185 10L 48.6185 2.41L 47.7385 2.41L 47.7385 5.05ZM 46.3305 9.296C 45.3955 9.296 44.9225 8.537 44.9225 7.602L 44.9225 6.876C 44.9225 5.831 45.4285 5.204 46.3305 5.204C 47.2325 5.204 47.7385 5.842 47.7385 6.876L 47.7385 7.679C 47.7385 8.592 47.3095 9.296 46.3305 9.296ZM 51.2749 8.724L 49.9989 8.724L 49.9989 10L 51.2749 10L 51.2749 8.724ZM 57.4165 5.798C 58.3185 5.798 58.6925 6.447 58.6925 7.635C 58.6925 8.779 58.1975 9.23 57.4165 9.23C 56.8005 9.23 56.3605 8.856 56.2175 8.218L 55.2935 8.218C 55.3705 9.263 56.2395 10.088 57.4165 10.088C 58.8685 10.088 59.6385 9.131 59.6385 7.635C 59.6385 5.93 59.0005 4.852 57.5925 4.852C 57.0095 4.852 56.6245 5.072 56.3825 5.347L 56.3825 3.356L 59.3195 3.356L 59.3195 2.41L 55.4695 2.41L 55.4695 6.359L 56.3385 6.359C 56.5475 6.062 56.8995 5.798 57.4165 5.798ZM 62.0475 2.41L 61.1235 2.41L 61.1235 10L 62.0695 10L 62.0695 4.467L 63.8845 8.416L 64.7315 8.416L 66.5795 4.434L 66.5795 10L 67.5255 10L 67.5255 2.41L 66.5905 2.41L 64.3245 7.14L 62.0475 2.41ZM 76.699 2.41L 76.699 6.92C 76.699 8.581 76.061 9.23 74.895 9.23C 73.729 9.23 73.091 8.581 73.091 6.92L 73.091 2.41L 72.145 2.41L 72.145 6.92C 72.145 9.153 73.212 10.088 74.895 10.088C 76.578 10.088 77.645 9.153 77.645 6.909L 77.645 2.41L 76.699 2.41ZM 84.2001 3.565C 83.6611 2.729 82.9021 2.322 81.6921 2.322C 79.9541 2.322 79.2391 3.279 79.2391 4.368C 79.2391 5.688 80.1631 6.37 81.5931 6.59C 83.0231 6.81 83.3861 7.294 83.3861 8.009C 83.3861 8.658 83.0231 9.23 81.7801 9.23C 80.7901 9.23 80.3501 8.889 79.8551 8.306L 79.0741 8.845C 79.6461 9.67 80.5481 10.088 81.7801 10.088C 83.6721 10.088 84.3321 8.955 84.3321 7.965C 84.3321 6.557 83.4411 6.029 81.9781 5.776C 80.8671 5.578 80.1851 5.27 80.1851 4.368C 80.1851 3.576 80.7791 3.18 81.6591 3.18C 82.6161 3.18 83.0561 3.565 83.4631 4.093L 84.2001 3.565ZM 88.2183 10C 89.9013 10 90.9683 9.054 90.9683 6.601L 90.9683 5.809C 90.9683 3.356 89.9013 2.41 88.2183 2.41L 85.7983 2.41L 85.7983 10L 88.2183 10ZM 88.2183 9.142L 86.7443 9.142L 86.7443 3.268L 88.2183 3.268C 89.3843 3.268 90.0223 3.928 90.0223 5.809L 90.0223 6.601C 90.0223 8.482 89.3843 9.142 88.2183 9.142ZM 0.88 25L 1.76 25L 1.76 19.5L 0.88 19.5L 0.88 25ZM 0.825 18.4L 1.815 18.4L 1.815 17.41L 0.825 17.41L 0.825 18.4ZM 3.35758 25L 4.23758 25L 4.23758 21.568C 4.23758 20.809 4.75458 20.226 5.57958 20.226C 6.22858 20.226 6.83358 20.468 6.83358 21.579L 6.83358 25L 7.71358 25L 7.71358 21.568C 7.71358 20.028 6.88858 19.412 5.71158 19.412C 4.89758 19.412 4.51258 19.621 4.23758 20.039L 4.23758 19.5L 3.35758 19.5L 3.35758 25ZM 12.8766 19.5L 11.2046 23.878L 9.53262 19.5L 8.54262 19.5L 10.7866 25L 11.6666 25L 13.8666 19.5L 12.8766 19.5ZM 18.0126 23.68C 17.7816 24.087 17.4186 24.296 16.7036 24.296C 15.7466 24.296 15.2956 23.548 15.2956 22.602L 15.2956 22.448L 18.7716 22.448L 18.7716 21.876C 18.7716 20.303 18.0456 19.412 16.5936 19.412C 15.1526 19.412 14.4156 20.314 14.4156 21.876L 14.4156 22.602C 14.4156 24.131 15.2956 25.088 16.7696 25.088C 17.7266 25.088 18.3096 24.835 18.6946 24.164L 18.0126 23.68ZM 16.5936 20.204C 17.4296 20.204 17.8366 20.754 17.8806 21.678L 15.2956 21.678C 15.3506 20.765 15.7466 20.204 16.5936 20.204ZM 23.8127 20.325C 23.3837 19.643 22.7017 19.412 21.8107 19.412C 20.5017 19.412 19.8417 20.061 19.8417 20.974C 19.8417 22.173 20.7547 22.547 21.6787 22.613C 22.7457 22.69 23.0977 22.899 23.0977 23.493C 23.0977 23.988 22.6577 24.274 21.9207 24.274C 21.1287 24.274 20.7327 24.109 20.4357 23.713L 19.7867 24.175C 20.2047 24.747 20.7877 25.088 21.9097 25.088C 23.3287 25.088 23.9777 24.428 23.9777 23.471C 23.9777 22.206 23.0317 21.909 21.9977 21.832C 21.2717 21.777 20.7217 21.59 20.7217 20.963C 20.7217 20.479 21.1397 20.226 21.7887 20.226C 22.5477 20.226 22.8557 20.402 23.1527 20.787L 23.8127 20.325ZM 24.7017 20.292L 25.4057 20.292L 25.4057 23.306C 25.4057 24.45 25.7797 25 27.0777 25L 27.5507 25L 27.5507 24.164L 27.1107 24.164C 26.3737 24.164 26.2857 23.845 26.2857 23.086L 26.2857 20.292L 27.5507 20.292L 27.5507 19.5L 26.2857 19.5L 26.2857 18.29L 25.4057 18.29L 25.4057 19.5L 24.7017 19.5L 24.7017 20.292ZM 31.9774 23.68C 31.7464 24.087 31.3834 24.296 30.6684 24.296C 29.7114 24.296 29.2604 23.548 29.2604 22.602L 29.2604 22.448L 32.7364 22.448L 32.7364 21.876C 32.7364 20.303 32.0104 19.412 30.5584 19.412C 29.1174 19.412 28.3804 20.314 28.3804 21.876L 28.3804 22.602C 28.3804 24.131 29.2604 25.088 30.7344 25.088C 31.6914 25.088 32.2744 24.835 32.6594 24.164L 31.9774 23.68ZM 30.5584 20.204C 31.3944 20.204 31.8014 20.754 31.8454 21.678L 29.2604 21.678C 29.3154 20.765 29.7114 20.204 30.5584 20.204ZM 37.4475 20.05C 37.1505 19.643 36.6775 19.412 35.9515 19.412C 34.5875 19.412 33.7515 20.303 33.7515 21.876L 33.7515 22.602C 33.7515 24.032 34.4555 25.088 35.9515 25.088C 36.6775 25.088 37.1505 24.901 37.4475 24.516L 37.4475 25L 38.3275 25L 38.3275 17.41L 37.4475 17.41L 37.4475 20.05ZM 36.0395 24.296C 35.1045 24.296 34.6315 23.537 34.6315 22.602L 34.6315 21.876C 34.6315 20.831 35.1375 20.204 36.0395 20.204C 36.9415 20.204 37.4475 20.842 37.4475 21.876L 37.4475 22.679C 37.4475 23.592 37.0185 24.296 36.0395 24.296ZM 43.3929 17.41L 42.5129 17.41L 42.5129 25L 43.3929 25L 43.3929 24.516C 43.6899 24.901 44.1519 25.088 44.8889 25.088C 46.3849 25.088 47.0889 24.032 47.0889 22.602L 47.0889 21.876C 47.0889 20.303 46.2529 19.412 44.8889 19.412C 44.1629 19.412 43.6899 19.643 43.3929 20.05L 43.3929 17.41ZM 44.8009 24.296C 43.7889 24.296 43.3929 23.548 43.3929 22.602L 43.3929 21.799C 43.3929 20.809 43.9209 20.204 44.8009 20.204C 45.7029 20.204 46.2089 20.831 46.2089 21.876L 46.2089 22.602C 46.2089 23.537 45.7359 24.296 44.8009 24.296ZM 49.7232 25.132C 49.3932 26.111 49.0522 26.232 48.3262 26.232L 48.3262 27.09C 49.8662 27.09 50.1632 26.496 50.6142 25.176L 52.5502 19.5L 51.6152 19.5L 50.1742 23.768L 48.5352 19.5L 47.5892 19.5L 49.7452 25.055L 49.7232 25.132ZM 56.3432 17.41L 56.3432 25L 58.9062 25C 60.8532 25 61.5242 23.922 61.5242 22.822C 61.5242 21.854 60.9852 21.216 60.0282 21.04C 60.7652 20.864 61.2822 20.138 61.2822 19.346C 61.2822 18.081 60.4352 17.41 58.6642 17.41L 56.3432 17.41ZM 57.2892 21.491L 58.7302 21.491C 59.9842 21.491 60.5782 21.909 60.5782 22.822C 60.5782 23.647 60.0502 24.142 58.9062 24.142L 57.2892 24.142L 57.2892 21.491ZM 57.2892 18.257L 58.6642 18.257C 59.9952 18.257 60.3362 18.675 60.3362 19.346C 60.3362 20.094 59.8962 20.633 58.8292 20.633L 57.2892 20.633L 57.2892 18.257ZM 62.8409 25L 63.7209 25L 63.7209 19.5L 62.8409 19.5L 62.8409 25ZM 62.7859 18.4L 63.7759 18.4L 63.7759 17.41L 62.7859 17.41L 62.7859 18.4ZM 64.8345 20.292L 65.5385 20.292L 65.5385 23.306C 65.5385 24.45 65.9125 25 67.2105 25L 67.6835 25L 67.6835 24.164L 67.2435 24.164C 66.5065 24.164 66.4185 23.845 66.4185 23.086L 66.4185 20.292L 67.6835 20.292L 67.6835 19.5L 66.4185 19.5L 66.4185 18.29L 65.5385 18.29L 65.5385 19.5L 64.8345 19.5L 64.8345 20.292ZM 69.0082 17.41L 69.0082 25L 69.9542 25L 69.9542 21.678L 73.2542 21.678L 73.2542 20.82L 69.9542 20.82L 69.9542 18.268L 73.5842 18.268L 73.5842 17.41L 69.0082 17.41ZM 78.988 19.5L 78.108 19.5L 78.108 22.932C 78.108 23.691 77.591 24.274 76.766 24.274C 76.117 24.274 75.512 24.032 75.512 22.921L 75.512 19.5L 74.632 19.5L 74.632 22.932C 74.632 24.472 75.457 25.088 76.634 25.088C 77.448 25.088 77.833 24.879 78.108 24.461L 78.108 25L 78.988 25L 78.988 19.5ZM 84.151 20.16C 83.799 19.665 83.326 19.412 82.578 19.412C 81.907 19.412 81.533 19.654 81.302 20.039L 81.302 19.5L 80.422 19.5L 80.422 25L 81.302 25L 81.302 21.557C 81.302 20.732 81.808 20.226 82.479 20.226C 82.886 20.226 83.172 20.369 83.403 20.688L 84.151 20.16ZM 86.2251 25.132C 85.8951 26.111 85.5541 26.232 84.8281 26.232L 84.8281 27.09C 86.3681 27.09 86.6651 26.496 87.1161 25.176L 89.0521 19.5L 88.1171 19.5L 86.6761 23.768L 85.0371 19.5L 84.0911 19.5L 86.2471 25.055L 86.2251 25.132ZM 96.0462 20.05C 95.7492 19.643 95.2762 19.412 94.5502 19.412C 93.1862 19.412 92.3502 20.303 92.3502 21.876L 92.3502 22.602C 92.3502 24.032 93.0542 25.088 94.5502 25.088C 95.2762 25.088 95.7492 24.901 96.0462 24.516L 96.0462 24.89C 96.0462 25.836 95.5952 26.364 94.6382 26.364C 93.9232 26.364 93.5602 26.155 93.3292 25.748L 92.6472 26.232C 93.0322 26.903 93.6152 27.156 94.5722 27.156C 96.0462 27.156 96.9262 26.419 96.9262 24.89L 96.9262 19.5L 96.0462 19.5L 96.0462 20.05ZM 94.6382 24.296C 93.7032 24.296 93.2302 23.537 93.2302 22.602L 93.2302 21.876C 93.2302 20.831 93.7362 20.204 94.6382 20.204C 95.5402 20.204 96.0462 20.842 96.0462 21.876L 96.0462 22.602C 96.0462 23.548 95.6502 24.296 94.6382 24.296ZM 102.09 20.16C 101.738 19.665 101.265 19.412 100.517 19.412C 99.8465 19.412 99.4725 19.654 99.2415 20.039L 99.2415 19.5L 98.3615 19.5L 98.3615 25L 99.2415 25L 99.2415 21.557C 99.2415 20.732 99.7475 20.226 100.418 20.226C 100.825 20.226 101.111 20.369 101.342 20.688L 102.09 20.16ZM 106.992 21.876C 106.992 20.303 106.156 19.412 104.704 19.412C 103.263 19.412 102.416 20.314 102.416 21.876L 102.416 22.602C 102.416 24.12 103.241 25.088 104.704 25.088C 106.288 25.088 106.992 24.032 106.992 22.602L 106.992 21.876ZM 104.704 24.296C 103.692 24.296 103.296 23.548 103.296 22.602L 103.296 21.876C 103.296 20.842 103.802 20.204 104.704 20.204C 105.606 20.204 106.112 20.831 106.112 21.876L 106.112 22.602C 106.112 23.537 105.639 24.296 104.704 24.296ZM 112.504 19.5L 111.624 19.5L 111.624 22.932C 111.624 23.691 111.107 24.274 110.282 24.274C 109.633 24.274 109.028 24.032 109.028 22.921L 109.028 19.5L 108.148 19.5L 108.148 22.932C 108.148 24.472 108.973 25.088 110.15 25.088C 110.964 25.088 111.349 24.879 111.624 24.461L 111.624 25L 112.504 25L 112.504 19.5ZM 114.818 20.05L 114.818 19.5L 113.938 19.5L 113.938 27.09L 114.818 27.09L 114.818 24.45C 115.115 24.857 115.588 25.088 116.314 25.088C 117.81 25.088 118.514 24.032 118.514 22.602L 118.514 21.876C 118.514 20.303 117.678 19.412 116.314 19.412C 115.588 19.412 115.115 19.643 114.818 20.05ZM 116.226 24.296C 115.214 24.296 114.818 23.548 114.818 22.602L 114.818 21.799C 114.818 20.809 115.346 20.204 116.226 20.204C 117.128 20.204 117.634 20.831 117.634 21.876L 117.634 22.602C 117.634 23.537 117.161 24.296 116.226 24.296Z"/>
<path id="roadmob19path1_fill" d="M 8.475 6.165L 8.475 7.485C 8.475 8.585 8.305 9.48 7.965 10.17L 9.36 11.415L 8.385 12.525L 7.065 11.355C 6.455 11.875 5.63 12.135 4.59 12.135C 3.36 12.135 2.405 11.745 1.725 10.965C 1.055 10.185 0.72 9.025 0.72 7.485L 0.72 6.165C 0.72 4.625 1.055 3.465 1.725 2.685C 2.405 1.905 3.36 1.515 4.59 1.515C 5.82 1.515 6.775 1.905 7.455 2.685C 8.135 3.465 8.475 4.625 8.475 6.165ZM 2.46 6.165L 2.46 7.485C 2.46 8.565 2.635 9.36 2.985 9.87C 3.335 10.37 3.87 10.62 4.59 10.62C 5.08 10.62 5.49 10.5 5.82 10.26L 4.5 9.075L 5.505 7.95L 6.585 8.925C 6.685 8.565 6.735 8.085 6.735 7.485L 6.735 6.165C 6.735 5.085 6.555 4.295 6.195 3.795C 5.845 3.285 5.31 3.03 4.59 3.03C 3.87 3.03 3.335 3.285 2.985 3.795C 2.635 4.295 2.46 5.085 2.46 6.165ZM 9.46781 9.21L 13.0528 1.65L 14.8978 1.65L 11.5828 8.925L 14.0128 8.925L 14.0128 6.105L 15.7528 6.105L 15.7528 8.925L 16.6978 8.925L 16.6978 10.44L 15.7528 10.44L 15.7528 12L 14.0128 12L 14.0128 10.44L 9.46781 10.44L 9.46781 9.21ZM 23.8447 10.5L 27.7747 10.5L 27.7747 12L 21.5197 12L 21.5197 10.77L 25.0747 6.6C 25.7747 5.8 26.1247 5.075 26.1247 4.425C 26.1247 3.985 25.9847 3.64 25.7047 3.39C 25.4347 3.13 25.0847 3 24.6547 3C 24.2247 3 23.8747 3.13 23.6047 3.39C 23.3447 3.64 23.2047 3.985 23.1847 4.425L 21.5947 4.425C 21.5947 3.565 21.8947 2.865 22.4947 2.325C 23.0947 1.785 23.8347 1.515 24.7147 1.515C 25.6247 1.515 26.3697 1.79 26.9497 2.34C 27.5497 2.9 27.8497 3.605 27.8497 4.455C 27.8497 5.085 27.6647 5.68 27.2947 6.24C 27.1647 6.44 27.0097 6.66 26.8297 6.9L 26.2897 7.575L 23.8447 10.5ZM 35.8516 4.68L 35.8516 8.97C 35.8516 9.99 35.5366 10.775 34.9066 11.325C 34.2966 11.865 33.5266 12.135 32.5966 12.135C 31.6766 12.135 30.9016 11.865 30.2716 11.325C 29.6516 10.765 29.3416 9.98 29.3416 8.97L 29.3416 4.695C 29.3416 3.655 29.6516 2.865 30.2716 2.325C 30.8916 1.785 31.6666 1.515 32.5966 1.515C 33.5266 1.515 34.3016 1.785 34.9216 2.325C 35.5416 2.855 35.8516 3.64 35.8516 4.68ZM 34.1116 8.865L 34.1116 4.785C 34.1116 4.235 33.9766 3.805 33.7066 3.495C 33.4366 3.185 33.0666 3.03 32.5966 3.03C 32.1166 3.03 31.7416 3.185 31.4716 3.495C 31.2016 3.805 31.0666 4.235 31.0666 4.785L 31.0666 8.865C 31.0666 9.415 31.2016 9.845 31.4716 10.155C 31.7416 10.465 32.1166 10.62 32.5966 10.62C 33.0666 10.62 33.4366 10.465 33.7066 10.155C 33.9766 9.845 34.1116 9.415 34.1116 8.865ZM 39.9836 1.65L 41.6186 1.65L 41.6186 12L 39.8786 12L 39.8786 3.525L 38.3936 4.545L 38.3936 2.79L 39.9836 1.65ZM 46.7855 3.165L 46.7855 4.86L 45.2855 4.86L 45.2855 1.65L 51.3755 1.65L 51.3755 2.985L 48.2705 12L 46.4555 12L 49.5755 3.165L 46.7855 3.165ZM 1.185 30.52C 0.715 30.11 0.48 29.535 0.48 28.795C 0.48 28.055 0.72 27.5 1.2 27.13C 1.69 26.76 2.38 26.575 3.27 26.575L 4.89 26.575L 4.89 25.945C 4.89 25.475 4.785 25.16 4.575 25C 4.365 24.83 3.975 24.745 3.405 24.745C 2.965 24.745 2.635 24.79 2.415 24.88C 2.195 24.97 2 25.15 1.83 25.42L 0.675 24.61C 0.945 24.17 1.3 23.855 1.74 23.665C 2.18 23.465 2.77 23.365 3.51 23.365C 4.54 23.365 5.29 23.565 5.76 23.965C 6.23 24.355 6.465 25.02 6.465 25.96L 6.465 31L 4.89 31L 4.89 30.31C 4.71 30.61 4.485 30.825 4.215 30.955C 3.955 31.075 3.6 31.135 3.15 31.135C 2.31 31.135 1.655 30.93 1.185 30.52ZM 4.89 28.165L 4.89 27.805L 3.39 27.805C 2.5 27.805 2.055 28.135 2.055 28.795C 2.055 29.445 2.48 29.77 3.33 29.77C 3.88 29.77 4.275 29.655 4.515 29.425C 4.765 29.185 4.89 28.765 4.89 28.165ZM 12.6192 29.02L 13.8342 29.86C 13.3542 30.71 12.4642 31.135 11.1642 31.135C 10.1342 31.135 9.32422 30.83 8.73422 30.22C 8.15422 29.61 7.86422 28.785 7.86422 27.745L 7.86422 26.725C 7.86422 25.645 8.15422 24.815 8.73422 24.235C 9.32422 23.655 10.1542 23.365 11.2242 23.365C 12.4442 23.365 13.3142 23.77 13.8342 24.58L 12.6042 25.435C 12.2842 24.985 11.8142 24.76 11.1942 24.76C 10.0342 24.76 9.45422 25.44 9.45422 26.8L 9.45422 27.67C 9.45422 29.06 10.0342 29.755 11.1942 29.755C 11.8742 29.755 12.3492 29.51 12.6192 29.02ZM 19.2703 24.025L 19.2703 23.5L 20.8603 23.5L 20.8603 33.85L 19.2703 33.85L 19.2703 30.49C 18.8703 30.92 18.2703 31.135 17.4703 31.135C 16.5203 31.135 15.7853 30.83 15.2653 30.22C 14.7453 29.61 14.4853 28.785 14.4853 27.745L 14.4853 26.725C 14.4853 25.665 14.7503 24.84 15.2803 24.25C 15.8103 23.66 16.5403 23.365 17.4703 23.365C 18.2503 23.365 18.8503 23.585 19.2703 24.025ZM 16.4803 29.2C 16.7503 29.57 17.1503 29.755 17.6803 29.755C 18.2103 29.755 18.6053 29.59 18.8653 29.26C 19.1353 28.92 19.2703 28.45 19.2703 27.85L 19.2703 26.8C 19.2703 25.44 18.7403 24.76 17.6803 24.76C 16.6103 24.76 16.0753 25.44 16.0753 26.8L 16.0753 27.67C 16.0753 28.32 16.2103 28.83 16.4803 29.2ZM 27.1536 23.5L 28.7436 23.5L 28.7436 31L 27.1686 31L 27.1686 30.325C 26.9786 30.615 26.7436 30.825 26.4636 30.955C 26.1936 31.075 25.8136 31.135 25.3236 31.135C 24.4636 31.135 23.7886 30.89 23.2986 30.4C 22.8186 29.91 22.5786 29.17 22.5786 28.18L 22.5786 23.5L 24.1836 23.5L 24.1836 28.015C 24.1836 28.625 24.3036 29.065 24.5436 29.335C 24.7836 29.595 25.1436 29.725 25.6236 29.725C 26.1136 29.725 26.4886 29.575 26.7486 29.275C 27.0186 28.975 27.1536 28.56 27.1536 28.03L 27.1536 23.5ZM 32.3041 31L 30.6991 31L 30.6991 23.5L 32.3041 23.5L 32.3041 31ZM 32.3791 22.285L 30.6241 22.285L 30.6241 20.65L 32.3791 20.65L 32.3791 22.285ZM 39.5788 24.475L 38.3038 25.375C 38.0338 24.985 37.6738 24.79 37.2238 24.79C 36.8038 24.79 36.4688 24.94 36.2188 25.24C 35.9688 25.53 35.8438 25.94 35.8438 26.47L 35.8438 31L 34.2388 31L 34.2388 23.5L 35.8138 23.5L 35.8138 24.175C 36.1538 23.635 36.7138 23.365 37.4938 23.365C 38.4138 23.365 39.1088 23.735 39.5788 24.475ZM 42.1186 31L 40.5136 31L 40.5136 23.5L 42.1186 23.5L 42.1186 31ZM 42.1936 22.285L 40.4386 22.285L 40.4386 20.65L 42.1936 20.65L 42.1936 22.285ZM 45.6582 31L 44.0532 31L 44.0532 23.5L 45.6282 23.5L 45.6282 24.175C 46.0282 23.635 46.6482 23.365 47.4882 23.365C 48.3482 23.365 49.0182 23.61 49.4982 24.1C 49.9782 24.58 50.2182 25.315 50.2182 26.305L 50.2182 31L 48.6282 31L 48.6282 26.485C 48.6282 25.355 48.1532 24.79 47.2032 24.79C 46.7232 24.79 46.3432 24.945 46.0632 25.255C 45.7932 25.555 45.6582 25.96 45.6582 26.47L 45.6582 31ZM 56.4187 24.025L 56.4187 23.5L 58.0087 23.5L 58.0087 30.85C 58.0087 32.91 56.9187 33.94 54.7388 33.94C 54.0387 33.94 53.4687 33.84 53.0287 33.64C 52.5987 33.44 52.2388 33.105 51.9488 32.635L 53.0737 31.825C 53.4038 32.325 53.9438 32.575 54.6937 32.575C 55.2938 32.575 55.7288 32.44 55.9987 32.17C 56.2787 31.9 56.4187 31.46 56.4187 30.85L 56.4187 30.505C 56.0088 30.925 55.4088 31.135 54.6187 31.135C 53.6688 31.135 52.9338 30.83 52.4137 30.22C 51.8937 29.61 51.6337 28.785 51.6337 27.745L 51.6337 26.725C 51.6337 25.665 51.8987 24.84 52.4288 24.25C 52.9588 23.66 53.6888 23.365 54.6187 23.365C 55.3987 23.365 55.9987 23.585 56.4187 24.025ZM 54.8287 29.755C 55.8887 29.755 56.4187 29.06 56.4187 27.67L 56.4187 26.8C 56.4187 25.44 55.8887 24.76 54.8287 24.76C 53.7588 24.76 53.2238 25.44 53.2238 26.8L 53.2238 27.67C 53.2238 28.32 53.3588 28.83 53.6287 29.2C 53.8987 29.57 54.2987 29.755 54.8287 29.755ZM 63.8071 30.52C 63.3371 30.11 63.1021 29.535 63.1021 28.795C 63.1021 28.055 63.3421 27.5 63.8221 27.13C 64.3121 26.76 65.0021 26.575 65.8921 26.575L 67.5121 26.575L 67.5121 25.945C 67.5121 25.475 67.4071 25.16 67.1971 25C 66.9871 24.83 66.5971 24.745 66.0271 24.745C 65.5871 24.745 65.2571 24.79 65.0371 24.88C 64.8171 24.97 64.6221 25.15 64.4521 25.42L 63.2971 24.61C 63.5671 24.17 63.9221 23.855 64.3621 23.665C 64.8021 23.465 65.3921 23.365 66.1321 23.365C 67.1621 23.365 67.9121 23.565 68.3821 23.965C 68.8521 24.355 69.0871 25.02 69.0871 25.96L 69.0871 31L 67.5121 31L 67.5121 30.31C 67.3321 30.61 67.1071 30.825 66.8371 30.955C 66.5771 31.075 66.2221 31.135 65.7721 31.135C 64.9321 31.135 64.2771 30.93 63.8071 30.52ZM 67.5121 28.165L 67.5121 27.805L 66.0121 27.805C 65.1221 27.805 64.6771 28.135 64.6771 28.795C 64.6771 29.445 65.1021 29.77 65.9521 29.77C 66.5021 29.77 66.8971 29.655 67.1371 29.425C 67.3871 29.185 67.5121 28.765 67.5121 28.165ZM 79.8913 24.61L 78.7063 25.465C 78.5163 25.215 78.3013 25.04 78.0613 24.94C 77.8213 24.84 77.4913 24.79 77.0713 24.79C 76.2913 24.79 75.9013 25.045 75.9013 25.555C 75.9013 25.835 76.0113 26.045 76.2313 26.185C 76.4613 26.325 76.8263 26.425 77.3263 26.485C 78.2463 26.585 78.9313 26.825 79.3813 27.205C 79.8413 27.575 80.0713 28.125 80.0713 28.855C 80.0713 29.575 79.8213 30.135 79.3213 30.535C 78.8313 30.935 78.1213 31.135 77.1913 31.135C 75.8013 31.135 74.7963 30.72 74.1763 29.89L 75.3913 29.02C 75.7413 29.49 76.3363 29.725 77.1763 29.725C 77.5863 29.725 77.9063 29.655 78.1363 29.515C 78.3663 29.365 78.4813 29.16 78.4813 28.9C 78.4813 28.61 78.3713 28.4 78.1513 28.27C 77.9413 28.14 77.5313 28.035 76.9213 27.955C 75.1713 27.735 74.2963 26.95 74.2963 25.6C 74.2963 24.91 74.5413 24.365 75.0313 23.965C 75.5213 23.565 76.2113 23.365 77.1013 23.365C 78.4313 23.365 79.3613 23.78 79.8913 24.61ZM 85.9789 29.02L 87.1789 29.86C 86.6889 30.71 85.7939 31.135 84.4939 31.135C 83.4539 31.135 82.6439 30.83 82.0639 30.22C 81.4939 29.61 81.2089 28.785 81.2089 27.745L 81.2089 26.725C 81.2089 25.625 81.4689 24.79 81.9889 24.22C 82.5089 23.65 83.2639 23.365 84.2539 23.365C 86.2739 23.365 87.2839 24.515 87.2839 26.815L 87.2839 27.64L 82.7989 27.64L 82.7989 27.67C 82.7989 28.32 82.9339 28.83 83.2039 29.2C 83.4739 29.57 83.8839 29.755 84.4339 29.755C 84.8439 29.755 85.1639 29.7 85.3939 29.59C 85.6239 29.47 85.8189 29.28 85.9789 29.02ZM 84.2539 24.76C 83.3739 24.76 82.8939 25.31 82.8139 26.41L 85.6789 26.41C 85.6189 25.31 85.1439 24.76 84.2539 24.76ZM 93.2885 29.02L 94.4885 29.86C 93.9985 30.71 93.1035 31.135 91.8035 31.135C 90.7635 31.135 89.9535 30.83 89.3735 30.22C 88.8035 29.61 88.5185 28.785 88.5185 27.745L 88.5185 26.725C 88.5185 25.625 88.7785 24.79 89.2985 24.22C 89.8185 23.65 90.5735 23.365 91.5635 23.365C 93.5835 23.365 94.5935 24.515 94.5935 26.815L 94.5935 27.64L 90.1085 27.64L 90.1085 27.67C 90.1085 28.32 90.2435 28.83 90.5135 29.2C 90.7835 29.57 91.1935 29.755 91.7435 29.755C 92.1535 29.755 92.4735 29.7 92.7035 29.59C 92.9335 29.47 93.1285 29.28 93.2885 29.02ZM 91.5635 24.76C 90.6835 24.76 90.2035 25.31 90.1235 26.41L 92.9885 26.41C 92.9285 25.31 92.4535 24.76 91.5635 24.76ZM 100.613 24.025L 100.613 20.65L 102.203 20.65L 102.203 31L 100.613 31L 100.613 30.475C 100.193 30.915 99.5931 31.135 98.8131 31.135C 97.8631 31.135 97.1281 30.83 96.6081 30.22C 96.0881 29.61 95.8281 28.785 95.8281 27.745L 95.8281 26.725C 95.8281 25.665 96.0931 24.84 96.6231 24.25C 97.1531 23.66 97.8831 23.365 98.8131 23.365C 99.5931 23.365 100.193 23.585 100.613 24.025ZM 99.0231 29.755C 100.083 29.755 100.613 29.06 100.613 27.67L 100.613 26.71C 100.613 26.09 100.473 25.61 100.193 25.27C 99.9231 24.93 99.5331 24.76 99.0231 24.76C 97.9531 24.76 97.4181 25.44 97.4181 26.8L 97.4181 27.67C 97.4181 28.32 97.5531 28.83 97.8231 29.2C 98.0931 29.57 98.4931 29.755 99.0231 29.755ZM 2.685 50L 1.08 50L 1.08 42.5L 2.685 42.5L 2.685 50ZM 2.76 41.285L 1.005 41.285L 1.005 39.65L 2.76 39.65L 2.76 41.285ZM 6.22465 50L 4.61965 50L 4.61965 42.5L 6.19465 42.5L 6.19465 43.175C 6.59465 42.635 7.21465 42.365 8.05465 42.365C 8.91465 42.365 9.58465 42.61 10.0646 43.1C 10.5446 43.58 10.7846 44.315 10.7846 45.305L 10.7846 50L 9.19465 50L 9.19465 45.485C 9.19465 44.355 8.71965 43.79 7.76965 43.79C 7.28965 43.79 6.90965 43.945 6.62965 44.255C 6.35965 44.555 6.22465 44.96 6.22465 45.47L 6.22465 50ZM 15.3669 47.855L 17.3019 42.5L 19.0869 42.5L 16.1619 50L 14.6319 50L 11.6469 42.5L 13.4169 42.5L 15.3669 47.855ZM 24.3383 48.02L 25.5383 48.86C 25.0483 49.71 24.1533 50.135 22.8533 50.135C 21.8133 50.135 21.0033 49.83 20.4233 49.22C 19.8533 48.61 19.5683 47.785 19.5683 46.745L 19.5683 45.725C 19.5683 44.625 19.8283 43.79 20.3483 43.22C 20.8683 42.65 21.6233 42.365 22.6133 42.365C 24.6333 42.365 25.6433 43.515 25.6433 45.815L 25.6433 46.64L 21.1583 46.64L 21.1583 46.67C 21.1583 47.32 21.2933 47.83 21.5633 48.2C 21.8333 48.57 22.2433 48.755 22.7933 48.755C 23.2033 48.755 23.5233 48.7 23.7533 48.59C 23.9833 48.47 24.1783 48.28 24.3383 48.02ZM 22.6133 43.76C 21.7333 43.76 21.2533 44.31 21.1733 45.41L 24.0383 45.41C 23.9783 44.31 23.5033 43.76 22.6133 43.76ZM 32.5329 43.61L 31.3479 44.465C 31.1579 44.215 30.9429 44.04 30.7029 43.94C 30.4629 43.84 30.1329 43.79 29.7129 43.79C 28.9329 43.79 28.5429 44.045 28.5429 44.555C 28.5429 44.835 28.6529 45.045 28.8729 45.185C 29.1029 45.325 29.4679 45.425 29.9679 45.485C 30.8879 45.585 31.5729 45.825 32.0229 46.205C 32.4829 46.575 32.7129 47.125 32.7129 47.855C 32.7129 48.575 32.4629 49.135 31.9629 49.535C 31.4729 49.935 30.7629 50.135 29.8329 50.135C 28.4429 50.135 27.4379 49.72 26.8179 48.89L 28.0329 48.02C 28.3829 48.49 28.9779 48.725 29.8179 48.725C 30.2279 48.725 30.5479 48.655 30.7779 48.515C 31.0079 48.365 31.1229 48.16 31.1229 47.9C 31.1229 47.61 31.0129 47.4 30.7929 47.27C 30.5829 47.14 30.1729 47.035 29.5629 46.955C 27.8129 46.735 26.9379 45.95 26.9379 44.6C 26.9379 43.91 27.1829 43.365 27.6729 42.965C 28.1629 42.565 28.8529 42.365 29.7429 42.365C 31.0729 42.365 32.0029 42.78 32.5329 43.61ZM 34.5255 43.88L 33.5655 43.88L 33.5655 42.5L 34.5255 42.5L 34.5255 40.85L 36.1155 40.85L 36.1155 42.5L 37.7055 42.5L 37.7055 43.88L 36.1155 43.88L 36.1155 47.315C 36.1155 47.785 36.1805 48.11 36.3105 48.29C 36.4405 48.47 36.7005 48.56 37.0905 48.56L 37.7055 48.56L 37.7055 50L 36.9705 50C 36.0705 50 35.4355 49.825 35.0655 49.475C 34.7055 49.115 34.5255 48.495 34.5255 47.615L 34.5255 43.88ZM 45.0888 45.77L 45.0888 46.715C 45.0888 47.785 44.8188 48.625 44.2788 49.235C 43.7388 49.835 42.9488 50.135 41.9088 50.135C 40.8888 50.135 40.0988 49.835 39.5388 49.235C 38.9888 48.625 38.7138 47.785 38.7138 46.715L 38.7138 45.77C 38.7138 44.67 38.9888 43.83 39.5388 43.25C 40.0988 42.66 40.8888 42.365 41.9088 42.365C 42.9288 42.365 43.7138 42.66 44.2638 43.25C 44.8138 43.83 45.0888 44.67 45.0888 45.77ZM 41.9088 48.755C 42.4388 48.755 42.8338 48.57 43.0938 48.2C 43.3638 47.83 43.4988 47.32 43.4988 46.67L 43.4988 45.8C 43.4988 44.44 42.9688 43.76 41.9088 43.76C 40.8388 43.76 40.3038 44.44 40.3038 45.8L 40.3038 46.67C 40.3038 48.06 40.8388 48.755 41.9088 48.755ZM 51.8249 43.475L 50.5499 44.375C 50.2799 43.985 49.9199 43.79 49.4699 43.79C 49.0499 43.79 48.7149 43.94 48.4649 44.24C 48.2149 44.53 48.0899 44.94 48.0899 45.47L 48.0899 50L 46.4849 50L 46.4849 42.5L 48.0599 42.5L 48.0599 43.175C 48.3999 42.635 48.9599 42.365 49.7399 42.365C 50.6599 42.365 51.3549 42.735 51.8249 43.475Z"/>
<path id="roadmob19path2_fill" d="M 0 0L 163 0L 163 15L 0 15L 0 0Z"/>
<path id="roadmob19path3_fill" d="M 5.621 3.565C 5.082 2.729 4.323 2.322 3.113 2.322C 1.375 2.322 0.66 3.279 0.66 4.368C 0.66 5.688 1.584 6.37 3.014 6.59C 4.444 6.81 4.807 7.294 4.807 8.009C 4.807 8.658 4.444 9.23 3.201 9.23C 2.211 9.23 1.771 8.889 1.276 8.306L 0.495 8.845C 1.067 9.67 1.969 10.088 3.201 10.088C 5.093 10.088 5.753 8.955 5.753 7.965C 5.753 6.557 4.862 6.029 3.399 5.776C 2.288 5.578 1.606 5.27 1.606 4.368C 1.606 3.576 2.2 3.18 3.08 3.18C 4.037 3.18 4.477 3.565 4.884 4.093L 5.621 3.565ZM 6.51518 5.292L 7.21918 5.292L 7.21918 8.306C 7.21918 9.45 7.59318 10 8.89118 10L 9.36418 10L 9.36418 9.164L 8.92418 9.164C 8.18718 9.164 8.09918 8.845 8.09918 8.086L 8.09918 5.292L 9.36418 5.292L 9.36418 4.5L 8.09918 4.5L 8.09918 3.29L 7.21918 3.29L 7.21918 4.5L 6.51518 4.5L 6.51518 5.292ZM 14.1979 5.16C 13.8459 4.665 13.3729 4.412 12.6249 4.412C 11.9539 4.412 11.5799 4.654 11.3489 5.039L 11.3489 4.5L 10.4689 4.5L 10.4689 10L 11.3489 10L 11.3489 6.557C 11.3489 5.732 11.8549 5.226 12.5259 5.226C 12.9329 5.226 13.2189 5.369 13.4499 5.688L 14.1979 5.16ZM 14.4156 8.394C 14.4156 9.461 15.1086 10.088 16.3846 10.088C 17.0996 10.088 17.4736 9.967 17.7816 9.461L 17.7816 10L 18.6616 10L 18.6616 6.183C 18.6616 4.863 17.9686 4.412 16.5716 4.412C 15.5266 4.412 14.9656 4.687 14.5806 5.325L 15.2406 5.787C 15.5486 5.281 15.9006 5.226 16.5606 5.226C 17.4186 5.226 17.7816 5.402 17.7816 6.183L 17.7816 6.821L 16.4726 6.821C 15.2626 6.821 14.4156 7.206 14.4156 8.394ZM 17.7816 7.888C 17.7816 9.12 17.1986 9.274 16.3846 9.274C 15.7356 9.274 15.2956 9.032 15.2956 8.416C 15.2956 7.866 15.6036 7.569 16.4726 7.569L 17.7816 7.569L 17.7816 7.888ZM 19.6099 5.292L 20.3139 5.292L 20.3139 8.306C 20.3139 9.45 20.6879 10 21.9859 10L 22.4589 10L 22.4589 9.164L 22.0189 9.164C 21.2819 9.164 21.1939 8.845 21.1939 8.086L 21.1939 5.292L 22.4589 5.292L 22.4589 4.5L 21.1939 4.5L 21.1939 3.29L 20.3139 3.29L 20.3139 4.5L 19.6099 4.5L 19.6099 5.292ZM 26.8856 8.68C 26.6546 9.087 26.2916 9.296 25.5766 9.296C 24.6196 9.296 24.1686 8.548 24.1686 7.602L 24.1686 7.448L 27.6446 7.448L 27.6446 6.876C 27.6446 5.303 26.9186 4.412 25.4666 4.412C 24.0256 4.412 23.2886 5.314 23.2886 6.876L 23.2886 7.602C 23.2886 9.131 24.1686 10.088 25.6426 10.088C 26.5996 10.088 27.1826 9.835 27.5676 9.164L 26.8856 8.68ZM 25.4666 5.204C 26.3026 5.204 26.7096 5.754 26.7536 6.678L 24.1686 6.678C 24.2236 5.765 24.6196 5.204 25.4666 5.204ZM 32.3557 5.05C 32.0587 4.643 31.5857 4.412 30.8597 4.412C 29.4957 4.412 28.6597 5.303 28.6597 6.876L 28.6597 7.602C 28.6597 9.032 29.3637 10.088 30.8597 10.088C 31.5857 10.088 32.0587 9.901 32.3557 9.516L 32.3557 9.89C 32.3557 10.836 31.9047 11.364 30.9477 11.364C 30.2327 11.364 29.8697 11.155 29.6387 10.748L 28.9567 11.232C 29.3417 11.903 29.9247 12.156 30.8817 12.156C 32.3557 12.156 33.2357 11.419 33.2357 9.89L 33.2357 4.5L 32.3557 4.5L 32.3557 5.05ZM 30.9477 9.296C 30.0127 9.296 29.5397 8.537 29.5397 7.602L 29.5397 6.876C 29.5397 5.831 30.0457 5.204 30.9477 5.204C 31.8497 5.204 32.3557 5.842 32.3557 6.876L 32.3557 7.602C 32.3557 8.548 31.9597 9.296 30.9477 9.296ZM 34.8361 10L 35.7161 10L 35.7161 4.5L 34.8361 4.5L 34.8361 10ZM 34.7811 3.4L 35.7711 3.4L 35.7711 2.41L 34.7811 2.41L 34.7811 3.4ZM 40.6356 8.68C 40.4046 9.12 39.9316 9.296 39.4146 9.296C 38.3586 9.296 37.9186 8.548 37.9186 7.602L 37.9186 6.876C 37.9186 5.842 38.4686 5.204 39.4146 5.204C 39.9206 5.204 40.3826 5.402 40.6246 5.754L 41.3176 5.27C 40.9216 4.709 40.2396 4.412 39.4146 4.412C 37.9296 4.412 37.0386 5.314 37.0386 6.876L 37.0386 7.602C 37.0386 9.12 37.9076 10.088 39.4146 10.088C 40.3056 10.088 40.9766 9.802 41.3176 9.164L 40.6356 8.68ZM 45.1163 10L 45.9963 10L 45.9963 4.5L 45.1163 4.5L 45.1163 10ZM 45.0613 3.4L 46.0513 3.4L 46.0513 2.41L 45.0613 2.41L 45.0613 3.4ZM 47.5939 10L 48.4739 10L 48.4739 6.568C 48.4739 5.809 48.9909 5.226 49.8159 5.226C 50.4649 5.226 51.0699 5.468 51.0699 6.579L 51.0699 10L 51.9499 10L 51.9499 6.568C 51.9499 5.028 51.1249 4.412 49.9479 4.412C 49.1339 4.412 48.7489 4.621 48.4739 5.039L 48.4739 4.5L 47.5939 4.5L 47.5939 10ZM 57.1129 4.5L 55.4409 8.878L 53.7689 4.5L 52.7789 4.5L 55.0229 10L 55.9029 10L 58.1029 4.5L 57.1129 4.5ZM 62.2489 8.68C 62.0179 9.087 61.6549 9.296 60.9399 9.296C 59.9829 9.296 59.5319 8.548 59.5319 7.602L 59.5319 7.448L 63.0079 7.448L 63.0079 6.876C 63.0079 5.303 62.2819 4.412 60.8299 4.412C 59.3889 4.412 58.6519 5.314 58.6519 6.876L 58.6519 7.602C 58.6519 9.131 59.5319 10.088 61.0059 10.088C 61.9629 10.088 62.5459 9.835 62.9309 9.164L 62.2489 8.68ZM 60.8299 5.204C 61.6659 5.204 62.0729 5.754 62.1169 6.678L 59.5319 6.678C 59.5869 5.765 59.9829 5.204 60.8299 5.204ZM 68.049 5.325C 67.62 4.643 66.938 4.412 66.047 4.412C 64.738 4.412 64.078 5.061 64.078 5.974C 64.078 7.173 64.991 7.547 65.915 7.613C 66.982 7.69 67.334 7.899 67.334 8.493C 67.334 8.988 66.894 9.274 66.157 9.274C 65.365 9.274 64.969 9.109 64.672 8.713L 64.023 9.175C 64.441 9.747 65.024 10.088 66.146 10.088C 67.565 10.088 68.214 9.428 68.214 8.471C 68.214 7.206 67.268 6.909 66.234 6.832C 65.508 6.777 64.958 6.59 64.958 5.963C 64.958 5.479 65.376 5.226 66.025 5.226C 66.784 5.226 67.092 5.402 67.389 5.787L 68.049 5.325ZM 68.938 5.292L 69.642 5.292L 69.642 8.306C 69.642 9.45 70.016 10 71.314 10L 71.787 10L 71.787 9.164L 71.347 9.164C 70.61 9.164 70.522 8.845 70.522 8.086L 70.522 5.292L 71.787 5.292L 71.787 4.5L 70.522 4.5L 70.522 3.29L 69.642 3.29L 69.642 4.5L 68.938 4.5L 68.938 5.292ZM 77.1928 6.876C 77.1928 5.303 76.3568 4.412 74.9048 4.412C 73.4638 4.412 72.6168 5.314 72.6168 6.876L 72.6168 7.602C 72.6168 9.12 73.4418 10.088 74.9048 10.088C 76.4888 10.088 77.1928 9.032 77.1928 7.602L 77.1928 6.876ZM 74.9048 9.296C 73.8928 9.296 73.4968 8.548 73.4968 7.602L 73.4968 6.876C 73.4968 5.842 74.0028 5.204 74.9048 5.204C 75.8068 5.204 76.3128 5.831 76.3128 6.876L 76.3128 7.602C 76.3128 8.537 75.8398 9.296 74.9048 9.296ZM 82.0778 5.16C 81.7258 4.665 81.2528 4.412 80.5048 4.412C 79.8338 4.412 79.4598 4.654 79.2288 5.039L 79.2288 4.5L 78.3488 4.5L 78.3488 10L 79.2288 10L 79.2288 6.557C 79.2288 5.732 79.7348 5.226 80.4058 5.226C 80.8128 5.226 81.0988 5.369 81.3298 5.688L 82.0778 5.16ZM 86.4289 5.325C 85.9999 4.643 85.3179 4.412 84.4269 4.412C 83.1179 4.412 82.4579 5.061 82.4579 5.974C 82.4579 7.173 83.3709 7.547 84.2949 7.613C 85.3619 7.69 85.7139 7.899 85.7139 8.493C 85.7139 8.988 85.2739 9.274 84.5369 9.274C 83.7449 9.274 83.3489 9.109 83.0519 8.713L 82.4029 9.175C 82.8209 9.747 83.4039 10.088 84.5259 10.088C 85.9449 10.088 86.5939 9.428 86.5939 8.471C 86.5939 7.206 85.6479 6.909 84.6139 6.832C 83.8879 6.777 83.3379 6.59 83.3379 5.963C 83.3379 5.479 83.7559 5.226 84.4049 5.226C 85.1639 5.226 85.4719 5.402 85.7689 5.787L 86.4289 5.325ZM 0.44 23.394C 0.44 24.461 1.133 25.088 2.409 25.088C 3.124 25.088 3.498 24.967 3.806 24.461L 3.806 25L 4.686 25L 4.686 21.183C 4.686 19.863 3.993 19.412 2.596 19.412C 1.551 19.412 0.99 19.687 0.605 20.325L 1.265 20.787C 1.573 20.281 1.925 20.226 2.585 20.226C 3.443 20.226 3.806 20.402 3.806 21.183L 3.806 21.821L 2.497 21.821C 1.287 21.821 0.44 22.206 0.44 23.394ZM 3.806 22.888C 3.806 24.12 3.223 24.274 2.409 24.274C 1.76 24.274 1.32 24.032 1.32 23.416C 1.32 22.866 1.628 22.569 2.497 22.569L 3.806 22.569L 3.806 22.888ZM 6.11832 25L 6.99832 25L 6.99832 21.568C 6.99832 20.809 7.51532 20.226 8.34032 20.226C 8.98932 20.226 9.59432 20.468 9.59432 21.579L 9.59432 25L 10.4743 25L 10.4743 21.568C 10.4743 20.028 9.64932 19.412 8.47232 19.412C 7.65832 19.412 7.27332 19.621 6.99832 20.039L 6.99832 19.5L 6.11832 19.5L 6.11832 25ZM 15.3294 20.05C 15.0324 19.643 14.5594 19.412 13.8334 19.412C 12.4694 19.412 11.6334 20.303 11.6334 21.876L 11.6334 22.602C 11.6334 24.032 12.3374 25.088 13.8334 25.088C 14.5594 25.088 15.0324 24.901 15.3294 24.516L 15.3294 25L 16.2094 25L 16.2094 17.41L 15.3294 17.41L 15.3294 20.05ZM 13.9214 24.296C 12.9864 24.296 12.5134 23.537 12.5134 22.602L 12.5134 21.876C 12.5134 20.831 13.0194 20.204 13.9214 20.204C 14.8234 20.204 15.3294 20.842 15.3294 21.876L 15.3294 22.679C 15.3294 23.592 14.9004 24.296 13.9214 24.296ZM 21.2747 20.05L 21.2747 19.5L 20.3947 19.5L 20.3947 27.09L 21.2747 27.09L 21.2747 24.45C 21.5717 24.857 22.0447 25.088 22.7707 25.088C 24.2667 25.088 24.9707 24.032 24.9707 22.602L 24.9707 21.876C 24.9707 20.303 24.1347 19.412 22.7707 19.412C 22.0447 19.412 21.5717 19.643 21.2747 20.05ZM 22.6827 24.296C 21.6707 24.296 21.2747 23.548 21.2747 22.602L 21.2747 21.799C 21.2747 20.809 21.8027 20.204 22.6827 20.204C 23.5847 20.204 24.0907 20.831 24.0907 21.876L 24.0907 22.602C 24.0907 23.537 23.6177 24.296 22.6827 24.296ZM 25.856 23.394C 25.856 24.461 26.549 25.088 27.825 25.088C 28.54 25.088 28.914 24.967 29.222 24.461L 29.222 25L 30.102 25L 30.102 21.183C 30.102 19.863 29.409 19.412 28.012 19.412C 26.967 19.412 26.406 19.687 26.021 20.325L 26.681 20.787C 26.989 20.281 27.341 20.226 28.001 20.226C 28.859 20.226 29.222 20.402 29.222 21.183L 29.222 21.821L 27.913 21.821C 26.703 21.821 25.856 22.206 25.856 23.394ZM 29.222 22.888C 29.222 24.12 28.639 24.274 27.825 24.274C 27.176 24.274 26.736 24.032 26.736 23.416C 26.736 22.866 27.044 22.569 27.913 22.569L 29.222 22.569L 29.222 22.888ZM 35.2633 20.16C 34.9113 19.665 34.4383 19.412 33.6903 19.412C 33.0193 19.412 32.6453 19.654 32.4143 20.039L 32.4143 19.5L 31.5343 19.5L 31.5343 25L 32.4143 25L 32.4143 21.557C 32.4143 20.732 32.9203 20.226 33.5913 20.226C 33.9983 20.226 34.2843 20.369 34.5153 20.688L 35.2633 20.16ZM 35.3794 20.292L 36.0834 20.292L 36.0834 23.306C 36.0834 24.45 36.4574 25 37.7554 25L 38.2284 25L 38.2284 24.164L 37.7884 24.164C 37.0514 24.164 36.9634 23.845 36.9634 23.086L 36.9634 20.292L 38.2284 20.292L 38.2284 19.5L 36.9634 19.5L 36.9634 18.29L 36.0834 18.29L 36.0834 19.5L 35.3794 19.5L 35.3794 20.292ZM 39.3332 25L 40.2132 25L 40.2132 21.568C 40.2132 20.809 40.7302 20.226 41.5552 20.226C 42.2042 20.226 42.8092 20.468 42.8092 21.579L 42.8092 25L 43.6892 25L 43.6892 21.568C 43.6892 20.028 42.8642 19.412 41.6872 19.412C 40.8732 19.412 40.4882 19.621 40.2132 20.039L 40.2132 19.5L 39.3332 19.5L 39.3332 25ZM 48.4452 23.68C 48.2142 24.087 47.8512 24.296 47.1362 24.296C 46.1792 24.296 45.7282 23.548 45.7282 22.602L 45.7282 22.448L 49.2042 22.448L 49.2042 21.876C 49.2042 20.303 48.4782 19.412 47.0262 19.412C 45.5852 19.412 44.8482 20.314 44.8482 21.876L 44.8482 22.602C 44.8482 24.131 45.7282 25.088 47.2022 25.088C 48.1592 25.088 48.7422 24.835 49.1272 24.164L 48.4452 23.68ZM 47.0262 20.204C 47.8622 20.204 48.2692 20.754 48.3132 21.678L 45.7282 21.678C 45.7832 20.765 46.1792 20.204 47.0262 20.204ZM 54.2233 20.16C 53.8713 19.665 53.3983 19.412 52.6503 19.412C 51.9793 19.412 51.6053 19.654 51.3743 20.039L 51.3743 19.5L 50.4943 19.5L 50.4943 25L 51.3743 25L 51.3743 21.557C 51.3743 20.732 51.8803 20.226 52.5513 20.226C 52.9583 20.226 53.2443 20.369 53.4753 20.688L 54.2233 20.16ZM 58.5744 20.325C 58.1454 19.643 57.4634 19.412 56.5724 19.412C 55.2634 19.412 54.6034 20.061 54.6034 20.974C 54.6034 22.173 55.5164 22.547 56.4404 22.613C 57.5074 22.69 57.8594 22.899 57.8594 23.493C 57.8594 23.988 57.4194 24.274 56.6824 24.274C 55.8904 24.274 55.4944 24.109 55.1974 23.713L 54.5484 24.175C 54.9664 24.747 55.5494 25.088 56.6714 25.088C 58.0904 25.088 58.7394 24.428 58.7394 23.471C 58.7394 22.206 57.7934 21.909 56.7594 21.832C 56.0334 21.777 55.4834 21.59 55.4834 20.963C 55.4834 20.479 55.9014 20.226 56.5504 20.226C 57.3094 20.226 57.6174 20.402 57.9144 20.787L 58.5744 20.325Z"/>
<path id="roadmob19path4_fill" d="M 8.475 6.165L 8.475 7.485C 8.475 8.585 8.305 9.48 7.965 10.17L 9.36 11.415L 8.385 12.525L 7.065 11.355C 6.455 11.875 5.63 12.135 4.59 12.135C 3.36 12.135 2.405 11.745 1.725 10.965C 1.055 10.185 0.72 9.025 0.72 7.485L 0.72 6.165C 0.72 4.625 1.055 3.465 1.725 2.685C 2.405 1.905 3.36 1.515 4.59 1.515C 5.82 1.515 6.775 1.905 7.455 2.685C 8.135 3.465 8.475 4.625 8.475 6.165ZM 2.46 6.165L 2.46 7.485C 2.46 8.565 2.635 9.36 2.985 9.87C 3.335 10.37 3.87 10.62 4.59 10.62C 5.08 10.62 5.49 10.5 5.82 10.26L 4.5 9.075L 5.505 7.95L 6.585 8.925C 6.685 8.565 6.735 8.085 6.735 7.485L 6.735 6.165C 6.735 5.085 6.555 4.295 6.195 3.795C 5.845 3.285 5.31 3.03 4.59 3.03C 3.87 3.03 3.335 3.285 2.985 3.795C 2.635 4.295 2.46 5.085 2.46 6.165ZM 12.7228 1.65L 14.3578 1.65L 14.3578 12L 12.6178 12L 12.6178 3.525L 11.1328 4.545L 11.1328 2.79L 12.7228 1.65ZM 23.8447 10.5L 27.7747 10.5L 27.7747 12L 21.5197 12L 21.5197 10.77L 25.0747 6.6C 25.7747 5.8 26.1247 5.075 26.1247 4.425C 26.1247 3.985 25.9847 3.64 25.7047 3.39C 25.4347 3.13 25.0847 3 24.6547 3C 24.2247 3 23.8747 3.13 23.6047 3.39C 23.3447 3.64 23.2047 3.985 23.1847 4.425L 21.5947 4.425C 21.5947 3.565 21.8947 2.865 22.4947 2.325C 23.0947 1.785 23.8347 1.515 24.7147 1.515C 25.6247 1.515 26.3697 1.79 26.9497 2.34C 27.5497 2.9 27.8497 3.605 27.8497 4.455C 27.8497 5.085 27.6647 5.68 27.2947 6.24C 27.1647 6.44 27.0097 6.66 26.8297 6.9L 26.2897 7.575L 23.8447 10.5ZM 35.8516 4.68L 35.8516 8.97C 35.8516 9.99 35.5366 10.775 34.9066 11.325C 34.2966 11.865 33.5266 12.135 32.5966 12.135C 31.6766 12.135 30.9016 11.865 30.2716 11.325C 29.6516 10.765 29.3416 9.98 29.3416 8.97L 29.3416 4.695C 29.3416 3.655 29.6516 2.865 30.2716 2.325C 30.8916 1.785 31.6666 1.515 32.5966 1.515C 33.5266 1.515 34.3016 1.785 34.9216 2.325C 35.5416 2.855 35.8516 3.64 35.8516 4.68ZM 34.1116 8.865L 34.1116 4.785C 34.1116 4.235 33.9766 3.805 33.7066 3.495C 33.4366 3.185 33.0666 3.03 32.5966 3.03C 32.1166 3.03 31.7416 3.185 31.4716 3.495C 31.2016 3.805 31.0666 4.235 31.0666 4.785L 31.0666 8.865C 31.0666 9.415 31.2016 9.845 31.4716 10.155C 31.7416 10.465 32.1166 10.62 32.5966 10.62C 33.0666 10.62 33.4366 10.465 33.7066 10.155C 33.9766 9.845 34.1116 9.415 34.1116 8.865ZM 39.9836 1.65L 41.6186 1.65L 41.6186 12L 39.8786 12L 39.8786 3.525L 38.3936 4.545L 38.3936 2.79L 39.9836 1.65ZM 44.9255 9.105C 44.9255 8.555 45.0755 8.055 45.3755 7.605C 45.6755 7.145 46.0455 6.82 46.4855 6.63C 46.0655 6.42 45.7255 6.11 45.4655 5.7C 45.2055 5.29 45.0755 4.845 45.0755 4.365C 45.0755 3.515 45.3905 2.825 46.0205 2.295C 46.6405 1.775 47.3905 1.515 48.2705 1.515C 49.1605 1.515 49.9105 1.775 50.5205 2.295C 51.1505 2.825 51.4655 3.515 51.4655 4.365C 51.4655 4.845 51.3355 5.29 51.0755 5.7C 50.8155 6.11 50.4755 6.42 50.0555 6.63C 50.5055 6.82 50.8755 7.145 51.1655 7.605C 51.4655 8.055 51.6155 8.555 51.6155 9.105C 51.6155 10.015 51.2905 10.75 50.6405 11.31C 50.0005 11.86 49.2105 12.135 48.2705 12.135C 47.3305 12.135 46.5405 11.86 45.9005 11.31C 45.2505 10.75 44.9255 10.015 44.9255 9.105ZM 46.6655 9C 46.6655 9.46 46.8155 9.85 47.1155 10.17C 47.4255 10.48 47.8105 10.635 48.2705 10.635C 48.7205 10.635 49.1005 10.475 49.4105 10.155C 49.7305 9.835 49.8905 9.45 49.8905 9C 49.8905 8.52 49.7205 8.13 49.3805 7.83C 49.0505 7.53 48.6805 7.38 48.2705 7.38C 47.8405 7.38 47.4655 7.535 47.1455 7.845C 46.8255 8.145 46.6655 8.53 46.6655 9ZM 49.7405 4.485C 49.7405 4.085 49.5955 3.745 49.3055 3.465C 49.0255 3.175 48.6805 3.03 48.2705 3.03C 47.8605 3.03 47.5105 3.17 47.2205 3.45C 46.9405 3.73 46.8005 4.075 46.8005 4.485C 46.8005 4.895 46.9405 5.245 47.2205 5.535C 47.5105 5.825 47.8605 5.97 48.2705 5.97C 48.6805 5.97 49.0255 5.825 49.3055 5.535C 49.5955 5.245 49.7405 4.895 49.7405 4.485ZM 7.23 26.725L 7.23 27.745C 7.23 28.785 6.97 29.61 6.45 30.22C 5.94 30.83 5.215 31.135 4.275 31.135C 3.445 31.135 2.84 30.93 2.46 30.52L 2.46 33.85L 0.855 33.85L 0.855 23.5L 2.46 23.5L 2.46 24.1C 2.86 23.61 3.47 23.365 4.29 23.365C 5.2 23.365 5.915 23.665 6.435 24.265C 6.965 24.855 7.23 25.675 7.23 26.725ZM 4.05 29.755C 4.58 29.755 4.975 29.57 5.235 29.2C 5.505 28.83 5.64 28.32 5.64 27.67L 5.64 26.8C 5.64 25.44 5.11 24.76 4.05 24.76C 3 24.76 2.47 25.41 2.46 26.71L 2.46 27.67C 2.46 29.06 2.99 29.755 4.05 29.755ZM 13.9733 24.475L 12.6983 25.375C 12.4283 24.985 12.0683 24.79 11.6183 24.79C 11.1983 24.79 10.8633 24.94 10.6133 25.24C 10.3633 25.53 10.2383 25.94 10.2383 26.47L 10.2383 31L 8.63332 31L 8.63332 23.5L 10.2083 23.5L 10.2083 24.175C 10.5483 23.635 11.1083 23.365 11.8883 23.365C 12.8083 23.365 13.5033 23.735 13.9733 24.475ZM 19.0795 29.02L 20.2795 29.86C 19.7895 30.71 18.8945 31.135 17.5945 31.135C 16.5545 31.135 15.7445 30.83 15.1645 30.22C 14.5945 29.61 14.3095 28.785 14.3095 27.745L 14.3095 26.725C 14.3095 25.625 14.5695 24.79 15.0895 24.22C 15.6095 23.65 16.3645 23.365 17.3545 23.365C 19.3745 23.365 20.3845 24.515 20.3845 26.815L 20.3845 27.64L 15.8995 27.64L 15.8995 27.67C 15.8995 28.32 16.0345 28.83 16.3045 29.2C 16.5745 29.57 16.9845 29.755 17.5345 29.755C 17.9445 29.755 18.2645 29.7 18.4945 29.59C 18.7245 29.47 18.9195 29.28 19.0795 29.02ZM 17.3545 24.76C 16.4745 24.76 15.9945 25.31 15.9145 26.41L 18.7795 26.41C 18.7195 25.31 18.2445 24.76 17.3545 24.76ZM 25.4141 27.37L 21.5291 27.37L 21.5291 25.96L 25.4141 25.96L 25.4141 27.37ZM 32.0641 24.61L 30.8791 25.465C 30.6891 25.215 30.4741 25.04 30.2341 24.94C 29.9941 24.84 29.6641 24.79 29.2441 24.79C 28.4641 24.79 28.0741 25.045 28.0741 25.555C 28.0741 25.835 28.1841 26.045 28.4041 26.185C 28.6341 26.325 28.9991 26.425 29.4991 26.485C 30.4191 26.585 31.1041 26.825 31.5541 27.205C 32.0141 27.575 32.2441 28.125 32.2441 28.855C 32.2441 29.575 31.9941 30.135 31.4941 30.535C 31.0041 30.935 30.2941 31.135 29.3641 31.135C 27.9741 31.135 26.9691 30.72 26.3491 29.89L 27.5641 29.02C 27.9141 29.49 28.5091 29.725 29.3491 29.725C 29.7591 29.725 30.0791 29.655 30.3091 29.515C 30.5391 29.365 30.6541 29.16 30.6541 28.9C 30.6541 28.61 30.5441 28.4 30.3241 28.27C 30.1141 28.14 29.7041 28.035 29.0941 27.955C 27.3441 27.735 26.4691 26.95 26.4691 25.6C 26.4691 24.91 26.7141 24.365 27.2041 23.965C 27.6941 23.565 28.3841 23.365 29.2741 23.365C 30.6041 23.365 31.5341 23.78 32.0641 24.61ZM 34.0268 30.52C 33.5568 30.11 33.3218 29.535 33.3218 28.795C 33.3218 28.055 33.5618 27.5 34.0418 27.13C 34.5318 26.76 35.2218 26.575 36.1118 26.575L 37.7318 26.575L 37.7318 25.945C 37.7318 25.475 37.6268 25.16 37.4168 25C 37.2068 24.83 36.8168 24.745 36.2468 24.745C 35.8068 24.745 35.4768 24.79 35.2568 24.88C 35.0368 24.97 34.8418 25.15 34.6718 25.42L 33.5168 24.61C 33.7868 24.17 34.1418 23.855 34.5818 23.665C 35.0218 23.465 35.6118 23.365 36.3518 23.365C 37.3818 23.365 38.1318 23.565 38.6018 23.965C 39.0718 24.355 39.3068 25.02 39.3068 25.96L 39.3068 31L 37.7318 31L 37.7318 30.31C 37.5518 30.61 37.3268 30.825 37.0568 30.955C 36.7968 31.075 36.4418 31.135 35.9918 31.135C 35.1518 31.135 34.4968 30.93 34.0268 30.52ZM 37.7318 28.165L 37.7318 27.805L 36.2318 27.805C 35.3418 27.805 34.8968 28.135 34.8968 28.795C 34.8968 29.445 35.3218 29.77 36.1718 29.77C 36.7218 29.77 37.1168 29.655 37.3568 29.425C 37.6068 29.185 37.7318 28.765 37.7318 28.165ZM 41.021 28.645L 41.021 20.65L 42.626 20.65L 42.626 28.27C 42.626 28.74 42.706 29.08 42.866 29.29C 43.026 29.49 43.326 29.59 43.766 29.59L 43.766 31C 42.776 31 42.071 30.825 41.651 30.475C 41.231 30.115 41.021 29.505 41.021 28.645ZM 49.7094 29.02L 50.9094 29.86C 50.4194 30.71 49.5244 31.135 48.2244 31.135C 47.1844 31.135 46.3744 30.83 45.7944 30.22C 45.2244 29.61 44.9394 28.785 44.9394 27.745L 44.9394 26.725C 44.9394 25.625 45.1994 24.79 45.7194 24.22C 46.2394 23.65 46.9944 23.365 47.9844 23.365C 50.0044 23.365 51.0144 24.515 51.0144 26.815L 51.0144 27.64L 46.5294 27.64L 46.5294 27.67C 46.5294 28.32 46.6644 28.83 46.9344 29.2C 47.2044 29.57 47.6144 29.755 48.1644 29.755C 48.5744 29.755 48.8944 29.7 49.1244 29.59C 49.3544 29.47 49.5494 29.28 49.7094 29.02ZM 47.9844 24.76C 47.1044 24.76 46.6244 25.31 46.5444 26.41L 49.4094 26.41C 49.3494 25.31 48.8744 24.76 47.9844 24.76Z"/>
<path id="roadmob19path5_fill" fill-rule="evenodd" d="M 0 0L 147 0C 155.284 0 162 6.71582 162 15L 162 72L 147 72L 147 24C 147 19.0293 142.97 15 138 15L 0 15L 0 0Z"/>
<path id="roadmob19path6_fill" fill-rule="evenodd" d="M 147 72L 147 24C 147 19.0293 142.97 15 138 15L 0 15L 0 0L 147 0C 155.284 0 162 6.71582 162 15L 162 72L 147 72Z"/>
<path id="roadmob19path7_fill" fill-rule="evenodd" d="M 0 0L 148 0C 156.284 0 163 6.71582 163 15L 163 78L 148 78L 148 24C 148 19.0293 143.97 15 139 15L 0 15L 0 0Z"/>
<path id="roadmob19path8_fill" fill-rule="evenodd" d="M 310 54L 310 24C 310 19.0293 305.97 15 301 15L 0 15L 0 0L 310 0C 318.284 0 325 6.71582 325 15L 325 54L 310 54Z"/>
<path id="roadmob19path9_fill" d="M 8.475 6.165L 8.475 7.485C 8.475 8.585 8.305 9.48 7.965 10.17L 9.36 11.415L 8.385 12.525L 7.065 11.355C 6.455 11.875 5.63 12.135 4.59 12.135C 3.36 12.135 2.405 11.745 1.725 10.965C 1.055 10.185 0.72 9.025 0.72 7.485L 0.72 6.165C 0.72 4.625 1.055 3.465 1.725 2.685C 2.405 1.905 3.36 1.515 4.59 1.515C 5.82 1.515 6.775 1.905 7.455 2.685C 8.135 3.465 8.475 4.625 8.475 6.165ZM 2.46 6.165L 2.46 7.485C 2.46 8.565 2.635 9.36 2.985 9.87C 3.335 10.37 3.87 10.62 4.59 10.62C 5.08 10.62 5.49 10.5 5.82 10.26L 4.5 9.075L 5.505 7.95L 6.585 8.925C 6.685 8.565 6.735 8.085 6.735 7.485L 6.735 6.165C 6.735 5.085 6.555 4.295 6.195 3.795C 5.845 3.285 5.31 3.03 4.59 3.03C 3.87 3.03 3.335 3.285 2.985 3.795C 2.635 4.295 2.46 5.085 2.46 6.165ZM 12.2578 10.5L 16.1878 10.5L 16.1878 12L 9.93281 12L 9.93281 10.77L 13.4878 6.6C 14.1878 5.8 14.5378 5.075 14.5378 4.425C 14.5378 3.985 14.3978 3.64 14.1178 3.39C 13.8478 3.13 13.4978 3 13.0678 3C 12.6378 3 12.2878 3.13 12.0178 3.39C 11.7578 3.64 11.6178 3.985 11.5978 4.425L 10.0078 4.425C 10.0078 3.565 10.3078 2.865 10.9078 2.325C 11.5078 1.785 12.2478 1.515 13.1278 1.515C 14.0378 1.515 14.7828 1.79 15.3628 2.34C 15.9628 2.9 16.2628 3.605 16.2628 4.455C 16.2628 5.085 16.0778 5.68 15.7078 6.24C 15.5778 6.44 15.4228 6.66 15.2428 6.9L 14.7028 7.575L 12.2578 10.5ZM 23.8447 10.5L 27.7747 10.5L 27.7747 12L 21.5197 12L 21.5197 10.77L 25.0747 6.6C 25.7747 5.8 26.1247 5.075 26.1247 4.425C 26.1247 3.985 25.9847 3.64 25.7047 3.39C 25.4347 3.13 25.0847 3 24.6547 3C 24.2247 3 23.8747 3.13 23.6047 3.39C 23.3447 3.64 23.2047 3.985 23.1847 4.425L 21.5947 4.425C 21.5947 3.565 21.8947 2.865 22.4947 2.325C 23.0947 1.785 23.8347 1.515 24.7147 1.515C 25.6247 1.515 26.3697 1.79 26.9497 2.34C 27.5497 2.9 27.8497 3.605 27.8497 4.455C 27.8497 5.085 27.6647 5.68 27.2947 6.24C 27.1647 6.44 27.0097 6.66 26.8297 6.9L 26.2897 7.575L 23.8447 10.5ZM 35.8516 4.68L 35.8516 8.97C 35.8516 9.99 35.5366 10.775 34.9066 11.325C 34.2966 11.865 33.5266 12.135 32.5966 12.135C 31.6766 12.135 30.9016 11.865 30.2716 11.325C 29.6516 10.765 29.3416 9.98 29.3416 8.97L 29.3416 4.695C 29.3416 3.655 29.6516 2.865 30.2716 2.325C 30.8916 1.785 31.6666 1.515 32.5966 1.515C 33.5266 1.515 34.3016 1.785 34.9216 2.325C 35.5416 2.855 35.8516 3.64 35.8516 4.68ZM 34.1116 8.865L 34.1116 4.785C 34.1116 4.235 33.9766 3.805 33.7066 3.495C 33.4366 3.185 33.0666 3.03 32.5966 3.03C 32.1166 3.03 31.7416 3.185 31.4716 3.495C 31.2016 3.805 31.0666 4.235 31.0666 4.785L 31.0666 8.865C 31.0666 9.415 31.2016 9.845 31.4716 10.155C 31.7416 10.465 32.1166 10.62 32.5966 10.62C 33.0666 10.62 33.4366 10.465 33.7066 10.155C 33.9766 9.845 34.1116 9.415 34.1116 8.865ZM 39.9836 1.65L 41.6186 1.65L 41.6186 12L 39.8786 12L 39.8786 3.525L 38.3936 4.545L 38.3936 2.79L 39.9836 1.65ZM 44.9255 9.105C 44.9255 8.555 45.0755 8.055 45.3755 7.605C 45.6755 7.145 46.0455 6.82 46.4855 6.63C 46.0655 6.42 45.7255 6.11 45.4655 5.7C 45.2055 5.29 45.0755 4.845 45.0755 4.365C 45.0755 3.515 45.3905 2.825 46.0205 2.295C 46.6405 1.775 47.3905 1.515 48.2705 1.515C 49.1605 1.515 49.9105 1.775 50.5205 2.295C 51.1505 2.825 51.4655 3.515 51.4655 4.365C 51.4655 4.845 51.3355 5.29 51.0755 5.7C 50.8155 6.11 50.4755 6.42 50.0555 6.63C 50.5055 6.82 50.8755 7.145 51.1655 7.605C 51.4655 8.055 51.6155 8.555 51.6155 9.105C 51.6155 10.015 51.2905 10.75 50.6405 11.31C 50.0005 11.86 49.2105 12.135 48.2705 12.135C 47.3305 12.135 46.5405 11.86 45.9005 11.31C 45.2505 10.75 44.9255 10.015 44.9255 9.105ZM 46.6655 9C 46.6655 9.46 46.8155 9.85 47.1155 10.17C 47.4255 10.48 47.8105 10.635 48.2705 10.635C 48.7205 10.635 49.1005 10.475 49.4105 10.155C 49.7305 9.835 49.8905 9.45 49.8905 9C 49.8905 8.52 49.7205 8.13 49.3805 7.83C 49.0505 7.53 48.6805 7.38 48.2705 7.38C 47.8405 7.38 47.4655 7.535 47.1455 7.845C 46.8255 8.145 46.6655 8.53 46.6655 9ZM 49.7405 4.485C 49.7405 4.085 49.5955 3.745 49.3055 3.465C 49.0255 3.175 48.6805 3.03 48.2705 3.03C 47.8605 3.03 47.5105 3.17 47.2205 3.45C 46.9405 3.73 46.8005 4.075 46.8005 4.485C 46.8005 4.895 46.9405 5.245 47.2205 5.535C 47.5105 5.825 47.8605 5.97 48.2705 5.97C 48.6805 5.97 49.0255 5.825 49.3055 5.535C 49.5955 5.245 49.7405 4.895 49.7405 4.485ZM 7.23 26.725L 7.23 27.745C 7.23 28.785 6.97 29.61 6.45 30.22C 5.94 30.83 5.215 31.135 4.275 31.135C 3.445 31.135 2.84 30.93 2.46 30.52L 2.46 33.85L 0.855 33.85L 0.855 23.5L 2.46 23.5L 2.46 24.1C 2.86 23.61 3.47 23.365 4.29 23.365C 5.2 23.365 5.915 23.665 6.435 24.265C 6.965 24.855 7.23 25.675 7.23 26.725ZM 4.05 29.755C 4.58 29.755 4.975 29.57 5.235 29.2C 5.505 28.83 5.64 28.32 5.64 27.67L 5.64 26.8C 5.64 25.44 5.11 24.76 4.05 24.76C 3 24.76 2.47 25.41 2.46 26.71L 2.46 27.67C 2.46 29.06 2.99 29.755 4.05 29.755ZM 13.9733 24.475L 12.6983 25.375C 12.4283 24.985 12.0683 24.79 11.6183 24.79C 11.1983 24.79 10.8633 24.94 10.6133 25.24C 10.3633 25.53 10.2383 25.94 10.2383 26.47L 10.2383 31L 8.63332 31L 8.63332 23.5L 10.2083 23.5L 10.2083 24.175C 10.5483 23.635 11.1083 23.365 11.8883 23.365C 12.8083 23.365 13.5033 23.735 13.9733 24.475ZM 16.5131 31L 14.9081 31L 14.9081 23.5L 16.5131 23.5L 16.5131 31ZM 16.5881 22.285L 14.8331 22.285L 14.8331 20.65L 16.5881 20.65L 16.5881 22.285ZM 21.3728 28.855L 23.3078 23.5L 25.0928 23.5L 22.1678 31L 20.6378 31L 17.6528 23.5L 19.4228 23.5L 21.3728 28.855ZM 26.3071 30.52C 25.8371 30.11 25.6021 29.535 25.6021 28.795C 25.6021 28.055 25.8421 27.5 26.3221 27.13C 26.8121 26.76 27.5021 26.575 28.3921 26.575L 30.0121 26.575L 30.0121 25.945C 30.0121 25.475 29.9071 25.16 29.6971 25C 29.4871 24.83 29.0971 24.745 28.5271 24.745C 28.0871 24.745 27.7571 24.79 27.5371 24.88C 27.3171 24.97 27.1221 25.15 26.9521 25.42L 25.7971 24.61C 26.0671 24.17 26.4221 23.855 26.8621 23.665C 27.3021 23.465 27.8921 23.365 28.6321 23.365C 29.6621 23.365 30.4121 23.565 30.8821 23.965C 31.3521 24.355 31.5871 25.02 31.5871 25.96L 31.5871 31L 30.0121 31L 30.0121 30.31C 29.8321 30.61 29.6071 30.825 29.3371 30.955C 29.0771 31.075 28.7221 31.135 28.2721 31.135C 27.4321 31.135 26.7771 30.93 26.3071 30.52ZM 30.0121 28.165L 30.0121 27.805L 28.5121 27.805C 27.6221 27.805 27.1771 28.135 27.1771 28.795C 27.1771 29.445 27.6021 29.77 28.4521 29.77C 29.0021 29.77 29.3971 29.655 29.6371 29.425C 29.8871 29.185 30.0121 28.765 30.0121 28.165ZM 33.6613 24.88L 32.7013 24.88L 32.7013 23.5L 33.6613 23.5L 33.6613 21.85L 35.2513 21.85L 35.2513 23.5L 36.8413 23.5L 36.8413 24.88L 35.2513 24.88L 35.2513 28.315C 35.2513 28.785 35.3163 29.11 35.4463 29.29C 35.5763 29.47 35.8363 29.56 36.2263 29.56L 36.8413 29.56L 36.8413 31L 36.1063 31C 35.2063 31 34.5713 30.825 34.2013 30.475C 33.8413 30.115 33.6613 29.495 33.6613 28.615L 33.6613 24.88ZM 42.6196 29.02L 43.8196 29.86C 43.3296 30.71 42.4346 31.135 41.1346 31.135C 40.0946 31.135 39.2846 30.83 38.7046 30.22C 38.1346 29.61 37.8496 28.785 37.8496 27.745L 37.8496 26.725C 37.8496 25.625 38.1096 24.79 38.6296 24.22C 39.1496 23.65 39.9046 23.365 40.8946 23.365C 42.9146 23.365 43.9246 24.515 43.9246 26.815L 43.9246 27.64L 39.4396 27.64L 39.4396 27.67C 39.4396 28.32 39.5746 28.83 39.8446 29.2C 40.1146 29.57 40.5246 29.755 41.0746 29.755C 41.4846 29.755 41.8046 29.7 42.0346 29.59C 42.2646 29.47 42.4596 29.28 42.6196 29.02ZM 40.8946 24.76C 40.0146 24.76 39.5346 25.31 39.4546 26.41L 42.3196 26.41C 42.2596 25.31 41.7846 24.76 40.8946 24.76ZM 54.5641 24.61L 53.3791 25.465C 53.1891 25.215 52.9741 25.04 52.7341 24.94C 52.4941 24.84 52.1641 24.79 51.7441 24.79C 50.9641 24.79 50.5741 25.045 50.5741 25.555C 50.5741 25.835 50.6841 26.045 50.9041 26.185C 51.1341 26.325 51.4991 26.425 51.9991 26.485C 52.9191 26.585 53.6041 26.825 54.0541 27.205C 54.5141 27.575 54.7441 28.125 54.7441 28.855C 54.7441 29.575 54.4941 30.135 53.9941 30.535C 53.5041 30.935 52.7941 31.135 51.8641 31.135C 50.4741 31.135 49.4691 30.72 48.8491 29.89L 50.0641 29.02C 50.4141 29.49 51.0091 29.725 51.8491 29.725C 52.2591 29.725 52.5791 29.655 52.8091 29.515C 53.0391 29.365 53.1541 29.16 53.1541 28.9C 53.1541 28.61 53.0441 28.4 52.8241 28.27C 52.6141 28.14 52.2041 28.035 51.5941 27.955C 49.8441 27.735 48.9691 26.95 48.9691 25.6C 48.9691 24.91 49.2141 24.365 49.7041 23.965C 50.1941 23.565 50.8841 23.365 51.7741 23.365C 53.1041 23.365 54.0341 23.78 54.5641 24.61ZM 56.5268 30.52C 56.0568 30.11 55.8218 29.535 55.8218 28.795C 55.8218 28.055 56.0618 27.5 56.5418 27.13C 57.0318 26.76 57.7218 26.575 58.6118 26.575L 60.2318 26.575L 60.2318 25.945C 60.2318 25.475 60.1268 25.16 59.9168 25C 59.7068 24.83 59.3168 24.745 58.7468 24.745C 58.3068 24.745 57.9768 24.79 57.7568 24.88C 57.5368 24.97 57.3418 25.15 57.1718 25.42L 56.0168 24.61C 56.2868 24.17 56.6418 23.855 57.0818 23.665C 57.5218 23.465 58.1118 23.365 58.8518 23.365C 59.8818 23.365 60.6318 23.565 61.1018 23.965C 61.5718 24.355 61.8068 25.02 61.8068 25.96L 61.8068 31L 60.2318 31L 60.2318 30.31C 60.0518 30.61 59.8268 30.825 59.5568 30.955C 59.2968 31.075 58.9418 31.135 58.4918 31.135C 57.6518 31.135 56.9968 30.93 56.5268 30.52ZM 60.2318 28.165L 60.2318 27.805L 58.7318 27.805C 57.8418 27.805 57.3968 28.135 57.3968 28.795C 57.3968 29.445 57.8218 29.77 58.6718 29.77C 59.2218 29.77 59.6168 29.655 59.8568 29.425C 60.1068 29.185 60.2318 28.765 60.2318 28.165ZM 63.521 28.645L 63.521 20.65L 65.126 20.65L 65.126 28.27C 65.126 28.74 65.206 29.08 65.366 29.29C 65.526 29.49 65.826 29.59 66.266 29.59L 66.266 31C 65.276 31 64.571 30.825 64.151 30.475C 63.731 30.115 63.521 29.505 63.521 28.645ZM 72.2094 29.02L 73.4094 29.86C 72.9194 30.71 72.0244 31.135 70.7244 31.135C 69.6844 31.135 68.8744 30.83 68.2944 30.22C 67.7244 29.61 67.4394 28.785 67.4394 27.745L 67.4394 26.725C 67.4394 25.625 67.6994 24.79 68.2194 24.22C 68.7394 23.65 69.4944 23.365 70.4844 23.365C 72.5044 23.365 73.5144 24.515 73.5144 26.815L 73.5144 27.64L 69.0294 27.64L 69.0294 27.67C 69.0294 28.32 69.1644 28.83 69.4344 29.2C 69.7044 29.57 70.1144 29.755 70.6644 29.755C 71.0744 29.755 71.3944 29.7 71.6244 29.59C 71.8544 29.47 72.0494 29.28 72.2094 29.02ZM 70.4844 24.76C 69.6044 24.76 69.1244 25.31 69.0444 26.41L 71.9094 26.41C 71.8494 25.31 71.3744 24.76 70.4844 24.76Z"/>
<path id="roadmob19path10_fill" d="M 8.475 6.165L 8.475 7.485C 8.475 8.585 8.305 9.48 7.965 10.17L 9.36 11.415L 8.385 12.525L 7.065 11.355C 6.455 11.875 5.63 12.135 4.59 12.135C 3.36 12.135 2.405 11.745 1.725 10.965C 1.055 10.185 0.72 9.025 0.72 7.485L 0.72 6.165C 0.72 4.625 1.055 3.465 1.725 2.685C 2.405 1.905 3.36 1.515 4.59 1.515C 5.82 1.515 6.775 1.905 7.455 2.685C 8.135 3.465 8.475 4.625 8.475 6.165ZM 2.46 6.165L 2.46 7.485C 2.46 8.565 2.635 9.36 2.985 9.87C 3.335 10.37 3.87 10.62 4.59 10.62C 5.08 10.62 5.49 10.5 5.82 10.26L 4.5 9.075L 5.505 7.95L 6.585 8.925C 6.685 8.565 6.735 8.085 6.735 7.485L 6.735 6.165C 6.735 5.085 6.555 4.295 6.195 3.795C 5.845 3.285 5.31 3.03 4.59 3.03C 3.87 3.03 3.335 3.285 2.985 3.795C 2.635 4.295 2.46 5.085 2.46 6.165ZM 12.8278 7.41L 12.1078 7.41L 12.1078 5.91L 12.8278 5.91C 13.3678 5.91 13.7778 5.775 14.0578 5.505C 14.3478 5.235 14.4928 4.855 14.4928 4.365C 14.4928 3.975 14.3528 3.65 14.0728 3.39C 13.7928 3.13 13.4428 3 13.0228 3C 12.6128 3 12.2728 3.12 12.0028 3.36C 11.7428 3.6 11.5928 3.905 11.5528 4.275L 9.96281 4.275C 9.97281 3.465 10.2828 2.805 10.8928 2.295C 11.5028 1.775 12.2328 1.515 13.0828 1.515C 13.9928 1.515 14.7378 1.785 15.3178 2.325C 15.9178 2.865 16.2178 3.53 16.2178 4.32C 16.2178 4.84 16.0878 5.3 15.8278 5.7C 15.5678 6.1 15.2078 6.41 14.7478 6.63C 15.8278 7.11 16.3678 7.945 16.3678 9.135C 16.3678 9.985 16.0828 10.7 15.5128 11.28C 14.9428 11.85 14.1728 12.135 13.2028 12.135C 12.2028 12.135 11.4028 11.88 10.8028 11.37C 10.2028 10.85 9.87781 10.16 9.82781 9.3L 11.4178 9.3C 11.4778 9.71 11.6528 10.035 11.9428 10.275C 12.2328 10.505 12.6278 10.62 13.1278 10.62C 13.5778 10.62 13.9428 10.48 14.2228 10.2C 14.5028 9.91 14.6428 9.54 14.6428 9.09C 14.6428 8.55 14.4878 8.135 14.1778 7.845C 13.8678 7.555 13.4178 7.41 12.8278 7.41ZM 21.4297 8.37L 17.5447 8.37L 17.5447 6.96L 21.4297 6.96L 21.4297 8.37ZM 30.3598 6.165L 30.3598 7.485C 30.3598 8.585 30.1898 9.48 29.8498 10.17L 31.2448 11.415L 30.2698 12.525L 28.9498 11.355C 28.3398 11.875 27.5148 12.135 26.4748 12.135C 25.2448 12.135 24.2898 11.745 23.6098 10.965C 22.9398 10.185 22.6048 9.025 22.6048 7.485L 22.6048 6.165C 22.6048 4.625 22.9398 3.465 23.6098 2.685C 24.2898 1.905 25.2448 1.515 26.4748 1.515C 27.7048 1.515 28.6598 1.905 29.3398 2.685C 30.0198 3.465 30.3598 4.625 30.3598 6.165ZM 24.3448 6.165L 24.3448 7.485C 24.3448 8.565 24.5198 9.36 24.8698 9.87C 25.2198 10.37 25.7548 10.62 26.4748 10.62C 26.9648 10.62 27.3748 10.5 27.7048 10.26L 26.3848 9.075L 27.3898 7.95L 28.4698 8.925C 28.5698 8.565 28.6198 8.085 28.6198 7.485L 28.6198 6.165C 28.6198 5.085 28.4398 4.295 28.0798 3.795C 27.7298 3.285 27.1948 3.03 26.4748 3.03C 25.7548 3.03 25.2198 3.285 24.8698 3.795C 24.5198 4.295 24.3448 5.085 24.3448 6.165ZM 31.3526 9.21L 34.9376 1.65L 36.7826 1.65L 33.4676 8.925L 35.8976 8.925L 35.8976 6.105L 37.6376 6.105L 37.6376 8.925L 38.5826 8.925L 38.5826 10.44L 37.6376 10.44L 37.6376 12L 35.8976 12L 35.8976 10.44L 31.3526 10.44L 31.3526 9.21ZM 45.7295 10.5L 49.6595 10.5L 49.6595 12L 43.4045 12L 43.4045 10.77L 46.9595 6.6C 47.6595 5.8 48.0095 5.075 48.0095 4.425C 48.0095 3.985 47.8695 3.64 47.5895 3.39C 47.3195 3.13 46.9695 3 46.5395 3C 46.1095 3 45.7595 3.13 45.4895 3.39C 45.2295 3.64 45.0895 3.985 45.0695 4.425L 43.4795 4.425C 43.4795 3.565 43.7795 2.865 44.3795 2.325C 44.9795 1.785 45.7195 1.515 46.5995 1.515C 47.5095 1.515 48.2545 1.79 48.8345 2.34C 49.4345 2.9 49.7345 3.605 49.7345 4.455C 49.7345 5.085 49.5495 5.68 49.1795 6.24C 49.0495 6.44 48.8945 6.66 48.7145 6.9L 48.1745 7.575L 45.7295 10.5ZM 57.7364 4.68L 57.7364 8.97C 57.7364 9.99 57.4214 10.775 56.7914 11.325C 56.1814 11.865 55.4114 12.135 54.4814 12.135C 53.5614 12.135 52.7864 11.865 52.1564 11.325C 51.5364 10.765 51.2264 9.98 51.2264 8.97L 51.2264 4.695C 51.2264 3.655 51.5364 2.865 52.1564 2.325C 52.7764 1.785 53.5514 1.515 54.4814 1.515C 55.4114 1.515 56.1864 1.785 56.8064 2.325C 57.4264 2.855 57.7364 3.64 57.7364 4.68ZM 55.9964 8.865L 55.9964 4.785C 55.9964 4.235 55.8614 3.805 55.5914 3.495C 55.3214 3.185 54.9514 3.03 54.4814 3.03C 54.0014 3.03 53.6264 3.185 53.3564 3.495C 53.0864 3.805 52.9514 4.235 52.9514 4.785L 52.9514 8.865C 52.9514 9.415 53.0864 9.845 53.3564 10.155C 53.6264 10.465 54.0014 10.62 54.4814 10.62C 54.9514 10.62 55.3214 10.465 55.5914 10.155C 55.8614 9.845 55.9964 9.415 55.9964 8.865ZM 61.8683 1.65L 63.5033 1.65L 63.5033 12L 61.7633 12L 61.7633 3.525L 60.2783 4.545L 60.2783 2.79L 61.8683 1.65ZM 66.8102 9.105C 66.8102 8.555 66.9602 8.055 67.2602 7.605C 67.5602 7.145 67.9302 6.82 68.3702 6.63C 67.9502 6.42 67.6102 6.11 67.3502 5.7C 67.0902 5.29 66.9602 4.845 66.9602 4.365C 66.9602 3.515 67.2752 2.825 67.9052 2.295C 68.5252 1.775 69.2752 1.515 70.1552 1.515C 71.0452 1.515 71.7952 1.775 72.4052 2.295C 73.0352 2.825 73.3502 3.515 73.3502 4.365C 73.3502 4.845 73.2202 5.29 72.9602 5.7C 72.7002 6.11 72.3602 6.42 71.9402 6.63C 72.3902 6.82 72.7602 7.145 73.0502 7.605C 73.3502 8.055 73.5002 8.555 73.5002 9.105C 73.5002 10.015 73.1752 10.75 72.5252 11.31C 71.8852 11.86 71.0952 12.135 70.1552 12.135C 69.2152 12.135 68.4252 11.86 67.7852 11.31C 67.1352 10.75 66.8102 10.015 66.8102 9.105ZM 68.5502 9C 68.5502 9.46 68.7002 9.85 69.0002 10.17C 69.3102 10.48 69.6952 10.635 70.1552 10.635C 70.6052 10.635 70.9852 10.475 71.2952 10.155C 71.6152 9.835 71.7752 9.45 71.7752 9C 71.7752 8.52 71.6052 8.13 71.2652 7.83C 70.9352 7.53 70.5652 7.38 70.1552 7.38C 69.7252 7.38 69.3502 7.535 69.0302 7.845C 68.7102 8.145 68.5502 8.53 68.5502 9ZM 71.6252 4.485C 71.6252 4.085 71.4802 3.745 71.1902 3.465C 70.9102 3.175 70.5652 3.03 70.1552 3.03C 69.7452 3.03 69.3952 3.17 69.1052 3.45C 68.8252 3.73 68.6852 4.075 68.6852 4.485C 68.6852 4.895 68.8252 5.245 69.1052 5.535C 69.3952 5.825 69.7452 5.97 70.1552 5.97C 70.5652 5.97 70.9102 5.825 71.1902 5.535C 71.4802 5.245 71.6252 4.895 71.6252 4.485ZM 7.23 26.725L 7.23 27.745C 7.23 28.785 6.97 29.61 6.45 30.22C 5.94 30.83 5.215 31.135 4.275 31.135C 3.445 31.135 2.84 30.93 2.46 30.52L 2.46 33.85L 0.855 33.85L 0.855 23.5L 2.46 23.5L 2.46 24.1C 2.86 23.61 3.47 23.365 4.29 23.365C 5.2 23.365 5.915 23.665 6.435 24.265C 6.965 24.855 7.23 25.675 7.23 26.725ZM 4.05 29.755C 4.58 29.755 4.975 29.57 5.235 29.2C 5.505 28.83 5.64 28.32 5.64 27.67L 5.64 26.8C 5.64 25.44 5.11 24.76 4.05 24.76C 3 24.76 2.47 25.41 2.46 26.71L 2.46 27.67C 2.46 29.06 2.99 29.755 4.05 29.755ZM 13.9733 24.475L 12.6983 25.375C 12.4283 24.985 12.0683 24.79 11.6183 24.79C 11.1983 24.79 10.8633 24.94 10.6133 25.24C 10.3633 25.53 10.2383 25.94 10.2383 26.47L 10.2383 31L 8.63332 31L 8.63332 23.5L 10.2083 23.5L 10.2083 24.175C 10.5483 23.635 11.1083 23.365 11.8883 23.365C 12.8083 23.365 13.5033 23.735 13.9733 24.475ZM 16.5131 31L 14.9081 31L 14.9081 23.5L 16.5131 23.5L 16.5131 31ZM 16.5881 22.285L 14.8331 22.285L 14.8331 20.65L 16.5881 20.65L 16.5881 22.285ZM 21.3728 28.855L 23.3078 23.5L 25.0928 23.5L 22.1678 31L 20.6378 31L 17.6528 23.5L 19.4228 23.5L 21.3728 28.855ZM 26.3071 30.52C 25.8371 30.11 25.6021 29.535 25.6021 28.795C 25.6021 28.055 25.8421 27.5 26.3221 27.13C 26.8121 26.76 27.5021 26.575 28.3921 26.575L 30.0121 26.575L 30.0121 25.945C 30.0121 25.475 29.9071 25.16 29.6971 25C 29.4871 24.83 29.0971 24.745 28.5271 24.745C 28.0871 24.745 27.7571 24.79 27.5371 24.88C 27.3171 24.97 27.1221 25.15 26.9521 25.42L 25.7971 24.61C 26.0671 24.17 26.4221 23.855 26.8621 23.665C 27.3021 23.465 27.8921 23.365 28.6321 23.365C 29.6621 23.365 30.4121 23.565 30.8821 23.965C 31.3521 24.355 31.5871 25.02 31.5871 25.96L 31.5871 31L 30.0121 31L 30.0121 30.31C 29.8321 30.61 29.6071 30.825 29.3371 30.955C 29.0771 31.075 28.7221 31.135 28.2721 31.135C 27.4321 31.135 26.7771 30.93 26.3071 30.52ZM 30.0121 28.165L 30.0121 27.805L 28.5121 27.805C 27.6221 27.805 27.1771 28.135 27.1771 28.795C 27.1771 29.445 27.6021 29.77 28.4521 29.77C 29.0021 29.77 29.3971 29.655 29.6371 29.425C 29.8871 29.185 30.0121 28.765 30.0121 28.165ZM 33.6613 24.88L 32.7013 24.88L 32.7013 23.5L 33.6613 23.5L 33.6613 21.85L 35.2513 21.85L 35.2513 23.5L 36.8413 23.5L 36.8413 24.88L 35.2513 24.88L 35.2513 28.315C 35.2513 28.785 35.3163 29.11 35.4463 29.29C 35.5763 29.47 35.8363 29.56 36.2263 29.56L 36.8413 29.56L 36.8413 31L 36.1063 31C 35.2063 31 34.5713 30.825 34.2013 30.475C 33.8413 30.115 33.6613 29.495 33.6613 28.615L 33.6613 24.88ZM 42.6196 29.02L 43.8196 29.86C 43.3296 30.71 42.4346 31.135 41.1346 31.135C 40.0946 31.135 39.2846 30.83 38.7046 30.22C 38.1346 29.61 37.8496 28.785 37.8496 27.745L 37.8496 26.725C 37.8496 25.625 38.1096 24.79 38.6296 24.22C 39.1496 23.65 39.9046 23.365 40.8946 23.365C 42.9146 23.365 43.9246 24.515 43.9246 26.815L 43.9246 27.64L 39.4396 27.64L 39.4396 27.67C 39.4396 28.32 39.5746 28.83 39.8446 29.2C 40.1146 29.57 40.5246 29.755 41.0746 29.755C 41.4846 29.755 41.8046 29.7 42.0346 29.59C 42.2646 29.47 42.4596 29.28 42.6196 29.02ZM 40.8946 24.76C 40.0146 24.76 39.5346 25.31 39.4546 26.41L 42.3196 26.41C 42.2596 25.31 41.7846 24.76 40.8946 24.76ZM 49.2241 20.65L 50.7691 20.65L 50.7691 24.085C 51.1591 23.605 51.7591 23.365 52.5691 23.365C 53.5091 23.365 54.2391 23.665 54.7591 24.265C 55.2891 24.855 55.5541 25.69 55.5541 26.77L 55.5541 27.715C 55.5541 28.775 55.2941 29.61 54.7741 30.22C 54.2541 30.83 53.5191 31.135 52.5691 31.135C 51.7491 31.135 51.1491 30.91 50.7691 30.46L 50.7691 31L 49.2241 31L 49.2241 20.65ZM 52.3591 29.755C 52.8891 29.755 53.2841 29.57 53.5441 29.2C 53.8141 28.83 53.9491 28.32 53.9491 27.67L 53.9491 26.8C 53.9491 25.44 53.4191 24.76 52.3591 24.76C 51.8491 24.76 51.4591 24.93 51.1891 25.27C 50.9191 25.6 50.7791 26.08 50.7691 26.71L 50.7691 27.67C 50.7691 29.06 51.2991 29.755 52.3591 29.755ZM 61.3989 29.02L 62.5989 29.86C 62.1089 30.71 61.2139 31.135 59.9139 31.135C 58.8739 31.135 58.0639 30.83 57.4839 30.22C 56.9139 29.61 56.6289 28.785 56.6289 27.745L 56.6289 26.725C 56.6289 25.625 56.8889 24.79 57.4089 24.22C 57.9289 23.65 58.6839 23.365 59.6739 23.365C 61.6939 23.365 62.7039 24.515 62.7039 26.815L 62.7039 27.64L 58.2189 27.64L 58.2189 27.67C 58.2189 28.32 58.3539 28.83 58.6239 29.2C 58.8939 29.57 59.3039 29.755 59.8539 29.755C 60.2639 29.755 60.5839 29.7 60.8139 29.59C 61.0439 29.47 61.2389 29.28 61.3989 29.02ZM 59.6739 24.76C 58.7939 24.76 58.3139 25.31 58.2339 26.41L 61.0989 26.41C 61.0389 25.31 60.5639 24.76 59.6739 24.76ZM 64.6134 24.88L 63.6534 24.88L 63.6534 23.5L 64.6134 23.5L 64.6134 21.85L 66.2034 21.85L 66.2034 23.5L 67.7934 23.5L 67.7934 24.88L 66.2034 24.88L 66.2034 28.315C 66.2034 28.785 66.2684 29.11 66.3984 29.29C 66.5284 29.47 66.7884 29.56 67.1784 29.56L 67.7934 29.56L 67.7934 31L 67.0584 31C 66.1584 31 65.5234 30.825 65.1534 30.475C 64.7934 30.115 64.6134 29.495 64.6134 28.615L 64.6134 24.88ZM 69.4467 30.52C 68.9767 30.11 68.7417 29.535 68.7417 28.795C 68.7417 28.055 68.9817 27.5 69.4617 27.13C 69.9517 26.76 70.6417 26.575 71.5317 26.575L 73.1517 26.575L 73.1517 25.945C 73.1517 25.475 73.0467 25.16 72.8367 25C 72.6267 24.83 72.2367 24.745 71.6667 24.745C 71.2267 24.745 70.8967 24.79 70.6767 24.88C 70.4567 24.97 70.2617 25.15 70.0917 25.42L 68.9367 24.61C 69.2067 24.17 69.5617 23.855 70.0017 23.665C 70.4417 23.465 71.0317 23.365 71.7717 23.365C 72.8017 23.365 73.5517 23.565 74.0217 23.965C 74.4917 24.355 74.7267 25.02 74.7267 25.96L 74.7267 31L 73.1517 31L 73.1517 30.31C 72.9717 30.61 72.7467 30.825 72.4767 30.955C 72.2167 31.075 71.8617 31.135 71.4117 31.135C 70.5717 31.135 69.9167 30.93 69.4467 30.52ZM 73.1517 28.165L 73.1517 27.805L 71.6517 27.805C 70.7617 27.805 70.3167 28.135 70.3167 28.795C 70.3167 29.445 70.7417 29.77 71.5917 29.77C 72.1417 29.77 72.5367 29.655 72.7767 29.425C 73.0267 29.185 73.1517 28.765 73.1517 28.165Z"/>
<path id="roadmob19path11_fill" d="M 3.355 7.107C 5.115 7.107 6.116 6.227 6.116 4.764C 6.116 3.29 5.104 2.41 3.355 2.41L 0.935 2.41L 0.935 10L 1.881 10L 1.881 7.107L 3.355 7.107ZM 1.881 6.249L 1.881 3.268L 3.355 3.268C 4.642 3.268 5.17 3.818 5.17 4.764C 5.17 5.699 4.642 6.249 3.355 6.249L 1.881 6.249ZM 7.3468 10L 8.2268 10L 8.2268 4.5L 7.3468 4.5L 7.3468 10ZM 7.2918 3.4L 8.2818 3.4L 8.2818 2.41L 7.2918 2.41L 7.2918 3.4ZM 9.82437 8.306C 9.82437 9.45 10.2534 10 11.6394 10L 11.6394 9.186C 10.7374 9.186 10.7044 8.68 10.7044 8.086L 10.7044 2.41L 9.82437 2.41L 9.82437 8.306ZM 17.1439 6.876C 17.1439 5.303 16.3079 4.412 14.8559 4.412C 13.4149 4.412 12.5679 5.314 12.5679 6.876L 12.5679 7.602C 12.5679 9.12 13.3929 10.088 14.8559 10.088C 16.4399 10.088 17.1439 9.032 17.1439 7.602L 17.1439 6.876ZM 14.8559 9.296C 13.8439 9.296 13.4479 8.548 13.4479 7.602L 13.4479 6.876C 13.4479 5.842 13.9539 5.204 14.8559 5.204C 15.7579 5.204 16.2639 5.831 16.2639 6.876L 16.2639 7.602C 16.2639 8.537 15.7909 9.296 14.8559 9.296ZM 17.816 5.292L 18.52 5.292L 18.52 8.306C 18.52 9.45 18.894 10 20.192 10L 20.665 10L 20.665 9.164L 20.225 9.164C 19.488 9.164 19.4 8.845 19.4 8.086L 19.4 5.292L 20.665 5.292L 20.665 4.5L 19.4 4.5L 19.4 3.29L 18.52 3.29L 18.52 4.5L 17.816 4.5L 17.816 5.292ZM 25.3997 5.05L 25.3997 4.5L 24.5197 4.5L 24.5197 12.09L 25.3997 12.09L 25.3997 9.45C 25.6967 9.857 26.1697 10.088 26.8957 10.088C 28.3917 10.088 29.0957 9.032 29.0957 7.602L 29.0957 6.876C 29.0957 5.303 28.2597 4.412 26.8957 4.412C 26.1697 4.412 25.6967 4.643 25.3997 5.05ZM 26.8077 9.296C 25.7957 9.296 25.3997 8.548 25.3997 7.602L 25.3997 6.799C 25.3997 5.809 25.9277 5.204 26.8077 5.204C 27.7097 5.204 28.2157 5.831 28.2157 6.876L 28.2157 7.602C 28.2157 8.537 27.7427 9.296 26.8077 9.296ZM 29.981 8.394C 29.981 9.461 30.674 10.088 31.95 10.088C 32.665 10.088 33.039 9.967 33.347 9.461L 33.347 10L 34.227 10L 34.227 6.183C 34.227 4.863 33.534 4.412 32.137 4.412C 31.092 4.412 30.531 4.687 30.146 5.325L 30.806 5.787C 31.114 5.281 31.466 5.226 32.126 5.226C 32.984 5.226 33.347 5.402 33.347 6.183L 33.347 6.821L 32.038 6.821C 30.828 6.821 29.981 7.206 29.981 8.394ZM 33.347 7.888C 33.347 9.12 32.764 9.274 31.95 9.274C 31.301 9.274 30.861 9.032 30.861 8.416C 30.861 7.866 31.169 7.569 32.038 7.569L 33.347 7.569L 33.347 7.888ZM 39.3883 5.16C 39.0363 4.665 38.5633 4.412 37.8153 4.412C 37.1443 4.412 36.7703 4.654 36.5393 5.039L 36.5393 4.5L 35.6593 4.5L 35.6593 10L 36.5393 10L 36.5393 6.557C 36.5393 5.732 37.0453 5.226 37.7163 5.226C 38.1233 5.226 38.4093 5.369 38.6403 5.688L 39.3883 5.16ZM 39.5044 5.292L 40.2084 5.292L 40.2084 8.306C 40.2084 9.45 40.5824 10 41.8804 10L 42.3534 10L 42.3534 9.164L 41.9134 9.164C 41.1764 9.164 41.0884 8.845 41.0884 8.086L 41.0884 5.292L 42.3534 5.292L 42.3534 4.5L 41.0884 4.5L 41.0884 3.29L 40.2084 3.29L 40.2084 4.5L 39.5044 4.5L 39.5044 5.292ZM 43.4582 10L 44.3382 10L 44.3382 6.568C 44.3382 5.809 44.8552 5.226 45.6802 5.226C 46.3292 5.226 46.9342 5.468 46.9342 6.579L 46.9342 10L 47.8142 10L 47.8142 6.568C 47.8142 5.028 46.9892 4.412 45.8122 4.412C 44.9982 4.412 44.6132 4.621 44.3382 5.039L 44.3382 4.5L 43.4582 4.5L 43.4582 10ZM 52.5702 8.68C 52.3392 9.087 51.9762 9.296 51.2612 9.296C 50.3042 9.296 49.8532 8.548 49.8532 7.602L 49.8532 7.448L 53.3292 7.448L 53.3292 6.876C 53.3292 5.303 52.6032 4.412 51.1512 4.412C 49.7102 4.412 48.9732 5.314 48.9732 6.876L 48.9732 7.602C 48.9732 9.131 49.8532 10.088 51.3272 10.088C 52.2842 10.088 52.8672 9.835 53.2522 9.164L 52.5702 8.68ZM 51.1512 5.204C 51.9872 5.204 52.3942 5.754 52.4382 6.678L 49.8532 6.678C 49.9082 5.765 50.3042 5.204 51.1512 5.204ZM 58.3483 5.16C 57.9963 4.665 57.5233 4.412 56.7753 4.412C 56.1043 4.412 55.7303 4.654 55.4993 5.039L 55.4993 4.5L 54.6193 4.5L 54.6193 10L 55.4993 10L 55.4993 6.557C 55.4993 5.732 56.0053 5.226 56.6763 5.226C 57.0833 5.226 57.3693 5.369 57.6003 5.688L 58.3483 5.16ZM 61.8634 10L 62.7434 10L 62.7434 4.5L 61.8634 4.5L 61.8634 10ZM 61.8084 3.4L 62.7984 3.4L 62.7984 2.41L 61.8084 2.41L 61.8084 3.4ZM 64.341 10L 65.221 10L 65.221 6.568C 65.221 5.809 65.738 5.226 66.563 5.226C 67.212 5.226 67.817 5.468 67.817 6.579L 67.817 10L 68.697 10L 68.697 6.568C 68.697 5.028 67.872 4.412 66.695 4.412C 65.881 4.412 65.496 4.621 65.221 5.039L 65.221 4.5L 64.341 4.5L 64.341 10ZM 69.647 5.292L 70.351 5.292L 70.351 8.306C 70.351 9.45 70.725 10 72.023 10L 72.496 10L 72.496 9.164L 72.056 9.164C 71.319 9.164 71.231 8.845 71.231 8.086L 71.231 5.292L 72.496 5.292L 72.496 4.5L 71.231 4.5L 71.231 3.29L 70.351 3.29L 70.351 4.5L 69.647 4.5L 69.647 5.292ZM 76.9227 8.68C 76.6917 9.087 76.3287 9.296 75.6137 9.296C 74.6567 9.296 74.2057 8.548 74.2057 7.602L 74.2057 7.448L 77.6817 7.448L 77.6817 6.876C 77.6817 5.303 76.9557 4.412 75.5037 4.412C 74.0627 4.412 73.3257 5.314 73.3257 6.876L 73.3257 7.602C 73.3257 9.131 74.2057 10.088 75.6797 10.088C 76.6367 10.088 77.2197 9.835 77.6047 9.164L 76.9227 8.68ZM 75.5037 5.204C 76.3397 5.204 76.7467 5.754 76.7907 6.678L 74.2057 6.678C 74.2607 5.765 74.6567 5.204 75.5037 5.204ZM 82.3928 5.05C 82.0958 4.643 81.6228 4.412 80.8968 4.412C 79.5328 4.412 78.6968 5.303 78.6968 6.876L 78.6968 7.602C 78.6968 9.032 79.4008 10.088 80.8968 10.088C 81.6228 10.088 82.0958 9.901 82.3928 9.516L 82.3928 9.89C 82.3928 10.836 81.9418 11.364 80.9848 11.364C 80.2698 11.364 79.9068 11.155 79.6758 10.748L 78.9938 11.232C 79.3788 11.903 79.9618 12.156 80.9188 12.156C 82.3928 12.156 83.2728 11.419 83.2728 9.89L 83.2728 4.5L 82.3928 4.5L 82.3928 5.05ZM 80.9848 9.296C 80.0498 9.296 79.5768 8.537 79.5768 7.602L 79.5768 6.876C 79.5768 5.831 80.0828 5.204 80.9848 5.204C 81.8868 5.204 82.3928 5.842 82.3928 6.876L 82.3928 7.602C 82.3928 8.548 81.9968 9.296 80.9848 9.296ZM 88.4372 5.16C 88.0852 4.665 87.6122 4.412 86.8642 4.412C 86.1932 4.412 85.8192 4.654 85.5882 5.039L 85.5882 4.5L 84.7082 4.5L 84.7082 10L 85.5882 10L 85.5882 6.557C 85.5882 5.732 86.0942 5.226 86.7652 5.226C 87.1722 5.226 87.4582 5.369 87.6892 5.688L 88.4372 5.16ZM 88.6548 8.394C 88.6548 9.461 89.3478 10.088 90.6238 10.088C 91.3388 10.088 91.7128 9.967 92.0208 9.461L 92.0208 10L 92.9008 10L 92.9008 6.183C 92.9008 4.863 92.2078 4.412 90.8108 4.412C 89.7658 4.412 89.2048 4.687 88.8198 5.325L 89.4798 5.787C 89.7878 5.281 90.1398 5.226 90.7998 5.226C 91.6578 5.226 92.0208 5.402 92.0208 6.183L 92.0208 6.821L 90.7118 6.821C 89.5018 6.821 88.6548 7.206 88.6548 8.394ZM 92.0208 7.888C 92.0208 9.12 91.4378 9.274 90.6238 9.274C 89.9748 9.274 89.5348 9.032 89.5348 8.416C 89.5348 7.866 89.8428 7.569 90.7118 7.569L 92.0208 7.569L 92.0208 7.888ZM 93.8492 5.292L 94.5532 5.292L 94.5532 8.306C 94.5532 9.45 94.9272 10 96.2252 10L 96.6982 10L 96.6982 9.164L 96.2582 9.164C 95.5212 9.164 95.4332 8.845 95.4332 8.086L 95.4332 5.292L 96.6982 5.292L 96.6982 4.5L 95.4332 4.5L 95.4332 3.29L 94.5532 3.29L 94.5532 4.5L 93.8492 4.5L 93.8492 5.292ZM 97.9679 10L 98.8479 10L 98.8479 4.5L 97.9679 4.5L 97.9679 10ZM 97.9129 3.4L 98.9029 3.4L 98.9029 2.41L 97.9129 2.41L 97.9129 3.4ZM 104.746 6.876C 104.746 5.303 103.91 4.412 102.458 4.412C 101.017 4.412 100.17 5.314 100.17 6.876L 100.17 7.602C 100.17 9.12 100.995 10.088 102.458 10.088C 104.042 10.088 104.746 9.032 104.746 7.602L 104.746 6.876ZM 102.458 9.296C 101.446 9.296 101.05 8.548 101.05 7.602L 101.05 6.876C 101.05 5.842 101.556 5.204 102.458 5.204C 103.36 5.204 103.866 5.831 103.866 6.876L 103.866 7.602C 103.866 8.537 103.393 9.296 102.458 9.296ZM 105.902 10L 106.782 10L 106.782 6.568C 106.782 5.809 107.3 5.226 108.124 5.226C 108.774 5.226 109.379 5.468 109.379 6.579L 109.379 10L 110.258 10L 110.258 6.568C 110.258 5.028 109.434 4.412 108.257 4.412C 107.442 4.412 107.058 4.621 106.782 5.039L 106.782 4.5L 105.902 4.5L 105.902 10ZM 115.444 5.325C 115.015 4.643 114.333 4.412 113.442 4.412C 112.133 4.412 111.473 5.061 111.473 5.974C 111.473 7.173 112.386 7.547 113.31 7.613C 114.377 7.69 114.729 7.899 114.729 8.493C 114.729 8.988 114.289 9.274 113.552 9.274C 112.76 9.274 112.364 9.109 112.067 8.713L 111.418 9.175C 111.836 9.747 112.419 10.088 113.541 10.088C 114.96 10.088 115.609 9.428 115.609 8.471C 115.609 7.206 114.663 6.909 113.629 6.832C 112.903 6.777 112.353 6.59 112.353 5.963C 112.353 5.479 112.771 5.226 113.42 5.226C 114.179 5.226 114.487 5.402 114.784 5.787L 115.444 5.325ZM 117.818 8.724L 116.762 8.724L 116.762 11.562L 117.818 10.649L 117.818 8.724ZM 0.715 23.306C 0.715 24.45 1.144 25 2.53 25L 2.53 24.186C 1.628 24.186 1.595 23.68 1.595 23.086L 1.595 17.41L 0.715 17.41L 0.715 23.306ZM 3.89855 25L 4.77855 25L 4.77855 19.5L 3.89855 19.5L 3.89855 25ZM 3.84355 18.4L 4.83355 18.4L 4.83355 17.41L 3.84355 17.41L 3.84355 18.4ZM 6.37613 25L 7.25613 25L 7.25613 21.568C 7.25613 20.809 7.77313 20.226 8.48813 20.226C 9.13713 20.226 9.63213 20.578 9.63213 21.579L 9.63213 25L 10.5121 25L 10.5121 21.568C 10.5121 20.787 11.0401 20.226 11.7441 20.226C 12.3931 20.226 12.8881 20.578 12.8881 21.579L 12.8881 25L 13.7681 25L 13.7681 21.568C 13.7681 20.138 13.0531 19.412 11.8761 19.412C 11.2051 19.412 10.6001 19.698 10.2261 20.281C 9.91813 19.709 9.35713 19.412 8.62013 19.412C 7.91613 19.412 7.49813 19.665 7.25613 20.039L 7.25613 19.5L 6.37613 19.5L 6.37613 25ZM 15.3605 25L 16.2405 25L 16.2405 19.5L 15.3605 19.5L 15.3605 25ZM 15.3055 18.4L 16.2955 18.4L 16.2955 17.41L 15.3055 17.41L 15.3055 18.4ZM 17.354 20.292L 18.058 20.292L 18.058 23.306C 18.058 24.45 18.432 25 19.73 25L 20.203 25L 20.203 24.164L 19.763 24.164C 19.026 24.164 18.938 23.845 18.938 23.086L 18.938 20.292L 20.203 20.292L 20.203 19.5L 18.938 19.5L 18.938 18.29L 18.058 18.29L 18.058 19.5L 17.354 19.5L 17.354 20.292ZM 24.6298 23.68C 24.3988 24.087 24.0358 24.296 23.3208 24.296C 22.3638 24.296 21.9128 23.548 21.9128 22.602L 21.9128 22.448L 25.3888 22.448L 25.3888 21.876C 25.3888 20.303 24.6628 19.412 23.2108 19.412C 21.7698 19.412 21.0328 20.314 21.0328 21.876L 21.0328 22.602C 21.0328 24.131 21.9128 25.088 23.3868 25.088C 24.3438 25.088 24.9268 24.835 25.3118 24.164L 24.6298 23.68ZM 23.2108 20.204C 24.0468 20.204 24.4538 20.754 24.4978 21.678L 21.9128 21.678C 21.9678 20.765 22.3638 20.204 23.2108 20.204ZM 30.0999 20.05C 29.8029 19.643 29.3299 19.412 28.6039 19.412C 27.2399 19.412 26.4039 20.303 26.4039 21.876L 26.4039 22.602C 26.4039 24.032 27.1079 25.088 28.6039 25.088C 29.3299 25.088 29.8029 24.901 30.0999 24.516L 30.0999 25L 30.9799 25L 30.9799 17.41L 30.0999 17.41L 30.0999 20.05ZM 28.6919 24.296C 27.7569 24.296 27.2839 23.537 27.2839 22.602L 27.2839 21.876C 27.2839 20.831 27.7899 20.204 28.6919 20.204C 29.5939 20.204 30.0999 20.842 30.0999 21.876L 30.0999 22.679C 30.0999 23.592 29.6709 24.296 28.6919 24.296ZM 38.5862 20.05C 38.2892 19.643 37.8162 19.412 37.0902 19.412C 35.7262 19.412 34.8902 20.303 34.8902 21.876L 34.8902 22.602C 34.8902 24.032 35.5942 25.088 37.0902 25.088C 37.8162 25.088 38.2892 24.901 38.5862 24.516L 38.5862 25L 39.4662 25L 39.4662 17.41L 38.5862 17.41L 38.5862 20.05ZM 37.1782 24.296C 36.2432 24.296 35.7702 23.537 35.7702 22.602L 35.7702 21.876C 35.7702 20.831 36.2762 20.204 37.1782 20.204C 38.0802 20.204 38.5862 20.842 38.5862 21.876L 38.5862 22.679C 38.5862 23.592 38.1572 24.296 37.1782 24.296ZM 44.2235 23.68C 43.9925 24.087 43.6295 24.296 42.9145 24.296C 41.9575 24.296 41.5065 23.548 41.5065 22.602L 41.5065 22.448L 44.9825 22.448L 44.9825 21.876C 44.9825 20.303 44.2565 19.412 42.8045 19.412C 41.3635 19.412 40.6265 20.314 40.6265 21.876L 40.6265 22.602C 40.6265 24.131 41.5065 25.088 42.9805 25.088C 43.9375 25.088 44.5205 24.835 44.9055 24.164L 44.2235 23.68ZM 42.8045 20.204C 43.6405 20.204 44.0475 20.754 44.0915 21.678L 41.5065 21.678C 41.5615 20.765 41.9575 20.204 42.8045 20.204ZM 47.1526 20.05L 47.1526 19.5L 46.2726 19.5L 46.2726 27.09L 47.1526 27.09L 47.1526 24.45C 47.4496 24.857 47.9226 25.088 48.6486 25.088C 50.1446 25.088 50.8486 24.032 50.8486 22.602L 50.8486 21.876C 50.8486 20.303 50.0126 19.412 48.6486 19.412C 47.9226 19.412 47.4496 19.643 47.1526 20.05ZM 48.5606 24.296C 47.5486 24.296 47.1526 23.548 47.1526 22.602L 47.1526 21.799C 47.1526 20.809 47.6806 20.204 48.5606 20.204C 49.4626 20.204 49.9686 20.831 49.9686 21.876L 49.9686 22.602C 49.9686 23.537 49.4956 24.296 48.5606 24.296ZM 52.0089 23.306C 52.0089 24.45 52.4379 25 53.8239 25L 53.8239 24.186C 52.9219 24.186 52.8889 23.68 52.8889 23.086L 52.8889 17.41L 52.0089 17.41L 52.0089 23.306ZM 59.3285 21.876C 59.3285 20.303 58.4925 19.412 57.0405 19.412C 55.5995 19.412 54.7525 20.314 54.7525 21.876L 54.7525 22.602C 54.7525 24.12 55.5775 25.088 57.0405 25.088C 58.6245 25.088 59.3285 24.032 59.3285 22.602L 59.3285 21.876ZM 57.0405 24.296C 56.0285 24.296 55.6325 23.548 55.6325 22.602L 55.6325 21.876C 55.6325 20.842 56.1385 20.204 57.0405 20.204C 57.9425 20.204 58.4485 20.831 58.4485 21.876L 58.4485 22.602C 58.4485 23.537 57.9755 24.296 57.0405 24.296ZM 61.9585 25.132C 61.6285 26.111 61.2875 26.232 60.5615 26.232L 60.5615 27.09C 62.1015 27.09 62.3985 26.496 62.8495 25.176L 64.7855 19.5L 63.8505 19.5L 62.4095 23.768L 60.7705 19.5L 59.8245 19.5L 61.9805 25.055L 61.9585 25.132ZM 65.6086 25L 66.4886 25L 66.4886 21.568C 66.4886 20.809 67.0056 20.226 67.7206 20.226C 68.3696 20.226 68.8646 20.578 68.8646 21.579L 68.8646 25L 69.7446 25L 69.7446 21.568C 69.7446 20.787 70.2726 20.226 70.9766 20.226C 71.6256 20.226 72.1206 20.578 72.1206 21.579L 72.1206 25L 73.0006 25L 73.0006 21.568C 73.0006 20.138 72.2856 19.412 71.1086 19.412C 70.4376 19.412 69.8326 19.698 69.4586 20.281C 69.1506 19.709 68.5896 19.412 67.8526 19.412C 67.1486 19.412 66.7306 19.665 66.4886 20.039L 66.4886 19.5L 65.6086 19.5L 65.6086 25ZM 77.7499 23.68C 77.5189 24.087 77.1559 24.296 76.4409 24.296C 75.4839 24.296 75.0329 23.548 75.0329 22.602L 75.0329 22.448L 78.5089 22.448L 78.5089 21.876C 78.5089 20.303 77.7829 19.412 76.3309 19.412C 74.8899 19.412 74.1529 20.314 74.1529 21.876L 74.1529 22.602C 74.1529 24.131 75.0329 25.088 76.5069 25.088C 77.4639 25.088 78.0469 24.835 78.4319 24.164L 77.7499 23.68ZM 76.3309 20.204C 77.1669 20.204 77.5739 20.754 77.6179 21.678L 75.0329 21.678C 75.0879 20.765 75.4839 20.204 76.3309 20.204ZM 79.799 25L 80.679 25L 80.679 21.568C 80.679 20.809 81.196 20.226 82.021 20.226C 82.67 20.226 83.275 20.468 83.275 21.579L 83.275 25L 84.155 25L 84.155 21.568C 84.155 20.028 83.33 19.412 82.153 19.412C 81.339 19.412 80.954 19.621 80.679 20.039L 80.679 19.5L 79.799 19.5L 79.799 25ZM 85.105 20.292L 85.809 20.292L 85.809 23.306C 85.809 24.45 86.183 25 87.481 25L 87.954 25L 87.954 24.164L 87.514 24.164C 86.777 24.164 86.689 23.845 86.689 23.086L 86.689 20.292L 87.954 20.292L 87.954 19.5L 86.689 19.5L 86.689 18.29L 85.809 18.29L 85.809 19.5L 85.105 19.5L 85.105 20.292ZM 92.8097 20.325C 92.3808 19.643 91.6988 19.412 90.8078 19.412C 89.4987 19.412 88.8388 20.061 88.8388 20.974C 88.8388 22.173 89.7518 22.547 90.6757 22.613C 91.7427 22.69 92.0947 22.899 92.0947 23.493C 92.0947 23.988 91.6547 24.274 90.9177 24.274C 90.1258 24.274 89.7298 24.109 89.4327 23.713L 88.7837 24.175C 89.2018 24.747 89.7847 25.088 90.9067 25.088C 92.3257 25.088 92.9748 24.428 92.9748 23.471C 92.9748 22.206 92.0288 21.909 90.9947 21.832C 90.2687 21.777 89.7188 21.59 89.7188 20.963C 89.7188 20.479 90.1368 20.226 90.7858 20.226C 91.5448 20.226 91.8528 20.402 92.1497 20.787L 92.8097 20.325ZM 95.1838 23.724L 94.1278 23.724L 94.1278 26.562L 95.1838 25.649L 95.1838 23.724ZM 99.5268 17.41L 99.5268 25L 102.09 25C 104.037 25 104.708 23.922 104.708 22.822C 104.708 21.854 104.169 21.216 103.212 21.04C 103.949 20.864 104.466 20.138 104.466 19.346C 104.466 18.081 103.619 17.41 101.848 17.41L 99.5268 17.41ZM 100.473 21.491L 101.914 21.491C 103.168 21.491 103.762 21.909 103.762 22.822C 103.762 23.647 103.234 24.142 102.09 24.142L 100.473 24.142L 100.473 21.491ZM 100.473 18.257L 101.848 18.257C 103.179 18.257 103.52 18.675 103.52 19.346C 103.52 20.094 103.08 20.633 102.013 20.633L 100.473 20.633L 100.473 18.257ZM 107.026 17.41L 106.08 17.41L 106.08 25L 110.656 25L 110.656 24.142L 107.026 24.142L 107.026 17.41ZM 111.59 17.41L 111.59 25L 116.166 25L 116.166 24.142L 112.536 24.142L 112.536 21.502L 115.836 21.502L 115.836 20.644L 112.536 20.644L 112.536 18.268L 116.166 18.268L 116.166 17.41L 111.59 17.41ZM 0.44 37.394C 0.44 38.461 1.133 39.088 2.409 39.088C 3.124 39.088 3.498 38.967 3.806 38.461L 3.806 39L 4.686 39L 4.686 35.183C 4.686 33.863 3.993 33.412 2.596 33.412C 1.551 33.412 0.99 33.687 0.605 34.325L 1.265 34.787C 1.573 34.281 1.925 34.226 2.585 34.226C 3.443 34.226 3.806 34.402 3.806 35.183L 3.806 35.821L 2.497 35.821C 1.287 35.821 0.44 36.206 0.44 37.394ZM 3.806 36.888C 3.806 38.12 3.223 38.274 2.409 38.274C 1.76 38.274 1.32 38.032 1.32 37.416C 1.32 36.866 1.628 36.569 2.497 36.569L 3.806 36.569L 3.806 36.888ZM 6.11832 39L 6.99832 39L 6.99832 35.568C 6.99832 34.809 7.51532 34.226 8.34032 34.226C 8.98932 34.226 9.59432 34.468 9.59432 35.579L 9.59432 39L 10.4743 39L 10.4743 35.568C 10.4743 34.028 9.64932 33.412 8.47232 33.412C 7.65832 33.412 7.27332 33.621 6.99832 34.039L 6.99832 33.5L 6.11832 33.5L 6.11832 39ZM 15.3294 34.05C 15.0324 33.643 14.5594 33.412 13.8334 33.412C 12.4694 33.412 11.6334 34.303 11.6334 35.876L 11.6334 36.602C 11.6334 38.032 12.3374 39.088 13.8334 39.088C 14.5594 39.088 15.0324 38.901 15.3294 38.516L 15.3294 39L 16.2094 39L 16.2094 31.41L 15.3294 31.41L 15.3294 34.05ZM 13.9214 38.296C 12.9864 38.296 12.5134 37.537 12.5134 36.602L 12.5134 35.876C 12.5134 34.831 13.0194 34.204 13.9214 34.204C 14.8234 34.204 15.3294 34.842 15.3294 35.876L 15.3294 36.679C 15.3294 37.592 14.9004 38.296 13.9214 38.296ZM 21.5607 31.41L 20.6147 31.41L 20.6147 39L 25.1907 39L 25.1907 38.142L 21.5607 38.142L 21.5607 31.41ZM 31.0471 35.623L 31.0471 34.787C 31.0471 32.334 29.9801 31.322 28.2971 31.322C 26.6141 31.322 25.5471 32.334 25.5471 34.787L 25.5471 35.623C 25.5471 38.076 26.6141 39.088 28.2971 39.088C 29.9801 39.088 31.0471 38.076 31.0471 35.623ZM 26.4931 34.787C 26.4931 32.906 27.1311 32.18 28.2971 32.18C 29.4631 32.18 30.1011 32.906 30.1011 34.787L 30.1011 35.623C 30.1011 37.504 29.4631 38.23 28.2971 38.23C 27.1311 38.23 26.4931 37.504 26.4931 35.623L 26.4931 34.787ZM 37.9068 39L 36.2128 35.634C 37.1808 35.348 37.7088 34.677 37.7088 33.61C 37.7088 32.136 36.6968 31.41 34.9478 31.41L 32.5278 31.41L 32.5278 39L 33.4738 39L 33.4738 35.799L 35.2668 35.799L 36.8508 39L 37.9068 39ZM 33.4738 34.941L 33.4738 32.268L 34.9478 32.268C 36.2348 32.268 36.7628 32.664 36.7628 33.61C 36.7628 34.545 36.2348 34.941 34.9478 34.941L 33.4738 34.941ZM 39.3424 39L 39.9254 37.262L 42.9174 37.262L 43.5004 39L 44.5014 39L 41.8614 31.41L 40.9814 31.41L 38.3414 39L 39.3424 39ZM 41.4214 32.84L 42.6204 36.404L 40.2224 36.404L 41.4214 32.84ZM 48.2423 39L 49.1223 39L 49.1223 33.5L 48.2423 33.5L 48.2423 39ZM 48.1873 32.4L 49.1773 32.4L 49.1773 31.41L 48.1873 31.41L 48.1873 32.4ZM 50.7199 39L 51.5999 39L 51.5999 35.568C 51.5999 34.809 52.1169 34.226 52.9419 34.226C 53.5909 34.226 54.1959 34.468 54.1959 35.579L 54.1959 39L 55.0759 39L 55.0759 35.568C 55.0759 34.028 54.2509 33.412 53.0739 33.412C 52.2599 33.412 51.8749 33.621 51.5999 34.039L 51.5999 33.5L 50.7199 33.5L 50.7199 39ZM 56.0259 34.292L 56.7299 34.292L 56.7299 37.306C 56.7299 38.45 57.1039 39 58.4019 39L 58.8749 39L 58.8749 38.164L 58.4349 38.164C 57.6979 38.164 57.6099 37.845 57.6099 37.086L 57.6099 34.292L 58.8749 34.292L 58.8749 33.5L 57.6099 33.5L 57.6099 32.29L 56.7299 32.29L 56.7299 33.5L 56.0259 33.5L 56.0259 34.292ZM 63.3016 37.68C 63.0706 38.087 62.7076 38.296 61.9926 38.296C 61.0356 38.296 60.5846 37.548 60.5846 36.602L 60.5846 36.448L 64.0606 36.448L 64.0606 35.876C 64.0606 34.303 63.3346 33.412 61.8826 33.412C 60.4416 33.412 59.7046 34.314 59.7046 35.876L 59.7046 36.602C 59.7046 38.131 60.5846 39.088 62.0586 39.088C 63.0156 39.088 63.5986 38.835 63.9836 38.164L 63.3016 37.68ZM 61.8826 34.204C 62.7186 34.204 63.1256 34.754 63.1696 35.678L 60.5846 35.678C 60.6396 34.765 61.0356 34.204 61.8826 34.204ZM 68.7717 34.05C 68.4747 33.643 68.0017 33.412 67.2757 33.412C 65.9117 33.412 65.0757 34.303 65.0757 35.876L 65.0757 36.602C 65.0757 38.032 65.7797 39.088 67.2757 39.088C 68.0017 39.088 68.4747 38.901 68.7717 38.516L 68.7717 38.89C 68.7717 39.836 68.3207 40.364 67.3637 40.364C 66.6487 40.364 66.2857 40.155 66.0547 39.748L 65.3727 40.232C 65.7577 40.903 66.3407 41.156 67.2977 41.156C 68.7717 41.156 69.6517 40.419 69.6517 38.89L 69.6517 33.5L 68.7717 33.5L 68.7717 34.05ZM 67.3637 38.296C 66.4287 38.296 65.9557 37.537 65.9557 36.602L 65.9557 35.876C 65.9557 34.831 66.4617 34.204 67.3637 34.204C 68.2657 34.204 68.7717 34.842 68.7717 35.876L 68.7717 36.602C 68.7717 37.548 68.3757 38.296 67.3637 38.296ZM 74.8161 34.16C 74.4641 33.665 73.9911 33.412 73.2431 33.412C 72.5721 33.412 72.1981 33.654 71.9671 34.039L 71.9671 33.5L 71.0871 33.5L 71.0871 39L 71.9671 39L 71.9671 35.557C 71.9671 34.732 72.4731 34.226 73.1441 34.226C 73.5511 34.226 73.8371 34.369 74.0681 34.688L 74.8161 34.16ZM 75.0337 37.394C 75.0337 38.461 75.7268 39.088 77.0027 39.088C 77.7178 39.088 78.0917 38.967 78.3997 38.461L 78.3997 39L 79.2797 39L 79.2797 35.183C 79.2797 33.863 78.5868 33.412 77.1898 33.412C 76.1448 33.412 75.5838 33.687 75.1987 34.325L 75.8588 34.787C 76.1668 34.281 76.5187 34.226 77.1787 34.226C 78.0367 34.226 78.3997 34.402 78.3997 35.183L 78.3997 35.821L 77.0907 35.821C 75.8807 35.821 75.0337 36.206 75.0337 37.394ZM 78.3997 36.888C 78.3997 38.12 77.8168 38.274 77.0027 38.274C 76.3537 38.274 75.9137 38.032 75.9137 37.416C 75.9137 36.866 76.2218 36.569 77.0907 36.569L 78.3997 36.569L 78.3997 36.888ZM 80.2281 34.292L 80.9321 34.292L 80.9321 37.306C 80.9321 38.45 81.3061 39 82.6041 39L 83.0771 39L 83.0771 38.164L 82.6371 38.164C 81.9001 38.164 81.8121 37.845 81.8121 37.086L 81.8121 34.292L 83.0771 34.292L 83.0771 33.5L 81.8121 33.5L 81.8121 32.29L 80.9321 32.29L 80.9321 33.5L 80.2281 33.5L 80.2281 34.292ZM 84.3468 39L 85.2268 39L 85.2268 33.5L 84.3468 33.5L 84.3468 39ZM 84.2918 32.4L 85.2818 32.4L 85.2818 31.41L 84.2918 31.41L 84.2918 32.4ZM 91.1254 35.876C 91.1254 34.303 90.2894 33.412 88.8374 33.412C 87.3964 33.412 86.5494 34.314 86.5494 35.876L 86.5494 36.602C 86.5494 38.12 87.3744 39.088 88.8374 39.088C 90.4214 39.088 91.1254 38.032 91.1254 36.602L 91.1254 35.876ZM 88.8374 38.296C 87.8254 38.296 87.4294 37.548 87.4294 36.602L 87.4294 35.876C 87.4294 34.842 87.9354 34.204 88.8374 34.204C 89.7394 34.204 90.2454 34.831 90.2454 35.876L 90.2454 36.602C 90.2454 37.537 89.7724 38.296 88.8374 38.296ZM 92.2814 39L 93.1614 39L 93.1614 35.568C 93.1614 34.809 93.6784 34.226 94.5034 34.226C 95.1524 34.226 95.7574 34.468 95.7574 35.579L 95.7574 39L 96.6374 39L 96.6374 35.568C 96.6374 34.028 95.8124 33.412 94.6354 33.412C 93.8214 33.412 93.4364 33.621 93.1614 34.039L 93.1614 33.5L 92.2814 33.5L 92.2814 39Z"/>
</defs>
</svg>
