<svg width="580" height="370" viewBox="0 0 580 370" version="1.1" xmlns="http://www.w3.org/2000/svg" xmlns:xlink="http://www.w3.org/1999/xlink">
<title>User</title>
<desc>Created using Figma</desc>
<g id="Canvas" transform="translate(525 -2550)">
<g id="User">
<g id="Vector">
<use xlink:href="#path0_fill" transform="translate(-482.346 2592)" fill="#D0D3E6"/>
</g>
<g id="Vector">
<use xlink:href="#path1_fill" transform="translate(-476.714 2702.54)" fill="#FFFFFF"/>
<use xlink:href="#path2_stroke" transform="translate(-476.714 2702.54)" fill="#67679A"/>
</g>
<g id="Vector">
<use xlink:href="#path3_stroke" transform="translate(-490 2857.56)" fill="#67679A"/>
</g>
<g id="Vector">
<use xlink:href="#path4_fill" transform="translate(-470.852 2594.75)" fill="#FFFFFF"/>
<use xlink:href="#path5_stroke" transform="translate(-470.852 2594.75)" fill="#67679A"/>
</g>
<g id="Vector">
<use xlink:href="#path6_fill" transform="translate(-286.528 2827.94)" fill="#FFFFFF"/>
<use xlink:href="#path7_stroke" transform="translate(-286.528 2827.94)" fill="#67679A"/>
</g>
<g id="Vector">
<use xlink:href="#path8_fill" transform="translate(-360.609 2748.48)" fill="#FFFFFF"/>
<use xlink:href="#path9_stroke" transform="translate(-360.609 2748.48)" fill="#67679A"/>
</g>
<g id="Vector">
<use xlink:href="#path10_stroke" transform="translate(-453.753 2717.57)" fill="#D0D3E6"/>
</g>
<g id="Vector">
<use xlink:href="#path11_stroke" transform="translate(-466.172 2736.78)" fill="#D0D3E6"/>
</g>
<g id="Vector">
<use xlink:href="#path12_stroke" transform="translate(-459.674 2727.25)" fill="#D0D3E6"/>
</g>
<g id="Vector">
<use xlink:href="#path13_fill" transform="translate(-352.566 2674.15)" fill="#FFFFFF"/>
<use xlink:href="#path14_stroke" transform="translate(-352.566 2674.15)" fill="#67679A"/>
</g>
<g id="Vector">
<use xlink:href="#path15_fill" transform="translate(-320.897 2680.15)" fill="#FFFFFF"/>
<use xlink:href="#path16_stroke" transform="translate(-320.897 2680.15)" fill="#67679A"/>
</g>
<g id="Vector">
<use xlink:href="#path17_stroke" transform="translate(-279.982 2707.89)" fill="#67679A"/>
</g>
<g id="Vector">
<use xlink:href="#path18_fill" transform="translate(-325.807 2709.33)" fill="#67679A"/>
</g>
<g id="Vector">
<use xlink:href="#path19_stroke" transform="translate(-329.273 2705.07)" fill="#67679A"/>
</g>
<g id="Vector">
<use xlink:href="#path20_stroke" transform="translate(-330.757 2679.86)" fill="#67679A"/>
</g>
<g id="Vector">
<use xlink:href="#path21_fill" transform="translate(-447.544 2822.7)" fill="#D0D3E6"/>
</g>
<g id="Vector">
<use xlink:href="#path22_fill" transform="translate(-463.669 2632.48)" fill="#D0D3E6"/>
</g>
<g id="Vector">
<use xlink:href="#path23_fill" transform="translate(-397.001 2632.48)" fill="#D0D3E6"/>
</g>
<g id="Vector">
<use xlink:href="#path24_fill" transform="translate(-433.969 2688.39)" fill="#FFFFFF"/>
<use xlink:href="#path25_stroke" transform="translate(-433.969 2688.39)" fill="#67679A"/>
</g>
<g id="Vector">
<use xlink:href="#path26_fill" transform="translate(-458.663 2648.37)" fill="#FFFFFF"/>
<use xlink:href="#path27_stroke" transform="translate(-458.663 2648.37)" fill="#67679A"/>
</g>
<g id="Vector">
<use xlink:href="#path28_fill" transform="translate(-391.802 2648.37)" fill="#FFFFFF"/>
<use xlink:href="#path29_stroke" transform="translate(-391.802 2648.37)" fill="#67679A"/>
</g>
<g id="Vector">
<use xlink:href="#path30_fill" transform="translate(-328.695 2828.67)" fill="#D0D3E6"/>
</g>
<g id="Vector">
<use xlink:href="#path31_stroke" transform="translate(-323.352 2817.69)" fill="#67679A"/>
</g>
<g id="Group">
<g id="Group">
<g id="Group">
<g id="Vector">
<use xlink:href="#path32_stroke" transform="translate(-323.496 2759.61)" fill="#67679A"/>
</g>
</g>
<g id="Vector">
<use xlink:href="#path33_stroke" transform="translate(-337.215 2765.24)" fill="#67679A"/>
</g>
</g>
<g id="Vector">
<use xlink:href="#path34_fill" transform="translate(-330.139 2765.82)" fill="#D0D3E6"/>
</g>
</g>
<g id="Vector">
<use xlink:href="#path35_fill" transform="translate(-350.365 2742.13)" fill="#FFFFFF"/>
<use xlink:href="#path36_stroke" transform="translate(-350.365 2742.13)" fill="#C55862"/>
</g>
<g id="Data up to 15 km">
<use xlink:href="#path37_fill" transform="translate(-259.191 2725.2)" fill="#ED6C74"/>
<use xlink:href="#path38_fill" transform="translate(-259.191 2725.2)" fill="#ED6C74"/>
<use xlink:href="#path39_fill" transform="translate(-259.191 2725.2)" fill="#ED6C74"/>
<use xlink:href="#path40_fill" transform="translate(-259.191 2725.2)" fill="#ED6C74"/>
<use xlink:href="#path41_fill" transform="translate(-259.191 2725.2)" fill="#ED6C74"/>
<use xlink:href="#path42_fill" transform="translate(-259.191 2725.2)" fill="#ED6C74"/>
<use xlink:href="#path43_fill" transform="translate(-259.191 2725.2)" fill="#ED6C74"/>
<use xlink:href="#path44_fill" transform="translate(-259.191 2725.2)" fill="#ED6C74"/>
<use xlink:href="#path45_fill" transform="translate(-259.191 2725.2)" fill="#ED6C74"/>
<use xlink:href="#path46_fill" transform="translate(-259.191 2725.2)" fill="#ED6C74"/>
<use xlink:href="#path47_fill" transform="translate(-259.191 2725.2)" fill="#ED6C74"/>
<use xlink:href="#path48_fill" transform="translate(-259.191 2725.2)" fill="#ED6C74"/>
</g>
<g id="Vector">
<use xlink:href="#path49_fill" transform="translate(-432.67 2693.3)" fill="#D0D3E6"/>
</g>
<g id="Vector">
<use xlink:href="#path50_fill" transform="translate(-451.298 2612.97)" fill="#FFFFFF"/>
<use xlink:href="#path51_stroke" transform="translate(-451.298 2612.97)" fill="#67679A"/>
</g>
<g id="Group">
<g id="Vector">
<use xlink:href="#path52_stroke" transform="translate(-423.572 2662.38)" fill="#67679A"/>
</g>
<g id="Vector">
<use xlink:href="#path53_stroke" transform="translate(-428.337 2673.07)" fill="#67679A"/>
</g>
<g id="Vector">
<use xlink:href="#path54_stroke" transform="translate(-441.19 2648.25)" fill="#67679A"/>
</g>
<g id="Vector">
<use xlink:href="#path55_stroke" transform="translate(-415.196 2648.25)" fill="#67679A"/>
</g>
<g id="Vector">
<use xlink:href="#path56_stroke" transform="translate(-440.468 2640.85)" fill="#67679A"/>
</g>
<g id="Vector">
<use xlink:href="#path57_stroke" transform="translate(-410.575 2641.14)" fill="#67679A"/>
</g>
</g>
<g id="Vector">
<use xlink:href="#path58_fill" transform="translate(-449.999 2616.44)" fill="#D0D3E6"/>
</g>
<g id="Vector">
<use xlink:href="#path59_fill" transform="translate(-381.982 2832.28)" fill="#FFFFFF"/>
<use xlink:href="#path60_stroke" transform="translate(-381.982 2832.28)" fill="#67679A"/>
</g>
<g id="Vector">
<use xlink:href="#path61_stroke" transform="translate(-350.934 2838.06)" fill="#67679A"/>
</g>
<g id="Vector">
<use xlink:href="#path62_stroke" transform="translate(-455.053 2826.95)" fill="#67679A"/>
</g>
<g id="Group">
<g id="Group">
<g id="Group">
<g id="Group">
<g id="Vector">
<use xlink:href="#path63_fill" transform="translate(-93 2697.16)" fill="#D0D3E6"/>
</g>
<g id="Vector">
<use xlink:href="#path64_fill" transform="translate(-88.8126 2693)" fill="#FFFFFF"/>
</g>
<g id="Vector">
<use xlink:href="#path65_stroke" transform="translate(-88.8126 2693)" fill="#67679A"/>
</g>
</g>
<g id="Vector">
<use xlink:href="#path66_fill" transform="translate(-81.2754 2699.25)" fill="#FFFFFF"/>
<use xlink:href="#path67_stroke" transform="translate(-81.2754 2699.25)" fill="#67679A"/>
</g>
<g id="Vector 2">
<use xlink:href="#path68_stroke" transform="matrix(1 -2.44929e-16 2.44929e-16 1 -41 2708)" fill="#D0D3E6"/>
</g>
<g id="Vector 2.1">
<use xlink:href="#path68_stroke" transform="matrix(1 -2.44929e-16 2.44929e-16 1 -41 2715)" fill="#D0D3E6"/>
</g>
<g id="Vector 2">
<use xlink:href="#path69_stroke" transform="translate(-48 2703)" fill="#D0D3E6"/>
</g>
<g id="Vector 2">
<use xlink:href="#path70_stroke" transform="translate(-61.5 2729)" fill="#D0D3E6"/>
</g>
<g id="Vector 2">
<use xlink:href="#path71_stroke" transform="translate(-77 2736)" fill="#D0D3E6"/>
</g>
<g id="Vector 2">
<use xlink:href="#path72_stroke" transform="translate(-34 2703)" fill="#D0D3E6"/>
</g>
<g id="Vector 2">
<use xlink:href="#path73_stroke" transform="translate(-57 2703)" fill="#D0D3E6"/>
</g>
<g id="Ellipse">
<use xlink:href="#path74_fill" transform="translate(-73 2705)" fill="#FFFFFF"/>
<use xlink:href="#path75_stroke" transform="translate(-73 2705)" fill="#D0D3E6"/>
</g>
<g id="Vector">
<use xlink:href="#path76_fill" transform="translate(-81.2754 2746.17)" fill="#FFFFFF"/>
<use xlink:href="#path77_stroke" transform="translate(-81.2754 2746.17)" fill="#67679A"/>
</g>
<g id="Vector">
<use xlink:href="#path78_fill" transform="translate(-46.1015 2746.17)" fill="#FFFFFF"/>
<use xlink:href="#path79_stroke" transform="translate(-46.1015 2746.17)" fill="#67679A"/>
</g>
<g id="Vector">
<use xlink:href="#path80_fill" transform="translate(-46.1015 2768.38)" fill="#FFFFFF"/>
<use xlink:href="#path81_stroke" transform="translate(-46.1015 2768.38)" fill="#67679A"/>
</g>
<g id="Vector">
<use xlink:href="#path82_fill" transform="translate(-68 2710)" fill="#FFFFFF"/>
<use xlink:href="#path83_stroke" transform="translate(-68 2710)" fill="#D0D3E6"/>
</g>
<g id="Vector">
<use xlink:href="#path84_fill" transform="translate(-76.9484 2751.16)" fill="#D0D3E6"/>
</g>
<g id="Vector">
<use xlink:href="#path85_fill" transform="translate(-71.2257 2751.16)" fill="#D0D3E6"/>
</g>
<g id="Vector">
<use xlink:href="#path86_fill" transform="translate(-65.503 2751.16)" fill="#D0D3E6"/>
</g>
<g id="Vector">
<use xlink:href="#path87_fill" transform="translate(-59.7803 2751.16)" fill="#D0D3E6"/>
</g>
<g id="Vector">
<use xlink:href="#path88_fill" transform="translate(-76.9484 2771.43)" fill="#BABFD7"/>
</g>
<g id="Vector">
<use xlink:href="#path89_fill" transform="translate(-71.2257 2757.13)" fill="#BABFD7"/>
</g>
<g id="Vector">
<use xlink:href="#path90_fill" transform="translate(-65.503 2761.85)" fill="#BABFD7"/>
</g>
<g id="Vector">
<use xlink:href="#path91_fill" transform="translate(-59.7803 2753.52)" fill="#BABFD7"/>
</g>
<g id="Vector">
<use xlink:href="#path92_stroke" transform="translate(-42.1933 2772.68)" fill="#D0D3E6"/>
</g>
<g id="Vector">
<use xlink:href="#path93_stroke" transform="translate(-42.1933 2775.59)" fill="#D0D3E6"/>
</g>
<g id="Vector">
<use xlink:href="#path94_stroke" transform="translate(-42.1933 2778.65)" fill="#D0D3E6"/>
</g>
<g id="Vector">
<use xlink:href="#path95_stroke" transform="translate(-42.1933 2781.56)" fill="#D0D3E6"/>
</g>
</g>
</g>
</g>
<g id="Group">
<g id="Vector">
<use xlink:href="#path96_stroke" transform="translate(-150.927 2750.07)" fill="#C55862"/>
</g>
<g id="Vector">
<use xlink:href="#path97_stroke" transform="translate(-123.345 2750.07)" fill="#C55862"/>
</g>
<g id="Vector">
<use xlink:href="#path98_stroke" transform="translate(-178.654 2750.07)" fill="#CC6471"/>
</g>
<g id="Vector">
<use xlink:href="#path99_stroke" transform="translate(-206.236 2750.07)" fill="#E26874"/>
</g>
<g id="Vector">
<use xlink:href="#path96_stroke" transform="translate(-233.963 2750.07)" fill="#ED6C74"/>
</g>
<g id="Vector">
<use xlink:href="#path98_stroke" transform="translate(-261.689 2750.07)" fill="#ED6C74"/>
</g>
</g>
<g id="Vector 12">
<use xlink:href="#path100_stroke" transform="translate(-42 2750)" fill="#D0D3E6"/>
</g>
</g>
</g>
<defs>
<path id="path0_fill" d="M 224.989 233.054C 224.412 232.765 223.834 233.054 223.401 233.487C 223.256 233.631 214.159 244.033 204.339 252.846C 196.685 194.625 186.865 170.209 180.945 160.385L 181.089 160.241C 181.378 159.952 181.522 159.663 181.522 159.229C 181.522 157.929 180.945 152.873 180.656 150.272C 205.205 147.961 207.949 117.333 207.949 117.044C 207.949 116.466 207.66 115.744 206.938 115.599L 171.702 102.453C 172.424 98.2631 173.724 89.017 171.702 86.2721C 171.125 85.5497 170.403 85.2608 169.969 85.2608C 166.359 84.8274 159.861 92.9177 156.684 97.1073L 155.095 96.5294C 154.951 94.9403 154.807 91.1841 155.24 83.0937C 155.24 81.7935 154.662 80.6378 153.651 79.9154C 152.64 79.1931 151.341 79.0486 150.041 79.6265C 145.709 81.649 133.001 96.385 126.936 121.089C 121.881 141.749 124.914 147.816 126.936 149.694C 126.358 152.873 126.358 156.773 126.358 158.94L 126.358 159.807C 126.358 160.096 126.502 160.53 126.647 160.819C 127.08 161.252 127.658 161.83 128.38 162.263C 125.347 169.776 122.17 183.789 119.426 210.516C 118.415 221.207 117.549 232.042 117.116 240.999C 116.971 240.999 116.971 240.999 116.827 240.999C 115.527 240.71 114.228 240.566 112.928 240.277L 112.928 164.43C 112.928 137.992 94.7324 115.744 70.1828 109.532C 70.1828 109.098 70.3272 108.52 70.3272 108.087L 70.3272 98.841C 72.7822 97.5407 75.0927 96.096 77.1145 94.2179C 85.4902 92.1954 94.0103 88.7281 102.386 83.2382C 102.675 82.9493 102.964 82.6603 102.964 82.2269C 103.397 79.9154 112.061 27.0394 88.0895 7.24701C 77.5477 -1.56566 62.0959 -2.28801 42.6007 4.79102C 40.579 4.06867 32.9253 2.33503 25.1272 7.82489C 11.5527 17.2154 5.05432 42.2087 5.77636 82.0825C 5.77636 82.5159 6.06518 83.0937 6.49841 83.2382C 6.78723 83.3827 18.4844 90.3172 35.669 94.0735C 37.6908 95.9516 40.0013 97.5407 42.6007 98.6965L 42.6007 107.943C 42.6007 108.376 42.6007 108.954 42.7451 109.387C 18.1955 115.599 2.75438e-07 137.848 2.75438e-07 164.286L 2.75438e-07 264.115C 2.75438e-07 264.981 0.577637 265.559 1.44409 265.559L 111.628 265.559C 112.495 265.559 113.072 264.981 113.072 264.115L 113.072 261.659C 114.083 261.659 115.094 261.659 116.105 261.514C 116.105 263.103 115.96 263.97 115.96 263.97C 115.96 264.404 116.105 264.692 116.394 264.981C 116.683 265.27 116.971 265.415 117.405 265.415L 191.486 265.415L 204.194 265.415L 216.758 265.415C 217.336 265.415 217.769 265.126 218.058 264.692C 218.347 264.115 225.423 250.245 225.856 234.354C 226 233.776 225.567 233.198 224.989 233.054Z"/>
<path id="path1_fill" d="M 110.184 155.016L -2.75438e-07 155.016L -2.75438e-07 55.1875C -2.75438e-07 24.7044 24.694 -2.20444e-06 55.1643 -2.20444e-06C 85.6346 -2.20444e-06 110.329 24.7044 110.329 55.1875L 110.329 155.016L 110.184 155.016Z"/>
<path id="path2_stroke" d="M -2.75438e-07 155.016L -1.4444 155.016C -1.4444 155.814 -0.797718 156.461 -2.75438e-07 156.461L -2.75438e-07 155.016ZM 110.329 155.016L 110.329 156.461C 111.126 156.461 111.773 155.814 111.773 155.016L 110.329 155.016ZM 110.184 153.572L -2.75438e-07 153.572L -2.75438e-07 156.461L 110.184 156.461L 110.184 153.572ZM 1.44439 155.016L 1.44439 55.1875L -1.4444 55.1875L -1.4444 155.016L 1.44439 155.016ZM 1.44439 55.1875C 1.44439 25.5015 25.4922 1.44439 55.1643 1.44439L 55.1643 -1.4444C 23.8957 -1.4444 -1.4444 23.9072 -1.4444 55.1875L 1.44439 55.1875ZM 55.1643 1.44439C 84.8363 1.44439 108.884 25.5015 108.884 55.1875L 111.773 55.1875C 111.773 23.9072 86.4329 -1.4444 55.1643 -1.4444L 55.1643 1.44439ZM 108.884 55.1875L 108.884 155.016L 111.773 155.016L 111.773 55.1875L 108.884 55.1875ZM 110.329 153.572L 110.184 153.572L 110.184 156.461L 110.329 156.461L 110.329 153.572Z"/>
<path id="path3_stroke" d="M 0 -1.4444C -0.797717 -1.4444 -1.4444 -0.797724 -1.4444 -6.10352e-06C -1.4444 0.797711 -0.797717 1.44439 0 1.44439L 0 -1.4444ZM 238.997 1.44439C 239.795 1.44439 240.441 0.797711 240.441 -6.10352e-06C 240.441 -0.797724 239.795 -1.4444 238.997 -1.4444L 238.997 1.44439ZM 0 1.44439L 238.997 1.44439L 238.997 -1.4444L 0 -1.4444L 0 1.44439Z"/>
<path id="path4_fill" d="M 0.0588504 80.6279C 0.0588504 80.6279 48.8691 110.244 94.5024 80.6279C 94.5024 80.6279 112.265 -23.5349 35.4391 4.92566C 35.4391 5.07013 -1.67406 -9.81028 0.0588504 80.6279Z"/>
<path id="path5_stroke" d="M 0.0588504 80.6279L -1.38528 80.6556C -1.3758 81.1505 -1.11358 81.606 -0.690418 81.8628L 0.0588504 80.6279ZM 94.5024 80.6279L 95.2887 81.8395C 95.6272 81.6198 95.8584 81.2685 95.9262 80.8707L 94.5024 80.6279ZM 35.4391 4.92566L 34.9373 3.57121C 34.3707 3.7811 33.9947 4.32146 33.9947 4.92566L 35.4391 4.92566ZM 0.0588504 80.6279C -0.690418 81.8628 -0.689713 81.8632 -0.688823 81.8637C -0.688278 81.8641 -0.6872 81.8647 -0.686109 81.8654C -0.683928 81.8667 -0.681003 81.8685 -0.677336 81.8707C -0.670003 81.8751 -0.659705 81.8813 -0.646467 81.8892C -0.619992 81.905 -0.581756 81.9277 -0.531959 81.957C -0.432366 82.0156 -0.286513 82.1004 -0.0959901 82.2088C 0.285037 82.4255 0.84485 82.7365 1.57073 83.1199C 3.0223 83.8865 5.13918 84.9434 7.81957 86.116C 13.1778 88.4601 20.8022 91.2727 29.8757 93.1485C 48.0229 96.9003 72.0557 96.9179 95.2887 81.8395L 93.7161 79.4163C 71.3158 93.9543 48.1269 93.9719 30.4606 90.3196C 21.6273 88.4934 14.1971 85.7529 8.97738 83.4694C 6.36878 82.3282 4.31585 81.3027 2.91985 80.5654C 2.22195 80.1968 1.68855 79.9004 1.3323 79.6978C 1.15418 79.5965 1.02038 79.5186 0.932484 79.4669C 0.888536 79.4411 0.856065 79.4218 0.835271 79.4094C 0.824873 79.4031 0.817396 79.3987 0.812862 79.3959C 0.810595 79.3946 0.809064 79.3936 0.808273 79.3932C 0.807877 79.3929 0.807839 79.3929 0.80764 79.3928C 0.807787 79.3929 0.808119 79.3931 0.0588504 80.6279ZM 94.5024 80.6279C 95.9262 80.8707 95.9264 80.8699 95.9266 80.8686C 95.9268 80.8676 95.927 80.866 95.9274 80.8641C 95.928 80.8603 95.9289 80.8549 95.9301 80.848C 95.9324 80.8341 95.9358 80.814 95.9401 80.7877C 95.9488 80.7352 95.9613 80.658 95.9774 80.5572C 96.0095 80.3557 96.0556 80.0593 96.1121 79.6755C 96.2251 78.908 96.3802 77.7902 96.5496 76.3801C 96.8885 73.5607 97.2856 69.5689 97.52 64.8691C 97.9878 55.4869 97.8117 43.2066 95.1881 31.7808C 92.5708 20.3823 87.4582 9.58546 77.849 3.52559C 68.1881 -2.56691 54.3777 -3.63061 34.9373 3.57121L 35.9408 6.2801C 54.9133 -0.748365 67.6922 0.535565 76.3081 5.96907C 84.9757 11.4352 89.8273 21.3427 92.3726 32.4273C 94.9116 43.4847 95.0965 55.4663 94.6347 64.7252C 94.4043 69.346 94.0139 73.2696 93.6815 76.0354C 93.5153 77.4179 93.3638 78.5102 93.2541 79.2546C 93.1993 79.6268 93.155 79.9119 93.1246 80.1027C 93.1094 80.1981 93.0977 80.27 93.0899 80.3173C 93.0859 80.341 93.083 80.3586 93.0811 80.3699C 93.0802 80.3756 93.0795 80.3797 93.079 80.3822C 93.0788 80.3835 93.0787 80.3842 93.0786 80.3849C 93.0785 80.3852 93.0785 80.3851 94.5024 80.6279ZM 33.9947 4.92566C 34.0513 4.52543 34.4301 3.89243 34.6991 3.68561C 34.8785 3.59501 35.1805 3.50534 35.2934 3.48946C 35.4757 3.47121 35.6186 3.49388 35.6385 3.49674C 35.6863 3.50364 35.7226 3.51148 35.7375 3.5148C 35.7554 3.51878 35.7686 3.52213 35.7744 3.52365C 35.7887 3.52734 35.7891 3.52786 35.7497 3.51596C 35.6893 3.49777 35.5709 3.46127 35.4263 3.41918C 35.1298 3.33293 34.6974 3.2153 34.15 3.09817C 33.0572 2.86433 31.5056 2.63229 29.6512 2.65291C 25.9256 2.69432 21.0005 3.75799 16.1707 7.81011C 6.57026 15.8649 -2.25311 35.3648 -1.38528 80.6556L 1.50298 80.6002C 0.6379 35.4529 9.50464 17.1738 18.0275 10.0232C 22.2594 6.47256 26.5042 5.57686 29.6833 5.54152C 31.2811 5.52376 32.6155 5.724 33.5455 5.92301C 34.0095 6.0223 34.3728 6.12124 34.6192 6.19293C 34.7459 6.22981 34.8357 6.25762 34.9157 6.28175C 34.9464 6.29101 35 6.30719 35.0499 6.32011C 35.0649 6.32399 35.1372 6.34313 35.2262 6.35596C 35.2505 6.35946 35.3968 6.38235 35.5813 6.36387C 35.6954 6.34788 35.9982 6.25799 36.1782 6.16705C 36.4477 5.9599 36.8268 5.32644 36.8835 4.92566L 33.9947 4.92566Z"/>
<path id="path6_fill" d="M 25.2716 29.6163C 25.2716 29.6163 32.492 15.6027 32.9253 -8.81775e-06C 32.9253 -8.81775e-06 12.9968 22.8262 -8.81403e-06 29.6163L 25.2716 29.6163Z"/>
<path id="path7_stroke" d="M 25.2716 29.6163L 25.2716 31.0607C 25.8124 31.0607 26.3079 30.7586 26.5556 30.2779L 25.2716 29.6163ZM 32.9253 -8.81775e-06L 34.3691 0.0400809C 34.386 -0.569068 34.0188 -1.1233 33.4513 -1.34522C 32.8837 -1.56714 32.238 -1.409 31.8372 -0.949947L 32.9253 -8.81775e-06ZM -8.81403e-06 29.6163L -0.668844 28.3361C -1.25832 28.6441 -1.56131 29.3148 -1.40276 29.9607C -1.2442 30.6066 -0.665089 31.0607 -8.81403e-06 31.0607L -8.81403e-06 29.6163ZM 25.2716 29.6163C 26.5556 30.2779 26.5557 30.2776 26.5559 30.2772C 26.556 30.277 26.5562 30.2766 26.5564 30.2762C 26.5569 30.2754 26.5574 30.2744 26.558 30.2732C 26.5592 30.2708 26.5609 30.2675 26.563 30.2633C 26.5672 30.2551 26.5732 30.2434 26.5808 30.2285C 26.596 30.1985 26.6178 30.1551 26.6458 30.0988C 26.7019 29.9862 26.7828 29.8216 26.8852 29.608C 27.0899 29.181 27.3804 28.558 27.7291 27.7635C 28.4264 26.1749 29.3581 23.8971 30.3031 21.1253C 32.1891 15.5931 34.147 8.0378 34.3691 0.0400809L 31.4814 -0.0400986C 31.2703 7.56494 29.4014 14.8178 27.5688 20.1931C 26.6545 22.875 25.754 25.0758 25.084 26.6024C 24.749 27.3654 24.4721 27.9591 24.2802 28.3594C 24.1843 28.5595 24.1096 28.7112 24.0597 28.8115C 24.0348 28.8616 24.016 28.8988 24.0038 28.9229C 23.9978 28.9349 23.9933 28.9436 23.9906 28.9489C 23.9892 28.9516 23.9883 28.9534 23.9878 28.9544C 23.9876 28.9549 23.9874 28.9551 23.9874 28.9552C 23.9874 28.9552 23.9874 28.9551 23.9874 28.9551C 23.9875 28.955 23.9876 28.9548 25.2716 29.6163ZM 32.9253 -8.81775e-06C 31.8372 -0.949947 31.8372 -0.949954 31.8371 -0.949873C 31.837 -0.949731 31.8369 -0.949564 31.8366 -0.949279C 31.8361 -0.94871 31.8353 -0.947796 31.8342 -0.946537C 31.832 -0.944021 31.8286 -0.940132 31.824 -0.934888C 31.8148 -0.924401 31.8009 -0.908494 31.7823 -0.887318C 31.7451 -0.844964 31.6893 -0.781531 31.6157 -0.698203C 31.4685 -0.531545 31.2501 -0.285328 30.9671 0.0309698C 30.4011 0.663606 29.5768 1.57637 28.5466 2.69347C 26.4855 4.92837 23.6035 7.97773 20.3191 11.2366C 13.7047 17.7995 5.61264 25.0544 -0.668844 28.3361L 0.668827 30.8965C 7.38416 27.3882 15.7547 19.8349 22.3538 13.2872C 25.6761 9.9907 28.5885 6.90912 30.6702 4.6519C 31.7113 3.52295 32.5454 2.59937 33.12 1.95717C 33.4073 1.63605 33.6298 1.38523 33.7809 1.2142C 33.8564 1.12869 33.9141 1.06311 33.9531 1.01868C 33.9726 0.996456 33.9874 0.979518 33.9975 0.968011C 34.0026 0.962258 34.0064 0.957862 34.009 0.954842C 34.0104 0.953332 34.0114 0.952166 34.0121 0.951347C 34.0125 0.950937 34.0128 0.950583 34.0129 0.950378C 34.0132 0.95011 34.0133 0.94993 32.9253 -8.81775e-06ZM -8.81403e-06 31.0607L 25.2716 31.0607L 25.2716 28.1719L -8.81403e-06 28.1719L -8.81403e-06 31.0607Z"/>
<path id="path8_fill" d="M -2.20351e-06 109.075C -2.20351e-06 109.075 2.88818 2.60046 18.4844 2.20444e-06L 57.6192 2.20444e-06C 57.6192 2.20444e-06 75.2371 10.1129 86.9343 109.075L -2.20351e-06 109.075Z"/>
<path id="path9_stroke" d="M -2.20351e-06 109.075L -1.44387 109.036C -1.45444 109.425 -1.30701 109.803 -1.0351 110.082C -0.763183 110.362 -0.389871 110.519 -2.20351e-06 110.519L -2.20351e-06 109.075ZM 18.4844 2.20444e-06L 18.4844 -1.44439C 18.4048 -1.44439 18.3253 -1.43781 18.2468 -1.42472L 18.4844 2.20444e-06ZM 57.6192 2.20444e-06L 58.3383 -1.25269C 58.1195 -1.3783 57.8715 -1.44439 57.6192 -1.44439L 57.6192 2.20444e-06ZM 86.9343 109.075L 86.9343 110.519C 87.3469 110.519 87.7398 110.343 88.0139 110.034C 88.288 109.726 88.4171 109.315 88.3687 108.905L 86.9343 109.075ZM -2.20351e-06 109.075C 1.44386 109.114 1.44387 109.114 1.44389 109.113C 1.44391 109.112 1.44394 109.111 1.44398 109.11C 1.44407 109.106 1.4442 109.102 1.44437 109.095C 1.44472 109.083 1.44525 109.064 1.44597 109.038C 1.4474 108.988 1.44957 108.912 1.45253 108.812C 1.45843 108.611 1.46746 108.314 1.4799 107.925C 1.50478 107.147 1.54333 106.004 1.59794 104.549C 1.70717 101.638 1.88062 97.4753 2.13746 92.4716C 2.65125 82.4621 3.49823 69.0961 4.83096 55.6551C 6.16498 42.2011 7.98069 28.7256 10.4217 18.4746C 11.6443 13.3402 13.0063 9.09155 14.5056 6.07657C 15.2551 4.56938 16.0102 3.42991 16.753 2.64912C 17.4945 1.86984 18.1533 1.51953 18.7219 1.42473L 18.2468 -1.42472C 16.8659 -1.19447 15.6745 -0.408201 14.6602 0.657891C 13.6473 1.72248 12.7411 3.13719 11.919 4.79028C 10.2752 8.09586 8.85281 12.5922 7.61143 17.8054C 5.12443 28.2498 3.29381 41.8804 1.95627 55.3701C 0.61743 68.8727 -0.232399 82.2878 -0.747529 92.3235C -1.00515 97.3424 -1.17917 101.518 -1.28882 104.44C -1.34364 105.902 -1.38238 107.049 -1.40742 107.832C -1.41994 108.224 -1.42903 108.524 -1.43501 108.727C -1.438 108.828 -1.4402 108.905 -1.44167 108.957C -1.4424 108.983 -1.44295 109.002 -1.44331 109.015C -1.44349 109.022 -1.44363 109.027 -1.44372 109.03C -1.44377 109.032 -1.4438 109.033 -1.44383 109.034C -1.44385 109.035 -1.44387 109.036 -2.20351e-06 109.075ZM 18.4844 1.4444L 57.6192 1.4444L 57.6192 -1.44439L 18.4844 -1.44439L 18.4844 1.4444ZM 57.6192 2.20444e-06C 56.9002 1.25269 56.8978 1.25135 56.8956 1.25004C 56.8949 1.24965 56.8927 1.24838 56.8914 1.2476C 56.8887 1.24605 56.8864 1.24466 56.8843 1.24341C 56.8801 1.24093 56.877 1.23906 56.8751 1.23786C 56.8712 1.23545 56.8717 1.23569 56.8765 1.23889C 56.8863 1.24527 56.9134 1.26353 56.9572 1.29616C 57.0448 1.3614 57.1993 1.48429 57.4148 1.68495C 57.846 2.08643 58.521 2.79887 59.3912 3.98217C 61.1338 6.35159 63.6462 10.5909 66.5464 17.9559C 72.3497 32.6935 79.6588 59.8265 85.4999 109.244L 88.3687 108.905C 82.5127 59.3612 75.1642 31.9568 69.2343 16.8975C 66.2678 9.36402 63.6447 4.88998 61.7184 2.27067C 60.7542 0.95961 59.9613 0.108836 59.3834 -0.429296C 59.0943 -0.698449 58.8589 -0.889468 58.6827 -1.02068C 58.5946 -1.08629 58.5214 -1.1369 58.4637 -1.17482C 58.4349 -1.19378 58.41 -1.20956 58.389 -1.22244C 58.3785 -1.22888 58.3691 -1.2346 58.3606 -1.23963C 58.3564 -1.24215 58.3524 -1.24449 58.3487 -1.24666C 58.3468 -1.24775 58.3442 -1.24926 58.3433 -1.2498C 58.3408 -1.25127 58.3383 -1.25269 57.6192 2.20444e-06ZM 86.9343 107.63L -2.20351e-06 107.63L -2.20351e-06 110.519L 86.9343 110.519L 86.9343 107.63Z"/>
<path id="path10_stroke" d="M 64.47 0.836085C 64.8519 0.721248 65.0685 0.318506 64.9537 -0.0634633C 64.8388 -0.445433 64.4361 -0.661986 64.0541 -0.547149L 64.47 0.836085ZM 0.248713 -0.67802C -0.125748 -0.81538 -0.54066 -0.623173 -0.67802 -0.248712C -0.81538 0.125748 -0.623172 0.54066 -0.248712 0.67802L 0.248713 -0.67802ZM 64.0541 -0.547149C 36.3468 7.78291 13.1131 4.04092 0.248713 -0.67802L -0.248712 0.67802C 12.8805 5.4941 36.4354 9.26454 64.47 0.836085L 64.0541 -0.547149Z"/>
<path id="path11_stroke" d="M 87.7656 1.39853C 88.139 1.25843 88.3282 0.842124 88.1881 0.46868C 88.048 0.0952363 87.6317 -0.0939258 87.2582 0.0461746L 87.7656 1.39853ZM 0.271432 -0.669245C -0.0981845 -0.819152 -0.519342 -0.641043 -0.669249 -0.271427C -0.819157 0.0981889 -0.641048 0.519346 -0.271432 0.669253L 0.271432 -0.669245ZM 87.2582 0.0461746C 75.7964 4.34618 60.8651 7.07918 44.7668 7.07918L 44.7668 8.52357C 61.0162 8.52357 76.122 5.76673 87.7656 1.39853L 87.2582 0.0461746ZM 44.7668 7.07918C 28.0951 7.07918 10.8599 3.6252 0.271432 -0.669245L -0.271432 0.669253C 10.5126 5.043 27.9356 8.52357 44.7668 8.52357L 44.7668 7.07918Z"/>
<path id="path12_stroke" d="M 0.242401 -0.680306C -0.133319 -0.814181 -0.546427 -0.618126 -0.680302 -0.242406C -0.814177 0.133315 -0.618122 0.546423 -0.242401 0.680298L 0.242401 -0.680306ZM 76.3287 0.975168C 76.7077 0.850856 76.9141 0.442847 76.7898 0.0638554C 76.6655 -0.315136 76.2575 -0.521595 75.8785 -0.397283L 76.3287 0.975168ZM -0.242401 0.680298C 10.3909 4.46909 23.7607 6.64547 38.2684 6.64547L 38.2684 5.20108C 23.8943 5.20108 10.6928 3.04334 0.242401 -0.680306L -0.242401 0.680298ZM 38.2684 6.64547C 51.772 6.64547 67.4444 3.88928 76.3287 0.975168L 75.8785 -0.397283C 67.1449 2.46741 51.6249 5.20108 38.2684 5.20108L 38.2684 6.64547Z"/>
<path id="path13_fill" d="M 2.93145 68.2653C 2.93145 68.2653 -3.56696 66.0983 2.78704 40.6716C 8.99663 15.6783 21.849 1.80916 25.1704 0.219987C 26.6145 -0.502363 28.3474 0.653399 28.203 2.24257C 28.0586 6.14326 27.6254 14.378 28.203 16.834L 81.0568 36.0485C 81.0568 36.0485 78.6018 67.1096 53.619 68.1209C 53.619 67.9764 31.8133 87.7688 2.93145 68.2653Z"/>
<path id="path14_stroke" d="M 2.93145 68.2653L 3.73978 67.0683C 3.63105 66.9949 3.51283 66.9366 3.38838 66.8951L 2.93145 68.2653ZM 2.78704 40.6716L 4.18834 41.0218L 4.18882 41.0198L 2.78704 40.6716ZM 25.1704 0.219987L 25.7939 1.52292C 25.8015 1.51928 25.8091 1.51556 25.8166 1.51178L 25.1704 0.219987ZM 28.203 2.24257L 26.7646 2.11185C 26.7622 2.13756 26.7606 2.16333 26.7596 2.18913L 28.203 2.24257ZM 28.203 16.834L 26.797 17.1647C 26.9085 17.639 27.2517 18.025 27.7095 18.1915L 28.203 16.834ZM 81.0568 36.0485L 82.4967 36.1623C 82.5479 35.5149 82.1606 34.913 81.5503 34.6911L 81.0568 36.0485ZM 53.619 68.1209L 52.1747 68.1209C 52.1747 68.5141 52.335 68.8903 52.6186 69.1627C 52.9022 69.435 53.2846 69.58 53.6775 69.5641L 53.619 68.1209ZM 2.93145 68.2653C 3.38838 66.8951 3.39091 66.896 3.39341 66.8968C 3.39421 66.8971 3.3967 66.8979 3.39831 66.8985C 3.40153 66.8996 3.40466 66.9007 3.4077 66.9017C 3.41377 66.9038 3.41949 66.9059 3.42485 66.9079C 3.43557 66.9118 3.44488 66.9154 3.45282 66.9186C 3.46872 66.925 3.47914 66.9298 3.48455 66.9324C 3.4955 66.9376 3.48583 66.9339 3.4594 66.9165C 3.40793 66.8826 3.28213 66.7897 3.11629 66.5945C 2.78674 66.2064 2.26092 65.3676 1.8862 63.6888C 1.12814 60.2926 1.0319 53.6528 4.18834 41.0218L 1.38573 40.3214C -1.81182 53.117 -1.83586 60.2741 -0.933213 64.3181C -0.477582 66.3594 0.224069 67.6516 0.91441 68.4644C 1.25852 68.8696 1.59076 69.1447 1.86985 69.3286C 2.0087 69.4201 2.13245 69.4878 2.23548 69.5372C 2.28694 69.5619 2.33307 69.5819 2.37317 69.5981C 2.39322 69.6061 2.41175 69.6133 2.42867 69.6195C 2.43713 69.6226 2.44519 69.6255 2.45283 69.6281C 2.45666 69.6295 2.46037 69.6308 2.46399 69.632C 2.46579 69.6326 2.46843 69.6335 2.46933 69.6338C 2.47193 69.6347 2.47451 69.6356 2.93145 68.2653ZM 4.18882 41.0198C 7.25262 28.6882 11.9508 19.1195 16.2736 12.4553C 18.4357 9.12212 20.498 6.52462 22.2058 4.67661C 23.9604 2.778 25.2292 1.79308 25.7939 1.52292L 24.547 -1.08295C 23.451 -0.558525 21.8677 0.786136 20.0843 2.71598C 18.2541 4.69642 16.0924 7.42626 13.85 10.8832C 9.36391 17.7991 4.53105 27.6616 1.38526 40.3233L 4.18882 41.0198ZM 25.8166 1.51178C 26.027 1.40655 26.2702 1.42551 26.481 1.56611C 26.6909 1.70614 26.7832 1.90706 26.7646 2.11185L 29.6415 2.37328C 29.8921 -0.384692 26.9429 -2.28165 24.5243 -1.07181L 25.8166 1.51178ZM 26.7596 2.18913C 26.6882 4.11749 26.5426 7.18216 26.4881 10.0527C 26.4608 11.4903 26.4559 12.8997 26.4954 14.1135C 26.5339 15.2951 26.6166 16.3977 26.797 17.1647L 29.6091 16.5033C 29.5007 16.0424 29.4209 15.1946 29.3827 14.0195C 29.3455 12.8767 29.3495 11.5231 29.3764 10.1075C 29.4302 7.2714 29.5734 4.26833 29.6464 2.29601L 26.7596 2.18913ZM 27.7095 18.1915L 80.5633 37.406L 81.5503 34.6911L 28.6965 15.4766L 27.7095 18.1915ZM 81.0568 36.0485C 79.6169 35.9347 79.6169 35.9343 79.6169 35.934C 79.6169 35.934 79.6169 35.9338 79.6169 35.9339C 79.6169 35.9341 79.6169 35.9348 79.6168 35.9359C 79.6166 35.9381 79.6162 35.9422 79.6157 35.9482C 79.6147 35.96 79.6131 35.9792 79.6106 36.0054C 79.6058 36.0579 79.598 36.1386 79.5867 36.2457C 79.5641 36.4601 79.5272 36.7799 79.4713 37.1903C 79.3595 38.0115 79.1718 39.1935 78.8698 40.6182C 78.2647 43.4734 77.2071 47.2728 75.401 51.0874C 71.7904 58.713 65.3096 66.2021 53.5606 66.6777L 53.6775 69.5641C 66.9113 69.0284 74.1494 60.4813 78.0119 52.3236C 79.9424 48.2465 81.06 44.2174 81.6958 41.2171C 82.0144 39.714 82.2137 38.4614 82.3337 37.5801C 82.3937 37.1392 82.434 36.7907 82.4595 36.5495C 82.4722 36.4289 82.4813 36.3351 82.4873 36.2699C 82.4903 36.2374 82.4925 36.212 82.4941 36.194C 82.4948 36.185 82.4954 36.1778 82.4959 36.1725C 82.4961 36.1699 82.4963 36.1677 82.4964 36.166C 82.4965 36.1652 82.4965 36.1642 82.4966 36.1638C 82.4966 36.163 82.4967 36.1623 81.0568 36.0485ZM 55.0634 68.1209C 55.037 67.8453 54.7737 67.2527 54.5106 66.9841C 54.2353 66.814 53.7308 66.68 53.5301 66.6784C 53.2245 66.697 53.002 66.8132 52.989 66.8194C 52.8791 66.8723 52.7971 66.9298 52.7871 66.9367C 52.7381 66.9702 52.6926 67.0054 52.6715 67.0217C 52.6204 67.0613 52.5451 67.1213 52.4695 67.1813C 52.3078 67.3096 52.0708 67.4963 51.7593 67.7298C 51.1359 68.1972 50.2085 68.8561 49.0055 69.5939C 46.5967 71.0712 43.0935 72.8581 38.7229 74.06C 30.0301 76.4507 17.7999 76.5629 3.73978 67.0683L 2.12311 69.4624C 16.9448 79.4712 30.0584 79.4389 39.4889 76.8454C 44.1801 75.5553 47.9334 73.6401 50.5157 72.0564C 51.8083 71.2638 52.8102 70.5524 53.4921 70.0412C 53.8332 69.7855 54.0929 69.5808 54.2647 69.4446C 54.3558 69.3723 54.4066 69.3318 54.4397 69.3061C 54.4608 69.2898 54.4469 69.3013 54.4191 69.3203C 54.4099 69.3266 54.3925 69.3383 54.3695 69.3525C 54.3509 69.364 54.3044 69.3923 54.2411 69.4228C 54.2307 69.4278 54.0103 69.5432 53.706 69.5618C 53.506 69.5601 53.002 69.4263 52.727 69.2564C 52.4643 68.9881 52.2011 68.3959 52.1747 68.1209L 55.0634 68.1209Z"/>
<path id="path15_fill" d="M -2.20351e-06 11.996C -2.20351e-06 11.996 9.24219 -0.283922 12.5636 0.00501791C 15.885 0.438428 12.8524 16.7635 12.8524 16.7635L -2.20351e-06 11.996Z"/>
<path id="path16_stroke" d="M -2.20351e-06 11.996L -1.15406 11.1275C -1.4284 11.492 -1.5144 11.9646 -1.38605 12.4024C -1.25769 12.8402 -0.930067 13.1916 -0.502342 13.3503L -2.20351e-06 11.996ZM 12.5636 0.00501791L 12.7505 -1.42723C 12.73 -1.42991 12.7094 -1.43215 12.6888 -1.43394L 12.5636 0.00501791ZM 12.8524 16.7635L 12.3501 18.1178C 12.7497 18.266 13.1943 18.2302 13.565 18.0199C 13.9357 17.8096 14.1947 17.4464 14.2725 17.0273L 12.8524 16.7635ZM -2.20351e-06 11.996C 1.15406 12.8646 1.15402 12.8647 1.15401 12.8647C 1.15405 12.8646 1.15408 12.8646 1.15417 12.8645C 1.15434 12.8642 1.15466 12.8638 1.15511 12.8632C 1.15602 12.862 1.15749 12.8601 1.1595 12.8574C 1.16353 12.8521 1.16974 12.8438 1.1781 12.8328C 1.1948 12.8107 1.22003 12.7775 1.25334 12.7338C 1.31995 12.6464 1.41882 12.5173 1.54625 12.3525C 1.80118 12.0228 2.17007 11.5508 2.62341 10.9847C 3.53142 9.85087 4.7721 8.34744 6.11072 6.85749C 7.45641 5.35967 8.86912 3.91144 10.1237 2.8666C 10.7528 2.34266 11.3036 1.95278 11.7565 1.70822C 12.2473 1.44315 12.4484 1.44484 12.4384 1.44398L 12.6888 -1.43394C 11.8485 -1.50704 11.0341 -1.1848 10.3838 -0.833621C 9.69553 -0.461928 8.97938 0.0601634 8.27496 0.646831C 6.86245 1.82322 5.34185 3.39081 3.96182 4.92685C 2.57472 6.47077 1.29726 8.01927 0.368568 9.17891C -0.096444 9.75957 -0.475552 10.2446 -0.739033 10.5854C -0.870803 10.7558 -0.973739 10.8902 -1.04413 10.9826C -1.07933 11.0288 -1.1064 11.0644 -1.12487 11.0888C -1.13411 11.101 -1.1412 11.1104 -1.14608 11.1169C -1.14853 11.1201 -1.15042 11.1226 -1.15175 11.1244C -1.15242 11.1253 -1.15294 11.126 -1.15333 11.1265C -1.15352 11.1267 -1.1537 11.127 -1.1538 11.1271C -1.15395 11.1273 -1.15406 11.1275 -2.20351e-06 11.996ZM 12.3767 1.43727C 12.1044 1.40174 12.0968 1.20324 12.2283 1.47625C 12.3602 1.7502 12.4907 2.23711 12.575 2.97118C 12.741 4.41714 12.6836 6.3835 12.5141 8.42742C 12.3462 10.4512 12.0759 12.4708 11.8462 13.99C 11.7316 14.7482 11.6276 15.3783 11.5525 15.8179C 11.5149 16.0376 11.4846 16.2095 11.4638 16.3258C 11.4534 16.384 11.4454 16.4282 11.4401 16.4575C 11.4374 16.4722 11.4354 16.4831 11.4341 16.4902C 11.4334 16.4937 11.4329 16.4963 11.4326 16.4979C 11.4325 16.4987 11.4324 16.4992 11.4323 16.4995C 11.4323 16.4997 11.4323 16.4997 11.4323 16.4998C 11.4323 16.4998 11.4323 16.4997 12.8524 16.7635C 14.2725 17.0273 14.2725 17.0271 14.2726 17.0269C 14.2726 17.0267 14.2727 17.0264 14.2728 17.026C 14.2729 17.0253 14.2731 17.0244 14.2733 17.0232C 14.2737 17.0209 14.2743 17.0175 14.2751 17.0132C 14.2767 17.0046 14.279 16.9921 14.282 16.9759C 14.2879 16.9434 14.2965 16.8959 14.3075 16.8343C 14.3295 16.7113 14.3611 16.5321 14.4 16.3045C 14.4777 15.8496 14.5847 15.201 14.7025 14.4219C 14.9376 12.8667 15.2179 10.7778 15.393 8.66618C 15.5664 6.57465 15.6444 4.37848 15.4449 2.64158C 15.3464 1.78422 15.1689 0.924625 14.831 0.222843C 14.4925 -0.47988 13.8532 -1.28335 12.7505 -1.42723L 12.3767 1.43727ZM 13.3547 15.4093L 0.502338 10.6418L -0.502342 13.3503L 12.3501 18.1178L 13.3547 15.4093Z"/>
<path id="path17_stroke" d="M 2.81739 0.463122C 3.07316 0.157068 3.0324 -0.298382 2.72635 -0.554154C 2.4203 -0.809927 1.96485 -0.769166 1.70908 -0.463113L 2.81739 0.463122ZM 6.60156 11.833C 6.99303 11.9094 7.37233 11.654 7.44874 11.2626C 7.52516 10.8711 7.26976 10.4918 6.87829 10.4154L 6.60156 11.833ZM 2.26323 4.40887e-06C 1.70908 -0.463113 1.70884 -0.46283 1.70857 -0.462513C 1.70845 -0.462362 1.70816 -0.46201 1.7079 -0.461709C 1.7074 -0.461105 1.70679 -0.460366 1.70606 -0.459492C 1.70461 -0.457744 1.70272 -0.455458 1.7004 -0.452641C 1.69576 -0.447007 1.68941 -0.439246 1.68144 -0.429418C 1.66551 -0.409765 1.64312 -0.381826 1.61508 -0.346071C 1.55904 -0.274591 1.48031 -0.171694 1.38552 -0.0411511C 1.19623 0.219532 0.941273 0.592668 0.674443 1.0479C 0.146357 1.94886 -0.454319 3.21516 -0.653737 4.59173C -0.855857 5.98696 -0.647242 7.53011 0.493623 8.87753C 1.61603 10.2032 3.55719 11.2387 6.60156 11.833L 6.87829 10.4154C 4.00188 9.85388 2.42307 8.92105 1.59596 7.94419C 0.787298 6.98912 0.616836 5.8957 0.775737 4.79882C 0.937338 3.68329 1.43778 2.60195 1.92056 1.7783C 2.15916 1.37123 2.38707 1.03782 2.55429 0.807527C 2.63775 0.692585 2.70569 0.60389 2.75175 0.545149C 2.77476 0.515794 2.79228 0.493966 2.80349 0.480129C 2.8091 0.473212 2.81313 0.468297 2.81548 0.465442C 2.81666 0.464015 2.81741 0.463103 2.81773 0.462713C 2.8179 0.462519 2.81795 0.462455 2.81789 0.462523C 2.81786 0.462556 2.81774 0.462707 2.81773 0.462723C 2.81757 0.462906 2.81739 0.463122 2.26323 4.40887e-06Z"/>
<path id="path18_fill" d="M 2.02172 4.04516C 3.13829 4.04516 4.04345 3.13962 4.04345 2.02258C 4.04345 0.905535 3.13829 4.40887e-06 2.02172 4.40887e-06C 0.905156 4.40887e-06 -4.40702e-06 0.905535 -4.40702e-06 2.02258C -4.40702e-06 3.13962 0.905156 4.04516 2.02172 4.04516Z"/>
<path id="path19_stroke" d="M -0.71923 4.05431C -0.755325 4.45153 -0.462574 4.80281 -0.065352 4.8389C 0.33187 4.875 0.683143 4.58225 0.719239 4.18502L -0.71923 4.05431ZM 6.85185 0.792292C 7.24826 0.836357 7.60535 0.550719 7.64941 0.154302C 7.69348 -0.242115 7.40784 -0.599196 7.01142 -0.643261L 6.85185 0.792292ZM 4.40702e-06 4.11967C 0.719239 4.18502 0.719196 4.18549 0.719156 4.18593C 0.719144 4.18606 0.719104 4.18648 0.719081 4.18673C 0.719034 4.18723 0.718994 4.18766 0.718959 4.18802C 0.718889 4.18874 0.718845 4.18919 0.718827 4.18936C 0.718791 4.18971 0.718864 4.18898 0.719065 4.1872C 0.719468 4.18364 0.720383 4.17591 0.721971 4.16433C 0.725149 4.14113 0.730997 4.10263 0.740778 4.05123C 0.760391 3.94816 0.795496 3.79489 0.855807 3.61005C 0.977001 3.23862 1.19556 2.75302 1.58307 2.28933C 2.32483 1.40175 3.80429 0.453532 6.85185 0.792292L 7.01142 -0.643261C 3.56057 -1.02685 1.57421 0.0475066 0.474757 1.36309C -0.0583369 2.00098 -0.354231 2.66211 -0.517342 3.16201C -0.599183 3.41284 -0.648692 3.62639 -0.678155 3.78122C -0.692912 3.85877 -0.702717 3.92199 -0.709058 3.96828C -0.71223 3.99144 -0.714541 4.01039 -0.716174 4.02483C -0.716991 4.03205 -0.717639 4.03814 -0.71814 4.04307C -0.718391 4.04553 -0.718605 4.0477 -0.718786 4.04958C -0.718876 4.05052 -0.718958 4.05138 -0.719032 4.05217C -0.719069 4.05256 -0.719119 4.0531 -0.719137 4.0533C -0.719184 4.05381 -0.71923 4.05431 4.40702e-06 4.11967Z"/>
<path id="path20_stroke" d="M 6.6887 0.573893C 7.00565 0.331756 7.0663 -0.121475 6.82416 -0.438426C 6.58203 -0.755377 6.1288 -0.816025 5.81185 -0.573888L 6.6887 0.573893ZM -0.376987 15.7526C -0.294256 16.1427 0.089118 16.392 0.479302 16.3092C 0.869487 16.2265 1.11873 15.8431 1.03599 15.453L -0.376987 15.7526ZM 6.25027 2.20444e-06C 5.81185 -0.573888 5.81157 -0.573676 5.81126 -0.573441C 5.81112 -0.573331 5.81078 -0.573072 5.81049 -0.572853C 5.80992 -0.572415 5.80923 -0.571882 5.80842 -0.571257C 5.80679 -0.570006 5.80469 -0.568382 5.80211 -0.566385C 5.79696 -0.562392 5.78992 -0.55691 5.78107 -0.549947C 5.76337 -0.536023 5.7384 -0.516177 5.70671 -0.490486C 5.64335 -0.43911 5.55309 -0.364319 5.44034 -0.266739C 5.21492 -0.0716526 4.89911 0.214967 4.52846 0.588121C 3.78811 1.33347 2.8235 2.42953 1.92338 3.83656C 0.12205 6.65232 -1.43854 10.746 -0.376987 15.7526L 1.03599 15.453C 0.0758157 10.9245 1.47562 7.21679 3.1401 4.61493C 3.97289 3.31315 4.86754 2.29634 5.55323 1.60602C 5.8956 1.26134 6.18451 0.999424 6.38555 0.825435C 6.48603 0.738478 6.56443 0.673596 6.61643 0.631433C 6.64242 0.610355 6.6618 0.594966 6.67403 0.585346C 6.68015 0.580537 6.68447 0.577171 6.68694 0.575258C 6.68817 0.574302 6.68894 0.573709 6.68924 0.573481C 6.68939 0.573367 6.68942 0.573344 6.68933 0.573413C 6.68928 0.573447 6.68913 0.573567 6.68911 0.573584C 6.68892 0.573727 6.6887 0.573893 6.25027 2.20444e-06Z"/>
<path id="path21_fill" d="M 79.5694 4.66302L 79.5694 11.742C 79.5694 11.742 71.7713 10.2974 65.9949 9.43054C 65.9949 9.43054 32.2032 0.0399933 -5.50877e-07 6.2522C -5.50877e-07 6.39667 38.846 -6.7501 79.5694 4.66302Z"/>
<path id="path22_fill" d="M 10.7825 5.51109e-07C 10.7825 5.51109e-07 10.7825 27.8827 10.7825 32.0723C 10.7825 36.5509 12.2266 45.2191 17.7142 51.2868C 17.7142 51.2868 8.03877 48.8308 0.385091 45.2191C 0.385091 45.2191 -3.08073 22.2484 10.7825 5.51109e-07Z"/>
<path id="path23_fill" d="M 6.64282 5.51109e-07C 6.64282 5.51109e-07 6.64282 27.8827 6.64282 32.0723C 6.64282 36.5509 5.05432 44.7857 2.20351e-06 51.1424C 2.20351e-06 51.1424 8.08691 48.8308 17.0403 43.4855C 17.0403 43.4855 20.5061 15.8917 6.64282 5.51109e-07Z"/>
<path id="path24_fill" d="M 24.8384 4.40887e-06L 24.8384 13.0023C 24.8384 19.07 19.9285 23.8375 14.0077 23.8375L 10.8307 23.8375C 4.7655 23.8375 -1.10175e-06 18.9256 -1.10175e-06 13.0023L -1.10175e-06 4.40887e-06L 24.8384 4.40887e-06Z"/>
<path id="path25_stroke" d="M 24.8384 4.40887e-06L 26.2828 4.40887e-06C 26.2828 -0.797713 25.6361 -1.44439 24.8384 -1.44439L 24.8384 4.40887e-06ZM -1.10175e-06 4.40887e-06L -1.10175e-06 -1.44439C -0.797719 -1.44439 -1.4444 -0.797713 -1.4444 4.40887e-06L -1.10175e-06 4.40887e-06ZM 23.394 4.40887e-06L 23.394 13.0023L 26.2828 13.0023L 26.2828 4.40887e-06L 23.394 4.40887e-06ZM 23.394 13.0023C 23.394 18.2604 19.1427 22.3932 14.0077 22.3932L 14.0077 25.2819C 20.7142 25.2819 26.2828 19.8797 26.2828 13.0023L 23.394 13.0023ZM 14.0077 22.3932L 10.8307 22.3932L 10.8307 25.2819L 14.0077 25.2819L 14.0077 22.3932ZM 10.8307 22.3932C 5.57631 22.3932 1.44439 18.141 1.44439 13.0023L -1.4444 13.0023C -1.4444 19.7101 3.95469 25.2819 10.8307 25.2819L 10.8307 22.3932ZM 1.44439 13.0023L 1.44439 4.40887e-06L -1.4444 4.40887e-06L -1.4444 13.0023L 1.44439 13.0023ZM -1.10175e-06 1.4444L 24.8384 1.4444L 24.8384 -1.44439L -1.10175e-06 -1.44439L -1.10175e-06 1.4444Z"/>
<path id="path26_fill" d="M 7.22046 11.4131C 6.78723 11.5576 6.354 11.5576 5.77636 11.5576C 2.59936 11.5576 1.10175e-06 8.95714 1.10175e-06 5.7788C 1.10175e-06 2.60046 2.59936 -2.20444e-06 5.77636 -2.20444e-06C 6.20959 -2.20444e-06 6.78723 1.09791e-06 7.22046 0.144471L 7.22046 11.4131Z"/>
<path id="path27_stroke" d="M 7.22046 11.4131L 7.67739 12.7833C 8.26711 12.5867 8.66485 12.0348 8.66485 11.4131L 7.22046 11.4131ZM 7.22046 0.144471L 8.66485 0.144471C 8.66485 -0.477173 8.26711 -1.02909 7.67739 -1.22574L 7.22046 0.144471ZM 6.76352 10.0429C 6.59284 10.0998 6.40517 10.1132 5.77636 10.1132L 5.77636 13.002C 6.30283 13.002 6.98162 13.0154 7.67739 12.7833L 6.76352 10.0429ZM 5.77636 10.1132C 3.39766 10.1132 1.4444 8.15999 1.4444 5.7788L -1.44439 5.7788C -1.44439 9.75428 1.80107 13.002 5.77636 13.002L 5.77636 10.1132ZM 1.4444 5.7788C 1.4444 3.3976 3.39766 1.44439 5.77636 1.44439L 5.77636 -1.4444C 1.80107 -1.4444 -1.44439 1.80331 -1.44439 5.7788L 1.4444 5.7788ZM 5.77636 1.44439C 6.27707 1.44439 6.59751 1.45933 6.76352 1.51469L 7.67739 -1.22574C 6.97695 -1.45932 6.14211 -1.4444 5.77636 -1.4444L 5.77636 1.44439ZM 5.77606 0.144471L 5.77606 11.4131L 8.66485 11.4131L 8.66485 0.144471L 5.77606 0.144471Z"/>
<path id="path28_fill" d="M 0 0.144471C 0.433227 1.09791e-06 0.866454 -2.20444e-06 1.44409 -2.20444e-06C 4.62109 -2.20444e-06 7.22045 2.60046 7.22045 5.7788C 7.22045 8.95714 4.62109 11.5576 1.44409 11.5576C 1.01086 11.5576 0.433227 11.5576 0 11.4131L 0 0.144471Z"/>
<path id="path29_stroke" d="M 0 0.144471L -0.456931 -1.22574C -1.04665 -1.02909 -1.4444 -0.477173 -1.4444 0.144471L 0 0.144471ZM 0 11.4131L -1.4444 11.4131C -1.4444 12.0348 -1.04665 12.5867 -0.456931 12.7833L 0 11.4131ZM 0.456931 1.51469C 0.627619 1.45777 0.815303 1.44439 1.44409 1.44439L 1.44409 -1.4444C 0.917606 -1.4444 0.238835 -1.45776 -0.456931 -1.22574L 0.456931 1.51469ZM 1.44409 1.44439C 3.8228 1.44439 5.77606 3.3976 5.77606 5.7788L 8.66485 5.7788C 8.66485 1.80331 5.41938 -1.4444 1.44409 -1.4444L 1.44409 1.44439ZM 5.77606 5.7788C 5.77606 8.15999 3.8228 10.1132 1.44409 10.1132L 1.44409 13.002C 5.41938 13.002 8.66485 9.75428 8.66485 5.7788L 5.77606 5.7788ZM 1.44409 10.1132C 0.943369 10.1132 0.622942 10.0983 0.456931 10.0429L -0.456931 12.7833C 0.243513 13.0169 1.07836 13.002 1.44409 13.002L 1.44409 10.1132ZM 1.4444 11.4131L 1.4444 0.144471L -1.4444 0.144471L -1.4444 11.4131L 1.4444 11.4131Z"/>
<path id="path30_fill" d="M 4.90991 27.4493L -4.40702e-06 27.4493C -4.40702e-06 27.4493 1.29968 22.5373 7.65368 18.0587L 10.253 -8.81775e-06L 10.253 19.9368L 4.90991 27.4493Z"/>
<path id="path31_stroke" d="M 6.20974 4.40887e-06C 6.20974 -0.398854 5.8864 -0.722193 5.48754 -0.722193C 5.08868 -0.722193 4.76534 -0.398854 4.76534 4.40887e-06L 6.20974 4.40887e-06ZM 5.48754 31.061L 5.94498 31.6199C 6.11256 31.4827 6.20974 31.2776 6.20974 31.061L 5.48754 31.061ZM -0.714052 39.6211C -0.773779 40.0155 -0.502504 40.3836 -0.108142 40.4433C 0.286219 40.503 0.65433 40.2317 0.714057 39.8374L -0.714052 39.6211ZM 4.76534 4.40887e-06L 4.76534 31.061L 6.20974 31.061L 6.20974 4.40887e-06L 4.76534 4.40887e-06ZM 5.48754 31.061C 5.0301 30.5022 5.02994 30.5023 5.02976 30.5025C 5.02968 30.5025 5.02948 30.5027 5.02931 30.5028C 5.02897 30.5031 5.02856 30.5035 5.02808 30.5038C 5.02712 30.5046 5.02587 30.5057 5.02433 30.5069C 5.02126 30.5095 5.01705 30.513 5.01174 30.5174C 5.00111 30.5262 4.98607 30.5388 4.96689 30.5551C 4.92851 30.5876 4.87354 30.6348 4.80412 30.6959C 4.66533 30.8181 4.46856 30.9962 4.23124 31.2243C 3.75718 31.6799 3.11807 32.3379 2.45492 33.1508C 1.14089 34.7617 -0.324612 37.0497 -0.714052 39.6211L 0.714057 39.8374C 1.04666 37.6413 2.32492 35.5952 3.57416 34.0638C 4.19263 33.3057 4.79003 32.6905 5.23207 32.2657C 5.45278 32.0536 5.63396 31.8897 5.75861 31.78C 5.82091 31.7252 5.86902 31.6839 5.90081 31.6569C 5.9167 31.6435 5.9285 31.6336 5.93596 31.6274C 5.93968 31.6243 5.94232 31.6221 5.94384 31.6208C 5.94459 31.6202 5.94507 31.6198 5.94526 31.6197C 5.94536 31.6196 5.94538 31.6196 5.94534 31.6196C 5.94531 31.6196 5.94522 31.6197 5.94521 31.6197C 5.9451 31.6198 5.94498 31.6199 5.48754 31.061Z"/>
<path id="path32_stroke" d="M 0.722201 -2.20444e-06C 0.722201 -0.398861 0.398862 -0.7222 3.05176e-06 -0.7222C -0.398856 -0.7222 -0.722195 -0.398861 -0.722195 -2.20444e-06L 0.722201 -2.20444e-06ZM -0.722195 8.95714C -0.722195 9.356 -0.398856 9.67934 3.05176e-06 9.67934C 0.398862 9.67934 0.722201 9.356 0.722201 8.95714L -0.722195 8.95714ZM -0.722195 -2.20444e-06L -0.722195 8.95714L 0.722201 8.95714L 0.722201 -2.20444e-06L -0.722195 -2.20444e-06Z"/>
<path id="path33_stroke" d="M 25.8492 6.06773L 25.4485 5.46691C 25.2477 5.60086 25.127 5.82631 25.127 6.06773C 25.127 6.30915 25.2477 6.53461 25.4485 6.66856L 25.8492 6.06773ZM 20.7949 3.46728L 20.7949 4.18948C 21.1938 4.18948 21.5171 3.86614 21.5171 3.46728L 20.7949 3.46728ZM 6.64282 3.46728L 5.92062 3.46728C 5.92062 3.86614 6.24396 4.18948 6.64282 4.18948L 6.64282 3.46728ZM 1.5885 6.06773L 1.98922 6.66856C 2.19742 6.52971 2.31889 6.29297 2.31027 6.04287C 2.30166 5.79277 2.16418 5.56495 1.94693 5.44076L 1.5885 6.06773ZM 6.64282 8.6682L 6.64282 7.946C 6.24396 7.946 5.92062 8.26934 5.92062 8.6682L 6.64282 8.6682ZM 20.7949 8.6682L 21.5171 8.6682C 21.5171 8.26934 21.1938 7.946 20.7949 7.946L 20.7949 8.6682ZM 26.2499 6.66856C 27.2595 5.99522 28.1599 4.78197 28.1599 3.32281L 26.7155 3.32281C 26.7155 4.17517 26.1718 4.98449 25.4485 5.46691L 26.2499 6.66856ZM 28.1599 3.32281C 28.1599 1.04613 26.3928 -0.722198 24.1163 -0.722198L 24.1163 0.722198C 25.5945 0.722198 26.7155 1.84328 26.7155 3.32281L 28.1599 3.32281ZM 24.1163 -0.722198C 21.8399 -0.722198 20.0727 1.04613 20.0727 3.32281L 21.5171 3.32281C 21.5171 1.84328 22.6381 0.722198 24.1163 0.722198L 24.1163 -0.722198ZM 20.0727 3.32281L 20.0727 3.46728L 21.5171 3.46728L 21.5171 3.32281L 20.0727 3.32281ZM 20.7949 2.74508L 6.64282 2.74508L 6.64282 4.18948L 20.7949 4.18948L 20.7949 2.74508ZM 7.36502 3.46728L 7.36502 3.32281L 5.92062 3.32281L 5.92062 3.46728L 7.36502 3.46728ZM 7.36502 3.32281C 7.36502 1.04613 5.59787 -0.722198 3.32141 -0.722198L 3.32141 0.722198C 4.79958 0.722198 5.92062 1.84328 5.92062 3.32281L 7.36502 3.32281ZM 3.32141 -0.722198C 1.04494 -0.722198 -0.722193 1.04614 -0.722193 3.32281L 0.722202 3.32281C 0.722202 1.84327 1.84324 0.722198 3.32141 0.722198L 3.32141 -0.722198ZM -0.722193 3.32281C -0.722193 4.73475 -0.00828325 5.98678 1.23008 6.69471L 1.94693 5.44076C 1.16356 4.99293 0.722202 4.2224 0.722202 3.32281L -0.722193 3.32281ZM 1.18778 5.46691C 0.178185 6.14026 -0.722193 7.35351 -0.722193 8.81266L 0.722202 8.81266C 0.722202 7.9603 1.26591 7.15097 1.98922 6.66856L 1.18778 5.46691ZM -0.722193 8.81266C -0.722193 11.0893 1.04494 12.8577 3.32141 12.8577L 3.32141 11.4133C 1.84323 11.4133 0.722202 10.2922 0.722202 8.81266L -0.722193 8.81266ZM 3.32141 12.8577C 5.59787 12.8577 7.36502 11.0893 7.36502 8.81266L 5.92062 8.81266C 5.92062 10.2922 4.79958 11.4133 3.32141 11.4133L 3.32141 12.8577ZM 7.36502 8.81266L 7.36502 8.6682L 5.92062 8.6682L 5.92062 8.81266L 7.36502 8.81266ZM 6.64282 9.3904L 20.7949 9.3904L 20.7949 7.946L 6.64282 7.946L 6.64282 9.3904ZM 20.0727 8.6682L 20.0727 8.81266L 21.5171 8.81266L 21.5171 8.6682L 20.0727 8.6682ZM 20.0727 8.81266C 20.0727 11.0893 21.8399 12.8577 24.1163 12.8577L 24.1163 11.4133C 22.6381 11.4133 21.5171 10.2922 21.5171 8.81266L 20.0727 8.81266ZM 24.1163 12.8577C 26.3928 12.8577 28.1599 11.0893 28.1599 8.81266L 26.7155 8.81266C 26.7155 10.2922 25.5945 11.4133 24.1163 11.4133L 24.1163 12.8577ZM 28.1599 8.81266C 28.1599 7.35351 27.2595 6.14025 26.2499 5.46691L 25.4485 6.66856C 26.1718 7.15097 26.7155 7.9603 26.7155 8.81266L 28.1599 8.81266Z"/>
<path id="path34_fill" d="M -4.40702e-06 3.47206L 13.7189 3.47206C 14.0077 3.47206 14.2965 3.18312 14.2965 2.89418C 14.2965 2.02736 14.5853 0.582656 16.0294 0.149246C 16.0294 0.149246 18.0511 -0.573108 19.062 1.16053C 19.062 1.16053 16.8959 0.8716 16.3182 3.47206C 16.1738 4.33888 15.163 4.91676 14.2965 4.91676L -4.40702e-06 3.47206Z"/>
<path id="path35_fill" d="M 51.4187 0C 47.0864 3.61175 37.5554 6.21221 26.0027 6.21221C 14.5943 6.21221 5.20775 3.75622 0.731067 0.144468C -0.135388 3.75622 0.00902116 9.10161 0.00902116 10.8352C 2.8972 14.0136 10.5509 17.1919 26.0027 17.1919C 41.4544 17.1919 48.3861 14.1581 52.4295 10.2574C 52.4295 8.81267 51.4187 0 51.4187 0Z"/>
<path id="path36_stroke" d="M 51.4187 0L 52.8145 -0.160107C 52.7556 -0.673057 52.4202 -1.11241 51.9409 -1.30431C 51.4615 -1.49622 50.9156 -1.40975 50.519 -1.07914L 51.4187 0ZM 0.731067 0.144468L 1.61326 -0.948992C 1.23823 -1.25157 0.734288 -1.34083 0.278139 -1.18549C -0.17801 -1.03014 -0.522721 -0.651862 -0.635133 -0.183282L 0.731067 0.144468ZM 0.00902116 10.8352L -1.39594 10.8352C -1.39594 11.1847 -1.26575 11.5215 -1.03077 11.7801L 0.00902116 10.8352ZM 52.4295 10.2574L 53.405 11.2685C 53.6795 11.0037 53.8345 10.6387 53.8345 10.2574L 52.4295 10.2574ZM 50.519 -1.07914C 48.5815 0.536166 45.3445 2.0215 41.0748 3.0982C 36.8328 4.16792 31.6786 4.80725 26.0027 4.80725L 26.0027 7.61718C 31.8794 7.61718 37.2671 6.95628 41.7619 5.82283C 46.2289 4.69636 49.9236 3.07558 52.3183 1.07914L 50.519 -1.07914ZM 26.0027 4.80725C 20.3944 4.80725 15.31 4.20308 11.103 3.16844C 6.87218 2.12791 3.62781 0.676331 1.61326 -0.948992L -0.151128 1.23793C 2.311 3.22435 5.99828 4.80665 10.432 5.89706C 14.8896 6.99335 20.2026 7.61718 26.0027 7.61718L 26.0027 4.80725ZM -0.635133 -0.183282C -1.55084 3.63379 -1.39594 9.19842 -1.39594 10.8352L 1.41398 10.8352C 1.41398 9.0048 1.28007 3.87864 2.09727 0.472218L -0.635133 -0.183282ZM -1.03077 11.7801C 0.655166 13.6354 3.56617 15.3258 7.91144 16.5572C 12.2761 17.7941 18.1882 18.5969 26.0027 18.5969L 26.0027 15.787C 18.3653 15.787 12.7248 15.0006 8.67755 13.8537C 4.61099 12.7013 2.25106 11.2134 1.04881 9.89038L -1.03077 11.7801ZM 26.0027 18.5969C 41.6082 18.5969 48.9798 15.5374 53.405 11.2685L 51.4541 9.24622C 47.7923 12.7787 41.3006 15.787 26.0027 15.787L 26.0027 18.5969ZM 53.8345 10.2574C 53.8345 9.43938 53.5686 6.7722 53.3212 4.4388C 53.1945 3.2435 53.0678 2.09402 52.9729 1.24365C 52.9254 0.818372 52.8858 0.467685 52.8581 0.223213C 52.8443 0.100973 52.8334 0.00527659 52.8259 -0.0599248C 52.8222 -0.0925259 52.8194 -0.117504 52.8174 -0.134366C 52.8165 -0.142796 52.8157 -0.149198 52.8152 -0.153509C 52.815 -0.155664 52.8148 -0.157297 52.8147 -0.158399C 52.8146 -0.15895 52.8146 -0.159369 52.8145 -0.159654C 52.8145 -0.159796 52.8145 -0.159909 52.8145 -0.159981C 52.8145 -0.160061 52.8145 -0.160107 51.4187 0C 50.0229 0.160107 50.0229 0.160128 50.0229 0.160182C 50.0229 0.160245 50.0229 0.160333 50.0229 0.160459C 50.0229 0.16071 50.023 0.161094 50.023 0.161611C 50.0231 0.162645 50.0233 0.164208 50.0236 0.166294C 50.024 0.170466 50.0248 0.176727 50.0257 0.185015C 50.0276 0.20159 50.0304 0.226273 50.0341 0.258571C 50.0415 0.323167 50.0523 0.418215 50.0661 0.539768C 50.0936 0.782883 50.133 1.13197 50.1803 1.55545C 50.2749 2.40261 50.401 3.54659 50.527 4.73504C 50.785 7.16915 51.0246 9.63065 51.0246 10.2574L 53.8345 10.2574Z"/>
<path id="path37_fill" d="M 4.66 13.8C 7.76 13.8 9.84 12.14 9.84 7.72L 9.84 6.08C 9.84 1.66 7.76 0 4.66 0L 0 0L 0 13.8L 4.66 13.8ZM 4.66 11.8L 2.32 11.8L 2.32 2.02L 4.66 2.02C 6.64 2.02 7.52 3.24 7.52 6.08L 7.52 7.72C 7.52 10.56 6.64 11.8 4.66 11.8Z"/>
<path id="path38_fill" d="M 11.4442 10.86C 11.4442 12.86 12.8042 13.98 15.0042 13.98C 16.2242 13.98 16.8442 13.66 17.3242 12.88L 17.3242 13.8L 19.4242 13.8L 19.4242 7.08C 19.4242 4.42 18.0442 3.62 15.4842 3.62C 13.5042 3.62 12.4242 4.1 11.7042 5.28L 13.2442 6.36C 13.7242 5.58 14.2642 5.46 15.3442 5.46C 16.8442 5.46 17.3242 5.8 17.3242 7.06L 17.3242 7.9L 15.1642 7.9C 13.0242 7.9 11.4442 8.72 11.4442 10.86ZM 17.3242 10.02C 17.3242 11.76 16.5442 12.16 15.2442 12.16C 14.2242 12.16 13.5442 11.78 13.5442 10.86C 13.5442 9.98 14.0642 9.54 15.3242 9.54L 17.3242 9.54L 17.3242 10.02Z"/>
<path id="path39_fill" d="M 20.9098 5.64L 22.1898 5.64L 22.1898 10.62C 22.1898 12.98 23.0498 13.8 25.4498 13.8L 26.4298 13.8L 26.4298 11.88L 25.6098 11.88C 24.4898 11.88 24.3098 11.38 24.3098 10.22L 24.3098 5.64L 26.4298 5.64L 26.4298 3.8L 24.3098 3.8L 24.3098 1.6L 22.1898 1.6L 22.1898 3.8L 20.9098 3.8L 20.9098 5.64Z"/>
<path id="path40_fill" d="M 27.6942 10.86C 27.6942 12.86 29.0542 13.98 31.2542 13.98C 32.4742 13.98 33.0942 13.66 33.5742 12.88L 33.5742 13.8L 35.6742 13.8L 35.6742 7.08C 35.6742 4.42 34.2942 3.62 31.7342 3.62C 29.7542 3.62 28.6742 4.1 27.9542 5.28L 29.4942 6.36C 29.9742 5.58 30.5142 5.46 31.5942 5.46C 33.0942 5.46 33.5742 5.8 33.5742 7.06L 33.5742 7.9L 31.4142 7.9C 29.2742 7.9 27.6942 8.72 27.6942 10.86ZM 33.5742 10.02C 33.5742 11.76 32.7942 12.16 31.4942 12.16C 30.4742 12.16 29.7942 11.78 29.7942 10.86C 29.7942 9.98 30.3142 9.54 31.5742 9.54L 33.5742 9.54L 33.5742 10.02Z"/>
<path id="path41_fill" d="M 51.1798 3.8L 49.0598 3.8L 49.0598 9.84C 49.0598 11.22 48.3398 12.1 47.0198 12.1C 45.8998 12.1 45.0998 11.6 45.0998 9.82L 45.0998 3.8L 42.9598 3.8L 42.9598 10.04C 42.9598 12.92 44.5598 13.98 46.6198 13.98C 48.0198 13.98 48.6198 13.62 49.0798 12.9L 49.0798 13.8L 51.1798 13.8L 51.1798 3.8Z"/>
<path id="path42_fill" d="M 61.9872 8.1C 61.9872 5.24 60.4672 3.62 58.0672 3.62C 56.9272 3.62 56.1272 3.98 55.6272 4.6L 55.6272 3.8L 53.4872 3.8L 53.4872 17.6L 55.6272 17.6L 55.6272 13.16C 56.1272 13.7 56.8872 13.98 58.0472 13.98C 60.7072 13.98 61.9872 12.06 61.9872 9.46L 61.9872 8.1ZM 57.7472 12.14C 56.1272 12.14 55.6272 10.92 55.6272 9.36L 55.6272 8.08C 55.6472 6.44 56.3472 5.48 57.7472 5.48C 59.1672 5.48 59.8672 6.46 59.8672 8.2L 59.8672 9.36C 59.8672 10.92 59.2672 12.14 57.7472 12.14Z"/>
<path id="path43_fill" d="M 68.0583 5.64L 69.3383 5.64L 69.3383 10.62C 69.3383 12.98 70.1983 13.8 72.5983 13.8L 73.5783 13.8L 73.5783 11.88L 72.7583 11.88C 71.6383 11.88 71.4583 11.38 71.4583 10.22L 71.4583 5.64L 73.5783 5.64L 73.5783 3.8L 71.4583 3.8L 71.4583 1.6L 69.3383 1.6L 69.3383 3.8L 68.0583 3.8L 68.0583 5.64Z"/>
<path id="path44_fill" d="M 83.4227 8.16C 83.4227 5.22 81.8827 3.62 79.1827 3.62C 76.4827 3.62 74.9227 5.22 74.9227 8.16L 74.9227 9.42C 74.9227 12.18 76.3827 13.98 79.1827 13.98C 82.1227 13.98 83.4227 12.08 83.4227 9.42L 83.4227 8.16ZM 79.1827 12.14C 77.5627 12.14 77.0427 10.92 77.0427 9.36L 77.0427 8.2C 77.0427 6.48 77.7427 5.48 79.1827 5.48C 80.6027 5.48 81.3027 6.46 81.3027 8.2L 81.3027 9.36C 81.3027 10.92 80.7027 12.14 79.1827 12.14Z"/>
<path id="path45_fill" d="M 95.9441 0L 93.7641 0L 91.6441 1.52L 91.6441 3.86L 93.6241 2.5L 93.6241 13.8L 95.9441 13.8L 95.9441 0Z"/>
<path id="path46_fill" d="M 104.813 6.46C 106.173 6.46 106.733 7.46 106.733 9.36C 106.733 11.18 105.993 11.96 104.813 11.96C 103.813 11.96 103.173 11.38 102.933 10.38L 100.653 10.38C 100.853 12.58 102.613 13.98 104.853 13.98C 107.613 13.98 109.053 12.3 109.053 9.28C 109.053 6.08 107.713 4.3 105.413 4.3C 104.353 4.3 103.713 4.68 103.293 5.1L 103.293 2.18L 108.513 2.18L 108.513 0L 101.033 0L 101.033 7.48L 103.133 7.48C 103.473 6.9 103.993 6.46 104.813 6.46Z"/>
<path id="path47_fill" d="M 121.663 3.8L 118.323 7.7L 118.323 0L 116.183 0L 116.183 13.8L 118.323 13.8L 118.323 10.52L 119.003 9.76L 122.303 13.8L 124.883 13.8L 120.463 8.1L 124.283 3.8L 121.663 3.8Z"/>
<path id="path48_fill" d="M 126.085 13.8L 128.225 13.8L 128.225 7.76C 128.225 6.36 129.005 5.52 130.105 5.52C 131.125 5.52 131.865 6.08 131.865 7.78L 131.865 13.8L 133.985 13.8L 133.985 7.66C 134.025 6.32 134.785 5.52 135.845 5.52C 136.945 5.52 137.625 6.14 137.625 7.78L 137.625 13.8L 139.765 13.8L 139.765 7.54C 139.765 4.94 138.465 3.62 136.305 3.62C 135.065 3.62 134.045 4.16 133.385 5.06C 132.785 4.12 131.785 3.62 130.525 3.62C 129.345 3.62 128.585 4.1 128.185 4.7L 128.185 3.8L 126.085 3.8L 126.085 13.8Z"/>
<path id="path49_fill" d="M 1.10175e-06 -4.40887e-06L 22.0946 -4.40887e-06L 22.0946 4.47857C 22.0946 4.47857 17.4735 7.22349 11.1195 7.22349C 4.7655 7.22349 0.144408 4.18963 0.144408 4.18963L 0.144408 -4.40887e-06L 1.10175e-06 -4.40887e-06Z"/>
<path id="path50_fill" d="M 59.4965 19.359L 59.4965 51.2868C 59.4965 67.7564 46.2109 81.0476 29.7483 81.0476C 13.2856 81.0476 -1.10175e-06 67.7564 -1.10175e-06 51.2868L -1.10175e-06 19.359C -1.10175e-06 19.359 12.708 13.0023 16.0294 5.51109e-07C 15.885 5.51109e-07 31.1924 28.1716 59.4965 19.359Z"/>
<path id="path51_stroke" d="M 59.4965 19.359L 60.9409 19.359C 60.9409 18.8998 60.7226 18.4679 60.3527 18.1957C 59.9829 17.9235 59.5056 17.8434 59.0672 17.9799L 59.4965 19.359ZM -1.10175e-06 19.359L -0.646172 18.0672C -1.13539 18.3119 -1.4444 18.812 -1.4444 19.359L -1.10175e-06 19.359ZM 16.0294 5.51109e-07L 17.4289 0.357489C 17.5393 -0.0747116 17.4438 -0.533676 17.1702 -0.88598C 16.8965 -1.23828 16.4755 -1.44439 16.0294 -1.44439L 16.0294 5.51109e-07ZM 58.0521 19.359L 58.0521 51.2868L 60.9409 51.2868L 60.9409 19.359L 58.0521 19.359ZM 58.0521 51.2868C 58.0521 66.9593 45.4126 79.6032 29.7483 79.6032L 29.7483 82.492C 47.0092 82.492 60.9409 68.5536 60.9409 51.2868L 58.0521 51.2868ZM 29.7483 79.6032C 14.0839 79.6032 1.44439 66.9593 1.44439 51.2868L -1.4444 51.2868C -1.4444 68.5536 12.4873 82.492 29.7483 82.492L 29.7483 79.6032ZM 1.44439 51.2868L 1.44439 19.359L -1.4444 19.359L -1.4444 51.2868L 1.44439 51.2868ZM -1.10175e-06 19.359C 0.64617 20.6508 0.646669 20.6505 0.647216 20.6502C 0.647464 20.6501 0.648061 20.6498 0.648555 20.6496C 0.649545 20.6491 0.650729 20.6485 0.652105 20.6478C 0.654858 20.6464 0.658381 20.6446 0.662665 20.6425C 0.671233 20.6381 0.682842 20.6322 0.697409 20.6247C 0.72654 20.6097 0.767507 20.5884 0.81963 20.5608C 0.923863 20.5056 1.07278 20.4251 1.26094 20.3192C 1.63713 20.1075 2.1709 19.7939 2.81849 19.3776C 4.11226 18.5461 5.86825 17.2998 7.73236 15.6317C 11.449 12.3059 15.6725 7.23293 17.4289 0.357489L 14.63 -0.357488C 13.0649 5.76936 9.27368 10.3759 5.80599 13.479C 4.07793 15.0253 2.44932 16.1809 1.25656 16.9475C 0.66087 17.3304 0.175876 17.615 -0.155872 17.8017C -0.321688 17.895 -0.449035 17.9638 -0.532577 18.008C -0.574341 18.0301 -0.605138 18.0461 -0.624299 18.056C -0.633878 18.0609 -0.640547 18.0643 -0.644221 18.0662C -0.646058 18.0671 -0.647146 18.0677 -0.647474 18.0678C -0.647639 18.0679 -0.647613 18.0679 -0.647397 18.0678C -0.647289 18.0677 -0.646982 18.0676 -0.646928 18.0676C -0.646574 18.0674 -0.646172 18.0672 -1.10175e-06 19.359ZM 16.0294 -1.44439C 15.7077 -1.40817 15.1172 -1.12016 14.8819 -0.877719C 14.7507 -0.672763 14.6165 -0.303304 14.5924 -0.154242C 14.5656 0.0930647 14.6119 0.287028 14.6188 0.318278C 14.6449 0.435632 14.6809 0.526406 14.6887 0.546174C 14.7146 0.612443 14.7429 0.672504 14.7602 0.708272C 14.8001 0.790948 14.853 0.892297 14.914 1.00454C 15.0386 1.23348 15.2219 1.55291 15.4621 1.94622C 15.9434 2.73411 16.6641 3.83623 17.6199 5.12466C 19.5289 7.69813 22.3949 11.0411 26.1865 14.1073C 33.7928 20.2585 45.1873 25.327 59.9259 20.7381L 59.0672 17.9799C 45.5017 22.2036 35.0904 17.5926 28.003 11.8611C 24.4478 8.98605 21.745 5.8369 19.94 3.40359C 19.0388 2.18862 18.3662 1.15868 17.9274 0.440358C 17.7076 0.0805646 17.5492 -0.196655 17.4516 -0.376076C 17.4015 -0.468022 17.3732 -0.523787 17.3619 -0.547179C 17.3536 -0.564446 17.3639 -0.544657 17.3792 -0.505403C 17.3817 -0.499142 17.4143 -0.418561 17.4389 -0.308022C 17.4451 -0.28018 17.491 -0.0887805 17.4644 0.156814C 17.4405 0.305021 17.3064 0.673837 17.1756 0.878364C 16.9407 1.12037 16.3506 1.40817 16.0294 1.4444L 16.0294 -1.44439Z"/>
<path id="path52_stroke" d="M 0.39065 -0.607423C 0.0551803 -0.823173 -0.391672 -0.726121 -0.607422 -0.390651C -0.823172 -0.0551814 -0.72612 0.391671 -0.39065 0.607421L 0.39065 -0.607423ZM 4.68645 0.629385C 5.03405 0.433777 5.15727 -0.00657966 4.96166 -0.35418C 4.76605 -0.70178 4.32569 -0.824995 3.97809 -0.629387L 4.68645 0.629385ZM 0 -1.10222e-06C -0.39065 0.607421 -0.390353 0.607612 -0.390048 0.607808C -0.389936 0.60788 -0.389622 0.608081 -0.389397 0.608225C -0.388947 0.608513 -0.388465 0.608821 -0.387951 0.609149C -0.386923 0.609805 -0.385767 0.610539 -0.384484 0.611351C -0.381917 0.612974 -0.378841 0.614905 -0.375261 0.617129C -0.368103 0.621576 -0.358927 0.627198 -0.347786 0.63387C -0.325514 0.647209 -0.295336 0.664775 -0.257685 0.685563C -0.182465 0.727094 -0.0769022 0.781765 0.0555289 0.841384C 0.319525 0.960233 0.695597 1.10113 1.1549 1.19512C 2.07987 1.3844 3.34784 1.38267 4.68645 0.629385L 3.97809 -0.629387C 3.00616 -0.0824456 2.10799 -0.0841722 1.44447 -0.219951C 1.10952 -0.288492 0.835748 -0.391384 0.648465 -0.475697C 0.555257 -0.517658 0.484821 -0.554409 0.440453 -0.578906C 0.41831 -0.591131 0.402795 -0.60023 0.394325 -0.605303C 0.390093 -0.607837 0.387635 -0.609357 0.387002 -0.60975C 0.386685 -0.609947 0.386827 -0.609861 0.387432 -0.609478C 0.387735 -0.609287 0.388154 -0.609021 0.38869 -0.608679C 0.388958 -0.608508 0.389255 -0.608318 0.389582 -0.608109C 0.389745 -0.608004 0.390013 -0.607833 0.390094 -0.607781C 0.390368 -0.607605 0.39065 -0.607423 0 -1.10222e-06Z"/>
<path id="path53_stroke" d="M 13.5745 1.10222e-06L 14.2966 1.10222e-06C 14.2966 -0.398858 13.9733 -0.722197 13.5745 -0.722197L 13.5745 1.10222e-06ZM 1.10175e-06 1.10222e-06L 1.10175e-06 -0.722197C -0.398858 -0.722197 -0.722197 -0.398858 -0.722197 1.10222e-06L 1.10175e-06 1.10222e-06ZM 12.8523 1.10222e-06C 12.8523 3.35765 10.1427 6.06789 6.78723 6.06789L 6.78723 7.51229C 10.941 7.51229 14.2966 4.15479 14.2966 1.10222e-06L 12.8523 1.10222e-06ZM 6.78723 6.06789C 3.43174 6.06789 0.722199 3.35765 0.722199 1.10222e-06L -0.722197 1.10222e-06C -0.722197 4.15479 2.63345 7.51229 6.78723 7.51229L 6.78723 6.06789ZM 1.10175e-06 0.722199L 13.5745 0.722199L 13.5745 -0.722197L 1.10175e-06 -0.722197L 1.10175e-06 0.722199Z"/>
<path id="path54_stroke" d="M -0.524387 2.07703C -0.798639 2.36664 -0.786189 2.82374 -0.496578 3.09799C -0.206968 3.37224 0.250132 3.35979 0.524385 3.07018L -0.524387 2.07703ZM 11.7047 2.72365C 12.027 2.95871 12.4788 2.88805 12.7138 2.56581C 12.9489 2.24358 12.8782 1.7918 12.556 1.55674L 11.7047 2.72365ZM -1.10175e-06 2.57361C 0.524385 3.07018 0.524131 3.07045 0.523897 3.0707C 0.523845 3.07075 0.52363 3.07098 0.523525 3.07109C 0.523317 3.07131 0.523185 3.07145 0.523131 3.0715C 0.523022 3.07162 0.523221 3.07141 0.523728 3.07088C 0.52474 3.06983 0.52698 3.06752 0.530431 3.064C 0.537336 3.05697 0.549084 3.04514 0.565568 3.02898C 0.59855 2.99666 0.6504 2.94713 0.720265 2.8842C 0.860143 2.7582 1.07131 2.57934 1.34694 2.37775C 1.8999 1.97333 2.7019 1.48507 3.6994 1.14411C 5.66032 0.473851 8.44382 0.34489 11.7047 2.72365L 12.556 1.55674C 8.88527 -1.12094 5.60359 -1.0332 3.23223 -0.222645C 2.0636 0.176807 1.13269 0.744978 0.494271 1.21189C 0.174213 1.44597 -0.0749201 1.6565 -0.246424 1.81098C -0.33225 1.88829 -0.398861 1.95176 -0.445417 1.99739C -0.468702 2.02021 -0.486993 2.03859 -0.500184 2.05202C -0.50678 2.05874 -0.512103 2.06422 -0.516141 2.06841C -0.51816 2.0705 -0.519857 2.07228 -0.521232 2.07371C -0.52192 2.07443 -0.522526 2.07507 -0.523052 2.07562C -0.523315 2.0759 -0.523649 2.07625 -0.52378 2.07639C -0.524093 2.07672 -0.524387 2.07703 -1.10175e-06 2.57361Z"/>
<path id="path55_stroke" d="M 11.606 3.07018C 11.8802 3.35979 12.3373 3.37224 12.6269 3.09799C 12.9166 2.82374 12.929 2.36664 12.6547 2.07703L 11.606 3.07018ZM -0.425617 1.55674C -0.747851 1.7918 -0.818518 2.24358 -0.583457 2.56581C -0.348396 2.88805 0.103381 2.95871 0.425615 2.72365L -0.425617 1.55674ZM 12.1304 2.57361C 12.6547 2.07703 12.6545 2.07672 12.6541 2.07639C 12.654 2.07625 12.6537 2.0759 12.6534 2.07562C 12.6529 2.07507 12.6523 2.07443 12.6516 2.07371C 12.6502 2.07228 12.6485 2.0705 12.6465 2.06841C 12.6425 2.06422 12.6371 2.05874 12.6305 2.05202C 12.6174 2.03859 12.5991 2.02021 12.5758 1.99739C 12.5292 1.95176 12.4626 1.88829 12.3768 1.81098C 12.2053 1.6565 11.9562 1.44597 11.6361 1.21189C 10.9977 0.744978 10.0668 0.176807 8.89813 -0.222645C 6.52677 -1.0332 3.24509 -1.12094 -0.425617 1.55674L 0.425615 2.72365C 3.68654 0.34489 6.47004 0.473851 8.43096 1.14411C 9.42846 1.48507 10.2305 1.97333 10.7834 2.37775C 11.059 2.57934 11.2702 2.7582 11.4101 2.8842C 11.48 2.94713 11.5318 2.99666 11.5648 3.02898C 11.5813 3.04514 11.593 3.05697 11.5999 3.064C 11.6034 3.06752 11.6056 3.06983 11.6066 3.07088C 11.6071 3.07141 11.6073 3.07162 11.6072 3.0715C 11.6072 3.07145 11.607 3.07131 11.6068 3.07109C 11.6067 3.07098 11.6065 3.07075 11.6065 3.0707C 11.6062 3.07045 11.606 3.07018 12.1304 2.57361Z"/>
<path id="path56_stroke" d="M -0.233123 1.48351C -0.610631 1.61226 -0.812288 2.02267 -0.683538 2.40017C -0.554789 2.77768 -0.144386 2.97934 0.233121 2.85059L -0.233123 1.48351ZM 6.58712 0.68354C 6.96463 0.55479 7.16629 0.144387 7.03754 -0.23312C 6.90879 -0.610627 6.49839 -0.812285 6.12088 -0.683535L 6.58712 0.68354ZM 0.233121 2.85059L 6.58712 0.68354L 6.12088 -0.683535L -0.233123 1.48351L 0.233121 2.85059Z"/>
<path id="path57_stroke" d="M 6.47478 2.29155C 6.8627 2.38435 7.25239 2.14511 7.34519 1.7572C 7.43799 1.36929 7.19876 0.979594 6.81085 0.886792L 6.47478 2.29155ZM 0.168031 -0.70238C -0.219882 -0.795181 -0.609577 -0.555946 -0.702378 -0.168033C -0.795179 0.219879 -0.555944 0.609575 -0.168031 0.702376L 0.168031 -0.70238ZM 6.81085 0.886792L 0.168031 -0.70238L -0.168031 0.702376L 6.47478 2.29155L 6.81085 0.886792Z"/>
<path id="path58_fill" d="M 1.10175e-06 16.7585C 1.10175e-06 16.7585 10.6863 11.1242 15.0185 0C 15.0185 0 22.239 11.2687 33.3585 16.0362C 44.478 20.8037 51.8429 18.6366 56.7528 17.7698L 56.7528 19.07C 56.7528 19.07 32.2032 26.5825 15.3074 5.63433C 15.3074 5.63433 11.6971 12.8578 0.144408 18.3477L 0.144408 16.7585L 1.10175e-06 16.7585Z"/>
<path id="path59_fill" d="M 33.7917 6.64562C 26.5713 4.91198 23.2499 3.90069 20.5061 3.46728C 10.6863 1.73364 2.16613 -8.81775e-06 0.433225 -8.81775e-06C 0.433225 6.2122 4.40702e-06 19.6479 4.40702e-06 19.6479C 15.3074 21.815 19.2064 22.2484 28.4486 19.2145C 29.8927 18.7811 33.7917 18.7811 36.6799 23.982C 37.1131 24.7044 37.6908 25.1378 38.5572 25.1378C 40.0013 25.1378 40.7234 23.8375 40.4346 22.3928C 39.5681 16.614 30.3259 12.2799 30.3259 12.2799C 39.4237 13.4357 44.1892 19.5035 45.4889 23.4041C 45.7777 24.4154 46.7885 24.9933 47.7994 24.9933C 49.6767 24.9933 50.832 23.1152 50.11 21.526C 47.7994 16.4696 43.6115 8.95714 33.7917 6.64562Z"/>
<path id="path60_stroke" d="M 33.7917 6.64562L 33.4545 8.05011L 33.4608 8.05159L 33.7917 6.64562ZM 20.5061 3.46728L 20.255 4.88968C 20.2635 4.89119 20.2721 4.89263 20.2807 4.89399L 20.5061 3.46728ZM 0.433225 -8.81775e-06L 0.433225 -1.4444C -0.364492 -1.4444 -1.01117 -0.797726 -1.01117 -8.81775e-06L 0.433225 -8.81775e-06ZM 4.40702e-06 19.6479L -1.44364 19.6014C -1.4674 20.3382 -0.932415 20.9747 -0.202458 21.078L 4.40702e-06 19.6479ZM 28.4486 19.2145L 28.0334 17.8311C 28.0216 17.8346 28.0098 17.8383 27.9981 17.8422L 28.4486 19.2145ZM 36.6799 23.982L 35.4172 24.6832C 35.4249 24.6973 35.433 24.7112 35.4412 24.7249L 36.6799 23.982ZM 40.4346 22.3928L 39.0061 22.607C 39.0096 22.6301 39.0136 22.6531 39.0182 22.676L 40.4346 22.3928ZM 30.3259 12.2799L 30.5079 10.8471C 29.8026 10.7575 29.1369 11.1945 28.9387 11.8774C 28.7406 12.5603 29.0689 13.2858 29.7127 13.5877L 30.3259 12.2799ZM 45.4889 23.4041L 46.8777 23.0075C 46.872 22.9874 46.8658 22.9674 46.8592 22.9476L 45.4889 23.4041ZM 50.11 21.526L 51.425 20.9285L 51.4237 20.9257L 50.11 21.526ZM 34.1289 5.24114C 27.0286 3.53634 23.5472 2.48536 20.7315 2.04058L 20.2807 4.89399C 22.9525 5.31603 26.1139 6.28762 33.4545 8.0501L 34.1289 5.24114ZM 20.7572 2.04488C 15.8505 1.17863 11.2845 0.315254 7.69555 -0.337555C 5.90729 -0.662833 4.3592 -0.936244 3.14596 -1.12861C 1.97759 -1.31387 1.00195 -1.4444 0.433225 -1.4444L 0.433225 1.44439C 0.730951 1.44439 1.47018 1.53056 2.69357 1.72454C 3.87212 1.9114 5.39272 2.17976 7.17858 2.5046C 10.7379 3.15203 15.3419 4.02229 20.255 4.88968L 20.7572 2.04488ZM -1.01117 -8.81775e-06C -1.01117 3.08464 -1.11894 7.97882 -1.22729 12.1157C -1.28138 14.1812 -1.33548 16.0529 -1.37605 17.4083C -1.39634 18.0859 -1.41324 18.6344 -1.42507 19.0134C -1.43099 19.2029 -1.43563 19.35 -1.4388 19.4497C -1.44038 19.4995 -1.44159 19.5375 -1.44241 19.563C -1.44282 19.5757 -1.44313 19.5854 -1.44333 19.5918C -1.44344 19.595 -1.44351 19.5974 -1.44356 19.599C -1.44359 19.5998 -1.44361 19.6004 -1.44362 19.6008C -1.44363 19.601 -1.44363 19.6011 -1.44364 19.6012C -1.44364 19.6013 -1.44364 19.6014 4.40702e-06 19.6479C 1.44365 19.6945 1.44365 19.6944 1.44366 19.6943C 1.44366 19.6942 1.44366 19.694 1.44367 19.6938C 1.44368 19.6934 1.4437 19.6928 1.44373 19.6919C 1.44378 19.6903 1.44386 19.6878 1.44397 19.6845C 1.44418 19.678 1.44449 19.6683 1.4449 19.6554C 1.44573 19.6297 1.44695 19.5914 1.44854 19.5414C 1.45172 19.4412 1.45638 19.2936 1.46231 19.1035C 1.47417 18.7235 1.49112 18.1738 1.51144 17.4947C 1.5521 16.1368 1.6063 14.2613 1.66051 12.1913C 1.76878 8.05733 1.87762 3.12755 1.87762 -8.81775e-06L -1.01117 -8.81775e-06ZM -0.202458 21.078C 7.41674 22.1567 12.3313 22.8259 16.4987 22.8259C 20.7389 22.8259 24.1809 22.1356 28.8991 20.5868L 27.9981 17.8422C 23.4741 19.3272 20.3454 19.9372 16.4987 19.9372C 12.5792 19.9372 7.89064 19.3062 0.202467 18.2178L -0.202458 21.078ZM 28.8638 20.5979C 29.6856 20.3513 32.8724 20.1008 35.4172 24.6832L 37.9427 23.2808C 34.711 17.4614 30.0998 17.2109 28.0334 17.8311L 28.8638 20.5979ZM 35.4412 24.7249C 35.7353 25.2152 36.1283 25.6918 36.6712 26.0433C 37.2292 26.4045 37.8669 26.5822 38.5572 26.5822L 38.5572 23.6934C 38.3811 23.6934 38.2967 23.6543 38.241 23.6183C 38.1702 23.5724 38.0578 23.4711 37.9186 23.2391L 35.4412 24.7249ZM 38.5572 26.5822C 39.765 26.5822 40.767 26.012 41.3609 25.0879C 41.9263 24.208 42.0537 23.1242 41.8509 22.1097L 39.0182 22.676C 39.1042 23.1062 39.015 23.3948 38.9306 23.5262C 38.8913 23.5873 38.851 23.6211 38.8115 23.6425C 38.7729 23.6635 38.6967 23.6934 38.5572 23.6934L 38.5572 26.5822ZM 41.863 22.1787C 41.5951 20.3919 40.6959 18.8027 39.6115 17.4651C 38.5227 16.1222 37.1864 14.9578 35.9194 14.0119C 34.6475 13.0623 33.4102 12.3069 32.4934 11.7895C 32.0337 11.5301 31.6513 11.3287 31.3812 11.1908C 31.246 11.1219 31.1387 11.0687 31.0637 11.0321C 31.0261 11.0138 30.9966 10.9995 30.9757 10.9895C 30.9652 10.9845 30.9569 10.9806 30.9508 10.9777C 30.9478 10.9762 30.9453 10.9751 30.9433 10.9741C 30.9423 10.9737 30.9415 10.9733 30.9408 10.973C 30.9405 10.9728 30.9401 10.9726 30.9399 10.9725C 30.9395 10.9724 30.9392 10.9722 30.3259 12.2799C 29.7127 13.5877 29.7124 13.5876 29.7121 13.5874C 29.7121 13.5874 29.7119 13.5873 29.7119 13.5873C 29.7117 13.5872 29.7117 13.5872 29.7119 13.5873C 29.7122 13.5875 29.713 13.5879 29.7144 13.5885C 29.7172 13.5898 29.7222 13.5922 29.7292 13.5956C 29.7433 13.6023 29.7658 13.6131 29.7962 13.628C 29.8569 13.6576 29.9491 13.7032 30.0683 13.7641C 30.307 13.8858 30.6534 14.0682 31.0737 14.3053C 31.9168 14.7812 33.0443 15.4705 34.1912 16.3267C 35.3431 17.1867 36.4798 18.1894 37.3676 19.2844C 38.2597 20.3848 38.8408 21.5044 39.0061 22.607L 41.863 22.1787ZM 30.1439 13.7128C 38.6376 14.7918 42.9768 20.4339 44.1185 23.8607L 46.8592 22.9476C 45.4016 18.573 40.2098 12.0796 30.5079 10.8471L 30.1439 13.7128ZM 44.1 23.8008C 44.6091 25.5832 46.3155 26.4377 47.7994 26.4377L 47.7994 23.5489C 47.5602 23.5489 47.3315 23.4785 47.1626 23.3683C 47.0022 23.2636 46.9153 23.1392 46.8777 23.0075L 44.1 23.8008ZM 47.7994 26.4377C 50.7162 26.4377 52.586 23.484 51.425 20.9285L 48.7949 22.1235C 49.078 22.7464 48.6373 23.5489 47.7994 23.5489L 47.7994 26.4377ZM 51.4237 20.9257C 49.0728 15.7811 44.6305 7.71312 34.1227 5.23965L 33.4608 8.05159C 42.5926 10.2012 46.526 17.1581 48.7962 22.1263L 51.4237 20.9257Z"/>
<path id="path61_stroke" d="M -0.186094 -1.14697C -0.977163 -1.0442 -1.53513 -0.319588 -1.43235 0.47148C -1.32957 1.26255 -0.604965 1.82052 0.186103 1.71774L -0.186094 -1.14697ZM 16.4649 13.2012C 16.4172 13.9975 17.024 14.6817 17.8202 14.7295C 18.6165 14.7772 19.3008 14.1704 19.3485 13.3742L 16.4649 13.2012ZM 4.40702e-06 0.285382C 0.186103 1.71774 0.185893 1.71777 0.185725 1.71779C 0.185725 1.71779 0.185598 1.7178 0.185598 1.7178C 0.185597 1.7178 0.185764 1.71778 0.186097 1.71774C 0.186763 1.71765 0.188094 1.71748 0.190082 1.71723C 0.194057 1.71673 0.200656 1.71589 0.209808 1.71476C 0.228113 1.71249 0.256625 1.70901 0.294776 1.70451C 0.371092 1.69552 0.485903 1.68248 0.634691 1.66696C 0.932412 1.63591 1.36533 1.59501 1.89742 1.55676C 2.96427 1.48005 4.41675 1.41491 5.97068 1.45833C 7.53212 1.50197 9.15132 1.65423 10.5677 1.99455C 12.0124 2.34168 13.0809 2.846 13.7082 3.47356L 15.7513 1.4313C 14.5735 0.252986 12.8981 -0.416513 11.2426 -0.814301C 9.55868 -1.2189 7.72109 -1.38267 6.05138 -1.42933C 4.37415 -1.4762 2.82112 -1.4059 1.69025 -1.3246C 1.12348 -1.28385 0.659481 -1.24009 0.335002 -1.20624C 0.17269 -1.18931 0.0450796 -1.17484 -0.0432505 -1.16443C -0.0874217 -1.15923 -0.12179 -1.15504 -0.145783 -1.15206C -0.15778 -1.15058 -0.167185 -1.14939 -0.173927 -1.14853C -0.177298 -1.14811 -0.180003 -1.14776 -0.182034 -1.1475C -0.183049 -1.14737 -0.183896 -1.14726 -0.184573 -1.14717C -0.184912 -1.14713 -0.185292 -1.14708 -0.185462 -1.14706C -0.185799 -1.14701 -0.186094 -1.14697 4.40702e-06 0.285382ZM 13.7082 3.47356C 15.1818 4.94777 15.9152 7.27727 16.2441 9.44143C 16.404 10.4941 16.4591 11.4457 16.4739 12.1337C 16.4813 12.4765 16.4786 12.751 16.4743 12.9364C 16.4721 13.029 16.4695 13.0991 16.4676 13.1442C 16.4667 13.1667 16.4659 13.1829 16.4654 13.1926C 16.4651 13.1974 16.465 13.2005 16.4649 13.202C 16.4648 13.2027 16.4648 13.203 16.4648 13.2029C 16.4648 13.2028 16.4648 13.2026 16.4648 13.2024C 16.4649 13.2022 16.4649 13.2019 16.4649 13.2019C 16.4649 13.2016 16.4649 13.2012 17.9067 13.2877C 19.3485 13.3742 19.3486 13.3738 19.3486 13.3733C 19.3486 13.3731 19.3486 13.3727 19.3486 13.3723C 19.3487 13.3716 19.3487 13.3708 19.3488 13.3698C 19.3489 13.368 19.349 13.3656 19.3492 13.3629C 19.3495 13.3574 19.3499 13.3501 19.3503 13.3411C 19.3513 13.3232 19.3525 13.2984 19.3538 13.2672C 19.3565 13.2046 19.3597 13.1161 19.3623 13.0041C 19.3675 12.7803 19.3705 12.4622 19.3621 12.0715C 19.3453 11.2922 19.2831 10.2122 19.1001 9.0075C 18.7429 6.65697 17.8879 3.56885 15.7513 1.4313L 13.7082 3.47356Z"/>
<path id="path62_stroke" d="M -0.407717 2.3541C -1.17299 2.57928 -1.61083 3.3822 -1.38566 4.14748C -1.16048 4.91275 -0.357557 5.35059 0.407719 5.12542L -0.407717 2.3541ZM 73.5042 5.32892L 74.9483 5.36076C 74.963 4.69333 74.5184 4.10277 73.8729 3.93237L 73.5042 5.32892ZM 73.071 24.9768L 73.8869 26.1688C 74.2709 25.9059 74.5048 25.474 74.515 25.0087L 73.071 24.9768ZM 45.9221 29.1668C 45.1244 29.1668 44.4777 29.8134 44.4777 30.6112C 44.4777 31.4089 45.1244 32.0556 45.9221 32.0556L 45.9221 29.1668ZM 1.10175e-06 3.73976C 0.407719 5.12542 0.407388 5.12551 0.407178 5.12558C 0.40727 5.12555 0.40718 5.12557 0.407364 5.12552C 0.40773 5.12541 0.408581 5.12516 0.409915 5.12478C 0.412582 5.124 0.417183 5.12266 0.423705 5.12078C 0.43675 5.11702 0.457482 5.11107 0.485817 5.10306C 0.542487 5.08704 0.629566 5.06274 0.746375 5.03109C 0.979998 4.96778 1.33252 4.87502 1.79852 4.76005C 2.73055 4.53012 4.1163 4.21141 5.91241 3.86183C 9.50497 3.16261 14.7371 2.34031 21.2625 1.8574C 34.3153 0.891444 52.5263 1.28463 73.1355 6.72546L 73.8729 3.93237C 52.8923 -1.60651 34.3512 -2.00791 21.0493 -1.02351C 14.3974 -0.531242 9.05159 0.307858 5.36052 1.02625C 3.51482 1.38548 2.08233 1.71463 1.10659 1.95535C 0.618698 2.07572 0.244943 2.17399 -0.00923792 2.24287C -0.136331 2.27731 -0.233536 2.30441 -0.300174 2.32325C -0.333493 2.33267 -0.359171 2.34003 -0.377123 2.34521C -0.386099 2.3478 -0.393144 2.34985 -0.398246 2.35133C -0.400797 2.35208 -0.402863 2.35268 -0.404442 2.35314C -0.405231 2.35337 -0.406051 2.35361 -0.406445 2.35373C -0.407142 2.35393 -0.407717 2.3541 1.10175e-06 3.73976ZM 72.0602 5.29708L 71.627 24.945L 74.515 25.0087L 74.9483 5.36076L 72.0602 5.29708ZM 73.071 24.9768C 72.2551 23.7849 72.2557 23.7845 72.2563 23.7841C 72.2564 23.784 72.257 23.7837 72.2573 23.7835C 72.2578 23.7831 72.2583 23.7828 72.2586 23.7825C 72.2593 23.7821 72.2595 23.782 72.2591 23.7822C 72.2585 23.7826 72.2558 23.7844 72.2512 23.7875C 72.2418 23.7937 72.2244 23.805 72.199 23.8212C 72.148 23.8536 72.0647 23.9054 71.9483 23.9738C 71.7155 24.1107 71.3505 24.3143 70.8486 24.5627C 69.8449 25.0594 68.2924 25.7361 66.1523 26.4177C 61.8742 27.7803 55.235 29.1668 45.9221 29.1668L 45.9221 32.0556C 55.5268 32.0556 62.462 30.6249 67.029 29.1703C 69.3115 28.4433 70.9991 27.7114 72.13 27.1517C 72.6953 26.8719 73.1212 26.6353 73.4125 26.4641C 73.5581 26.3784 73.67 26.3092 73.7489 26.259C 73.7883 26.2339 73.8195 26.2137 73.8425 26.1985C 73.854 26.1909 73.8634 26.1846 73.8708 26.1796C 73.8745 26.1772 73.8777 26.175 73.8803 26.1732C 73.8817 26.1723 73.8829 26.1715 73.884 26.1707C 73.8845 26.1703 73.8852 26.1699 73.8855 26.1697C 73.8862 26.1692 73.8869 26.1688 73.071 24.9768Z"/>
<path id="path63_fill" d="M 74.5351 98.8356L 1.25621 98.8356C 0.558315 98.8356 0 98.2803 0 97.5863L 0 1.24933C 0 0.555256 0.558315 0 1.25621 0L 74.5351 0C 75.2329 0 75.7913 0.555256 75.7913 1.24933L 75.7913 97.5863C 75.9308 98.2803 75.3725 98.8356 74.5351 98.8356Z"/>
<path id="path64_fill" d="M 74.5351 98.8356L 1.25621 98.8356C 0.558315 98.8356 0 98.2803 0 97.5863L 0 1.24933C 0 0.555256 0.558315 1.54115e-16 1.25621 1.54115e-16L 74.5351 1.54115e-16C 75.2329 1.54115e-16 75.7913 0.555256 75.7913 1.24933L 75.7913 97.5863C 75.9308 98.2803 75.3725 98.8356 74.5351 98.8356Z"/>
<path id="path65_stroke" d="M 75.7913 97.5863L 74.5047 97.5863C 74.5047 97.6714 74.5131 97.7564 74.5299 97.8399L 75.7913 97.5863ZM 74.5351 97.549L 1.25621 97.549L 1.25621 100.122L 74.5351 100.122L 74.5351 97.549ZM 1.25621 97.549C 1.2537 97.549 1.25648 97.5487 1.26167 97.5509C 1.2661 97.5528 1.27016 97.5555 1.27364 97.5589C 1.27713 97.5624 1.28061 97.5672 1.28325 97.5734C 1.28457 97.5766 1.28548 97.5796 1.28603 97.5823C 1.2866 97.5851 1.28659 97.5866 1.28659 97.5863L -1.28659 97.5863C -1.28659 98.9976 -0.145563 100.122 1.25621 100.122L 1.25621 97.549ZM 1.28659 97.5863L 1.28659 1.24933L -1.28659 1.24933L -1.28659 97.5863L 1.28659 97.5863ZM 1.28659 1.24933C 1.28659 1.24903 1.2866 1.2505 1.28603 1.25326C 1.28548 1.25596 1.28457 1.25901 1.28325 1.26214C 1.28061 1.26837 1.27713 1.27317 1.27365 1.27664C 1.27017 1.2801 1.2661 1.28282 1.26168 1.28467C 1.25649 1.28684 1.2537 1.28659 1.25621 1.28659L 1.25621 -1.28659C -0.145574 -1.28659 -1.28659 -0.161962 -1.28659 1.24933L 1.28659 1.24933ZM 1.25621 1.28659L 74.5351 1.28659L 74.5351 -1.28659L 1.25621 -1.28659L 1.25621 1.28659ZM 74.5351 1.28659C 74.5376 1.28659 74.5348 1.28684 74.5296 1.28467C 74.5252 1.28282 74.5211 1.28009 74.5176 1.27664C 74.5141 1.27317 74.5106 1.26837 74.508 1.26214C 74.5067 1.25901 74.5058 1.25596 74.5052 1.25326C 74.5047 1.2505 74.5047 1.24903 74.5047 1.24933L 77.0779 1.24933C 77.0779 -0.161957 75.9368 -1.28659 74.5351 -1.28659L 74.5351 1.28659ZM 74.5047 1.24933L 74.5047 97.5863L 77.0779 97.5863L 77.0779 1.24933L 74.5047 1.24933ZM 74.5299 97.8399C 74.5248 97.8143 74.5217 97.7621 74.5414 97.6978C 74.5607 97.6345 74.5936 97.5875 74.6223 97.5589C 74.6782 97.5034 74.6774 97.549 74.5351 97.549L 74.5351 100.122C 75.2302 100.122 75.9273 99.8902 76.4368 99.3834C 76.9669 98.8562 77.2084 98.1071 77.0526 97.3326L 74.5299 97.8399Z"/>
<path id="path66_fill" d="M 60.8563 0L 0 0L 0 42.0606L 60.8563 42.0606L 60.8563 0Z"/>
<path id="path67_stroke" d="M 0 0L 0 -0.820629C -0.453221 -0.820629 -0.820629 -0.453221 -0.820629 1.82216e-16L 0 0ZM 60.8563 0L 61.677 0C 61.677 -0.453221 61.3096 -0.820629 60.8563 -0.820629L 60.8563 0ZM 60.8563 42.0606L 60.8563 42.8813C 61.3096 42.8813 61.677 42.5139 61.677 42.0606L 60.8563 42.0606ZM 0 42.0606L -0.820629 42.0606C -0.820629 42.5139 -0.453221 42.8813 1.82216e-16 42.8813L 0 42.0606ZM 0 0.820629L 60.8563 0.820629L 60.8563 -0.820629L 0 -0.820629L 0 0.820629ZM 60.0357 0L 60.0357 42.0606L 61.677 42.0606L 61.677 0L 60.0357 0ZM 60.8563 41.24L 0 41.24L 0 42.8813L 60.8563 42.8813L 60.8563 41.24ZM 0.820629 42.0606L 0.820629 0L -0.820629 0L -0.820629 42.0606L 0.820629 42.0606Z"/>
<path id="path68_stroke" d="M 0 -0.804134C -0.444111 -0.804134 -0.804134 -0.444111 -0.804134 0C -0.804134 0.444111 -0.444111 0.804134 0 0.804134L 0 -0.804134ZM 16 0.804134C 16.4441 0.804134 16.8041 0.444111 16.8041 0C 16.8041 -0.444111 16.4441 -0.804134 16 -0.804134L 16 0.804134ZM 0 0.804134L 16 0.804134L 16 -0.804134L 0 -0.804134L 0 0.804134Z"/>
<path id="path69_stroke" d="M -0.804134 33C -0.804134 33.4441 -0.444111 33.8041 0 33.8041C 0.444111 33.8041 0.804134 33.4441 0.804134 33L -0.804134 33ZM 0.804134 0C 0.804134 -0.444111 0.444111 -0.804134 0 -0.804134C -0.444111 -0.804134 -0.804134 -0.444111 -0.804134 0L 0.804134 0ZM 0.804134 33L 0.804134 0L -0.804134 0L -0.804134 33L 0.804134 33Z"/>
<path id="path70_stroke" d="M 36.5 0.804134C 36.9441 0.804134 37.3041 0.444111 37.3041 0C 37.3041 -0.444111 36.9441 -0.804134 36.5 -0.804134L 36.5 0.804134ZM 0 -0.804134C -0.444111 -0.804134 -0.804134 -0.444111 -0.804134 0C -0.804134 0.444111 -0.444111 0.804134 0 0.804134L 0 -0.804134ZM 36.5 -0.804134L 0 -0.804134L 0 0.804134L 36.5 0.804134L 36.5 -0.804134Z"/>
<path id="path71_stroke" d="M 0 -0.804134C -0.444111 -0.804134 -0.804134 -0.444111 -0.804134 0C -0.804134 0.444111 -0.444111 0.804134 0 0.804134L 0 -0.804134ZM 52 0.804134C 52.4441 0.804134 52.8041 0.444111 52.8041 0C 52.8041 -0.444111 52.4441 -0.804134 52 -0.804134L 52 0.804134ZM 0 0.804134L 52 0.804134L 52 -0.804134L 0 -0.804134L 0 0.804134Z"/>
<path id="path72_stroke" d="M 0.804134 0C 0.804134 -0.444111 0.444111 -0.804134 0 -0.804134C -0.444111 -0.804134 -0.804134 -0.444111 -0.804134 0L 0.804134 0ZM 0 19L -0.804134 19C -0.804134 19.4441 -0.444111 19.8041 1.78554e-16 19.8041L 0 19ZM 9 19.8041C 9.44411 19.8041 9.80413 19.4441 9.80413 19C 9.80413 18.5559 9.44411 18.1959 9 18.1959L 9 19.8041ZM -0.804134 0L -0.804134 19L 0.804134 19L 0.804134 0L -0.804134 0ZM 0 19.8041L 9 19.8041L 9 18.1959L 0 18.1959L 0 19.8041Z"/>
<path id="path73_stroke" d="M 0 18.1959C -0.444111 18.1959 -0.804134 18.5559 -0.804134 19C -0.804134 19.4441 -0.444111 19.8041 0 19.8041L 0 18.1959ZM 15.5 19L 15.5 19.8041C 15.9441 19.8041 16.3041 19.4441 16.3041 19L 15.5 19ZM 16.3041 0C 16.3041 -0.444111 15.9441 -0.804134 15.5 -0.804134C 15.0559 -0.804134 14.6959 -0.444111 14.6959 0L 16.3041 0ZM 0 19.8041L 15.5 19.8041L 15.5 18.1959L 0 18.1959L 0 19.8041ZM 16.3041 19L 16.3041 0L 14.6959 0L 14.6959 19L 16.3041 19Z"/>
<path id="path74_fill" d="M 18 9C 18 16.9706 9 28 9 28C 9 28 0 16.9706 0 9C 0 4.02944 4.02944 0 9 0C 13.9706 0 18 4.02944 18 9Z"/>
<path id="path75_stroke" d="M 9 28L 8.37697 28.5084C 8.52969 28.6955 8.75844 28.8041 9 28.8041C 9.24156 28.8041 9.47031 28.6955 9.62303 28.5084L 9 28ZM 17.1959 9C 17.1959 12.7464 15.0553 17.3301 12.8103 21.0755C 11.7007 22.9266 10.5899 24.534 9.75623 25.6787C 9.33969 26.2507 8.99308 26.7061 8.75141 27.0175C 8.63059 27.1733 8.53605 27.2929 8.47217 27.3731C 8.44023 27.4132 8.41597 27.4434 8.39991 27.4633C 8.39189 27.4732 8.38592 27.4806 8.38207 27.4853C 8.38015 27.4877 8.37875 27.4894 8.3779 27.4905C 8.37747 27.491 8.37718 27.4913 8.37703 27.4915C 8.37695 27.4916 8.37693 27.4916 8.37689 27.4917C 8.37691 27.4917 8.37697 27.4916 9 28C 9.62303 28.5084 9.62315 28.5082 9.62331 28.5081C 9.62341 28.5079 9.6236 28.5077 9.6238 28.5075C 9.62419 28.507 9.62471 28.5063 9.62538 28.5055C 9.62671 28.5039 9.62857 28.5016 9.63098 28.4986C 9.63578 28.4927 9.64272 28.4841 9.65172 28.473C 9.66973 28.4506 9.696 28.4179 9.72998 28.3753C 9.79793 28.29 9.89675 28.1649 10.022 28.0035C 10.2725 27.6806 10.6291 27.2121 11.0563 26.6255C 11.9101 25.4531 13.0493 23.805 14.1897 21.9024C 16.4447 18.1405 18.8041 13.2241 18.8041 9L 17.1959 9ZM 9 28C 9.62303 27.4916 9.62309 27.4917 9.62311 27.4917C 9.62307 27.4916 9.62305 27.4916 9.62297 27.4915C 9.62282 27.4913 9.62253 27.491 9.6221 27.4905C 9.62125 27.4894 9.61985 27.4877 9.61793 27.4853C 9.61408 27.4806 9.60811 27.4732 9.60009 27.4633C 9.58403 27.4434 9.55977 27.4132 9.52783 27.3731C 9.46395 27.2929 9.36941 27.1733 9.24859 27.0175C 9.00692 26.7061 8.66031 26.2507 8.24377 25.6787C 7.41009 24.534 6.29929 22.9266 5.18972 21.0755C 2.94466 17.3301 0.804134 12.7464 0.804134 9L -0.804134 9C -0.804134 13.2241 1.55534 18.1405 3.81028 21.9024C 4.95071 23.805 6.08991 25.4531 6.94373 26.6255C 7.37094 27.2121 7.72746 27.6806 7.97797 28.0035C 8.10325 28.1649 8.20207 28.29 8.27002 28.3753C 8.304 28.4179 8.33027 28.4506 8.34828 28.473C 8.35728 28.4841 8.36422 28.4927 8.36902 28.4986C 8.37143 28.5016 8.37329 28.5039 8.37462 28.5055C 8.37529 28.5063 8.37581 28.507 8.3762 28.5075C 8.3764 28.5077 8.37659 28.5079 8.37669 28.5081C 8.37685 28.5082 8.37697 28.5084 9 28ZM 0.804134 9C 0.804134 4.47355 4.47355 0.804134 9 0.804134L 9 -0.804134C 3.58533 -0.804134 -0.804134 3.58533 -0.804134 9L 0.804134 9ZM 9 0.804134C 13.5265 0.804134 17.1959 4.47355 17.1959 9L 18.8041 9C 18.8041 3.58533 14.4147 -0.804134 9 -0.804134L 9 0.804134Z"/>
<path id="path76_fill" d="M 30.4282 0L 0 0L 0 39.4232L 30.4282 39.4232L 30.4282 0Z"/>
<path id="path77_stroke" d="M 0 0L 0 -0.820629C -0.453221 -0.820629 -0.820629 -0.453221 -0.820629 1.82216e-16L 0 0ZM 30.4282 0L 31.2488 0C 31.2488 -0.453221 30.8814 -0.820629 30.4282 -0.820629L 30.4282 0ZM 30.4282 39.4232L 30.4282 40.2438C 30.8814 40.2438 31.2488 39.8764 31.2488 39.4232L 30.4282 39.4232ZM 0 39.4232L -0.820629 39.4232C -0.820629 39.8764 -0.453221 40.2438 1.82216e-16 40.2438L 0 39.4232ZM 0 0.820629L 30.4282 0.820629L 30.4282 -0.820629L 0 -0.820629L 0 0.820629ZM 29.6075 0L 29.6075 39.4232L 31.2488 39.4232L 31.2488 0L 29.6075 0ZM 30.4282 38.6026L 0 38.6026L 0 40.2438L 30.4282 40.2438L 30.4282 38.6026ZM 0.820629 39.4232L 0.820629 0L -0.820629 0L -0.820629 39.4232L 0.820629 39.4232Z"/>
<path id="path78_fill" d="M 25.6825 0L -2.1298e-06 0L -2.1298e-06 17.6294L 25.6825 17.6294L 25.6825 0Z"/>
<path id="path79_stroke" d="M -2.1298e-06 0L -2.1298e-06 -0.820629C -0.453223 -0.820629 -0.820631 -0.453221 -0.820631 1.82216e-16L -2.1298e-06 0ZM 25.6825 0L 26.5031 0C 26.5031 -0.453221 26.1357 -0.820629 25.6825 -0.820629L 25.6825 0ZM 25.6825 17.6294L 25.6825 18.45C 26.1357 18.45 26.5031 18.0826 26.5031 17.6294L 25.6825 17.6294ZM -2.1298e-06 17.6294L -0.820631 17.6294C -0.820631 18.0826 -0.453223 18.45 -2.1298e-06 18.45L -2.1298e-06 17.6294ZM -2.1298e-06 0.820629L 25.6825 0.820629L 25.6825 -0.820629L -2.1298e-06 -0.820629L -2.1298e-06 0.820629ZM 24.8619 0L 24.8619 17.6294L 26.5031 17.6294L 26.5031 0L 24.8619 0ZM 25.6825 16.8088L -2.1298e-06 16.8088L -2.1298e-06 18.45L 25.6825 18.45L 25.6825 16.8088ZM 0.820627 17.6294L 0.820627 0L -0.820631 0L -0.820631 17.6294L 0.820627 17.6294Z"/>
<path id="path80_fill" d="M 25.6825 0L -2.1298e-06 0L -2.1298e-06 16.9353L 25.6825 16.9353L 25.6825 0Z"/>
<path id="path81_stroke" d="M -2.1298e-06 0L -2.1298e-06 -0.820629C -0.453223 -0.820629 -0.820631 -0.453221 -0.820631 1.82216e-16L -2.1298e-06 0ZM 25.6825 0L 26.5031 0C 26.5031 -0.453221 26.1357 -0.820629 25.6825 -0.820629L 25.6825 0ZM 25.6825 16.9353L 25.6825 17.7559C 26.1357 17.7559 26.5031 17.3885 26.5031 16.9353L 25.6825 16.9353ZM -2.1298e-06 16.9353L -0.820631 16.9353C -0.820631 17.3885 -0.453223 17.7559 -2.1298e-06 17.7559L -2.1298e-06 16.9353ZM -2.1298e-06 0.820629L 25.6825 0.820629L 25.6825 -0.820629L -2.1298e-06 -0.820629L -2.1298e-06 0.820629ZM 24.8619 0L 24.8619 16.9353L 26.5031 16.9353L 26.5031 0L 24.8619 0ZM 25.6825 16.1147L -2.1298e-06 16.1147L -2.1298e-06 17.7559L 25.6825 17.7559L 25.6825 16.1147ZM 0.820627 16.9353L 0.820627 0L -0.820631 0L -0.820631 16.9353L 0.820627 16.9353Z"/>
<path id="path82_fill" d="M 4 8C 6.20914 8 8 6.20914 8 4C 8 1.79086 6.20914 0 4 0C 1.79086 0 -2.03451e-06 1.79086 -2.03451e-06 4C -2.03451e-06 6.20914 1.79086 8 4 8Z"/>
<path id="path83_stroke" d="M 7.19586 4C 7.19586 5.76503 5.76503 7.19586 4 7.19586L 4 8.80413C 6.65325 8.80413 8.80413 6.65325 8.80413 4L 7.19586 4ZM 4 7.19586C 2.23497 7.19586 0.804132 5.76503 0.804132 4L -0.804137 4C -0.804137 6.65325 1.34675 8.80413 4 8.80413L 4 7.19586ZM 0.804132 4C 0.804132 2.23497 2.23497 0.804134 4 0.804134L 4 -0.804134C 1.34675 -0.804134 -0.804137 1.34675 -0.804137 4L 0.804132 4ZM 4 0.804134C 5.76503 0.804134 7.19586 2.23497 7.19586 4L 8.80413 4C 8.80413 1.34675 6.65325 -0.804134 4 -0.804134L 4 0.804134Z"/>
<path id="path84_fill" d="M 3.90821 2.11813e-06L 0 2.11813e-06L 0 30.5391L 3.90821 30.5391L 3.90821 2.11813e-06Z"/>
<path id="path85_fill" d="M 3.9082 2.11813e-06L 0 2.11813e-06L 0 30.5391L 3.9082 30.5391L 3.9082 2.11813e-06Z"/>
<path id="path86_fill" d="M 3.9082 2.11813e-06L 0 2.11813e-06L 0 30.5391L 3.9082 30.5391L 3.9082 2.11813e-06Z"/>
<path id="path87_fill" d="M 3.90821 2.11813e-06L 0 2.11813e-06L 0 30.5391L 3.90821 30.5391L 3.90821 2.11813e-06Z"/>
<path id="path88_fill" d="M 3.90821 0L 0 0L 0 10.2722L 3.90821 10.2722L 3.90821 0Z"/>
<path id="path89_fill" d="M 3.9082 0L 0 0L 0 24.4313L 3.9082 24.4313L 3.9082 0Z"/>
<path id="path90_fill" d="M 3.9082 -2.11813e-06L 0 -2.11813e-06L 0 19.8504L 3.9082 19.8504L 3.9082 -2.11813e-06Z"/>
<path id="path91_fill" d="M 3.90821 -2.11813e-06L 0 -2.11813e-06L 0 28.0404L 3.90821 28.0404L 3.90821 -2.11813e-06Z"/>
<path id="path92_stroke" d="M 2.1298e-06 -0.683868C -0.377688 -0.683868 -0.683867 -0.377689 -0.683867 1.52588e-06C -0.683867 0.377692 -0.377688 0.683871 2.1298e-06 0.683871L 2.1298e-06 -0.683868ZM 17.8661 0.683871C 18.2438 0.683871 18.5499 0.377692 18.5499 1.52588e-06C 18.5499 -0.377689 18.2438 -0.683868 17.8661 -0.683868L 17.8661 0.683871ZM 2.1298e-06 0.683871L 17.8661 0.683871L 17.8661 -0.683868L 2.1298e-06 -0.683868L 2.1298e-06 0.683871Z"/>
<path id="path93_stroke" d="M 2.1298e-06 -0.683869C -0.377688 -0.683869 -0.683867 -0.377691 -0.683867 0C -0.683867 0.377691 -0.377688 0.683869 2.1298e-06 0.683869L 2.1298e-06 -0.683869ZM 17.8661 0.683869C 18.2438 0.683869 18.5499 0.377691 18.5499 0C 18.5499 -0.377691 18.2438 -0.683869 17.8661 -0.683869L 17.8661 0.683869ZM 2.1298e-06 0.683869L 17.8661 0.683869L 17.8661 -0.683869L 2.1298e-06 -0.683869L 2.1298e-06 0.683869Z"/>
<path id="path94_stroke" d="M 2.1298e-06 -0.683868C -0.377688 -0.683868 -0.683867 -0.37769 -0.683867 7.62939e-07C -0.683867 0.377691 -0.377688 0.68387 2.1298e-06 0.68387L 2.1298e-06 -0.683868ZM 17.8661 0.68387C 18.2438 0.68387 18.5499 0.377691 18.5499 7.62939e-07C 18.5499 -0.37769 18.2438 -0.683868 17.8661 -0.683868L 17.8661 0.68387ZM 2.1298e-06 0.68387L 17.8661 0.68387L 17.8661 -0.683868L 2.1298e-06 -0.683868L 2.1298e-06 0.68387Z"/>
<path id="path95_stroke" d="M 2.1298e-06 -0.683866C -0.377688 -0.683866 -0.683867 -0.377688 -0.683867 3.05176e-06C -0.683867 0.377694 -0.377688 0.683872 2.1298e-06 0.683872L 2.1298e-06 -0.683866ZM 17.8661 0.683872C 18.2438 0.683872 18.5499 0.377694 18.5499 3.05176e-06C 18.5499 -0.377688 18.2438 -0.683866 17.8661 -0.683866L 17.8661 0.683872ZM 2.1298e-06 0.683872L 17.8661 0.683872L 17.8661 -0.683866L 2.1298e-06 -0.683866L 2.1298e-06 0.683872Z"/>
<path id="path96_stroke" d="M 5.52668 3.46728C 5.52668 4.60682 4.60344 5.5296 3.46581 5.5296L 3.46581 8.33953C 6.15642 8.33953 8.33661 6.15759 8.33661 3.46728L 5.52668 3.46728ZM 3.46581 5.5296C 2.3282 5.5296 1.40497 4.60683 1.40497 3.46728L -1.40496 3.46728C -1.40496 6.15758 0.775191 8.33953 3.46581 8.33953L 3.46581 5.5296ZM 1.40497 3.46728C 1.40497 2.32773 2.3282 1.40496 3.46581 1.40496L 3.46581 -1.40496C 0.775191 -1.40496 -1.40496 0.77698 -1.40496 3.46728L 1.40497 3.46728ZM 3.46581 1.40496C 4.60344 1.40496 5.52668 2.32774 5.52668 3.46728L 8.33661 3.46728C 8.33661 0.776969 6.15642 -1.40496 3.46581 -1.40496L 3.46581 1.40496Z"/>
<path id="path97_stroke" d="M 5.52669 3.46728C 5.52669 4.60681 4.60344 5.5296 3.4658 5.5296L 3.4658 8.33953C 6.1564 8.33953 8.33662 6.15761 8.33662 3.46728L 5.52669 3.46728ZM 3.4658 5.5296C 2.32819 5.5296 1.40495 4.60683 1.40495 3.46728L -1.40497 3.46728C -1.40497 6.15758 0.775178 8.33953 3.4658 8.33953L 3.4658 5.5296ZM 1.40495 3.46728C 1.40495 2.32773 2.32819 1.40496 3.4658 1.40496L 3.4658 -1.40496C 0.775178 -1.40496 -1.40497 0.77698 -1.40497 3.46728L 1.40495 3.46728ZM 3.4658 1.40496C 4.60344 1.40496 5.52669 2.32775 5.52669 3.46728L 8.33662 3.46728C 8.33662 0.776957 6.1564 -1.40496 3.4658 -1.40496L 3.4658 1.40496Z"/>
<path id="path98_stroke" d="M 5.52666 3.46728C 5.52666 4.60683 4.60343 5.5296 3.46582 5.5296L 3.46582 8.33953C 6.15644 8.33953 8.33659 6.15758 8.33659 3.46728L 5.52666 3.46728ZM 3.46582 5.5296C 2.3282 5.5296 1.40497 4.60683 1.40497 3.46728L -1.40495 3.46728C -1.40495 6.15758 0.775196 8.33953 3.46582 8.33953L 3.46582 5.5296ZM 1.40497 3.46728C 1.40497 2.32773 2.3282 1.40496 3.46582 1.40496L 3.46582 -1.40496C 0.775196 -1.40496 -1.40495 0.77698 -1.40495 3.46728L 1.40497 3.46728ZM 3.46582 1.40496C 4.60343 1.40496 5.52666 2.32773 5.52666 3.46728L 8.33659 3.46728C 8.33659 0.77698 6.15644 -1.40496 3.46582 -1.40496L 3.46582 1.40496Z"/>
<path id="path99_stroke" d="M 5.52668 3.46728C 5.52668 4.60682 4.60344 5.5296 3.46581 5.5296L 3.46581 8.33953C 6.15642 8.33953 8.3366 6.15759 8.3366 3.46728L 5.52668 3.46728ZM 3.46581 5.5296C 2.32819 5.5296 1.40496 4.60683 1.40496 3.46728L -1.40496 3.46728C -1.40496 6.15758 0.775187 8.33953 3.46581 8.33953L 3.46581 5.5296ZM 1.40496 3.46728C 1.40496 2.32773 2.32819 1.40496 3.46581 1.40496L 3.46581 -1.40496C 0.775187 -1.40496 -1.40496 0.77698 -1.40496 3.46728L 1.40496 3.46728ZM 3.46581 1.40496C 4.60344 1.40496 5.52668 2.32774 5.52668 3.46728L 8.3366 3.46728C 8.3366 0.776969 6.15642 -1.40496 3.46581 -1.40496L 3.46581 1.40496Z"/>
<path id="path100_stroke" d="M -0.66908 9.55395C -0.915429 9.92347 -0.815576 10.4227 -0.446054 10.6691C -0.0765307 10.9154 0.422732 10.8156 0.66908 10.4461L -0.66908 9.55395ZM 4 4L 4.64331 3.51752C 4.48672 3.30874 4.23856 3.18893 3.97769 3.19618C 3.71682 3.20342 3.47568 3.3368 3.33092 3.55395L 4 4ZM 7 8L 6.35669 8.48248C 6.51578 8.6946 6.76921 8.81466 7.03413 8.80341C 7.29904 8.79216 7.54138 8.65104 7.6819 8.42619L 7 8ZM 12 0L 12.7192 -0.35962C 12.5892 -0.619788 12.3287 -0.789424 12.0382 -0.803228C 11.7476 -0.817033 11.4723 -0.672853 11.3181 -0.42619L 12 0ZM 16.2808 10.3596C 16.4794 10.7568 16.9624 10.9179 17.3596 10.7192C 17.7568 10.5206 17.9179 10.0376 17.7192 9.64038L 16.2808 10.3596ZM 0.66908 10.4461L 4.66908 4.44605L 3.33092 3.55395L -0.66908 9.55395L 0.66908 10.4461ZM 3.35669 4.48248L 6.35669 8.48248L 7.64331 7.51752L 4.64331 3.51752L 3.35669 4.48248ZM 7.6819 8.42619L 12.6819 0.42619L 11.3181 -0.42619L 6.3181 7.57381L 7.6819 8.42619ZM 11.2808 0.35962L 16.2808 10.3596L 17.7192 9.64038L 12.7192 -0.35962L 11.2808 0.35962Z"/>
</defs>
</svg>
